<?xml version="1.0" standalone="no"?>
<!DOCTYPE svg PUBLIC "-//W3C//DTD SVG 20010904//EN"
 "http://www.w3.org/TR/2001/REC-SVG-20010904/DTD/svg10.dtd">
<svg version="1.0" xmlns="http://www.w3.org/2000/svg"
 width="1561.000000pt" height="1561.000000pt" viewBox="0 0 1561.000000 1561.000000"
 preserveAspectRatio="xMidYMid meet">
<metadata>
Created by potrace 1.11, written by Peter Selinger 2001-2013
</metadata>
<g transform="translate(0.000000,1561.000000) scale(0.100000,-0.100000)"
fill="#000000" stroke="none">
<path d="M9653 15578 c1 -7 -4 -12 -11 -10 -8 1 -11 -2 -7 -7 3 -6 13 -8 23
-5 16 5 16 5 0 -9 -20 -16 -25 -32 -7 -21 6 3 4 -5 -6 -19 -10 -17 -13 -27 -6
-32 8 -4 8 -12 1 -24 -5 -10 -6 -21 -3 -25 3 -3 2 -6 -4 -6 -6 0 -9 -9 -6 -21
4 -12 0 -25 -8 -30 -11 -7 -11 -9 -1 -9 9 0 10 -5 4 -17 -5 -10 -8 -28 -7 -41
1 -13 -2 -25 -6 -28 -5 -2 -5 -12 -2 -21 4 -9 2 -14 -3 -10 -5 3 -10 -3 -10
-14 0 -10 4 -19 8 -19 5 0 1 -11 -7 -24 -11 -17 -13 -26 -5 -31 8 -5 8 -11 -1
-21 -6 -8 -12 -36 -13 -62 -1 -26 -5 -53 -9 -59 -4 -6 -1 -14 5 -16 10 -4 10
-6 1 -6 -7 -1 -10 -8 -7 -16 4 -9 0 -15 -7 -15 -12 0 -12 -2 0 -9 10 -6 10
-10 1 -16 -9 -6 -9 -10 1 -16 11 -7 9 -9 -6 -9 -17 0 -17 -2 -5 -10 8 -5 10
-10 4 -10 -7 0 -9 -11 -6 -26 4 -20 2 -25 -8 -19 -9 6 -10 3 -1 -13 7 -14 8
-23 1 -27 -5 -3 -10 -11 -10 -16 0 -6 6 -7 13 -3 8 6 8 3 -1 -9 -8 -9 -11 -21
-7 -27 3 -5 2 -10 -4 -10 -5 0 -8 -9 -6 -20 2 -11 0 -22 -5 -25 -5 -3 -6 -16
-1 -28 9 -24 4 -50 -8 -42 -4 2 -7 -8 -6 -23 1 -15 -2 -39 -6 -54 -5 -19 -4
-28 4 -28 8 0 7 -4 -2 -9 -8 -5 -11 -16 -8 -24 3 -8 0 -25 -6 -38 -7 -13 -12
-39 -12 -56 1 -18 -3 -33 -8 -33 -5 0 -5 -6 1 -13 9 -10 7 -19 -5 -37 -9 -13
-11 -20 -5 -16 16 9 15 -7 0 -22 -7 -7 -8 -12 -4 -12 5 0 3 -6 -3 -14 -9 -10
-9 -16 -1 -21 8 -5 6 -15 -5 -32 -10 -14 -12 -22 -6 -19 15 10 14 -7 -1 -23
-11 -11 -10 -12 2 -6 12 7 13 6 3 -6 -10 -12 -10 -18 0 -29 10 -10 9 -11 -2
-5 -11 6 -13 4 -8 -8 3 -10 2 -17 -2 -17 -5 0 -7 -10 -3 -22 4 -16 2 -19 -8
-13 -9 6 -11 4 -5 -6 11 -17 14 -50 4 -43 -4 2 -6 -11 -5 -28 1 -18 -2 -39 -7
-45 -5 -7 -6 -13 -1 -13 5 0 2 -5 -6 -10 -12 -8 -12 -10 -1 -10 11 0 11 -3 0
-17 -9 -11 -10 -14 -2 -9 9 5 11 2 7 -8 -3 -9 -11 -13 -16 -10 -6 4 -5 -2 1
-14 7 -14 8 -23 1 -27 -6 -4 -8 -10 -5 -15 3 -5 1 -11 -5 -15 -7 -4 -7 -12 0
-25 11 -21 3 -53 -12 -44 -6 4 -5 -3 1 -15 10 -18 9 -21 -6 -21 -11 0 -14 -3
-7 -8 12 -8 12 -60 1 -79 -4 -6 -4 -19 0 -29 4 -11 3 -15 -5 -10 -7 4 -10 -1
-7 -15 3 -12 1 -27 -2 -33 -4 -5 -8 -34 -9 -64 -1 -29 -8 -60 -16 -69 -11 -14
-11 -16 2 -8 11 7 10 2 -4 -19 -10 -16 -13 -25 -7 -22 7 5 11 -1 11 -14 0 -13
-4 -19 -11 -14 -8 4 -8 0 0 -15 11 -20 8 -26 -13 -22 -5 1 -4 -4 2 -11 7 -9 8
-19 2 -28 -14 -21 -12 -32 3 -24 9 6 9 5 -1 -8 -6 -8 -13 -34 -14 -56 -1 -23
-4 -39 -8 -37 -4 2 -7 -2 -7 -10 0 -8 4 -12 8 -10 4 3 6 -3 5 -12 -2 -9 -8
-19 -16 -21 -10 -4 -9 -6 1 -13 8 -5 9 -9 3 -9 -7 0 -9 -11 -6 -26 4 -21 2
-25 -9 -19 -11 7 -12 6 -2 -6 7 -9 9 -20 3 -29 -5 -9 -5 -19 1 -26 7 -9 4 -16
-11 -24 -12 -7 -18 -16 -13 -23 11 -16 11 -29 1 -49 -5 -9 -4 -19 2 -23 5 -3
7 -12 4 -20 -4 -8 -10 -12 -15 -9 -5 3 -9 0 -9 -5 0 -6 6 -11 13 -11 8 0 9 -3
1 -8 -6 -4 -10 -16 -8 -27 2 -11 -2 -23 -9 -28 -9 -7 -9 -10 0 -14 10 -3 10
-10 2 -25 -6 -11 -9 -31 -6 -44 2 -14 0 -21 -6 -17 -6 4 -8 0 -4 -10 4 -10 1
-17 -6 -17 -8 0 -6 -4 3 -10 8 -5 10 -10 4 -10 -6 0 -10 -15 -9 -35 1 -19 -3
-35 -8 -35 -5 0 -4 -7 3 -15 11 -13 10 -14 -5 -9 -14 6 -16 4 -8 -12 12 -22 6
-47 -9 -38 -7 4 -7 0 0 -13 6 -11 7 -25 2 -33 -4 -7 -4 -24 0 -36 8 -19 6 -22
-7 -17 -13 5 -14 3 -3 -17 9 -18 9 -21 0 -15 -10 6 -12 1 -8 -19 3 -14 2 -26
-1 -26 -9 0 -7 -43 3 -58 4 -7 1 -15 -8 -18 -9 -4 -13 -14 -10 -31 3 -13 1
-22 -4 -19 -4 2 -7 -10 -6 -27 1 -18 -2 -38 -8 -44 -8 -9 -7 -13 3 -13 9 0 10
-3 4 -8 -16 -11 -19 -45 -3 -37 7 3 6 1 -2 -7 -9 -7 -14 -21 -12 -31 2 -10 -2
-24 -8 -32 -9 -10 -9 -15 -2 -15 6 0 9 -7 6 -15 -4 -8 -11 -12 -17 -8 -6 4 -7
1 -2 -8 12 -18 14 -49 4 -49 -5 0 -5 -7 -2 -17 5 -12 3 -14 -8 -8 -12 7 -12 6
-1 -7 9 -12 10 -18 2 -23 -8 -5 -8 -10 0 -20 8 -10 8 -15 0 -20 -8 -5 -8 -10
0 -20 8 -10 8 -15 -1 -21 -8 -4 -9 -3 -5 4 4 7 2 12 -4 12 -6 0 -10 -8 -9 -17
1 -10 0 -20 -1 -23 -7 -19 -5 -52 5 -60 15 -12 57 -1 48 14 -4 6 2 4 12 -4 10
-8 16 -10 12 -4 -4 7 0 14 8 18 8 3 15 0 15 -7 0 -7 5 -4 11 6 11 19 34 24 24
5 -4 -7 -1 -6 7 2 7 8 22 17 33 18 11 2 26 9 34 15 12 10 13 9 6 -3 -6 -9 4
-6 29 8 20 12 34 18 31 12 -3 -5 -1 -10 4 -10 6 0 11 5 11 11 0 5 5 7 10 4 6
-3 10 -1 10 5 0 6 5 8 10 5 6 -4 18 -1 27 7 12 9 15 9 9 1 -5 -9 -2 -11 8 -7
9 3 16 11 16 18 0 6 5 4 10 -4 5 -8 10 -10 10 -5 0 6 12 11 28 12 40 1 73 14
66 25 -4 6 2 6 13 -1 11 -6 23 -7 27 -4 3 3 16 7 29 8 12 2 21 7 20 13 -2 6 4
9 12 6 8 -4 12 -11 9 -16 -4 -6 6 -2 22 8 21 14 26 15 19 4 -7 -12 -6 -13 7
-3 8 7 18 10 21 6 4 -3 7 0 7 7 0 11 3 11 11 3 9 -9 15 -9 24 0 6 7 36 12 68
11 31 0 54 3 52 7 -3 4 5 5 17 1 16 -4 19 -2 13 9 -5 8 2 5 15 -6 13 -11 20
-15 17 -8 -4 6 -3 14 3 18 5 3 10 0 10 -7 0 -9 3 -9 10 2 7 11 10 11 10 2 0
-9 5 -10 19 -2 26 13 34 13 25 -2 -6 -10 -5 -10 7 -1 8 6 31 10 52 9 20 -1 37
3 37 8 0 4 8 2 17 -5 11 -10 14 -10 9 -1 -4 6 -3 12 3 12 5 0 13 -5 17 -11 4
-8 9 -7 14 2 7 10 12 10 26 -2 11 -9 15 -9 10 -1 -4 7 -1 12 9 12 10 0 14 -5
10 -12 -4 -7 0 -5 7 4 13 15 15 15 26 0 7 -9 10 -12 7 -6 -2 7 2 15 11 18 9 4
12 2 8 -5 -4 -7 1 -10 12 -7 24 4 27 65 4 78 -11 7 -12 9 -1 10 11 0 11 3 1
15 -10 12 -10 15 1 15 11 0 11 2 1 9 -7 4 -12 12 -11 17 4 24 -2 45 -12 38 -8
-4 -8 -1 -1 13 7 12 7 25 1 36 -6 9 -7 17 -3 17 3 0 1 7 -6 15 -10 12 -10 15
0 15 9 0 10 3 1 13 -6 8 -8 17 -4 20 3 4 1 7 -5 7 -7 0 -12 5 -12 11 0 5 6 7
13 3 8 -5 8 -2 -2 9 -7 9 -10 17 -6 17 4 0 2 6 -4 14 -9 11 -9 15 0 18 8 3 7
9 -5 20 -11 12 -13 19 -5 24 7 4 8 9 1 13 -6 3 -11 24 -13 46 -1 22 -8 46 -13
54 -8 11 -8 13 1 8 17 -10 8 34 -9 45 -10 6 -9 8 2 8 9 0 11 3 5 8 -6 4 -10
19 -10 35 1 15 -2 27 -6 27 -4 0 -10 7 -13 16 -4 10 -2 13 6 8 8 -5 9 -2 4 12
-5 10 -9 28 -11 39 -1 11 -3 20 -4 20 -2 0 -4 8 -6 18 -2 9 2 17 8 17 8 0 7 4
-2 9 -7 5 -11 13 -7 19 3 6 -2 15 -11 21 -10 6 -13 11 -7 11 12 0 15 30 4 30
-4 0 -7 18 -7 41 0 25 -5 44 -14 50 -12 7 -12 9 1 9 9 0 11 3 5 8 -6 4 -11 15
-12 25 0 9 -1 29 -2 43 -1 15 -5 23 -12 18 -8 -5 -8 -1 0 14 8 15 8 23 0 28
-6 3 -9 15 -6 25 3 10 -1 26 -8 36 -9 13 -10 22 -3 30 6 7 6 13 1 13 -8 0 -14
26 -17 83 0 15 -4 27 -9 27 -4 0 -3 9 3 19 7 14 7 22 -2 27 -7 5 -8 3 -3 -6 5
-8 4 -11 -2 -7 -6 4 -9 19 -7 34 1 15 -2 33 -8 40 -8 10 -7 13 3 13 12 0 12 2
0 9 -8 5 -15 24 -16 43 0 18 -4 39 -9 46 -4 7 -2 12 5 12 8 0 8 4 -1 15 -7 8
-9 15 -5 15 4 0 2 7 -5 15 -9 11 -9 15 -1 15 7 0 9 5 6 10 -4 6 -11 7 -17 4
-6 -4 -6 2 1 15 8 14 8 21 1 21 -6 0 -8 11 -6 24 2 14 -2 33 -9 43 -9 13 -10
22 -3 30 7 9 7 13 -1 13 -6 0 -10 8 -9 18 4 45 -2 73 -14 66 -10 -6 -10 -4 0
8 10 13 10 17 0 21 -10 4 -10 7 1 15 8 6 9 11 2 13 -5 2 -11 20 -13 39 -1 19
-7 38 -13 42 -7 5 -6 14 3 29 8 11 9 18 3 15 -5 -4 -12 -2 -16 4 -3 5 -1 10 6
10 8 0 8 4 -1 15 -7 8 -9 15 -6 15 4 0 2 10 -5 21 -6 12 -7 19 -2 16 5 -4 10
0 10 8 0 8 -4 12 -9 9 -4 -3 -8 -1 -8 5 0 5 -3 17 -7 27 -5 13 -3 15 8 9 11
-7 12 -6 3 6 -6 8 -10 24 -9 36 1 12 -2 20 -7 17 -4 -3 -6 9 -4 25 2 18 -2 36
-10 42 -11 9 -11 15 -3 25 9 11 8 14 -1 14 -8 0 -11 3 -7 6 3 3 2 17 -4 31 -7
18 -6 22 4 17 8 -6 8 -3 -1 9 -8 9 -11 21 -7 27 3 5 2 10 -3 10 -5 0 -8 16 -7
35 0 19 -3 35 -8 35 -4 0 -6 4 -2 9 3 5 1 12 -5 16 -6 4 -7 12 -1 23 6 10 4
23 -6 39 -12 19 -13 23 -2 23 12 0 12 2 0 9 -8 5 -11 16 -8 25 4 9 1 16 -6 16
-8 0 -6 4 3 10 13 8 9 13 -10 12 -3 0 -4 22 -4 49 1 27 -2 52 -7 55 -5 3 -9
10 -9 15 0 6 5 7 11 3 6 -3 4 4 -4 17 -8 13 -13 33 -11 44 1 11 -5 28 -14 39
-9 11 -11 16 -4 12 7 -4 12 -1 12 9 0 10 -5 13 -12 9 -9 -5 -9 -2 1 9 10 13
10 17 1 17 -7 0 -10 8 -7 20 3 11 1 20 -4 20 -5 0 -9 5 -9 11 0 5 6 7 13 3 8
-5 8 -2 -2 9 -7 9 -10 17 -5 18 5 0 0 4 -11 9 -19 8 -19 9 -1 9 16 1 17 3 5
18 -12 14 -12 16 1 9 12 -6 12 -5 0 6 -10 8 -15 26 -13 46 2 23 -1 31 -9 26
-6 -4 -8 -3 -5 2 3 6 2 16 -3 24 -5 9 -5 19 2 27 7 8 7 13 0 13 -5 0 -9 16 -7
35 1 21 -2 32 -8 28 -6 -4 -8 0 -4 10 4 10 2 17 -5 17 -7 0 -6 5 2 15 9 10 9
15 1 15 -6 0 -9 10 -7 22 1 13 -3 37 -11 55 -10 26 -11 33 -1 33 9 0 10 3 2 8
-10 7 -14 21 -15 65 0 10 -5 15 -12 11 -8 -5 -8 -3 1 7 14 15 16 33 3 24 -6
-3 -10 3 -11 12 0 10 -1 35 -1 55 -1 25 -5 35 -13 31 -6 -4 -5 0 2 9 9 11 10
18 2 23 -5 3 -10 11 -10 16 0 6 5 7 11 3 6 -3 3 5 -6 20 -19 28 -26 33 -22 14z"/>
<path d="M6562 14684 c-7 -8 -9 -14 -4 -14 5 0 15 -20 22 -45 7 -25 17 -45 23
-45 6 0 7 -3 4 -6 -3 -4 -1 -16 5 -27 10 -19 12 -30 17 -75 0 -7 5 -11 9 -8 4
2 8 -3 9 -12 2 -29 8 -47 16 -53 4 -3 10 -21 12 -39 3 -19 8 -36 13 -39 5 -3
8 -16 7 -28 -1 -13 3 -19 8 -16 6 4 8 -1 4 -11 -4 -10 -3 -15 3 -11 6 3 11 0
12 -7 0 -7 2 -17 2 -23 1 -5 5 -16 9 -22 5 -7 5 -17 2 -23 -3 -5 -1 -10 4 -10
6 0 10 -3 10 -7 -3 -19 2 -34 9 -29 5 3 9 -1 9 -9 0 -8 -5 -11 -11 -8 -6 3 -5
0 2 -8 6 -7 12 -21 12 -32 0 -10 5 -15 10 -12 6 4 10 -6 10 -24 0 -16 5 -33
10 -36 6 -3 10 -17 10 -31 0 -16 4 -23 11 -18 8 4 9 0 4 -15 -4 -13 -2 -21 5
-21 6 0 8 -4 5 -10 -3 -5 -1 -10 6 -10 8 0 7 -5 -2 -17 -10 -11 -10 -14 -1 -9
7 4 12 2 12 -6 0 -7 7 -26 15 -41 10 -19 10 -26 2 -22 -7 4 -3 -1 7 -9 15 -12
16 -16 5 -16 -11 -1 -11 -3 2 -13 9 -7 15 -22 14 -35 -1 -13 5 -27 14 -32 9
-5 12 -10 7 -10 -5 0 -3 -7 4 -15 6 -8 9 -18 6 -23 -3 -6 1 -15 9 -22 8 -7 15
-18 15 -24 0 -6 -5 -4 -10 4 -5 8 -10 12 -10 7 0 -11 23 -51 35 -59 6 -5 4 -8
-5 -8 -13 0 -13 -2 -1 -9 8 -5 15 -17 16 -28 4 -32 17 -53 29 -46 6 4 6 0 -2
-9 -10 -13 -10 -17 0 -21 10 -4 9 -6 -1 -6 -12 -1 -12 -3 2 -13 9 -7 19 -29
22 -48 3 -19 11 -38 18 -42 6 -4 8 -10 4 -14 -4 -4 0 -18 8 -31 9 -13 13 -28
10 -33 -3 -6 -2 -10 4 -10 5 0 8 -11 7 -25 -2 -13 0 -22 4 -20 10 6 22 -24 14
-36 -3 -5 0 -9 5 -9 6 0 11 -12 11 -26 0 -14 4 -23 8 -20 5 3 9 -1 9 -9 0 -28
26 -95 37 -95 6 0 4 -5 -4 -10 -11 -7 -11 -10 -2 -10 7 0 11 -4 7 -9 -3 -5 -1
-12 5 -16 6 -4 8 -11 5 -16 -4 -5 -1 -9 5 -9 6 0 9 -4 6 -8 -3 -5 2 -21 10
-36 7 -16 14 -37 14 -48 0 -13 4 -17 13 -12 9 6 9 5 -1 -8 -10 -12 -9 -18 3
-28 8 -7 12 -16 9 -21 -3 -5 1 -9 8 -9 9 0 9 -3 -2 -10 -13 -8 -12 -10 4 -10
13 0 17 -5 13 -20 -3 -11 -2 -20 3 -20 4 0 11 -7 14 -16 3 -8 2 -12 -4 -9 -12
7 -2 -21 18 -52 7 -12 11 -27 7 -33 -3 -5 -1 -10 5 -10 6 0 8 -5 5 -10 -3 -6
1 -13 10 -16 13 -6 14 -8 3 -15 -10 -7 -11 -9 0 -9 7 0 11 -4 7 -9 -3 -5 -1
-13 5 -16 8 -5 7 -11 -1 -21 -10 -12 -9 -13 6 -8 15 6 17 3 13 -14 -5 -16 -2
-22 10 -23 11 0 12 -3 5 -6 -10 -3 -9 -11 3 -34 8 -16 12 -33 10 -38 -3 -5 1
-14 9 -21 8 -7 12 -16 9 -21 -3 -5 -1 -9 5 -9 6 0 8 -7 5 -15 -4 -8 -2 -15 4
-15 6 0 9 -12 7 -26 -1 -15 3 -28 11 -31 8 -3 14 -9 14 -15 0 -5 -6 -6 -12 -2
-8 5 -7 1 2 -10 8 -10 15 -25 16 -34 2 -8 8 -18 14 -22 6 -4 11 -13 10 -21 -4
-28 0 -39 18 -39 9 0 13 -4 7 -8 -14 -10 -17 -32 -4 -32 5 0 7 -4 4 -10 -3 -5
-1 -10 5 -10 6 0 8 -4 5 -10 -3 -5 -2 -10 3 -10 6 0 8 -9 5 -20 -3 -11 0 -20
6 -20 6 0 11 -11 11 -24 0 -14 5 -28 10 -31 15 -9 12 -27 -2 -19 -8 4 -10 3
-5 -2 5 -5 13 -10 18 -10 5 -1 12 -2 15 -3 4 0 1 -8 -6 -16 -9 -10 -9 -15 -1
-15 6 0 11 -9 11 -20 0 -11 4 -20 8 -20 4 0 9 -12 10 -27 1 -15 5 -29 10 -32
7 -6 14 -28 15 -48 0 -7 4 -13 9 -13 4 0 8 -11 8 -25 0 -14 6 -25 13 -25 9 0
9 -2 -1 -9 -11 -7 -11 -9 1 -14 9 -3 14 -16 13 -31 -2 -14 3 -27 10 -30 8 -3
11 -12 8 -21 -3 -8 -1 -15 6 -15 6 0 8 -4 5 -10 -3 -5 -2 -10 3 -10 5 0 9 -6
9 -12 1 -30 13 -72 23 -82 5 -5 10 -18 10 -28 0 -10 4 -18 8 -18 5 0 8 -10 7
-22 -1 -13 5 -28 14 -35 14 -11 14 -12 1 -13 -12 0 -12 -2 -2 -8 7 -5 15 -22
18 -38 3 -16 12 -39 20 -51 11 -18 11 -23 2 -23 -9 0 -8 -3 2 -10 8 -5 15 -13
16 -17 0 -4 7 -21 14 -38 14 -32 16 -40 18 -68 1 -12 6 -15 15 -11 8 5 8 2 -2
-9 -10 -13 -10 -17 -1 -17 8 0 11 -9 8 -24 -3 -16 -1 -23 7 -20 6 3 12 -1 12
-8 0 -7 4 -25 8 -39 4 -17 2 -30 -6 -34 -8 -5 -10 -4 -5 3 4 7 1 12 -8 12 -9
0 -16 5 -16 10 0 6 -6 10 -14 10 -7 0 -19 7 -26 15 -7 9 -19 14 -27 11 -9 -4
-11 -1 -7 6 5 8 2 9 -9 5 -10 -4 -16 -2 -14 6 1 7 -6 11 -15 9 -13 -2 -16 2
-11 14 4 11 3 15 -5 10 -6 -3 -13 -2 -17 4 -4 6 -11 8 -16 5 -5 -4 -9 1 -9 9
0 9 -3 16 -7 15 -19 -3 -52 14 -46 24 3 6 1 7 -5 3 -6 -4 -21 3 -32 14 -11 11
-25 18 -30 15 -6 -4 -10 -1 -10 4 0 6 -7 11 -16 11 -8 0 -12 5 -9 10 3 6 -3
10 -14 10 -12 0 -21 5 -21 10 0 6 -7 10 -15 10 -8 0 -15 5 -15 11 0 5 -4 7
-10 4 -5 -3 -10 -1 -10 5 0 7 -7 10 -15 6 -11 -4 -15 1 -15 17 0 18 -2 19 -10
7 -6 -10 -10 -11 -10 -2 0 6 -7 12 -16 12 -8 0 -13 4 -10 9 3 5 -2 8 -12 7
-10 0 -16 5 -14 13 2 9 -3 11 -13 7 -9 -3 -18 1 -21 9 -4 8 -10 13 -14 10 -5
-3 -11 -1 -15 5 -4 6 -11 7 -17 4 -6 -4 -9 -3 -6 2 3 5 0 15 -8 22 -9 8 -14 9
-14 2 0 -6 -12 1 -26 15 -14 15 -33 24 -41 21 -8 -3 -11 -2 -8 3 3 5 -4 12
-15 16 -11 3 -20 12 -20 18 0 7 -4 6 -10 -3 -8 -13 -10 -13 -10 1 0 9 -8 19
-17 22 -24 8 -77 40 -81 50 -2 4 -10 7 -18 7 -8 0 -14 5 -14 11 0 6 -7 8 -16
5 -10 -4 -13 -2 -8 6 5 7 0 9 -14 6 -16 -5 -19 -2 -15 11 4 9 3 13 -2 9 -4 -4
-14 0 -22 8 -8 8 -19 11 -25 8 -7 -4 -8 -2 -4 4 6 11 -6 16 -26 13 -5 0 -8 3
-8 8 0 5 -14 20 -32 32 -17 13 -28 18 -24 11 4 -7 2 -12 -3 -12 -6 0 -11 7
-11 16 0 10 -6 14 -15 10 -8 -3 -15 -2 -15 3 0 4 -18 19 -40 34 -23 14 -38 21
-35 14 4 -7 -1 -3 -9 7 -9 11 -16 17 -16 13 0 -4 -9 2 -21 14 -11 11 -27 18
-35 15 -7 -3 -13 0 -11 6 1 6 -8 14 -21 17 -13 3 -23 9 -23 14 2 19 0 21 -8 8
-7 -11 -10 -9 -15 7 -4 12 -13 19 -20 16 -7 -3 -16 2 -20 11 -3 10 -12 15 -21
11 -9 -3 -15 0 -15 10 0 8 -4 12 -10 9 -5 -3 -10 -1 -10 5 0 6 -4 9 -9 6 -4
-3 -17 2 -27 10 -10 9 -13 12 -5 8 9 -5 12 -3 7 5 -4 6 -11 9 -16 6 -5 -3 -14
0 -22 7 -7 7 -19 14 -27 16 -7 1 -20 9 -28 17 -8 9 -18 13 -22 11 -4 -3 -13 4
-21 14 -8 10 -17 17 -22 14 -4 -3 -8 0 -8 6 0 7 -7 10 -15 6 -8 -3 -14 -2 -12
2 1 4 -2 8 -7 9 -5 1 -12 7 -17 14 -4 7 -16 14 -26 15 -9 2 -19 8 -21 14 -2 5
-8 8 -13 4 -5 -3 -9 -1 -9 4 0 5 -13 15 -30 22 -16 7 -30 16 -30 21 0 5 -7 9
-15 9 -8 0 -15 5 -15 10 0 6 -7 10 -16 10 -8 0 -12 4 -9 10 3 6 -1 7 -9 4 -9
-4 -18 1 -22 10 -3 9 -10 14 -14 11 -5 -3 -14 1 -22 8 -21 20 -68 48 -68 41 0
-4 -8 2 -17 12 -10 10 -25 20 -33 22 -8 2 -16 8 -18 13 -2 5 -10 9 -18 9 -9 0
-12 5 -8 12 4 6 3 8 -4 4 -6 -3 -17 0 -25 8 -8 8 -17 12 -21 9 -3 -4 -6 -1 -6
6 0 7 -4 9 -10 6 -5 -3 -10 -1 -10 4 0 6 -7 11 -15 11 -8 0 -15 5 -15 10 0 6
-7 10 -15 10 -8 0 -15 5 -15 10 0 6 -6 9 -12 8 -7 -2 -12 3 -10 11 3 12 1 12
-14 0 -10 -8 -15 -9 -12 -4 8 14 -14 32 -34 29 -11 -1 -15 3 -11 14 5 11 2 14
-10 9 -9 -3 -17 -2 -17 4 0 6 -4 7 -10 4 -5 -3 -10 1 -10 10 0 9 -4 14 -9 10
-5 -3 -17 2 -26 11 -9 9 -19 14 -22 10 -3 -3 -16 5 -28 19 -13 13 -26 21 -29
18 -3 -4 -6 -1 -6 6 0 7 -4 9 -10 6 -5 -3 -21 4 -34 17 -13 13 -29 24 -36 26
-7 1 -19 9 -27 17 -8 9 -19 13 -24 10 -5 -4 -9 -1 -9 4 0 6 -7 11 -15 11 -8 0
-15 5 -15 10 0 6 -5 10 -11 10 -7 0 -18 8 -26 18 -9 10 -12 11 -7 2 4 -8 -4
-5 -18 8 -13 12 -28 19 -31 15 -4 -3 -7 -1 -7 5 0 7 -7 12 -15 12 -8 0 -15 7
-15 15 0 9 -6 12 -15 9 -8 -4 -15 -1 -15 6 0 6 -5 8 -10 5 -6 -3 -13 1 -16 9
-3 9 -15 16 -25 16 -11 0 -19 7 -19 18 0 14 -2 15 -10 2 -8 -13 -10 -12 -10 3
0 10 -5 15 -10 12 -6 -3 -13 1 -16 9 -3 9 -11 13 -17 9 -5 -3 -16 2 -23 11 -6
9 -21 18 -32 19 -11 0 -18 5 -16 9 3 4 -1 8 -8 8 -8 0 -20 9 -28 20 -10 14
-16 16 -22 7 -6 -9 -8 -9 -8 1 0 7 -12 17 -26 22 -15 6 -22 14 -18 22 5 8 2 9
-9 5 -9 -3 -22 -1 -29 6 -7 7 -22 19 -32 27 -18 13 -19 13 -12 0 4 -8 -1 -5
-10 8 -10 13 -26 22 -43 21 -14 0 -20 -3 -13 -6 6 -2 12 -9 12 -14 0 -5 14
-23 30 -41 17 -17 30 -34 30 -39 0 -4 9 -11 21 -14 16 -5 18 -9 8 -21 -10 -12
-9 -13 7 -8 10 4 16 4 12 -1 -4 -4 2 -16 14 -26 11 -11 18 -19 14 -19 -4 0 9
-14 29 -31 19 -17 35 -37 35 -45 0 -8 5 -14 10 -14 6 0 10 -5 10 -11 0 -15 26
-39 34 -32 3 4 6 -4 6 -16 0 -12 4 -19 10 -16 6 3 10 -4 10 -15 0 -16 4 -20
16 -16 8 3 13 2 10 -3 -3 -5 6 -21 20 -37 14 -16 36 -41 49 -56 13 -14 21 -29
17 -32 -3 -3 2 -6 12 -6 9 0 14 -4 11 -10 -3 -5 -1 -10 5 -10 6 0 9 -4 6 -8
-2 -4 9 -18 25 -31 16 -13 29 -28 29 -33 0 -15 27 -38 35 -30 4 4 6 2 5 -3 -5
-22 1 -36 12 -29 8 5 9 2 5 -9 -4 -11 -1 -17 8 -17 7 0 17 -9 20 -20 3 -11 13
-20 20 -20 9 0 12 -8 10 -21 -4 -18 -2 -19 12 -7 12 9 15 9 9 1 -4 -8 3 -23
20 -38 15 -14 23 -25 18 -25 -5 0 -1 -5 9 -11 9 -5 17 -17 17 -25 0 -8 5 -12
10 -9 6 3 10 -3 10 -14 0 -12 3 -20 8 -19 4 2 7 -1 7 -5 0 -5 8 -13 18 -18 9
-6 14 -15 11 -21 -4 -7 -2 -8 4 -4 11 7 38 -32 34 -47 -1 -5 2 -6 7 -3 5 4 12
-3 16 -14 3 -11 13 -20 21 -20 12 0 19 -14 12 -23 -5 -6 30 -37 42 -37 6 0 8
-4 5 -10 -3 -5 3 -17 15 -27 11 -10 20 -24 20 -33 0 -13 1 -13 10 0 8 13 10
13 10 -2 0 -10 11 -30 24 -45 82 -94 95 -111 89 -117 -3 -3 2 -6 12 -6 10 0
16 -3 12 -6 -5 -6 17 -35 61 -80 12 -13 22 -28 22 -33 0 -6 8 -15 18 -20 9 -6
13 -11 9 -11 -4 0 -2 -6 5 -14 7 -8 17 -11 22 -8 5 3 7 -2 3 -11 -4 -11 -1
-17 8 -17 7 0 17 -9 20 -20 3 -11 13 -20 21 -20 8 0 13 -4 9 -9 -3 -5 1 -16 9
-24 8 -8 12 -17 9 -21 -4 -3 1 -6 10 -6 10 0 17 -7 17 -16 0 -8 5 -12 10 -9 6
3 10 -1 10 -9 0 -9 5 -16 10 -16 6 0 10 -6 10 -13 0 -8 10 -19 23 -25 12 -6
16 -11 10 -11 -8 -1 -5 -9 7 -21 11 -11 23 -20 27 -19 8 1 27 -42 24 -55 -1
-5 5 -6 13 -3 9 4 15 3 13 -2 -1 -4 14 -27 33 -51 19 -24 34 -47 33 -51 -2 -5
4 -6 13 -2 8 3 14 2 13 -3 -3 -13 17 -59 25 -56 3 1 5 -1 4 -4 -2 -3 5 -10 15
-15 9 -6 14 -15 11 -21 -4 -7 -2 -8 4 -4 6 4 21 -10 34 -34 13 -22 29 -40 36
-40 7 0 11 -4 8 -8 -3 -5 4 -15 15 -22 10 -8 19 -19 19 -25 0 -6 9 -17 20 -25
11 -8 20 -20 20 -27 0 -7 7 -13 16 -13 8 0 12 -4 9 -10 -3 -5 -1 -10 4 -10 6
0 11 -5 11 -11 0 -7 11 -22 26 -35 14 -13 23 -24 20 -24 -5 0 19 -29 66 -80 9
-10 14 -21 10 -24 -3 -3 2 -6 12 -6 9 0 15 -4 11 -9 -3 -6 3 -14 12 -20 10 -6
15 -11 11 -11 -4 0 3 -11 15 -23 12 -13 36 -41 52 -61 17 -21 42 -52 57 -68
15 -17 25 -34 22 -39 -3 -5 2 -9 10 -9 15 0 21 -12 17 -33 -1 -5 3 -6 9 -2 5
3 10 1 10 -5 0 -6 5 -8 10 -5 6 3 10 -1 10 -10 0 -9 10 -27 23 -40 12 -13 34
-38 49 -54 15 -16 24 -31 21 -35 -3 -3 2 -8 11 -12 9 -3 16 -13 16 -21 0 -8 5
-11 10 -8 6 3 10 0 10 -8 0 -8 7 -18 16 -21 9 -4 14 -9 11 -13 -4 -3 8 -19 24
-34 17 -16 28 -29 25 -29 -4 0 5 -12 21 -27 15 -16 30 -27 33 -26 3 1 6 -9 6
-23 0 -17 -4 -23 -14 -19 -7 3 -16 5 -18 5 -3 0 -2 5 2 11 5 8 1 8 -14 0 -14
-7 -23 -8 -27 -1 -3 5 -20 10 -36 10 -17 0 -28 4 -25 8 3 5 -15 8 -40 7 -25 0
-47 2 -49 6 -3 3 -16 5 -30 4 -14 -2 -25 1 -25 6 0 5 -18 9 -40 9 -25 0 -40 5
-40 13 0 8 -3 8 -8 2 -4 -6 -13 -10 -19 -9 -7 1 -18 2 -24 3 -5 0 -8 5 -5 9 3
5 -11 8 -30 7 -19 -1 -34 3 -34 9 0 6 -5 4 -10 -4 -5 -8 -10 -10 -10 -4 0 7
-7 15 -16 18 -8 3 -13 2 -10 -3 4 -5 -3 -7 -14 -4 -11 3 -17 10 -14 15 5 7 1
7 -12 0 -13 -7 -24 -6 -43 7 -19 12 -23 12 -16 2 6 -11 4 -13 -9 -8 -10 4 -20
7 -22 7 -3 0 -2 6 2 13 6 9 5 9 -7 0 -12 -10 -18 -10 -29 0 -10 9 -11 9 -6 0
5 -9 2 -11 -8 -7 -9 3 -13 11 -9 18 5 7 2 7 -8 -1 -9 -7 -20 -8 -29 -3 -8 5
-18 6 -22 4 -4 -3 -8 1 -8 8 0 9 -3 9 -10 -2 -6 -9 -10 -10 -10 -3 0 6 -9 10
-20 8 -11 -2 -27 3 -35 11 -8 9 -15 11 -15 6 0 -5 -7 -9 -15 -9 -8 0 -15 4
-15 9 0 4 -5 8 -11 8 -5 0 -7 -5 -3 -11 3 -6 -5 -3 -20 6 -19 12 -26 14 -26 5
0 -9 -7 -7 -22 6 -12 10 -18 13 -14 7 5 -8 1 -13 -9 -13 -12 0 -15 5 -11 16 5
13 4 14 -7 6 -10 -9 -17 -8 -25 0 -9 9 -12 9 -12 -2 0 -10 -5 -9 -19 4 -12 11
-21 14 -26 7 -4 -7 -14 -5 -31 5 -17 12 -24 13 -24 4 0 -10 -3 -10 -15 0 -8 6
-19 9 -26 5 -6 -4 -15 -2 -19 5 -4 7 -23 13 -41 14 -19 1 -40 5 -48 10 -10 7
-12 6 -6 -3 4 -8 -5 -6 -25 4 -18 9 -29 12 -26 6 4 -6 2 -11 -3 -11 -6 0 -11
4 -11 10 0 5 -3 9 -7 9 -5 -1 -10 0 -13 1 -3 1 -29 3 -58 4 -30 1 -57 7 -61
14 -3 6 -23 9 -44 7 -20 -1 -37 1 -37 7 0 5 5 6 12 2 7 -4 8 -3 4 5 -6 8 -12
9 -20 2 -9 -7 -17 -7 -26 2 -10 10 -11 9 -4 -3 6 -12 2 -11 -19 3 -15 9 -27
13 -27 8 0 -12 -32 -2 -42 13 -5 7 -8 7 -8 -1 0 -7 -5 -13 -11 -13 -6 0 -8 7
-5 16 4 10 2 13 -7 7 -14 -9 -58 -5 -73 8 -6 5 -15 4 -22 -3 -9 -9 -12 -9 -12
1 0 7 -4 10 -9 6 -5 -3 -12 -1 -15 3 -3 5 -19 8 -36 7 -17 -1 -33 2 -37 8 -3
5 -9 3 -14 -4 -7 -11 -9 -11 -9 2 0 11 -10 15 -40 14 -22 -1 -40 3 -40 8 0 4
-4 6 -10 2 -5 -3 -24 1 -43 8 -22 10 -39 11 -50 5 -11 -5 -17 -5 -17 0 0 5 -9
12 -19 15 -15 3 -18 1 -14 -12 4 -12 2 -11 -9 3 -8 10 -20 16 -26 12 -7 -4
-12 -3 -12 1 0 5 -10 9 -22 10 -80 2 -97 7 -85 22 10 12 9 13 -9 3 -11 -6 -26
-7 -33 -3 -7 5 -23 7 -37 5 -13 -1 -24 3 -24 9 0 8 -3 8 -11 0 -9 -9 -18 -7
-37 5 -21 14 -24 14 -17 2 8 -13 6 -13 -8 -2 -9 8 -20 11 -26 8 -5 -3 -12 0
-14 6 -4 10 -6 10 -6 0 -1 -10 -5 -10 -17 2 -18 18 -39 22 -28 5 4 -7 -3 -6
-17 2 -28 15 -50 17 -66 6 -6 -4 -14 -3 -19 4 -5 8 -3 9 6 4 8 -5 11 -4 6 3
-4 6 -13 9 -20 6 -8 -3 -17 -1 -21 5 -4 8 -12 8 -27 0 -16 -9 -19 -8 -13 2 6
9 2 11 -13 7 -12 -4 -22 -2 -22 4 0 5 -5 6 -10 3 -6 -4 -7 -12 -4 -18 4 -7 3
-8 -2 -4 -5 5 -9 14 -9 20 0 7 -20 11 -52 12 -28 0 -49 4 -45 9 3 5 -2 7 -11
3 -10 -3 -17 -3 -17 2 0 4 -7 8 -15 8 -8 0 -15 -5 -15 -11 0 -6 -4 -5 -9 3 -5
8 -18 12 -29 9 -13 -4 -19 -2 -16 6 2 6 -4 12 -15 12 -11 0 -18 -3 -15 -7 2
-4 -5 -5 -16 -2 -11 3 -17 10 -13 17 4 6 -1 5 -10 -3 -9 -7 -17 -9 -17 -3 0 5
-9 8 -20 5 -12 -3 -20 0 -20 7 0 9 -4 9 -17 -1 -14 -12 -16 -12 -8 0 6 11 4
13 -8 8 -9 -3 -19 -2 -21 2 -3 5 -19 7 -36 5 -17 -2 -30 1 -30 7 0 6 -7 9 -15
6 -8 -4 -17 -2 -20 3 -3 5 -12 7 -19 4 -8 -3 -17 -1 -21 5 -4 8 -12 8 -26 1
-15 -9 -19 -7 -19 5 0 8 -5 15 -11 15 -6 0 -8 -7 -5 -17 6 -16 6 -16 -11 -1
-10 9 -30 15 -46 14 -15 -2 -27 1 -27 5 0 5 -13 9 -28 9 -15 0 -33 5 -40 12
-9 9 -12 9 -12 -1 0 -7 -5 -9 -12 -4 -15 9 -31 12 -79 15 -21 2 -35 7 -32 11
3 5 -3 8 -13 7 -38 -4 -55 0 -48 12 4 7 3 8 -4 4 -17 -10 -15 -26 4 -26 8 0
12 -4 9 -10 -6 -9 8 -14 28 -11 4 0 7 -4 7 -10 0 -5 5 -7 10 -4 6 3 10 1 10
-5 0 -6 4 -9 9 -6 5 3 12 -1 15 -10 4 -9 13 -14 21 -10 14 5 20 -6 16 -28 -1
-5 5 -4 13 4 15 11 20 7 17 -12 0 -5 8 -8 19 -8 11 0 20 -5 20 -11 0 -5 5 -7
10 -4 6 3 13 -1 16 -9 3 -9 10 -13 15 -10 5 3 9 0 9 -6 0 -6 4 -8 10 -5 6 3
10 1 10 -6 0 -7 3 -10 6 -6 4 3 12 1 20 -6 33 -30 42 -35 48 -30 3 4 6 1 6 -6
0 -7 5 -9 10 -6 6 3 10 1 10 -5 0 -6 4 -9 9 -6 5 3 11 -1 15 -9 3 -8 15 -15
26 -15 12 0 18 -4 15 -10 -3 -5 -1 -11 4 -11 6 -1 16 -3 21 -4 6 -1 13 -3 18
-4 4 0 19 -11 32 -23 14 -13 32 -24 39 -26 7 -1 19 -9 27 -17 8 -7 23 -17 34
-20 11 -3 20 -11 20 -16 0 -6 5 -7 10 -4 6 3 10 1 10 -5 0 -7 6 -10 12 -8 7 3
21 -5 31 -16 10 -12 16 -14 12 -6 -4 8 2 6 12 -6 10 -11 23 -22 28 -25 6 -2 9
-8 7 -13 -2 -5 3 -5 10 1 15 12 42 -9 30 -22 -4 -5 3 -5 16 -2 15 3 22 1 22
-10 0 -8 5 -11 10 -8 6 3 12 0 15 -7 3 -8 16 -15 28 -15 12 -1 30 -12 40 -24
9 -12 17 -18 17 -14 0 4 6 2 13 -4 8 -6 18 -7 22 -3 5 4 5 2 2 -5 -4 -7 5 -15
24 -22 18 -6 37 -18 43 -27 6 -8 19 -16 29 -18 9 -1 28 -12 41 -23 13 -12 27
-19 30 -16 3 4 6 1 6 -6 0 -7 5 -9 10 -6 6 3 10 1 10 -6 0 -7 3 -9 7 -6 3 4
12 -1 20 -11 10 -11 12 -12 8 -2 -3 8 2 5 11 -7 9 -13 25 -23 35 -23 11 0 19
-4 19 -10 0 -5 5 -10 11 -10 7 0 18 -8 26 -17 8 -10 12 -13 9 -7 -3 6 9 4 28
-5 19 -9 32 -19 30 -22 -5 -10 26 -20 37 -13 5 3 8 0 7 -7 -2 -7 2 -13 8 -14
6 0 18 -8 28 -18 20 -20 30 -22 21 -4 -4 6 3 2 14 -11 11 -13 25 -21 31 -17 5
3 10 -1 10 -10 0 -9 4 -14 8 -11 11 6 64 -28 57 -37 -3 -4 -2 -5 1 -2 9 6 87
-36 97 -52 4 -7 15 -13 22 -13 8 0 15 -4 15 -10 0 -5 7 -7 15 -4 8 4 17 -1 21
-10 3 -9 15 -16 26 -16 10 0 17 -3 14 -8 -2 -4 16 -16 40 -27 24 -11 44 -25
44 -32 0 -7 7 -10 17 -6 11 4 14 3 9 -5 -5 -8 -2 -10 8 -6 9 4 16 1 16 -6 0
-7 7 -10 15 -6 9 3 15 0 15 -8 0 -8 8 -16 18 -19 23 -8 75 -40 84 -52 4 -5 8
-6 8 -1 0 5 8 2 18 -7 10 -10 22 -14 25 -10 4 3 7 -2 7 -11 0 -12 5 -16 15
-12 8 3 18 -1 22 -8 8 -13 43 -30 56 -28 4 1 7 -6 7 -15 0 -9 3 -13 6 -10 6 6
54 -17 81 -38 7 -5 18 -15 25 -21 8 -6 20 -8 27 -6 9 3 11 0 6 -8 -6 -10 -4
-12 9 -7 10 4 15 3 11 -3 -3 -5 6 -12 20 -16 14 -3 25 -10 25 -15 0 -5 7 -9
15 -9 8 0 15 -4 15 -10 0 -5 7 -10 15 -10 9 0 26 -9 38 -20 12 -11 28 -18 35
-15 10 4 12 0 8 -10 -3 -9 -2 -13 3 -10 5 3 12 1 16 -5 4 -6 11 -8 16 -5 5 4
9 1 9 -4 0 -6 7 -11 15 -11 9 0 18 -6 21 -14 3 -8 14 -13 25 -11 11 2 18 1 15
-3 -2 -4 2 -13 10 -20 8 -7 14 -9 14 -5 0 4 7 -1 15 -11 9 -12 15 -15 15 -7 0
7 9 3 21 -10 11 -13 18 -17 14 -9 -4 10 -2 9 8 -2 8 -10 17 -15 20 -11 4 3 7
2 7 -4 0 -6 14 -16 30 -23 17 -7 30 -17 30 -22 0 -5 4 -7 9 -3 6 3 13 0 18 -8
9 -13 63 -42 76 -39 4 1 7 -3 7 -8 0 -6 6 -10 14 -10 8 0 17 -9 21 -19 4 -12
12 -18 21 -14 8 3 20 0 28 -6 7 -6 17 -7 21 -3 5 4 5 2 2 -4 -6 -11 19 -29 36
-26 4 1 7 -5 7 -13 0 -13 18 -20 43 -16 4 0 7 -4 7 -9 0 -6 7 -10 15 -10 8 0
15 -4 15 -10 0 -5 7 -10 15 -10 8 0 15 -4 15 -10 0 -5 7 -10 15 -10 8 0 15 -5
15 -12 0 -6 3 -8 7 -5 3 4 13 1 22 -7 16 -14 20 -16 41 -16 6 0 5 -8 -2 -21
-9 -14 -21 -19 -40 -16 -16 2 -28 0 -28 -5 0 -5 -4 -6 -10 -3 -5 3 -10 0 -10
-7 0 -9 -3 -9 -10 2 -7 10 -10 11 -10 2 0 -7 -12 -12 -27 -12 -58 0 -93 -4
-93 -12 0 -4 -7 -4 -17 -1 -11 5 -14 3 -8 -6 5 -10 2 -11 -14 -6 -13 4 -29 1
-38 -7 -12 -9 -15 -9 -9 0 9 16 -6 16 -23 0 -11 -10 -12 -10 -7 -1 5 9 2 11
-8 7 -9 -3 -16 -11 -16 -18 0 -6 -5 -4 -10 4 -8 12 -10 12 -10 -5 0 -11 -4
-15 -8 -10 -6 9 -56 12 -72 5 -3 -1 -8 -2 -12 -1 -5 0 -8 -3 -8 -8 0 -5 -10
-7 -22 -3 -12 3 -19 1 -15 -5 3 -5 0 -10 -8 -10 -8 0 -15 4 -15 8 0 9 -27 5
-37 -6 -4 -4 -2 -5 6 0 10 6 12 4 7 -4 -6 -9 -11 -9 -22 0 -10 8 -14 8 -14 0
0 -6 -5 -11 -11 -11 -5 0 -7 6 -4 13 4 6 0 4 -8 -6 -11 -14 -16 -15 -20 -5 -4
10 -6 10 -6 0 -1 -9 -6 -10 -20 -2 -13 7 -22 7 -26 0 -3 -5 -17 -10 -30 -10
-13 0 -26 -4 -29 -8 -3 -5 -23 -8 -46 -8 -29 1 -40 -3 -40 -14 0 -9 -3 -11 -8
-5 -9 13 -32 17 -32 6 0 -5 -11 -8 -25 -6 -14 1 -28 -2 -31 -7 -3 -5 -11 -4
-19 2 -10 8 -15 8 -21 -1 -5 -8 -3 -9 6 -4 9 5 11 4 6 -4 -6 -9 -11 -9 -22 0
-13 10 -18 6 -15 -13 0 -4 -6 -5 -14 -2 -8 4 -12 11 -9 18 3 6 0 4 -8 -4 -7
-9 -29 -15 -51 -15 -21 0 -41 -4 -44 -9 -4 -5 0 -6 7 -1 9 5 11 4 6 -4 -6 -8
-12 -9 -20 -2 -9 7 -17 7 -26 -2 -10 -10 -12 -9 -6 3 4 8 0 6 -8 -4 -9 -11
-16 -15 -16 -10 0 6 -7 11 -15 11 -8 0 -15 -4 -15 -8 0 -4 -11 -6 -25 -4 -14
1 -25 -2 -25 -6 0 -5 -5 -9 -11 -9 -5 0 -7 6 -3 13 5 8 2 8 -9 -2 -9 -7 -17
-10 -17 -6 0 5 -10 0 -22 -11 -12 -10 -18 -14 -15 -8 12 21 -23 24 -43 4 -11
-11 -20 -15 -20 -9 0 8 -6 7 -17 -2 -15 -12 -16 -12 -8 1 7 12 6 13 -6 4 -8
-6 -22 -10 -31 -9 -10 2 -18 0 -18 -5 0 -4 -11 -6 -25 -5 -14 2 -28 -1 -31 -6
-3 -6 -12 -5 -22 3 -12 10 -14 10 -8 1 5 -9 0 -13 -18 -13 -13 0 -27 -6 -29
-12 -3 -8 -6 -5 -6 5 -1 17 -2 17 -17 3 -18 -19 -38 -21 -28 -3 6 8 3 8 -9 -1
-9 -8 -21 -11 -27 -7 -5 3 -10 2 -10 -4 0 -6 -7 -7 -17 -4 -11 5 -14 3 -8 -6
6 -10 3 -11 -14 -2 -20 11 -25 8 -22 -12 1 -4 -8 -3 -19 3 -15 8 -20 8 -20 -1
0 -8 -5 -7 -17 2 -9 8 -14 9 -10 3 6 -11 -9 -14 -66 -15 -9 0 -15 -4 -12 -9 3
-5 -7 -7 -22 -6 -16 2 -34 -1 -40 -6 -9 -7 -13 -7 -13 2 0 9 -3 10 -13 1 -8
-6 -17 -8 -20 -4 -4 3 -7 2 -7 -4 0 -6 -10 -11 -22 -10 -13 0 -32 -4 -42 -8
-15 -7 -18 -5 -11 6 6 11 5 11 -5 2 -7 -6 -19 -9 -26 -6 -8 3 -14 0 -14 -7 0
-6 -5 -8 -11 -4 -6 3 -15 0 -20 -7 -7 -12 -9 -12 -9 0 0 9 -4 10 -12 4 -7 -6
-21 -9 -30 -8 -10 2 -18 -1 -18 -6 0 -6 -9 -5 -21 2 -12 6 -19 7 -15 1 3 -5
-1 -12 -8 -15 -8 -3 -17 -1 -19 6 -3 9 -8 9 -20 -1 -9 -8 -21 -11 -27 -7 -5 3
-10 2 -10 -2 0 -5 -8 -9 -17 -9 -10 0 -29 -4 -42 -8 -18 -6 -22 -5 -15 5 7 12
5 12 -9 0 -9 -7 -35 -14 -57 -14 -29 -1 -39 -5 -36 -14 4 -11 1 -11 -14 -3
-15 8 -20 8 -20 -2 0 -9 -3 -9 -10 2 -5 8 -10 10 -10 5 0 -6 -16 -10 -35 -10
-23 1 -39 -4 -45 -14 -8 -14 -9 -14 -10 -1 0 9 -3 11 -8 5 -4 -5 -20 -11 -37
-12 -53 -4 -65 -7 -65 -15 0 -5 -9 -4 -19 2 -14 7 -22 7 -27 -2 -5 -7 -3 -8 6
-3 9 6 11 4 5 -4 -5 -9 -10 -10 -18 -2 -7 7 -16 7 -31 -1 -14 -8 -21 -8 -24 0
-2 6 -11 3 -23 -9 -21 -21 -39 -25 -39 -8 0 5 5 7 12 3 7 -4 8 -3 4 5 -6 9
-11 9 -23 -1 -14 -12 -47 -18 -96 -19 -9 0 -15 -4 -12 -9 6 -10 -15 -8 -34 4
-10 7 -12 6 -6 -4 6 -10 4 -12 -8 -7 -10 4 -17 2 -17 -5 0 -6 -6 -5 -17 3 -14
12 -15 12 -9 0 7 -10 4 -12 -12 -7 -11 4 -23 3 -25 -2 -3 -4 -23 -9 -43 -10
-21 -2 -42 -8 -46 -15 -6 -9 -8 -8 -8 3 0 13 -1 13 -10 0 -9 -13 -10 -13 -10
0 0 12 -2 13 -9 1 -5 -7 -14 -10 -20 -7 -6 4 -11 1 -11 -6 0 -9 -3 -9 -10 2
-7 11 -10 11 -10 2 0 -7 -8 -12 -18 -10 -11 2 -26 -3 -36 -11 -15 -12 -16 -12
-10 5 7 18 6 18 -12 3 -10 -8 -29 -14 -42 -13 -12 1 -25 -3 -28 -8 -3 -5 -13
-3 -22 4 -13 11 -15 10 -9 -5 6 -15 4 -16 -13 -7 -11 6 -20 7 -20 2 0 -5 -13
-8 -30 -7 -16 1 -27 -2 -24 -7 3 -5 -8 -6 -25 -3 -21 4 -31 1 -31 -7 0 -9 -3
-8 -10 2 -9 13 -10 13 -10 -1 0 -10 -9 -15 -28 -13 -17 1 -29 -3 -29 -10 0 -7
6 -13 13 -13 7 0 11 4 8 9 -3 4 0 8 5 8 6 0 11 -4 11 -10 0 -5 20 -10 45 -10
29 0 45 -4 45 -12 0 -9 4 -8 10 2 9 13 10 13 10 0 0 -12 2 -13 9 -1 6 9 10 9
12 2 2 -6 23 -12 47 -13 23 -1 42 -5 42 -10 0 -4 5 -8 11 -8 5 0 7 6 3 13 -6
10 -4 10 7 0 7 -7 28 -13 47 -13 24 0 31 -3 26 -12 -5 -9 -2 -9 9 1 10 7 17 9
17 3 0 -11 18 -11 36 1 7 4 17 0 24 -8 6 -7 18 -11 26 -8 8 3 14 1 14 -4 0 -4
13 -9 30 -9 16 -1 37 -5 47 -9 25 -11 46 -12 60 -2 9 6 15 3 19 -8 5 -13 9
-14 15 -3 6 8 9 9 9 1 0 -6 9 -9 20 -6 11 3 20 1 20 -4 0 -5 9 -9 20 -10 13
-1 18 2 14 10 -5 8 -3 8 7 0 7 -7 22 -13 34 -13 12 0 26 -5 32 -11 8 -8 13 -8
17 0 5 7 15 6 32 -5 19 -13 24 -14 24 -3 1 9 6 7 15 -5 8 -11 15 -15 15 -10 0
6 7 11 15 11 8 0 15 -4 15 -9 0 -4 10 -8 23 -8 12 0 32 -1 45 -1 12 0 22 -6
22 -12 0 -7 4 -6 10 3 6 9 10 11 10 3 0 -7 7 -10 15 -7 9 4 15 0 15 -7 0 -11
3 -11 10 1 5 8 10 10 10 4 0 -6 14 -10 30 -9 17 1 30 -3 30 -8 0 -5 9 -7 20
-4 11 3 23 1 26 -5 3 -5 17 -7 29 -4 13 3 27 1 31 -5 4 -8 9 -7 15 2 7 11 9
11 9 1 0 -9 7 -11 21 -7 16 5 19 4 14 -6 -6 -9 -3 -11 8 -6 10 4 17 1 17 -5 0
-9 3 -9 11 -1 8 8 19 9 37 2 13 -5 27 -7 30 -4 3 2 11 -3 19 -13 8 -9 12 -11
8 -4 -3 6 -2 12 2 12 5 0 15 -6 22 -12 11 -11 12 -10 6 2 -8 13 -6 13 7 2 9
-7 20 -12 24 -11 27 5 64 -2 59 -11 -3 -6 1 -7 10 -4 8 4 23 0 32 -7 12 -10
15 -10 9 -2 -4 7 -2 13 3 13 6 0 11 -6 11 -12 0 -9 4 -8 10 2 6 9 10 10 10 3
0 -7 10 -10 25 -7 16 3 25 0 25 -8 0 -9 3 -8 10 2 6 10 10 11 10 3 0 -8 14
-13 36 -13 23 0 33 -4 28 -11 -4 -8 0 -8 15 0 16 9 21 9 21 0 0 -8 5 -7 17 2
11 10 14 10 9 2 -5 -9 0 -13 16 -14 13 -1 35 -2 50 -3 15 -1 30 -5 34 -9 12
-12 36 -8 29 6 -4 6 1 3 9 -7 9 -11 16 -17 16 -13 0 4 10 3 21 -4 16 -8 20 -8
14 1 -6 9 -2 9 15 0 17 -9 24 -9 30 0 5 8 9 5 13 -9 3 -14 10 -19 21 -15 9 3
13 10 10 15 -3 5 2 6 10 3 9 -3 16 -10 16 -16 0 -5 4 -7 8 -4 4 2 14 1 22 -4
8 -5 22 -4 33 2 15 8 18 7 12 -3 -6 -9 -3 -11 8 -6 10 3 17 3 17 -1 0 -6 34
-11 93 -13 9 0 15 -4 12 -10 -4 -5 -1 -9 4 -9 6 0 11 6 11 13 0 7 3 8 8 2 4
-5 12 -11 17 -11 6 -1 21 -5 34 -9 18 -6 22 -4 15 6 -6 11 -5 12 8 2 8 -7 18
-10 21 -6 4 3 7 1 7 -6 0 -7 5 -9 10 -6 6 4 17 1 25 -5 11 -9 15 -9 15 -1 0 8
11 7 35 -4 25 -10 34 -11 28 -2 -5 8 -2 8 9 -1 12 -9 18 -10 23 -2 5 8 15 4
33 -12 14 -13 22 -18 18 -11 -10 17 44 10 55 -8 7 -12 9 -12 9 0 0 11 3 11 17
0 15 -12 16 -12 8 1 -8 12 -5 12 16 -1 19 -13 30 -14 43 -7 15 8 17 8 11 -2
-6 -10 -4 -12 8 -7 10 4 17 1 17 -6 0 -8 4 -7 10 3 8 12 10 12 16 -3 5 -13 10
-15 19 -7 10 8 15 8 20 -1 6 -8 10 -7 16 2 7 11 9 11 9 1 0 -7 4 -11 8 -8 4 2
14 1 22 -4 8 -5 22 -4 32 1 13 7 20 6 24 -4 3 -9 20 -13 46 -13 24 1 43 -4 45
-11 3 -7 9 -13 15 -13 5 0 6 5 3 10 -3 6 -1 10 4 10 6 0 11 -5 11 -11 0 -6 6
-9 14 -6 7 3 19 0 25 -6 8 -8 11 -7 11 3 0 10 3 11 11 3 6 -6 18 -9 27 -6 10
4 13 2 8 -5 -4 -7 -2 -12 3 -12 6 0 11 6 11 13 0 9 2 9 8 0 5 -7 31 -14 60
-16 29 -2 55 -7 59 -10 3 -4 22 -7 40 -7 25 0 32 -3 27 -12 -5 -9 -2 -9 9 1
10 7 17 9 17 3 0 -11 18 -11 37 1 7 4 16 0 22 -10 5 -10 13 -15 17 -11 3 4 21
1 40 -7 30 -12 32 -12 27 3 -4 12 2 10 22 -8 16 -14 25 -19 21 -12 -9 15 10
16 20 1 4 -8 9 -7 15 2 6 10 9 10 9 2 0 -8 11 -11 30 -9 18 2 27 -1 23 -7 -4
-6 0 -8 9 -4 10 3 18 -1 21 -13 3 -13 -2 -20 -19 -24 -13 -4 -26 -5 -29 -4 -2
2 -10 -5 -17 -15 -7 -10 -23 -19 -35 -20 -12 0 -20 -3 -18 -6 9 -8 -27 -40
-39 -35 -6 2 -22 -5 -34 -17 -13 -11 -30 -22 -38 -23 -9 -1 -19 -7 -22 -12 -7
-11 -29 -21 -46 -22 -5 0 -12 -6 -17 -14 -5 -7 -14 -13 -21 -13 -7 -1 -12 -7
-10 -14 1 -7 -2 -10 -9 -5 -7 4 -18 -1 -26 -11 -7 -11 -13 -15 -13 -11 0 4
-13 -2 -29 -13 -16 -12 -34 -21 -40 -21 -6 0 -11 -4 -11 -10 0 -5 -7 -10 -15
-10 -7 0 -19 -8 -24 -17 -7 -13 -10 -14 -11 -4 0 10 -6 7 -19 -7 -10 -12 -21
-19 -25 -15 -3 3 -6 1 -6 -5 0 -7 -5 -12 -11 -12 -6 0 -22 -9 -36 -20 -14 -11
-29 -17 -33 -15 -5 3 -15 -3 -22 -12 -7 -10 -20 -19 -28 -21 -8 -2 -17 -7 -20
-10 -3 -4 -12 -8 -20 -10 -8 -2 -19 -10 -23 -18 -5 -8 -12 -12 -18 -9 -5 4 -9
1 -9 -5 0 -7 -7 -10 -15 -6 -8 3 -14 0 -12 -7 1 -7 -5 -12 -13 -12 -8 0 -21
-8 -28 -17 -7 -10 -19 -15 -29 -11 -10 4 -14 2 -10 -4 7 -11 -16 -25 -50 -32
-5 -1 -1 -6 7 -12 12 -8 10 -9 -8 -4 -15 4 -24 1 -28 -9 -3 -9 -10 -13 -15
-10 -5 3 -16 -2 -25 -10 -9 -9 -20 -13 -26 -10 -6 4 -8 2 -4 -4 3 -6 -7 -16
-24 -24 -16 -7 -30 -17 -30 -22 0 -4 -7 -6 -15 -2 -8 3 -15 1 -15 -4 0 -5 -9
-12 -20 -15 -11 -4 -18 -11 -14 -16 3 -5 2 -9 -3 -8 -22 4 -43 -2 -38 -11 3
-6 1 -11 -4 -11 -6 -1 -16 -2 -21 -3 -6 0 -15 -8 -20 -16 -5 -8 -10 -11 -10
-6 0 5 -8 2 -18 -7 -10 -10 -22 -14 -25 -10 -4 3 -7 1 -7 -5 0 -6 -30 -26 -66
-43 -36 -18 -68 -38 -71 -45 -3 -8 -9 -11 -14 -8 -5 3 -9 0 -9 -6 0 -6 -5 -8
-10 -5 -6 3 -10 2 -10 -4 0 -6 -11 -13 -25 -17 -14 -3 -25 -10 -25 -15 0 -5
-7 -9 -15 -9 -9 0 -18 -6 -21 -14 -3 -8 -12 -12 -20 -9 -7 3 -16 -2 -20 -10
-3 -9 -19 -19 -35 -22 -16 -4 -27 -11 -23 -16 3 -5 -2 -9 -10 -9 -9 0 -16 -5
-16 -11 0 -5 -4 -8 -9 -4 -5 3 -17 -2 -25 -11 -9 -8 -16 -12 -16 -7 0 4 -5 0
-11 -10 -6 -9 -14 -15 -20 -12 -5 4 -9 2 -9 -3 0 -6 -13 -15 -30 -21 -16 -5
-30 -15 -30 -20 0 -6 -3 -10 -7 -9 -5 1 -18 -3 -29 -10 -12 -6 -24 -8 -28 -4
-4 3 -4 -1 -1 -10 5 -13 2 -16 -14 -13 -12 2 -19 0 -16 -4 3 -5 -6 -12 -20
-15 -14 -4 -25 -11 -25 -16 0 -6 -7 -10 -15 -10 -9 0 -18 -6 -21 -14 -3 -8
-12 -12 -20 -9 -8 3 -14 -1 -14 -11 0 -10 -6 -13 -15 -10 -8 4 -15 1 -15 -5 0
-6 -6 -10 -12 -9 -7 2 -12 -2 -11 -8 1 -7 -5 -11 -15 -10 -9 0 -16 -4 -15 -10
1 -6 -8 -11 -20 -10 -12 0 -21 -4 -20 -11 2 -7 -3 -10 -11 -7 -7 3 -16 -2 -20
-11 -3 -9 -10 -14 -14 -11 -5 3 -18 -4 -30 -14 -12 -11 -26 -20 -32 -20 -6 0
-20 -9 -32 -20 -12 -10 -24 -17 -28 -15 -5 3 -10 -2 -14 -10 -3 -8 -13 -15
-22 -15 -9 0 -25 -9 -35 -21 -9 -11 -19 -19 -21 -18 -7 5 -48 -13 -48 -22 0
-5 -5 -9 -12 -9 -6 0 -20 -8 -31 -17 -15 -13 -19 -14 -13 -3 4 8 0 6 -8 -4 -9
-11 -16 -16 -16 -10 0 5 -7 0 -15 -10 -8 -11 -15 -16 -15 -11 0 5 -11 -2 -25
-15 -14 -13 -25 -20 -25 -15 0 5 -7 0 -16 -11 -8 -10 -12 -12 -8 -4 4 9 -2 7
-17 -6 -13 -12 -32 -24 -41 -27 -10 -4 -18 -12 -18 -18 0 -8 -5 -7 -17 2 -9 8
-14 9 -10 3 9 -15 -39 -47 -56 -38 -7 4 -9 4 -5 -1 10 -11 -29 -38 -42 -30 -6
3 -10 -1 -10 -11 0 -11 -6 -15 -20 -11 -10 3 -18 2 -17 -2 4 -12 -42 -50 -47
-38 -3 9 -5 9 -5 0 -1 -7 -7 -13 -15 -13 -8 0 -16 -7 -20 -15 -3 -8 -9 -15
-13 -14 -21 4 -33 -2 -27 -13 5 -8 0 -9 -14 -6 -15 4 -22 2 -22 -7 0 -8 -5
-17 -12 -21 -7 -5 -8 -3 -3 5 5 9 1 9 -14 -1 -12 -7 -21 -16 -21 -21 0 -4 -4
-5 -10 -2 -5 3 -10 1 -10 -4 0 -6 -5 -11 -11 -11 -7 0 -18 -8 -26 -17 -8 -10
-12 -12 -8 -6 4 9 1 11 -9 7 -9 -3 -13 -11 -9 -17 4 -6 0 -8 -10 -4 -9 3 -18
-1 -21 -10 -4 -9 -9 -13 -12 -10 -4 3 -13 -1 -21 -9 -8 -8 -20 -11 -26 -7 -6
4 -8 0 -4 -10 3 -9 1 -19 -5 -23 -7 -4 -8 -3 -4 4 13 21 -10 13 -30 -10 -10
-13 -12 -18 -4 -12 8 6 22 12 30 12 8 1 29 4 45 7 17 4 38 6 48 6 9 0 15 4 12
10 -4 5 -2 9 4 9 5 0 12 -6 14 -12 4 -10 6 -10 6 -1 1 7 8 10 18 6 11 -4 14
-3 9 6 -5 8 0 10 18 7 14 -3 29 0 32 6 4 6 10 5 15 -3 6 -10 9 -10 9 -2 0 7 7
10 17 6 12 -5 14 -3 8 8 -4 8 -5 11 0 7 4 -4 14 -3 22 4 11 8 12 7 7 -6 -6
-14 -3 -15 22 -1 18 9 32 11 40 4 7 -6 15 -5 23 4 6 8 9 16 7 18 -3 2 17 3 42
3 26 -1 50 3 54 10 5 8 8 7 8 -2 0 -7 5 -10 10 -7 6 4 7 12 3 18 -4 7 0 6 10
-2 9 -7 17 -9 17 -4 0 5 12 8 28 8 15 -1 33 3 40 8 8 6 12 5 12 -2 0 -6 5 -11
11 -11 5 0 7 5 4 10 -6 10 6 14 39 10 12 -1 16 3 11 10 -6 9 -2 9 13 1 15 -8
23 -8 28 0 3 6 17 9 30 6 14 -2 27 0 31 6 4 6 1 7 -7 2 -7 -5 -11 -4 -8 1 4 5
26 9 50 8 23 0 46 5 50 10 5 7 8 6 8 -3 0 -11 4 -10 16 5 8 10 12 12 8 4 -6
-12 -5 -13 7 -4 8 6 24 10 37 9 12 -1 22 2 22 7 0 5 5 6 10 3 6 -4 18 -1 27 7
14 11 16 11 8 -1 -6 -11 -5 -12 6 -5 16 10 32 13 77 17 23 1 31 6 27 16 -4 10
2 8 16 -5 12 -10 19 -13 14 -5 -6 11 -4 13 8 8 10 -3 17 -2 17 3 0 5 15 8 34
6 19 -1 33 1 30 5 -7 12 23 18 35 6 8 -8 11 -8 11 1 0 6 6 9 14 6 8 -3 17 0
21 6 6 9 10 9 16 -1 5 -9 9 -10 9 -2 0 6 9 9 20 6 12 -3 22 1 26 11 3 9 11 16
16 16 6 0 8 -7 4 -15 -5 -13 -2 -13 19 1 21 14 28 14 41 3 12 -10 15 -10 12 2
-2 9 4 13 16 11 10 -2 16 0 13 5 -3 5 3 9 14 9 10 0 19 -4 19 -9 0 -5 7 -4 15
3 8 6 19 9 25 5 5 -3 10 -1 10 6 0 8 5 7 17 -2 10 -8 14 -9 10 -2 -4 6 -3 14
3 18 5 3 10 0 10 -7 0 -8 3 -9 8 -3 6 9 25 13 72 17 8 0 21 5 28 11 8 6 12 6
12 -2 0 -6 5 -11 11 -11 6 0 9 6 6 13 -3 8 6 12 27 11 17 -1 37 4 45 10 12 9
13 8 6 -4 -6 -12 -5 -12 5 -3 7 6 19 9 26 6 8 -3 14 0 14 6 0 6 7 8 15 5 9 -4
15 0 15 7 0 9 3 10 8 4 10 -14 32 -17 32 -4 0 8 4 8 14 0 11 -9 16 -9 22 0 5
8 3 9 -6 4 -9 -5 -11 -4 -6 4 6 9 11 9 24 -1 13 -11 14 -11 8 1 -6 9 -5 12 5
9 8 -3 22 -1 32 4 11 6 17 5 17 -2 0 -6 12 -2 27 7 21 14 25 15 18 3 -7 -11
-2 -10 19 4 17 11 25 13 20 5 -6 -11 -5 -12 7 -3 8 6 29 10 47 9 18 -1 36 3
39 8 3 6 1 7 -5 3 -6 -3 -13 -3 -16 2 -2 4 6 8 20 8 13 0 24 -4 24 -9 0 -5 7
-4 15 3 8 7 24 10 35 7 11 -3 20 0 20 6 0 6 3 7 7 4 3 -4 13 -1 21 6 13 10 14
9 7 -3 -8 -13 -6 -13 8 -2 9 8 21 11 27 7 5 -3 10 -2 10 4 0 5 10 8 22 6 12
-3 30 3 40 12 18 16 18 16 12 -3 -6 -16 -5 -17 7 -7 7 7 26 13 42 13 20 0 26
4 21 13 -5 8 -2 8 9 -2 9 -7 17 -9 17 -4 0 9 9 11 60 16 14 1 28 7 32 12 5 6
8 5 8 -2 0 -7 7 -10 15 -7 8 4 13 9 10 13 -2 4 2 8 10 8 8 0 12 -4 9 -9 -3 -4
-1 -8 4 -8 6 0 13 7 16 15 4 13 10 14 26 5 12 -7 20 -7 20 -1 0 5 9 8 20 6 11
-2 20 0 20 6 0 5 5 9 11 9 5 0 8 -4 5 -8 -3 -5 1 -9 9 -9 8 0 12 4 9 9 -3 4 3
9 13 9 58 4 88 11 95 22 6 9 8 9 8 -2 0 -9 4 -10 13 -4 6 6 26 9 43 8 25 -1
31 2 26 14 -5 13 -3 14 9 4 9 -8 20 -9 29 -3 8 6 28 10 43 10 20 0 26 4 21 13
-5 7 0 6 11 -3 14 -12 19 -12 23 -2 3 10 7 10 20 0 13 -11 14 -11 7 1 -6 11
-3 13 13 9 12 -4 22 -2 22 4 0 5 5 6 11 2 6 -3 15 0 20 7 7 12 9 12 9 0 0 -9
4 -10 13 -4 13 11 19 12 85 16 23 1 40 6 38 12 -2 6 14 10 38 9 22 0 46 3 51
6 20 13 46 20 40 10 -10 -17 7 -11 22 8 8 9 11 11 7 3 -5 -10 -1 -11 17 -6 13
5 31 8 39 9 8 1 18 6 22 11 5 6 8 5 8 -3 0 -7 5 -10 10 -7 6 4 7 12 3 18 -4 8
-1 7 9 -1 10 -8 19 -9 22 -3 3 5 14 8 24 6 9 -1 24 4 34 12 12 11 18 11 24 2
4 -7 3 -10 -4 -5 -6 3 -13 2 -17 -4 -3 -5 -1 -10 6 -10 7 0 4 -9 -8 -20 -12
-10 -24 -29 -28 -40 -4 -11 -9 -18 -13 -16 -9 5 -33 -20 -25 -27 3 -3 -4 -12
-16 -19 -12 -7 -21 -18 -21 -25 0 -7 -4 -13 -10 -13 -5 0 -10 -7 -10 -16 0 -8
-3 -13 -7 -11 -5 2 -16 -4 -25 -15 -10 -10 -15 -18 -10 -18 4 0 -2 -7 -12 -15
-11 -8 -16 -15 -12 -15 4 0 -5 -13 -21 -29 -41 -42 -69 -83 -65 -95 2 -6 1 -8
-3 -4 -8 8 -35 -15 -35 -30 0 -6 -7 -12 -15 -16 -8 -3 -15 -12 -15 -21 0 -8
-5 -15 -11 -15 -5 0 -7 -5 -4 -10 4 -6 3 -10 -2 -9 -19 3 -34 -2 -29 -10 4 -5
-8 -23 -25 -40 -17 -17 -28 -31 -25 -31 3 0 -4 -10 -16 -23 -13 -12 -27 -21
-31 -19 -5 1 -5 -2 -2 -8 4 -6 -1 -18 -11 -25 -11 -8 -15 -15 -10 -15 5 0 -3
-11 -18 -25 -14 -13 -26 -29 -26 -35 0 -6 -4 -8 -10 -5 -6 3 -10 1 -10 -5 0
-6 -11 -22 -25 -35 -13 -14 -22 -25 -18 -25 3 0 -5 -9 -18 -21 -13 -11 -17
-17 -9 -13 8 4 -2 -9 -23 -29 -21 -20 -36 -37 -32 -37 3 0 0 -6 -7 -14 -7 -8
-17 -11 -22 -8 -5 3 -7 -1 -4 -9 5 -15 -26 -51 -37 -41 -3 4 -3 -1 1 -11 4
-12 1 -17 -11 -17 -9 0 -13 -4 -10 -10 3 -5 1 -10 -5 -10 -6 0 -8 -4 -5 -10 3
-5 -1 -10 -10 -10 -9 0 -13 -5 -10 -10 3 -5 1 -10 -5 -10 -6 0 -15 -11 -22
-25 -6 -13 -15 -22 -19 -19 -5 3 -9 -1 -9 -9 0 -8 -7 -18 -16 -21 -8 -3 -13
-10 -10 -15 3 -5 -1 -12 -10 -15 -8 -3 -12 -11 -9 -16 4 -6 1 -9 -7 -8 -7 2
-12 -3 -10 -9 1 -7 -2 -13 -8 -13 -5 0 -10 -7 -10 -15 0 -8 -5 -15 -11 -15 -5
0 -7 5 -3 12 4 7 3 8 -4 4 -7 -4 -12 -14 -12 -22 0 -7 -13 -26 -29 -41 -15
-16 -26 -34 -24 -41 3 -7 -1 -10 -10 -6 -13 5 -31 -27 -28 -49 1 -5 -3 -6 -9
-2 -5 3 -10 -1 -10 -10 0 -9 -4 -13 -10 -10 -5 3 -10 -1 -10 -10 0 -9 -4 -13
-10 -10 -9 6 -14 -8 -11 -28 0 -4 -6 -7 -15 -7 -8 0 -13 -4 -10 -9 3 -5 -6
-17 -19 -27 -14 -10 -25 -24 -25 -31 0 -7 -9 -17 -21 -23 -11 -7 -18 -14 -16
-17 3 -2 -8 -17 -24 -32 -16 -15 -26 -30 -23 -34 3 -3 -4 -10 -15 -17 -12 -6
-19 -15 -16 -19 3 -5 -2 -11 -10 -15 -8 -3 -20 -17 -27 -31 -6 -14 -18 -25
-25 -25 -8 0 -12 -4 -8 -9 3 -6 -3 -14 -12 -20 -10 -6 -14 -11 -10 -11 4 0 -2
-11 -15 -24 -13 -13 -34 -39 -48 -57 -14 -19 -35 -44 -47 -56 -12 -13 -20 -23
-18 -23 3 0 -4 -9 -15 -20 -11 -11 -20 -25 -20 -31 0 -5 -5 -7 -12 -3 -8 5 -9
2 -5 -10 4 -10 3 -15 -3 -11 -6 3 -10 -1 -10 -9 0 -9 -6 -15 -12 -14 -7 2 -12
-2 -11 -9 2 -7 -6 -17 -17 -23 -11 -6 -20 -15 -20 -20 0 -6 -8 -18 -17 -28
-10 -11 -26 -31 -37 -45 -10 -15 -22 -24 -27 -21 -5 3 -6 -2 -3 -10 4 -11 0
-16 -11 -16 -9 0 -13 -5 -10 -10 3 -6 -1 -13 -9 -16 -9 -3 -14 -10 -11 -15 3
-4 -4 -13 -15 -19 -11 -6 -18 -15 -15 -21 4 -5 -1 -9 -9 -9 -8 0 -18 -5 -22
-12 -5 -7 -2 -9 7 -4 8 4 3 -2 -10 -13 -13 -12 -20 -21 -15 -21 4 0 -7 -13
-24 -28 -18 -16 -29 -32 -25 -35 3 -4 1 -7 -5 -7 -7 0 -12 -7 -12 -16 0 -8 -4
-12 -10 -9 -5 3 -10 -1 -10 -10 0 -9 -4 -13 -10 -10 -5 3 -10 0 -10 -8 0 -7
-11 -24 -25 -37 -14 -13 -25 -30 -25 -37 0 -8 -5 -11 -12 -7 -8 5 -9 2 -5 -9
3 -9 3 -16 -1 -16 -20 3 -33 -2 -27 -11 3 -5 1 -10 -6 -10 -7 0 -10 -3 -6 -6
3 -3 -6 -17 -20 -30 -14 -13 -23 -24 -19 -24 4 0 -9 -16 -28 -36 -20 -20 -33
-41 -29 -47 3 -5 2 -8 -3 -5 -5 3 -15 0 -22 -8 -7 -8 -9 -14 -5 -14 4 0 -5
-11 -21 -25 -16 -14 -25 -25 -21 -25 4 0 -1 -8 -11 -18 -11 -9 -30 -32 -43
-49 -12 -18 -27 -32 -33 -30 -6 1 -12 -7 -14 -17 -1 -10 -9 -23 -16 -27 -7 -5
-9 -9 -5 -9 4 0 -4 -11 -18 -25 -14 -14 -25 -30 -25 -36 0 -6 -4 -8 -9 -5 -5
3 -11 -4 -14 -15 -4 -13 -10 -18 -18 -13 -8 4 -10 3 -5 -4 4 -7 2 -12 -5 -12
-7 0 -10 -3 -6 -6 3 -4 -4 -14 -15 -24 -21 -17 -21 -17 -2 -16 19 1 32 9 75
49 10 9 21 17 24 17 13 1 41 15 53 27 8 7 17 11 22 8 4 -3 10 2 14 10 3 8 12
15 21 15 8 0 15 5 15 11 0 5 5 7 10 4 6 -3 10 -1 10 4 0 6 7 11 15 11 8 0 15
5 15 10 0 6 7 10 15 10 8 0 15 5 15 10 0 6 7 10 15 10 8 0 15 5 15 11 0 5 5 7
10 4 6 -3 13 0 16 9 3 8 12 12 19 10 7 -3 20 5 29 18 9 12 16 18 16 13 0 -4
12 2 27 16 17 15 22 17 13 5 -14 -18 -14 -18 7 -6 12 8 20 17 17 21 -4 7 54
33 69 30 4 0 6 5 5 11 -2 7 3 12 10 10 6 -1 12 3 12 9 0 6 7 9 15 5 9 -3 15 0
15 8 0 8 11 17 25 20 14 4 23 11 20 16 -4 6 1 7 11 3 13 -5 15 -3 9 7 -6 10
-4 12 8 7 9 -3 18 0 21 9 3 9 10 12 16 9 5 -3 10 -1 10 4 0 6 7 11 15 11 7 0
19 8 24 18 6 9 11 13 11 9 0 -4 19 5 43 20 23 16 54 35 70 42 15 8 27 18 27
23 0 4 5 8 11 8 6 0 23 9 39 20 15 11 30 17 34 13 3 -3 6 -1 6 6 0 7 20 21 45
32 25 11 45 24 45 29 0 6 6 9 13 8 6 -2 11 3 9 10 -1 7 3 12 10 11 27 -3 39 1
32 13 -5 8 -2 9 9 5 10 -3 17 -3 17 2 0 4 12 14 28 22 15 8 33 20 40 27 8 7
19 9 25 5 7 -4 8 0 4 11 -6 14 -3 17 10 12 9 -4 19 -3 22 2 12 16 74 56 67 41
-4 -7 1 -4 11 7 10 12 28 25 41 29 12 3 22 11 22 17 0 6 3 9 6 5 3 -3 14 2 25
11 11 9 24 18 29 18 6 1 15 2 21 3 5 0 8 5 5 10 -7 11 22 23 36 14 6 -3 8 -1
4 5 -3 6 3 13 14 17 11 3 20 11 20 16 0 6 4 8 9 4 5 -3 12 -1 16 5 4 6 11 7
17 4 7 -5 8 -2 4 5 -5 8 0 14 13 18 12 3 21 9 21 14 0 5 7 5 17 2 11 -4 14 -3
9 5 -6 11 6 17 19 10 2 -2 11 6 19 17 9 11 16 16 16 11 0 -6 6 -2 13 7 6 9 22
18 34 20 12 2 26 7 30 12 5 4 1 5 -7 0 -11 -6 -12 -5 -4 4 6 7 19 14 28 15 10
1 21 7 24 12 4 5 21 16 37 24 17 8 36 21 43 27 7 7 18 13 23 13 6 0 7 5 3 12
-4 6 -3 8 4 5 15 -10 43 3 35 16 -4 6 0 8 10 4 11 -4 17 -1 17 7 0 7 7 13 15
14 8 1 21 3 29 4 8 1 12 8 8 17 -3 9 -2 13 2 9 10 -9 103 39 114 58 5 8 18 16
29 17 12 0 21 6 20 12 -1 5 4 9 11 7 6 -1 12 2 12 8 0 5 7 10 15 10 8 0 15 5
15 11 0 5 5 7 10 4 6 -3 10 -1 10 5 0 6 5 8 10 5 6 -3 10 -2 10 4 0 5 12 16
28 23 45 24 77 43 83 51 3 4 16 9 28 10 13 1 20 6 17 14 -3 7 -1 14 4 14 6 1
16 2 23 3 6 1 11 7 10 13 -1 6 5 10 14 9 10 -2 28 7 42 20 14 13 28 21 33 18
4 -3 8 0 8 5 0 6 4 10 9 9 5 -2 17 6 26 17 9 11 14 13 10 5 -4 -8 1 -6 9 4 9
11 16 16 16 10 0 -5 6 -2 13 6 7 8 31 24 54 35 22 11 39 23 37 27 -3 5 7 8 21
8 14 0 24 4 21 9 -5 8 11 19 37 26 4 2 10 4 15 5 4 1 11 2 15 1 5 -1 6 3 3 8
-6 8 11 20 25 17 4 0 17 10 29 24 12 14 18 18 14 10 -5 -11 -2 -10 13 3 11 9
23 14 26 10 4 -3 7 1 7 11 0 9 5 14 10 11 6 -3 10 -1 10 5 0 6 4 9 9 6 4 -3
16 3 26 14 10 11 24 20 32 20 7 0 13 6 13 13 0 8 4 7 10 -3 8 -13 10 -12 10 3
0 15 6 19 26 16 3 0 11 7 18 17 7 9 18 14 24 10 8 -5 10 -1 5 10 -5 13 -3 15
7 9 8 -5 18 -2 26 9 6 9 21 18 31 19 15 1 20 9 20 29 0 19 -3 24 -9 16 -6 -10
-10 -7 -14 9 -4 13 -10 20 -15 17 -5 -3 -9 -1 -9 5 0 5 -9 12 -20 16 -11 3
-19 9 -18 13 2 7 -69 81 -74 77 -2 -2 -9 3 -16 11 -7 8 -10 14 -6 14 4 0 -12
16 -35 36 -22 20 -38 41 -34 48 3 6 3 8 -1 5 -7 -7 -56 32 -56 45 0 3 -13 19
-30 34 -16 16 -26 33 -22 37 4 5 1 5 -6 1 -9 -5 -15 -1 -19 13 -3 11 -9 18
-14 15 -5 -3 -9 1 -9 8 0 7 -12 23 -27 36 -16 13 -22 21 -15 17 6 -3 12 -1 12
4 0 6 -6 11 -14 11 -8 0 -18 9 -21 20 -3 11 -11 20 -16 20 -6 0 -7 5 -4 10 3
6 -1 10 -9 10 -14 0 -20 12 -17 33 0 4 -5 7 -13 7 -8 0 -18 9 -21 20 -4 11
-17 31 -30 44 -13 13 -21 27 -18 30 3 3 -2 8 -11 12 -9 3 -13 10 -10 15 3 5
-2 9 -12 9 -14 0 -15 2 -3 17 8 9 10 14 4 11 -5 -3 -19 4 -30 15 -11 11 -13
16 -5 12 11 -6 10 -3 -2 12 -10 11 -18 25 -18 31 0 7 -9 17 -20 24 -11 7 -20
20 -20 29 0 9 -7 20 -16 23 -8 3 -13 10 -9 15 3 6 -2 14 -10 19 -9 4 -17 18
-18 29 0 12 -6 21 -12 20 -5 -1 -9 6 -7 16 2 9 -4 20 -12 23 -9 3 -13 10 -10
15 3 5 0 9 -5 9 -6 0 -10 3 -9 8 3 15 -22 63 -37 68 -12 5 -13 9 -4 20 9 11 8
14 -5 14 -10 0 -14 5 -11 10 3 6 0 10 -7 10 -9 0 -9 3 2 10 13 8 12 10 -2 10
-10 0 -18 3 -19 8 -3 29 -9 47 -19 50 -5 2 -8 8 -4 13 3 5 1 9 -5 9 -6 0 -7 7
-4 17 4 11 3 14 -5 9 -8 -4 -12 0 -12 11 0 11 -6 25 -12 32 -11 11 -10 13 2 7
8 -4 5 1 -8 11 -18 15 -20 21 -10 32 10 11 10 12 1 7 -8 -4 -13 -2 -13 6 0 19
-23 68 -32 68 -4 0 -5 9 -3 20 2 11 0 20 -5 20 -11 0 -26 48 -21 69 1 8 -2 10
-10 5 -9 -5 -10 -2 -6 9 4 10 1 17 -6 17 -8 0 -6 4 3 10 13 8 12 10 -2 10 -11
0 -18 8 -18 18 0 10 -6 24 -12 31 -11 11 -10 12 0 6 10 -5 10 0 -2 23 -8 16
-12 32 -9 36 4 3 1 6 -6 6 -7 0 -9 4 -6 10 3 5 0 10 -7 10 -9 0 -9 3 2 10 11
7 11 10 2 10 -7 0 -11 4 -7 9 3 5 -2 17 -11 25 -11 12 -12 16 -2 16 11 0 11 2
0 9 -8 4 -13 11 -13 15 1 7 0 15 -4 31 -1 6 -3 16 -3 23 -1 7 -5 11 -9 9 -5
-3 -9 6 -9 19 -1 13 2 21 7 18 5 -3 4 6 -2 20 -7 14 -15 23 -19 21 -12 -7 -6
29 5 37 6 5 6 8 -1 8 -13 0 -25 32 -28 72 -1 15 -5 30 -8 33 -4 4 -4 13 -1 21
3 8 0 14 -7 14 -9 0 -9 4 1 17 10 11 10 14 2 9 -10 -5 -13 4 -13 34 0 25 -4
39 -10 35 -6 -4 -6 3 0 21 8 21 8 25 -4 21 -10 -4 -12 0 -8 15 3 11 -1 24 -9
29 -9 5 -10 9 -2 9 12 0 12 24 0 36 -4 4 -1 14 6 22 8 11 9 14 0 9 -7 -5 -12
-1 -12 10 -1 44 -4 59 -15 72 -8 11 -8 13 2 7 14 -9 14 -9 3 31 -7 22 -6 33 2
37 9 3 8 5 0 5 -7 1 -13 8 -13 16 0 8 6 15 13 16 6 0 3 4 -8 9 -12 5 -14 9 -6
9 11 1 10 5 -3 20 -13 14 -14 21 -5 27 8 4 10 3 5 -4 -4 -7 -2 -12 3 -12 16 0
13 16 -5 34 -8 9 -11 16 -6 16 5 0 9 7 9 15 0 8 -5 15 -10 15 -5 0 -4 7 3 15
9 11 9 15 1 15 -8 0 -9 5 -2 19 6 10 7 21 3 25 -11 12 -9 76 2 76 7 0 6 3 -1
8 -8 5 -11 31 -9 74 2 47 0 65 -8 61 -6 -3 -5 0 2 8 14 16 16 33 2 24 -5 -3
-10 -1 -10 4 0 6 8 11 18 11 10 0 13 3 6 8 -12 8 -13 81 -1 99 4 6 3 14 -2 17
-10 7 -9 25 2 44 5 7 3 12 -4 12 -8 0 -8 4 1 15 7 8 8 15 3 15 -5 0 -9 9 -9
19 0 11 4 17 8 15 13 -8 9 11 -4 25 -11 11 -10 13 3 9 12 -5 14 0 11 23 -3 20
0 29 9 30 8 0 5 4 -6 9 -11 5 -14 9 -7 9 7 1 10 6 7 11 -4 6 -1 17 5 25 10 12
10 15 0 15 -8 0 -10 7 -5 18 14 34 14 56 2 71 -6 8 -7 12 -2 9 6 -4 17 2 24
14 7 11 8 17 2 13 -7 -4 -10 3 -9 19 1 15 6 26 11 26 4 0 5 4 2 10 -3 5 -1 18
4 28 7 13 7 22 -1 30 -9 9 -7 12 8 12 16 0 17 2 4 10 -13 9 -13 10 0 10 11 0
12 2 3 8 -7 5 -9 13 -3 21 4 8 6 20 3 28 -3 7 0 13 6 13 6 0 8 7 4 17 -5 12
-3 14 7 8 10 -6 11 -4 4 6 -13 21 -14 40 -1 32 6 -4 8 0 4 10 -3 10 -2 17 3
17 5 0 7 7 4 15 -4 8 0 23 7 32 10 11 10 14 2 9 -9 -5 -11 -2 -7 8 3 9 11 16
16 16 6 0 5 6 -2 15 -10 12 -10 15 0 15 7 0 10 6 7 14 -3 8 -1 16 4 18 6 2 11
18 11 36 1 18 5 35 10 38 4 3 6 10 3 15 -4 5 -1 9 6 9 8 0 9 3 0 14 -9 10 -8
16 4 26 8 7 13 15 10 19 -2 4 2 18 9 32 7 13 11 30 8 37 -2 6 1 12 7 12 6 0 8
7 5 15 -4 8 -1 15 6 15 7 0 10 7 6 15 -3 8 -1 15 4 15 5 0 7 6 4 14 -3 8 -1
17 5 21 6 3 11 15 11 26 0 10 6 19 13 19 8 0 7 3 -3 10 -12 8 -12 10 2 15 9 4
15 15 13 25 -2 10 3 21 10 24 8 3 12 14 10 26 -2 12 2 23 10 27 8 3 15 9 15
15 0 5 -6 6 -12 3 -7 -4 -6 -1 3 7 9 7 14 19 12 26 -3 6 0 12 7 12 6 0 8 5 5
10 -3 6 -1 10 6 10 7 0 9 3 6 7 -4 3 1 15 10 26 10 11 12 17 6 13 -7 -4 -13
-3 -13 2 0 6 7 13 16 16 8 3 13 10 9 15 -3 5 -1 12 5 16 5 3 10 15 10 26 0 11
6 22 14 25 8 3 12 12 9 20 -3 7 2 16 10 20 9 3 14 14 12 25 -2 12 2 19 11 19
8 0 12 4 9 10 -8 13 19 52 29 43 4 -4 4 0 1 9 -3 8 1 22 9 31 8 8 12 17 9 21
-4 3 -1 6 6 6 7 0 10 4 7 9 -3 5 3 20 14 34 11 14 20 28 20 32 0 4 9 20 21 36
11 16 17 34 13 41 -4 7 -4 10 1 6 10 -9 35 10 35 26 0 6 -5 4 -10 -4 -7 -10
-10 -11 -10 -2 0 7 7 15 15 18 8 4 12 10 9 15 -3 5 2 9 11 9 9 0 14 4 11 9 -3
4 3 19 14 31 11 12 17 27 13 33 -3 5 -1 7 4 4 9 -6 27 20 23 32 -1 2 5 8 14
13 9 5 14 13 11 19 -4 5 1 9 10 9 9 0 14 4 10 9 -3 6 7 22 22 37 16 14 21 23
13 20 -8 -4 -6 0 5 9 11 9 20 19 20 23 0 8 18 31 49 62 11 11 17 20 13 20 -3
0 9 15 28 34 18 19 31 37 28 40 -4 3 -1 6 5 6 6 0 14 9 17 21 5 13 12 18 22
14 14 -5 14 -3 2 12 -9 11 -10 14 -1 9 7 -4 12 -2 12 4 0 6 5 8 12 4 6 -4 8
-3 4 4 -3 6 2 15 11 21 10 6 14 11 10 11 -4 0 10 18 33 41 22 22 40 45 40 51
0 6 3 9 6 5 6 -6 34 16 34 28 0 11 59 63 64 57 3 -3 6 -1 6 5 0 14 57 72 64
65 3 -3 6 2 6 12 0 9 3 15 8 13 9 -5 42 30 35 37 -4 3 1 6 11 6 9 0 19 7 22
15 4 8 12 15 20 15 9 0 11 6 7 18 -6 15 -5 15 11 3 9 -8 16 -10 15 -5 -4 21 2
34 14 31 6 -1 11 4 9 11 -1 8 2 11 7 8 5 -3 29 12 52 34 24 22 49 40 57 40 7
0 10 5 7 10 -3 6 1 10 10 10 9 0 13 5 10 10 -3 6 3 10 14 10 11 0 29 12 40 27
12 14 24 23 27 20 3 -3 17 6 31 21 14 15 28 27 31 27 19 1 61 39 55 49 -4 6 2
4 12 -4 11 -9 16 -10 11 -2 -7 11 5 17 27 13 5 -1 6 2 3 7 -3 5 7 15 22 23 15
8 30 18 34 24 4 5 8 6 8 1 0 -5 9 1 20 14 11 13 20 18 20 12 0 -7 9 -3 20 8
12 12 24 19 29 16 4 -3 23 8 42 23 19 16 44 31 57 35 12 4 22 12 22 17 0 6 5
7 10 4 6 -3 10 -1 10 4 0 6 3 10 8 10 19 -3 33 2 27 10 -3 6 4 8 15 6 11 -2
20 0 20 6 0 5 7 9 15 9 8 0 15 4 15 9 0 6 9 8 20 6 13 -3 18 0 14 7 -5 8 -1 9
10 5 10 -4 15 -3 11 3 -5 9 1 12 21 9 4 0 10 5 15 13 4 7 14 13 21 14 34 3 39
5 33 14 -3 6 1 7 9 4 9 -3 16 -1 16 5 0 6 6 8 14 5 7 -3 20 1 27 9 8 7 19 12
26 10 6 -2 14 1 18 6 3 6 14 11 25 11 25 0 34 27 11 35 -10 3 -23 17 -29 30
-6 14 -16 25 -22 25 -5 0 -9 3 -7 8 1 4 -7 17 -18 28 -45 49 -79 89 -77 92 7
8 0 22 -12 22 -8 0 -18 9 -21 20 -3 11 -11 20 -16 20 -6 0 -7 5 -4 10 3 6 -1
10 -9 10 -9 0 -15 4 -13 9 1 5 -7 17 -18 26 -11 9 -13 14 -5 10 10 -4 9 -2 -2
8 -10 8 -14 18 -10 22 4 5 2 5 -5 1 -14 -8 -36 27 -25 39 4 5 1 5 -5 1 -8 -4
-13 -1 -13 9 0 9 -4 13 -10 10 -5 -3 -10 -1 -10 6 0 6 -13 25 -30 40 -16 16
-30 31 -30 34 0 3 0 10 0 16 0 5 -4 7 -10 4 -5 -3 -10 3 -10 14 0 12 -5 20
-12 18 -6 -1 -17 8 -23 20 -7 13 -15 20 -18 17 -4 -4 -5 3 -2 14 2 12 1 21 -3
21 -20 -3 -32 2 -27 11 3 6 2 10 -4 10 -5 0 -13 9 -16 20 -3 11 -13 20 -21 20
-8 0 -14 5 -14 11 0 5 5 7 12 3 7 -4 8 -3 4 4 -4 7 -13 12 -19 12 -7 0 -18 9
-25 21 -11 17 -11 20 0 14 7 -5 4 1 -7 12 -11 11 -24 18 -29 15 -5 -3 -6 0 -2
7 4 6 0 14 -8 17 -9 3 -13 10 -10 15 3 5 0 9 -6 9 -6 0 -8 5 -4 12 4 7 3 8 -5
4 -6 -4 -14 0 -18 11 -3 10 -13 22 -20 26 -7 5 -11 12 -8 18 4 5 -2 9 -11 9
-10 0 -15 3 -11 6 6 6 -13 32 -47 65 -11 11 -16 19 -11 19 4 0 -4 10 -18 23
-15 12 -27 28 -27 34 0 6 -7 13 -15 17 -8 3 -15 13 -15 21 0 9 -4 13 -10 10
-5 -3 -10 3 -10 15 0 12 -3 19 -7 17 -10 -6 -34 19 -26 27 4 3 1 6 -5 6 -6 0
-14 9 -17 20 -4 11 -11 18 -16 15 -5 -4 -9 1 -9 9 0 9 -5 16 -11 16 -5 0 -7 5
-4 10 3 6 -2 10 -11 10 -10 0 -14 3 -11 6 4 4 -3 15 -14 25 -11 9 -21 21 -22
26 -1 4 -5 7 -9 6 -4 -2 -4 5 -1 14 4 11 3 14 -5 9 -7 -4 -12 -1 -12 7 0 8 -7
18 -16 21 -9 4 -14 13 -10 21 3 8 2 14 -2 12 -12 -4 -52 42 -52 59 0 8 -3 13
-7 11 -5 -2 -16 4 -25 15 -10 10 -16 18 -13 18 6 0 -6 16 -37 51 -10 10 -18
21 -18 24 0 3 -10 16 -22 29 -13 13 -29 32 -36 42 -7 11 -10 13 -6 5 5 -9 3
-12 -5 -7 -6 4 -9 11 -6 16 3 5 -6 20 -20 34 -14 14 -22 26 -18 26 4 0 -3 7
-15 16 -12 8 -20 20 -17 25 4 5 -1 9 -10 9 -9 0 -13 5 -10 10 3 6 1 10 -5 10
-6 0 -8 5 -5 10 3 6 -1 10 -9 10 -14 0 -20 12 -17 33 0 4 -2 6 -6 5 -5 -2 -9
0 -10 5 -6 16 -39 44 -47 39 -5 -3 -6 0 -3 5 4 6 -7 25 -24 42 -16 17 -27 37
-23 43 4 7 3 8 -4 4 -11 -7 -35 26 -27 38 3 3 2 4 -1 1 -10 -7 -63 58 -57 69
3 5 1 6 -5 2 -7 -4 -12 -1 -12 9 0 9 -4 13 -10 10 -5 -3 -10 -2 -10 4 0 6 -11
27 -25 47 -14 20 -25 34 -25 30 0 -4 -6 -1 -14 6 -8 7 -12 16 -10 19 2 3 -8
16 -22 28 -14 12 -22 26 -19 31 3 6 0 10 -9 10 -8 0 -20 14 -28 30 -7 17 -19
30 -26 30 -7 0 -11 4 -8 9 3 5 -1 12 -10 15 -9 3 -12 11 -8 18 5 8 2 9 -9 5
-9 -3 -16 -3 -15 1 5 17 -15 52 -28 52 -8 0 -12 5 -9 10 3 6 1 10 -4 10 -6 0
-11 7 -11 16 0 8 -4 12 -10 9 -5 -3 -10 1 -10 9 0 9 -4 16 -10 16 -5 0 -10 5
-10 11 0 7 -10 20 -22 30 -11 11 -18 19 -15 19 3 0 -5 11 -18 25 -14 13 -25
29 -25 35 0 5 -7 10 -16 10 -8 0 -12 5 -9 10 3 6 1 10 -6 10 -7 0 -10 3 -6 6
3 4 -4 15 -16 25 -12 10 -18 18 -14 19 12 0 -19 30 -32 30 -5 0 -8 10 -6 21 3
12 2 19 -2 15 -3 -3 -13 3 -20 14 -8 11 -19 17 -25 14 -6 -4 -8 -2 -4 4 3 6 2
13 -4 17 -6 4 -7 11 -4 17 4 6 3 9 -2 6 -11 -7 -35 17 -27 26 4 3 -1 6 -11 6
-9 0 -14 5 -11 10 3 6 -1 13 -9 16 -9 3 -13 10 -10 16 3 5 -4 12 -16 15 -15 4
-20 11 -17 24 3 10 0 17 -6 16 -6 -1 -16 8 -22 21 -5 12 -16 22 -23 22 -7 0
-10 5 -7 10 3 6 1 10 -4 10 -6 0 -11 6 -11 14 0 8 -7 17 -16 20 -9 3 -12 11
-8 18 5 8 2 9 -10 5 -10 -4 -15 -3 -11 3 3 5 2 16 -2 24 -7 12 -10 12 -21 0z
m208 -10638 c0 -2 -7 -7 -16 -10 -8 -3 -12 -2 -9 4 6 10 25 14 25 6z"/>
<path d="M4730 12666 c0 -2 8 -10 18 -17 15 -13 16 -12 3 4 -13 16 -21 21 -21
13z"/>
<path d="M10529 11266 c-2 -2 -47 -7 -99 -10 -182 -13 -442 -56 -620 -101
-243 -61 -544 -176 -740 -282 -188 -102 -418 -258 -535 -363 -269 -241 -425
-422 -600 -700 -55 -89 -202 -373 -245 -475 -39 -94 -118 -326 -136 -397 -2
-10 -6 -26 -8 -35 -15 -58 -56 -244 -60 -275 -3 -21 -9 -55 -12 -75 -3 -21 -7
-45 -9 -53 -3 -8 -7 -42 -10 -75 -4 -33 -8 -67 -10 -75 -26 -97 -26 -881 -1
-1020 3 -14 7 -52 10 -85 11 -106 26 -201 55 -350 66 -335 216 -719 402 -1026
448 -743 1183 -1220 2144 -1393 17 -3 41 -8 55 -11 14 -3 50 -8 80 -11 30 -3
57 -7 60 -9 3 -2 39 -6 80 -10 41 -4 82 -9 91 -10 49 -9 282 -19 469 -19 192
0 476 11 490 19 3 1 37 6 75 10 335 32 660 129 879 260 336 201 506 453 509
755 3 307 -98 561 -304 770 -38 39 -73 70 -79 70 -6 0 -52 -22 -103 -48 -303
-157 -604 -271 -787 -298 -19 -3 -42 -7 -50 -9 -71 -19 -524 -28 -643 -13
-364 47 -632 149 -872 334 -285 219 -480 519 -579 894 -14 52 -28 109 -31 125
-2 17 -7 40 -9 52 -3 11 -7 43 -11 70 -4 26 -9 59 -11 73 -11 66 -19 221 -18
375 0 163 10 381 18 394 2 3 7 35 11 71 4 36 8 67 10 70 2 3 6 25 10 48 19
132 102 377 177 526 27 54 101 176 128 209 208 265 429 421 730 515 52 17 112
33 134 36 21 4 41 8 45 10 7 5 119 20 226 32 168 18 452 4 630 -31 233 -47
509 -163 797 -337 54 -32 101 -58 105 -58 14 1 87 60 156 126 165 161 258 328
287 518 67 444 -158 802 -658 1045 -130 64 -360 140 -512 170 -30 6 -66 13
-80 16 -84 17 -261 40 -395 51 -71 7 -631 15 -636 10z"/>
<path d="M3190 7720 c0 -5 5 -10 11 -10 5 0 7 5 4 10 -3 6 -8 10 -11 10 -2 0
-4 -4 -4 -10z"/>
<path d="M5410 7320 c0 -5 5 -10 11 -10 5 0 7 5 4 10 -3 6 -8 10 -11 10 -2 0
-4 -4 -4 -10z"/>
<path d="M5795 7250 c-3 -5 -1 -10 4 -10 6 0 11 5 11 10 0 6 -2 10 -4 10 -3 0
-8 -4 -11 -10z"/>
<path d="M7905 4725 c2 -14 -1 -23 -6 -19 -8 5 -13 -10 -10 -30 1 -5 -3 -12
-9 -16 -6 -4 -12 -18 -12 -31 -1 -13 -10 -39 -20 -57 -10 -19 -14 -31 -8 -27
6 3 7 0 4 -9 -3 -9 -9 -14 -13 -12 -4 3 -8 -3 -9 -12 -1 -9 -3 -26 -4 -37 -2
-11 -8 -23 -15 -28 -7 -4 -10 -14 -7 -22 4 -8 1 -15 -6 -15 -9 0 -9 -4 1 -17
9 -11 10 -14 2 -10 -8 5 -15 -2 -19 -20 -4 -15 -12 -34 -18 -42 -9 -12 -8 -13
4 -7 9 4 8 2 -2 -7 -10 -8 -15 -17 -11 -20 3 -4 0 -13 -7 -22 -7 -8 -9 -15 -4
-15 4 0 3 -5 -3 -11 -6 -6 -9 -18 -6 -25 3 -8 -3 -17 -12 -20 -13 -5 -14 -9
-3 -15 10 -6 8 -9 -7 -9 -15 0 -17 -2 -6 -9 9 -6 10 -11 2 -15 -6 -4 -9 -12
-6 -17 4 -5 1 -9 -5 -9 -6 0 -9 -4 -6 -8 3 -5 -2 -19 -11 -32 -9 -13 -17 -37
-18 -54 -1 -16 -7 -32 -13 -34 -6 -2 -8 -10 -5 -18 3 -8 0 -14 -7 -14 -6 0 -8
-5 -5 -10 4 -6 1 -18 -7 -27 -11 -14 -11 -16 2 -9 12 6 11 4 -1 -6 -9 -7 -14
-19 -12 -25 3 -7 1 -13 -4 -13 -5 0 -10 -10 -10 -22 -1 -13 -7 -24 -13 -26 -5
-2 -10 -8 -10 -13 0 -6 5 -7 11 -3 6 3 3 -5 -6 -20 -9 -14 -15 -33 -11 -41 3
-9 2 -13 -4 -10 -6 3 -10 -3 -10 -15 0 -12 -4 -19 -9 -16 -4 3 -7 -6 -5 -19 1
-14 -2 -25 -8 -25 -6 0 -7 -7 -4 -16 4 -10 2 -13 -6 -8 -8 5 -9 2 -5 -9 3 -10
2 -17 -4 -17 -6 0 -7 -5 -3 -12 4 -6 -1 -17 -11 -25 -14 -9 -15 -13 -4 -13 12
0 12 -2 -1 -10 -8 -5 -10 -10 -5 -10 6 0 3 -5 -5 -10 -13 -9 -13 -10 0 -10 12
0 12 -2 2 -9 -12 -7 -19 -27 -21 -59 -1 -8 -6 -10 -13 -6 -7 4 -10 4 -6 -1 4
-4 3 -16 -2 -26 -7 -12 -6 -19 3 -22 7 -3 5 -6 -5 -6 -12 -1 -15 -8 -12 -27 3
-18 1 -23 -7 -18 -9 5 -10 1 -7 -14 4 -12 3 -20 -2 -17 -10 6 -22 -24 -14 -36
3 -5 1 -9 -5 -9 -6 0 -8 -7 -5 -15 4 -8 1 -15 -6 -15 -7 0 -10 -7 -6 -15 3
-10 -1 -15 -12 -15 -13 0 -14 -2 -3 -9 9 -6 10 -11 2 -15 -6 -4 -9 -12 -6 -17
4 -5 1 -9 -6 -9 -8 0 -7 -5 2 -17 10 -11 10 -14 2 -9 -12 6 -18 -5 -14 -26 0
-5 -4 -8 -10 -8 -5 0 -7 -4 -4 -10 3 -5 1 -10 -6 -10 -8 0 -8 -4 1 -16 11 -12
11 -15 -1 -12 -8 2 -13 -3 -11 -11 1 -7 -3 -20 -10 -29 -11 -13 -11 -15 2 -8
8 4 6 0 -4 -8 -11 -9 -16 -16 -12 -16 5 0 3 -7 -4 -15 -10 -12 -10 -15 1 -15
8 0 6 -5 -6 -14 -11 -8 -16 -19 -12 -30 4 -10 1 -19 -8 -22 -8 -4 -12 -10 -9
-15 3 -6 1 -16 -5 -23 -6 -7 -9 -22 -6 -34 2 -13 -1 -21 -8 -19 -7 1 -11 -6
-11 -15 1 -10 -2 -18 -8 -18 -5 0 -6 -4 -3 -10 3 -5 0 -10 -7 -10 -10 0 -10
-2 1 -9 9 -6 10 -10 2 -12 -7 -3 -13 -14 -14 -27 0 -12 -5 -22 -10 -22 -4 0
-6 -4 -2 -9 3 -5 -2 -16 -10 -24 -11 -12 -12 -17 -2 -20 9 -4 9 -6 -1 -6 -7
-1 -10 -5 -7 -11 3 -5 1 -10 -5 -10 -6 0 -10 -6 -9 -12 3 -24 -1 -39 -9 -34
-4 2 -9 -6 -10 -20 -3 -47 -5 -54 -15 -54 -5 0 -7 -6 -4 -14 3 -8 2 -16 -3
-18 -5 -2 -11 -16 -14 -33 -3 -16 -10 -31 -16 -33 -5 -2 -8 -7 -5 -12 3 -4 -1
-23 -9 -41 -8 -19 -16 -38 -18 -44 -1 -5 -5 -9 -8 -8 -4 1 -7 -9 -8 -23 -1
-13 -4 -35 -5 -48 -1 -13 -5 -22 -9 -19 -8 4 -9 0 -12 -37 -1 -8 -7 -14 -13
-13 -6 1 -9 -6 -6 -16 2 -9 -3 -23 -11 -30 -12 -10 -13 -18 -5 -32 7 -15 6
-21 -6 -25 -8 -3 -13 -10 -10 -14 3 -5 1 -11 -5 -15 -5 -3 -10 -17 -10 -31 0
-13 -5 -24 -11 -24 -6 0 -9 -6 -6 -14 3 -7 0 -19 -6 -25 -6 -6 -8 -11 -3 -11
4 0 0 -10 -8 -21 -8 -12 -12 -28 -9 -35 3 -8 1 -14 -5 -14 -11 0 -26 -55 -24
-83 1 -10 -3 -15 -8 -12 -9 6 -14 -8 -11 -27 0 -5 -4 -8 -10 -8 -5 0 -8 -4 -5
-8 7 -11 -19 -84 -27 -76 -3 4 -5 -3 -2 -15 2 -11 -1 -21 -7 -21 -6 0 -5 -6 2
-16 11 -12 11 -15 -1 -12 -8 2 -13 -4 -13 -14 1 -10 -2 -18 -8 -18 -5 0 -6 -5
-2 -11 3 -6 2 -14 -4 -18 -7 -4 -13 -16 -15 -26 -1 -11 -6 -26 -10 -32 -5 -7
-5 -17 -2 -23 3 -6 1 -10 -5 -10 -6 0 -9 -4 -5 -9 3 -5 1 -12 -5 -16 -6 -4 -8
-11 -5 -16 4 -5 1 -9 -5 -9 -6 0 -8 -4 -5 -10 3 -5 2 -10 -4 -10 -5 0 -8 -9
-6 -20 2 -11 0 -20 -6 -20 -5 0 -8 -3 -8 -7 3 -20 -2 -34 -10 -29 -5 4 -7 -2
-4 -13 3 -10 0 -22 -6 -25 -6 -4 -11 -18 -11 -31 0 -13 -4 -27 -10 -30 -5 -3
-10 -16 -10 -27 0 -12 -8 -30 -17 -41 -10 -11 -12 -17 -5 -13 6 4 12 2 12 -4
0 -6 -7 -13 -16 -17 -13 -5 -13 -7 -2 -14 10 -7 10 -9 1 -9 -7 0 -13 -7 -13
-15 0 -8 -6 -15 -12 -15 -10 0 -10 -2 0 -8 10 -7 8 -14 -8 -32 -19 -22 -19
-46 1 -34 5 3 6 10 3 16 -5 7 -1 9 9 5 11 -4 17 -1 17 8 0 8 5 15 10 15 6 0
10 6 10 14 0 8 7 16 15 20 8 3 15 12 15 21 0 8 7 15 16 15 8 0 12 5 9 10 -3 6
1 13 9 16 9 3 14 9 11 13 -2 4 5 14 16 21 10 8 19 19 19 24 0 6 12 20 26 32
14 13 25 26 26 31 0 4 4 7 10 5 5 -1 7 2 4 6 -3 5 5 21 19 36 13 14 22 26 20
26 -2 0 11 16 31 35 19 19 31 35 27 35 -4 0 1 7 11 15 11 8 16 15 12 15 -4 0
6 12 23 27 17 15 31 33 31 40 0 7 9 18 20 25 11 7 20 19 20 26 0 7 7 15 15 18
8 4 13 10 10 15 -3 4 4 13 16 19 11 7 18 14 15 17 -3 3 3 13 13 22 26 23 91
109 91 122 0 5 5 7 10 4 6 -3 10 -1 10 6 0 6 11 22 25 35 16 15 20 24 12 27
-9 4 -8 6 1 6 14 1 49 31 36 31 -4 0 3 9 16 20 13 11 19 20 14 20 -5 0 -1 5 9
11 9 5 17 14 17 19 0 5 12 22 28 38 49 53 63 73 56 84 -4 6 -3 8 3 5 9 -6 43
26 43 41 0 4 9 14 19 22 11 7 18 17 15 22 -3 4 2 8 11 8 9 0 13 5 10 10 -3 6
-1 10 5 10 6 0 8 5 5 10 -3 6 1 10 10 10 9 0 13 4 10 10 -3 6 -2 10 3 10 5 0
15 11 22 25 7 13 17 22 22 19 4 -3 8 1 8 9 0 7 8 22 18 33 10 11 27 32 36 47
10 15 23 24 29 20 5 -3 7 -1 4 4 -4 6 4 22 18 37 13 14 22 26 19 26 -3 0 1 6
8 14 7 8 17 11 22 8 5 -3 7 2 3 10 -3 9 4 24 16 35 28 25 67 71 67 79 0 4 10
15 22 25 11 11 17 19 13 19 -4 0 6 13 23 29 16 16 28 32 24 35 -3 3 0 6 6 6 6
0 14 9 17 20 4 11 11 18 16 15 5 -4 9 1 9 9 0 9 5 16 12 16 6 0 9 3 5 6 -3 4
11 22 31 42 20 19 31 32 25 28 -7 -4 -13 -2 -13 3 0 6 6 11 13 11 8 0 19 11
25 25 6 14 16 25 22 25 5 0 10 5 10 11 0 15 26 39 35 31 4 -4 6 -2 5 3 -5 21
0 36 10 30 6 -3 10 1 10 9 0 9 5 16 11 16 5 0 8 3 6 8 -6 9 19 33 27 25 3 -4
6 1 6 9 0 9 13 30 29 47 15 16 26 33 23 35 -3 3 3 8 12 12 9 3 16 12 16 20 0
8 5 14 11 14 5 0 7 6 3 13 -5 8 -2 7 9 -2 15 -12 17 -12 12 1 -4 9 8 30 29 52
20 20 32 36 28 36 -4 1 4 10 17 20 13 11 21 20 18 20 -5 0 21 34 56 71 9 10
14 19 11 19 -4 0 5 11 20 25 14 13 26 26 26 29 0 3 11 17 25 32 13 14 22 31
18 37 -4 6 0 8 11 4 10 -4 15 -3 11 3 -3 6 -1 10 6 10 7 0 10 3 6 6 -3 3 7 19
21 36 15 17 26 34 25 39 -2 5 4 9 12 9 8 0 15 7 15 15 0 8 4 15 8 15 5 0 15
11 22 25 7 13 16 22 20 20 4 -3 13 9 20 26 7 16 22 36 34 44 11 8 17 15 13 15
-7 0 22 37 58 73 11 11 14 16 6 12 -9 -5 -12 -4 -7 3 4 7 14 12 21 12 9 0 12
6 9 15 -4 9 0 15 10 15 9 0 16 5 16 10 0 22 2 26 22 47 12 12 25 20 31 16 6
-3 7 -1 4 4 -4 6 0 13 8 17 8 3 15 12 15 21 0 8 5 15 11 15 5 0 8 4 5 9 -3 5
1 12 10 15 8 3 13 10 10 15 -8 13 30 21 43 8 7 -7 7 -16 0 -30 -8 -14 -8 -18
0 -13 11 7 14 -9 14 -66 0 -16 3 -28 7 -28 4 0 7 -12 6 -27 -1 -16 6 -34 14
-41 13 -12 13 -13 -4 -8 -16 6 -17 4 -6 -9 7 -8 9 -15 5 -15 -4 0 0 -12 10
-26 9 -15 12 -23 5 -19 -9 6 -10 -1 -5 -26 4 -19 12 -37 17 -40 6 -4 5 -9 -3
-12 -10 -4 -11 -8 -3 -14 5 -4 10 -25 10 -46 -1 -26 3 -37 14 -37 9 0 11 -3 5
-8 -13 -9 -18 -32 -7 -32 4 0 9 -20 10 -44 2 -57 5 -69 17 -78 6 -5 4 -8 -5
-8 -13 0 -13 -2 -1 -9 9 -6 14 -26 14 -55 0 -25 3 -46 8 -46 5 0 9 -5 9 -11 0
-5 -4 -8 -9 -4 -11 6 -8 -16 7 -55 5 -14 8 -33 7 -42 -2 -10 1 -18 7 -18 6 0
5 -6 -2 -15 -10 -12 -10 -15 0 -15 7 0 10 -7 7 -15 -4 -8 -1 -17 5 -21 7 -5 8
-2 3 6 -5 9 -4 11 4 6 9 -6 9 -11 1 -21 -8 -10 -8 -19 0 -36 10 -17 9 -20 -1
-14 -8 6 -10 4 -4 -5 5 -7 9 -25 11 -39 1 -14 2 -30 3 -34 1 -5 5 -6 10 -3 11
7 9 -13 -2 -31 -5 -7 -4 -13 1 -13 5 0 9 -8 9 -17 0 -55 4 -84 11 -79 4 2 7
-12 6 -32 0 -20 3 -45 8 -54 6 -12 5 -18 -3 -18 -8 0 -6 -7 5 -19 12 -13 14
-21 6 -26 -8 -5 -7 -11 2 -22 7 -9 11 -27 10 -40 -2 -13 2 -30 8 -38 8 -9 8
-15 0 -20 -6 -3 -8 -11 -4 -16 3 -5 10 -6 16 -3 6 4 6 -1 -1 -14 -7 -14 -8
-23 -1 -27 7 -4 6 -13 -1 -27 -7 -13 -7 -18 -1 -14 15 9 22 -7 12 -24 -6 -10
-3 -21 8 -34 16 -18 16 -19 -2 -12 -18 6 -19 5 -4 -11 8 -10 14 -28 13 -41 -1
-12 2 -22 7 -22 5 0 4 -9 -2 -19 -8 -16 -6 -22 7 -30 11 -6 13 -11 5 -11 -10
0 -10 -5 -2 -20 6 -11 7 -20 3 -20 -4 0 -2 -4 6 -9 12 -8 12 -12 2 -25 -10
-12 -11 -16 -1 -16 7 0 10 -8 7 -20 -3 -11 -1 -20 4 -20 5 0 9 -5 9 -11 0 -5
-4 -7 -10 -4 -15 9 -12 -2 6 -20 13 -12 14 -19 4 -30 -10 -12 -10 -15 0 -15 7
0 10 -7 7 -15 -4 -8 -2 -17 2 -20 5 -3 7 -14 4 -25 -3 -12 0 -20 7 -20 10 0
10 -3 0 -15 -7 -9 -8 -15 -2 -15 5 0 9 -16 7 -35 -1 -19 2 -35 8 -35 5 0 4 -7
-3 -15 -11 -13 -10 -14 2 -10 11 5 15 -2 15 -27 0 -60 7 -98 18 -98 5 0 3 -5
-5 -10 -10 -6 -11 -10 -2 -10 6 0 12 -5 12 -11 0 -5 -6 -7 -12 -3 -10 6 -9 4
0 -8 7 -9 14 -32 14 -50 1 -18 6 -36 12 -40 7 -5 6 -8 -3 -8 -11 0 -10 -4 5
-16 10 -8 13 -13 7 -9 -7 3 -13 2 -13 -4 0 -5 6 -12 13 -14 9 -4 9 -6 0 -6 -9
-1 -10 -8 -3 -25 5 -14 7 -34 5 -46 -2 -13 0 -18 7 -14 7 5 9 -2 4 -20 -5 -21
-4 -26 6 -20 8 5 8 1 -2 -11 -12 -15 -12 -17 -1 -10 11 6 13 2 7 -19 -5 -20
-3 -26 5 -21 8 6 8 2 0 -14 -9 -15 -9 -21 -1 -21 7 0 10 -15 8 -37 -2 -23 2
-38 10 -41 10 -3 10 -7 1 -18 -8 -10 -8 -14 -1 -14 7 0 9 -7 5 -17 -5 -12 -3
-14 7 -8 10 6 11 4 4 -6 -12 -20 -14 -40 -2 -33 6 4 8 -2 3 -16 -5 -15 -4 -20
4 -16 15 10 14 -7 -1 -22 -9 -9 -9 -12 1 -12 8 0 11 -7 8 -20 -3 -11 0 -20 6
-20 8 0 7 -4 -2 -9 -10 -6 -10 -10 -1 -16 9 -6 9 -10 -1 -16 -11 -7 -11 -9 2
-9 12 0 16 -9 14 -35 -1 -19 3 -35 9 -35 6 0 4 -5 -4 -10 -9 -6 -11 -10 -3
-10 7 0 10 -7 6 -17 -5 -12 -3 -14 8 -8 12 8 12 6 0 -8 -9 -12 -10 -17 -2 -17
7 0 9 -5 5 -11 -3 -6 0 -15 7 -20 11 -7 11 -9 1 -9 -9 0 -10 -5 -3 -19 6 -10
8 -21 4 -24 -3 -4 0 -14 8 -24 9 -11 10 -14 2 -9 -7 4 -13 2 -13 -3 0 -6 6
-11 13 -11 9 0 9 -2 -1 -9 -11 -6 -10 -10 4 -15 14 -6 16 -9 5 -15 -8 -5 -9
-11 -3 -15 6 -3 8 -15 5 -26 -3 -13 0 -20 8 -20 9 0 10 -3 2 -11 -12 -12 -5
-52 8 -43 5 3 5 -6 -1 -20 -5 -15 -6 -28 0 -31 5 -3 7 -12 3 -20 -3 -8 0 -15
7 -15 6 0 9 -4 5 -9 -3 -5 -1 -12 4 -16 7 -4 7 -15 1 -31 -6 -14 -6 -23 -1
-20 14 9 20 -16 9 -37 -5 -9 -5 -17 -1 -17 4 0 9 -17 11 -37 1 -20 8 -41 15
-45 9 -6 9 -8 -2 -8 -11 0 -11 -3 -1 -15 10 -12 10 -15 -1 -15 -12 0 -12 -2 0
-9 8 -5 11 -16 8 -24 -3 -9 -1 -18 6 -21 9 -3 8 -5 -1 -5 -10 -1 -10 -6 -2
-21 6 -11 16 -17 22 -14 7 4 8 3 4 -5 -4 -6 -12 -9 -17 -6 -16 11 -10 -7 9
-22 9 -7 13 -12 7 -11 -5 2 -12 -1 -15 -6 -3 -5 2 -10 11 -11 15 -3 22 29 22
97 -1 18 3 25 11 21 7 -4 7 -2 -1 7 -14 15 -5 43 11 33 6 -4 5 1 -3 10 -9 11
-10 17 -2 17 6 0 11 5 11 11 0 5 -4 7 -10 4 -15 -9 -12 2 6 19 8 9 11 16 6 16
-10 0 -10 30 1 46 3 6 5 21 2 32 -3 16 0 19 12 15 12 -5 13 -2 5 14 -6 10 -7
25 -3 32 5 7 6 22 3 34 -4 15 -2 18 9 12 12 -8 12 -6 0 8 -9 12 -10 17 -2 17
7 0 9 4 6 10 -3 5 -1 19 6 31 9 17 8 20 -3 13 -10 -6 -11 -5 -2 7 6 8 10 24 9
36 -1 13 2 23 6 23 4 0 5 13 3 30 -3 16 -1 30 4 30 8 0 12 31 12 88 0 12 6 22
13 22 8 0 7 4 -3 10 -8 5 -10 10 -4 10 5 0 11 19 13 42 1 23 5 45 9 48 4 3 8
25 10 50 2 24 8 51 15 59 9 11 9 13 0 8 -8 -5 -11 1 -8 20 2 16 4 32 4 36 1 5
4 6 9 4 4 -3 8 16 9 41 1 26 5 65 8 87 3 22 6 46 7 53 1 6 6 12 12 12 6 0 5 4
-3 9 -9 6 -10 11 -2 15 6 4 11 12 11 17 0 6 -5 7 -10 4 -6 -3 0 11 12 32 19
33 20 36 4 23 -19 -15 -19 -14 -2 18 11 21 13 32 5 32 -8 0 -8 4 1 15 6 8 9
19 5 25 -4 6 1 18 11 26 11 9 13 13 7 9 -14 -6 -18 7 -6 18 5 6 13 59 15 107
0 8 6 21 12 29 8 11 8 13 -1 7 -9 -5 -11 -2 -7 8 3 9 10 16 16 16 5 0 6 6 1
13 -10 15 -5 48 10 66 9 12 9 13 0 7 -7 -4 -13 -2 -13 3 0 6 4 11 9 11 14 0
21 29 9 36 -7 5 -8 2 -3 -6 5 -9 4 -11 -4 -6 -9 6 -9 11 0 22 7 8 13 29 13 47
1 18 5 38 10 45 4 6 4 17 0 24 -5 8 -2 9 10 5 15 -6 16 -5 2 15 -11 16 -13 25
-4 35 6 7 7 13 4 13 -4 0 -2 9 4 19 7 14 6 21 -3 24 -6 3 -3 6 8 6 17 1 17 3
5 11 -12 8 -12 10 -1 10 11 0 11 3 0 17 -11 13 -11 15 -1 9 10 -6 13 -3 12 10
-1 11 -1 21 0 24 1 3 3 23 4 45 1 23 6 47 11 55 13 21 14 74 1 82 -7 5 -4 8 8
8 15 0 16 3 7 14 -9 11 -8 15 6 20 15 6 15 8 3 16 -9 6 -10 10 -3 10 7 0 10
10 7 26 -3 19 -1 24 8 18 10 -6 9 -3 -1 9 -9 12 -10 17 -2 17 7 0 9 5 5 11 -3
6 0 15 7 20 11 7 11 9 1 9 -8 0 -10 5 -5 12 4 7 9 30 9 51 1 20 8 45 15 54 10
11 10 14 2 9 -17 -10 -16 0 3 29 11 16 12 25 5 25 -8 0 -9 6 -3 18 4 9 8 29 7
44 0 15 3 24 7 22 13 -8 9 11 -4 25 -11 11 -10 12 1 6 11 -6 13 -4 8 9 -6 14
-3 17 10 12 15 -5 15 -4 -1 9 -12 9 -15 15 -7 15 7 0 11 6 8 15 -4 8 -2 17 3
20 5 3 7 12 4 20 -3 7 0 23 6 35 8 15 8 20 1 16 -6 -4 -11 -2 -11 3 0 6 5 11
12 11 6 0 8 3 5 7 -4 3 -1 13 6 21 9 12 9 14 0 9 -9 -6 -8 3 2 27 11 26 12 37
3 42 -7 5 -8 3 -3 -6 6 -9 4 -11 -4 -5 -9 5 -8 11 6 24 13 13 18 32 18 74 0
31 4 57 9 57 5 0 3 7 -4 16 -11 12 -11 15 1 12 10 -2 14 9 14 45 0 35 4 47 15
47 13 0 13 1 0 10 -13 9 -13 10 0 10 13 0 13 1 0 10 -11 7 -12 12 -3 21 6 6 9
18 6 25 -3 8 -1 14 5 14 5 0 8 14 6 31 -2 16 0 28 4 25 5 -3 9 1 9 9 0 8 -5
11 -11 8 -6 -3 -5 0 2 8 6 7 12 17 12 22 0 4 -6 5 -12 2 -7 -4 -4 1 6 9 15 12
16 16 5 16 -9 0 -10 3 -3 8 7 4 11 18 10 32 -1 14 5 36 13 50 15 24 15 24 -3
10 -18 -14 -19 -14 -6 10 8 14 14 39 15 55 1 17 6 29 11 28 5 -1 9 11 9 27 1
16 -3 26 -9 23 -5 -4 -6 -1 0 8 12 19 14 39 4 39 -5 0 -12 -5 -15 -10 -4 -6
-13 -7 -23 -2 -9 5 -30 8 -47 7 -16 -1 -37 2 -46 6 -8 4 -21 4 -29 -1 -9 -5
-19 -5 -27 2 -7 6 -13 7 -13 2 0 -10 -50 -11 -66 -2 -5 3 -19 4 -31 3 -13 -1
-23 2 -23 6 0 5 -12 4 -26 -1 -14 -6 -23 -6 -20 -2 2 4 -16 8 -40 8 -24 1 -52
8 -61 15 -11 10 -14 10 -9 2 4 -8 1 -13 -8 -13 -9 0 -16 5 -16 11 0 8 -6 7
-17 -2 -10 -8 -14 -9 -10 -2 5 8 -1 11 -20 10 -16 -2 -34 4 -41 13 -8 8 -11 9
-7 3 4 -9 -2 -12 -19 -11 -15 1 -26 5 -26 9 0 4 -13 6 -30 5 -16 -1 -30 1 -30
6 0 4 -7 4 -17 1 -11 -4 -14 -3 -9 5 10 16 -6 15 -23 0 -11 -10 -13 -10 -7 0
5 8 -3 12 -28 12 -20 0 -39 0 -42 -1 -4 0 -10 4 -13 9 -4 6 -18 12 -33 14 -14
2 -33 10 -42 18 -10 7 -16 9 -15 4 4 -21 -2 -24 -17 -9 -9 9 -23 14 -30 11 -7
-3 -18 3 -23 12 -6 9 -11 12 -11 5 0 -7 -7 -10 -15 -7 -8 4 -13 9 -10 14 2 4
-7 5 -22 2 -17 -3 -24 -1 -19 6 4 6 -2 8 -16 4 -13 -3 -19 -1 -15 5 4 6 -1 10
-11 10 -43 0 -53 3 -46 16 5 7 0 6 -11 -3 -13 -10 -16 -11 -11 -2 6 9 3 12
-10 10 -12 -2 -18 2 -16 11 3 12 0 12 -12 1 -11 -8 -16 -9 -16 -1 0 6 -3 10
-7 9 -5 -1 -20 6 -35 16 -15 10 -32 15 -38 11 -5 -3 -10 -1 -10 4 0 6 -9 11
-20 11 -11 0 -20 5 -20 11 0 5 -4 8 -9 4 -5 -3 -12 -1 -16 5 -4 6 -11 8 -16 5
-5 -4 -9 -1 -9 5 0 6 -4 8 -10 5 -5 -3 -10 -2 -10 4 0 5 -9 8 -20 6 -11 -2
-23 1 -26 7 -5 7 -2 8 6 3 9 -6 11 -4 6 4 -5 7 -14 10 -22 7 -8 -3 -14 -1 -14
3 0 5 -7 12 -16 15 -10 4 -13 2 -9 -7 4 -6 0 -4 -8 5 -8 10 -16 15 -19 13 -3
-3 -13 4 -22 14 -10 11 -24 17 -32 14 -8 -3 -14 0 -14 7 0 7 -6 10 -14 7 -8
-3 -17 1 -20 9 -3 8 -15 14 -26 14 -13 0 -19 4 -14 11 4 7 1 10 -7 7 -8 -3
-20 2 -27 11 -11 13 -12 13 -7 1 4 -8 -3 -4 -14 9 -13 14 -21 18 -21 10 -1 -9
-4 -8 -11 4 -6 9 -14 15 -20 12 -5 -4 -9 -3 -9 2 0 4 -20 19 -45 32 -24 13
-42 27 -40 32 3 4 -4 6 -15 4 -11 -2 -20 1 -20 6 0 5 -8 13 -17 17 -41 18 -83
48 -83 60 0 7 -5 10 -11 7 -6 -4 -17 1 -24 11 -8 11 -15 15 -15 10 0 -5 -9 1
-20 14 -11 13 -20 19 -20 14 0 -5 -5 -1 -11 9 -5 9 -17 17 -25 17 -9 0 -12 5
-8 12 5 8 2 9 -9 5 -12 -4 -17 -1 -17 10 0 9 -3 13 -7 10 -3 -4 -17 5 -30 19
-13 14 -23 20 -24 12 0 -7 -4 -3 -9 10 -5 12 -17 22 -25 22 -9 0 -13 5 -10 10
3 6 -1 10 -9 10 -9 0 -16 5 -16 10 0 6 -7 10 -16 10 -8 0 -12 5 -9 10 6 10 -9
15 -30 10 -5 -1 -7 2 -3 6 4 4 -2 15 -14 25 -26 24 -26 24 -23 -6z m-225 -665
c0 -5 -5 -10 -11 -10 -5 0 -7 5 -4 10 3 6 8 10 11 10 2 0 4 -4 4 -10z m1375
-20 c3 -6 -1 -7 -9 -4 -18 7 -21 14 -7 14 6 0 13 -4 16 -10z"/>
<path d="M8919 3883 c-13 -16 -12 -17 4 -4 16 13 21 21 13 21 -2 0 -10 -8 -17
-17z"/>
</g>
</svg>
