<svg width="49" height="49" viewBox="0 0 49 49" fill="none" xmlns="http://www.w3.org/2000/svg">
<rect x="4" y="4" width="41" height="41" rx="20.5" fill="#1E398F"/>
<g clip-path="url(#clip0)">
<path fill-rule="evenodd" clip-rule="evenodd" d="M23.7519 23.2861C23.7508 23.2535 23.75 23.2205 23.75 23.1875C23.75 22.4668 23.75 21.6583 23.75 20.9375C23.75 20.1916 24.0463 19.4761 24.5739 18.9489C25.1011 18.4212 25.8166 18.125 26.5625 18.125C26.5625 18.125 26.5625 18.125 26.5625 18.875V18.125C27.3084 18.125 28.0239 18.4212 28.5511 18.9489C28.7937 19.1911 28.9873 19.4735 29.1256 19.7803C30.1633 20.306 30.875 21.383 30.875 22.625C30.875 23.3255 30.6485 23.9739 30.2645 24.5C30.6485 25.0261 30.875 25.6745 30.875 26.375C30.875 27.617 30.1633 28.694 29.1256 29.2197C28.9873 29.5265 28.7937 29.8089 28.5511 30.0511C28.0239 30.5787 27.3084 30.875 26.5625 30.875C26.5625 30.875 26.5625 30.875 26.5625 30.125V30.875C25.8166 30.875 25.1011 30.5787 24.5739 30.0511C24.0463 29.5239 23.75 28.8084 23.75 28.0625C23.75 27.3418 23.75 26.5332 23.75 25.8125C23.75 25.7795 23.7508 25.7465 23.7519 25.7139C23.7508 25.6842 23.75 25.6546 23.75 25.625V23.375C23.75 23.3454 23.7508 23.3158 23.7519 23.2861ZM25.25 28.0625V20.9375C25.25 20.5895 25.3884 20.2558 25.6344 20.0094C25.8807 19.7634 26.2145 19.625 26.5625 19.625V18.875V19.625C26.9105 19.625 27.2443 19.7634 27.4906 20.0094C27.6448 20.1635 27.7565 20.3521 27.8188 20.5573C27.8866 20.7811 28.0554 20.9607 28.2747 21.0425C28.9171 21.2814 29.375 21.9001 29.375 22.625C29.375 23.147 29.1373 23.6135 28.7649 23.9232C28.5935 24.0657 28.4945 24.2772 28.4945 24.5C28.4945 24.7228 28.5935 24.9343 28.7649 25.0768C29.1373 25.3865 29.375 25.853 29.375 26.375C29.375 27.0999 28.9171 27.7186 28.2747 27.9575C28.0554 28.0393 27.8866 28.2189 27.8188 28.4428C27.7565 28.6479 27.6448 28.8365 27.4906 28.9906C27.2443 29.2366 26.9105 29.375 26.5625 29.375V30.125V29.375C26.2145 29.375 25.8807 29.2366 25.6344 28.9906C25.3884 28.7443 25.25 28.4105 25.25 28.0625Z" fill="white"/>
<path fill-rule="evenodd" clip-rule="evenodd" d="M19.8744 19.7803C20.0127 19.4735 20.2063 19.1911 20.4489 18.9489C20.9761 18.4212 21.6916 18.125 22.4375 18.125C22.4375 18.125 22.4375 18.125 22.4375 18.875V18.125C23.1834 18.125 23.8989 18.4212 24.4261 18.9489C24.9537 19.4761 25.25 20.1916 25.25 20.9375C25.25 21.6583 25.25 22.4668 25.25 23.1875C25.25 23.2205 25.2492 23.2535 25.2481 23.2861C25.2492 23.3158 25.25 23.3454 25.25 23.375V25.625C25.25 25.6546 25.2492 25.6842 25.2481 25.7139C25.2492 25.7465 25.25 25.7795 25.25 25.8125C25.25 26.5332 25.25 27.3418 25.25 28.0625C25.25 28.8084 24.9537 29.5239 24.4261 30.0511C23.8989 30.5787 23.1834 30.875 22.4375 30.875C22.4375 30.875 22.4375 30.875 22.4375 30.125V30.875C21.6916 30.875 20.9761 30.5787 20.4489 30.0511C20.2063 29.8089 20.0127 29.5265 19.8744 29.2197C18.8367 28.694 18.125 27.617 18.125 26.375C18.125 25.6745 18.3515 25.0261 18.7355 24.5C18.3515 23.9739 18.125 23.3255 18.125 22.625C18.125 21.383 18.8367 20.306 19.8744 19.7803ZM23.75 20.9375V28.0625C23.75 28.4105 23.6116 28.7443 23.3656 28.9906C23.1193 29.2366 22.7855 29.375 22.4375 29.375V30.125V29.375C22.0895 29.375 21.7557 29.2366 21.5094 28.9906C21.3552 28.8365 21.2435 28.6479 21.1812 28.4428C21.1134 28.2189 20.9446 28.0393 20.7253 27.9575C20.0829 27.7186 19.625 27.0999 19.625 26.375C19.625 25.853 19.8627 25.3865 20.2351 25.0768C20.4065 24.9343 20.5055 24.7228 20.5055 24.5C20.5055 24.2772 20.4065 24.0657 20.2351 23.9232C19.8627 23.6135 19.625 23.147 19.625 22.625C19.625 21.9001 20.0829 21.2814 20.7253 21.0425C20.9446 20.9607 21.1134 20.7811 21.1812 20.5573C21.2435 20.3521 21.3552 20.1635 21.5094 20.0094C21.7557 19.7634 22.0895 19.625 22.4375 19.625V18.875V19.625C22.7855 19.625 23.1193 19.7634 23.3656 20.0094C23.6116 20.2558 23.75 20.5895 23.75 20.9375Z" fill="white"/>
<path fill-rule="evenodd" clip-rule="evenodd" d="M34.2504 16.9997C34.2504 16.403 34.013 15.8311 33.5911 15.4088C33.1693 14.9879 32.5966 14.7497 32.0004 14.7497C28.6096 14.7497 20.3904 14.7497 16.9996 14.7497C16.4034 14.7497 15.8308 14.9879 15.4089 15.4088C14.987 15.8311 14.7496 16.403 14.7496 16.9997C14.7496 20.3907 14.7496 28.6097 14.7496 32.0006C14.7496 32.5974 14.987 33.1692 15.4089 33.5915C15.8308 34.0125 16.4034 34.2506 16.9996 34.2506C20.3904 34.2506 28.6096 34.2506 32.0004 34.2506C32.5966 34.2506 33.1693 34.0125 33.5911 33.5915C34.013 33.1692 34.2504 32.5974 34.2504 32.0006V16.9997ZM32.7496 16.9997V32.0006C32.7496 32.1986 32.6709 32.3897 32.5303 32.5309C32.3896 32.6708 32.1984 32.7497 32.0004 32.7497C28.6096 32.7497 20.3904 32.7497 16.9996 32.7497C16.8016 32.7497 16.6104 32.6708 16.4698 32.5309C16.3291 32.3897 16.2504 32.1986 16.2504 32.0006C16.2504 28.6097 16.2504 20.3907 16.2504 16.9997C16.2504 16.8017 16.3291 16.6107 16.4698 16.4694C16.6104 16.3296 16.8016 16.2507 16.9996 16.2507C20.3904 16.2507 28.6096 16.2507 32.0004 16.2507C32.1984 16.2507 32.3896 16.3296 32.5303 16.4694C32.6709 16.6107 32.7496 16.8017 32.7496 16.9997Z" fill="white"/>
<path fill-rule="evenodd" clip-rule="evenodd" d="M19.25 13.25V15.5C19.25 15.914 19.586 16.25 20 16.25C20.414 16.25 20.75 15.914 20.75 15.5V13.25C20.75 12.836 20.414 12.5 20 12.5C19.586 12.5 19.25 12.836 19.25 13.25Z" fill="white"/>
<path fill-rule="evenodd" clip-rule="evenodd" d="M35.75 19.25H33.5C33.086 19.25 32.75 19.586 32.75 20C32.75 20.414 33.086 20.75 33.5 20.75H35.75C36.164 20.75 36.5 20.414 36.5 20C36.5 19.586 36.164 19.25 35.75 19.25Z" fill="white"/>
<path fill-rule="evenodd" clip-rule="evenodd" d="M19.25 33.5V35.75C19.25 36.164 19.586 36.5 20 36.5C20.414 36.5 20.75 36.164 20.75 35.75V33.5C20.75 33.086 20.414 32.75 20 32.75C19.586 32.75 19.25 33.086 19.25 33.5Z" fill="white"/>
<path fill-rule="evenodd" clip-rule="evenodd" d="M15.5 19.25H13.25C12.836 19.25 12.5 19.586 12.5 20C12.5 20.414 12.836 20.75 13.25 20.75H15.5C15.914 20.75 16.25 20.414 16.25 20C16.25 19.586 15.914 19.25 15.5 19.25Z" fill="white"/>
<path fill-rule="evenodd" clip-rule="evenodd" d="M28.25 13.25V15.5C28.25 15.914 28.586 16.25 29 16.25C29.414 16.25 29.75 15.914 29.75 15.5V13.25C29.75 12.836 29.414 12.5 29 12.5C28.586 12.5 28.25 12.836 28.25 13.25Z" fill="white"/>
<path fill-rule="evenodd" clip-rule="evenodd" d="M35.75 28.25H33.5C33.086 28.25 32.75 28.586 32.75 29C32.75 29.414 33.086 29.75 33.5 29.75H35.75C36.164 29.75 36.5 29.414 36.5 29C36.5 28.586 36.164 28.25 35.75 28.25Z" fill="white"/>
<path fill-rule="evenodd" clip-rule="evenodd" d="M28.25 33.5V35.75C28.25 36.164 28.586 36.5 29 36.5C29.414 36.5 29.75 36.164 29.75 35.75V33.5C29.75 33.086 29.414 32.75 29 32.75C28.586 32.75 28.25 33.086 28.25 33.5Z" fill="white"/>
<path fill-rule="evenodd" clip-rule="evenodd" d="M15.5 28.25H13.25C12.836 28.25 12.5 28.586 12.5 29C12.5 29.414 12.836 29.75 13.25 29.75H15.5C15.914 29.75 16.25 29.414 16.25 29C16.25 28.586 15.914 28.25 15.5 28.25Z" fill="white"/>
</g>
<rect x="2" y="2" width="45" height="45" rx="22.5" stroke="#1E398F" stroke-opacity="0.25" stroke-width="4"/>
<defs>
<clipPath id="clip0">
<rect width="24" height="24" fill="white" transform="translate(12.5 12.5)"/>
</clipPath>
</defs>
</svg>
