<svg width="70" height="70" viewBox="0 0 70 70" fill="none" xmlns="http://www.w3.org/2000/svg">
<path d="M53.8976 33.1246L54.4444 42.7253C54.5255 44.1229 53.695 45.4192 51.9531 46.6142C50.2112 47.8092 47.8313 48.7561 44.8134 49.4549C41.7954 50.1537 38.5243 50.5031 35 50.5031C31.4757 50.5031 28.2046 50.1537 25.1866 49.4549C22.1687 48.7561 19.7888 47.8092 18.0469 46.6142C16.305 45.4192 15.4745 44.1229 15.5556 42.7253L16.1024 33.1246L33.5417 38.6237C33.9873 38.7655 34.4734 38.8364 35 38.8364C35.5266 38.8364 36.0127 38.7655 36.4583 38.6237L53.8976 33.1246ZM70 23.2809C70 23.7467 69.7772 24.0607 69.3316 24.2227L35.3038 34.9171C35.2228 34.9374 35.1215 34.9475 35 34.9475C34.8785 34.9475 34.7772 34.9374 34.6962 34.9171L14.8872 28.6585C14.0162 29.3471 13.2972 30.4763 12.73 32.0461C12.1629 33.6158 11.8186 35.4235 11.697 37.4692C12.9731 38.1984 13.6111 39.3023 13.6111 40.7809C13.6111 42.1784 13.0237 43.2621 11.849 44.0317L13.6111 57.1871C13.6516 57.4707 13.5706 57.7239 13.3681 57.9467C13.1858 58.1695 12.9427 58.2809 12.6389 58.2809H6.80556C6.50174 58.2809 6.25868 58.1695 6.07639 57.9467C5.87384 57.7239 5.79282 57.4707 5.83333 57.1871L7.59549 44.0317C6.42072 43.2621 5.83333 42.1784 5.83333 40.7809C5.83333 39.3023 6.49161 38.1781 7.80816 37.4085C8.03096 33.2158 9.02344 29.8737 10.7856 27.3824L0.668403 24.2227C0.222801 24.0607 0 23.7467 0 23.2809C0 22.815 0.222801 22.5011 0.668403 22.339L34.6962 11.6446C34.7772 11.6243 34.8785 11.6142 35 11.6142C35.1215 11.6142 35.2228 11.6243 35.3038 11.6446L69.3316 22.339C69.7772 22.5011 70 22.815 70 23.2809Z" fill="white"/>
</svg>
