<svg width="24" height="22" viewBox="0 0 24 22" fill="none" xmlns="http://www.w3.org/2000/svg">
<path d="M1.5 4.24997H1.6065C1.7702 4.89316 2.14354 5.46347 2.66754 5.8708C3.19153 6.27813 3.83631 6.49927 4.5 6.49927C5.16369 6.49927 5.80847 6.27813 6.33246 5.8708C6.85646 5.46347 7.2298 4.89316 7.3935 4.24997H22.5C22.6989 4.24997 22.8897 4.17095 23.0303 4.0303C23.171 3.88965 23.25 3.69888 23.25 3.49997C23.25 3.30106 23.171 3.11029 23.0303 2.96964C22.8897 2.82899 22.6989 2.74997 22.5 2.74997H7.3935C7.2298 2.10678 6.85646 1.53647 6.33246 1.12914C5.80847 0.721806 5.16369 0.500671 4.5 0.500671C3.83631 0.500671 3.19153 0.721806 2.66754 1.12914C2.14354 1.53647 1.7702 2.10678 1.6065 2.74997H1.5C1.30109 2.74997 1.11032 2.82899 0.96967 2.96964C0.829018 3.11029 0.75 3.30106 0.75 3.49997C0.75 3.69888 0.829018 3.88965 0.96967 4.0303C1.11032 4.17095 1.30109 4.24997 1.5 4.24997ZM4.5 1.99997C4.79667 1.99997 5.08668 2.08794 5.33335 2.25277C5.58003 2.41759 5.77229 2.65186 5.88582 2.92594C5.99935 3.20003 6.02906 3.50163 5.97118 3.79261C5.9133 4.08358 5.77044 4.35085 5.56066 4.56063C5.35088 4.77041 5.08361 4.91327 4.79264 4.97115C4.50166 5.02903 4.20006 4.99932 3.92597 4.88579C3.65189 4.77226 3.41762 4.58 3.2528 4.33332C3.08797 4.08665 3 3.79664 3 3.49997C3 3.10215 3.15804 2.72061 3.43934 2.43931C3.72064 2.15801 4.10218 1.99997 4.5 1.99997ZM22.5 10.25H22.3935C22.2298 9.60678 21.8565 9.03647 21.3325 8.62914C20.8085 8.22181 20.1637 8.00067 19.5 8.00067C18.8363 8.00067 18.1915 8.22181 17.6675 8.62914C17.1435 9.03647 16.7702 9.60678 16.6065 10.25H1.5C1.30109 10.25 1.11032 10.329 0.96967 10.4696C0.829018 10.6103 0.75 10.8011 0.75 11C0.75 11.1989 0.829018 11.3896 0.96967 11.5303C1.11032 11.671 1.30109 11.75 1.5 11.75H16.6065C16.7702 12.3932 17.1435 12.9635 17.6675 13.3708C18.1915 13.7781 18.8363 13.9993 19.5 13.9993C20.1637 13.9993 20.8085 13.7781 21.3325 13.3708C21.8565 12.9635 22.2298 12.3932 22.3935 11.75H22.5C22.6989 11.75 22.8897 11.671 23.0303 11.5303C23.171 11.3896 23.25 11.1989 23.25 11C23.25 10.8011 23.171 10.6103 23.0303 10.4696C22.8897 10.329 22.6989 10.25 22.5 10.25ZM19.5 12.5C19.2033 12.5 18.9133 12.412 18.6666 12.2472C18.42 12.0824 18.2277 11.8481 18.1142 11.574C18.0006 11.2999 17.9709 10.9983 18.0288 10.7073C18.0867 10.4164 18.2296 10.1491 18.4393 9.93931C18.6491 9.72953 18.9164 9.58667 19.2074 9.52879C19.4983 9.47091 19.7999 9.50062 20.074 9.61415C20.3481 9.72768 20.5824 9.91994 20.7472 10.1666C20.912 10.4133 21 10.7033 21 11C21 11.3978 20.842 11.7793 20.5607 12.0606C20.2794 12.3419 19.8978 12.5 19.5 12.5ZM22.5 17.75H14.8935C14.7298 17.1068 14.3565 16.5365 13.8325 16.1291C13.3085 15.7218 12.6637 15.5007 12 15.5007C11.3363 15.5007 10.6915 15.7218 10.1675 16.1291C9.64354 16.5365 9.2702 17.1068 9.1065 17.75H1.5C1.30109 17.75 1.11032 17.829 0.96967 17.9696C0.829018 18.1103 0.75 18.3011 0.75 18.5C0.75 18.6989 0.829018 18.8896 0.96967 19.0303C1.11032 19.171 1.30109 19.25 1.5 19.25H9.1065C9.2702 19.8932 9.64354 20.4635 10.1675 20.8708C10.6915 21.2781 11.3363 21.4993 12 21.4993C12.6637 21.4993 13.3085 21.2781 13.8325 20.8708C14.3565 20.4635 14.7298 19.8932 14.8935 19.25H22.5C22.6989 19.25 22.8897 19.171 23.0303 19.0303C23.171 18.8896 23.25 18.6989 23.25 18.5C23.25 18.3011 23.171 18.1103 23.0303 17.9696C22.8897 17.829 22.6989 17.75 22.5 17.75ZM12 20C11.7033 20 11.4133 19.912 11.1666 19.7472C10.92 19.5824 10.7277 19.3481 10.6142 19.074C10.5006 18.7999 10.4709 18.4983 10.5288 18.2073C10.5867 17.9164 10.7296 17.6491 10.9393 17.4393C11.1491 17.2295 11.4164 17.0867 11.7074 17.0288C11.9983 16.9709 12.2999 17.0006 12.574 17.1142C12.8481 17.2277 13.0824 17.4199 13.2472 17.6666C13.412 17.9133 13.5 18.2033 13.5 18.5C13.5 18.8978 13.342 19.2793 13.0607 19.5606C12.7794 19.8419 12.3978 20 12 20Z" fill="#1E398F"/>
</svg>
