<svg width="161" height="113" viewBox="0 0 161 113" fill="none" xmlns="http://www.w3.org/2000/svg">
<path d="M145.539 50.8739C145.633 51.5302 145.852 52.4208 146.656 52.8896C147.516 53.3857 148.168 52.7528 148.754 52.1864C149.699 51.2685 150.516 50.2372 151.086 49.0458C151.445 48.288 151.531 47.4677 150.883 46.7997C150.176 46.0771 149.262 46.0575 148.453 46.4911C146.82 47.3622 145.863 48.7802 145.539 50.8739ZM139.719 63.7958C140.563 63.7997 141.285 63.5028 141.906 62.9442C142.672 62.2567 143.32 61.4638 143.855 60.5927C144.652 59.2958 144.637 58.3817 143.863 57.5966C143.09 56.8075 141.43 56.6122 140.41 57.2919C138.785 58.3739 137.938 59.956 137.836 61.8896C137.773 63.1005 138.504 63.7724 139.719 63.7958ZM130.633 75.0067C130.523 76.1982 131.094 77.1747 132.16 77.62C133.195 78.0536 133.828 77.3739 134.41 76.7255C135.441 75.581 136.313 74.3114 136.824 72.8466C137.266 71.5692 136.852 70.7489 135.652 70.1864C134.457 69.6278 133.398 69.8192 132.426 70.6903C131.137 71.8427 130.688 73.3388 130.633 75.0067ZM124.648 89.9052C124.672 90.0888 124.656 90.6982 124.848 91.2333C125.523 93.163 126.898 93.4403 128.305 91.9442C129.363 90.8153 130.164 89.5028 130.68 88.0458C131.195 86.6044 130.906 85.5419 129.934 84.9286C128.754 84.1825 127.375 84.3192 126.332 85.3778C125.211 86.5107 124.594 87.8817 124.648 89.9052ZM122.352 122.89C122.289 121.768 122.004 120.792 120.926 120.323C119.949 119.901 119.047 120.206 118.309 120.905C116.633 122.487 115.707 124.436 115.801 126.757C115.879 128.706 117.672 129.612 119.215 128.436C121.031 127.058 122.012 125.108 122.352 122.89ZM119.445 107.854C119.336 109.003 119.773 110.362 121.117 111.436C121.855 112.026 122.469 112.046 122.996 111.378C124.375 109.624 125.348 107.643 125.516 105.397C125.633 103.815 124.633 102.96 123.059 103.042C120.738 103.163 119.402 104.761 119.445 107.854ZM112.238 144.784C112.238 144.796 112.227 145.015 112.238 145.233C112.363 147.245 113.598 147.913 115.348 146.991C118.109 145.538 118.723 142.952 118.863 140.206C118.922 139.046 118.449 137.87 117.125 137.429C116 137.058 114.813 137.538 113.91 138.761C113.566 139.225 113.281 139.753 113.078 140.292C112.559 141.667 112.309 143.104 112.238 144.784ZM81.6524 158.007C71.586 157.401 60.6367 155.3 50.7578 149.323C46.6016 146.808 43.0899 143.413 39.375 140.311C35.6406 137.194 31.7617 134.308 27.25 132.397C21.9688 130.163 16.4063 129.311 10.7071 129.265C5.93361 129.225 1.16799 129.37 -3.59373 129.808C-5.44529 129.979 -7.43357 130.393 -9.17576 129.233C-9.86717 128.772 -10.0508 129.46 -10.4414 129.679C-11.5078 130.28 -11.9101 130.081 -11.9922 128.89C-12.0742 127.725 -11.4961 126.761 -11 125.788C-6.83982 117.577 -2.12889 109.694 3.27736 102.249C11.8711 90.4208 20.6914 78.745 28.6211 66.456C36.3946 54.4208 43.836 42.1708 50.2656 29.3466C52.0781 25.7372 53.7852 22.0732 55.8008 18.5653C56.793 16.8388 57.961 15.2333 59.1719 13.663C60.293 12.206 60.668 12.1161 62.3321 12.9677C64.3828 14.0146 65.9961 15.6552 67.6641 17.1982C75.2422 24.2021 84.5235 28.0419 94.0781 31.2567C99.0274 32.9208 104.262 32.3896 109.398 32.206C118.582 31.8778 127.75 31.6161 136.688 34.3778C141.363 35.8232 145.676 37.9989 149.664 40.8036C152.672 42.9169 155.652 45.0458 159.125 46.3739C160.352 46.8427 160.594 47.9091 159.539 48.5028C155.781 50.6278 154.242 54.4872 152.113 57.8271C145.824 67.6825 139.93 77.7646 135.746 88.745C132.121 98.2489 129.586 108.034 128.188 118.112C127.117 125.815 125.742 133.468 124.102 141.069C123.563 143.573 122.84 146.05 121.652 148.35C121.488 148.675 121.195 149.042 121.238 149.35C121.352 150.151 121.578 150.897 120.844 151.554C119.949 152.354 118.984 152.983 117.789 153.202C115.48 153.628 113.18 154.12 110.859 154.483C104.484 155.483 98.125 156.608 91.7149 157.386C88.7969 157.733 85.875 157.944 81.6524 158.007Z" fill="#FAFDFF"/>
<path d="M152.109 48.0107C152.039 47.3584 151.746 46.9091 151.074 46.7841C150.402 46.6552 150.129 47.1357 150.02 47.6357C149.789 48.663 149.34 49.5537 148.629 50.3193C147.254 51.7959 146.539 51.7568 145.066 49.9638C144.289 51.1787 144.855 51.9834 145.438 52.7021C146.027 53.4287 146.898 53.6201 147.809 53.5068C149.73 53.2646 152.312 49.9404 152.109 48.0107ZM125.41 103.39C124.348 103.237 124.336 104.144 124.207 104.854C123.973 106.179 123.41 107.378 122.652 108.46C122.23 109.065 121.746 109.905 120.715 109.179C120.328 108.909 119.988 109.159 119.984 109.616C119.965 111.179 121.57 112.229 122.84 111.421C125.078 109.991 126.168 107.811 126.539 105.722C126.57 104.37 126.414 103.534 125.41 103.39ZM145.023 57.4834C144.004 56.999 143.625 57.7099 143.215 58.4716C142.176 60.4091 140.801 61.913 138.426 62.1865C137.562 62.2841 137.398 62.9091 137.918 63.5654C138.414 64.1943 139.117 64.3466 139.816 64.4404C141.719 64.4443 144.801 61.788 145.59 59.5302C145.883 58.6904 145.957 57.9248 145.023 57.4834ZM137.605 71.1279C136.984 70.9013 136.449 71.0107 136.086 71.6162C135.82 72.0576 135.543 72.4912 135.293 72.9365C134.258 74.788 133.051 76.4013 130.586 76.1591C131.027 78.2099 131.789 78.7802 133.395 78.374C135.141 77.9326 138.207 74.3466 138.387 72.538C138.449 71.8857 138.258 71.3701 137.605 71.1279ZM122.348 119.354C121.191 119.163 121.273 120.093 121.16 120.772C120.875 122.464 120.332 124.046 119.234 125.386C118.734 125.991 118.25 126.722 117.25 126.464C116.883 126.366 116.484 126.339 116.348 126.788C116.191 127.296 116.211 127.784 116.672 128.19C117.453 128.886 118.488 128.976 119.496 128.288C121.949 126.612 123.082 124.112 123.715 121.366C123.777 120.335 123.219 119.503 122.348 119.354ZM131.461 83.9873C130.34 84.0029 130.57 84.9365 130.402 85.5888C130.348 85.7998 130.383 86.0459 130.297 86.2373C129.355 88.2959 128.531 90.5068 125.75 90.6396C125.09 90.6709 125.051 91.0654 125.105 91.5068C125.25 92.7177 126.195 93.2568 127.562 92.9521C129.883 92.4365 133.016 88.4443 132.988 86.0341C132.988 85.9638 132.992 85.8896 132.984 85.8154C132.883 84.6982 132.293 83.9794 131.461 83.9873ZM116.895 134.862C116.145 135.011 116.27 135.745 116.254 136.319C116.238 136.831 116.227 137.347 116.254 137.858C116.34 139.487 116.16 141.081 115.605 142.612C115.156 143.854 114.652 145.257 113.289 145.624C111.918 145.991 112.324 146.663 112.703 147.362C113.234 148.347 114.008 148.429 115.098 147.632C117.766 145.683 118.883 142.886 119.328 139.479C118.789 138.495 119.258 137.093 118.652 135.862C118.285 135.104 117.676 134.71 116.895 134.862ZM74.0078 64.1982C74.2539 65.1787 74.1484 65.7763 73.1992 66.0966C70.1484 67.1279 67.2812 68.6865 64.0547 69.2099C62.8086 69.413 61.5703 69.456 60.3242 69.3505C59.6953 69.2998 59.3594 68.9677 59.7578 68.3154C61.9609 64.6904 61.9844 60.6552 61.9883 56.6084C61.9922 55.7255 61.7305 55.2177 60.793 55.1591C57.6289 54.9599 54.4922 54.9052 51.4531 56.0927C50.1211 56.6123 49.4883 57.4013 49.5859 58.9091C49.707 60.7841 49.6172 62.6748 49.6172 64.7021C45.4961 62.2646 41.1523 62.2724 36.7305 62.9209C36.0781 63.0146 35.4219 63.0927 34.7734 63.2138C33.9766 63.3662 33.3867 63.1474 32.8438 62.5068C32.1367 61.6669 31.2266 60.9912 30.5469 60.1357C29.6953 59.0615 28.625 58.6396 27.3242 58.6005C24.6719 58.5224 22.043 58.6552 19.4453 59.2138C18.2695 59.4677 18.1094 59.6669 18.9062 60.6318C20.543 62.6005 21.2344 64.749 20.9844 67.3037C20.8477 68.6435 21.5039 69.8779 22.1719 71.0302C23.0195 72.4912 23.707 72.7685 25.4336 72.1591C26.0312 71.9443 26.4141 71.8896 26.5703 72.5224C26.957 74.0849 28.0898 75.1865 28.9453 76.4482C29.8516 77.7919 30.7031 79.1669 31.3516 80.6474C31.9062 81.9248 31.7188 82.6669 30.8477 83.0927C29.418 83.7919 28.3945 83.706 27.7695 82.6005C26.8359 80.9638 25.4922 79.5068 25.4414 77.4443C25.4258 76.6513 24.7227 76.1904 24.1992 75.6943C23.4531 74.9834 22.6719 74.3154 21.8945 73.6357C20.8047 72.6826 20.2031 71.4443 19.7812 70.0888C19.4609 69.038 19.1172 67.9912 18.7578 66.956C18.543 66.3232 18.2734 65.6005 17.7031 65.3154C15.0625 63.9912 14.1953 61.2763 12.6602 59.0927C12.3711 58.6826 11.9219 58.3584 11.8633 57.6591C13.375 57.1123 14.5039 55.3271 16.5938 56.4052C16.6289 55.7607 16.6953 55.2529 16.6758 54.7451C16.5156 50.5537 17.0039 46.3857 17.1445 42.206C17.1953 40.663 17.5508 39.1396 18.5703 37.8974C19.8164 36.3701 20.8633 36.3857 21.6719 38.1123C23.7695 42.5849 27.3633 45.1943 31.8008 47.0615C36.7539 49.1474 43.5859 46.1865 45.0312 41.2919C45.4922 39.7334 45.7266 38.1474 46.0312 36.5693C46.1484 35.9482 46.2578 35.6318 46.9883 35.4052C49.7109 34.5537 50.6367 33.1162 50.6523 30.1279C50.668 27.5498 50.6719 27.5302 53.2383 27.3037C54.8125 27.163 56.1836 27.4951 57.5312 28.5107C60.8438 30.9951 63.0547 34.1357 64.0781 38.1357C64.2578 38.8466 64.5547 39.5302 64.6836 40.249C64.9297 41.6084 65.6289 42.3466 67.0039 42.7959C68.5898 43.3154 70.0391 44.2412 71.5625 44.9638C72.3984 45.3623 72.6875 46.0029 72.7148 46.9013C72.8047 49.7607 73.1055 52.6123 73.0117 55.4834C72.9102 58.4326 73.2891 61.3466 74.0078 64.1982Z" fill="#F1686F"/>
<path d="M62.8124 54.667C63.5311 51.6982 63.4999 48.6904 63.5936 45.6943C63.0936 46.585 62.0858 52.5615 62.1327 53.5771C62.1522 54.0146 62.1405 54.4756 62.8124 54.667ZM67.8124 16.1201C64.7655 17.4756 62.7069 20.249 62.7499 22.9756C63.5077 20.1826 66.6561 19.1006 67.8124 16.1201ZM72.785 60.749C72.914 61.2998 72.8397 62.1553 73.8124 62.1709C74.1991 59.6631 73.1132 47.2334 72.41 46.0498C71.4218 48.1045 71.5897 55.8037 72.785 60.749ZM84.5038 1.75293C83.8085 1.97168 83.2108 2.51855 82.6991 3.08105C80.4804 5.53418 78.1093 7.75684 75.3358 9.63184C73.4139 10.9365 71.8983 12.8584 72.3944 15.6318C73.4452 12.7373 75.6913 11.0264 78.1405 9.49512C79.0155 8.94824 79.7968 8.26074 80.4374 7.45605C81.7577 5.78809 83.0585 4.10449 84.5936 2.62012C84.785 2.43652 84.9764 2.14746 84.5038 1.75293ZM68.8983 23.3193C67.8085 23.2256 66.703 23.292 65.7655 23.0459C63.9647 22.9521 63.16 23.6123 63.0038 25.1904C62.7421 27.7529 62.7655 27.7998 65.2304 28.5342C66.1366 28.8037 67.0741 28.9873 67.9765 29.2686C68.8436 29.5381 69.3788 29.3037 69.66 28.4209C69.9921 27.374 70.3788 26.3428 70.4999 25.2412C70.66 23.7568 70.4491 23.4561 68.8983 23.3193ZM80.1639 15.335C79.5936 14.6631 79.0155 14.5225 78.3007 15.1709C77.5389 15.8584 76.6952 16.4521 75.9452 17.1514C73.871 19.085 73.7616 20.2568 75.3827 22.6162C75.6288 22.9717 75.9257 23.2959 76.4413 23.9287C73.703 24.5771 73.6757 26.4014 73.9647 28.417C74.2694 30.5967 74.6288 32.7686 75.2421 34.8818C76.6991 39.8857 78.1874 44.8857 80.7811 49.4561C81.1874 50.167 81.41 51.1396 83.0468 51.2686C81.8866 48.3389 80.4179 45.8154 79.5858 43.0537C78.7186 40.1709 77.6444 37.3506 76.8319 34.4561C76.0468 31.6514 75.4764 28.7881 74.7772 25.8037C77.0546 25.2803 79.1483 24.6436 81.1444 23.7373C82.0155 23.3428 82.8788 22.9209 83.5546 22.2256C83.8007 21.9756 84.0897 21.71 83.8475 21.2764C82.7147 19.2373 81.6874 17.1357 80.1639 15.335ZM23.9569 74.417C22.0077 73.0029 21.0194 71.0068 19.9374 69.0146C19.3397 67.9209 18.7733 66.8076 18.121 65.7451C16.9335 63.8193 14.3163 64.3193 13.6679 65.6201C12.8593 67.249 11.6991 68.6592 11.1171 70.4326C10.3358 72.8115 9.93739 75.2295 9.65614 77.6904C9.37489 80.1318 10.8007 81.6787 13.4218 81.5225C15.1835 80.6553 17.4452 81.8232 19.3905 80.5303C19.9921 80.1279 20.9608 80.46 21.7382 80.7412C23.2538 81.2881 24.1913 80.9248 24.91 79.5459C25.8671 77.7256 25.6444 75.6357 23.9569 74.417ZM19.91 34.8232C21.371 38.0498 23.0975 41.1436 25.4882 43.7568C28.0468 46.5615 31.1835 48.3662 36.7343 48.0889C38.9413 47.8818 42.4608 47.1201 44.2655 43.1904C45.0311 41.5146 45.7186 39.8467 45.828 37.96C45.8749 37.1006 45.7538 36.0537 47.0858 35.7295C49.7108 35.0889 50.5507 32.9443 50.8983 30.6084C51.2304 28.3857 49.8358 26.9756 47.6015 26.9834C46.4491 26.9834 45.3983 27.2217 44.6483 28.1514C43.8475 29.1396 43.1327 28.9482 42.3085 28.1709C41.1796 27.1006 39.785 26.7959 38.2499 26.7959C35.1288 26.7998 32.1171 27.3311 29.2577 28.5811C27.5155 29.3428 25.8163 30.2178 24.1171 31.0732C23.164 31.5459 22.2382 31.8076 21.16 31.4834C19.3905 30.9482 19.0155 31.3154 19.3905 33.1475C19.5038 33.7178 19.6718 34.2959 19.91 34.8232ZM62.8983 56.0459C62.9374 56.6318 63.035 57.2256 62.9882 57.8037C62.5936 62.5107 61.828 67.1279 59.3163 71.249C59.0585 71.6787 58.8358 73.1006 57.8358 71.7686C57.5038 72.0537 57.1561 72.3271 56.8358 72.6279C55.6444 73.7529 54.3124 74.6592 52.6952 75.0264C51.789 75.2334 50.8397 75.4678 50.0116 74.6592C49.6405 74.2959 49.0741 74.2998 48.5585 74.2256C44.5936 73.6592 40.621 73.1123 36.664 72.4678C34.9296 72.1826 33.2186 71.749 31.5233 71.2686C30.5507 70.9951 30.078 71.3232 29.578 72.1279C27.8554 74.8936 27.8202 74.874 26.1171 72.1631C24.4374 73.335 23.3319 73.1123 22.5468 71.2998C21.8241 69.6279 21.0741 67.9248 21.371 66.0107C21.5116 65.085 21.2382 64.3115 20.6405 63.5811C19.9491 62.7295 19.3436 61.8037 18.703 60.9131C18.1093 60.0771 18.4257 59.4326 19.289 59.2373C22.1444 58.5928 25.0194 58.042 27.9843 58.3311C29.1288 58.4443 29.6249 59.21 30.0233 60.0889C30.6913 61.5498 31.16 63.0771 31.4061 64.96C37.3046 61.7412 43.2225 61.7959 49.4647 63.8389C49.7538 61.6631 49.5897 59.7529 49.6171 57.8506C49.6249 57.0225 49.8085 56.6982 50.7538 56.4287C53.1522 55.7412 55.5507 55.085 57.9647 54.4678C59.4296 54.0928 60.6991 54.4795 62.0155 54.9209C62.5663 55.1045 62.8632 55.4717 62.8983 56.0459Z" fill="#C76B40"/>
<path d="M12.4101 57.5732C13.7187 57.5536 15.207 56.5107 15.2304 55.5888C15.2578 54.6513 14.1289 53.4325 13.164 53.3583C11.8554 53.2568 10.8593 54.1122 10.8125 55.3779C10.7695 56.5693 11.5117 57.5849 12.4101 57.5732ZM110.82 108.64C110.719 108.335 110.391 108.374 110.082 108.448C106.676 109.265 104.238 107.893 102.465 105.042C101.84 104.038 101.117 103.112 100.234 102.319C99.5429 101.702 98.7343 101.261 97.8242 101.515C95.6758 102.104 93.6914 103.046 92.1445 104.71C91.7539 105.128 91.2929 105.663 91.7968 106.265C92.2851 106.854 92.9375 107.233 93.7422 106.874C94.2734 106.636 94.7656 106.296 95.2968 106.054C96.9297 105.311 97.3086 105.386 98.5937 106.636C99.1718 107.202 99.7109 107.815 100.316 108.347C102.184 110.003 104.312 111.061 106.27 111.147C108.648 111.155 110.164 110.518 110.703 109.472C110.828 109.233 110.902 108.882 110.82 108.64ZM64.8711 41.0536C65.3984 42.374 66.3906 42.9208 67.5195 43.4911C68.3984 43.9325 68.9882 43.7021 69.2226 42.8388C69.7187 40.999 70.3281 39.0732 69.75 37.2177C69.1289 35.2333 69.3828 33.2802 69.6445 31.3779C69.8086 30.1435 69.539 29.831 68.5156 29.581C67.2382 29.2646 65.9882 28.8193 64.7148 28.4794C63.9414 28.2724 63.2148 27.8583 62.3828 27.8857C61.8867 27.9169 61.3359 27.788 61.0859 28.4365C60.6679 29.5263 60.207 30.538 60.7929 31.7841C62.2265 34.8388 63.6132 37.9208 64.8711 41.0536ZM39.5664 90.2021C41.0664 90.8115 42.6015 91.3271 44.2187 91.4482C44.9062 91.499 45.5664 91.5849 46.0468 92.0615C48.9453 94.9365 52.7656 94.3818 56.3047 94.8075C57.1484 94.9091 58.0625 94.6708 58.9023 94.4325C59.6562 94.2177 60.6445 93.9052 60.5351 92.9286C60.4297 91.9638 59.3867 92.1825 58.7226 92.1279C55.2851 91.8193 52.4062 90.4677 50.0507 87.9091C48.5937 86.331 46.6406 85.9052 44.5898 86.2294C42.7422 86.5185 40.9609 86.4638 39.1718 85.9169C37.7422 85.4794 36.457 85.7802 35.3398 86.788C36.3593 88.4872 37.8476 89.499 39.5664 90.2021ZM89.9726 101.069C87.3789 101.71 85.7929 101.116 84.3008 98.9599C83.9687 98.4755 83.6718 97.9716 83.3437 97.4833C81.5078 94.7646 79.8476 94.124 76.582 94.745C74.1836 95.2021 71.7851 96.1786 69.4531 94.2529C68.6289 93.5771 67.6601 94.5185 66.9257 95.0771C66.1289 95.6825 66.6484 96.3896 66.957 97.0497C67.5703 98.374 68.5351 99.2607 69.9101 99.8271C71.5586 100.503 73.3047 100.604 74.8711 100.143C77.6718 99.3232 79.7968 99.9443 81.7148 102.069C82.9961 103.491 84.7383 104.089 86.664 104.089C88.2968 104.101 89.6758 103.538 90.7343 102.268C91.0312 101.909 91.2187 101.499 90.9375 101.069C90.6484 100.636 90.3047 100.991 89.9726 101.069ZM64.5312 23.6122C65.0859 23.2568 65.6562 22.9247 66.2031 22.5575C66.5117 22.3544 66.9297 21.9755 67.1718 22.206C68.3437 23.3466 70.0937 22.4833 71.2578 23.4521C71.9453 24.0263 72.3164 23.6591 72.6601 23.1357C73.0195 22.5888 73.289 21.9833 73.5859 21.4013C74.7109 19.1825 75.8867 16.9716 78.3633 15.913C78.8867 15.6865 79.3515 15.2685 79.9648 15.7802C81.4179 16.995 82.8476 16.2685 83.9531 15.3427C86.1523 13.5029 88.082 11.3583 89.2695 8.69036C90.0468 6.94817 90.6718 5.13958 90.7851 3.28802C90.8047 1.58489 90.2578 0.530204 89.0937 0.17083C87.7851 -0.231514 86.6953 0.0614547 85.8008 1.2138C84.4883 2.91692 82.5156 3.87786 80.9648 5.32317C80.539 5.72161 79.7734 6.05755 79.7109 6.49895C79.4453 8.39739 77.7109 9.10833 76.7734 10.4443C76.5234 10.7919 76.1484 11.0693 75.7929 11.3271C75.3125 11.6786 74.875 12.5693 74.1836 11.874C73.6406 11.3271 74.3164 10.8271 74.6484 10.374C74.8242 10.1396 75.0429 9.94036 75.2304 9.7138C75.4765 9.42864 75.7343 9.08489 75.5273 8.72942C75.2734 8.28411 74.7656 8.32708 74.3515 8.44427C72.8945 8.85833 71.8164 9.82317 70.7382 10.8505C67.8945 13.5771 66.4179 17.2646 63.9882 20.2724C63.6211 20.7294 63.332 21.2529 62.9453 21.6865C62.4922 22.1865 62.2695 22.6825 62.7812 23.2294C63.2578 23.7333 63.8164 24.0654 64.5312 23.6122ZM22.7422 97.2568C22.9648 97.4443 23.2343 97.5732 23.4843 97.7255C27.2929 100.003 31.3203 101.077 35.6914 99.7216C37.0195 99.3075 37.8828 99.6161 38.7656 100.604C40.039 102.022 41.5195 103.257 42.6679 104.792C44.6797 107.479 47.2773 108.565 50.5664 107.647C53.3437 106.87 55.6054 107.854 57.6484 109.62C58.3164 110.194 58.9179 110.843 59.5273 111.483C61.3437 113.39 63.582 114.593 66.0312 115.479C67.6953 116.081 69.3203 116.085 70.9492 115.397C71.8945 114.999 72.8281 114.558 73.7968 114.222C76.0937 113.433 77.6836 114.218 78.3086 116.581C78.7343 118.194 79.8125 119.069 81.2109 119.64C83.3672 120.53 85.5781 120.862 87.8633 120.081C88.7656 119.772 89.6875 119.538 90.5898 119.229C92.1836 118.686 93.4453 119.065 94.4687 120.421C94.9961 121.12 95.5937 121.784 96.2461 122.37C97.832 123.792 99.7226 124.511 101.809 124.612C104.047 124.503 105.816 123.624 107.051 121.768C107.238 121.483 107.559 121.155 107.242 120.792C106.898 120.401 106.617 120.749 106.312 120.936C103.637 122.616 100.941 122.245 98.8437 119.921C98.5976 119.647 98.4101 119.327 98.1718 119.05C97.4922 118.28 96.8359 117.483 96.1093 116.765C94.8008 115.476 93.2422 115.03 91.4648 115.604C89.7226 116.163 88.0039 116.804 86.2617 117.351C84.7695 117.819 83.3476 117.374 81.9804 116.808C80.9062 116.362 81.0664 115.229 80.7617 114.362C79.7461 111.464 76.5429 109.87 73.6679 110.862C72.8359 111.147 72.0273 111.503 71.2304 111.874C69.4179 112.71 67.664 112.55 65.957 111.612C64.5312 110.827 63.3007 109.835 62.2343 108.569C58.9804 104.702 55.2422 102.069 49.7812 103.78C48.2539 104.261 46.9687 103.671 46.0195 102.229C44.8086 100.393 43.3359 98.7529 41.7461 97.2138C40.1992 95.7177 38.5039 95.0497 36.3437 95.706C33.5547 96.5497 30.8281 96.0615 28.1523 95.0927C27.4609 94.8466 26.75 94.6552 26.0742 94.374C24.8359 93.8544 23.7695 94.2333 22.7734 94.9482C21.7695 95.663 21.7695 96.4443 22.7422 97.2568ZM106.5 133.558C105.113 134.811 103.109 134.761 101.809 133.401C101.402 132.979 101.098 132.464 100.719 132.015C99.4609 130.522 97.9062 129.987 95.9961 130.554C94.7929 130.905 93.6679 131.436 92.5234 131.936C91.1797 132.518 89.8242 133.073 88.3086 133.081C86.8437 133.093 85.7461 132.581 85.0937 131.226C84.7734 130.565 84.4726 129.89 84.0976 129.261C83.1562 127.667 81.6914 127.218 79.8203 127.491C77.9843 127.757 76.2929 128.413 74.5468 128.936C71.5742 129.831 69.4804 129.132 67.5625 126.667C66.8359 125.737 66.0351 124.89 65.2382 124.026C64.1914 122.897 62.9375 122.515 61.4609 122.667C61.0234 122.714 60.5898 122.8 60.1523 122.827C56.3515 123.054 56.0273 122.819 54.9492 119.136C54.8476 118.784 54.7461 118.425 54.5781 118.101C53.5039 116.003 51.875 114.464 49.4609 114.503C46.7617 114.538 44.0547 114.737 41.3554 114.874C40.1914 114.933 39.7539 114.749 39.5234 113.726C39.4414 113.37 39.2851 113.03 39.1875 112.679C37.9765 108.444 36.2148 107.163 31.875 107.386C31.4375 107.409 31.0039 107.526 30.5664 107.554C27.664 107.737 25.0898 107.124 23.0234 104.839C19.8281 101.296 15.957 100.358 11.4726 102.132C10.2578 102.616 8.8984 102.737 7.91012 103.733C6.57809 105.069 6.81637 106.175 8.57809 106.847C9.90622 107.354 11.2187 107.038 12.4726 106.706C16.0351 105.749 19.0859 106.702 21.8945 108.901C24.7539 111.143 27.9609 112.093 31.5898 111.425C32.2343 111.304 32.914 111.405 33.5703 111.339C34.6406 111.229 35.4257 111.706 36.0312 112.507C36.4257 113.03 36.7304 113.624 37.0742 114.186C38.3476 116.253 40.0351 117.784 42.4179 118.472C43.9843 118.921 45.582 119.069 47.1953 119.097C50.2695 119.151 50.4179 119.245 51.5156 122.108C52.8398 125.569 55.9804 127.538 59.6797 126.839C61.8593 126.429 63.3632 127.018 64.6015 128.71C64.7734 128.948 64.9492 129.186 65.1445 129.401C67.8047 132.339 71.539 133.073 75.1367 131.351C76.0625 130.905 76.9726 130.421 77.8437 129.878C78.7109 129.339 79.4453 129.44 80.2773 129.991C81.2461 130.632 81.8554 131.542 82.3633 132.511C84.3554 136.296 88.3984 137.05 91.3906 136.257C92.7383 135.897 94.0781 135.511 95.3945 135.058C96.7539 134.593 97.9492 134.636 99.0625 135.679C100.051 136.604 101.305 137.073 102.617 137.319C104.074 137.593 105.437 137.261 106.473 136.183C107.5 135.108 108.633 134.011 108.277 132.128C107.449 132.456 107.027 133.077 106.5 133.558ZM88.0195 23.3193C90.3437 29.1982 92.0273 35.2685 93.3359 41.4482C94.1679 45.3661 95.2578 49.2255 96 53.1552C96.4375 55.4521 95.5586 57.499 93.707 59.0185C92.9648 59.624 92.1211 60.1122 91.2109 60.3974C86.1836 61.9755 81.25 63.8583 76.0195 64.7685C74.8672 64.9677 74.4062 64.6005 74.0273 63.6708C73.4648 62.3036 73.1093 60.9013 72.957 59.4208C72.6406 56.3661 72.1406 53.3271 71.8789 50.2685C71.7656 48.9755 72.0273 47.6435 72.1875 46.3349C72.2968 45.4716 72.9336 45.3896 73.6758 45.4794C75.1445 45.663 76.5273 46.1357 77.914 46.62C78.5937 46.8544 79.1992 47.3232 80.3437 47.3154C79.6914 45.6122 79.1015 44.1279 78.5586 42.6279C77.5859 39.9325 76.8398 37.1865 76.5195 34.3193C76.2461 31.9052 75.3125 29.6396 74.7461 27.288C74.3828 25.7607 74.3398 25.7216 75.8437 25.1005C77.5195 24.4091 79.1211 23.6122 80.9453 23.1825C82.4258 22.8349 84.0898 22.1552 85.1562 20.7294C85.625 20.0966 86.2187 20.3818 86.664 20.8232C87.3633 21.5107 87.6718 22.4325 88.0195 23.3193Z" fill="#26416D"/>
<path d="M13.0625 59.6435C13.9961 59.4873 15.0391 59.499 15.3945 57.7959C14.25 58.3779 13.4375 58.7256 13.0625 59.6435ZM48.5117 31.8428C48.8906 31.8349 49.2734 31.7724 49.2656 31.2803C49.2539 30.7412 48.8984 30.499 48.3945 30.5615C47.6133 30.6592 46.8281 30.7724 45.9609 31.8428C47.0664 31.8428 47.7891 31.8506 48.5117 31.8428ZM15.7148 60.374C17.1719 60.5967 15.7344 63.4756 18.3516 62.9834C17.1484 62.1514 17.7461 60.1826 15.7148 60.374ZM15.5977 55.6514C14.1055 56.1474 12.6562 56.4599 11.793 58.0381C14.3203 57.6279 15.0508 57.1748 15.5977 55.6514ZM88.6641 8.86229C88.1953 8.00682 87.4727 7.39354 86.6875 6.85448C86.0977 6.44823 85.3398 5.79979 84.7773 6.5537C84.1055 7.44432 85.2305 7.76854 85.7188 8.15526C86.457 8.73339 86.9453 9.62792 87.9062 9.92089C88.375 10.0654 88.7695 9.9912 88.9453 9.42089C88.8594 9.2451 88.7656 9.04979 88.6641 8.86229ZM33.6719 36.7959C34.1602 37.0732 34.5859 37.1631 35.0586 36.7451C36.0664 35.8506 36.2188 34.2412 35.3555 32.8935C34.8398 33.4951 34.8477 34.2412 34.668 34.9365C34.4883 35.6357 34.1094 35.9365 33.4375 35.3349C32.9844 34.9326 32.75 34.2334 31.9766 34.1826C32.6211 35.9443 32.9062 36.3545 33.6719 36.7959ZM28.7422 83.5459C30.043 84.3467 31.0234 85.1826 32.4609 85.3896C32.6875 84.0146 32.2656 82.8779 31.8945 81.6553C30.5977 81.917 29.8203 82.7568 28.7422 83.5459ZM23.2812 36.9248C23.5273 38.0459 24.168 38.7021 24.9766 39.1709C25.707 39.5928 26.3906 39.4131 26.9023 38.7178C27.793 37.5146 27.7109 36.1045 26.668 34.6123C26.2617 34.7139 26.375 35.0537 26.3633 35.3115C26.2383 38.4912 26.1094 38.5693 23.2812 36.9248ZM83.7891 9.05761C83.6797 8.98729 83.5156 8.99511 83.375 8.96386C83 9.10057 82.7578 9.35448 82.7734 9.76854C82.8047 10.5185 85 12.956 85.7617 13.0381C86.0195 13.0654 86.3477 12.9521 86.5625 12.7959C86.8125 12.6084 86.7852 12.2764 86.6289 12.0068C85.9297 10.792 84.9609 9.82323 83.7891 9.05761ZM39.5117 39.3506C38.9414 38.7881 38.4648 38.1631 37.6953 37.7724C37.5977 40.7998 36.3711 42.1709 33.2695 43.4209C36.7188 44.3584 37.7578 41.3545 39.5117 39.3506ZM79.875 15.3271C78.1289 15.499 76.582 16.1826 75.4961 17.7099C75.2344 18.0771 75.1094 18.5342 75.4492 18.9131C75.7773 19.2764 76.0977 18.9678 76.3828 18.7724C77.5938 17.9326 78.957 17.4326 80.3281 16.9521C80.8516 16.7685 81.3125 16.4756 81.1992 15.8896C81.0703 15.2334 80.4219 15.4092 79.875 15.3271ZM29.0078 35.8857C28.6289 35.9365 28.668 36.2881 28.6445 36.5732C29.0781 37.9756 29.1484 39.4717 29.8047 40.8115C30.1289 41.4756 30.6289 41.9131 31.375 41.6435C32.1328 41.3662 32.2969 40.6006 32.0273 39.9795C31.4219 38.5654 30.5859 37.2607 29.5742 36.0889C29.457 35.9521 29.1914 35.8623 29.0078 35.8857ZM63.8867 42.5693C62.6953 45.8857 62.7695 49.3623 62.543 52.792C62.4883 53.6045 62.625 54.3232 63.2617 54.9639C63.7578 53.8232 64.6641 45.6514 64.582 43.2881C64.5703 42.9795 64.4219 42.7373 63.8867 42.5693ZM22.1875 64.417C21.2109 64.3193 20.6094 64.8076 20.6875 65.8232C20.8164 67.5615 20.9727 69.3193 21.7461 70.9365C22.1016 71.6904 22.6641 72.2685 23.3516 72.6982C24.4844 73.4014 25 73.167 25.7422 71.7139C23.1758 71.8701 22.2461 69.1709 22.2734 65.6631C24.0156 66.331 24.832 67.9912 26.1719 69.2959C26.6289 67.5264 25.2969 66.7842 24.5938 65.7842C24.0273 64.9795 23.1758 64.5146 22.1875 64.417ZM69.0195 32.8857C69.0742 33.542 69.0156 34.2099 69.0547 34.8701C69.0938 35.5264 69.1562 36.1904 69.2734 36.8389C69.3438 37.2099 69.6172 37.4795 70.0508 37.4521C70.4688 37.4248 70.4609 37.0537 70.4609 36.7959C70.4688 34.8076 70.4766 32.8232 70.4258 30.8428C70.4062 30.1787 70.207 29.5224 69.4922 29.2139C66.9805 28.1279 64.3672 27.6631 61.6445 27.9717C63.1406 29.1435 64.9219 29.3037 66.5781 29.8349C68.6797 30.5068 68.832 30.6631 69.0195 32.8857ZM63.0312 24.2021C65.3398 23.7451 67.668 23.581 70.0352 23.8545C71.3477 24.0107 71.6641 23.6045 72.1133 21.7881C71.4336 22.1435 70.9844 22.6748 70.1445 22.417C68.2812 21.8467 66.375 22.042 64.5117 22.6279C64.0703 22.7646 63.6289 23.2256 63.125 22.7451C63.4609 20.1553 66.4258 19.0967 66.9766 16.1904C65.4609 17.6865 64.1836 18.8818 62.9844 20.1553C62.1406 21.0537 61.8047 22.1865 62.0312 23.4248C62.125 23.9287 62.25 24.3584 63.0312 24.2021ZM72.582 17.4443C72.8594 13.9365 74.6523 11.6748 77.5586 10.2685C79.0898 9.52636 80.1523 8.32714 80.9414 6.90526C82.0781 4.85839 83.7305 3.34276 85.5352 1.9287C86.0234 1.54979 86.8203 1.47948 86.9609 0.686512C85.6328 0.463856 85.6055 0.424794 84.793 1.01073C83.0625 2.26073 81.3711 3.56542 80.2695 5.45214C79.207 7.26854 77.8125 8.68651 75.9375 9.70995C73.918 10.8115 72.6523 12.6162 72.0195 14.8232C71.7773 15.6709 71.5117 16.5967 72.582 17.4443ZM25.0547 78.3818C25.332 77.6162 24.6445 77.8154 24.2773 77.7803C22.1406 77.5615 20.6094 76.4756 19.5352 74.6357C18.9062 73.5576 18.2031 72.5224 17.5 71.4912C17.2734 71.1631 17.0937 70.6826 16.3047 70.8662C17.7969 74.4678 18.9375 78.2217 24.0195 79.1045C20.3398 79.9795 18.1992 79.2451 16.6523 76.8115C15.7344 75.3662 14.9375 73.8428 14.0859 72.3545C14.2695 75.3271 15.5781 77.7529 17.6602 79.8428C16.7695 80.1435 16.1875 79.7646 15.5586 79.5849C13.4492 78.9873 12.5469 77.0303 11.0352 75.0576C11.4062 77.792 12.4297 79.624 13.9453 80.5576C15.2578 81.3623 16.8164 81.7685 18.1367 81.0498C19.1406 80.5029 19.8945 80.6474 20.7852 80.8935C22.2109 81.2959 23.5156 81.0537 24.7852 80.3076C25.7344 79.7529 24.8242 79.0185 25.0547 78.3818ZM84.3047 20.7295C83.957 20.7881 83.5898 20.9131 83.2891 21.0967C81.7734 22.0264 80.082 22.5107 78.4258 23.1006C73.4102 24.8857 73.4453 24.6748 74.2031 30.2178C75.043 36.3779 77.5195 42.042 80.0508 47.6553C80.4023 48.4326 80.6523 49.4482 81.6641 49.8467C81.7305 49.6201 81.8398 49.4639 81.8047 49.3584C81.6211 48.7998 81.4453 48.2412 81.1953 47.7139C78.1133 41.1592 76.4141 34.2099 75.3672 27.0771C75.1367 25.5068 75.2148 25.3428 76.8281 25.0185C78.6992 24.6435 80.5195 24.1162 82.3086 23.456C83.2969 23.0928 84.0938 22.4639 84.832 21.749C85.0469 21.5381 85.0898 21.1943 84.8828 20.956C84.7578 20.8115 84.4844 20.6982 84.3047 20.7295ZM72.9102 49.4248C72.793 48.5146 72.9062 47.4287 72.2148 46.5537C71.6172 47.0029 71.7031 47.542 71.6953 48.0224C71.6211 53.1709 71.6797 58.3076 73.0898 63.3232C73.5586 64.9912 73.4805 65.1865 72.0039 65.8662C68.5234 67.4678 64.7461 68.0029 60.7227 69.1045C62.1641 64.4053 62.7852 60.0107 62.0977 55.5185C61.6133 55.9912 61.7109 56.5146 61.6836 57.0264C61.4727 61.374 60.918 65.6592 59.1445 69.6826C57.5859 73.2139 54.9297 74.5889 51.1289 73.9053C50.3398 73.7646 49.5586 73.542 48.7891 73.3037C46.6133 72.624 44.4141 72.0576 42.1602 71.7295C41.1602 71.581 40.1719 71.499 39.207 71.7451C39.1367 72.581 39.6367 72.8193 40.1445 72.8584C43.6211 73.1084 46.8633 74.3545 50.2109 75.1631C54.8867 76.2959 57.8281 74.9521 60.0312 70.706C60.4727 69.8545 60.9297 69.6201 61.8672 69.6006C65.2695 69.5342 68.5547 68.6826 71.7344 67.5537C74.1055 66.7139 74.6641 65.667 74.4219 63.1943C73.9727 58.6006 73.5039 54.0029 72.9102 49.4248ZM30.6445 67.1748C30.7539 65.4599 30.7734 65.5224 32.4453 65.0107C37.6133 63.4326 42.832 63.2412 48.1133 64.331C48.6836 64.4482 49.2617 64.6162 49.8555 64.456C50.25 64.3467 50.6172 64.0381 50.4805 63.6904C49.7344 61.7764 50.3672 59.7529 49.957 57.8467C49.75 56.8896 50.0938 56.7295 50.8164 56.5342C53.5312 55.792 56.3125 55.667 59.0977 55.499C59.9219 55.4482 61.1953 55.7256 61.0586 54.4287C60.9531 53.3818 59.75 53.8037 59.0078 53.7646C55.7656 53.6045 52.5625 53.792 49.4258 55.2217C49.1641 53.1474 48.9375 51.331 48.6953 49.5146C48.6484 49.1396 48.4727 48.7139 48.0898 48.6865C47.4805 48.6396 47.4688 49.1982 47.4414 49.6201C47.2578 52.5107 47.5742 55.3623 48.5195 58.0849C48.9219 59.2295 48.8828 60.3857 49.1328 61.5185C49.3672 62.5928 48.9961 62.8467 47.9258 62.6396C46.7734 62.417 45.6406 62.081 44.4844 61.9053C40.1445 61.2607 35.9883 61.9326 32.0508 63.8349C31.0898 64.2959 30.7305 64.1435 30.7031 63.0967C30.668 61.9209 30.4883 60.7646 30.3477 59.6006C30.1172 57.7217 29.7344 55.8623 30.1289 53.9131C30.3164 52.9795 30.6367 51.7451 29.4805 50.8037C28.7383 52.3506 28.9062 53.8896 28.8906 55.4014C28.8711 57.9482 28.8789 57.9795 26.3672 57.6162C23.9219 57.2607 21.5391 57.5615 19.1797 58.1943C18.6484 58.3349 17.875 58.4482 18.0195 59.2373C18.1484 59.9326 18.8594 59.6631 19.3203 59.6592C21.9648 59.624 24.6055 59.5068 27.25 59.4951C29.1367 59.4834 29.2344 59.6084 29.3242 61.4834C29.4883 64.8115 29.8438 68.1514 28.6055 71.8076C30.2852 69.8974 30.5039 69.3506 30.6445 67.1748ZM12.5625 27.9599C12.5391 27.2021 12.5898 26.4014 13.2031 25.9326C14.1875 25.1709 13.9727 24.3584 13.6445 23.3935C13.2852 22.331 13.2656 21.2139 13.7148 20.1553C14.125 19.1865 14.6953 18.3389 15.8594 18.1474C16.6133 18.0264 17.1523 17.624 16.9414 16.8154C16.5234 15.1904 16.5078 13.7998 18.207 12.8232C19.5625 12.0381 20.8906 11.6904 22.2656 12.4599C22.9102 11.9912 22.8047 11.3271 23.0508 10.8115C24.1836 8.45214 26.0625 7.81932 28.1836 9.29979C29.0859 9.92479 29.4844 9.60448 29.9258 8.90526C30.5625 7.89354 31.3008 7.01464 32.4805 6.58886C34.5273 5.85448 35.8867 6.70995 36.0938 8.89745C36.1133 9.11229 36.1602 9.32714 36.1914 9.53417C36.8203 9.88182 37.1211 9.28026 37.5547 9.09276C38.0898 8.86229 38.5977 8.54589 39.1445 8.35057C41.6445 7.45214 42.9453 8.41698 43.2383 11.4678C45.0703 11.2725 46.7031 11.6748 47.832 13.2998C48.2695 13.9287 48.6953 14.6357 48.3516 15.3428C47.7305 16.624 48.543 16.7764 49.4336 17.1084C51.5781 17.9092 52.3555 19.5459 51.5703 21.6279C51.2969 22.3506 51.2305 22.7998 51.6953 23.5576C52.7812 25.3076 51.8047 26.7529 50.5312 27.9678C52.0469 30.5576 51.8945 33.5615 50.207 35.2803C49.1016 36.4092 47.6641 36.5537 46.0742 35.6943C46.207 35.3623 46.5156 35.4092 46.7773 35.3779C49.0547 35.124 50.0117 33.6435 50.4102 31.5732C50.5781 30.7021 50.4805 29.9482 49.7891 29.3779C49.0703 28.7842 48.2578 28.9639 47.5078 29.3154C46.2461 29.9053 45.5938 31.0928 44.8164 32.1592C44.5234 32.5654 44.5586 33.1553 44.1172 33.456C43.6328 33.4717 43.8906 32.8896 43.6758 32.8701C41.957 32.7178 41.1953 31.6318 40.6836 30.1201C40.3516 29.1474 39.4883 29.4443 38.8164 29.7529C37.2852 30.4521 35.9727 30.2685 34.875 28.9404C34.7539 28.7881 34.582 28.6748 34.4414 28.5498C31.8281 30.6709 31.8711 30.9092 28.8359 29.2412C28.5 29.874 28.207 30.542 27.8086 31.1396C27.3125 31.8857 26.6367 32.6553 25.6875 32.4795C24.3281 32.2295 23.6992 32.874 23.0547 33.8935C21.8594 35.7842 20.8359 35.8506 19.2344 34.2646C18.9219 33.956 18.6328 33.6162 18.3828 33.2607C17.9961 32.7099 17.6602 32.4209 16.8281 32.4131C14.4414 32.3974 12.6406 30.374 12.5625 27.9599Z" fill="#26416D"/>
</svg>
