<svg width="25" height="25" viewBox="0 0 25 25" fill="none" xmlns="http://www.w3.org/2000/svg">
<path d="M3.50003 13.5H4.50003V20.5C4.50003 21.603 5.39703 22.5 6.50003 22.5H18.5C19.603 22.5 20.5 21.603 20.5 20.5V13.5H21.5C21.6978 13.4999 21.8911 13.4412 22.0555 13.3314C22.2199 13.2215 22.348 13.0653 22.4237 12.8826C22.4994 12.6999 22.5192 12.4989 22.4806 12.3049C22.442 12.111 22.3468 11.9328 22.207 11.793L13.207 2.79296C13.1142 2.70001 13.004 2.62627 12.8827 2.57596C12.7614 2.52565 12.6314 2.49976 12.5 2.49976C12.3687 2.49976 12.2387 2.52565 12.1173 2.57596C11.996 2.62627 11.8858 2.70001 11.793 2.79296L2.79303 11.793C2.65322 11.9328 2.55802 12.111 2.51945 12.3049C2.48088 12.4989 2.50068 12.6999 2.57635 12.8826C2.65202 13.0653 2.78016 13.2215 2.94457 13.3314C3.10898 13.4412 3.30228 13.4999 3.50003 13.5ZM10.5 20.5V15.5H14.5V20.5H10.5ZM12.5 4.91396L18.5 10.914V15.5L18.501 20.5H16.5V15.5C16.5 14.397 15.603 13.5 14.5 13.5H10.5C9.39703 13.5 8.50003 14.397 8.50003 15.5V20.5H6.50003V10.914L12.5 4.91396Z" fill="#1E398F"/>
</svg>
