<svg width="34" height="34" viewBox="0 0 34 34" fill="none" xmlns="http://www.w3.org/2000/svg">
<path d="M3.66667 30.3333L30.3333 30.3333L30.3333 3.66658L3.66667 3.66658L3.66667 30.3333Z" fill="#EE7100" fill-opacity="0.24"/>
<path d="M11.0237 18.6666L25.3333 18.6666C26.2538 18.6666 27 17.9204 27 16.9999C27 16.0794 26.2538 15.3333 25.3333 15.3333L11.0237 15.3333L14.8452 11.5118C15.4961 10.8609 15.4961 9.80561 14.8452 9.15474C14.1943 8.50387 13.139 8.50387 12.4882 9.15474L5.82149 15.8214C5.17062 16.4723 5.17062 17.5276 5.82149 18.1784L12.4882 24.8451C13.139 25.496 14.1943 25.496 14.8452 24.8451C15.4961 24.1942 15.4961 23.1389 14.8452 22.4881L11.0237 18.6666ZM30.3333 33.6666C32.1743 33.6666 33.6667 32.1742 33.6667 30.3333L33.6667 3.66659C33.6667 1.82564 32.1743 0.333252 30.3333 0.333252L3.66667 0.333252C1.82572 0.333252 0.33334 1.82564 0.33334 3.66659L0.33334 30.3333C0.33334 32.1742 1.82572 33.6666 3.66667 33.6666L30.3333 33.6666ZM30.3333 30.3333L3.66667 30.3333L3.66667 3.66659L30.3333 3.66659L30.3333 30.3333Z" fill="#EE7100"/>
</svg>
