<svg width="102" height="13" viewBox="0 0 102 13" fill="none" xmlns="http://www.w3.org/2000/svg">
<path d="M0.528 6.368C0.528 5.25867 0.768 4.272 1.248 3.408C1.728 2.53333 2.39467 1.856 3.248 1.376C4.112 0.885333 5.088 0.639999 6.176 0.639999C7.50933 0.639999 8.65067 0.991999 9.6 1.696C10.5493 2.4 11.184 3.36 11.504 4.576H8.496C8.272 4.10667 7.952 3.74933 7.536 3.504C7.13067 3.25867 6.66667 3.136 6.144 3.136C5.30133 3.136 4.61867 3.42933 4.096 4.016C3.57333 4.60267 3.312 5.38667 3.312 6.368C3.312 7.34933 3.57333 8.13333 4.096 8.72C4.61867 9.30667 5.30133 9.6 6.144 9.6C6.66667 9.6 7.13067 9.47733 7.536 9.232C7.952 8.98667 8.272 8.62933 8.496 8.16H11.504C11.184 9.376 10.5493 10.336 9.6 11.04C8.65067 11.7333 7.50933 12.08 6.176 12.08C5.088 12.08 4.112 11.84 3.248 11.36C2.39467 10.8693 1.728 10.192 1.248 9.328C0.768 8.464 0.528 7.47733 0.528 6.368ZM15.9155 2.96V5.232H19.5795V7.344H15.9155V9.808H20.0595V12H13.1795V0.768H20.0595V2.96H15.9155ZM24.5718 9.888H28.1558V12H21.8358V0.768H24.5718V9.888ZM37.5408 0.768V2.96H34.5648V12H31.8288V2.96H28.8528V0.768H37.5408Z" fill="#EE7100"/>
<path d="M49.2965 10.016H45.1045L44.4325 12H41.5685L45.6325 0.768H48.8005L52.8645 12H49.9685L49.2965 10.016ZM48.5925 7.904L47.2005 3.792L45.8245 7.904H48.5925ZM56.8374 4.336C57.0934 3.92 57.4614 3.584 57.9414 3.328C58.4214 3.072 58.9707 2.944 59.5894 2.944C60.3254 2.944 60.992 3.13067 61.5894 3.504C62.1867 3.87733 62.656 4.41067 62.9974 5.104C63.3494 5.79733 63.5254 6.60267 63.5254 7.52C63.5254 8.43733 63.3494 9.248 62.9974 9.952C62.656 10.6453 62.1867 11.184 61.5894 11.568C60.992 11.9413 60.3254 12.128 59.5894 12.128C58.96 12.128 58.4107 12.0053 57.9414 11.76C57.472 11.504 57.104 11.168 56.8374 10.752V12H54.1014V0.16H56.8374V4.336ZM60.7414 7.52C60.7414 6.83733 60.5494 6.304 60.1654 5.92C59.792 5.52533 59.328 5.328 58.7734 5.328C58.2294 5.328 57.7654 5.52533 57.3814 5.92C57.008 6.31467 56.8214 6.85333 56.8214 7.536C56.8214 8.21867 57.008 8.75733 57.3814 9.152C57.7654 9.54667 58.2294 9.744 58.7734 9.744C59.3174 9.744 59.7814 9.54667 60.1654 9.152C60.5494 8.74667 60.7414 8.20267 60.7414 7.52ZM67.6968 4.56C68.0168 4.06933 68.4168 3.68533 68.8968 3.408C69.3768 3.12 69.9101 2.976 70.4968 2.976V5.872H69.7448C69.0621 5.872 68.5501 6.02133 68.2088 6.32C67.8674 6.608 67.6968 7.12 67.6968 7.856V12H64.9608V3.072H67.6968V4.56ZM75.8685 12.128C74.9938 12.128 74.2045 11.9413 73.5005 11.568C72.8072 11.1947 72.2578 10.6613 71.8525 9.968C71.4578 9.27467 71.2605 8.464 71.2605 7.536C71.2605 6.61867 71.4632 5.81333 71.8685 5.12C72.2738 4.416 72.8285 3.87733 73.5325 3.504C74.2365 3.13067 75.0258 2.944 75.9005 2.944C76.7752 2.944 77.5645 3.13067 78.2685 3.504C78.9725 3.87733 79.5272 4.416 79.9325 5.12C80.3378 5.81333 80.5405 6.61867 80.5405 7.536C80.5405 8.45333 80.3325 9.264 79.9165 9.968C79.5112 10.6613 78.9512 11.1947 78.2365 11.568C77.5325 11.9413 76.7432 12.128 75.8685 12.128ZM75.8685 9.76C76.3912 9.76 76.8338 9.568 77.1965 9.184C77.5698 8.8 77.7565 8.25067 77.7565 7.536C77.7565 6.82133 77.5752 6.272 77.2125 5.888C76.8605 5.504 76.4232 5.312 75.9005 5.312C75.3672 5.312 74.9245 5.504 74.5725 5.888C74.2205 6.26133 74.0445 6.81067 74.0445 7.536C74.0445 8.25067 74.2152 8.8 74.5565 9.184C74.9085 9.568 75.3458 9.76 75.8685 9.76ZM81.448 7.52C81.448 6.60267 81.6187 5.79733 81.96 5.104C82.312 4.41067 82.7867 3.87733 83.384 3.504C83.9813 3.13067 84.648 2.944 85.384 2.944C86.0133 2.944 86.5627 3.072 87.032 3.328C87.512 3.584 87.88 3.92 88.136 4.336V3.072H90.872V12H88.136V10.736C87.8693 11.152 87.496 11.488 87.016 11.744C86.5467 12 85.9973 12.128 85.368 12.128C84.6427 12.128 83.9813 11.9413 83.384 11.568C82.7867 11.184 82.312 10.6453 81.96 9.952C81.6187 9.248 81.448 8.43733 81.448 7.52ZM88.136 7.536C88.136 6.85333 87.944 6.31467 87.56 5.92C87.1867 5.52533 86.728 5.328 86.184 5.328C85.64 5.328 85.176 5.52533 84.792 5.92C84.4187 6.304 84.232 6.83733 84.232 7.52C84.232 8.20267 84.4187 8.74667 84.792 9.152C85.176 9.54667 85.64 9.744 86.184 9.744C86.728 9.744 87.1867 9.54667 87.56 9.152C87.944 8.75733 88.136 8.21867 88.136 7.536ZM92.3074 7.52C92.3074 6.60267 92.478 5.79733 92.8194 5.104C93.1714 4.41067 93.646 3.87733 94.2434 3.504C94.8407 3.13067 95.5074 2.944 96.2434 2.944C96.83 2.944 97.3634 3.06667 97.8434 3.312C98.334 3.55733 98.718 3.888 98.9954 4.304V0.16H101.731V12H98.9954V10.72C98.7394 11.1467 98.3714 11.488 97.8914 11.744C97.422 12 96.8727 12.128 96.2434 12.128C95.5074 12.128 94.8407 11.9413 94.2434 11.568C93.646 11.184 93.1714 10.6453 92.8194 9.952C92.478 9.248 92.3074 8.43733 92.3074 7.52ZM98.9954 7.536C98.9954 6.85333 98.8034 6.31467 98.4194 5.92C98.046 5.52533 97.5874 5.328 97.0434 5.328C96.4994 5.328 96.0354 5.52533 95.6514 5.92C95.278 6.304 95.0914 6.83733 95.0914 7.52C95.0914 8.20267 95.278 8.74667 95.6514 9.152C96.0354 9.54667 96.4994 9.744 97.0434 9.744C97.5874 9.744 98.046 9.54667 98.4194 9.152C98.8034 8.75733 98.9954 8.21867 98.9954 7.536Z" fill="#1E398F"/>
</svg>
