<svg width="15" height="17" viewBox="0 0 15 17" fill="none" xmlns="http://www.w3.org/2000/svg">
<path d="M7.5 7.29509C9.66597 7.29509 11.4284 5.71846 11.4284 3.78049C11.4284 1.84251 9.66597 0.265625 7.5 0.265625C5.33403 0.265625 3.57163 1.84251 3.57163 3.78049C3.57163 5.71846 5.33403 7.29509 7.5 7.29509ZM7.5 1.85938C8.68402 1.85938 9.64713 2.7211 9.64713 3.78049C9.64713 4.83961 8.68402 5.70134 7.5 5.70134C6.31598 5.70134 5.35288 4.83961 5.35288 3.78049C5.35288 2.7211 6.31598 1.85938 7.5 1.85938ZM7.5 7.70312C3.73485 7.70312 0.671875 10.4437 0.671875 13.8125V14.875C0.671875 15.9001 1.60425 16.7344 2.75 16.7344H12.25C13.3958 16.7344 14.3281 15.9001 14.3281 14.875V13.8125C14.3281 10.4437 11.2652 7.70312 7.5 7.70312ZM12.5469 14.875C12.5469 15.0216 12.4138 15.1406 12.25 15.1406H2.75C2.5862 15.1406 2.45312 15.0216 2.45312 14.875V13.8125C2.45312 11.3225 4.71709 9.29688 7.5 9.29688C10.2829 9.29688 12.5469 11.3225 12.5469 13.8125V14.875Z" fill="#1E398F"/>
</svg>
