<svg width="25" height="25" viewBox="0 0 25 25" fill="none" xmlns="http://www.w3.org/2000/svg">
<path d="M21.2825 3.71745C21.1813 3.6167 21.0534 3.54695 20.9139 3.51639C20.7744 3.48584 20.6291 3.49574 20.495 3.54495L3.995 9.54495C3.8527 9.59892 3.73019 9.69491 3.64374 9.82016C3.55729 9.94542 3.51099 10.094 3.51099 10.2462C3.51099 10.3984 3.55729 10.547 3.64374 10.6722C3.73019 10.7975 3.8527 10.8935 3.995 10.9474L11.195 13.8274L14.075 21.0275C14.1291 21.1635 14.2219 21.2807 14.3418 21.3647C14.4618 21.4487 14.6037 21.4957 14.75 21.4999C14.9016 21.4968 15.0486 21.4479 15.1718 21.3595C15.295 21.2711 15.3885 21.1475 15.44 21.0049L21.44 4.50495C21.4911 4.37226 21.5034 4.22777 21.4755 4.08834C21.4477 3.94891 21.3807 3.82028 21.2825 3.71745ZM14.75 18.65L12.6575 13.4L16.25 9.80745L15.1925 8.74995L11.57 12.3724L6.35 10.2499L19.4975 5.50245L14.75 18.65Z" fill="#1E398F"/>
</svg>
