<svg width="22" height="22" viewBox="0 0 22 22" fill="none" xmlns="http://www.w3.org/2000/svg">
<path d="M14 22H12V20H14V22ZM18 20H16V22H18V20ZM14 16H12V18H14V16ZM6 20H4V22H6V20ZM6 16H4V18H6V16ZM18 16H16V18H18V16ZM14 12H12V14H14V12ZM18 12H16V14H18V12ZM20 8C20.5304 8 21.0391 8.21071 21.4142 8.58579C21.7893 8.96086 22 9.46957 22 10V22H20V10H10V22H8V14H2V22H0V14C0 13.4696 0.210714 12.9609 0.585786 12.5858C0.960859 12.2107 1.46957 12 2 12H8V10C8 9.46957 8.21071 8.96086 8.58579 8.58579C8.96086 8.21071 9.46957 8 10 8V6C10 5.46957 10.2107 4.96086 10.5858 4.58579C10.9609 4.21071 11.4696 4 12 4H14V0H16V4H18C18.5304 4 19.0391 4.21071 19.4142 4.58579C19.7893 4.96086 20 5.46957 20 6V8ZM18 8V6H12V8H18Z" fill="white"/>
</svg>
