<svg width="192" height="192" viewBox="0 0 192 192" fill="none" xmlns="http://www.w3.org/2000/svg">
<path d="M176 64.0005L96 16.0005L16 64.0005V176H176V64.0005Z" fill="#FFE3DC"/>
<path d="M88 128C105.673 128 120 113.674 120 96.0005C120 78.3274 105.673 64.0005 88 64.0005C70.3269 64.0005 56 78.3274 56 96.0005C56 113.674 70.3269 128 88 128Z" fill="#FFAC9C"/>
<path d="M176 183.999H16C13.8783 183.999 11.8434 183.156 10.3431 181.656C8.84285 180.156 8 178.121 8 175.999V63.9992C8.00024 62.6108 8.36179 61.2464 9.04909 60.0402C9.73639 58.8339 10.7258 57.8272 11.92 57.1192L91.92 9.11916C93.1362 8.41701 94.5157 8.04736 95.92 8.04736C97.3243 8.04736 98.7038 8.41701 99.92 9.11916L179.92 57.1192C181.144 57.8071 182.165 58.805 182.882 60.0126C183.598 61.2203 183.983 62.5952 184 63.9992V175.999C184 178.121 183.157 180.156 181.657 181.656C180.157 183.156 178.122 183.999 176 183.999ZM24 167.999H168V68.5592L96 25.3592L24 68.5592V167.999Z" fill="#1E398F"/>
<path d="M136 152.002C134.947 152.008 133.904 151.806 132.929 151.408C131.954 151.01 131.068 150.424 130.32 149.682L104.96 124.322C104.214 123.576 103.623 122.691 103.219 121.716C102.815 120.742 102.607 119.697 102.607 118.642C102.607 117.587 102.815 116.543 103.219 115.568C103.623 114.594 104.214 113.708 104.96 112.962C105.706 112.216 106.592 111.625 107.566 111.221C108.541 110.817 109.585 110.609 110.64 110.609C111.695 110.609 112.74 110.817 113.714 111.221C114.689 111.625 115.574 112.216 116.32 112.962L141.68 138.322C142.43 139.066 143.025 139.951 143.431 140.925C143.837 141.9 144.047 142.946 144.047 144.002C144.047 145.058 143.837 146.104 143.431 147.079C143.025 148.054 142.43 148.938 141.68 149.682C140.933 150.424 140.046 151.01 139.071 151.408C138.097 151.806 137.053 152.008 136 152.002Z" fill="#1E398F"/>
<path d="M88 136C80.0888 136 72.3552 133.654 65.7772 129.258C59.1992 124.863 54.0723 118.616 51.0448 111.307C48.0173 103.998 47.2252 95.9552 48.7686 88.1959C50.312 80.4367 54.1216 73.3094 59.7157 67.7153C65.3098 62.1212 72.4372 58.3115 80.1964 56.7681C87.9556 55.2247 95.9983 56.0168 103.307 59.0443C110.616 62.0719 116.864 67.1988 121.259 73.7767C125.654 80.3547 128 88.0883 128 95.9995C128 106.608 123.786 116.782 116.284 124.284C108.783 131.785 98.6087 136 88 136ZM88 71.9995C83.2533 71.9995 78.6131 73.4071 74.6663 76.0443C70.7196 78.6814 67.6434 82.4297 65.8269 86.8151C64.0104 91.2006 63.5351 96.0262 64.4612 100.682C65.3872 105.337 67.673 109.614 71.0295 112.97C74.3859 116.327 78.6623 118.612 83.3179 119.538C87.9734 120.464 92.799 119.989 97.1844 118.173C101.57 116.356 105.318 113.28 107.955 109.333C110.592 105.386 112 100.746 112 95.9995C112 89.6343 109.471 83.5298 104.971 79.029C100.47 74.5281 94.3652 71.9995 88 71.9995Z" fill="#1E398F"/>
</svg>
