<svg width="25" height="25" viewBox="0 0 25 25" fill="none" xmlns="http://www.w3.org/2000/svg">
<path d="M5 2.75V22.25H20V2.75H5ZM6.5 4.25H18.5V20.75H6.5V4.25ZM12.5 6.5C10.025 6.5 8 8.525 8 11C8 13.475 10.025 15.5 12.5 15.5C14.975 15.5 17 13.475 17 11C17 8.525 14.975 6.5 12.5 6.5ZM13.016 8.0705C13.379 8.132 13.7188 8.243 14.0233 8.42225L14.0705 8.96075L13.7188 8.8205L13.4375 9.0545L13.4847 9.734L14.2108 9.524L15.1017 9.8045L14.867 10.2028L14.3285 9.875L13.742 9.96875L13.1795 10.391L12.8517 11.375L13.484 11.891C13.484 11.891 14.1523 11.7733 14.1875 11.7733C14.2227 11.7733 14.4688 12.383 14.4688 12.383L14.0938 13.5312C13.617 13.834 13.0647 13.9965 12.5 14C12.3245 14 12.1513 13.9587 11.984 13.9295L11.8438 13.6955L12.1955 12.383L10.8597 11.375H9.617L9.52325 11.1875C9.52025 11.123 9.5 11.0645 9.5 11C9.5 10.8387 9.52325 10.6835 9.54725 10.5312L10.1795 10.0392L11.5153 9.40625L11.3052 8.53925L11.8903 8.42225L12.1483 8.79725L13.1562 8.60975L13.016 8.0705ZM10.2972 13.0392H10.5312L10.9767 13.5778C10.7217 13.4285 10.4967 13.253 10.2972 13.0392ZM8 17V18.5H17V17H8Z" fill="#1E398F"/>
</svg>
