<svg width="90" height="90" viewBox="0 0 90 90" fill="none" xmlns="http://www.w3.org/2000/svg">
<path d="M90 0H0V90H90V0Z" fill="#4A6D8B"/>
<path opacity="0.69" d="M68.1679 27.0641H54.1397V22.3841H58.0493C59.3416 22.3841 60.3893 21.3364 60.3893 20.0441C60.3893 18.7518 59.3416 17.7041 58.0493 17.7041H35.0597C33.7674 17.7041 32.7197 18.7518 32.7197 20.0441C32.7197 21.3364 33.7674 22.3841 35.0597 22.3841H40.044C41.3363 22.3841 42.384 23.4318 42.384 24.7241C42.384 26.0164 41.3363 27.0641 40.044 27.0641H24.0197C22.7274 27.0641 21.6797 28.1118 21.6797 29.4041C21.6797 30.6964 22.7274 31.7441 24.0197 31.7441H30.3893C31.6817 31.7441 32.7293 32.7918 32.7293 34.0841C32.7293 35.3764 31.6817 36.4241 30.3893 36.4241H27.6961C26.4038 36.4241 25.3561 37.4718 25.3561 38.7641C25.3561 40.0564 26.4038 41.1041 27.6961 41.1041H36.5743V45.7841H29.7323C28.44 45.7841 27.3923 46.8318 27.3923 48.1241C27.3923 49.4164 28.44 50.4641 29.7323 50.4641H42.204C43.4963 50.4641 44.544 51.5118 44.544 52.8041C44.544 54.0964 43.4963 55.1441 42.204 55.1441H35.2318C33.9395 55.1441 32.8918 56.1918 32.8918 57.4841C32.8918 58.7764 33.9395 59.8241 35.2318 59.8241H61.929C63.2213 59.8241 64.269 58.7764 64.269 57.4841C64.269 56.1918 63.2213 55.1441 61.929 55.1441H55.2196V50.4641H57.3479C58.6403 50.4641 59.688 49.4164 59.688 48.1241C59.688 46.8318 58.6403 45.7841 57.3479 45.7841H55.2196V41.1041H64.0979C65.3902 41.1041 66.4379 40.0564 66.4379 38.7641C66.4379 37.4718 65.3902 36.4241 64.0979 36.4241H64.4265V31.7441H68.1678C69.4602 31.7441 70.5078 30.6964 70.5078 29.4041C70.5079 28.1118 69.4602 27.0641 68.1679 27.0641Z" fill="#395D77"/>
<path opacity="0.5" d="M23.9234 45.5641H21.4787C20.1864 45.5641 19.1387 44.5164 19.1387 43.224C19.1387 41.9317 20.1864 40.884 21.4787 40.884H23.9234C25.2157 40.884 26.2634 41.9317 26.2634 43.224C26.2634 44.5164 25.2157 45.5641 23.9234 45.5641Z" fill="#825D7E"/>
<path d="M46.4253 36.4241H41.6837C40.3914 36.4241 39.3438 35.3764 39.3438 34.0841C39.3438 32.7918 40.3914 31.7441 41.6837 31.7441H46.4253C47.7176 31.7441 48.7653 32.7918 48.7653 34.0841C48.7653 35.3765 47.7176 36.4241 46.4253 36.4241ZM67.3138 36.4241H57.2582C55.9659 36.4241 54.9182 35.3764 54.9182 34.0841C54.9182 32.7918 55.9659 31.7441 57.2582 31.7441H67.3138C68.6061 31.7441 69.6538 32.7918 69.6538 34.0841C69.6538 35.3765 68.6061 36.4241 67.3138 36.4241ZM58.7883 45.7841H48.7327C47.4404 45.7841 46.3927 44.7364 46.3927 43.4441C46.3927 42.1518 47.4404 41.1041 48.7327 41.1041H58.7882C60.0806 41.1041 61.1282 42.1518 61.1282 43.4441C61.1283 44.7365 60.0806 45.7841 58.7883 45.7841Z" fill="#4A6D8B"/>
<path d="M34.5811 40.6541H24.5255C23.2332 40.6541 22.1855 39.6064 22.1855 38.3141C22.1855 37.0218 23.2332 35.9741 24.5255 35.9741H34.5811C35.8734 35.9741 36.9211 37.0218 36.9211 38.3141C36.9211 39.6065 35.8734 40.6541 34.5811 40.6541Z" fill="#684463"/>
<path d="M64.2198 27.064H54.1642C52.8719 27.064 51.8242 26.0163 51.8242 24.724C51.8242 23.4317 52.8719 22.384 54.1642 22.384H64.2198C65.5121 22.384 66.5598 23.4317 66.5598 24.724C66.5598 26.0164 65.5121 27.064 64.2198 27.064ZM64.7487 55.144H54.6932C53.4008 55.144 52.3532 54.0963 52.3532 52.804C52.3532 51.5117 53.4008 50.464 54.6932 50.464H64.7487C66.041 50.464 67.0887 51.5117 67.0887 52.804C67.0887 54.0964 66.041 55.144 64.7487 55.144Z" fill="#4A6D8B"/>
<path opacity="0.69" d="M63.4668 50.4642H66.7236C68.0159 50.4642 69.0636 49.4165 69.0636 48.1242C69.0636 46.8319 68.0159 45.7842 66.7236 45.7842H63.4668C62.1745 45.7842 61.1268 46.8319 61.1268 48.1242C61.1268 49.4166 62.1744 50.4642 63.4668 50.4642ZM71.4076 41.1042H70.2912C68.9989 41.1042 67.9512 40.0565 67.9512 38.7642C67.9512 37.4719 68.9989 36.4242 70.2912 36.4242H71.4076C72.6999 36.4242 73.7476 37.4719 73.7476 38.7642C73.7476 40.0566 72.7 41.1042 71.4076 41.1042ZM24.5242 59.8242H28.8995C30.1918 59.8242 31.2395 58.7765 31.2395 57.4842C31.2395 56.1919 30.1918 55.1442 28.8995 55.1442H24.5242C23.2319 55.1442 22.1842 56.1919 22.1842 57.4842C22.1842 58.7766 23.2318 59.8242 24.5242 59.8242ZM17.5744 31.7442C18.8667 31.7442 19.9144 30.6965 19.9144 29.4042C19.9144 28.1119 18.8667 27.0642 17.5744 27.0642C16.2821 27.0642 15.2344 28.1119 15.2344 29.4042C15.2344 30.6966 16.2821 31.7442 17.5744 31.7442Z" fill="#395D77"/>
<path opacity="0.56" d="M79.9356 64.2124H10.066C9.4201 64.2124 8.89648 63.6888 8.89648 63.0428C8.89648 62.3969 9.4201 61.8733 10.066 61.8733H79.9356C80.5815 61.8733 81.1051 62.3969 81.1051 63.0428C81.1051 63.6888 80.5815 64.2124 79.9356 64.2124Z" fill="#2D4659"/>
<path d="M41.0129 53.9531H39.2129V62.9531H41.0129V53.9531Z" fill="#8BBF98"/>
<path d="M42.0937 53.9531H41.0137V62.9531H42.0937V53.9531Z" fill="#63916E"/>
<path d="M51.093 53.9531H49.293V62.9531H51.093V53.9531Z" fill="#8BBF98"/>
<path d="M52.1737 53.9531H51.0938V62.9531H52.1737V53.9531Z" fill="#63916E"/>
<path d="M58.6535 53.9531H56.8535V62.9531H58.6535V53.9531Z" fill="#8BBF98"/>
<path d="M59.7323 53.9531H58.6523V62.9531H59.7323V53.9531Z" fill="#63916E"/>
<path d="M65.5253 55.7532H64.4453V62.9532H65.5253V55.7532Z" fill="#8BBF98"/>
<path d="M66.2454 55.7532H65.5254V62.9532H66.2454V55.7532Z" fill="#63916E"/>
<path d="M72.3632 55.7532H71.2832V62.9532H72.3632V55.7532Z" fill="#8BBF98"/>
<path d="M73.0813 55.7532H72.3613V62.9532H73.0813V55.7532Z" fill="#63916E"/>
<path d="M73.0813 55.7532H72.3613V56.1132H73.0813V55.7532Z" fill="#55845F"/>
<path d="M72.3632 55.7532H71.2832V56.1132H72.3632V55.7532Z" fill="#63916E"/>
<path d="M69.6054 45.6733H68.5254V62.9533H69.6054V45.6733Z" fill="#8BBF98"/>
<path d="M70.3255 45.6733H69.6055V62.9533H70.3255V45.6733Z" fill="#63916E"/>
<path d="M76.4413 45.6733H75.3613V62.9533H76.4413V45.6733Z" fill="#8BBF98"/>
<path d="M77.1614 45.6733H76.4414V62.9533H77.1614V45.6733Z" fill="#63916E"/>
<path d="M38.8034 49.2732H36.6797V33.7932H38.8034C39.1017 33.7932 39.3434 34.035 39.3434 34.3332V48.7332C39.3434 49.0314 39.1016 49.2732 38.8034 49.2732Z" fill="#EF6562"/>
<path d="M38.1269 49.2732H16.167C15.8687 49.2732 15.627 49.0315 15.627 48.7332V34.3332C15.627 34.035 15.8687 33.7932 16.167 33.7932H38.1269C38.4252 33.7932 38.6669 34.035 38.6669 34.3332V48.7332C38.6669 49.0314 38.4251 49.2732 38.1269 49.2732Z" fill="#EC958B"/>
<path d="M37.5801 48.185V34.865H16.7001V48.185H37.5801Z" fill="#34515B"/>
<path d="M16.9688 48.185V34.865H16.6987V48.185H16.9688Z" fill="#D84E4E"/>
<path d="M37.5797 34.865H37.2422V48.185H37.5797V34.865Z" fill="#284249"/>
<path d="M29.0148 49.2732H27.375V62.9532H29.0148V49.2732Z" fill="#D84E4E"/>
<path d="M28.3293 49.2732H26.6895V62.9532H28.3293V49.2732Z" fill="#EF6562"/>
<path d="M28.3293 49.2732H26.6895V49.94H28.3293V49.2732Z" fill="#D84E4E"/>
<path d="M33.8896 62.9532H22.8496V61.8732C22.8496 61.2768 23.3332 60.7932 23.9296 60.7932H32.8096C33.4061 60.7932 33.8896 61.2768 33.8896 61.8732V62.9532Z" fill="#EF6562"/>
<path d="M32.8916 62.9532H21.8516V61.8732C21.8516 61.2768 22.3351 60.7932 22.9316 60.7932H31.8116C32.408 60.7932 32.8916 61.2768 32.8916 61.8732V62.9532Z" fill="#EC958B"/>
<path d="M51.0929 52.2349H39.2129V53.953H51.0929V52.2349Z" fill="#8BBF98"/>
<path d="M59.7337 52.2349H51.0938V53.953H59.7337V52.2349Z" fill="#63916E"/>
<path d="M50.1933 51.0349H38.5801V52.2349H50.1933V51.0349Z" fill="#9FD6A3"/>
<path d="M51.0929 52.2349H39.2129V52.5949H51.0929V52.2349Z" fill="#63916E"/>
<path d="M60.5936 51.0349H50.1934V52.2349H60.5936V51.0349Z" fill="#83B78D"/>
<path d="M72.5775 54.3132H63.9375V55.7532H72.5775V54.3132Z" fill="#81B58C"/>
<path d="M77.6162 54.3132H72.5762V55.7532H77.6162V54.3132Z" fill="#63916E"/>
<path d="M75.3625 46.5613H69.6055V49.8013H75.3625V46.5613Z" fill="#81B58C"/>
<path d="M77.1614 55.7532H76.4414V56.1132H77.1614V55.7532Z" fill="#55845F"/>
<path d="M76.4413 55.7532H75.3613V56.1132H76.4413V55.7532Z" fill="#63916E"/>
<path d="M69.6054 55.7532H68.5254V56.1132H69.6054V55.7532Z" fill="#63916E"/>
<path d="M65.5253 55.7532H64.4453V56.1132H65.5253V55.7532Z" fill="#63916E"/>
<path d="M66.2454 55.7532H65.5254V56.1132H66.2454V55.7532Z" fill="#55845F"/>
<path d="M70.3279 55.7532H69.6055V56.1132H70.3279V55.7532Z" fill="#55845F"/>
<path d="M59.7337 52.2349H51.0938V52.5949H59.7337V52.2349Z" fill="#577F5D"/>
<path d="M54.4247 40.8046L53.584 40.9177L54.6025 48.4845L55.4432 48.3713L54.4247 40.8046Z" fill="#DD5858"/>
<path d="M54.5044 40.9989L53.5586 41.1262L53.8262 43.1142L54.772 42.9869L54.5044 40.9989Z" fill="#EF6562"/>
<path d="M53.5829 41.3014L53.4004 41.3259L53.4175 41.4529L53.6 41.4284L53.5829 41.3014Z" fill="#E8E8E8"/>
<path d="M53.6594 42.8626L53.6067 42.8697L53.416 41.4531L53.5463 41.4355L53.7266 42.7746C53.7323 42.8174 53.7022 42.8568 53.6594 42.8626Z" fill="#E8E8E8"/>
<path d="M54.7197 42.994L53.8789 43.1072L53.8919 43.2035L54.7326 43.0903L54.7197 42.994Z" fill="#D35050"/>
<path d="M52.5323 43.1626L51.8022 43.391L51.4675 42.3209C51.4229 42.1786 51.5022 42.0272 51.6446 41.9826L51.8593 41.9155C52.0016 41.8709 52.1531 41.9502 52.1976 42.0926L52.5323 43.1626Z" fill="#E8E8E8"/>
<path d="M52.7097 43.1055L51.6289 43.4436L52.2133 45.3119L53.2941 44.9738L52.7097 43.1055Z" fill="#35393D"/>
<path d="M52.1085 45.0657L52.9868 43.9546L52.8002 43.3579L51.9219 44.469L52.1085 45.0657Z" fill="#808284"/>
<path d="M53.2443 44.9896L52.2637 45.2964L53.4436 49.0687L54.4243 48.7619L53.2443 44.9896Z" fill="#3B4044"/>
<path opacity="0.66" d="M52.7535 45.143L52.4277 45.2449L53.6077 49.0172L53.9334 48.9153L52.7535 45.143Z" fill="#6D6F70"/>
<path d="M57.0526 41.7519L56.6985 41.6997L56.2598 42.4877L57.245 42.633L57.0526 41.7519Z" fill="#C5E1DF"/>
<path d="M55.9256 49.0811L55.6605 49.0419C55.4616 49.0126 55.3242 48.8277 55.3536 48.6288L56.2598 42.4878L57.245 42.6331L56.3388 48.7741C56.3094 48.973 56.1244 49.1104 55.9256 49.0811Z" fill="#B3DBAD"/>
<path d="M55.5561 49.0265L55.4873 49.0163C55.3842 49.0011 55.313 48.9052 55.3282 48.8021L56.26 42.4878L56.5154 42.5255L55.5561 49.0265ZM56.0993 49.1067L56.0305 49.0965L56.9898 42.5955L57.2452 42.6332L56.3135 48.9476C56.2982 49.0506 56.2024 49.1219 56.0993 49.1067Z" fill="#68A575"/>
<path d="M57.0513 41.7521L56.9724 41.3909C56.9606 41.3368 56.904 41.3284 56.8771 41.3768L56.6973 41.6999L57.0513 41.7521Z" fill="#6F5A66"/>
<path d="M57.0527 41.752L56.8848 41.7273L56.9897 42.5954L57.2451 42.6331L57.0527 41.752Z" fill="#A5CECA"/>
<path d="M57.0537 51.0351H52.0137V45.8533C52.0137 45.7539 52.0942 45.6733 52.1937 45.6733H56.8737C56.9731 45.6733 57.0537 45.7539 57.0537 45.8533V51.0351Z" fill="#F2E07C"/>
<path d="M56.332 45.6733V51.0351H57.052V45.8533C57.052 45.7539 56.9715 45.6733 56.872 45.6733H56.332Z" fill="#DFBB4D"/>
<path d="M53.5791 48.354H50.7832V51.0349H53.5791V48.354Z" fill="#6E7EE0"/>
<path d="M51.093 48.354H50.7832V51.0349H51.093V48.354Z" fill="#7A8CE2"/>
<path d="M53.1783 51.0349H53.584V48.354H53.1783V51.0349Z" fill="#6373C1"/>
<path d="M53.5843 51.0349H53.8379V48.354H53.5843V51.0349Z" fill="#DFBB4D"/>
<path d="M44.5445 48.928H42.4375V51.035H44.5445V48.928Z" fill="#EC958B"/>
<path d="M44.5445 48.928H42.4375V49.0245H44.5445V48.928Z" fill="#EF6562"/>
<path d="M45.6603 48.928H44.5449V51.035H45.6603V48.928Z" fill="#EF6562"/>
<path d="M43.7129 50.2874H43.3613L43.3031 50.4556H43.1172L43.4346 49.5715H43.6408L43.9582 50.4556H43.771L43.7129 50.2874ZM43.5371 49.7764L43.4094 50.1457H43.6649L43.5371 49.7764Z" fill="white"/>
<path d="M47.5289 48.928H45.4219V51.035H47.5289V48.928Z" fill="#E8B58B"/>
<path d="M48.6447 48.928H47.5293V51.035H48.6447V48.928Z" fill="#E09D6C"/>
<path d="M46.4875 49.5728C46.7 49.5728 46.8063 49.6954 46.8063 49.8435C46.8063 49.9509 46.7468 50.0597 46.6052 50.0976L46.8165 50.4557H46.6116L46.4168 50.1117H46.3334V50.4557H46.1562V49.5728H46.4875ZM46.4811 49.7195H46.3332V49.9787H46.4811C46.5799 49.9787 46.6241 49.9269 46.6241 49.8472C46.6241 49.7688 46.5799 49.7195 46.4811 49.7195Z" fill="white"/>
<path d="M43.9879 46.8208H41.8809V48.9278H43.9879V46.8208Z" fill="#1BB1B2"/>
<path d="M45.1017 46.8208H43.9863V48.9278H45.1017V46.8208Z" fill="#19A5A1"/>
<path d="M43.2172 47.4656H43.4056L43.0818 48.3484H42.8668L42.543 47.4656H42.7327L42.9755 48.1675L43.2172 47.4656Z" fill="white"/>
<path d="M16.8507 62.3967C15.7264 63.2169 14.15 62.9703 13.33 61.846C12.5098 60.7217 12.7564 59.1454 13.8807 58.3252L16.8507 62.3967Z" fill="#EF6562"/>
<path d="M13.8809 58.3253C15.0051 57.5052 16.5815 57.7518 17.4017 58.876C18.2218 60.0003 17.9752 61.5767 16.851 62.3968L13.8809 58.3253Z" fill="#F2E07C"/>
<path opacity="0.25" d="M15.7402 57.8687C16.6918 58.2288 17.3686 59.1481 17.3686 60.2258C17.3686 61.6176 16.2404 62.7458 14.8486 62.7458C14.7216 62.7458 14.5966 62.7362 14.4746 62.718C14.7518 62.823 15.0521 62.8808 15.3661 62.8808C16.7579 62.8808 17.8861 61.7526 17.8861 60.3608C17.8861 59.0963 16.9546 58.0494 15.7402 57.8687Z" fill="#A59A63"/>
<path d="M25.1018 42.5199C25.1519 42.4252 25.2 42.3218 25.2459 42.22C25.2911 42.117 25.3348 42.0133 25.3756 41.9081C25.4578 41.6982 25.5315 41.4846 25.5949 41.2681C25.6116 41.2143 25.6271 41.1601 25.6411 41.1055L25.6845 40.9422C25.7099 40.8325 25.738 40.7233 25.7584 40.6126C25.7822 40.5025 25.8002 40.3915 25.8178 40.2806C25.8368 40.1698 25.8466 40.0579 25.8615 39.9467L25.8708 39.8774L25.9133 39.8376L25.9134 39.8375C25.956 39.7941 26.0303 39.7506 26.1099 39.7448C26.1892 39.7381 26.254 39.7615 26.3011 39.7857C26.3955 39.8367 26.4501 39.8962 26.502 39.9539C26.6018 40.0704 26.6748 40.1899 26.7441 40.3105C26.8802 40.552 26.9909 40.7989 27.0942 41.0485C27.1967 41.2981 27.2896 41.5505 27.3744 41.8056C27.4582 42.0614 27.5371 42.3176 27.5934 42.5856C27.6031 42.6318 27.5735 42.6771 27.5274 42.6868C27.4829 42.6962 27.4392 42.6691 27.4273 42.6259L27.4268 42.6241C27.3587 42.3742 27.2661 42.1251 27.1693 41.8803C27.0715 41.6354 26.9658 41.3933 26.8517 41.1565C26.7373 40.9204 26.6151 40.6873 26.4766 40.4724C26.4074 40.3661 26.333 40.262 26.2539 40.181C26.2157 40.1414 26.1721 40.1073 26.1473 40.098C26.135 40.0927 26.1334 40.0969 26.1461 40.097C26.1591 40.0972 26.1717 40.088 26.1679 40.092L26.2197 39.983C26.2041 40.1003 26.1935 40.2185 26.1737 40.335C26.1552 40.4518 26.1361 40.5685 26.1113 40.684C26.0898 40.8001 26.0605 40.9144 26.0338 41.0295L25.9884 41.2005C25.9737 41.2575 25.9575 41.3142 25.94 41.3705C25.8738 41.5967 25.7968 41.8196 25.711 42.0392C25.6682 42.1491 25.6225 42.2579 25.575 42.3661C25.526 42.4745 25.477 42.5804 25.4193 42.6897C25.3729 42.7776 25.264 42.8113 25.1761 42.7648C25.0882 42.7184 25.0545 42.6096 25.1009 42.5217L25.1018 42.5199Z" fill="#D1D1D1"/>
<path d="M25.2399 41.346L27.4932 41.116C27.5742 41.1077 27.6465 41.1667 27.6548 41.2477C27.6629 41.3271 27.606 41.3983 27.5273 41.4088L25.2816 41.7037C25.1831 41.7167 25.0926 41.6473 25.0797 41.5486C25.0667 41.45 25.1361 41.3596 25.2348 41.3467C25.2362 41.3464 25.2384 41.3462 25.2399 41.346Z" fill="#D1D1D1"/>
<path d="M75.0458 47.5344H74.0587C73.9096 47.5344 73.7887 47.4135 73.7887 47.2644C73.7887 47.1153 73.9096 46.9944 74.0587 46.9944H75.0458C75.1949 46.9944 75.3158 47.1153 75.3158 47.2644C75.3158 47.4135 75.1949 47.5344 75.0458 47.5344ZM74.3308 48.3707H73.2466C73.0974 48.3707 72.9766 48.2498 72.9766 48.1007C72.9766 47.9515 73.0974 47.8307 73.2466 47.8307H74.3308C74.4799 47.8307 74.6008 47.9515 74.6008 48.1007C74.6008 48.2498 74.4799 48.3707 74.3308 48.3707Z" fill="#8BBF98"/>
<path opacity="0.74" d="M73.479 49.3681H70.2348C70.0857 49.3681 69.9648 49.2473 69.9648 49.0981C69.9648 48.949 70.0857 48.8281 70.2348 48.8281H73.479C73.6281 48.8281 73.749 48.949 73.749 49.0981C73.749 49.2473 73.6281 49.3681 73.479 49.3681Z" fill="#8BBF98"/>
<path opacity="0.23" d="M25.3342 61.8733H23.2661C23.117 61.8733 22.9961 61.7524 22.9961 61.6033C22.9961 61.4541 23.117 61.3333 23.2661 61.3333H25.3342C25.4833 61.3333 25.6042 61.4541 25.6042 61.6033C25.6042 61.7524 25.4833 61.8733 25.3342 61.8733ZM27.3817 61.8733H26.7761C26.627 61.8733 26.5061 61.7524 26.5061 61.6033C26.5061 61.4541 26.627 61.3333 26.7761 61.3333H27.3817C27.5308 61.3333 27.6517 61.4541 27.6517 61.6033C27.6517 61.7524 27.5308 61.8733 27.3817 61.8733ZM31.8592 62.5483H29.4517C29.3026 62.5483 29.1817 62.4274 29.1817 62.2783C29.1817 62.1291 29.3026 62.0083 29.4517 62.0083H31.8592C32.0083 62.0083 32.1292 62.1291 32.1292 62.2783C32.1292 62.4274 32.0083 62.5483 31.8592 62.5483Z" fill="#EF6562"/>
<path opacity="0.23" d="M30.8929 62.5483H30.4204C30.2713 62.5483 30.1504 62.4274 30.1504 62.2783C30.1504 62.1292 30.2713 62.0083 30.4204 62.0083H30.8929C31.042 62.0083 31.1629 62.1292 31.1629 62.2783C31.1629 62.4274 31.042 62.5483 30.8929 62.5483Z" fill="#EF6562"/>
<path d="M71.7697 48.3707H71.2972C71.1481 48.3707 71.0272 48.2498 71.0272 48.1007C71.0272 47.9515 71.1481 47.8307 71.2972 47.8307H71.7697C71.9189 47.8307 72.0397 47.9515 72.0397 48.1007C72.0397 48.2498 71.9189 48.3707 71.7697 48.3707ZM72.5876 47.5344H70.3364C70.1873 47.5344 70.0664 47.4135 70.0664 47.2644C70.0664 47.1153 70.1873 46.9944 70.3364 46.9944H72.5876C72.7367 46.9944 72.8576 47.1153 72.8576 47.2644C72.8576 47.4135 72.7367 47.5344 72.5876 47.5344Z" fill="#8BBF98"/>
<path opacity="0.18" d="M42.4885 53.094H40.6177C40.5354 53.094 40.4688 53.0273 40.4688 52.9451C40.4688 52.8628 40.5354 52.7961 40.6177 52.7961H42.4885C42.5708 52.7961 42.6375 52.8628 42.6375 52.9451C42.6374 53.0273 42.5708 53.094 42.4885 53.094ZM43.9187 53.094H43.0642C42.9819 53.094 42.9152 53.0273 42.9152 52.9451C42.9152 52.8628 42.9819 52.7961 43.0642 52.7961H43.9187C44.001 52.7961 44.0677 52.8628 44.0677 52.9451C44.0677 53.0273 44.001 53.094 43.9187 53.094ZM45.0791 53.6115H43.2343C43.152 53.6115 43.0853 53.5448 43.0853 53.4626C43.0853 53.3803 43.152 53.3136 43.2343 53.3136H45.0791C45.1613 53.3136 45.228 53.3803 45.228 53.4626C45.2279 53.5448 45.1613 53.6115 45.0791 53.6115ZM48.3621 53.6115H47.8131C47.7308 53.6115 47.6642 53.5448 47.6642 53.4626C47.6642 53.3803 47.7308 53.3136 47.8131 53.3136H48.3621C48.4444 53.3136 48.5111 53.3803 48.5111 53.4626C48.5111 53.5448 48.4444 53.6115 48.3621 53.6115ZM48.9198 53.1766H48.3708C48.2886 53.1766 48.2219 53.1099 48.2219 53.0276C48.2219 52.9454 48.2886 52.8787 48.3708 52.8787H48.9198C49.0021 52.8787 49.0688 52.9454 49.0688 53.0276C49.0687 53.1099 49.0021 53.1766 48.9198 53.1766Z" fill="#63916E"/>
<path opacity="0.26" d="M54.6839 53.6117H52.5708C52.4886 53.6117 52.4219 53.545 52.4219 53.4627C52.4219 53.3805 52.4886 53.3138 52.5708 53.3138H54.6839C54.7662 53.3138 54.8329 53.3805 54.8329 53.4627C54.8328 53.545 54.7661 53.6117 54.6839 53.6117ZM57.6987 53.6117H57.1497C57.0675 53.6117 57.0008 53.545 57.0008 53.4627C57.0008 53.3805 57.0675 53.3138 57.1497 53.3138H57.6987C57.781 53.3138 57.8477 53.3805 57.8477 53.4627C57.8476 53.545 57.7809 53.6117 57.6987 53.6117ZM55.2647 53.1021H54.0812C53.9989 53.1021 53.9323 53.0354 53.9323 52.9532C53.9323 52.8709 53.9989 52.8042 54.0812 52.8042H55.2647C55.347 52.8042 55.4137 52.8709 55.4137 52.9532C55.4137 53.0354 55.347 53.1021 55.2647 53.1021Z" fill="#8BBF98"/>
</svg>
