<svg width="90" height="90" viewBox="0 0 90 90" fill="none" xmlns="http://www.w3.org/2000/svg">
<path d="M90 0H0V90H90V0Z" fill="#684463"/>
<path opacity="0.5" d="M69.7009 24.4018H53.2427V19.7217H58.647C59.9393 19.7217 60.987 18.6741 60.987 17.3817C60.987 16.0894 59.9393 15.0417 58.647 15.0417H31.3529C30.0606 15.0417 29.0129 16.0894 29.0129 17.3817C29.0129 18.6741 30.0606 19.7217 31.3529 19.7217H36.7572V24.4018H20.299C19.0067 24.4018 17.959 25.4494 17.959 26.7418C17.959 28.0341 19.0067 29.0818 20.299 29.0818H26.4704V33.7618H26.799C25.5067 33.7618 24.459 34.8094 24.459 36.1018C24.459 37.3941 25.5067 38.4418 26.799 38.4418H35.6772V43.1218H28.8352C27.5429 43.1218 26.4952 44.1694 26.4952 45.4618C26.4952 46.7541 27.5429 47.8018 28.8352 47.8018H35.6772V52.4818H26.07C24.7777 52.4818 23.73 53.5295 23.73 54.8218C23.73 56.1141 24.7777 57.1618 26.07 57.1618H61.032C62.3243 57.1618 63.372 56.1141 63.372 54.8218C63.372 53.5295 62.3243 52.4818 61.032 52.4818H54.3227V47.8018H56.451C57.7433 47.8018 58.791 46.7541 58.791 45.4618C58.791 44.1694 57.7433 43.1218 56.451 43.1218H54.3227V38.4418H63.2009C64.4932 38.4418 65.5409 37.3941 65.5409 36.1018C65.5409 34.8094 64.4932 33.7618 63.2009 33.7618H63.5295V29.0818H69.7009C70.9932 29.0818 72.0409 28.0341 72.0409 26.7418C72.0409 25.4494 70.9932 24.4018 69.7009 24.4018Z" fill="#825D7E"/>
<path opacity="0.69" d="M76.1699 64.2149H13.83C13.2336 64.2149 12.75 63.7314 12.75 63.1349C12.75 62.5385 13.2336 62.0549 13.83 62.0549H76.17C76.7665 62.0549 77.25 62.5385 77.25 63.1349C77.2499 63.7314 76.7665 64.2149 76.1699 64.2149Z" fill="#3D233C"/>
<path opacity="0.5" d="M20.8648 38.6715H18.4201C17.1278 38.6715 16.0801 37.6238 16.0801 36.3315C16.0801 35.0391 17.1278 33.9915 18.4201 33.9915H20.8648C22.1571 33.9915 23.2048 35.0391 23.2048 36.3315C23.2048 37.6238 22.1571 38.6715 20.8648 38.6715Z" fill="#825D7E"/>
<path d="M50.0271 33.7617H39.9716C38.6793 33.7617 37.6316 32.714 37.6316 31.4217C37.6316 30.1294 38.6793 29.0817 39.9716 29.0817H50.0271C51.3194 29.0817 52.3671 30.1294 52.3671 31.4217C52.3671 32.714 51.3194 33.7617 50.0271 33.7617ZM71.6386 33.7617H61.583C60.2907 33.7617 59.243 32.714 59.243 31.4217C59.243 30.1294 60.2907 29.0817 61.583 29.0817H71.6385C72.9308 29.0817 73.9785 30.1294 73.9785 31.4217C73.9786 32.714 72.9309 33.7617 71.6386 33.7617ZM62.4817 43.1217H52.4261C51.1338 43.1217 50.0861 42.074 50.0861 40.7817C50.0861 39.4894 51.1338 38.4417 52.4261 38.4417H62.4817C63.774 38.4417 64.8217 39.4894 64.8217 40.7817C64.8217 42.074 63.774 43.1217 62.4817 43.1217ZM31.5225 33.7617H21.467C20.1746 33.7617 19.127 32.714 19.127 31.4217C19.127 30.1294 20.1746 29.0817 21.467 29.0817H31.5225C32.8148 29.0817 33.8625 30.1294 33.8625 31.4217C33.8625 32.714 32.8148 33.7617 31.5225 33.7617ZM38.0083 24.4017H27.9528C26.6605 24.4017 25.6128 23.354 25.6128 22.0617C25.6128 20.7694 26.6605 19.7217 27.9528 19.7217H38.0083C39.3006 19.7217 40.3483 20.7694 40.3483 22.0617C40.3483 23.354 39.3006 24.4017 38.0083 24.4017ZM60.0967 24.4017H50.0411C48.7488 24.4017 47.7011 23.354 47.7011 22.0617C47.7011 20.7694 48.7488 19.7217 50.0411 19.7217H60.0967C61.389 19.7217 62.4367 20.7694 62.4367 22.0617C62.4367 23.354 61.389 24.4017 60.0967 24.4017ZM62.4817 52.4817H52.4261C51.1338 52.4817 50.0861 51.434 50.0861 50.1417C50.0861 48.8494 51.1338 47.8017 52.4261 47.8017H62.4817C63.774 47.8017 64.8217 48.8494 64.8217 50.1417C64.8217 51.434 63.774 52.4817 62.4817 52.4817ZM36.9421 52.4817H26.8865C25.5942 52.4817 24.5465 51.434 24.5465 50.1417C24.5465 48.8494 25.5942 47.8017 26.8865 47.8017H36.942C38.2343 47.8017 39.282 48.8494 39.282 50.1417C39.2821 51.434 38.2344 52.4817 36.9421 52.4817Z" fill="#684463"/>
<path d="M70.2012 44.2864H67.6719V43.9066C67.6719 43.6813 67.8545 43.4988 68.0797 43.4988H69.7934C70.0186 43.4988 70.2012 43.6814 70.2012 43.9066V44.2864H70.2012Z" fill="#96628A"/>
<path d="M69.9367 43.4988H69.6602C69.8059 43.4988 69.924 43.5996 69.924 43.724V44.2864H70.2006V43.724C70.2006 43.5996 70.0824 43.4988 69.9367 43.4988Z" fill="#84517A"/>
<path d="M70.1671 48.1949H67.7031C67.3924 48.1949 67.1406 47.9431 67.1406 47.6324V44.8486C67.1406 44.538 67.3924 44.2861 67.7031 44.2861H70.1671C70.4777 44.2861 70.7296 44.538 70.7296 44.8486V47.6324C70.7296 47.9431 70.4777 48.1949 70.1671 48.1949Z" fill="#CC83B4"/>
<path d="M70.1683 44.2861H69.7559C70.0665 44.2861 70.3184 44.538 70.3184 44.8486V47.6324C70.3184 47.9431 70.0665 48.1949 69.7559 48.1949H70.1683C70.479 48.1949 70.7308 47.9431 70.7308 47.6324V44.8486C70.7308 44.538 70.479 44.2861 70.1683 44.2861Z" fill="#BC71A7"/>
<path d="M65.5408 57.1616H24.459V61.8416H65.5408V57.1616Z" fill="#684463"/>
<path d="M41.6706 20.385H38.2383V26.19H41.6706V20.385Z" fill="#AB8FB8"/>
<path d="M41.1023 20.385H37.6699V26.19H41.1023V20.385Z" fill="#DFCCE2"/>
<path opacity="0.82" d="M41.1023 25.5149H37.6699V26.0999H41.1023V25.5149Z" fill="#A380AF"/>
<path opacity="0.82" d="M41.6709 25.5149H41.1035V26.0999H41.6709V25.5149Z" fill="#A380AF"/>
<path d="M44.1983 26.1001H36.4277V29.7739H44.1983V26.1001Z" fill="#AB8FB8"/>
<path d="M33.5042 60.8802L38.9704 45.8619L35.7175 44.678L29.8203 60.8802H33.5042Z" fill="#AC91BA"/>
<path d="M32.0901 60.8802L37.5564 45.8619L34.3034 44.678L28.4062 60.8802H32.0901Z" fill="#DFCCE2"/>
<path opacity="0.82" d="M35.5506 45.1323L34.3024 44.678L31.9141 51.24H37.0114L38.9689 45.8619L35.7159 44.678L35.5506 45.1323Z" fill="#A380AF"/>
<path d="M30.7229 60.8801H25.6582V63.2186H30.7229V60.8801Z" fill="#DFCCE2"/>
<path d="M35.1545 60.8801H30.0898V63.2186H35.1545V60.8801Z" fill="#B39FC1"/>
<path d="M61.435 37.2822L60.7669 37.4588C60.6898 37.4791 60.6352 37.558 60.6287 37.6611C60.596 38.1777 60.6311 38.7994 60.7561 39.5218C61.0556 41.2518 61.8211 43.3212 62.9472 45.1851C63.0867 45.4159 63.35 45.3464 63.3572 45.0767C63.4153 42.8998 63.0583 40.7225 62.4638 39.0704C62.2156 38.3806 61.9388 37.8228 61.6552 37.3898C61.5985 37.3033 61.5121 37.2619 61.435 37.2822Z" fill="#F7CD84"/>
<path d="M62.4655 39.0703C62.2173 38.3806 61.9405 37.8227 61.6569 37.3898C61.6003 37.3033 61.5138 37.2619 61.4367 37.2822L61.1348 37.362C61.2103 37.4578 61.2927 37.5696 61.3779 37.6985C61.3779 37.6985 61.5031 37.8967 61.6264 38.1165C62.3293 39.3706 62.6002 40.5178 62.8254 41.5024C62.9862 42.2051 63.0465 42.6998 63.1669 43.6891C63.2087 44.033 63.3168 44.9677 63.2044 45.3182C63.2882 45.2956 63.3553 45.211 63.3589 45.0767C63.417 42.8998 63.0601 40.7225 62.4655 39.0703Z" fill="#F8B461"/>
<path d="M60.3253 34.7343C60.3279 34.7019 60.2872 34.6856 60.2667 34.7108C60.0588 34.9663 59.5673 35.6735 59.7205 36.5435C59.7372 36.6381 59.9122 37.5581 60.6043 37.874C60.827 37.9757 60.996 37.9658 61.0321 37.9631C61.4476 37.9322 61.8236 37.5529 61.912 37.1454C62.0261 36.6191 61.6569 36.0626 61.2681 35.8366C61.0677 35.7201 60.8922 35.7089 60.6546 35.488C60.4188 35.2689 60.3618 35.0665 60.3488 35.0155C60.3216 34.9094 60.3191 34.8125 60.3253 34.7343Z" fill="#6F5A66"/>
<path d="M61.2676 35.8365C61.0672 35.7201 60.8917 35.7088 60.654 35.488C60.4182 35.2688 60.3613 35.0664 60.3483 35.0155C60.3221 34.913 60.3189 34.8192 60.3243 34.7424C60.3256 34.7228 60.3124 34.709 60.2967 34.7053C60.276 34.7934 60.2592 34.9197 60.2834 35.0665C60.2924 35.1208 60.3332 35.3369 60.5551 35.5876C60.7788 35.8402 60.9569 35.8686 61.1513 36.0088C61.5287 36.281 61.858 36.8957 61.6969 37.433C61.665 37.5394 61.6138 37.642 61.5486 37.7358C61.7284 37.5822 61.8631 37.3682 61.9115 37.1452C62.0256 36.619 61.6563 36.0624 61.2676 35.8365Z" fill="#6B4C5F"/>
<path d="M60.6552 35.488C60.4194 35.2688 60.3625 35.0664 60.3495 35.0155C60.3222 34.909 60.3198 34.8118 60.3261 34.7335C60.3287 34.7013 60.2879 34.6856 60.2675 34.7106C60.0763 34.9457 59.6454 35.5643 59.6977 36.34C59.6977 36.34 59.7034 36.4073 59.705 36.4218V37.9038C59.705 37.9973 59.7809 38.0732 59.8744 38.0732C59.9679 38.0732 60.0438 37.9973 60.0438 37.9038V36.499C60.0438 36.4323 60.0979 36.3782 60.1646 36.3782C60.2312 36.3782 60.2853 36.4323 60.2853 36.499V36.7614C60.2853 36.832 60.3336 36.8974 60.4032 36.9087C60.492 36.9231 60.5687 36.855 60.5687 36.769V36.6744C60.5687 36.5673 60.5634 36.3001 60.7532 36.2528C61.1632 36.1508 61.1804 36.0842 61.2687 35.8365C61.0684 35.7201 60.8929 35.7089 60.6552 35.488Z" fill="#ED4A5E"/>
<path d="M70.3695 63.135H71.2695V49.635H70.3695V63.135Z" fill="#DE6173"/>
<path d="M69.2891 63.135H70.3691V49.635H69.2891V63.135Z" fill="#F37F82"/>
<path d="M69.8294 60.0601H64.6094V61.2301H69.8294V60.0601Z" fill="#DD6B80"/>
<path d="M69.8294 49.635H64.6094V53.235H69.8294V49.635Z" fill="#DD6B80"/>
<path opacity="0.34" d="M68.788 51.2868H68.3589C68.2098 51.2868 68.0889 51.166 68.0889 51.0168C68.0889 50.8677 68.2098 50.7468 68.3589 50.7468H68.788C68.9371 50.7468 69.058 50.8677 69.058 51.0168C69.058 51.166 68.9371 51.2868 68.788 51.2868ZM69.1488 52.1231H67.0628C66.9136 52.1231 66.7928 52.0022 66.7928 51.8531C66.7928 51.704 66.9136 51.5831 67.0628 51.5831H69.1488C69.2979 51.5831 69.4188 51.704 69.4188 51.8531C69.4188 52.0022 69.2978 52.1231 69.1488 52.1231ZM67.6027 51.2868H66.3716C66.2224 51.2868 66.1016 51.166 66.1016 51.0168C66.1016 50.8677 66.2224 50.7468 66.3716 50.7468H67.6027C67.7518 50.7468 67.8727 50.8677 67.8727 51.0168C67.8727 51.166 67.7518 51.2868 67.6027 51.2868Z" fill="#F37F82"/>
<path d="M35.7723 52.4934L34.6523 55.5704H44.1519V52.4934H35.7723Z" fill="#D1B9D6"/>
<path opacity="0.87" d="M35.7723 52.4934L34.6523 55.5704H35.2661L36.386 52.4934H35.7723Z" fill="#A380AF"/>
<path d="M65.0813 35.1977L64.6438 35.1331L64.1016 36.1069L65.3192 36.2865L65.0813 35.1977Z" fill="#C5E1DF"/>
<path d="M63.6006 44.2418L63.4515 44.2197C63.1565 44.1762 62.9525 43.9017 62.9961 43.6066L64.1028 36.1069L65.3203 36.2866L64.2136 43.7863C64.1701 44.0815 63.8957 44.2853 63.6006 44.2418Z" fill="#F7CD84"/>
<path d="M63.2315 44.1874C63.0572 44.1617 62.9367 43.9995 62.9624 43.8252L64.1014 36.1069L64.417 36.1536L63.2315 44.1874ZM63.8178 44.274L65.0034 36.24L65.319 36.2867L64.18 44.0049C64.1543 44.1792 63.9921 44.2996 63.8178 44.274Z" fill="#F8B461"/>
<path d="M65.0821 35.1977L64.9846 34.7513C64.9701 34.6844 64.9001 34.6742 64.8668 34.7339L64.6445 35.1331L65.0821 35.1977Z" fill="#6F5A66"/>
<path d="M65.0824 35.1977L64.875 35.167L65.0046 36.24L65.3203 36.2865L65.0824 35.1977Z" fill="#A5CECA"/>
<path d="M57.0492 63.135H57.9492V49.635H57.0492V63.135Z" fill="#DE6173"/>
<path d="M55.9688 63.135H57.0488V49.635H55.9688V63.135Z" fill="#F37F82"/>
<path d="M64.6098 63.135H65.5098V49.635H64.6098V63.135Z" fill="#DE6173"/>
<path d="M63.5294 63.135H64.6094V49.635H63.5294V63.135Z" fill="#F37F82"/>
<path d="M63.5301 49.635H57.4551V53.235H63.5301V49.635Z" fill="#F37F82"/>
<path d="M63.5301 60.0601H57.4551V61.2301H63.5301V60.0601Z" fill="#F37F82"/>
<path d="M49.8121 60.8802L43.9151 44.678L40.6621 45.8619L46.1283 60.8802H49.8121Z" fill="#AC91BA"/>
<path d="M48.7732 60.8802L42.876 44.678L39.623 45.8619L45.0893 60.8802H48.7732Z" fill="#DFCCE2"/>
<path opacity="0.82" d="M43.9157 44.678L42.9976 45.0121L42.876 44.678L39.623 45.8619L41.5806 51.24H46.304L43.9157 44.678Z" fill="#A380AF"/>
<path d="M27.3598 50.134H25.6289V48.6369C25.6289 48.0964 26.067 47.6582 26.6076 47.6582H27.3598V50.134Z" fill="#AB8FB8"/>
<path d="M52.4249 50.134H25.6289V48.6369C25.6289 48.0964 26.067 47.6582 26.6076 47.6582H52.4249V50.134Z" fill="#DFCCE2"/>
<path d="M52.4262 50.134H50.6953V48.6369C50.6953 48.0964 51.1334 47.6582 51.674 47.6582H52.4262V50.134Z" fill="#AB8FB8"/>
<path d="M50.8414 29.7737H29.207V47.6581H50.8414V29.7737Z" fill="#AB8FB8"/>
<path d="M49.4703 29.7737H27.8359V47.6581H49.4703V29.7737Z" fill="#FFFDFF"/>
<path d="M40.7517 37.4674C40.5174 37.066 40.1997 36.7482 39.7983 36.514C39.3968 36.2797 38.9586 36.1626 38.4832 36.1626C38.0079 36.1626 37.5695 36.2797 37.1681 36.514C36.7667 36.7482 36.4489 37.066 36.2146 37.4674C35.9804 37.8688 35.8633 38.3072 35.8633 38.7825C35.8633 39.2578 35.9805 39.6961 36.2146 40.0976C36.4489 40.499 36.7667 40.8168 37.1681 41.051C37.5695 41.2853 38.0079 41.4024 38.4832 41.4024C38.9585 41.4024 39.3969 41.2853 39.7983 41.051C40.1997 40.8169 40.5174 40.499 40.7516 40.0976C40.9859 39.6962 41.103 39.2578 41.103 38.7825C41.103 38.3071 40.9859 37.8687 40.7517 37.4674ZM38.4832 36.5446C39.0471 36.5446 39.5395 36.7311 39.9603 37.1041L39.9176 37.1638C39.9005 37.1877 39.8579 37.2337 39.7897 37.3019C39.7215 37.3701 39.647 37.4349 39.5663 37.4964C39.4855 37.5578 39.3759 37.6277 39.2371 37.7062C39.0983 37.7847 38.9506 37.8535 38.7936 37.9126C38.5321 37.4304 38.2523 36.9961 37.9544 36.6095C38.1342 36.5662 38.3104 36.5446 38.4832 36.5446ZM36.7298 37.394C36.9481 37.1188 37.2142 36.9073 37.528 36.7595C37.81 37.1347 38.0874 37.5645 38.3603 38.0489C37.6689 38.2309 36.9799 38.3218 36.2931 38.3218C36.3659 37.9785 36.5116 37.6692 36.7298 37.394ZM36.3955 39.5893C36.2954 39.3335 36.2453 39.0646 36.2453 38.7825C36.2453 38.7506 36.2465 38.7268 36.2488 38.7109C37.0721 38.7109 37.8373 38.6051 38.5446 38.3936C38.6175 38.5346 38.6777 38.6608 38.7255 38.7722C38.7163 38.7767 38.7016 38.7819 38.6811 38.7875C38.6606 38.7932 38.6458 38.7972 38.6366 38.7995L38.5105 38.8439C38.424 38.8757 38.3108 38.9304 38.171 39.0076C38.0311 39.085 37.8827 39.1771 37.7258 39.284C37.5689 39.3909 37.4069 39.5325 37.2397 39.7088C37.0726 39.885 36.9321 40.0743 36.8185 40.2767C36.6365 40.0743 36.4955 39.845 36.3955 39.5893ZM38.4832 41.0203C37.951 41.0203 37.4757 40.8498 37.0572 40.5087L37.1084 40.5462C37.188 40.3711 37.3051 40.2028 37.4598 40.0413C37.6144 39.8799 37.7634 39.7496 37.9066 39.6506C38.0499 39.5518 38.2057 39.4586 38.374 39.3709C38.5423 39.2834 38.6571 39.2276 38.7185 39.2038C38.78 39.1799 38.8289 39.1611 38.8652 39.1474L38.8721 39.144H38.8789C39.1017 39.7285 39.261 40.2948 39.3565 40.8429C39.0745 40.9612 38.7834 41.0203 38.4832 41.0203ZM40.3663 39.9917C40.198 40.2522 39.9876 40.4677 39.7353 40.6382C39.6419 40.1151 39.4965 39.5818 39.2986 39.0383C39.7512 38.9677 40.2162 39.0007 40.6938 39.1372C40.6437 39.4465 40.5345 39.7315 40.3663 39.9917ZM40.6868 38.7518C40.6641 38.7473 40.6356 38.7421 40.6015 38.7365C40.5674 38.7308 40.5259 38.724 40.4769 38.7161C40.4281 38.7082 40.3734 38.7008 40.3132 38.6939C40.2529 38.6871 40.1887 38.6809 40.1205 38.6752C40.0522 38.6695 39.9795 38.665 39.9022 38.6615C39.8248 38.6581 39.7464 38.6564 39.6668 38.6564C39.5872 38.6564 39.5036 38.6587 39.4161 38.6632C39.3285 38.6677 39.2439 38.6758 39.1621 38.6871C39.1552 38.6758 39.1467 38.6569 39.1364 38.6308C39.1261 38.6047 39.1188 38.5847 39.1144 38.5711C39.0711 38.4756 39.021 38.3675 38.9641 38.247C39.1211 38.1833 39.2707 38.1099 39.4129 38.0269C39.555 37.9439 39.6686 37.8701 39.7539 37.8053C39.8392 37.7404 39.9199 37.6716 39.9961 37.5988C40.0723 37.526 40.1217 37.4755 40.1445 37.4471C40.1673 37.4186 40.1889 37.3907 40.2093 37.3635L40.2127 37.36C40.5447 37.7649 40.7143 38.2311 40.7209 38.7587L40.6868 38.7518Z" fill="#EA3268"/>
<path d="M47.9357 60.8801H42.8711V63.2186H47.9357V60.8801Z" fill="#DFCCE2"/>
<path d="M52.3674 60.8801H47.3027V63.2186H52.3674V60.8801Z" fill="#B39FC1"/>
<path d="M64.6084 48.1951H55.0684V49.6351H64.6084V48.1951Z" fill="#F37F82"/>
<path d="M71.8094 48.1951H64.6094V49.6351H71.8094V48.1951Z" fill="#DE6173"/>
<path d="M63.5301 49.635H57.4551V50.1341H63.5301V49.635Z" fill="#E26971"/>
<path d="M65.5098 49.6351V53.2351H65.8698V49.6351H65.5098Z" fill="#CE5F78"/>
<path d="M65.5098 60.06V61.23H65.8698V60.06H65.5098Z" fill="#CE5F78"/>
<path d="M65.6901 50.1343H69.8301V49.6352H65.6901V50.1343Z" fill="#CE5F78"/>
<path d="M64.6093 49.635H63.5293V49.6857H64.6093V49.635Z" fill="#E26971"/>
<path d="M57.0488 49.635H55.9688V49.6857H57.0488V49.635Z" fill="#E26971"/>
<path d="M60.7411 52.0213C61.0145 52.0213 61.2361 51.7996 61.2361 51.5263C61.2361 51.2529 61.0145 51.0312 60.7411 51.0312C60.4677 51.0312 60.2461 51.2529 60.2461 51.5263C60.2461 51.7996 60.4677 52.0213 60.7411 52.0213Z" fill="#E26971"/>
<path d="M60.4911 51.9751C60.7645 51.9751 60.9861 51.7535 60.9861 51.4801C60.9861 51.2067 60.7645 50.9851 60.4911 50.9851C60.2177 50.9851 59.9961 51.2067 59.9961 51.4801C59.9961 51.7535 60.2177 51.9751 60.4911 51.9751Z" fill="#633047"/>
<path d="M60.3599 51.4329C60.4646 51.4235 60.5433 51.3465 60.5356 51.2608C60.528 51.1751 60.4369 51.1132 60.3322 51.1225C60.2275 51.1318 60.1488 51.2089 60.1564 51.2946C60.1641 51.3803 60.2551 51.4422 60.3599 51.4329Z" fill="#F4CEE1"/>
<path opacity="0.4" d="M63.1009 50.9138H62.1139C61.9648 50.9138 61.8439 50.7929 61.8439 50.6438C61.8439 50.4946 61.9648 50.3738 62.1139 50.3738H63.1009C63.25 50.3738 63.3709 50.4946 63.3709 50.6438C63.3709 50.7929 63.25 50.9138 63.1009 50.9138ZM62.5639 51.7501H61.9009C61.7517 51.7501 61.6309 51.6292 61.6309 51.4801C61.6309 51.3309 61.7517 51.2101 61.9009 51.2101H62.5638C62.7129 51.2101 62.8338 51.3309 62.8338 51.4801C62.8339 51.6292 62.713 51.7501 62.5639 51.7501Z" fill="#E26971"/>
<path opacity="0.2" d="M61.3618 52.7475H58.1177C57.9685 52.7475 57.8477 52.6266 57.8477 52.4775C57.8477 52.3284 57.9685 52.2075 58.1177 52.2075H61.3618C61.5109 52.2075 61.6318 52.3284 61.6318 52.4775C61.6318 52.6266 61.5109 52.7475 61.3618 52.7475Z" fill="#E26971"/>
<path opacity="0.39" d="M59.6527 52.7475H59.1802C59.031 52.7475 58.9102 52.6266 58.9102 52.4775C58.9102 52.3284 59.031 52.2075 59.1802 52.2075H59.6527C59.8018 52.2075 59.9227 52.3284 59.9227 52.4775C59.9227 52.6266 59.8018 52.7475 59.6527 52.7475Z" fill="#E26971"/>
<path opacity="0.4" d="M60.4704 50.9138H58.2192C58.0701 50.9138 57.9492 50.7929 57.9492 50.6438C57.9492 50.4946 58.0701 50.3738 58.2192 50.3738H60.4704C60.6195 50.3738 60.7404 50.4946 60.7404 50.6438C60.7404 50.7929 60.6195 50.9138 60.4704 50.9138Z" fill="#E26971"/>
<path d="M65.8916 48.1951H60.8528C60.4552 48.1951 60.1328 47.8727 60.1328 47.4751V41.3401C60.1328 41.1909 60.2537 41.0701 60.4028 41.0701H66.3416C66.4908 41.0701 66.6116 41.1909 66.6116 41.3401V47.4751C66.6116 47.8727 66.2894 48.1951 65.8916 48.1951Z" fill="#EA3268"/>
<path opacity="0.69" d="M65.0852 41.0701V47.4751C65.0852 47.8727 64.7629 48.1951 64.3652 48.1951H65.8923C66.2899 48.1951 66.6123 47.8727 66.6123 47.4751V41.3401C66.6123 41.1909 66.4914 41.0701 66.3423 41.0701H65.0852Z" fill="#AA235B"/>
<path d="M22.3955 56.1268H18.4863V55.1082C18.4863 54.883 18.6689 54.7004 18.8941 54.7004H21.9876C22.2129 54.7004 22.3954 54.8831 22.3954 55.1082V56.1268H22.3955Z" fill="#F8B461"/>
<path d="M21.988 54.7004H21.5605C21.7858 54.7004 21.9683 54.883 21.9683 55.1082V56.1268H22.3958V55.1082C22.3958 54.883 22.2132 54.7004 21.988 54.7004Z" fill="#E29C50"/>
<path d="M22.6522 63.2055H18.2305C17.9198 63.2055 17.668 62.9537 17.668 62.643V56.6892C17.668 56.3785 17.9198 56.1267 18.2305 56.1267H22.6522C22.9628 56.1267 23.2147 56.3785 23.2147 56.6892V62.6429C23.2147 62.9536 22.9628 63.2055 22.6522 63.2055Z" fill="#F7CD84"/>
<path d="M22.554 56.1267H21.8145C22.1791 56.1267 22.4748 56.4224 22.4748 56.787V62.5451C22.4748 62.9097 22.1791 63.2054 21.8145 63.2054H22.554C22.9187 63.2054 23.2143 62.9097 23.2143 62.5451V56.787C23.2143 56.4224 22.9187 56.1267 22.554 56.1267Z" fill="#F8B461"/>
<path d="M18.7517 58.0637H18.6832C18.5745 58.0637 18.4863 57.9756 18.4863 57.8668V56.1267H18.9486V57.8668C18.9486 57.9756 18.8605 58.0637 18.7517 58.0637Z" fill="#ED4A5E"/>
<path d="M19.4115 56.1267H18.9492V56.7606H19.4115V56.1267Z" fill="#ED4A5E"/>
<path d="M19.2146 56.9983H19.1461C19.0374 56.9983 18.9492 56.9102 18.9492 56.8014V56.6493C18.9492 56.5406 19.0373 56.4524 19.1461 56.4524H19.2146C19.3233 56.4524 19.4115 56.5405 19.4115 56.6493V56.8014C19.4115 56.9102 19.3233 56.9983 19.2146 56.9983Z" fill="#F7CD84"/>
<path d="M19.6756 57.0336H19.6071C19.4984 57.0336 19.4102 56.9455 19.4102 56.8367V56.1267H19.8724V56.8367C19.8725 56.9454 19.7844 57.0336 19.6756 57.0336Z" fill="#ED4A5E"/>
<path d="M42.9132 26.1001H35.1426V29.7739H42.9132V26.1001Z" fill="#DFCCE2"/>
<path opacity="0.82" d="M39.5784 28.8628C40.0898 28.8628 40.5044 28.4482 40.5044 27.9368C40.5044 27.4253 40.0898 27.0107 39.5784 27.0107C39.0669 27.0107 38.6523 27.4253 38.6523 27.9368C38.6523 28.4482 39.0669 28.8628 39.5784 28.8628Z" fill="#A380AF"/>
<path d="M39.3381 28.8628C39.8495 28.8628 40.2641 28.4482 40.2641 27.9368C40.2641 27.4253 39.8495 27.0107 39.3381 27.0107C38.8267 27.0107 38.4121 27.4253 38.4121 27.9368C38.4121 28.4482 38.8267 28.8628 39.3381 28.8628Z" fill="#736177"/>
<path d="M23.2147 58.3982H17.668V60.7577H23.2147V58.3982Z" fill="#EA3268"/>
<path d="M23.2156 58.3982H22.5156V60.7577H23.2156V58.3982Z" fill="#D33167"/>
<path d="M59.3275 59.8372C59.1545 59.8372 59.0139 59.6966 59.0139 59.5236C59.0139 59.3507 59.1546 59.21 59.3275 59.21H63.1126V58.9871H59.3275C59.0312 58.9871 58.791 59.2273 58.791 59.5236C58.791 59.82 59.0312 60.0601 59.3275 60.0601H63.1126V59.8372H59.3275Z" fill="#ED4A5E"/>
<path d="M59.3273 59.8372C59.1543 59.8372 59.0137 59.6966 59.0137 59.5236C59.0137 59.3506 59.1544 59.21 59.3273 59.21H62.9442V59.8372H59.3273Z" fill="#F4E1E4"/>
<path opacity="0.2" d="M62.9445 59.21H61.4121V59.8372H62.9445V59.21Z" fill="#442228"/>
<path opacity="0.2" d="M63.1127 58.9871H61.4121V59.2057H63.1127V58.9871Z" fill="#442228"/>
<path opacity="0.2" d="M63.1127 59.8372H61.4121V60.0558H63.1127V59.8372Z" fill="#442228"/>
<path d="M15.4336 63.2055C15.4336 62.879 15.6983 62.6143 16.0248 62.6143C16.3513 62.6143 16.616 62.879 16.616 63.2055H15.4336Z" fill="#ED4A5E"/>
<path d="M16.3203 63.2055C16.3203 63.0422 16.4526 62.9099 16.6159 62.9099C16.7791 62.9099 16.9114 63.0423 16.9114 63.2055H16.3203Z" fill="#E0445E"/>
</svg>
