<svg width="152" height="39" viewBox="0 0 152 39" fill="none" xmlns="http://www.w3.org/2000/svg">
<path d="M0.0800781 0V12.1056C0.662478 22.256 4.98888 28.7456 8.52488 32.4064C12.3521 36.3584 16.0961 37.9808 16.1377 37.9808L16.1793 38.0224L16.2209 37.9808C30.4481 28.9536 31.9873 16.8896 31.9873 12.1056V0H0.0800781ZM143.808 4.4928C142.311 4.4928 140.397 4.6592 139.69 4.6592C139.274 4.6592 137.735 4.6176 137.235 4.6176V4.992C138.067 5.1584 138.525 5.4496 138.525 6.1984V17.1808C138.525 17.9712 138.067 18.304 137.194 18.4288V18.8032C137.651 18.8032 139.107 18.7616 139.523 18.7616C140.23 18.7616 142.019 18.8864 143.517 18.8864C148.717 18.8864 151.92 15.808 151.92 11.648C151.92 7.28 148.842 4.4928 143.808 4.4928ZM66.1409 4.4928C66.1409 4.4928 65.9329 5.408 65.7249 5.8656L61.1905 16.8064C60.8577 17.5968 60.3585 18.1792 59.4849 18.3872V18.7616L61.5233 18.72C61.8145 18.72 63.0625 18.7616 63.5201 18.7616V18.3872C62.7297 18.1792 62.5217 17.8464 62.5217 17.472C62.5217 17.2224 62.6465 16.848 62.7713 16.5568L63.7281 14.1856H69.0113L70.0513 16.5568C70.2177 16.8896 70.3009 17.2224 70.3009 17.5136C70.3009 17.8464 70.0929 18.2208 69.3857 18.3872V18.7616C69.9265 18.7616 71.4657 18.72 71.7985 18.72C72.1729 18.72 73.7953 18.7616 74.2945 18.7616V18.3872C73.3377 18.1376 72.9633 17.5968 72.6305 16.848L67.8049 5.8656C67.5969 5.408 67.3889 4.4928 67.3889 4.4928H66.1409ZM111.194 4.4928C111.194 4.4928 110.986 5.408 110.778 5.8656L106.243 16.8064C105.91 17.5968 105.411 18.1792 104.538 18.3872V18.7616L106.576 18.72C106.867 18.72 108.115 18.7616 108.573 18.7616V18.3872C107.782 18.1792 107.574 17.8464 107.574 17.472C107.574 17.2224 107.699 16.848 107.824 16.5568L108.781 14.1856H114.064L115.104 16.5568C115.229 16.8896 115.354 17.2224 115.354 17.5136C115.354 17.8464 115.146 18.2208 114.438 18.3872V18.7616C114.979 18.7616 116.519 18.72 116.851 18.72C117.226 18.72 118.848 18.7616 119.347 18.7616V18.3872C118.391 18.1376 118.016 17.5968 117.683 16.848L112.858 5.8656C112.691 5.408 112.442 4.4928 112.442 4.4928H111.194ZM82.3649 4.4928C81.5745 4.4928 79.6193 4.6176 78.9121 4.6176C78.4961 4.6176 76.9985 4.576 76.4993 4.576V4.9504C77.3729 5.1168 77.7473 5.5328 77.7473 6.1984V17.0976C77.7473 17.8464 77.2897 18.2624 76.4993 18.3872V18.7616C76.9569 18.7616 78.4961 18.72 78.8705 18.72C79.3281 18.72 80.8673 18.7616 81.3249 18.7616V18.3872C80.4929 18.2208 79.9937 17.8048 79.9937 17.0976V12.2304C80.2433 12.272 80.4513 12.272 80.6593 12.3136C81.7409 12.48 82.3649 12.9792 82.8225 13.6032C83.6129 14.6016 84.9441 16.5984 85.7345 17.5136C86.6497 18.5952 87.5649 19.0112 88.6881 19.0112C89.2289 19.0112 89.9361 18.928 90.3521 18.8448V18.512C89.4369 18.4704 88.5633 17.5552 87.8977 16.7648C87.2321 15.9328 85.5681 13.6032 84.9857 12.896C84.4865 12.3136 83.9873 12.0224 83.9873 12.0224C86.1505 11.4816 87.5649 10.2336 87.5649 8.32C87.6481 5.9072 85.7345 4.4928 82.3649 4.4928ZM127.126 4.4928C126.336 4.4928 124.381 4.6176 123.674 4.6176C123.258 4.6176 121.76 4.576 121.261 4.576V4.9504C122.134 5.1168 122.509 5.5328 122.509 6.1984V17.0976C122.509 17.8464 122.051 18.2624 121.261 18.3872V18.7616C121.718 18.7616 123.258 18.72 123.632 18.72C124.09 18.72 125.629 18.7616 126.086 18.7616V18.3872C125.254 18.2208 124.755 17.8048 124.755 17.0976V12.2304C125.005 12.272 125.213 12.272 125.421 12.3136C126.502 12.48 127.085 12.9792 127.584 13.6032C128.374 14.6016 129.706 16.5984 130.496 17.5136C131.37 18.5952 132.327 19.0112 133.491 19.0112C134.032 19.0112 134.739 18.928 135.155 18.8448V18.512C134.24 18.4704 133.367 17.5552 132.701 16.7648C132.035 15.9328 130.371 13.6032 129.789 12.896C129.29 12.3136 128.79 12.0224 128.79 12.0224C130.954 11.4816 132.368 10.2336 132.368 8.32C132.41 5.9072 130.538 4.4928 127.126 4.4928ZM42.2209 4.576V4.9504C42.9281 5.1168 43.3441 5.4496 43.3441 6.1568V17.1808C43.3441 17.9296 42.8865 18.2208 42.2209 18.3872V18.7616C42.5537 18.7616 44.0929 18.72 44.4257 18.72C44.8417 18.72 46.4225 18.7616 46.7553 18.7616V18.3872C46.0481 18.2208 45.5905 17.9296 45.5905 17.1808V11.9808H53.7857V17.1808C53.7857 17.9296 53.3281 18.2208 52.6625 18.3872V18.7616C52.9953 18.7616 54.5761 18.72 54.9921 18.72C55.3665 18.72 56.9057 18.7616 57.2385 18.7616V18.3872C56.5313 18.2208 56.0737 17.888 56.0737 17.1808V6.1568C56.0737 5.408 56.5729 5.1168 57.2385 4.9504V4.576C56.9057 4.576 55.3665 4.6176 54.9921 4.6176C54.5761 4.6176 53.0369 4.576 52.6625 4.576V4.9504C53.3697 5.1168 53.7857 5.408 53.7857 6.1568V10.7744H45.6321V6.1568C45.6321 5.408 46.1313 5.1168 46.7969 4.9504V4.576C46.4641 4.576 44.8833 4.6176 44.4673 4.6176C44.0929 4.6176 42.5953 4.576 42.2209 4.576ZM89.9361 4.576V4.992C90.7265 5.1584 91.2257 5.6576 91.5169 6.3648L97.1329 18.8448H98.2977L103.373 6.8224C103.872 5.6992 104.371 5.2 105.245 4.9504V4.576C104.746 4.576 103.414 4.6176 103.082 4.6176C102.707 4.6176 101.626 4.576 101.168 4.576V4.9504C101.75 5.0752 102.166 5.3664 102.166 5.824C102.166 6.24 101.958 6.7392 101.709 7.4048L98.2561 15.7664L94.5953 7.4464C94.2209 6.5728 94.0129 6.1152 94.0129 5.7824C94.0129 5.3248 94.5537 5.0336 95.0113 4.9504V4.576C94.5121 4.576 92.8897 4.6176 92.5153 4.6176C92.1409 4.6592 90.4353 4.6176 89.9361 4.576ZM143.184 5.408C147.136 5.408 149.466 7.9872 149.466 11.6896C149.466 15.2672 147.261 17.8048 143.018 17.8048C142.269 17.8048 141.312 17.7632 140.813 17.6384V5.5328C141.354 5.4912 142.352 5.408 143.184 5.408ZM81.6993 5.408C84.0289 5.408 85.3185 6.5728 85.3185 8.528C85.3185 9.8592 84.4865 11.3984 81.8241 11.3984C81.1585 11.3984 80.4929 11.3568 80.0353 11.3152V5.5744C80.4929 5.4912 81.2001 5.408 81.6993 5.408ZM126.461 5.408C128.79 5.408 130.08 6.5728 130.08 8.528C130.08 9.8592 129.248 11.3984 126.586 11.3984C125.92 11.3984 125.254 11.3568 124.797 11.3152V5.5744C125.296 5.4912 125.962 5.408 126.461 5.408ZM66.2241 7.8208L68.4705 13.104H64.1025L66.2241 7.8208ZM111.277 7.8208L113.523 13.104H109.155L111.277 7.8208ZM111.318 25.2928C109.779 25.2928 108.822 26.0832 108.822 27.3312C108.822 28.6624 110.237 29.2864 110.944 29.6192C111.901 30.1184 112.691 30.4928 112.691 31.3248C112.691 32.1152 112.067 32.5728 111.069 32.5728C110.611 32.5728 110.07 32.448 109.738 32.1984C109.405 31.9904 109.155 31.5744 109.03 31.1584H108.822L108.864 32.7392C109.405 32.8224 110.029 33.1136 111.11 33.1136C112.858 33.1136 113.856 32.24 113.856 30.992C113.856 29.7024 112.733 29.12 111.693 28.6624C110.778 28.2464 109.946 27.8304 109.946 26.9984C109.946 26.416 110.32 25.8336 111.318 25.8336C112.234 25.8336 113.024 26.1664 113.315 27.04H113.523V25.5008C112.816 25.5424 112.317 25.2928 111.318 25.2928ZM98.0897 25.3344C97.9649 25.4176 97.6737 25.4176 97.5489 25.4176H92.8897V25.6256C93.3473 25.7088 93.5553 25.9168 93.5553 26.2912V32.032C93.5553 32.448 93.3057 32.656 92.8897 32.7392V32.9472C93.1393 32.9472 93.9713 32.9056 94.1793 32.9056H96.5089C97.3409 32.9056 97.7569 32.9056 98.4641 32.9888L98.6721 31.4496L98.4641 31.408C98.2145 31.9904 97.9649 32.3648 96.9665 32.3648H94.7617V29.2864H96.3425C96.5505 29.2864 96.8417 29.328 96.9665 29.328C97.2993 29.4112 97.4241 29.6192 97.5489 29.952H97.7569C97.7569 29.7024 97.7569 29.1616 97.7569 28.9952C97.7569 28.8288 97.7569 28.3296 97.7569 28.08H97.5489C97.4657 28.3712 97.3409 28.5792 96.9665 28.6624C96.8417 28.704 96.5921 28.704 96.3425 28.704H94.7617V26.0832H96.8001C97.7153 26.0832 97.8817 26.4576 98.0481 26.9568H98.2561L98.2977 25.4592L98.0897 25.3344ZM119.347 25.376V26.9152H119.555C119.763 26.2496 120.138 26.0832 120.637 26.0832H122.259V32.032C122.259 32.448 122.051 32.6144 121.594 32.7392V32.9472C121.843 32.9472 122.717 32.9056 122.883 32.9056C123.133 32.9056 123.923 32.9472 124.173 32.9472V32.7392C123.715 32.656 123.507 32.448 123.507 32.032V26.0832H125.088C125.587 26.0832 125.962 26.2496 126.17 26.9152H126.378V25.376C125.837 25.4176 125.463 25.4592 122.883 25.4592C120.263 25.4592 119.847 25.4176 119.347 25.376ZM103.622 25.376C103.206 25.376 102.166 25.4176 101.792 25.4176C101.584 25.4176 100.794 25.376 100.544 25.376V25.584C101.002 25.6672 101.21 25.8752 101.21 26.2496V31.9904C101.21 32.4064 100.96 32.6144 100.544 32.6976V32.9056C100.794 32.9056 101.584 32.864 101.792 32.864C102.042 32.864 102.832 32.9056 103.082 32.9056V32.7392C102.624 32.656 102.374 32.448 102.374 32.032V29.4528C102.499 29.4528 102.624 29.4944 102.707 29.4944C103.29 29.5776 103.581 29.8688 103.872 30.16C104.288 30.7008 104.954 31.6992 105.37 32.1984C105.827 32.7808 106.326 32.9888 106.95 32.9888C107.242 32.9888 107.616 32.9472 107.824 32.9056V32.7392C107.325 32.6976 106.867 32.24 106.534 31.824C106.16 31.408 105.328 30.16 104.995 29.7856C104.746 29.4944 104.454 29.328 104.454 29.328C105.619 29.0368 106.326 28.3712 106.326 27.3728C106.451 26.1248 105.453 25.376 103.622 25.376ZM60.7329 25.4176V25.6256C61.1489 25.7088 61.3569 25.9584 61.3569 26.2912V30.4096C61.3569 32.0736 62.4385 33.0304 64.5185 33.0304C66.7649 33.0304 67.8049 31.9904 67.8049 30.2432V26.2912C67.8049 25.9584 68.0129 25.7504 68.4705 25.6672V25.4592C68.3041 25.4592 67.5969 25.5008 67.4305 25.5008C67.2225 25.5008 66.5569 25.4592 66.3905 25.4592V25.6672C66.8481 25.7504 67.0561 26 67.0561 26.2912V30.4928C67.0561 31.824 66.0577 32.4064 64.7681 32.4064C63.2705 32.4064 62.5633 31.6576 62.5633 30.368V26.2912C62.5633 25.9584 62.7713 25.7088 63.1873 25.6256V25.4176C62.9377 25.4176 62.1889 25.4592 61.9809 25.4592C61.7313 25.4592 60.9825 25.4176 60.7329 25.4176ZM70.2593 25.4176V25.6256C70.6753 25.7504 70.9665 25.9584 70.9665 26.416V32.032C70.9665 32.3232 70.7585 32.5728 70.3009 32.656V32.864C70.4673 32.864 71.1329 32.8224 71.3409 32.8224C71.5489 32.8224 72.1729 32.864 72.3809 32.864V32.7392C71.9233 32.656 71.7153 32.4064 71.7153 32.1152V27.1648L76.0833 32.24C76.6241 32.8224 76.9569 33.0304 77.1649 33.072H77.4561V26.2912C77.4561 25.9584 77.6641 25.7504 78.1633 25.6672V25.4592C77.9969 25.4592 77.3313 25.5008 77.1233 25.5008C76.9153 25.5008 76.2913 25.4592 76.0833 25.4592V25.6672C76.5409 25.7504 76.7489 26 76.7489 26.2912V31.2L71.8401 25.4176C71.6321 25.4592 71.3409 25.4592 71.1329 25.4592C70.9249 25.4592 70.5089 25.4592 70.2593 25.4176ZM83.8209 25.4176V25.6256C84.2369 25.7088 84.4865 26 84.6529 26.3328L87.6065 32.9056H88.2305L90.9345 26.5824C91.1841 26 91.4753 25.7504 91.9329 25.6256V25.4176C91.6833 25.4176 90.9761 25.4592 90.8097 25.4592C90.6433 25.4592 90.0193 25.4176 89.7697 25.4176V25.6256C90.0609 25.6672 90.2689 25.8336 90.2689 26.0832C90.2689 26.2912 90.1441 26.5824 90.0193 26.9152L88.1889 31.3248L86.2753 26.9152C86.0673 26.4576 85.9425 26.208 85.9425 26.0416C85.9425 25.792 86.2337 25.6672 86.4417 25.6256V25.4176C86.1505 25.4176 85.3601 25.4592 85.1937 25.4592C84.9857 25.4592 84.0705 25.4176 83.8209 25.4176ZM126.877 25.4176V25.6256C127.251 25.7504 127.501 26.0416 127.834 26.624L129.747 29.7024V32.0736C129.747 32.3232 129.539 32.656 129.082 32.7392V32.9472C129.373 32.9472 130.122 32.9056 130.288 32.9056C130.538 32.9056 131.328 32.9472 131.536 32.9472V32.7392C131.12 32.656 130.912 32.3232 130.912 32.0736V29.7024L132.576 26.8736C132.909 26.3328 133.242 25.8336 133.783 25.6256V25.4176C133.533 25.4176 132.951 25.4592 132.826 25.4592C132.659 25.4592 132.16 25.4176 131.91 25.4176V25.6256C132.16 25.6672 132.243 25.792 132.243 25.9168C132.243 26.0832 132.16 26.3328 131.994 26.5824L130.579 28.9952C130.579 28.9952 129.206 26.7488 129.123 26.5824C128.999 26.3744 128.874 26.1664 128.874 26C128.874 25.792 128.999 25.6672 129.248 25.6256V25.4176C128.957 25.4176 128.167 25.4592 127.958 25.4592C127.875 25.4592 127.126 25.4176 126.877 25.4176ZM80.2849 25.4592V25.6672C80.7425 25.7504 80.9505 25.9584 80.9505 26.3744V32.0736C80.9505 32.4896 80.7425 32.656 80.2849 32.7808V32.9888C80.5345 32.9888 81.3665 32.9472 81.5745 32.9472C81.8241 32.9472 82.6145 32.9888 82.8641 32.9888V32.7392C82.4065 32.656 82.1985 32.448 82.1985 32.032V26.3328C82.1985 25.9168 82.4481 25.7504 82.8641 25.6256V25.4176C82.6145 25.4176 81.7825 25.4592 81.5745 25.4592C81.3249 25.4592 80.5345 25.4592 80.2849 25.4592ZM115.645 25.4592V25.6672C116.102 25.7504 116.31 25.9584 116.31 26.3744V32.0736C116.31 32.4896 116.102 32.656 115.645 32.7808V32.9888C115.894 32.9888 116.726 32.9472 116.934 32.9472C117.184 32.9472 117.974 32.9888 118.224 32.9888V32.7392C117.766 32.656 117.558 32.448 117.558 32.032V26.3328C117.558 25.9168 117.808 25.7504 118.224 25.6256V25.4176C117.974 25.4176 117.142 25.4592 116.934 25.4592C116.726 25.4592 115.894 25.4592 115.645 25.4592ZM103.29 25.8752C104.538 25.8752 105.203 26.4992 105.203 27.4976C105.203 28.2048 104.746 29.0368 103.373 29.0368C103.04 29.0368 102.666 29.0368 102.416 28.9952V25.9584C102.666 25.9168 103.04 25.8752 103.29 25.8752Z" fill="white"/>
<path d="M0.621094 0.624001V12.2304C1.20349 22.0896 5.40509 28.4128 8.81629 31.9904C12.2691 35.6096 15.6803 37.1904 16.1379 37.3984C29.9491 28.6208 31.4467 16.8896 31.4467 12.272V0.665597L0.621094 0.624001Z" fill="#A51C30"/>
<path d="M27.7445 4.03519C26.8709 4.74239 25.6229 4.40959 25.6229 4.40959C24.4581 4.36799 24.0837 4.45119 24.0837 4.45119C23.8341 4.82559 23.3765 4.4928 23.3765 4.4928C23.2933 4.4096 22.9605 4.40959 22.9605 4.40959C20.6309 4.57599 20.0069 4.16 20.0069 4.16C19.9237 4.0768 19.5077 4.0768 19.5077 4.0768C19.4661 4.16 19.2581 4.40959 19.2581 4.40959C19.1749 4.49279 18.3429 4.45119 18.3429 4.45119C17.8853 4.40959 17.8437 4.7008 17.8437 4.7008L17.8021 5.7408C17.8437 6.3648 17.6773 6.24 17.6773 6.24C17.5525 6.40639 16.8453 6.3648 16.8453 6.3648C16.2629 6.4064 16.3461 7.27999 16.3461 7.27999C16.4293 7.86239 17.3029 7.65439 17.3029 7.65439C17.8853 7.69599 17.8021 8.0288 17.8021 8.0288C17.7605 8.2784 17.8437 11.6064 17.8437 11.6064C17.8021 12.1056 17.4277 11.8976 17.4277 11.8976C16.2213 11.856 16.3877 12.688 16.3877 12.688C16.4293 13.4784 17.3029 13.3536 17.3029 13.3536C17.8853 13.3536 17.8437 13.6864 17.8437 13.6864C17.8853 13.7696 17.8021 14.976 17.8021 14.976C17.8853 15.5584 18.4261 15.392 18.4261 15.392L22.7525 15.5168C24.0005 16.432 24.2917 15.5584 24.2917 15.5584C24.3333 15.4752 24.5413 15.4752 24.5413 15.4752C24.8741 15.5584 28.7845 15.5168 28.8677 15.5168C29.5749 15.6832 29.5749 15.0176 29.5749 15.0176L29.6165 13.728C29.6581 13.4784 30.0325 13.4368 30.0325 13.4368C31.1973 13.6032 31.1141 12.6464 31.1141 12.6464C31.0725 11.8976 30.2821 11.9392 30.2821 11.9392C29.6581 11.9808 29.6997 11.5232 29.6997 11.5232C29.7413 11.1904 29.7413 8.27839 29.7413 8.27839C29.6997 8.11199 29.9077 7.8208 29.9077 7.8208C31.3221 7.9456 31.0725 7.03039 31.0725 7.03039C31.1973 6.23999 30.3237 6.40639 30.3237 6.40639C29.5749 6.40639 29.7413 5.99039 29.7413 5.99039C29.8661 4.99199 29.6165 4.61759 29.6165 4.61759C29.4917 4.45119 28.7013 4.53439 28.7013 4.53439C28.4517 4.70079 28.0773 4.11839 28.0773 4.11839L27.7445 4.03519ZM12.4357 4.03519C11.5621 4.74239 10.3141 4.40959 10.3141 4.40959C9.14931 4.36799 8.77491 4.45119 8.77491 4.45119C8.52531 4.82559 8.06771 4.4928 8.06771 4.4928C7.98451 4.4096 7.65171 4.40959 7.65171 4.40959C5.32211 4.57599 4.69811 4.16 4.69811 4.16C4.61491 4.0768 4.19891 4.0768 4.19891 4.0768C4.15731 4.16 3.94931 4.40959 3.94931 4.40959C3.82451 4.49279 3.03411 4.45119 3.03411 4.45119C2.61811 4.40959 2.53491 4.7008 2.53491 4.7008L2.49331 5.7408C2.53491 6.3648 2.36851 6.24 2.36851 6.24C2.24371 6.40639 1.53651 6.3648 1.53651 6.3648C0.954111 6.4064 1.03731 7.27999 1.03731 7.27999C1.12051 7.86239 1.99411 7.65439 1.99411 7.65439C2.57651 7.69599 2.49331 8.0288 2.49331 8.0288C2.45171 8.2784 2.53491 11.648 2.53491 11.648C2.49331 12.1472 2.11891 11.9392 2.11891 11.9392C0.912511 11.8976 1.07891 12.7296 1.07891 12.7296C1.12051 13.52 1.99411 13.3952 1.99411 13.3952C2.57651 13.3952 2.53491 13.728 2.53491 13.728C2.57651 13.8112 2.49331 15.0176 2.49331 15.0176C2.57651 15.6 3.11731 15.4336 3.11731 15.4336L7.44371 15.5168C8.69171 16.432 8.98291 15.5584 8.98291 15.5584C9.02451 15.4752 9.23251 15.4752 9.23251 15.4752C9.56531 15.5584 13.4757 15.5168 13.5589 15.5168C14.2661 15.6832 14.2661 15.0176 14.2661 15.0176L14.3077 13.728C14.3493 13.4784 14.7237 13.4368 14.7237 13.4368C15.8885 13.6032 15.8053 12.6464 15.8053 12.6464C15.7637 11.8976 14.9733 11.9392 14.9733 11.9392C14.3493 11.9808 14.3909 11.5232 14.3909 11.5232C14.4325 11.1904 14.4325 8.27839 14.4325 8.27839C14.3909 8.11199 14.5989 7.8208 14.5989 7.8208C16.0133 7.9456 15.7637 7.03039 15.7637 7.03039C15.8469 6.23999 15.0149 6.40639 15.0149 6.40639C14.2661 6.40639 14.4325 5.99039 14.4325 5.99039C14.5573 4.99199 14.3077 4.61759 14.3077 4.61759C14.1829 4.45119 13.3925 4.53439 13.3925 4.53439C13.1429 4.70079 12.7685 4.11839 12.7685 4.11839L12.4357 4.03519ZM10.6885 19.0944C10.5221 19.0944 10.3557 19.4272 10.3557 19.4272C10.1061 19.8432 9.27411 19.5936 9.27411 19.5936C8.65011 19.76 8.73331 20.0928 8.73331 20.0928L8.77491 21.3408C8.73331 21.6736 8.27571 21.5488 8.27571 21.5488C7.44371 21.3824 7.15251 21.9232 7.15251 21.9232C6.98611 22.1728 7.11091 22.5056 7.11091 22.5056C7.23571 23.0048 7.85971 22.9632 7.85971 22.9632C8.10931 23.1296 8.44211 23.0048 8.44211 23.0048C8.77491 23.0048 8.69171 23.3792 8.69171 23.3792C8.73331 23.5872 8.65011 26.624 8.65011 26.624C8.65011 26.8736 8.60851 27.04 8.60851 27.04C8.60851 27.2896 7.77651 27.1232 7.77651 27.1232C7.23571 27.1648 7.06931 27.7056 7.06931 27.7056C6.90291 28.08 7.44371 28.4544 7.44371 28.4544C7.48531 28.5376 8.48371 28.6208 8.48371 28.6208C8.73331 28.6624 8.73331 29.0368 8.73331 29.0368C8.69171 29.2032 8.81651 30.4928 8.81651 30.4928C8.89971 30.8256 9.89811 30.7424 9.89811 30.7424C9.89811 30.7424 14.6405 30.6592 14.7237 30.7008C14.8069 30.7424 15.0981 30.6592 15.0981 30.6592L15.4725 30.9504C15.9301 31.3248 16.5125 30.8256 16.5125 30.8256L17.0117 30.7424C17.1781 30.784 21.5461 30.7008 21.5461 30.7008C21.9205 30.784 22.0869 30.6592 22.0869 30.6592L22.7941 30.6176C23.2933 30.6176 23.2517 29.9936 23.2517 29.9936V29.0784C23.2933 28.5792 23.5429 28.5792 23.5429 28.5792L24.2085 28.4544L24.4997 28.288C24.9157 28.1632 24.7077 27.4144 24.7077 27.4144C24.4581 26.9568 23.6677 27.04 23.6677 27.04C23.1269 27.0816 23.1685 26.7488 23.1685 26.7488L23.2517 23.3792C23.2933 23.088 23.4597 22.88 23.4597 22.88C23.6261 22.9216 24.1669 22.7552 24.1669 22.7552C24.7077 22.6304 24.6661 22.1312 24.6661 22.1312C24.7493 21.7568 24.1253 21.5072 24.1253 21.5072H23.3765C23.1269 21.4656 23.2101 20.5088 23.2101 20.5088V20.0512C23.2517 19.6768 22.7109 19.5104 22.7109 19.5104L21.7541 19.552C21.6709 19.3856 21.2965 19.3024 21.2965 19.3024C21.1301 19.2192 20.8389 19.2192 20.8389 19.2192C20.1317 19.7184 18.4677 19.5936 18.4677 19.5936L16.7621 19.4688L16.1381 19.5936C16.0965 19.7184 15.8885 19.8016 15.8885 19.8016L15.7221 19.76C15.5557 19.5936 15.0149 19.5104 15.0149 19.5104C14.9733 19.4272 12.6437 19.5936 12.6437 19.5936C11.3125 19.6352 10.8133 19.1776 10.8133 19.1776C10.8133 19.0944 10.7717 19.0944 10.6885 19.0944Z" fill="black"/>
<path d="M4.78028 4.4928C4.78028 4.4928 4.48908 4.53439 4.48908 4.74239L4.40588 12.9792C4.40588 12.9792 4.36428 13.3536 5.02988 13.4368C5.02988 13.4368 5.77868 13.52 5.94508 13.4368C5.94508 13.4368 6.44428 13.3952 7.69228 13.4784C7.69228 13.4784 7.98348 13.7696 8.02508 13.3952C8.02508 13.3952 8.23308 6.6976 8.10828 5.3248C8.10828 5.3248 8.06668 4.7424 7.65068 4.7008C7.65068 4.7008 5.69548 4.8672 5.52908 4.7008L4.78028 4.4928ZM20.0475 4.4928C20.0475 4.4928 19.7563 4.53439 19.7563 4.74239L19.6731 12.9792C19.6731 12.9792 19.6315 13.3536 20.2971 13.4368C20.2971 13.4368 21.0459 13.52 21.2123 13.4368C21.2123 13.4368 21.7115 13.3952 22.9595 13.4784C22.9595 13.4784 23.2507 13.7696 23.2923 13.3952C23.2923 13.3952 23.5003 6.6976 23.3755 5.3248C23.3755 5.3248 23.3339 4.7424 22.9179 4.7008C22.9179 4.7008 20.9627 4.8672 20.7963 4.7008L20.0475 4.4928ZM12.1851 4.4928C12.1019 4.4928 12.0187 4.5344 11.9355 4.576C11.9355 4.576 11.9771 4.784 9.56428 4.7008C9.56428 4.7008 8.64908 4.6592 8.60748 5.0752C8.60748 5.0752 8.52428 8.944 8.56588 9.0688L8.52428 12.3136L8.39948 13.4368C8.39948 13.4368 8.56588 13.6864 8.69068 13.52C8.69068 13.52 9.52268 13.312 10.0219 13.3952C10.0219 13.3952 11.6859 13.5616 12.0187 13.312C12.0187 13.312 12.2683 13.4368 12.3515 13.0208C12.3515 13.0208 12.4347 5.824 12.3931 5.6992C12.3931 5.6992 12.4763 4.6592 12.4347 4.576C12.3931 4.6176 12.3515 4.4928 12.1851 4.4928ZM27.4523 4.53439C27.3691 4.53439 27.2859 4.57599 27.2027 4.61759C27.2027 4.61759 27.2443 4.82559 24.8315 4.74239C24.8315 4.74239 23.9163 4.7008 23.8747 5.1168C23.8747 5.1168 23.7915 8.98559 23.8331 9.11039L23.7915 12.3552L23.6667 13.4784C23.6667 13.4784 23.8331 13.728 23.9579 13.5616C23.9579 13.5616 24.7899 13.3536 25.2891 13.4368C25.2891 13.4368 26.9531 13.6032 27.2859 13.312C27.2859 13.312 27.5355 13.4368 27.6187 13.0208C27.6187 13.0208 27.7019 5.824 27.6603 5.6992C27.6603 5.6992 27.7435 4.6592 27.7019 4.576C27.6603 4.6592 27.6603 4.49279 27.4523 4.53439ZM3.36588 4.74239C3.24108 4.74239 3.11628 4.8256 2.90828 4.992L2.86668 6.032C2.86668 6.032 2.86668 6.61439 2.32588 6.61439C2.32588 6.61439 1.70188 6.5728 1.41068 6.864C1.41068 6.864 1.24428 7.44639 1.82668 7.32159C1.82668 7.32159 2.74188 7.3216 2.78348 7.696L2.74188 11.5648C2.74188 11.5648 2.94988 12.1888 2.24268 12.1888C2.24268 12.1888 1.36908 12.1472 1.41068 12.688C1.41068 12.688 1.57708 13.1456 2.32588 12.9792C2.32588 12.9792 2.86668 13.0624 2.82508 13.6032V14.6016C2.82508 14.6016 2.78348 14.976 3.28268 15.0176H7.27628C7.27628 15.0176 7.48428 15.0592 7.48428 14.768C7.48428 14.768 7.44268 14.56 7.15148 14.56L3.82348 14.5184C3.82348 14.5184 3.28268 14.6848 3.24108 13.8944C3.24108 13.8944 3.28268 6.656 3.28268 6.5312C3.24108 6.4064 3.32428 6.61439 3.32428 6.61439C3.32428 6.61439 3.24108 5.36639 3.57388 4.82559C3.57388 4.90879 3.53228 4.74239 3.36588 4.74239ZM18.6331 4.74239C18.5083 4.74239 18.3835 4.8256 18.1339 4.992L18.0923 6.032C18.0923 6.032 18.0923 6.61439 17.5515 6.61439C17.5515 6.61439 16.9275 6.5728 16.6363 6.864C16.6363 6.864 16.4699 7.44639 17.0523 7.32159C17.0523 7.32159 17.9675 7.3216 18.0091 7.696L17.9675 11.5648C17.9675 11.5648 18.1755 12.1888 17.4683 12.1888C17.4683 12.1888 16.5947 12.1472 16.6363 12.688C16.6363 12.688 16.8027 13.1456 17.5515 12.9792C17.5515 12.9792 18.0923 13.0624 18.0507 13.6032V14.56C18.0507 14.56 18.0091 14.9344 18.5083 14.976H22.5019C22.5019 14.976 22.7099 15.0176 22.7099 14.7264C22.7099 14.7264 22.6683 14.5184 22.3771 14.5184L19.0491 14.4768C19.0491 14.4768 18.5083 14.6432 18.4667 13.8528C18.4667 13.8528 18.5083 6.61439 18.5083 6.48959C18.4667 6.36479 18.5499 6.61439 18.5499 6.61439C18.5499 6.61439 18.4667 5.36639 18.7995 4.82559C18.8411 4.90879 18.7995 4.74239 18.6331 4.74239ZM13.6827 4.784C13.3915 4.7424 13.3915 5.0752 13.3915 5.0752C13.4747 5.1584 13.5579 5.5328 13.5579 5.5328C13.5995 6.4064 13.5579 7.4048 13.5579 8.32C13.5579 11.3984 13.4331 14.1856 13.4331 14.1856C13.4331 14.8096 13.1003 14.6432 13.1003 14.6432L9.48108 14.6848C9.10668 14.6848 9.10668 14.8928 9.10668 14.8928C9.14828 15.184 9.52268 15.0592 9.52268 15.0592C9.85548 15.1424 13.4331 15.1008 13.4331 15.1008C13.9739 15.184 13.9323 14.4768 13.9323 14.4768C14.0155 13.2704 14.0987 13.1456 14.0987 13.1456C14.2235 13.0624 14.8059 13.0624 14.8059 13.0624C15.7627 13.104 15.3051 12.48 15.3051 12.48C15.1803 12.272 14.5563 12.3136 14.5563 12.3136C13.9323 12.3552 13.9739 11.6896 13.9739 11.6896L14.0571 7.94559C13.9739 7.65439 14.2235 7.488 14.2235 7.488H14.8059C15.6379 7.5296 15.4299 7.03039 15.4299 7.03039C15.3883 6.78079 14.7227 6.656 14.7227 6.656C14.0155 6.7392 14.0987 6.3648 14.0987 6.3648L14.0571 5.44959C14.1403 4.86719 13.7659 4.82559 13.7659 4.82559L13.6827 4.784ZM28.9499 4.784C28.6587 4.7424 28.6587 5.0752 28.6587 5.0752C28.7419 5.1584 28.8251 5.5328 28.8251 5.5328C28.8667 6.4064 28.8251 7.4048 28.8251 8.32C28.8251 11.3984 28.7003 14.1856 28.7003 14.1856C28.7003 14.8096 28.3675 14.6016 28.3675 14.6016L24.7899 14.6432C24.4155 14.6432 24.4155 14.8512 24.4155 14.8512C24.4571 15.1424 24.8315 15.0176 24.8315 15.0176C25.1643 15.1008 28.7419 15.0592 28.7419 15.0592C29.2827 15.1424 29.2411 14.4352 29.2411 14.4352C29.3243 13.2288 29.4075 13.104 29.4075 13.104C29.5323 12.9792 30.1147 13.0208 30.1147 13.0208C31.0715 13.0624 30.6139 12.4384 30.6139 12.4384C30.4891 12.2304 29.8651 12.272 29.8651 12.272C29.2411 12.3136 29.2827 11.648 29.2827 11.648L29.3659 7.904C29.2827 7.6128 29.5323 7.44639 29.5323 7.44639H30.1147C30.9467 7.48799 30.7387 6.9888 30.7387 6.9888C30.6971 6.7392 30.0315 6.61439 30.0315 6.61439C29.3243 6.73919 29.4075 6.3232 29.4075 6.3232L29.3659 5.408C29.4491 4.8256 29.0747 4.784 29.0747 4.784H28.9499ZM12.8507 4.8672C12.7675 4.8672 12.7259 4.90879 12.6427 5.03359L12.6011 13.1456C12.6011 13.1456 12.8091 13.8528 13.1419 13.7696C13.1419 13.7696 13.1835 13.6032 13.2251 13.3536L13.3083 5.616C13.3083 5.6576 13.1419 4.8256 12.8507 4.8672ZM28.1595 4.8672C28.0763 4.8672 28.0347 4.90879 27.9515 5.03359L27.9099 13.1456C27.9099 13.1456 28.1179 13.8528 28.4507 13.8112C28.4507 13.8112 28.4923 13.6448 28.5339 13.3952L28.6171 5.65759C28.6171 5.65759 28.4507 4.8256 28.1595 4.8672ZM19.3819 4.95039C18.8827 4.90879 18.8411 5.86559 18.8411 5.86559L18.7995 13.5616C18.8411 13.936 18.9659 13.8528 18.9659 13.8528C19.4651 13.5616 19.3819 13.0208 19.3819 13.0208C19.3819 13.0208 19.4651 5.7408 19.4651 5.616C19.4235 5.4496 19.3819 4.95039 19.3819 4.95039ZM4.11468 4.95039C3.61548 4.90879 3.57388 5.86559 3.57388 5.86559L3.53228 13.5616C3.57388 13.936 3.69868 13.8528 3.69868 13.8528C4.19788 13.5616 4.11468 13.0208 4.11468 13.0208C4.11468 13.0208 4.19788 5.7408 4.19788 5.616C4.15628 5.4496 4.11468 4.95039 4.11468 4.95039ZM19.7563 13.6032C19.6731 13.6032 19.5067 13.6032 19.2987 13.936C19.2987 13.936 19.2155 14.3104 19.5899 14.2272H22.2523L22.9595 14.3936C22.9595 14.3936 23.7083 14.2272 22.9595 13.8112C22.9595 13.8112 20.5883 13.8528 20.3803 13.7696C20.3803 13.7696 19.8811 13.6448 19.7979 13.6032H19.7563ZM4.40588 13.6448C4.32268 13.6448 4.11468 13.6448 3.94828 13.9776C3.94828 13.9776 3.86508 14.352 4.23948 14.2688H6.90188L7.60908 14.4352C7.60908 14.4352 8.35788 14.2688 7.60908 13.8528C7.60908 13.8528 5.23788 13.8944 5.02988 13.8112C5.02988 13.8112 4.53068 13.6864 4.44748 13.6448H4.40588ZM27.8267 13.6864C27.6603 13.6864 27.4523 13.728 27.4523 13.728C27.0363 14.0192 24.4571 13.8112 24.4571 13.8112C24.2907 13.8112 24.0827 14.0608 24.0827 14.0608C23.9995 14.5184 24.7899 14.352 24.7899 14.352C24.9563 14.352 27.8267 14.3104 27.8267 14.3104C28.2843 14.4352 28.3259 14.2272 28.3259 14.2272C28.3259 14.0608 27.9515 13.728 27.9515 13.728L27.8267 13.6864ZM12.4763 13.728C12.3099 13.728 12.1019 13.7696 12.1019 13.7696C11.6859 14.0608 9.10668 13.8528 9.10668 13.8528C8.94028 13.8528 8.73228 14.1024 8.73228 14.1024C8.64908 14.56 9.43948 14.3936 9.43948 14.3936C9.60588 14.3936 12.5179 14.352 12.5179 14.352C12.9755 14.4768 13.0171 14.2272 13.0171 14.2272C13.0171 14.0608 12.6427 13.728 12.6427 13.728H12.4763ZM23.7915 14.2688H23.7083C23.7083 14.2688 23.2091 14.2688 23.2507 14.8928C23.2507 14.8928 23.2923 15.392 23.8331 15.392C23.8331 15.392 24.2907 15.3088 24.2491 14.8096C24.2075 14.8512 23.9995 14.352 23.7915 14.2688ZM8.44108 14.352H8.35788C8.35788 14.352 7.85868 14.352 7.90028 14.976C7.90028 14.976 7.94188 15.4752 8.48268 15.4752C8.48268 15.4752 8.94028 15.392 8.89868 14.8928C8.85708 14.8928 8.64908 14.3936 8.44108 14.352ZM20.8379 19.5936C19.6731 20.176 19.5899 19.8432 19.2155 19.9264C18.8411 20.0096 17.4267 19.9264 17.3435 19.8848C17.2187 19.8432 16.5947 19.9264 16.5947 19.9264C16.1787 19.968 16.0955 20.3008 16.0955 20.3008L16.0539 22.0064L15.9707 22.3808L15.8043 22.5056L15.6379 22.0064L15.6795 20.4256C15.5131 19.8432 15.0139 19.968 15.0139 19.968C14.6811 19.8848 13.3499 19.968 13.3499 19.968C12.7675 20.0512 12.1435 19.9264 12.1435 19.9264C11.3115 20.0512 11.1451 19.76 11.1451 19.76C10.7291 19.5936 10.7291 19.8432 10.7291 19.8432C10.8123 20.0512 10.7707 20.4672 10.7707 20.4672C10.8123 20.6752 10.7291 22.464 10.7291 22.464C10.6875 22.6304 10.7291 24.5856 10.7291 24.5856C10.8123 24.7104 10.6875 28.2464 10.6875 28.2464C10.7707 28.704 11.6443 28.6624 11.6443 28.6624C11.7275 28.7456 15.0139 28.704 15.0139 28.704C15.5547 28.9536 15.5963 28.6624 15.5963 28.6624C15.7211 27.872 15.5963 26.3744 15.6379 26.0832C15.7211 25.5008 15.6795 24.8768 15.6795 24.8768L15.9291 24.8352L15.9707 26.1248C16.0539 27.2896 15.9707 28.496 15.9707 28.496C15.9707 28.8288 16.0955 28.8704 16.0955 28.8704C16.7195 28.5792 17.2603 28.6208 17.2603 28.6208C20.7963 28.704 20.2555 28.6624 20.2555 28.6624C21.1707 28.6208 21.0875 28.0384 21.0875 28.0384L21.0459 26.7488C21.1291 26.4576 21.1291 22.464 21.1291 22.464C21.0043 22.048 21.1291 19.8848 21.1291 19.8848C21.1291 19.6352 20.8379 19.5936 20.8379 19.5936ZM22.5435 19.9264C22.4187 19.9264 22.2939 19.968 22.2939 19.968C22.2939 19.968 22.3355 19.968 22.2523 19.9264C22.1691 19.8848 22.1691 20.0928 22.1691 20.0928C22.5019 20.4256 22.4187 20.9664 22.4187 20.9664C22.3771 27.8304 22.4187 28.08 22.4187 28.08L22.3355 28.3296C22.3355 28.3296 22.2939 29.0368 22.2939 29.2448C22.2939 29.4528 22.1691 29.6192 22.1691 29.6192L21.8779 29.7024C21.6699 29.8688 20.3803 29.7856 20.3803 29.7856C20.3803 29.7856 17.3851 29.8688 17.1771 29.8272C16.9691 29.7856 16.6779 29.9104 16.6779 29.9104C16.5947 30.2848 16.9691 30.3264 16.9691 30.3264C17.6763 30.2848 22.0859 30.2848 22.0859 30.2848C22.7931 30.3264 22.8347 29.9936 22.8347 29.9936C22.9595 29.9104 22.8763 29.2864 22.8763 29.2864C22.9179 29.1616 23.0011 28.4544 23.0011 28.4544C22.9179 28.1632 23.9995 28.1632 23.9995 28.1632C24.5819 28.1216 24.3739 27.6224 24.3739 27.6224C24.3739 27.3728 23.5835 27.4144 23.5835 27.4144C22.9595 27.456 22.9595 27.04 22.9595 27.04C22.9595 27.04 23.0427 23.5456 23.0011 23.0464C22.9595 22.5472 23.3755 22.464 23.3755 22.464L23.9995 22.4224C24.4571 22.5056 24.4571 22.048 24.4571 22.048C24.4571 21.84 23.7915 21.7568 23.7915 21.7568C23.5003 21.84 23.3339 21.6736 23.3339 21.6736C22.9595 21.6736 23.0011 20.9248 23.0011 20.9248C23.1675 20.5504 22.9595 19.968 22.9595 19.968C22.8347 19.9264 22.6683 19.9264 22.5435 19.9264ZM9.35628 19.968C9.06508 20.0096 9.06508 21.3408 9.06508 21.3408C9.02348 21.9648 8.48268 21.8816 8.48268 21.8816C7.73388 21.7984 7.48428 22.256 7.48428 22.256C7.44268 22.672 8.19148 22.672 8.19148 22.672C8.31628 22.6304 8.73228 22.6304 8.73228 22.6304C9.18988 22.672 9.10668 23.3376 9.10668 23.3376L9.02348 27.1232C9.14828 27.6224 8.52428 27.5392 8.52428 27.5392C7.65068 27.4976 7.52588 27.872 7.52588 27.872C7.56748 28.4128 8.44108 28.2464 8.44108 28.2464C9.06508 28.3296 9.02348 28.704 9.02348 28.704C9.06508 28.8288 9.06508 29.536 9.06508 29.536C9.06508 30.2848 9.27308 30.3264 9.27308 30.3264C9.35628 30.4928 10.6459 30.4096 10.6459 30.4096C12.5595 30.4928 14.7227 30.2848 14.7227 30.2848C15.0139 30.3264 15.0139 30.16 15.0139 30.16C15.1803 29.952 14.7643 29.8688 14.7643 29.8688C14.4731 29.7856 9.98028 29.9104 9.98028 29.9104C9.52268 30.0768 9.56428 29.4528 9.56428 29.4528V28.08C9.52268 27.872 9.56428 27.248 9.56428 27.248C9.56428 27.248 9.60588 24.0032 9.60588 23.8784C9.56428 23.7536 9.60588 22.6304 9.60588 22.6304L9.64748 20.9248C9.60588 20.8 9.93868 20.2176 9.93868 20.2176C10.0219 19.968 9.35628 19.968 9.35628 19.968ZM21.6283 20.0512C21.5451 20.0512 21.4619 20.0928 21.4619 20.3008L21.4203 28.2048L21.3787 28.3712C21.3787 28.3712 21.6699 28.9536 21.8363 29.0368C21.8363 29.0368 22.1275 29.3696 22.0443 28.7872L22.0859 21.3824C22.0859 21.3824 22.0027 21.1328 22.0859 20.7168L21.7947 20.1344L21.6283 20.0512ZM10.2299 20.0928C9.85548 20.3424 9.85548 20.9248 9.85548 20.9248L9.77228 28.8288C9.77228 29.2448 10.0219 28.9952 10.0219 28.9952C10.4795 28.6624 10.3963 28.1632 10.3963 28.1632L10.4379 20.4256C10.4379 20.0928 10.2299 20.0928 10.2299 20.0928ZM10.6043 28.6624L10.3963 28.8288C9.89708 29.4112 10.2299 29.4528 10.2299 29.4528L10.6875 29.4112L14.8891 29.4528C15.3467 29.536 15.3883 29.2448 15.3883 29.2448C15.4299 29.0368 15.0139 28.9952 15.0139 28.9952L11.5195 28.9536C10.9787 29.0368 10.6043 28.6624 10.6043 28.6624ZM21.2123 28.7456H21.1291C20.9627 28.9952 20.3387 28.9952 20.3387 28.9952C20.3387 28.9952 20.7963 28.912 20.0475 29.0368C19.3403 29.1616 16.9691 28.9952 16.9691 28.9952C16.8027 28.9536 16.3451 29.2448 16.3451 29.2448C16.2619 29.6608 17.0523 29.536 17.0523 29.536C17.1771 29.4944 21.3787 29.4944 21.3787 29.4944C21.8363 29.536 21.7947 29.2448 21.7947 29.2448L21.4203 28.8288L21.2123 28.7456ZM15.8043 29.4528C15.4299 29.536 15.3051 29.952 15.3883 30.2848C15.4715 30.6176 15.7627 30.7008 16.0123 30.6592C16.2619 30.6176 16.2619 30.368 16.2619 29.952C16.2619 29.4944 15.8043 29.4528 15.8043 29.4528Z" fill="white"/>
<path d="M25.2059 7.23839C25.2059 7.23839 24.7067 7.27999 24.7483 7.48799L24.9979 7.98719V10.5248C24.9979 10.5248 24.9147 10.9824 24.6651 11.1072C24.6651 11.1072 24.5819 11.3568 24.8315 11.3984L25.5803 11.3568C25.5803 11.3568 25.8715 11.3984 25.8715 11.1904C25.8715 11.1904 25.6635 10.9408 25.6219 10.816C25.6219 10.816 25.5803 8.36159 25.6219 8.11199L25.7051 7.77919C25.7051 7.77919 25.9963 7.61279 25.8299 7.36319C25.8299 7.36319 25.6635 7.27999 25.4555 7.32159L25.2059 7.23839ZM10.7291 7.23839H10.6459C10.6459 7.23839 9.77227 7.36319 9.64747 7.27999L8.94028 7.36319C8.94028 7.36319 8.85708 7.61279 9.14828 7.73759C9.14828 7.73759 9.23147 7.77919 9.23147 7.90399L9.18987 10.608L9.10667 10.816C9.10667 10.816 8.85707 11.1488 9.02347 11.1904C9.02347 11.1904 8.77387 11.3568 10.6875 11.3568C10.6875 11.3568 11.3947 11.4816 11.2283 10.5664C11.2283 10.5664 11.1451 10.2336 10.8955 10.7328C10.8955 10.7328 10.8123 11.1488 9.89707 11.024C9.89707 11.024 9.68907 10.8576 9.68907 10.6496V9.52639C9.68907 9.52639 9.64747 9.23519 10.1051 9.27679C10.1051 9.27679 10.6043 9.56799 10.6875 9.44319C10.6875 9.44319 10.8539 9.02719 10.6875 8.77759C10.6875 8.77759 10.4379 8.73599 10.4379 8.86079C10.4379 8.86079 10.2715 9.15199 9.85547 8.98559C9.85547 8.98559 9.64748 8.56959 9.77228 8.23679C9.77228 8.23679 9.73067 7.61279 10.1467 7.65439C10.1467 7.65439 10.6459 7.73759 10.7291 7.90399C10.7291 7.90399 10.8539 8.19519 10.9787 7.86239L10.8539 7.40479L10.7291 7.23839ZM20.7131 7.23839C20.5883 7.23839 20.4635 7.23839 20.4635 7.32159C20.4635 7.32159 20.4219 7.57119 20.5883 7.57119C20.5883 7.57119 20.7963 7.82079 20.7963 7.94559L20.7547 9.02719L20.7963 10.5248C20.7963 10.5248 20.7547 10.8576 20.5467 10.9824C20.5467 10.9824 20.3803 11.232 20.5467 11.3152L21.3787 11.3984C21.3787 11.3984 21.6283 11.232 21.5035 11.024L21.2539 10.6496L21.2955 9.85919C21.2955 9.85919 21.4619 9.69279 21.5451 9.77599L22.4603 11.232C22.4603 11.232 22.8763 11.5232 22.9595 11.232C22.9595 11.232 23.0011 11.1072 22.8763 11.024L22.1275 9.85919L22.1691 9.44319C22.1691 9.44319 22.9595 9.15199 22.8763 8.40319C22.8763 8.40319 23.0427 7.65439 22.0027 7.32159H20.9211C20.9211 7.27999 20.8379 7.27999 20.7131 7.23839ZM4.94667 7.27999C4.57227 7.32159 4.78028 7.57119 4.78028 7.57119L5.11307 7.82079C5.15467 7.94559 6.15307 11.0656 6.15307 11.0656C6.61067 11.4816 6.65228 10.9824 6.65228 10.9824C6.94348 10.4832 7.52587 7.98719 7.52587 7.98719L7.77547 7.48799C7.69227 7.27999 7.15147 7.32159 7.15147 7.32159C6.90187 7.36319 7.06828 7.61279 7.06828 7.61279L7.23467 8.15359L6.73547 9.98399C6.56907 10.4 6.40267 9.81759 6.40267 9.81759C5.86187 8.23679 5.82028 7.86239 5.82028 7.86239C6.23628 7.57119 5.90347 7.32159 5.90347 7.32159L4.94667 7.27999ZM21.6699 7.61279C21.7947 7.61279 21.9611 7.61279 22.0027 7.69599C22.0859 7.86239 22.7515 8.40319 22.0859 9.02719C22.0859 9.02719 21.7947 9.56799 21.2955 9.19359C21.2955 9.19359 21.2955 8.40319 21.2539 7.86239L21.3371 7.69599C21.3787 7.65439 21.5451 7.61279 21.6699 7.61279ZM15.8459 21.7152C15.7211 21.6736 15.6795 21.9232 15.5963 22.0896C15.5963 22.0896 14.7643 25.4176 14.6395 25.6256C14.6395 25.6256 14.5563 25.9168 14.2651 26C14.2651 26 14.0987 26.1664 14.3483 26.2496C14.3483 26.2496 14.8475 26.416 14.9723 26.208C14.9723 26.208 15.1387 26.3328 14.9723 25.6672C14.9723 25.6672 15.0971 24.9184 15.3883 24.9184C15.3883 24.9184 15.5547 25.0016 15.5963 25.1264C15.6379 25.2512 15.8875 25.1264 15.8875 25.1264C15.8875 25.1264 16.0539 24.8768 16.1787 24.96C16.1787 24.96 16.4283 25.2928 16.4283 25.5008C16.4283 25.5008 16.5115 26 16.3867 26.1248C16.3867 26.1248 16.2619 26.208 16.5531 26.2912C16.5531 26.2912 17.1355 26.3744 17.3435 26.3328C17.3435 26.3328 17.8011 26.208 17.3435 26.0416C17.3435 26.0416 17.0939 25.8336 16.9691 25.584C16.9691 25.584 16.5115 23.5872 16.0123 22.256C16.0123 22.256 15.9707 22.0064 15.8043 21.8816L15.8459 21.7152ZM12.1019 22.0064L11.9355 22.048L11.6859 22.672V22.88C11.8523 23.296 11.9355 22.9216 11.9355 22.9216L12.3099 22.5472L12.6011 22.5056C12.7675 22.5888 12.7259 22.88 12.7259 22.88C12.6843 23.0048 12.6843 25.168 12.6843 25.168C12.7259 25.6256 12.6011 25.792 12.6011 25.792C12.2267 26.2496 12.6011 26.2496 12.6011 26.2496C12.7675 26.208 13.3915 26.2912 13.3915 26.2912C13.6827 26.3328 13.5579 25.9584 13.5579 25.9584C13.3915 25.8752 13.3083 25.584 13.3083 25.584L13.3499 25.168C13.4331 24.9184 13.3499 23.0048 13.3499 23.0048C13.3915 22.4224 13.7243 22.5888 13.7243 22.5888C13.8075 22.88 14.0155 22.9632 14.0155 22.9632C14.3483 22.88 14.2651 22.2976 14.2651 22.2976C14.3067 22.048 14.1403 22.048 14.1403 22.048L13.7243 22.256H12.5179C12.3099 22.1728 12.1019 22.0064 12.1019 22.0064ZM19.7563 22.1728C19.7147 22.1728 19.5899 22.1728 19.4651 22.2976C19.4651 22.2976 19.1323 22.4224 19.0491 22.2976C19.0491 22.2976 18.0923 22.2144 18.0507 23.2544C18.0507 23.2544 17.9259 23.9616 19.0075 24.4192C19.0075 24.4192 19.7979 24.7936 19.7563 25.2928C19.7563 25.2928 19.6315 26.1664 18.7995 25.7504C18.7995 25.7504 18.3835 25.5424 18.4251 25.2928C18.4251 25.2928 18.3003 25.0016 18.1339 25.0432C18.1339 25.0432 17.9675 25.0848 18.0507 25.9584C18.0507 25.9584 18.0507 26.2912 18.4251 25.9584L18.6331 26C18.6331 26 19.3403 26.5824 19.9227 25.8752C19.9227 25.8752 20.5467 25.2928 20.0891 24.5856C20.0891 24.5856 19.7563 24.0864 19.1739 23.8368C19.1739 23.8368 18.5915 23.5872 18.4667 23.1296C18.4667 23.1296 18.6331 22.3392 19.3403 22.7552C19.3403 22.7552 19.5899 23.0464 19.7563 23.1296C19.7563 23.1296 19.9643 23.1296 19.9227 22.672L19.8811 22.2976C19.8811 22.2976 19.8395 22.1728 19.7563 22.1728ZM15.8043 23.2544L15.9291 23.4208C15.9291 23.4208 16.2203 24.2112 16.2203 24.336C16.2203 24.4608 16.1787 24.5856 16.0539 24.5856C15.8875 24.5856 15.4715 24.544 15.4715 24.544L15.3051 24.2944C15.3051 24.2944 15.4715 23.5872 15.5131 23.4624L15.8043 23.2544Z" fill="black"/>
</svg>
