<svg width="90" height="90" viewBox="0 0 90 90" fill="none" xmlns="http://www.w3.org/2000/svg">
<path d="M90 0H0V90H90V0Z" fill="#07B594"/>
<path d="M60.6603 62.4601H35.8203V26.8201H60.6603C61.555 26.8201 62.2803 27.5222 62.2803 28.4168V60.8168C62.2803 61.7115 61.555 62.4601 60.6603 62.4601Z" fill="#0A7362" stroke="#0A7362" stroke-width="4" stroke-miterlimit="10" stroke-linecap="round" stroke-linejoin="round"/>
<path d="M58.21 63.1801H56.95C56.7015 63.1801 56.5 62.9786 56.5 62.7301V26.5501C56.5 26.3016 56.7015 26.1001 56.95 26.1001H58.21C58.4585 26.1001 58.66 26.3016 58.66 26.5501V62.7301C58.66 62.9786 58.4585 63.1801 58.21 63.1801Z" fill="#0A7362" stroke="#0A7362" stroke-width="4" stroke-miterlimit="10" stroke-linecap="round" stroke-linejoin="round"/>
<path d="M41.3094 66.5767L38.6094 65.07V62.46H41.3094V66.5767Z" fill="#0A7362" stroke="#0A7362" stroke-width="4" stroke-miterlimit="10" stroke-linecap="round" stroke-linejoin="round"/>
<path d="M59.7599 61.11H34.9199V25.47H59.7599C60.6546 25.47 61.3799 26.1721 61.3799 27.0668V59.4668C61.3799 60.3615 60.6546 61.11 59.7599 61.11Z" fill="#4C5B60"/>
<mask id="mask0" mask-type="alpha" maskUnits="userSpaceOnUse" x="34" y="25" width="28" height="37">
<path d="M59.7599 61.11H34.9199V25.47H59.7599C60.6546 25.47 61.3799 26.1721 61.3799 27.0668V59.4668C61.3799 60.3615 60.6546 61.11 59.7599 61.11Z" fill="white"/>
</mask>
<g mask="url(#mask0)">
<g opacity="0.11">
<path opacity="0.11" d="M63.3376 57.3975L32.3477 88.3874" stroke="#102D3B" stroke-width="3" stroke-miterlimit="10" stroke-linecap="round" stroke-linejoin="round"/>
<path opacity="0.11" d="M63.3376 56.1375L32.3477 87.1274" stroke="#102D3B" stroke-width="3" stroke-miterlimit="10" stroke-linecap="round" stroke-linejoin="round"/>
<path opacity="0.11" d="M63.3376 54.8774L32.3477 85.8674" stroke="#102D3B" stroke-width="3" stroke-miterlimit="10" stroke-linecap="round" stroke-linejoin="round"/>
<path opacity="0.11" d="M63.3376 53.6174L32.3477 84.6074" stroke="#102D3B" stroke-width="3" stroke-miterlimit="10" stroke-linecap="round" stroke-linejoin="round"/>
<path opacity="0.11" d="M63.3376 52.3574L32.3477 83.3474" stroke="#102D3B" stroke-width="3" stroke-miterlimit="10" stroke-linecap="round" stroke-linejoin="round"/>
<path opacity="0.11" d="M63.3376 51.0974L32.3477 82.0874" stroke="#102D3B" stroke-width="3" stroke-miterlimit="10" stroke-linecap="round" stroke-linejoin="round"/>
<path opacity="0.11" d="M63.3376 49.8374L32.3477 80.8274" stroke="#102D3B" stroke-width="3" stroke-miterlimit="10" stroke-linecap="round" stroke-linejoin="round"/>
<path opacity="0.11" d="M63.3376 48.5774L32.3477 79.5674" stroke="#102D3B" stroke-width="3" stroke-miterlimit="10" stroke-linecap="round" stroke-linejoin="round"/>
<path opacity="0.11" d="M63.3376 47.3176L32.3477 78.3076" stroke="#102D3B" stroke-width="3" stroke-miterlimit="10" stroke-linecap="round" stroke-linejoin="round"/>
<path opacity="0.11" d="M63.3376 46.0576L32.3477 77.0476" stroke="#102D3B" stroke-width="3" stroke-miterlimit="10" stroke-linecap="round" stroke-linejoin="round"/>
<path opacity="0.11" d="M63.3376 44.7974L32.3477 75.7874" stroke="#102D3B" stroke-width="3" stroke-miterlimit="10" stroke-linecap="round" stroke-linejoin="round"/>
<path opacity="0.11" d="M63.3376 43.5376L32.3477 74.5276" stroke="#102D3B" stroke-width="3" stroke-miterlimit="10" stroke-linecap="round" stroke-linejoin="round"/>
<path opacity="0.11" d="M63.3376 42.2776L32.3477 73.2676" stroke="#102D3B" stroke-width="3" stroke-miterlimit="10" stroke-linecap="round" stroke-linejoin="round"/>
<path opacity="0.11" d="M63.3376 41.0176L32.3477 72.0076" stroke="#102D3B" stroke-width="3" stroke-miterlimit="10" stroke-linecap="round" stroke-linejoin="round"/>
<path opacity="0.11" d="M63.3376 39.7576L32.3477 70.7475" stroke="#102D3B" stroke-width="3" stroke-miterlimit="10" stroke-linecap="round" stroke-linejoin="round"/>
<path opacity="0.11" d="M63.3376 38.4976L32.3477 69.4875" stroke="#102D3B" stroke-width="3" stroke-miterlimit="10" stroke-linecap="round" stroke-linejoin="round"/>
<path opacity="0.11" d="M63.3376 37.2375L32.3477 68.2275" stroke="#102D3B" stroke-width="3" stroke-miterlimit="10" stroke-linecap="round" stroke-linejoin="round"/>
<path opacity="0.11" d="M63.3376 35.9775L32.3477 66.9675" stroke="#102D3B" stroke-width="3" stroke-miterlimit="10" stroke-linecap="round" stroke-linejoin="round"/>
<path opacity="0.11" d="M63.3376 34.7175L32.3477 65.7075" stroke="#102D3B" stroke-width="3" stroke-miterlimit="10" stroke-linecap="round" stroke-linejoin="round"/>
<path opacity="0.11" d="M63.3376 33.4575L32.3477 64.4475" stroke="#102D3B" stroke-width="3" stroke-miterlimit="10" stroke-linecap="round" stroke-linejoin="round"/>
<path opacity="0.11" d="M63.3376 32.1975L32.3477 63.1875" stroke="#102D3B" stroke-width="3" stroke-miterlimit="10" stroke-linecap="round" stroke-linejoin="round"/>
<path opacity="0.11" d="M63.3376 30.9375L32.3477 61.9275" stroke="#102D3B" stroke-width="3" stroke-miterlimit="10" stroke-linecap="round" stroke-linejoin="round"/>
<path opacity="0.11" d="M63.3376 29.6775L32.3477 60.6675" stroke="#102D3B" stroke-width="3" stroke-miterlimit="10" stroke-linecap="round" stroke-linejoin="round"/>
<path opacity="0.11" d="M63.3376 28.4175L32.3477 59.4075" stroke="#102D3B" stroke-width="3" stroke-miterlimit="10" stroke-linecap="round" stroke-linejoin="round"/>
<path opacity="0.11" d="M63.3376 27.1575L32.3477 58.1474" stroke="#102D3B" stroke-width="3" stroke-miterlimit="10" stroke-linecap="round" stroke-linejoin="round"/>
<path opacity="0.11" d="M63.3376 25.8975L32.3477 56.8874" stroke="#102D3B" stroke-width="3" stroke-miterlimit="10" stroke-linecap="round" stroke-linejoin="round"/>
<path opacity="0.11" d="M63.3376 24.6375L32.3477 55.6274" stroke="#102D3B" stroke-width="3" stroke-miterlimit="10" stroke-linecap="round" stroke-linejoin="round"/>
<path opacity="0.11" d="M63.3376 23.3774L32.3477 54.3674" stroke="#102D3B" stroke-width="3" stroke-miterlimit="10" stroke-linecap="round" stroke-linejoin="round"/>
<path opacity="0.11" d="M63.3376 22.1174L32.3477 53.1074" stroke="#102D3B" stroke-width="3" stroke-miterlimit="10" stroke-linecap="round" stroke-linejoin="round"/>
<path opacity="0.11" d="M63.3376 20.8574L32.3477 51.8474" stroke="#102D3B" stroke-width="3" stroke-miterlimit="10" stroke-linecap="round" stroke-linejoin="round"/>
<path opacity="0.11" d="M63.3376 19.5974L32.3477 50.5874" stroke="#102D3B" stroke-width="3" stroke-miterlimit="10" stroke-linecap="round" stroke-linejoin="round"/>
<path opacity="0.11" d="M63.3376 18.3374L32.3477 49.3274" stroke="#102D3B" stroke-width="3" stroke-miterlimit="10" stroke-linecap="round" stroke-linejoin="round"/>
<path opacity="0.11" d="M63.3376 17.0776L32.3477 48.0676" stroke="#102D3B" stroke-width="3" stroke-miterlimit="10" stroke-linecap="round" stroke-linejoin="round"/>
<path opacity="0.11" d="M63.3376 15.8174L32.3477 46.8074" stroke="#102D3B" stroke-width="3" stroke-miterlimit="10" stroke-linecap="round" stroke-linejoin="round"/>
<path opacity="0.11" d="M63.3376 14.5576L32.3477 45.5476" stroke="#102D3B" stroke-width="3" stroke-miterlimit="10" stroke-linecap="round" stroke-linejoin="round"/>
<path opacity="0.11" d="M63.3376 13.2976L32.3477 44.2876" stroke="#102D3B" stroke-width="3" stroke-miterlimit="10" stroke-linecap="round" stroke-linejoin="round"/>
<path opacity="0.11" d="M63.3376 12.0374L32.3477 43.0273" stroke="#102D3B" stroke-width="3" stroke-miterlimit="10" stroke-linecap="round" stroke-linejoin="round"/>
<path opacity="0.11" d="M63.3376 10.7776L32.3477 41.7676" stroke="#102D3B" stroke-width="3" stroke-miterlimit="10" stroke-linecap="round" stroke-linejoin="round"/>
<path opacity="0.11" d="M63.3376 9.51758L32.3477 40.5075" stroke="#102D3B" stroke-width="3" stroke-miterlimit="10" stroke-linecap="round" stroke-linejoin="round"/>
<path opacity="0.11" d="M63.3376 8.25757L32.3477 39.2475" stroke="#102D3B" stroke-width="3" stroke-miterlimit="10" stroke-linecap="round" stroke-linejoin="round"/>
<path opacity="0.11" d="M63.3376 6.99756L32.3477 37.9875" stroke="#102D3B" stroke-width="3" stroke-miterlimit="10" stroke-linecap="round" stroke-linejoin="round"/>
<path opacity="0.11" d="M63.3376 5.73755L32.3477 36.7275" stroke="#102D3B" stroke-width="3" stroke-miterlimit="10" stroke-linecap="round" stroke-linejoin="round"/>
<path opacity="0.11" d="M63.3376 4.47754L32.3477 35.4675" stroke="#102D3B" stroke-width="3" stroke-miterlimit="10" stroke-linecap="round" stroke-linejoin="round"/>
<path opacity="0.11" d="M63.3376 3.21753L32.3477 34.2075" stroke="#102D3B" stroke-width="3" stroke-miterlimit="10" stroke-linecap="round" stroke-linejoin="round"/>
<path opacity="0.11" d="M63.3376 1.95752L32.3477 32.9475" stroke="#102D3B" stroke-width="3" stroke-miterlimit="10" stroke-linecap="round" stroke-linejoin="round"/>
<path opacity="0.11" d="M63.3376 0.69751L32.3477 31.6875" stroke="#102D3B" stroke-width="3" stroke-miterlimit="10" stroke-linecap="round" stroke-linejoin="round"/>
<path opacity="0.11" d="M60.5026 2.27246L32.3477 30.4274" stroke="#102D3B" stroke-width="3" stroke-miterlimit="10" stroke-linecap="round" stroke-linejoin="round"/>
<path opacity="0.11" d="M58.7476 2.76758L32.3477 29.1676" stroke="#102D3B" stroke-width="3" stroke-miterlimit="10" stroke-linecap="round" stroke-linejoin="round"/>
</g>
<path d="M57.6893 25.47H55.5293V61.11H57.6893V25.47Z" fill="#526770"/>
<path d="M37.9799 25.47H34.9199V61.11H37.9799V25.47Z" stroke="#102D3B" stroke-width="4" stroke-miterlimit="10" stroke-linecap="round" stroke-linejoin="round"/>
<path opacity="0.37" d="M36.4499 25.47H34.9199V61.11H36.4499V25.47Z" fill="#526770"/>
<path d="M61.3799 35.73H34.9199V45.81H61.3799V35.73Z" fill="#FF9852"/>
<path d="M46.7311 38.8289C46.7311 39.0186 46.6966 39.1709 46.6276 39.2859C46.5587 39.4008 46.4773 39.4938 46.3838 39.5651C46.2511 39.6693 46.0654 39.7215 45.8267 39.7215H44.8274V37.8697H45.597C45.7127 37.8697 45.8118 37.8757 45.8942 37.8877C45.9766 37.8998 46.0507 37.9167 46.1167 37.9385C46.1827 37.9602 46.2386 37.9848 46.285 38.0119C46.3313 38.039 46.3727 38.0682 46.4093 38.0994C46.4725 38.151 46.5279 38.2121 46.5756 38.2824C46.6233 38.3528 46.6611 38.4344 46.6893 38.527C46.7172 38.6196 46.7311 38.7202 46.7311 38.8289ZM46.1634 38.8048C46.1634 38.6543 46.1347 38.537 46.0772 38.4527C46.0198 38.3686 45.9507 38.3122 45.8701 38.2838C45.7895 38.2553 45.7073 38.241 45.6237 38.241H45.3858V39.338H45.6237C45.7697 39.338 45.8962 39.3032 46.0031 39.2337C46.11 39.1643 46.1634 39.0213 46.1634 38.8048ZM49.0572 38.7941C49.0572 38.9669 49.0173 39.1259 48.9377 39.2711C48.8578 39.4163 48.7392 39.5316 48.5815 39.6171C48.4239 39.7026 48.232 39.7454 48.0058 39.7454C47.7768 39.7454 47.5832 39.7008 47.4246 39.6118C47.266 39.5228 47.1483 39.4056 47.0712 39.2605C46.9942 39.1153 46.9557 38.9599 46.9557 38.7942C46.9557 38.6276 46.9939 38.472 47.0705 38.3273C47.1472 38.1825 47.2649 38.0658 47.424 37.9772C47.583 37.8886 47.7768 37.8442 48.0058 37.8442C48.1768 37.8442 48.3293 37.8696 48.4634 37.9204C48.5974 37.9711 48.7076 38.04 48.794 38.1267C48.8804 38.2135 48.9459 38.3147 48.9905 38.43C49.035 38.5454 49.0572 38.6667 49.0572 38.7941ZM48.488 38.7941C48.488 38.7246 48.4778 38.6612 48.4573 38.6037C48.4368 38.5463 48.4059 38.4965 48.3644 38.4541C48.323 38.4118 48.2726 38.3788 48.2128 38.3552C48.153 38.3315 48.084 38.3197 48.0057 38.3197C47.856 38.3197 47.7385 38.3634 47.653 38.4507C47.5675 38.538 47.5247 38.6523 47.5247 38.794C47.5247 38.9357 47.5677 39.0503 47.6536 39.1381C47.7396 39.2258 47.8569 39.2697 48.0057 39.2697C48.1081 39.2697 48.1953 39.2494 48.2675 39.2089C48.3397 39.1684 48.3944 39.1122 48.4319 39.0405C48.4694 38.969 48.488 38.8868 48.488 38.7941ZM51.0239 38.3198H50.3452V39.7213H49.7881V38.3198H49.1094V37.8696H51.0239V38.3198ZM46.5735 41.7961C46.5335 41.8113 46.4991 41.8238 46.4706 41.8336C46.442 41.8434 46.4147 41.8523 46.3884 41.8603C46.3621 41.8683 46.3241 41.8786 46.2742 41.891C46.1896 41.9106 46.1052 41.9256 46.021 41.9358C45.9368 41.946 45.8481 41.9511 45.7545 41.9511C45.5665 41.9511 45.3928 41.9168 45.2334 41.8482C45.0741 41.7797 44.9464 41.6733 44.8507 41.5289C44.755 41.3847 44.707 41.2074 44.707 40.9972C44.707 40.8618 44.7317 40.7289 44.7812 40.5984C44.8306 40.4679 44.9061 40.3635 45.0076 40.2851C45.0914 40.2201 45.1762 40.1705 45.2622 40.1362C45.3481 40.1019 45.4321 40.0789 45.514 40.0674C45.596 40.0558 45.6863 40.05 45.7852 40.05C45.9483 40.05 46.0828 40.0623 46.1887 40.0868C46.2947 40.1112 46.4109 40.1436 46.5374 40.1836V40.6218C46.4537 40.5729 46.365 40.5318 46.2715 40.4989C46.178 40.4659 46.0613 40.4495 45.9215 40.4495C45.7602 40.4495 45.6312 40.48 45.5347 40.541C45.438 40.602 45.3708 40.6748 45.333 40.7594C45.2951 40.844 45.2761 40.926 45.2761 41.0052C45.2761 41.0987 45.298 41.1849 45.3416 41.2637C45.3853 41.3425 45.4512 41.4058 45.5393 41.4534C45.6275 41.501 45.7339 41.5249 45.8587 41.5249C45.9299 41.5249 46.0056 41.5155 46.0857 41.4968V41.279H45.8345V40.9062H46.5734V41.7961H46.5735ZM48.8061 41.927H48.2061L48.0606 41.5983C48.0071 41.4781 47.959 41.3901 47.9162 41.3344C47.8734 41.2787 47.8318 41.2431 47.7913 41.2275C47.7507 41.2119 47.6984 41.2041 47.6343 41.2041H47.5715V41.9269H47.0131V40.0752H47.963C48.1162 40.0752 48.2419 40.1064 48.3399 40.1687C48.4378 40.231 48.5084 40.3067 48.5516 40.3957C48.5948 40.4848 48.6164 40.5694 48.6164 40.6496C48.6164 40.7431 48.5984 40.8222 48.5623 40.8868C48.5263 40.9514 48.4882 40.9984 48.4481 41.0277C48.408 41.0571 48.363 41.0851 48.3131 41.1119C48.3727 41.1466 48.422 41.1878 48.4607 41.2354C48.4995 41.283 48.5523 41.3795 48.6191 41.5247L48.8061 41.927ZM48.0472 40.6605C48.0472 40.575 48.019 40.5153 47.963 40.4815C47.9068 40.4477 47.8155 40.4307 47.6891 40.4307H47.5715V40.877H47.6917C47.828 40.877 47.9213 40.862 47.9716 40.8322C48.022 40.8024 48.0472 40.7451 48.0472 40.6605ZM49.621 41.927H49.0626V40.0752H49.621V41.927ZM51.9923 41.0346C51.9923 41.2243 51.9578 41.3766 51.8888 41.4915C51.8199 41.6064 51.7385 41.6995 51.645 41.7708C51.5123 41.875 51.3266 41.9271 51.0879 41.9271H50.0886V40.0753H50.8582C50.9739 40.0753 51.073 40.0814 51.1554 40.0933C51.2378 40.1054 51.3119 40.1223 51.3779 40.1441C51.4439 40.1659 51.4999 40.1904 51.5462 40.2175C51.5926 40.2446 51.634 40.2739 51.6705 40.305C51.7337 40.3567 51.7891 40.4177 51.8368 40.4881C51.8845 40.5585 51.9223 40.64 51.9505 40.7326C51.9784 40.8253 51.9923 40.9259 51.9923 41.0346ZM51.4246 41.0105C51.4246 40.86 51.3959 40.7427 51.3384 40.6584C51.281 40.5743 51.212 40.518 51.1313 40.4895C51.0507 40.461 50.9685 40.4468 50.8849 40.4468H50.647V41.5437H50.8849C51.031 41.5437 51.1574 41.5089 51.2643 41.4395C51.3713 41.37 51.4246 41.227 51.4246 41.0105ZM46.5187 43.6077C46.5187 43.767 46.4643 43.8945 46.3551 43.9898C46.246 44.0851 46.0935 44.1327 45.8975 44.1327H44.8274V42.281H45.7225C45.8382 42.281 45.9391 42.2921 46.0251 42.3144C46.1109 42.3367 46.1802 42.3671 46.2328 42.4059C46.2854 42.4446 46.3246 42.4903 46.3504 42.5428C46.3763 42.5952 46.3892 42.6528 46.3892 42.7151C46.3892 42.7828 46.3759 42.8454 46.3492 42.9028C46.3224 42.9602 46.2892 43.0074 46.2496 43.0444C46.21 43.0814 46.1702 43.1074 46.1301 43.1226C46.2566 43.1724 46.353 43.2354 46.4194 43.3116C46.4857 43.3879 46.5187 43.4865 46.5187 43.6077ZM45.8668 42.814C45.8668 42.725 45.8374 42.6658 45.7787 42.6364C45.7199 42.6069 45.6281 42.5923 45.5034 42.5923H45.3858V43.0358H45.506C45.6334 43.0358 45.7254 43.0211 45.7819 42.9917C45.8384 42.9624 45.8668 42.9031 45.8668 42.814ZM45.9577 43.5849C45.9577 43.4264 45.8428 43.3471 45.613 43.3471H45.3859V43.8214H45.613C45.8427 43.8214 45.9577 43.7426 45.9577 43.5849ZM48.8581 43.2055C48.8581 43.3783 48.8182 43.5374 48.7386 43.6825C48.6587 43.8277 48.5401 43.9431 48.3824 44.0286C48.2249 44.1141 48.0329 44.1568 47.8067 44.1568C47.5778 44.1568 47.3841 44.1123 47.2255 44.0233C47.0669 43.9343 46.9492 43.8171 46.8722 43.6719C46.7951 43.5267 46.7566 43.3713 46.7566 43.2056C46.7566 43.039 46.7948 42.8834 46.8714 42.7387C46.9481 42.594 47.0658 42.4773 47.2249 42.3886C47.3839 42.3 47.5778 42.2557 47.8067 42.2557C47.9777 42.2557 48.1303 42.2811 48.2643 42.3318C48.3983 42.3826 48.5085 42.4514 48.5949 42.5382C48.6813 42.6249 48.7469 42.7261 48.7914 42.8415C48.836 42.9569 48.8581 43.0782 48.8581 43.2055ZM48.2889 43.2055C48.2889 43.1361 48.2788 43.0726 48.2582 43.0152C48.2377 42.9578 48.2069 42.9079 48.1654 42.8655C48.124 42.8232 48.0735 42.7903 48.0137 42.7666C47.954 42.7429 47.8849 42.7311 47.8066 42.7311C47.657 42.7311 47.5394 42.7748 47.4539 42.8621C47.3684 42.9494 47.3256 43.0638 47.3256 43.2054C47.3256 43.3471 47.3686 43.4618 47.4545 43.5495C47.5405 43.6373 47.6579 43.6811 47.8066 43.6811C47.909 43.6811 47.9963 43.6608 48.0684 43.6203C48.1406 43.5798 48.1953 43.5237 48.2328 43.452C48.2703 43.3803 48.2889 43.2981 48.2889 43.2055ZM51.1868 43.2055C51.1868 43.3783 51.147 43.5374 51.0673 43.6825C50.9875 43.8277 50.8689 43.9431 50.7112 44.0286C50.5536 44.1141 50.3616 44.1568 50.1355 44.1568C49.9065 44.1568 49.7128 44.1123 49.5542 44.0233C49.3957 43.9343 49.2779 43.8171 49.2009 43.6719C49.1239 43.5267 49.0853 43.3713 49.0853 43.2056C49.0853 43.039 49.1236 42.8834 49.2002 42.7387C49.2769 42.594 49.3946 42.4773 49.5536 42.3886C49.7126 42.3 49.9065 42.2557 50.1355 42.2557C50.3065 42.2557 50.459 42.2811 50.593 42.3318C50.727 42.3826 50.8373 42.4514 50.9237 42.5382C51.0101 42.6249 51.0756 42.7261 51.1202 42.8415C51.1647 42.9569 51.1868 43.0782 51.1868 43.2055ZM50.6177 43.2055C50.6177 43.1361 50.6075 43.0726 50.587 43.0152C50.5665 42.9578 50.5356 42.9079 50.4941 42.8655C50.4527 42.8232 50.4022 42.7903 50.3425 42.7666C50.2827 42.7429 50.2137 42.7311 50.1354 42.7311C49.9857 42.7311 49.8682 42.7748 49.7827 42.8621C49.6972 42.9494 49.6543 43.0638 49.6543 43.2054C49.6543 43.3471 49.6973 43.4618 49.7833 43.5495C49.8692 43.6373 49.9866 43.6811 50.1354 43.6811C50.2378 43.6811 50.325 43.6608 50.3972 43.6203C50.4694 43.5798 50.5241 43.5237 50.5615 43.452C50.5991 43.3803 50.6177 43.2981 50.6177 43.2055ZM53.4821 44.1327H52.8007L52.0927 43.2657V44.1327H51.5342V42.281H52.0927V43.1093L52.7634 42.281H53.3699L52.6805 43.148L53.4821 44.1327Z" fill="#D85639"/>
<path d="M37.9805 35.73V45.81" stroke="#526770" stroke-width="8" stroke-miterlimit="10"/>
<path opacity="0.51" d="M36.4499 35.73H34.9199V45.81H36.4499V35.73Z" fill="#526770"/>
<path opacity="0.61" d="M57.6902 35.73H56.1602V45.81H57.6902V35.73Z" fill="#D85639"/>
<path d="M61.3799 35.73H34.9199V45.81H61.3799V35.73Z" stroke="#102D3B" stroke-width="4" stroke-miterlimit="10" stroke-linecap="round" stroke-linejoin="round"/>
<path d="M59.7599 61.11H34.9199V25.47H59.7599C60.6546 25.47 61.3799 26.1721 61.3799 27.0668V59.4668C61.3799 60.3615 60.6546 61.11 59.7599 61.11Z" stroke="#102D3B" stroke-width="4" stroke-miterlimit="10" stroke-linecap="round" stroke-linejoin="round"/>
<path d="M56.176 61.83H55.066C54.776 61.83 54.541 61.5949 54.541 61.305V25.275C54.541 24.985 54.7761 24.75 55.066 24.75H56.176C56.4659 24.75 56.7009 24.9851 56.7009 25.275V61.3049C56.7009 61.5949 56.4659 61.83 56.176 61.83Z" fill="#B7C8CE"/>
<path d="M56.176 61.83H55.066C54.776 61.83 54.541 61.5949 54.541 61.305V25.275C54.541 24.985 54.7761 24.75 55.066 24.75H56.176C56.4659 24.75 56.7009 24.9851 56.7009 25.275V61.3049C56.7009 61.5949 56.4659 61.83 56.176 61.83Z" stroke="#102D3B" stroke-width="4" stroke-miterlimit="10" stroke-linecap="round" stroke-linejoin="round"/>
<path d="M40.409 65.2269L37.709 63.7201V61.1101H40.409V65.2269Z" stroke="#102D3B" stroke-width="8" stroke-miterlimit="10" stroke-linecap="round" stroke-linejoin="round"/>
</g>
</svg>
