<svg width="24" height="22" viewBox="0 0 24 22" fill="none" xmlns="http://www.w3.org/2000/svg">
<path d="M22.2857 6.98215C22.2857 6.25894 22.1897 5.62054 21.9978 5.06697C21.8058 4.5134 21.5603 4.07367 21.2612 3.74778C20.9621 3.42188 20.5982 3.15626 20.1696 2.9509C19.7411 2.74554 19.3214 2.60715 18.9107 2.53572C18.5 2.46429 18.0625 2.42858 17.5982 2.42858C17.1339 2.42858 16.6339 2.54242 16.0982 2.7701C15.5625 2.99778 15.0692 3.28349 14.6183 3.62724C14.1674 3.97099 13.7812 4.29242 13.4598 4.59153C13.1384 4.89063 12.8705 5.16519 12.6562 5.41519C12.4955 5.61162 12.2768 5.70983 12 5.70983C11.7232 5.70983 11.5045 5.61162 11.3438 5.41519C11.1295 5.16519 10.8616 4.89063 10.5402 4.59153C10.2188 4.29242 9.83259 3.97099 9.3817 3.62724C8.9308 3.28349 8.4375 2.99778 7.90179 2.7701C7.36607 2.54242 6.86607 2.42858 6.40179 2.42858C5.9375 2.42858 5.5 2.46429 5.08929 2.53572C4.67857 2.60715 4.25893 2.74554 3.83036 2.9509C3.40179 3.15626 3.03795 3.42188 2.73884 3.74778C2.43973 4.07367 2.1942 4.5134 2.00223 5.06697C1.81027 5.62054 1.71429 6.25894 1.71429 6.98215C1.71429 8.48215 2.54911 10.067 4.21875 11.7366L12 19.2366L19.7679 11.75C21.4464 10.0714 22.2857 8.48215 22.2857 6.98215ZM24 6.98215C24 8.95537 22.9777 10.9643 20.933 13.0089L12.5893 21.0447C12.4286 21.2054 12.2321 21.2857 12 21.2857C11.7679 21.2857 11.5714 21.2054 11.4107 21.0447L3.05357 12.9822C2.96429 12.9107 2.84152 12.7947 2.68527 12.6339C2.52902 12.4732 2.28125 12.1808 1.94196 11.7567C1.60268 11.3326 1.29911 10.8973 1.03125 10.4509C0.763393 10.0045 0.524554 9.46429 0.314732 8.83037C0.104911 8.19644 0 7.58037 0 6.98215C0 5.01787 0.566964 3.48215 1.70089 2.37501C2.83482 1.26787 4.40179 0.714294 6.40179 0.714294C6.95536 0.714294 7.52009 0.810277 8.09598 1.00224C8.67188 1.19421 9.20759 1.45313 9.70312 1.77903C10.1987 2.10492 10.625 2.41072 10.9821 2.69644C11.3393 2.98215 11.6786 3.28572 12 3.60715C12.3214 3.28572 12.6607 2.98215 13.0179 2.69644C13.375 2.41072 13.8013 2.10492 14.2969 1.77903C14.7924 1.45313 15.3281 1.19421 15.904 1.00224C16.4799 0.810277 17.0446 0.714294 17.5982 0.714294C19.5982 0.714294 21.1652 1.26787 22.2991 2.37501C23.433 3.48215 24 5.01787 24 6.98215Z" fill="white"/>
</svg>
