<svg width="31" height="29" viewBox="0 0 31 29" fill="none" xmlns="http://www.w3.org/2000/svg">
<path d="M27.125 0H3.875C1.73794 0 0 1.62581 0 3.625V25.375C0 27.3742 1.73794 29 3.875 29H27.125C29.2621 29 31 27.3742 31 25.375V3.625C31 1.62581 29.2621 0 27.125 0Z" fill="#1976D2"/>
<path fill-rule="evenodd" clip-rule="evenodd" d="M26.1562 14.5H21.3125V10.875C21.3125 9.8745 22.1805 9.96875 23.25 9.96875H25.1875V5.4375H21.3125C19.7709 5.4375 18.2925 6.01038 17.2024 7.03011C16.1124 8.04984 15.5 9.43289 15.5 10.875V14.5H11.625V19.0312H15.5V29H21.3125V19.0312H24.2188L26.1562 14.5Z" fill="#FAFAFA"/>
</svg>
