<svg width="24" height="24" viewBox="0 0 24 24" fill="none" xmlns="http://www.w3.org/2000/svg">
<path d="M20.4796 3.65156C18.2155 1.40156 15.2015 0.164062 11.9999 0.164062C8.79834 0.164062 5.78896 1.40156 3.5249 3.65156C1.25615 5.90156 0.00927734 8.89219 0.00927734 12.075C0.00927734 15.2578 1.25615 18.2484 3.5249 20.4984C5.78896 22.7438 8.79834 23.9859 11.9999 23.9859C15.2015 23.9859 18.2108 22.7484 20.4749 20.4984C22.7437 18.2484 23.9905 15.2578 23.9905 12.075C23.9905 8.89219 22.7437 5.90156 20.4796 3.65156ZM21.3562 8.25H16.9077C16.903 8.23594 16.903 8.22188 16.8983 8.20781C16.4671 5.87813 15.8343 3.91875 15.3421 2.60156C18.0655 3.54844 20.2593 5.62031 21.3562 8.25ZM10.6452 2.13281C11.0905 2.07188 11.5405 2.04375 11.9999 2.04375C12.3796 2.04375 12.7499 2.06719 13.1155 2.10469C13.5187 3.0375 14.4233 5.33438 14.9952 8.25H9.19209C9.67959 5.00625 10.4905 2.58281 10.6452 2.13281ZM1.88428 12.075C1.88428 11.4094 1.9499 10.7578 2.07646 10.125H7.07803C6.90459 12.0047 6.89053 13.8141 7.03584 15.5156H2.49834C2.0999 14.4422 1.88428 13.2844 1.88428 12.075ZM3.42647 17.3906H7.27022C7.50459 18.8203 7.85615 20.1703 8.33428 21.4219C6.29522 20.6344 4.5749 19.2047 3.42647 17.3906ZM7.29834 8.25H2.64834C3.72646 5.66719 5.85928 3.62813 8.50772 2.65781C8.15615 3.85781 7.64053 5.84063 7.29834 8.25ZM13.3499 22.0172C12.9093 22.0734 12.4593 22.1063 12.0046 22.1063C11.5358 22.1063 11.0765 22.0734 10.6218 22.0125C9.90928 20.5313 9.4499 18.9609 9.17803 17.3906H15.089C14.7562 18.9516 14.203 20.5219 13.3499 22.0172ZM15.3796 15.5156H8.9249C8.75146 13.5984 8.80771 11.7469 8.9624 10.125H15.2999C15.5062 11.7516 15.5858 13.6031 15.3796 15.5156ZM15.764 21.3891C16.3171 20.1375 16.7343 18.8016 17.0015 17.3906H20.578C19.4483 19.1813 17.7608 20.5922 15.764 21.3891ZM17.2733 15.5156L17.2874 15.3469C17.4374 13.6875 17.4046 11.9344 17.189 10.125H21.928C22.0546 10.7578 22.1202 11.4094 22.1202 12.075C22.1202 13.2844 21.9046 14.4422 21.5062 15.5156H17.2733Z" fill="#1E398F"/>
</svg>
