<svg width="31" height="31" viewBox="0 0 31 31" fill="none" xmlns="http://www.w3.org/2000/svg">
<g clip-path="url(#clip0)">
<path d="M21.3125 0H9.6875C7.11822 0 4.65416 1.02064 2.8374 2.8374C1.02064 4.65416 0 7.11822 0 9.6875L0 21.3125C0 23.8818 1.02064 26.3458 2.8374 28.1626C4.65416 29.9794 7.11822 31 9.6875 31H21.3125C23.8818 31 26.3458 29.9794 28.1626 28.1626C29.9794 26.3458 31 23.8818 31 21.3125V9.6875C31 7.11822 29.9794 4.65416 28.1626 2.8374C26.3458 1.02064 23.8818 0 21.3125 0V0ZM28.0938 21.3125C28.0938 25.0519 25.0519 28.0938 21.3125 28.0938H9.6875C5.94812 28.0938 2.90625 25.0519 2.90625 21.3125V9.6875C2.90625 5.94812 5.94812 2.90625 9.6875 2.90625H21.3125C25.0519 2.90625 28.0938 5.94812 28.0938 9.6875V21.3125Z" fill="url(#paint0_linear)"/>
<path d="M15.5 7.75C13.4446 7.75 11.4733 8.56652 10.0199 10.0199C8.56652 11.4733 7.75 13.4446 7.75 15.5C7.75 17.5554 8.56652 19.5267 10.0199 20.9801C11.4733 22.4335 13.4446 23.25 15.5 23.25C17.5554 23.25 19.5267 22.4335 20.9801 20.9801C22.4335 19.5267 23.25 17.5554 23.25 15.5C23.25 13.4446 22.4335 11.4733 20.9801 10.0199C19.5267 8.56652 17.5554 7.75 15.5 7.75ZM15.5 20.3438C14.2158 20.3422 12.9847 19.8314 12.0767 18.9234C11.1686 18.0153 10.6578 16.7842 10.6562 15.5C10.6562 12.8282 12.8301 10.6562 15.5 10.6562C18.1699 10.6562 20.3438 12.8282 20.3438 15.5C20.3438 18.1699 18.1699 20.3438 15.5 20.3438Z" fill="url(#paint1_linear)"/>
<path d="M23.831 8.20142C24.4014 8.20142 24.8637 7.73907 24.8637 7.16874C24.8637 6.5984 24.4014 6.13605 23.831 6.13605C23.2607 6.13605 22.7983 6.5984 22.7983 7.16874C22.7983 7.73907 23.2607 8.20142 23.831 8.20142Z" fill="url(#paint2_linear)"/>
</g>
<defs>
<linearGradient id="paint0_linear" x1="2.83747" y1="28.1625" x2="28.1625" y2="2.83747" gradientUnits="userSpaceOnUse">
<stop stop-color="#FFC107"/>
<stop offset="0.5074" stop-color="#F44336"/>
<stop offset="0.9901" stop-color="#9C27B0"/>
</linearGradient>
<linearGradient id="paint1_linear" x1="10.02" y1="20.98" x2="20.98" y2="10.02" gradientUnits="userSpaceOnUse">
<stop stop-color="#FFC107"/>
<stop offset="0.5074" stop-color="#F44336"/>
<stop offset="0.9901" stop-color="#9C27B0"/>
</linearGradient>
<linearGradient id="paint2_linear" x1="23.1004" y1="7.89937" x2="24.5617" y2="6.43811" gradientUnits="userSpaceOnUse">
<stop stop-color="#FFC107"/>
<stop offset="0.5074" stop-color="#F44336"/>
<stop offset="0.9901" stop-color="#9C27B0"/>
</linearGradient>
<clipPath id="clip0">
<rect width="31" height="31" fill="white"/>
</clipPath>
</defs>
</svg>
