<svg width="31" height="31" viewBox="0 0 31 31" fill="none" xmlns="http://www.w3.org/2000/svg">
<path d="M29.2778 0H1.72222C0.771065 0 0 0.771065 0 1.72222V29.2778C0 30.2289 0.771065 31 1.72222 31H29.2778C30.2289 31 31 30.2289 31 29.2778V1.72222C31 0.771065 30.2289 0 29.2778 0Z" fill="#117EB8"/>
<path fill-rule="evenodd" clip-rule="evenodd" d="M5.65697 11.99H9.8002V25.3209H5.65697V11.99ZM7.72923 5.36335C9.05405 5.36335 10.1304 6.43973 10.1304 7.76455C10.1304 9.09067 9.05405 10.1675 7.72923 10.1675C7.40996 10.1735 7.09269 10.1159 6.79596 9.99787C6.49924 9.87987 6.22901 9.7039 6.00108 9.48024C5.77316 9.25659 5.5921 8.98975 5.46851 8.69531C5.34491 8.40087 5.28125 8.08474 5.28125 7.76541C5.28125 7.44609 5.34491 7.12996 5.46851 6.83552C5.5921 6.54108 5.77316 6.27424 6.00108 6.05059C6.22901 5.82693 6.49924 5.65096 6.79596 5.53296C7.09269 5.41496 7.40996 5.3573 7.72923 5.36335ZM12.399 11.9896H16.3731V13.8113H16.4282C16.9814 12.7633 18.333 11.6585 20.3484 11.6585C24.5437 11.6585 25.3187 14.4197 25.3187 18.0092V25.3209H21.1781V18.838C21.1781 17.2923 21.1496 15.3036 19.0253 15.3036C16.8695 15.3036 16.5384 16.9875 16.5384 18.7265V25.3209H12.3986V11.99L12.399 11.9896Z" fill="white"/>
</svg>
