<svg width="14" height="14" viewBox="0 0 14 14" fill="none" xmlns="http://www.w3.org/2000/svg">
<path d="M5.72016 6.24016C5.7535 6.02016 5.82683 5.82683 5.92016 5.66016C6.0135 5.4935 6.14683 5.3535 6.3135 5.24683C6.4735 5.14683 6.6735 5.10016 6.92016 5.0935C7.0735 5.10016 7.2135 5.12683 7.34016 5.18016C7.4735 5.24016 7.5935 5.32016 7.68683 5.42016C7.78016 5.52016 7.8535 5.64016 7.9135 5.7735C7.9735 5.90683 8.00016 6.0535 8.00683 6.20016H9.20016C9.18683 5.88683 9.12683 5.60016 9.0135 5.34016C8.90016 5.08016 8.74683 4.8535 8.54683 4.66683C8.34683 4.48016 8.10683 4.3335 7.82683 4.22683C7.54683 4.12016 7.24016 4.0735 6.90016 4.0735C6.46683 4.0735 6.08683 4.14683 5.76683 4.30016C5.44683 4.4535 5.18016 4.6535 4.96683 4.9135C4.7535 5.1735 4.5935 5.4735 4.4935 5.82016C4.3935 6.16683 4.3335 6.52683 4.3335 6.9135V7.0935C4.3335 7.48016 4.38683 7.84016 4.48683 8.18683C4.58683 8.5335 4.74683 8.8335 4.96016 9.08683C5.1735 9.34017 5.44016 9.54683 5.76016 9.6935C6.08016 9.84017 6.46016 9.92016 6.8935 9.92016C7.20683 9.92016 7.50016 9.86683 7.7735 9.76683C8.04683 9.66683 8.28683 9.52683 8.4935 9.34683C8.70016 9.16683 8.86683 8.96016 8.98683 8.72016C9.10683 8.48016 9.18016 8.22683 9.18683 7.9535H7.9935C7.98683 8.0935 7.9535 8.22016 7.8935 8.34016C7.8335 8.46017 7.7535 8.56016 7.6535 8.64683C7.5535 8.7335 7.44016 8.80017 7.30683 8.84683C7.18016 8.8935 7.04683 8.90683 6.90683 8.9135C6.66683 8.90683 6.46683 8.86016 6.3135 8.76017C6.14683 8.6535 6.0135 8.5135 5.92016 8.34683C5.82683 8.18016 5.7535 7.98016 5.72016 7.76016C5.68683 7.54016 5.66683 7.3135 5.66683 7.0935V6.9135C5.66683 6.68016 5.68683 6.46016 5.72016 6.24016ZM7.00016 0.333496C3.32016 0.333496 0.333496 3.32016 0.333496 7.00016C0.333496 10.6802 3.32016 13.6668 7.00016 13.6668C10.6802 13.6668 13.6668 10.6802 13.6668 7.00016C13.6668 3.32016 10.6802 0.333496 7.00016 0.333496ZM7.00016 12.3335C4.06016 12.3335 1.66683 9.94016 1.66683 7.00016C1.66683 4.06016 4.06016 1.66683 7.00016 1.66683C9.94016 1.66683 12.3335 4.06016 12.3335 7.00016C12.3335 9.94016 9.94016 12.3335 7.00016 12.3335Z" fill="#979797"/>
</svg>
