<svg width="31" height="31" viewBox="0 0 31 31" fill="none" xmlns="http://www.w3.org/2000/svg">
<path d="M24.3867 0H6.61331C2.96088 0 0 2.96088 0 6.61331V24.3867C0 28.0392 2.96088 31 6.61331 31H24.3867C28.0392 31 31 28.0392 31 24.3867V6.61331C31 2.96088 28.0392 0 24.3867 0Z" fill="#0A93E2"/>
<path fill-rule="evenodd" clip-rule="evenodd" d="M24.9307 10.7966C24.2629 11.0927 23.5438 11.2935 22.7907 11.3831C23.5601 10.9214 24.1503 10.1915 24.43 9.32156C23.7096 9.74788 22.9115 10.0585 22.0631 10.2256C21.3833 9.5009 20.4144 9.04889 19.3423 9.04889C17.2835 9.04889 15.616 10.7182 15.616 12.7752C15.616 13.0669 15.6483 13.3522 15.7122 13.6249C12.6154 13.4689 9.86889 11.9855 8.03142 9.73015C7.70979 10.2811 7.52674 10.9214 7.52674 11.6041C7.52674 12.8975 8.18465 14.0386 9.18351 14.7064C8.57274 14.6873 7.99882 14.5191 7.49541 14.2394C7.49541 14.2557 7.49541 14.2707 7.49541 14.2871C7.49541 16.0918 8.78043 17.5981 10.4849 17.9403C10.1729 18.0258 9.84321 18.072 9.50376 18.072C9.26376 18.072 9.03028 18.0488 8.80201 18.0053C9.27726 19.4859 10.6534 20.5633 12.2844 20.5931C11.0088 21.5932 9.40202 22.1876 7.65555 22.1876C7.35402 22.1876 7.05701 22.1714 6.7666 22.1362C8.4154 23.1934 10.3737 23.8107 12.4783 23.8107C19.333 23.8107 23.0825 18.1314 23.0825 13.2069C23.0825 13.0455 23.0784 12.8852 23.0717 12.7251C23.8002 12.1998 24.4314 11.5432 24.9307 10.7966L24.9307 10.7966Z" fill="white"/>
</svg>
