<svg width="32" height="32" viewBox="0 0 32 32" fill="none" xmlns="http://www.w3.org/2000/svg">
<path d="M32 5.33301H0V26.6666H32V5.33301Z" fill="#F0F0F0"/>
<path d="M32 7.99951H0V10.6659H32V7.99951Z" fill="#D80027"/>
<path d="M32 13.333H0V15.9994H32V13.333Z" fill="#D80027"/>
<path d="M32 18.666H0V21.3325H32V18.666Z" fill="#D80027"/>
<path d="M32 23.9995H0V26.666H32V23.9995Z" fill="#D80027"/>
<path d="M16 5.33301H0V16.8203H16V5.33301Z" fill="#2E52B2"/>
<path d="M6.23914 10.0391L5.98145 10.8318H5.14795L5.82239 11.3215L5.5647 12.1142L6.23914 11.6245L6.91314 12.1142L6.65551 11.3215L7.32995 10.8318H6.49639L6.23914 10.0391Z" fill="#F0F0F0"/>
<path d="M6.49639 13.6926L6.23914 12.8999L5.98145 13.6926H5.14795L5.82239 14.1823L5.5647 14.975L6.23914 14.4853L6.91314 14.975L6.65551 14.1823L7.32995 13.6926H6.49639Z" fill="#F0F0F0"/>
<path d="M2.9735 13.6926L2.71619 12.8999L2.4585 13.6926H1.625L2.29944 14.1823L2.04175 14.975L2.71619 14.4853L3.39025 14.975L3.13263 14.1823L3.80694 13.6926H2.9735Z" fill="#F0F0F0"/>
<path d="M2.71619 10.0391L2.4585 10.8318H1.625L2.29944 11.3215L2.04175 12.1142L2.71619 11.6245L3.39025 12.1142L3.13263 11.3215L3.80694 10.8318H2.9735L2.71619 10.0391Z" fill="#F0F0F0"/>
<path d="M6.23914 7.17822L5.98145 7.97103H5.14795L5.82239 8.46078L5.5647 9.25347L6.23914 8.76372L6.91314 9.25347L6.65551 8.46078L7.32995 7.97103H6.49639L6.23914 7.17822Z" fill="#F0F0F0"/>
<path d="M2.71619 7.17822L2.4585 7.97103H1.625L2.29944 8.46078L2.04175 9.25347L2.71619 8.76372L3.39025 9.25347L3.13263 8.46078L3.80694 7.97103H2.9735L2.71619 7.17822Z" fill="#F0F0F0"/>
<path d="M9.76129 10.0391L9.50367 10.8318H8.67017L9.34454 11.3215L9.08698 12.1142L9.76129 11.6245L10.4354 12.1142L10.1777 11.3215L10.8522 10.8318H10.0187L9.76129 10.0391Z" fill="#F0F0F0"/>
<path d="M10.0187 13.6926L9.76129 12.8999L9.50367 13.6926H8.67017L9.34454 14.1823L9.08698 14.975L9.76129 14.4853L10.4354 14.975L10.1777 14.1823L10.8522 13.6926H10.0187Z" fill="#F0F0F0"/>
<path d="M13.5416 13.6926L13.2842 12.8999L13.0266 13.6926H12.1931L12.8674 14.1823L12.6098 14.975L13.2842 14.4853L13.9583 14.975L13.7006 14.1823L14.3751 13.6926H13.5416Z" fill="#F0F0F0"/>
<path d="M13.2842 10.0391L13.0266 10.8318H12.1931L12.8674 11.3215L12.6098 12.1142L13.2842 11.6245L13.9583 12.1142L13.7006 11.3215L14.3751 10.8318H13.5416L13.2842 10.0391Z" fill="#F0F0F0"/>
<path d="M9.76129 7.17822L9.50367 7.97103H8.67017L9.34454 8.46078L9.08698 9.25347L9.76129 8.76372L10.4354 9.25347L10.1777 8.46078L10.8522 7.97103H10.0187L9.76129 7.17822Z" fill="#F0F0F0"/>
<path d="M13.2842 7.17822L13.0266 7.97103H12.1931L12.8674 8.46078L12.6098 9.25347L13.2842 8.76372L13.9583 9.25347L13.7006 8.46078L14.3751 7.97103H13.5416L13.2842 7.17822Z" fill="#F0F0F0"/>
</svg>
