<svg width="63" height="63" viewBox="0 0 63 63" fill="none" xmlns="http://www.w3.org/2000/svg">
<path d="M38.8822 3.87524C37.7023 3.74567 36.5114 3.67135 35.299 3.71725C25.8472 4.05796 17.5668 9.67423 12.9689 14.8184L12.967 40.2415L14.5712 40.4235C19.4071 40.975 22.7542 42.5125 24.5223 44.9962C26.4762 47.7413 25.9553 50.9604 25.7498 51.8833C25.0653 54.9487 26.8727 58.0694 29.9693 58.6658C31.7195 59.0011 33.4787 59.1668 35.2252 59.1668C36.4551 59.1668 37.673 59.0553 38.8823 58.894C52.5547 57.0694 63.1118 45.4382 62.9992 31.278C62.8756 16.2209 50.7116 5.17324 38.8822 3.87524Z" fill="#FABE2C"/>
<path d="M62.9992 31.2782C62.8758 16.2209 50.7118 5.17325 38.8823 3.87524V58.8942C52.5547 57.0694 63.1118 45.4383 62.9992 31.2782Z" fill="#FF9100"/>
<path d="M41.7158 24.9772C39.5583 22.8162 39.5583 19.3032 41.7139 17.1439C43.8768 14.9846 47.3879 14.9846 49.5472 17.1439C51.7065 19.3032 51.7065 22.8162 49.5472 24.9754V24.9772C47.3883 27.1327 43.8752 27.133 41.7158 24.9772Z" fill="#00C8C8"/>
<path d="M26.022 18.6684C25.2363 15.7506 26.9498 12.688 29.9368 11.8895C32.8783 11.1019 35.9262 12.8538 36.7174 15.8043C37.5102 18.7559 35.761 21.793 32.8026 22.5849C29.8376 23.3796 26.8112 21.6204 26.022 18.6684Z" fill="#474F54"/>
<path d="M19.4953 33.0267C16.5448 32.2354 14.7892 29.193 15.5804 26.246C16.3666 23.3051 19.3897 21.5335 22.3593 22.3312C25.3169 23.1219 27.0705 26.154 26.276 29.1119C25.4818 32.079 22.4389 33.8153 19.4953 33.0267Z" fill="#FF435B"/>
<path d="M48.0206 40.6689C45.0707 39.8793 43.3097 36.8516 44.1058 33.8882C44.8995 30.9233 47.9429 29.1837 50.8865 29.9734C53.837 30.7647 55.5926 33.8071 54.8013 36.7541C54.0106 39.7119 50.9713 41.4625 48.0206 40.6689Z" fill="#99341F"/>
<path d="M11.1972 0.000732422C6.62089 0.000732422 5.66016 17.1873 5.66016 31.5003C5.66016 32.1436 5.66828 32.7338 5.6732 33.346L9.5821 35.1917H11.1972H13.8118L16.722 33.346C16.7266 32.7336 16.7342 32.1539 16.7342 31.5003C16.7342 17.1872 15.7735 0.000732422 11.1972 0.000732422Z" fill="#B35324"/>
<path d="M16.7219 33.346C16.7264 32.7336 16.7341 32.1539 16.7341 31.5003C16.7341 17.1873 15.7733 0.000732422 11.197 0.000732422V35.1917H13.8116L16.7219 33.346Z" fill="#99341F"/>
<path d="M11.1972 33.3457H5.67322C5.73917 41.5078 6.20699 46.8697 6.23332 47.3631H11.1972H16.1611C16.2096 46.4619 16.661 41.8613 16.7221 33.3457H11.1972Z" fill="#FFF7E6"/>
<path d="M16.7219 33.3457H11.197V47.3631H16.1609C16.2093 46.4618 16.6608 41.8612 16.7219 33.3457Z" fill="#FFCCB3"/>
<path d="M11.1971 44.4198C7.12542 44.4198 3.8144 47.7308 3.8144 51.8025V55.4939C3.8144 57.5288 2.03492 59.3083 0 59.3083V62.9996H7.50576C8.80647 62.9996 10.0368 62.7331 11.1971 62.3194C15.4846 60.7907 18.5798 56.6084 18.5798 51.8025C18.5798 47.7308 15.2688 44.4198 11.1971 44.4198Z" fill="#474F54"/>
<path d="M18.5797 51.8025C18.5797 47.7308 15.2687 44.4198 11.197 44.4198V62.3194C15.4845 60.7907 18.5797 56.6084 18.5797 51.8025Z" fill="#32393F"/>
<path d="M38.8822 51.8025C41.9403 51.8025 44.4193 49.3234 44.4193 46.2654C44.4193 43.2074 41.9403 40.7284 38.8822 40.7284C35.8242 40.7284 33.3452 43.2074 33.3452 46.2654C33.3452 49.3234 35.8242 51.8025 38.8822 51.8025Z" fill="#FFF7E6"/>
<path d="M44.4194 46.2654C44.4194 43.2074 41.9404 40.7284 38.8823 40.7284V51.8025C41.9404 51.8025 44.4194 49.3235 44.4194 46.2654Z" fill="#FFE6CC"/>
</svg>
