<svg width="28" height="30" viewBox="0 0 28 30" fill="none" xmlns="http://www.w3.org/2000/svg">
<path d="M25.6665 0H5.6665C4.34042 0 3.06865 0.526784 2.13097 1.46447C1.19329 2.40215 0.666504 3.67392 0.666504 5V25C0.666504 26.3261 1.19329 27.5979 2.13097 28.5355C3.06865 29.4732 4.34042 30 5.6665 30H25.6665C26.1085 30 26.5324 29.8244 26.845 29.5118C27.1576 29.1993 27.3332 28.7754 27.3332 28.3333V1.66667C27.3332 1.22464 27.1576 0.800716 26.845 0.488155C26.5324 0.175595 26.1085 0 25.6665 0ZM5.6665 26.6667C5.22448 26.6667 4.80055 26.4911 4.48799 26.1785C4.17543 25.866 3.99984 25.442 3.99984 25C3.99984 24.558 4.17543 24.134 4.48799 23.8215C4.80055 23.5089 5.22448 23.3333 5.6665 23.3333H23.9998V26.6667H5.6665Z" fill="white"/>
</svg>
