<svg width="48" height="22" viewBox="0 0 48 22" fill="none" xmlns="http://www.w3.org/2000/svg">
<path d="M23.9987 13.381C18.5927 13.381 13.9997 14.953 10.9997 17.417V22H36.9997V17.417C33.9997 14.953 29.4057 13.381 23.9987 13.381ZM47.8697 11.029L23.9357 0L0.0117188 11.029L3.99972 12.854V15.661C2.99972 15.868 2.99672 16.392 2.99672 17.015C2.99672 17.383 3.11872 17.814 3.35072 18.072L1.98272 21H6.86272L5.50672 18.07C5.73472 17.812 5.92172 17.432 5.92172 17.064C5.92172 16.442 4.99972 15.867 4.99972 15.66V13.323L9.99972 15.569V15.37C12.9997 12.761 18.2707 11.105 23.9977 11.105C29.7267 11.105 34.9997 12.761 37.9997 15.37V15.569L47.8697 11.029Z" fill="white"/>
</svg>
