<svg width="40" height="40" viewBox="0 0 40 40" fill="none" xmlns="http://www.w3.org/2000/svg">
<g clip-path="url(#clip0)">
<path d="M31.5 11.5062C31.5 8.45624 30.2884 5.53117 28.1317 3.3745C25.9751 1.21783 23.05 0.00622559 20 0.00622559C16.95 0.00622559 14.0249 1.21783 11.8683 3.3745C9.7116 5.53117 8.5 8.45624 8.5 11.5062C8.5 17.8562 20 33.9125 20 33.9125C20 33.9125 31.5 17.8562 31.5 11.5062ZM12.5 11.5062C12.5 10.0229 12.9399 8.57282 13.764 7.33945C14.5881 6.10608 15.7594 5.14479 17.1299 4.57713C18.5003 4.00947 20.0083 3.86095 21.4632 4.15034C22.918 4.43972 24.2544 5.15403 25.3033 6.20292C26.3522 7.25182 27.0665 8.58819 27.3559 10.043C27.6453 11.4979 27.4968 13.0059 26.9291 14.3764C26.3614 15.7468 25.4001 16.9181 24.1668 17.7422C22.9334 18.5664 21.4834 19.0062 20 19.0062C18.0109 19.0062 16.1032 18.216 14.6967 16.8095C13.2902 15.403 12.5 13.4953 12.5 11.5062Z" fill="white"/>
<path d="M25.7876 26.875C24.9251 28.2813 24.0876 29.5813 23.3501 30.6938C26.4751 31.1188 28.6626 32.1188 28.6626 33.2938C28.6626 34.8438 24.7876 36.1063 20.0001 36.1063C15.2126 36.1063 11.3376 34.8563 11.3376 33.2938C11.3376 32.1125 13.5376 31.1125 16.6563 30.6938C15.9188 29.5813 15.0813 28.275 14.2188 26.8688C6.65635 27.725 1.19385 30.2625 1.19385 33.2688C1.19385 36.9875 9.6126 40 20.0001 40C30.3876 40 38.8063 36.9875 38.8063 33.2688C38.8063 30.2625 33.3438 27.725 25.7876 26.875Z" fill="white"/>
</g>
<defs>
<clipPath id="clip0">
<rect width="40" height="40" fill="white"/>
</clipPath>
</defs>
</svg>
