<svg width="200" height="200" viewBox="0 0 200 200" fill="none" xmlns="http://www.w3.org/2000/svg">
<path d="M60.25 141.126H31.25V30.8135H141.562V43.4197" fill="#0082AA"/>
<path d="M145.369 154.813L65.2882 169.188L45.7944 60.6129L154.376 41.1191L168.751 121.194" fill="#0082AA"/>
<path d="M145.365 154.813L140.252 126.313L168.752 121.194L145.365 154.813Z" fill="#0082AA"/>
<path d="M171.806 121.457C171.819 121.313 171.825 121.188 171.812 121.045C171.806 120.907 171.844 120.782 171.819 120.645L157.444 40.5635C157.137 38.8635 155.488 37.7385 153.819 38.0385L144.688 39.6822V30.8135C144.688 29.0885 143.287 27.6885 141.562 27.6885H31.25C29.525 27.6885 28.125 29.0885 28.125 30.8135V141.126C28.125 142.851 29.525 144.251 31.25 144.251H57.6375L62.2125 169.745C62.4875 171.257 63.8 172.32 65.2812 172.32C65.4625 172.32 65.6563 172.307 65.8375 172.27L145.919 157.895C146.125 157.857 146.294 157.745 146.481 157.67C146.625 157.613 146.769 157.582 146.906 157.501C147.312 157.27 147.675 156.97 147.938 156.595L171.306 122.995C171.619 122.551 171.762 122.013 171.806 121.457ZM34.375 138.001V33.9385H138.438V40.8072L45.2437 57.5385C43.5437 57.8385 42.4125 59.4635 42.7188 61.1635L56.5125 138.001H34.375ZM49.4188 63.1385L151.85 44.751L165.119 118.676L139.694 123.238C138.875 123.382 138.15 123.851 137.681 124.532C137.206 125.213 137.025 126.057 137.169 126.87L141.737 152.295L67.8125 165.563L49.4188 63.1385ZM147.106 146.838L143.869 128.838L161.875 125.607L147.106 146.838Z" fill="#1A4875"/>
<path d="M122.393 83.0918C122.393 87.5189 121.042 91.3275 118.34 94.5176C115.638 97.6751 111.732 99.9701 106.621 101.402V101.695C118.535 103.193 124.492 108.824 124.492 118.59C124.492 125.23 121.855 130.455 116.582 134.264C111.341 138.072 104.049 139.977 94.707 139.977C90.8659 139.977 87.3014 139.7 84.0137 139.146C80.7585 138.593 77.2266 137.584 73.418 136.119V120.104C76.543 121.699 79.7168 122.887 82.9395 123.668C86.1947 124.417 89.1895 124.791 91.9238 124.791C96.1556 124.791 99.2318 124.205 101.152 123.033C103.105 121.829 104.082 119.957 104.082 117.418C104.082 115.465 103.577 113.967 102.568 112.926C101.559 111.852 99.9316 111.054 97.6855 110.533C95.4395 109.98 92.5098 109.703 88.8965 109.703H84.502V95.2012H88.9941C98.7923 95.2012 103.691 92.6947 103.691 87.6816C103.691 85.7936 102.959 84.3939 101.494 83.4824C100.062 82.571 98.125 82.1152 95.6836 82.1152C91.1263 82.1152 86.4062 83.6452 81.5234 86.7051L73.5156 73.8145C77.2917 71.2103 81.1491 69.3548 85.0879 68.248C89.0592 67.1413 93.6003 66.5879 98.7109 66.5879C106.1 66.5879 111.895 68.0527 116.094 70.9824C120.293 73.9121 122.393 77.9486 122.393 83.0918Z" fill="white"/>
<path d="M118.34 94.5176L120.619 96.468L120.624 96.4622L120.629 96.4565L118.34 94.5176ZM106.621 101.402L105.812 98.5136L103.621 99.1275V101.402H106.621ZM106.621 101.695H103.621V104.342L106.247 104.672L106.621 101.695ZM116.582 134.264L114.826 131.832L114.818 131.837L116.582 134.264ZM84.0137 139.146L83.5109 142.104L83.5157 142.105L84.0137 139.146ZM73.418 136.119H70.418V138.18L72.341 138.919L73.418 136.119ZM73.418 120.104L74.7818 117.431L70.418 115.204V120.104H73.418ZM82.9395 123.668L82.2327 126.584L82.2498 126.588L82.267 126.592L82.9395 123.668ZM101.152 123.033L102.715 125.594L102.721 125.59L102.727 125.587L101.152 123.033ZM102.568 112.926L100.382 114.98L100.398 114.997L100.414 115.013L102.568 112.926ZM97.6855 110.533L96.9679 113.446L96.9878 113.451L97.0079 113.456L97.6855 110.533ZM84.502 109.703H81.502V112.703H84.502V109.703ZM84.502 95.2012V92.2012H81.502V95.2012H84.502ZM101.494 83.4824L99.8835 86.0134L99.8963 86.0216L99.9092 86.0296L101.494 83.4824ZM81.5234 86.7051L78.9751 88.2881L80.5644 90.8465L83.1165 89.2472L81.5234 86.7051ZM73.5156 73.8145L71.8124 71.3448L69.4583 72.9684L70.9673 75.3975L73.5156 73.8145ZM85.0879 68.248L84.2825 65.3582L84.2763 65.3599L85.0879 68.248ZM119.393 83.0918C119.393 86.8542 118.265 89.9641 116.051 92.5787L120.629 96.4565C123.818 92.6909 125.393 88.1835 125.393 83.0918H119.393ZM116.06 92.5671C113.839 95.1631 110.508 97.1975 105.812 98.5136L107.431 104.291C112.956 102.743 117.437 100.187 120.619 96.468L116.06 92.5671ZM103.621 101.402V101.695H109.621V101.402H103.621ZM106.247 104.672C111.853 105.376 115.619 107.006 117.963 109.222C120.229 111.364 121.492 114.361 121.492 118.59H127.492C127.492 113.053 125.777 108.352 122.085 104.862C118.473 101.447 113.304 99.5116 106.995 98.7187L106.247 104.672ZM121.492 118.59C121.492 124.291 119.299 128.601 114.826 131.832L118.339 136.696C124.412 132.309 127.492 126.17 127.492 118.59H121.492ZM114.818 131.837C110.272 135.141 103.685 136.977 94.707 136.977V142.977C104.414 142.977 112.41 141.004 118.346 136.691L114.818 131.837ZM94.707 136.977C91.0082 136.977 87.6123 136.71 84.5116 136.188L83.5157 142.105C86.9906 142.69 90.7236 142.977 94.707 142.977V136.977ZM84.5165 136.189C81.4969 135.676 78.1594 134.729 74.4949 133.319L72.341 138.919C76.2938 140.439 80.0201 141.511 83.5109 142.104L84.5165 136.189ZM76.418 136.119V120.104H70.418V136.119H76.418ZM72.0541 122.776C75.3758 124.471 78.7694 125.744 82.2327 126.584L83.6463 120.752C80.6642 120.029 77.7101 118.926 74.7818 117.431L72.0541 122.776ZM82.267 126.592C85.6961 127.38 88.9198 127.791 91.9238 127.791V121.791C89.4591 121.791 86.6932 121.453 83.6119 120.744L82.267 126.592ZM91.9238 127.791C96.297 127.791 100.066 127.21 102.715 125.594L99.5898 120.472C98.3971 121.2 96.0142 121.791 91.9238 121.791V127.791ZM102.727 125.587C105.673 123.77 107.082 120.865 107.082 117.418H101.082C101.082 119.049 100.538 119.888 99.5777 120.48L102.727 125.587ZM107.082 117.418C107.082 114.962 106.44 112.611 104.723 110.838L100.414 115.013C100.715 115.324 101.082 115.967 101.082 117.418H107.082ZM104.755 110.872C103.17 109.185 100.886 108.196 98.3632 107.611L97.0079 113.456C98.9771 113.912 99.9484 114.518 100.382 114.98L104.755 110.872ZM98.4032 107.62C95.8296 106.986 92.6326 106.703 88.8965 106.703V112.703C92.3869 112.703 95.0493 112.973 96.9679 113.446L98.4032 107.62ZM88.8965 106.703H84.502V112.703H88.8965V106.703ZM87.502 109.703V95.2012H81.502V109.703H87.502ZM84.502 98.2012H88.9941V92.2012H84.502V98.2012ZM88.9941 98.2012C94.0518 98.2012 98.2985 97.5704 101.384 95.992C102.969 95.1806 104.33 94.0766 105.286 92.6091C106.253 91.1261 106.691 89.4459 106.691 87.6816H100.691C100.691 88.4239 100.518 88.9369 100.259 89.3338C99.9906 89.7461 99.5143 90.2087 98.6507 90.6505C96.8366 91.5787 93.7347 92.2012 88.9941 92.2012V98.2012ZM106.691 87.6816C106.691 84.8742 105.519 82.4534 103.079 80.9353L99.9092 86.0296C100.399 86.3343 100.691 86.7131 100.691 87.6816H106.691ZM103.105 80.9514C101.024 79.6273 98.4583 79.1152 95.6836 79.1152V85.1152C97.7917 85.1152 99.0997 85.5146 99.8835 86.0134L103.105 80.9514ZM95.6836 79.1152C90.4313 79.1152 85.1655 80.8823 79.9304 84.163L83.1165 89.2472C87.647 86.408 91.8213 85.1152 95.6836 85.1152V79.1152ZM84.0718 85.122L76.0639 72.2314L70.9673 75.3975L78.9751 88.2881L84.0718 85.122ZM75.2188 76.2841C78.7554 73.8451 82.3149 72.1434 85.8994 71.1362L84.2763 65.3599C79.9833 66.5662 75.828 68.5755 71.8124 71.3448L75.2188 76.2841ZM85.8933 71.1379C89.5485 70.1192 93.8102 69.5879 98.7109 69.5879V63.5879C93.3903 63.5879 88.5699 64.1633 84.2825 65.3582L85.8933 71.1379ZM98.7109 69.5879C105.747 69.5879 110.86 70.9886 114.377 73.4428L117.81 68.522C112.93 65.1169 106.454 63.5879 98.7109 63.5879V69.5879ZM114.377 73.4428C117.768 75.8084 119.393 78.9239 119.393 83.0918H125.393C125.393 76.9733 122.818 72.0158 117.81 68.522L114.377 73.4428Z" fill="#1E398F"/>
</svg>
