<svg width="200" height="200" viewBox="0 0 200 200" fill="none" xmlns="http://www.w3.org/2000/svg">
<path d="M60.25 141.126H31.25V30.8135H141.562V43.4197" fill="#F2A983"/>
<path d="M145.369 154.813L65.2882 169.188L45.7944 60.6129L154.376 41.1191L168.751 121.194" fill="#EE966F"/>
<path d="M145.365 154.813L140.252 126.313L168.752 121.194L145.365 154.813Z" fill="#F2A983"/>
<path d="M171.806 121.457C171.819 121.313 171.825 121.188 171.812 121.045C171.806 120.907 171.844 120.782 171.819 120.645L157.444 40.5635C157.137 38.8635 155.488 37.7385 153.819 38.0385L144.688 39.6822V30.8135C144.688 29.0885 143.287 27.6885 141.562 27.6885H31.25C29.525 27.6885 28.125 29.0885 28.125 30.8135V141.126C28.125 142.851 29.525 144.251 31.25 144.251H57.6375L62.2125 169.745C62.4875 171.257 63.8 172.32 65.2812 172.32C65.4625 172.32 65.6563 172.307 65.8375 172.27L145.919 157.895C146.125 157.857 146.294 157.745 146.481 157.67C146.625 157.613 146.769 157.582 146.906 157.501C147.312 157.27 147.675 156.97 147.938 156.595L171.306 122.995C171.619 122.551 171.762 122.013 171.806 121.457ZM34.375 138.001V33.9385H138.438V40.8072L45.2437 57.5385C43.5437 57.8385 42.4125 59.4635 42.7188 61.1635L56.5125 138.001H34.375ZM49.4188 63.1385L151.85 44.751L165.119 118.676L139.694 123.238C138.875 123.382 138.15 123.851 137.681 124.532C137.206 125.213 137.025 126.057 137.169 126.87L141.737 152.295L67.8125 165.563L49.4188 63.1385ZM147.106 146.838L143.869 128.838L161.875 125.607L147.106 146.838Z" fill="#1A4875"/>
<path d="M115.996 139H96.416V101.207C96.416 96.6172 96.5137 92.418 96.709 88.6094C95.5046 90.0742 94.0072 91.6042 92.2168 93.1992L84.1113 99.8887L74.1016 87.584L98.6133 67.6133H115.996V139Z" fill="white"/>
<path d="M115.996 139V142H118.996V139H115.996ZM96.416 139H93.416V142H96.416V139ZM96.709 88.6094L99.705 88.763L100.171 79.6751L94.3917 86.7041L96.709 88.6094ZM92.2168 93.1992L94.1264 95.513L94.1701 95.4769L94.2124 95.4392L92.2168 93.1992ZM84.1113 99.8887L81.7841 101.782L83.6907 104.126L86.0209 102.202L84.1113 99.8887ZM74.1016 87.584L72.2066 85.2582L69.8826 87.1517L71.7744 89.4772L74.1016 87.584ZM98.6133 67.6133V64.6133H97.5459L96.7184 65.2875L98.6133 67.6133ZM115.996 67.6133H118.996V64.6133H115.996V67.6133ZM115.996 136H96.416V142H115.996V136ZM99.416 139V101.207H93.416V139H99.416ZM99.416 101.207C99.416 96.6585 99.5128 92.5114 99.705 88.763L93.7129 88.4557C93.5145 92.3245 93.416 96.5759 93.416 101.207H99.416ZM94.3917 86.7041C93.3074 88.0228 91.9246 89.4417 90.2212 90.9592L94.2124 95.4392C96.0898 93.7667 97.7017 92.1257 99.0263 90.5147L94.3917 86.7041ZM90.3072 90.8854L82.2018 97.5749L86.0209 102.202L94.1264 95.513L90.3072 90.8854ZM86.4385 97.9955L76.4288 85.6908L71.7744 89.4772L81.7841 101.782L86.4385 97.9955ZM75.9965 89.9098L100.508 69.9391L96.7184 65.2875L72.2066 85.2582L75.9965 89.9098ZM98.6133 70.6133H115.996V64.6133H98.6133V70.6133ZM112.996 67.6133V139H118.996V67.6133H112.996Z" fill="#1E398F"/>
</svg>
