<svg width="249" height="98" viewBox="0 0 249 98" fill="none" xmlns="http://www.w3.org/2000/svg">
<path d="M133.576 51.6478C133.576 51.6478 133.161 59.1214 138.281 59.0432L138.599 61.7404L145.144 60.9259L143.594 47.7794L133.867 47.0851L133.576 51.6478Z" fill="#FFCEC8"/>
<path d="M145.894 53.1013C145.932 53.4363 145.872 53.7752 145.722 54.0753C145.572 54.3753 145.339 54.623 145.052 54.7871C144.765 54.9511 144.437 55.0242 144.11 54.9971C143.783 54.97 143.471 54.8439 143.213 54.6348C142.956 54.4256 142.764 54.1428 142.663 53.822C142.562 53.5012 142.556 53.1568 142.645 52.8323C142.734 52.5078 142.915 52.2177 143.165 51.9988C143.415 51.7798 143.722 51.6418 144.048 51.6021C144.486 51.5499 144.927 51.6785 145.273 51.9596C145.619 52.2407 145.843 52.6513 145.894 53.1013Z" fill="#FFCEC8"/>
<path d="M138.281 59.0432C138.281 59.0432 140.582 58.7361 142.057 57.1357C142.057 57.1357 141.618 59.2626 138.406 60.099L138.281 59.0432Z" fill="#FFB1A8"/>
<path d="M136.051 47.9454C136.051 47.9454 138.221 52.6064 143.852 51.6727C143.852 51.6727 144.805 51.253 145.462 52.3861C145.462 52.3861 150.22 49.0012 147.957 42.1485C147.957 42.1485 138.67 32.6015 132.496 41.5649C132.396 41.6764 132.303 41.7942 132.217 41.9177C131.049 43.5486 130.961 45.748 131.922 47.5162L132.119 47.8786C132.119 47.8786 130.052 51.4132 133.512 52.3326C133.511 52.3326 135.752 50.5854 136.051 47.9454Z" fill="#FF7867"/>
<path d="M147.959 42.1466C147.959 42.1466 151.5 44.0103 153.782 41.1929C154.19 40.6893 154.339 39.4714 154.044 38.8877C153.843 38.4842 153.425 38.1161 152.586 38.0083C152.586 38.0083 153.929 37.4675 153.767 35.005C153.591 32.3154 151.746 30.0674 149.259 29.2071C147.03 28.4346 144.058 28.303 141.435 31.1518C141.435 31.1518 138.906 34.1609 141.214 38.0465C141.214 38.0455 145.391 39.8214 147.959 42.1466Z" fill="#FF7867"/>
<path d="M141.44 38.2067C140.088 37.4666 138.63 37.2301 137.193 37.355C135.755 37.48 134.347 37.973 132.905 38.4995C134.101 37.4582 135.576 36.8152 137.136 36.6559C137.927 36.5864 138.724 36.6784 139.481 36.9268C140.23 37.1814 140.934 37.6078 141.44 38.2067Z" fill="#FF7867"/>
<path d="M141.098 38.0856C140.313 37.5242 139.656 36.7946 139.173 35.9473C138.708 35.0956 138.4 34.0531 138.635 33.0727C138.926 33.9528 139.304 34.8002 139.761 35.602C140.194 36.3984 140.721 37.169 141.098 38.0856Z" fill="#FF7867"/>
<path d="M137.617 51.6087C137.72 51.7394 138.155 51.561 138.631 51.6154C139.11 51.6402 139.511 51.8872 139.633 51.7747C139.77 51.6793 139.419 51.0584 138.68 50.9955C137.94 50.9325 137.497 51.4933 137.617 51.6087Z" fill="#FF7867"/>
<path d="M134.562 52.1466C134.697 52.242 135.068 51.9559 135.541 51.8729C136.005 51.7651 136.459 51.892 136.547 51.7498C136.653 51.6173 136.154 51.1194 135.426 51.2634C134.697 51.4075 134.416 52.0655 134.562 52.1466Z" fill="#FF7867"/>
<path d="M135.441 53.2234C135.464 53.5629 135.651 53.8271 135.86 53.8119C136.069 53.7966 136.221 53.5105 136.198 53.1709C136.175 52.8314 135.988 52.5672 135.779 52.5825C135.57 52.5977 135.418 52.8839 135.441 53.2234Z" fill="#454545"/>
<path d="M138.273 53.0259C138.295 53.3655 138.484 53.6287 138.693 53.6144C138.901 53.6001 139.053 53.313 139.031 52.9725C139.008 52.6321 138.821 52.3698 138.611 52.385C138.401 52.4003 138.251 52.6864 138.273 53.0259Z" fill="#454545"/>
<path d="M137.293 56.1352C137.323 56.1326 137.35 56.1194 137.371 56.098C137.392 56.0765 137.405 56.0482 137.407 56.018C137.41 55.9878 137.402 55.9577 137.385 55.9328C137.368 55.908 137.343 55.8902 137.314 55.8824C137.007 55.8052 136.54 55.6106 136.512 55.438C136.502 55.375 136.575 55.2873 136.712 55.1986C137.617 54.612 137.333 52.9954 137.321 52.9268C137.313 52.8946 137.294 52.8667 137.267 52.8487C137.24 52.8308 137.207 52.8242 137.176 52.8303C137.144 52.8364 137.116 52.8548 137.097 52.8816C137.078 52.9085 137.07 52.9417 137.075 52.9745C137.075 52.9897 137.34 54.4871 136.578 54.9773C136.342 55.1309 136.236 55.2978 136.265 55.4761C136.329 55.8777 137.101 56.0894 137.255 56.1285C137.267 56.1326 137.28 56.1348 137.293 56.1352Z" fill="#FF7867"/>
<path d="M139.138 56.6436C139.166 57.3694 138.674 57.9864 138.024 58.0322C137.374 58.078 136.809 57.5334 136.741 56.8105L139.138 56.6436Z" fill="white"/>
<path d="M136.816 57.1462C136.78 57.0379 136.757 56.926 136.746 56.8124L139.138 56.6436C139.143 56.7574 139.134 56.8714 139.112 56.9831L136.816 57.1462Z" fill="white"/>
<path d="M116.035 67.4066L116.353 69.8978L119.142 69.2025L118.745 66.7084L116.035 67.4066Z" fill="#FFCEC8"/>
<path d="M119.88 60.9029C119.586 60.7799 119.246 60.9487 119.081 61.3026L118.169 62.7332L116.852 57.9931C116.796 57.7851 116.607 57.6888 116.436 57.7909C116.365 57.8418 116.309 57.9127 116.276 57.995C116.243 58.0774 116.234 58.1678 116.25 58.2553L116.789 61.6621L115.136 58.0694C115.121 58.0286 115.097 57.9921 115.065 57.9629C115.034 57.9337 114.996 57.9126 114.955 57.9015C114.914 57.8904 114.871 57.8895 114.83 57.899C114.789 57.9084 114.75 57.9279 114.718 57.9559C114.646 58.0199 114.596 58.1055 114.574 58.2005C114.552 58.2955 114.56 58.3951 114.597 58.4852L114.608 58.5176C114.601 58.509 116.109 62.1018 116.109 62.1018L114.424 59.1089C114.41 59.0809 114.391 59.0559 114.368 59.0355C114.345 59.0151 114.318 58.9997 114.289 58.9902C114.259 58.9807 114.229 58.9773 114.198 58.9801C114.168 58.983 114.138 58.9921 114.111 59.0069C114.035 59.0548 113.978 59.1294 113.951 59.217C113.924 59.3046 113.928 59.3993 113.964 59.4838L115.308 62.7818L113.574 60.736C113.47 60.6178 113.378 60.5863 113.259 60.7046C113.233 60.7293 113.212 60.7583 113.197 60.7904C113.167 60.8551 113.153 60.9261 113.156 60.9974C113.159 61.0687 113.178 61.1384 113.212 61.2005L116.031 67.4094L118.742 66.7113C118.742 66.7113 118.877 66.0265 118.983 64.8686C119.089 63.7108 119.88 60.9029 119.88 60.9029Z" fill="#FFCEC8"/>
<path d="M137.727 99.6604L136.903 61.1977L145.93 59.9206L146.256 99.6604H137.727Z" fill="#FF7867"/>
<path d="M166.998 98.1105L163.442 93.4372L167.607 83.4314L154.895 72.4872L153.722 84.4014C153.722 84.4014 160.02 88.864 162.383 99.6613H146.256L145.93 59.9215L151.84 58.8371C152.559 58.7079 153.295 58.7277 154.006 58.8953C154.717 59.0628 155.388 59.3748 155.98 59.8128C160.001 62.7256 168.311 69.9044 173.22 77.8682C173.825 78.8496 174.475 81.1472 174.475 81.1472C174.891 83.338 174.575 85.6089 173.579 87.5926L166.998 98.1105Z" fill="#464646"/>
<path d="M154.895 72.6073C154.911 72.6072 154.927 72.6036 154.942 72.5967C154.957 72.5898 154.97 72.5798 154.981 72.5673C154.991 72.5557 154.999 72.5421 155.004 72.5274C155.009 72.5127 155.011 72.4972 155.01 72.4816C155.009 72.4661 155.005 72.4509 154.998 72.437C154.992 72.423 154.982 72.4106 154.971 72.4004C154.949 72.3794 152.742 70.3327 152.957 66.6674C152.958 66.6362 152.948 66.6055 152.928 66.5821C152.908 66.5587 152.879 66.5444 152.849 66.5425C152.834 66.541 152.818 66.5428 152.804 66.5477C152.79 66.5525 152.776 66.5604 152.765 66.5708C152.753 66.5811 152.744 66.5938 152.738 66.6079C152.731 66.6221 152.728 66.6375 152.727 66.6531C152.506 70.4385 154.795 72.5568 154.819 72.5778C154.84 72.5968 154.867 72.6073 154.895 72.6073Z" fill="#333333"/>
<path d="M142.464 99.5287C142.476 99.5284 142.487 99.5261 142.498 99.5221C142.919 99.3456 143.021 98.5292 142.802 97.0929C142.802 97.0757 142.552 95.5964 142.364 95.1739C142.395 95.1243 142.436 95.069 142.48 95.0089C142.642 94.7848 142.865 94.4777 142.865 94.161C141.623 87.9874 141.76 82.0923 141.892 76.3908C141.998 71.8129 142.107 67.0718 141.497 62.2506C141.489 62.2314 141.475 62.2155 141.458 62.2051C141.44 62.1948 141.42 62.1907 141.4 62.1934C141.379 62.1961 141.361 62.2055 141.346 62.2201C141.332 62.2347 141.323 62.2538 141.32 62.2744C141.929 67.0813 141.818 71.8119 141.713 76.3899C141.581 82.1019 141.444 88.0075 142.689 94.1839C142.689 94.4205 142.493 94.6885 142.337 94.9031C142.28 94.9813 142.229 95.0518 142.194 95.1119C142.19 95.1182 142.187 95.1249 142.185 95.132C142.181 95.1474 142.18 95.1637 142.184 95.1794C142.187 95.195 142.194 95.2096 142.205 95.2216C142.309 95.482 142.977 98.1525 142.641 99.0862C142.626 99.1439 142.6 99.1977 142.564 99.2442C142.527 99.2907 142.482 99.3288 142.43 99.3561C142.409 99.366 142.392 99.3837 142.383 99.4058C142.374 99.4279 142.373 99.4527 142.381 99.4753C142.389 99.4912 142.4 99.5047 142.415 99.5141C142.43 99.5235 142.447 99.5286 142.464 99.5287Z" fill="white"/>
<path d="M141.912 66.1114C141.912 66.2198 141.944 66.3259 142.002 66.416C142.061 66.5062 142.144 66.5765 142.242 66.618C142.339 66.6595 142.447 66.6704 142.55 66.6492C142.654 66.6281 142.749 66.5758 142.824 66.4991C142.898 66.4225 142.949 66.3247 142.97 66.2184C142.991 66.112 142.98 66.0017 142.94 65.9015C142.899 65.8013 142.831 65.7157 142.743 65.6554C142.655 65.5952 142.552 65.563 142.446 65.563C142.305 65.563 142.169 65.6208 142.069 65.7236C141.968 65.8265 141.912 65.9659 141.912 66.1114Z" fill="white"/>
<path d="M142.139 77.7471C142.139 77.8555 142.17 77.9615 142.229 78.0515C142.288 78.1416 142.371 78.2117 142.469 78.2531C142.567 78.2944 142.674 78.3052 142.777 78.2839C142.881 78.2626 142.976 78.2103 143.051 78.1336C143.125 78.0569 143.176 77.9591 143.197 77.8528C143.217 77.7464 143.206 77.6362 143.166 77.5361C143.126 77.4359 143.057 77.3503 142.969 77.2901C142.882 77.2299 142.778 77.1978 142.673 77.1978C142.603 77.1978 142.533 77.212 142.468 77.2396C142.403 77.2672 142.344 77.3077 142.295 77.3587C142.245 77.4097 142.206 77.4703 142.179 77.537C142.152 77.6036 142.139 77.675 142.139 77.7471Z" fill="white"/>
<path d="M142.45 90.0561C142.45 90.1645 142.481 90.2706 142.54 90.3607C142.599 90.4509 142.682 90.5212 142.78 90.5627C142.877 90.6042 142.984 90.6151 143.088 90.5939C143.192 90.5728 143.287 90.5205 143.361 90.4438C143.436 90.3672 143.487 90.2694 143.508 90.1631C143.528 90.0567 143.518 89.9464 143.477 89.8462C143.437 89.746 143.368 89.6604 143.281 89.6001C143.193 89.5399 143.089 89.5077 142.984 89.5077C142.842 89.5077 142.706 89.5655 142.606 89.6683C142.506 89.7712 142.45 89.9106 142.45 90.0561Z" fill="white"/>
<path d="M162.384 99.6575L161.635 97.0957L160.084 98.0876C160.042 98.1134 159.992 98.122 159.944 98.1116C159.896 98.1013 159.854 98.0728 159.826 98.0318C159.798 97.9909 159.785 97.9405 159.792 97.8907C159.798 97.8409 159.823 97.7955 159.86 97.7633L161.43 96.4748C161.454 96.4552 161.471 96.4281 161.478 96.3978C161.485 96.3675 161.482 96.3356 161.47 96.307C161.463 96.2892 161.451 96.2732 161.437 96.26C161.423 96.2469 161.407 96.2368 161.389 96.2306C161.371 96.2243 161.352 96.2219 161.333 96.2236C161.314 96.2252 161.296 96.2309 161.279 96.2402L159.594 97.194C159.552 97.2179 159.504 97.2253 159.457 97.2147C159.411 97.2042 159.37 97.1764 159.342 97.1367C159.314 97.097 159.302 97.0482 159.307 96.9996C159.312 96.9511 159.334 96.9062 159.37 96.8735L161.041 95.2951C161.069 95.2686 161.086 95.2327 161.09 95.194C161.094 95.1553 161.083 95.1166 161.061 95.0853C161.039 95.054 161.006 95.0322 160.969 95.0241C160.932 95.016 160.893 95.0221 160.86 95.0414L159.055 96.122C159.001 96.1534 158.938 96.1631 158.877 96.1492C158.816 96.1354 158.763 96.0989 158.727 96.047C158.691 95.995 158.675 95.9312 158.682 95.8678C158.69 95.8045 158.719 95.7462 158.766 95.7042L160.356 94.3165C160.36 94.3123 160.363 94.3068 160.364 94.3008C160.365 94.2947 160.364 94.2886 160.361 94.2834C160.358 94.2781 160.353 94.2741 160.347 94.272C160.342 94.2699 160.336 94.2698 160.33 94.2717L158.608 94.9126C158.556 94.9333 158.498 94.9324 158.446 94.9101C158.395 94.8878 158.353 94.8459 158.331 94.7931C158.309 94.7403 158.307 94.6806 158.327 94.6267C158.346 94.5727 158.385 94.5285 158.436 94.5034L160.801 93.2636C160.876 93.2227 160.958 93.1977 161.042 93.1903C161.127 93.1829 161.212 93.1932 161.292 93.2204C161.372 93.2477 161.447 93.2915 161.51 93.349C161.574 93.4066 161.625 93.4768 161.662 93.5554L162.799 96.0256L164.033 94.2135L165.964 96.7591L162.869 99.6575H162.384Z" fill="#FFCEC8"/>
<path d="M127.412 99.6575C128.752 91.5659 131.87 86.5435 131.87 86.5435L130.403 81.1433L125.408 86.9812C123.765 88.903 121.305 89.5067 119.14 88.5206C117.057 87.5725 115.618 85.3227 115.425 82.7199L114.938 68.1085L119.854 66.3422L122.411 78.3174L130.018 65.5134C130.604 64.5267 131.465 63.7428 132.488 63.2625L136.903 61.1938L137.727 99.6575H127.412Z" fill="#464646"/>
<path d="M130.404 81.2645C130.422 81.2645 130.439 81.2605 130.454 81.2528C130.47 81.2452 130.483 81.234 130.494 81.2202C130.505 81.2064 130.513 81.1902 130.517 81.173C130.52 81.1557 130.521 81.1378 130.517 81.1205C130.501 81.0499 129.006 73.9302 130.956 65.3159C130.963 65.2853 130.958 65.2532 130.941 65.2265C130.925 65.1999 130.899 65.1809 130.87 65.1738C130.84 65.1667 130.809 65.1721 130.783 65.1887C130.757 65.2054 130.738 65.2319 130.731 65.2625C128.769 73.9311 130.276 81.1005 130.292 81.172C130.298 81.1982 130.312 81.2217 130.332 81.2385C130.353 81.2553 130.378 81.2645 130.404 81.2645Z" fill="#333333"/>
<path d="M122.852 81.6928H122.867C122.897 81.6874 122.923 81.6704 122.94 81.6454C122.958 81.6205 122.965 81.5895 122.96 81.5592L122.521 78.3022C122.519 78.2866 122.515 78.2715 122.507 78.2579C122.5 78.2443 122.489 78.2324 122.477 78.2229C122.465 78.2135 122.451 78.2066 122.436 78.2029C122.421 78.1991 122.406 78.1985 122.391 78.2011C122.361 78.2056 122.334 78.2221 122.315 78.2471C122.297 78.2721 122.289 78.3035 122.293 78.3346L122.733 81.5917C122.737 81.6207 122.751 81.6472 122.773 81.6659C122.795 81.6847 122.823 81.6942 122.852 81.6928Z" fill="#333333"/>
<path d="M115.044 71.5344C115.055 71.5343 115.067 71.5323 115.078 71.5287L119.915 70.0027C119.93 69.9982 119.943 69.9908 119.955 69.9809C119.967 69.971 119.976 69.9589 119.984 69.9451C119.991 69.9314 119.995 69.9163 119.996 69.9008C119.998 69.8853 119.996 69.8697 119.991 69.8548C119.982 69.825 119.962 69.8001 119.935 69.7854C119.908 69.7708 119.877 69.7676 119.847 69.7766L115.01 71.3026C114.996 71.3071 114.982 71.3145 114.97 71.3243C114.959 71.3342 114.949 71.3463 114.942 71.3601C114.935 71.3738 114.93 71.3889 114.929 71.4044C114.927 71.4199 114.929 71.4356 114.933 71.4505C114.941 71.4746 114.955 71.4958 114.975 71.5108C114.995 71.5259 115.019 71.5342 115.044 71.5344Z" fill="#333333"/>
<path d="M116.091 70.2411C116.22 70.2411 116.345 70.2019 116.452 70.1286C116.559 70.0552 116.643 69.9509 116.692 69.8289C116.741 69.7069 116.754 69.5727 116.729 69.4432C116.704 69.3137 116.642 69.1947 116.551 69.1014C116.46 69.008 116.344 68.9444 116.218 68.9187C116.092 68.8929 115.961 68.9061 115.842 68.9566C115.724 69.0072 115.622 69.0927 115.551 69.2025C115.479 69.3123 115.441 69.4414 115.441 69.5734C115.441 69.7505 115.51 69.9203 115.631 70.0455C115.753 70.1707 115.919 70.2411 116.091 70.2411ZM116.091 69.1443C116.174 69.1444 116.255 69.1698 116.324 69.2172C116.392 69.2646 116.446 69.3318 116.477 69.4105C116.509 69.4891 116.517 69.5755 116.501 69.6589C116.485 69.7423 116.445 69.8188 116.386 69.8789C116.327 69.939 116.253 69.9798 116.172 69.9963C116.09 70.0129 116.006 70.0043 115.93 69.9717C115.853 69.9391 115.788 69.884 115.742 69.8133C115.696 69.7426 115.671 69.6594 115.671 69.5744C115.672 69.4602 115.716 69.3508 115.795 69.2702C115.873 69.1895 115.98 69.1443 116.091 69.1443Z" fill="#333333"/>
<path d="M166.925 96.3537C167.054 96.3537 167.18 96.3145 167.286 96.2411C167.393 96.1678 167.477 96.0635 167.526 95.9415C167.575 95.8195 167.588 95.6853 167.563 95.5558C167.538 95.4263 167.476 95.3073 167.385 95.214C167.294 95.1206 167.178 95.057 167.052 95.0313C166.926 95.0055 166.795 95.0187 166.677 95.0693C166.558 95.1198 166.456 95.2054 166.385 95.3151C166.313 95.4249 166.275 95.554 166.275 95.686C166.275 95.8631 166.344 96.0329 166.466 96.1581C166.588 96.2833 166.753 96.3537 166.925 96.3537ZM166.925 95.2569C167.008 95.2569 167.089 95.2821 167.158 95.3294C167.227 95.3766 167.281 95.4438 167.312 95.5224C167.344 95.601 167.352 95.6875 167.336 95.7709C167.32 95.8544 167.28 95.931 167.221 95.9912C167.163 96.0513 167.088 96.0923 167.007 96.1089C166.926 96.1255 166.842 96.117 166.765 96.0844C166.688 96.0518 166.623 95.9967 166.577 95.926C166.531 95.8552 166.506 95.7721 166.506 95.687C166.506 95.5729 166.551 95.4635 166.629 95.3828C166.708 95.3022 166.814 95.2569 166.925 95.2569Z" fill="#333333"/>
<path d="M168.142 94.9088C168.169 94.9089 168.196 94.8988 168.217 94.8802C168.24 94.8597 168.254 94.8307 168.257 94.7995C168.259 94.7682 168.25 94.7373 168.23 94.7133L164.728 90.5273C164.708 90.5034 164.68 90.4886 164.649 90.4862C164.619 90.4838 164.588 90.4939 164.565 90.5144C164.542 90.5349 164.527 90.5641 164.525 90.5954C164.523 90.6268 164.533 90.6579 164.553 90.6818L168.054 94.8678C168.065 94.8806 168.079 94.8908 168.094 94.8979C168.109 94.905 168.125 94.9087 168.142 94.9088Z" fill="#333333"/>
<path d="M143.635 63.934C143.652 63.9341 143.669 63.9288 143.684 63.9187L146.291 62.1533C146.304 62.1376 146.312 62.1179 146.313 62.0971C146.315 62.0762 146.31 62.0555 146.298 62.0381C146.287 62.0207 146.271 62.0075 146.252 62.0006C146.232 61.9937 146.212 61.9934 146.192 61.9998L143.639 63.7299L141.517 62.0923C141.507 62.0849 141.497 62.0795 141.485 62.0764C141.474 62.0733 141.462 62.0725 141.451 62.0742C141.439 62.0759 141.428 62.08 141.418 62.0862C141.408 62.0924 141.399 62.1007 141.392 62.1104C141.379 62.1301 141.373 62.1542 141.377 62.1779C141.38 62.2015 141.392 62.2231 141.41 62.2382L143.584 63.9159C143.599 63.927 143.616 63.9333 143.635 63.934Z" fill="white"/>
<path d="M139.654 64.1838C139.666 64.1837 139.679 64.1809 139.69 64.1756C139.702 64.1704 139.712 64.1628 139.721 64.1533L141.392 62.2259C141.407 62.2073 141.414 62.1838 141.413 62.16C141.411 62.1362 141.401 62.1137 141.385 62.0971C141.367 62.0816 141.344 62.0737 141.32 62.075C141.297 62.0762 141.275 62.0865 141.258 62.1038L139.628 63.9874L136.629 62.8658C136.609 62.8645 136.589 62.8699 136.572 62.8811C136.556 62.8924 136.543 62.9089 136.536 62.9282C136.529 62.9475 136.529 62.9685 136.534 62.9882C136.54 63.0079 136.552 63.0252 136.568 63.0375L139.623 64.1819C139.633 64.1843 139.643 64.185 139.654 64.1838Z" fill="white"/>
<path d="M145.079 60.0312L141.779 61.6306L138.518 60.9716L141.623 59.4561L145.079 60.0312Z" fill="#FFCEC8"/>
<path d="M136.903 61.1977L138.37 59.8043L138.518 60.9717L137.522 61.4028L136.903 61.1977Z" fill="#FF7867"/>
<path d="M144.9 58.7971L145.04 60.1247L145.93 59.9206L144.9 58.7971Z" fill="#FF7867"/>
<path d="M209.098 99.6575L209.133 99.605L207.787 89.5182C213.522 91.6603 219.867 99.1587 219.867 99.1587C219.999 99.3256 220.12 99.4915 220.247 99.6575H209.098Z" fill="#333333"/>
<path d="M201.919 60.0189L201.72 60.4853L200.834 62.5635L194.878 63.8167L191.536 59.0394L192.24 57.336L192.402 56.9402L201.919 60.0189Z" fill="#FFD3CF"/>
<path d="M160.942 15.7488C160.942 15.7488 164.723 10.4822 170.414 13.3835C170.415 13.3835 166.2 19.5867 160.942 15.7488Z" fill="#545ED7"/>
<path d="M162.541 13.086L163.63 16.2104L167.873 14.7588L166.658 11.6458L162.541 13.086Z" fill="#FFCEC8"/>
<path d="M209.27 99.6575H183.615C177.982 73.501 190.883 58.3002 190.883 58.3002L192.164 57.5305L191.534 59.0365L194.878 63.8119L200.831 62.5625L201.917 60.0179L203.267 61.3169L208.481 85.9531C208.481 85.9531 207.004 90.326 209.264 93.6288C211.525 96.9317 210.911 98.9822 210.911 98.9822L209.27 99.6575Z" fill="#545ED7"/>
<path d="M243.854 40.8753C243.854 40.8753 240.03 36.055 235.076 38.3755L239.074 42.839L243.854 40.8753Z" fill="#545ED7"/>
<path d="M242.24 39.3283L241.149 42.4528L236.908 41.0012L238.123 37.8881L242.24 39.3283Z" fill="#FFCEC8"/>
<path d="M237.7 30.2315C237.94 30.1837 238.189 30.2246 238.402 30.3467C238.615 30.4689 238.779 30.6645 238.866 30.8991L239.97 32.9172L243.168 27.1165C243.201 27.0553 243.246 27.0018 243.301 26.9594C243.355 26.917 243.417 26.8866 243.483 26.8702C243.55 26.8538 243.618 26.8517 243.686 26.8641C243.753 26.8764 243.817 26.903 243.873 26.942C243.968 27.0107 244.037 27.1106 244.07 27.2252C244.102 27.3398 244.095 27.4623 244.05 27.5724L242.392 31.828L245.854 27.5638C245.895 27.5129 245.945 27.4709 246.002 27.4402C246.059 27.4095 246.121 27.3907 246.185 27.385C246.249 27.3794 246.313 27.3868 246.375 27.4071C246.436 27.4273 246.492 27.4598 246.541 27.5028C246.637 27.5892 246.697 27.7099 246.709 27.8404C246.722 27.9708 246.685 28.1011 246.607 28.2047L246.58 28.2438C246.595 28.2343 243.366 32.5271 243.366 32.5271L246.734 29.0335C246.801 28.9644 246.888 28.9202 246.982 28.9081C247.076 28.896 247.171 28.9167 247.252 28.9668C247.304 28.998 247.348 29.04 247.382 29.0899C247.416 29.1399 247.44 29.1967 247.451 29.2566C247.463 29.3166 247.462 29.3784 247.448 29.4379C247.435 29.4974 247.409 29.5533 247.373 29.602L244.471 33.5524L247.693 31.2834C247.887 31.1537 248.04 31.1318 248.2 31.3073C248.233 31.3423 248.26 31.3838 248.278 31.4294C248.308 31.5194 248.313 31.6165 248.291 31.7091C248.269 31.8017 248.222 31.886 248.155 31.952L242.24 39.3283L238.12 37.8881C238.091 37.0856 238.109 36.2821 238.174 35.4818C238.284 33.9797 237.7 30.2315 237.7 30.2315Z" fill="#FFCEC8"/>
<path d="M184.755 99.0719C184.783 99.2677 184.812 99.4639 184.842 99.6604H176.307C173.746 78.3317 177.715 65.7337 177.715 65.7337L160.942 15.7488C161.291 15.8897 161.654 15.989 162.025 16.0445C163.388 16.2467 164.718 15.6315 165.669 14.6139C167.678 12.4613 170.415 13.3864 170.415 13.3864L189.709 57.9683L190.883 58.3031C179.932 76.5768 184.755 99.0719 184.755 99.0719Z" fill="#464646"/>
<path d="M231.82 65.2835L210.481 75.7747C212.118 80.8343 220.52 91.646 227.125 99.6575H218.445C217.374 98.4536 216.202 97.349 214.943 96.3566C210.748 93.0537 208.134 89.6966 208.134 89.6966C200.138 78.6312 203.267 61.3169 203.267 61.3169L210.133 63.1919L227.778 55.3369L235.076 38.3755C235.076 38.3755 236.641 37.7508 238.726 40.0712C240.812 42.3917 243.854 40.8752 243.854 40.8752L236.29 60.3736C235.453 62.5287 233.858 64.2815 231.82 65.2835Z" fill="#464646"/>
<path d="M192.013 66.0055C192.032 66.0055 192.05 65.9992 192.065 65.9874L194.932 63.8892C194.945 63.8838 194.957 63.8754 194.967 63.8647C194.976 63.854 194.983 63.8413 194.987 63.8274C194.991 63.8135 194.992 63.7989 194.989 63.7846C194.987 63.7704 194.982 63.7569 194.973 63.7451C194.965 63.7334 194.955 63.7237 194.942 63.7168C194.93 63.7099 194.916 63.706 194.902 63.7053C194.888 63.7047 194.874 63.7073 194.861 63.7131C194.848 63.7188 194.837 63.7275 194.827 63.7385L192.03 65.7843L188.476 61.0794C188.461 61.0605 188.44 61.0483 188.417 61.0451C188.393 61.0419 188.369 61.048 188.35 61.0622C188.332 61.0778 188.32 61.1 188.317 61.1243C188.314 61.1487 188.32 61.1732 188.334 61.1929L191.941 65.9683C191.95 65.9796 191.96 65.9888 191.973 65.9953C191.985 66.0017 191.999 66.0052 192.013 66.0055Z" fill="white"/>
<path d="M195.967 67.1205C195.977 67.1202 195.986 67.1186 195.996 67.1157L202.818 64.7504C202.835 64.7389 202.848 64.7218 202.855 64.7017C202.862 64.6816 202.862 64.6597 202.856 64.6395C202.849 64.6193 202.836 64.6019 202.819 64.5902C202.801 64.5785 202.781 64.5731 202.76 64.5749L196.023 66.9106L194.966 63.7842C194.957 63.7613 194.941 63.7426 194.919 63.732C194.898 63.7213 194.873 63.7196 194.851 63.727C194.828 63.7356 194.81 63.7527 194.8 63.7747C194.79 63.7967 194.788 63.822 194.795 63.8453L195.882 67.0585C195.888 67.0764 195.9 67.0919 195.915 67.103C195.93 67.1141 195.948 67.1201 195.967 67.1205Z" fill="white"/>
<path d="M195.979 98.5073C195.995 98.507 196.011 98.5023 196.025 98.4935C196.04 98.4848 196.051 98.4725 196.059 98.4577C196.069 98.4359 196.071 98.4109 196.064 98.3877C196.058 98.3645 196.042 98.3448 196.022 98.3328C195.625 98.1134 195.36 96.966 195.103 95.853C194.825 94.6618 194.565 93.524 194.103 93.1606C194.233 93.1167 194.264 93.0652 194.271 93.0166C194.274 92.9898 194.269 92.9628 194.255 92.9398C194.241 92.9168 194.221 92.8992 194.196 92.8897C194.154 92.8731 194.109 92.8668 194.064 92.8716C194.145 92.7486 194.228 92.616 194.312 92.4796C194.525 92.1363 194.745 91.7805 194.962 91.5592C194.979 91.5416 194.988 91.518 194.988 91.4934C194.988 91.4689 194.979 91.4453 194.962 91.4276C193.807 90.2421 193.412 88.6217 193.031 87.0547C192.597 78.1124 193.216 70.7285 194.969 63.8348C194.974 63.811 194.97 63.7862 194.958 63.7652C194.946 63.7443 194.926 63.7289 194.904 63.7222C194.881 63.7169 194.857 63.7207 194.836 63.7329C194.816 63.7451 194.801 63.7648 194.794 63.788C193.03 70.7008 192.416 78.1028 192.853 87.0814C193.237 88.6627 193.63 90.2793 194.773 91.4944C194.546 91.7722 194.341 92.0682 194.161 92.3795C194.021 92.6169 193.868 92.8462 193.703 93.0662L193.696 93.0738C193.685 93.0882 193.679 93.1056 193.677 93.1239C193.675 93.1422 193.679 93.1605 193.687 93.1768V93.1816C193.695 93.1916 193.704 93.2003 193.715 93.2073L193.734 93.214C193.742 93.2169 193.752 93.2169 193.761 93.214H193.768C194.302 93.214 194.63 94.6322 194.919 95.8845C195.198 97.0881 195.46 98.224 195.928 98.4825C195.942 98.496 195.96 98.5047 195.979 98.5073Z" fill="white"/>
<path d="M195.489 69.3932C195.489 69.4904 195.461 69.5853 195.408 69.6661C195.355 69.7469 195.281 69.8099 195.193 69.847C195.106 69.8842 195.01 69.8939 194.917 69.875C194.824 69.856 194.739 69.8092 194.672 69.7405C194.605 69.6719 194.56 69.5843 194.541 69.4891C194.523 69.3938 194.532 69.295 194.569 69.2053C194.605 69.1155 194.666 69.0388 194.745 68.9848C194.823 68.9308 194.916 68.902 195.01 68.902C195.137 68.902 195.259 68.9538 195.349 69.0459C195.438 69.138 195.489 69.263 195.489 69.3932Z" fill="white"/>
<path d="M194.793 78.5425C194.529 78.5425 194.315 78.3226 194.315 78.0513C194.315 77.7801 194.529 77.5602 194.793 77.5602C195.057 77.5602 195.271 77.7801 195.271 78.0513C195.271 78.3226 195.057 78.5425 194.793 78.5425Z" fill="white"/>
<path d="M195.054 87.0223C194.79 87.0223 194.576 86.8024 194.576 86.5311C194.576 86.2598 194.79 86.0399 195.054 86.0399C195.318 86.0399 195.532 86.2598 195.532 86.5311C195.532 86.8024 195.318 87.0223 195.054 87.0223Z" fill="white"/>
<path d="M197.618 97.1081C197.618 97.2053 197.59 97.3002 197.537 97.381C197.485 97.4618 197.41 97.5247 197.323 97.5619C197.235 97.5991 197.139 97.6088 197.046 97.5898C196.954 97.5709 196.868 97.5241 196.802 97.4554C196.735 97.3867 196.689 97.2992 196.671 97.2039C196.652 97.1086 196.662 97.0099 196.698 96.9201C196.734 96.8304 196.795 96.7537 196.874 96.6997C196.953 96.6457 197.045 96.6169 197.14 96.6169C197.267 96.6172 197.388 96.669 197.478 96.7611C197.567 96.8531 197.618 96.9779 197.618 97.1081Z" fill="white"/>
<path d="M201.919 60.0189L201.72 60.4852C200.986 61.2194 200.07 61.734 199.072 61.9736C198.074 62.2132 197.032 62.1687 196.057 61.8449C195.082 61.5212 194.211 60.9304 193.538 60.1363C192.866 59.3421 192.417 58.3746 192.24 57.3379L192.402 56.9421L201.919 60.0189Z" fill="#FFB2A9"/>
<path d="M195.732 61.1777C195.051 60.8784 194.435 60.4444 193.917 59.9004C193.4 59.3564 192.992 58.713 192.717 58.0071C192.441 57.3011 192.304 56.5464 192.313 55.786C192.322 55.0256 192.476 54.2744 192.768 53.5753L195.038 48.1285L205.405 52.6864L203.134 58.1333C202.545 59.5449 201.435 60.6585 200.047 61.2294C198.659 61.8003 197.107 61.7817 195.732 61.1777Z" fill="#FFD3CF"/>
<path d="M193.481 54.0064C193.038 54.9077 192.727 55.6631 191.849 55.2081C190.972 54.7532 189.859 53.2596 190.302 52.3583C190.408 52.144 190.553 51.953 190.73 51.7964C190.907 51.6397 191.113 51.5205 191.335 51.4454C191.557 51.3704 191.791 51.341 192.025 51.3589C192.258 51.3769 192.485 51.4418 192.694 51.55C192.903 51.6582 193.089 51.8076 193.241 51.9896C193.394 52.1716 193.51 52.3827 193.583 52.6108C193.656 52.8389 193.684 53.0795 193.667 53.319C193.649 53.5585 193.586 53.792 193.481 54.0064Z" fill="#FFD3CF"/>
<path d="M202.314 57.7012C202.036 58.6693 201.751 59.437 202.694 59.726C203.637 60.015 205.444 59.7165 205.725 58.7494C205.861 58.2849 205.811 57.7841 205.587 57.3572C205.363 56.9304 204.983 56.6124 204.53 56.4733C204.078 56.3342 203.591 56.3853 203.175 56.6154C202.759 56.8455 202.45 57.2357 202.314 57.7003V57.7012Z" fill="#FFD3CF"/>
<path d="M191.377 51.4332C191.377 51.4332 190.666 49.7432 191.171 47.869C191.464 46.7837 192.484 46.0417 193.572 46.1771L193.62 46.1828C193.62 46.1828 193.729 42.5014 197.683 41.519C201.637 40.5366 203.093 45.4246 203.093 45.4246C203.323 45.2442 203.601 45.1427 203.89 45.1346C204.179 45.1266 204.462 45.2124 204.701 45.3798C204.701 45.3798 205.461 45.7813 205.135 46.7408C205.135 46.7408 206.97 45.6401 208.765 48.076C210.98 51.0956 205.617 57.5667 205.617 57.5667C205.617 57.5667 205.356 56.2725 203.793 56.3612L204.987 53.7508C204.987 53.7508 201.881 54.2639 201.294 51.3664C201.294 51.3664 199.164 53.1003 197.383 51.7908C195.471 50.385 194.865 52.9411 193.369 52.1485C193.365 52.1447 192.634 51.0803 191.377 51.4332Z" fill="#464646"/>
<path d="M160.908 0.704439C160.813 0.773145 160.743 0.873041 160.711 0.987649C160.679 1.10226 160.686 1.22473 160.73 1.33486L162.385 5.58571L158.927 1.32628C158.886 1.27536 158.836 1.23332 158.779 1.20263C158.722 1.17193 158.66 1.15319 158.596 1.1475C158.532 1.14182 158.467 1.1493 158.406 1.16952C158.345 1.18974 158.288 1.22228 158.24 1.26524C158.144 1.35168 158.084 1.4724 158.071 1.60281C158.059 1.73322 158.096 1.86353 158.174 1.9672L158.201 2.00726C158.133 1.9608 158.054 1.93599 157.973 1.93599C157.892 1.93599 157.813 1.9608 157.746 2.00726C157.67 2.06298 157.614 2.14225 157.586 2.23331C157.557 2.32436 157.558 2.42235 157.589 2.51274C158.466 4.04636 159.437 5.78218 160.31 7.3139L157.088 5.04398C156.894 4.91427 156.741 4.89234 156.581 5.06782C156.547 5.10287 156.521 5.14435 156.503 5.1899C156.473 5.27995 156.468 5.37702 156.49 5.46964C156.512 5.56226 156.559 5.64656 156.626 5.71255L162.541 13.0888L166.658 11.6487C166.687 10.8465 166.669 10.0433 166.604 9.24332C166.497 7.74022 167.08 3.992 167.08 3.992C166.84 3.94457 166.591 3.98608 166.378 4.10917C166.164 4.23225 166 4.42895 165.915 4.66439L164.811 6.68252L161.612 0.881834C161.58 0.820484 161.535 0.766811 161.48 0.724211C161.426 0.68161 161.364 0.651009 161.298 0.634337C161.232 0.617665 161.163 0.615285 161.096 0.627352C161.028 0.639418 160.964 0.665668 160.908 0.704439Z" fill="#FFCEC8"/>
<path d="M161.414 6.38779C161.436 6.38786 161.457 6.38049 161.475 6.36681C161.496 6.35006 161.509 6.32551 161.513 6.29854C161.516 6.27156 161.509 6.24433 161.493 6.22279L158.278 1.93666C158.27 1.92602 158.26 1.91709 158.248 1.9104C158.237 1.9037 158.225 1.89937 158.212 1.89764C158.199 1.89591 158.185 1.89683 158.173 1.90033C158.16 1.90384 158.148 1.90986 158.138 1.91806C158.128 1.92627 158.119 1.93649 158.112 1.94814C158.106 1.9598 158.102 1.97265 158.1 1.98598C158.098 1.99931 158.099 2.01285 158.103 2.02583C158.106 2.0388 158.112 2.05096 158.12 2.0616L161.335 6.34773C161.344 6.36024 161.356 6.37038 161.37 6.37733C161.383 6.38428 161.398 6.38787 161.414 6.38779Z" fill="#FF9C91"/>
<path d="M200.174 56.1552C200.074 56.4061 199.847 56.5482 199.666 56.4728C199.485 56.3975 199.418 56.1323 199.517 55.8805C199.617 55.6287 199.844 55.4876 200.026 55.5629C200.208 55.6383 200.273 55.9034 200.174 56.1552Z" fill="#464646"/>
<path d="M199.388 57.2043L200.07 57.4905C200.417 57.6345 200.805 57.6313 201.15 57.4817C201.494 57.332 201.767 57.0481 201.908 56.6922L202.326 55.6364L199.024 54.2592L198.606 55.315C198.48 55.6346 198.469 55.99 198.575 56.3174C198.68 56.6448 198.896 56.9227 199.184 57.1013C199.249 57.141 199.317 57.1754 199.388 57.2043ZM202.055 55.7518L201.716 56.6101C201.595 56.9133 201.362 57.155 201.069 57.2825C200.775 57.4099 200.444 57.4127 200.148 57.2902L199.466 57.004C199.171 56.8799 198.935 56.6407 198.811 56.3389C198.687 56.037 198.685 55.697 198.804 55.3932L199.143 54.5348L202.055 55.7518Z" fill="white"/>
<path d="M196.88 54.7809C196.78 55.0317 196.553 55.1748 196.371 55.0985C196.189 55.0222 196.124 54.758 196.223 54.5072C196.323 54.2563 196.55 54.1133 196.731 54.1886C196.912 54.264 196.981 54.5291 196.88 54.7809Z" fill="#464646"/>
<path d="M195.217 55.4666L195.898 55.7528C196.245 55.8971 196.634 55.894 196.978 55.7444C197.323 55.5947 197.596 55.3106 197.737 54.9545L198.155 53.8987L194.857 52.5234L194.439 53.5792C194.313 53.8988 194.301 54.2543 194.407 54.5818C194.513 54.9093 194.729 55.1872 195.017 55.3655C195.081 55.4043 195.148 55.4381 195.217 55.4666ZM197.884 54.0141L197.545 54.8725C197.424 55.1756 197.191 55.4173 196.897 55.5448C196.603 55.6722 196.272 55.675 195.976 55.5525L195.295 55.2664C194.999 55.1422 194.764 54.903 194.64 54.6012C194.516 54.2994 194.513 53.9593 194.632 53.6555L194.971 52.7971L197.884 54.0141Z" fill="white"/>
<path d="M195.271 57.624C195.12 58.0593 195.14 58.5383 195.328 58.9585C195.515 59.3788 195.856 59.707 196.276 59.8731C196.696 60.0392 197.162 60.03 197.576 59.8475C197.99 59.665 198.317 59.3236 198.489 58.8963L195.271 57.624Z" fill="white"/>
<path d="M198.958 53.994L196.726 56.4289L197.904 57.3312L198.958 53.994Z" fill="#FFCEC8"/>
<path d="M197.85 57.4227L197.842 57.417L196.664 56.5148C196.653 56.5058 196.643 56.4944 196.635 56.4812C196.628 56.4681 196.624 56.4535 196.623 56.4385C196.621 56.4235 196.623 56.4085 196.628 56.3943C196.633 56.3802 196.64 56.3672 196.65 56.3564L198.879 53.9206C198.898 53.902 198.924 53.8916 198.95 53.8916C198.977 53.8916 199.002 53.9019 199.022 53.9205C199.041 53.9391 199.053 53.9646 199.054 53.9917C199.056 54.0188 199.047 54.0455 199.031 54.0665L196.878 56.4156L197.963 57.2453C197.986 57.2611 198.001 57.2856 198.007 57.3135C198.012 57.3413 198.006 57.3701 197.991 57.3936C197.976 57.4172 197.952 57.4334 197.925 57.4389C197.898 57.4443 197.869 57.4385 197.847 57.4227H197.85Z" fill="#FF7867"/>
<path d="M201.459 54.5234C201.43 54.5726 201.384 54.6088 201.33 54.6249C201.276 54.641 201.219 54.6357 201.168 54.6102L200.08 54.0494C200.006 54.0036 199.953 53.9298 199.933 53.8439C199.912 53.7581 199.925 53.6673 199.969 53.5916C199.993 53.5518 200.024 53.5175 200.061 53.4909C200.098 53.4642 200.14 53.4458 200.184 53.4368C200.229 53.4279 200.274 53.4285 200.318 53.4387C200.363 53.4489 200.404 53.4685 200.44 53.4962L201.4 54.2229C201.444 54.2566 201.475 54.3062 201.486 54.3619C201.497 54.4176 201.487 54.4755 201.459 54.5243V54.5234Z" fill="#464646"/>
<path d="M196.347 52.4633C196.331 52.5183 196.335 52.5776 196.36 52.6293C196.385 52.6809 196.427 52.7211 196.48 52.7418L197.615 53.1929C197.656 53.2055 197.699 53.2097 197.741 53.2054C197.784 53.201 197.825 53.188 197.862 53.1673C197.9 53.1466 197.933 53.1185 197.96 53.0846C197.987 53.0506 198.007 53.0116 198.019 52.9697C198.032 52.9252 198.036 52.8784 198.03 52.8324C198.025 52.7863 198.01 52.742 197.986 52.7022C197.963 52.6623 197.932 52.6279 197.895 52.6011C197.858 52.5742 197.817 52.5556 197.772 52.5462L196.604 52.305C196.55 52.2933 196.493 52.3031 196.445 52.3325C196.398 52.3618 196.362 52.4085 196.347 52.4633Z" fill="#464646"/>
<path d="M202.047 55.8414L194.916 52.8676C194.893 52.8584 194.871 52.8445 194.854 52.8268C194.836 52.809 194.822 52.7878 194.812 52.7643C194.802 52.7408 194.797 52.7156 194.797 52.6901C194.797 52.6646 194.802 52.6394 194.812 52.6159C194.821 52.5922 194.834 52.5706 194.852 52.5524C194.869 52.5342 194.89 52.5197 194.913 52.5098C194.935 52.5 194.96 52.4949 194.985 52.4949C195.01 52.495 195.034 52.5001 195.057 52.51L202.188 55.4838C202.211 55.493 202.232 55.5069 202.25 55.5246C202.268 55.5424 202.282 55.5636 202.292 55.5871C202.301 55.6106 202.306 55.6358 202.307 55.6613C202.307 55.6868 202.302 55.712 202.292 55.7356C202.283 55.7592 202.269 55.7808 202.252 55.799C202.235 55.8172 202.214 55.8317 202.191 55.8416C202.168 55.8514 202.144 55.8565 202.119 55.8565C202.094 55.8565 202.07 55.8513 202.047 55.8414Z" fill="#FF9D5A"/>
<path d="M104.749 51.2663C104.749 51.2663 108.077 60.5425 102.46 62.6922L103.024 69.4333L95.4537 69.934L93.7153 55.7108C93.7153 55.7108 98.0577 41.5372 104.749 51.2663Z" fill="#FFD3CF"/>
<path d="M103.024 69.4333L110.352 97.8749C110.352 97.8749 107.37 93.8568 99.8584 96.7905C92.3465 99.7242 89.9627 93.708 89.9627 93.708L93.7701 85.0632L95.4584 69.934L99.2362 68.9659L103.024 69.4333Z" fill="#545ED3"/>
<path d="M99.1563 68.8839L98.0224 72.449L95.3989 71.5973L95.4537 69.934L95.1491 66.7075L99.1563 68.8839Z" fill="#545ED3"/>
<path d="M102.743 66.0914L99.1562 68.8839L101.12 72.5091L103.68 71.4724L103.024 69.4333L102.743 66.0914Z" fill="#545ED3"/>
<path d="M84.7074 99.6575C86.482 97.5592 89.0989 94.5482 89.9617 93.7051C89.9617 93.7051 93.3048 99.1777 101.603 96.0695C102.358 95.7731 103.147 95.5769 103.95 95.4858C105.679 95.3179 108.379 95.5258 110.358 97.8701C110.358 97.8701 110.456 98.4882 110.552 99.6555L84.7074 99.6575Z" fill="#FF7867"/>
<path d="M120.158 25.3883C120.158 25.3883 116.387 21.5476 113.301 23.9158L117.289 27.643C117.289 27.643 119.495 28.7312 120.158 25.3883Z" fill="#FF7867"/>
<path d="M62.7244 51.6469C62.7244 51.6469 62.3233 50.6931 63.7757 48.6035C64.9244 46.7513 66.1493 46.1542 68.1347 46.4909L67.2767 51.5782C67.2767 51.5782 65.7258 54.2592 62.7244 51.6469Z" fill="#FF7867"/>
<path d="M118.157 24.6177L117.72 27.0908L114.967 26.2543L115.484 23.7822L118.157 24.6177Z" fill="#FFCEC8"/>
<path d="M114.63 17.9272C114.93 17.8184 115.262 18.0044 115.409 18.3669L116.251 19.8452L117.795 15.1775C117.861 14.9725 118.054 14.8857 118.221 14.9963C118.289 15.0518 118.34 15.1263 118.368 15.2108C118.396 15.2954 118.4 15.3864 118.379 15.4732L117.677 18.8475L119.501 15.3435C119.517 15.3032 119.543 15.2675 119.576 15.2395C119.608 15.2115 119.647 15.192 119.689 15.1826C119.73 15.1733 119.773 15.1743 119.814 15.1857C119.855 15.1971 119.893 15.2185 119.925 15.2481C119.993 15.3161 120.038 15.4043 120.055 15.5003C120.071 15.5963 120.058 15.6952 120.017 15.7832L120.004 15.8146C120.013 15.806 118.333 19.3177 118.333 19.3177L120.16 16.4117C120.176 16.3843 120.196 16.3604 120.22 16.3412C120.244 16.322 120.272 16.308 120.302 16.3C120.331 16.292 120.362 16.2902 120.392 16.2946C120.423 16.299 120.452 16.3097 120.478 16.3258C120.55 16.3773 120.603 16.4535 120.626 16.5408C120.648 16.6282 120.64 16.721 120.602 16.8027L119.1 20.0283L120.93 18.0731C121.042 17.9606 121.135 17.9338 121.248 18.0578C121.272 18.0834 121.292 18.1135 121.305 18.1465C121.332 18.2127 121.342 18.2843 121.336 18.3555C121.33 18.4267 121.307 18.4953 121.27 18.5557L118.156 24.6129L115.482 23.7775C115.482 23.7775 115.38 23.0879 115.331 21.9253C115.281 20.7627 114.63 17.9272 114.63 17.9272Z" fill="#FFCEC8"/>
<path d="M64.3868 50.1523L66.0026 52.0408L67.9416 49.8672L66.2589 48.0217L64.3868 50.1523Z" fill="#FFCEC8"/>
<path d="M64.0534 42.5519C63.7423 42.6177 63.551 42.9525 63.6067 43.3407L63.6262 45.0574L59.9609 41.8738C59.8021 41.7327 59.5894 41.7613 59.5058 41.9444C59.4756 42.0274 59.4691 42.1175 59.487 42.2042C59.5049 42.2909 59.5466 42.3705 59.607 42.4337L61.9027 44.9544L58.5818 42.9096C58.5473 42.8842 58.5075 42.8677 58.4655 42.8614C58.4235 42.8551 58.3807 42.8592 58.3406 42.8734C58.3005 42.8876 58.2643 42.9115 58.235 42.943C58.2058 42.9745 58.1842 43.0128 58.1723 43.0546C58.1478 43.1487 58.1525 43.2484 58.1858 43.3397C58.2191 43.431 58.2793 43.5094 58.358 43.5639L58.3859 43.5839C58.3747 43.5839 61.5758 45.7022 61.5758 45.7022L58.5512 44.1762C58.5245 44.1607 58.4951 44.1509 58.4647 44.1473C58.4343 44.1437 58.4035 44.1465 58.3741 44.1554C58.3447 44.1643 58.3174 44.1791 58.2938 44.1991C58.2701 44.219 58.2506 44.2437 58.2364 44.2715C58.1997 44.3544 58.1931 44.4481 58.2178 44.5355C58.2425 44.623 58.2969 44.6985 58.371 44.7484L61.2777 46.7246L58.7276 46.0169C58.5763 45.9787 58.4825 46.0054 58.449 46.1714C58.4411 46.2064 58.4395 46.2426 58.4444 46.2782C58.455 46.3489 58.482 46.4159 58.523 46.4736C58.5641 46.5314 58.618 46.5782 58.6803 46.6101L64.3877 50.1533L66.2599 48.0226C66.2599 48.0226 66.0017 47.3769 65.4612 46.3555C64.9208 45.334 64.0534 42.5519 64.0534 42.5519Z" fill="#FFCEC8"/>
<path d="M104.749 51.2663C104.749 51.2663 105.94 49.3893 104.775 47.1108C104.775 47.1108 102.963 43.0507 97.3268 44.6311C91.6909 46.2114 93.0355 51.3169 93.0355 51.3169C93.0355 51.3169 91.2823 48.9735 87.9048 50.5539C84.5273 52.1342 85.1838 56.6674 85.1838 56.6674C85.1838 56.6674 86.0419 59.7308 80.6929 59.9225C80.6929 59.9225 77.7556 59.6841 76.9151 62.0351C76.9151 62.0351 74.7635 65.2063 77.8949 68.7027C80.0577 71.1185 77.6906 72.9593 76.019 73.8663C74.8285 74.512 73.9936 75.727 73.9138 77.109C73.8339 78.491 74.3456 79.9617 76.6997 80.4357C76.6997 80.4357 72.596 86.0246 76.9309 91.213C80.0577 94.9517 83.8159 95.296 83.8159 95.296L93.6317 86.1925L95.1445 66.7151L94.0784 57.8834C94.0784 57.8834 96.9164 56.8419 97.4057 53.3579C97.5515 52.324 98.0233 51.3464 98.8647 50.7608C99.3698 50.4089 100.229 50.1695 101.268 50.201C102.497 50.2524 103.693 50.6186 104.749 51.2663Z" fill="#FF9D5A"/>
<path d="M112.46 74.5949C111.882 77.2511 110.626 79.7023 110.626 79.7023C110.626 79.7023 113.246 91.2807 115.862 99.6603H109.109C106.934 90.6389 103.305 74.6302 102.743 66.0885L102.464 62.6893C102.464 62.6893 105.365 61.8062 105.695 57.7127C105.751 56.8739 105.692 56.0311 105.52 55.2091L104.752 51.2635L113.305 23.9129C113.305 23.9129 115.005 23.2853 117.589 25.6649C118.263 26.2858 119.324 26.2944 119.954 25.6277C120.027 25.5507 120.096 25.4698 120.161 25.3855L109.753 70.3346C109.753 70.3346 113.04 71.9378 112.46 74.5949Z" fill="#464646"/>
<path d="M87.042 78.2335L62.7244 51.6469C65.0321 50.3012 65.3692 48.9993 65.3692 48.9993C66.8104 44.8982 68.8052 46.8362 68.8052 46.8362L92.4495 69.3847L92.4969 69.3933L87.0541 78.2631L87.042 78.2335Z" fill="#464646"/>
<path d="M86.7505 99.6575H76.5846C83.1919 95.0118 91.2461 87.2703 91.2461 87.2703C91.6974 84.7085 87.1238 78.264 86.8127 77.8282L89.1752 67.6288L95.1482 66.7037C96.6721 71.3189 96.4372 79.1768 94.7238 87.832C93.9679 91.6584 89.7509 96.7162 86.7505 99.6575Z" fill="#464646"/>
<path d="M101.217 95.9293C101.24 95.9276 101.262 95.9168 101.278 95.8991C101.294 95.8814 101.303 95.8581 101.303 95.8339C101.303 95.7013 101.178 93.2283 101.061 90.8363C100.952 88.6112 100.84 86.3089 100.835 86.1839C100.827 85.9369 100.125 84.6989 99.8862 84.285L101.279 83.5878C101.292 83.5817 101.303 83.5726 101.311 83.5611C101.32 83.5496 101.325 83.5362 101.327 83.522C101.33 83.5079 101.33 83.4934 101.326 83.4796C101.322 83.4659 101.315 83.4533 101.305 83.4428L100.174 82.203L101.295 81.6946C101.312 81.6863 101.327 81.6726 101.336 81.6556C101.346 81.6385 101.35 81.6188 101.348 81.5993L99.2408 68.8696C99.237 68.849 99.2266 68.8302 99.2113 68.8163C99.196 68.8023 99.1767 68.7939 99.1563 68.7924C99.1356 68.7915 99.1152 68.7978 99.0983 68.8103C99.0815 68.8227 99.0692 68.8406 99.0634 68.861L98.3205 71.7223L95.4696 70.3918C95.4586 70.3822 95.4456 70.3753 95.4316 70.3717C95.4176 70.3681 95.403 70.368 95.389 70.3712C95.3749 70.3744 95.3618 70.381 95.3506 70.3903C95.3394 70.3996 95.3305 70.4115 95.3246 70.425C95.3186 70.4385 95.3158 70.4533 95.3164 70.468C95.317 70.4828 95.3209 70.4973 95.3278 70.5103C95.3348 70.5232 95.3446 70.5344 95.3565 70.5428C95.3683 70.5512 95.3819 70.5566 95.3962 70.5587L98.3428 71.934C98.3544 71.9397 98.3671 71.9426 98.3799 71.9426C98.3928 71.9426 98.4055 71.9397 98.4171 71.934C98.4287 71.9281 98.439 71.9199 98.4473 71.9097C98.4556 71.8995 98.4618 71.8876 98.4654 71.8749L99.134 69.316L101.16 81.5621L99.9884 82.0933C99.9759 82.0998 99.965 82.109 99.9565 82.1204C99.948 82.1317 99.9422 82.1449 99.9393 82.1589C99.9364 82.1729 99.9367 82.1874 99.94 82.2013C99.9434 82.2152 99.9497 82.2282 99.9586 82.2392L101.092 83.4791L99.7209 84.1658C99.7099 84.1715 99.7001 84.1795 99.6922 84.1891C99.6842 84.1988 99.6782 84.21 99.6745 84.2221C99.6712 84.2343 99.6703 84.2471 99.6719 84.2597C99.6735 84.2723 99.6775 84.2845 99.6838 84.2955C100.084 84.986 100.651 86.0313 100.657 86.1925C100.657 86.3184 100.769 88.5187 100.883 90.8477C101 93.2388 101.12 95.7118 101.125 95.8425C101.127 95.8661 101.138 95.8881 101.155 95.9041C101.172 95.9202 101.194 95.9291 101.217 95.9293Z" fill="white"/>
<path d="M95.4185 59.1882C95.5113 60.2878 95.6441 61.1738 94.5734 61.2683C93.5027 61.3627 91.6342 60.6302 91.5423 59.5305C91.5071 59.0077 91.6733 58.4915 92.0052 58.0934C92.3371 57.6952 92.808 57.4469 93.3164 57.402C93.8249 57.3571 94.3302 57.5192 94.7234 57.8533C95.1166 58.1874 95.3662 58.6668 95.4185 59.1882Z" fill="#FFD3CF"/>
<path d="M100.923 71.6097C100.942 71.6093 100.961 71.6026 100.976 71.5906L103.599 69.5353C103.612 69.53 103.624 69.5215 103.634 69.5105C103.644 69.4995 103.651 69.4864 103.655 69.4721C103.659 69.4578 103.659 69.4428 103.657 69.4282C103.654 69.4137 103.648 69.4 103.639 69.3882C103.63 69.3764 103.619 69.367 103.606 69.3605C103.593 69.3541 103.579 69.3508 103.564 69.351C103.55 69.3512 103.536 69.3549 103.523 69.3617C103.51 69.3685 103.499 69.3784 103.49 69.3904L100.943 71.3865L99.3049 68.9144C99.2893 68.9016 99.2702 68.8943 99.2503 68.8935C99.2304 68.8927 99.2108 68.8985 99.1943 68.9101C99.1779 68.9216 99.1655 68.9383 99.159 68.9576C99.1524 68.977 99.1522 68.9979 99.1581 69.0174L100.848 71.5697C100.862 71.5902 100.884 71.6043 100.908 71.6088L100.923 71.6097Z" fill="white"/>
<path d="M102.46 62.6922C102.46 62.6922 99.3615 63.2244 96.9656 61.5963C96.9656 61.5963 97.5367 63.8099 102.557 63.9807L102.46 62.6922Z" fill="#FFB2A9"/>
<path d="M99.7302 53.8471C99.6661 54.0016 99.2036 53.952 98.7635 54.1332C98.3122 54.2906 97.9946 54.6387 97.8478 54.5662C97.6918 54.51 97.8627 53.8214 98.5527 53.5553C99.2426 53.2892 99.8128 53.7002 99.7302 53.8471Z" fill="#FF9D5A"/>
<path d="M103.826 53.8682C103.723 53.9998 103.291 53.8243 102.818 53.8806C102.342 53.9073 101.945 54.1553 101.822 54.0446C101.7 53.934 102.032 53.3312 102.767 53.2654C103.501 53.1996 103.943 53.7499 103.826 53.8682Z" fill="#FF9D5A"/>
<path d="M103.42 56.1228C103.488 56.4528 103.379 56.757 103.174 56.8018C102.97 56.8467 102.75 56.6111 102.681 56.2839C102.613 55.9568 102.722 55.6487 102.927 55.6039C103.131 55.5591 103.351 55.7918 103.42 56.1228Z" fill="#454545"/>
<path d="M99.6002 56.8801C99.6689 57.211 99.5593 57.5153 99.3559 57.5601C99.1526 57.6049 98.9316 57.3693 98.8628 57.0412C98.7941 56.7132 98.9037 56.406 99.108 56.3622C99.3123 56.3183 99.5324 56.5482 99.6002 56.8801Z" fill="#454545"/>
<path d="M101.815 59.3522C101.829 59.3521 101.843 59.3491 101.856 59.3436C101.93 59.3141 102.581 59.0432 102.599 58.656C102.607 58.4652 102.476 58.3041 102.208 58.1648C101.318 57.7051 101.306 55.8815 101.306 55.8634C101.306 55.8325 101.294 55.8028 101.273 55.7808C101.252 55.7588 101.223 55.7463 101.193 55.7461C101.163 55.7463 101.134 55.7588 101.113 55.7808C101.091 55.8028 101.08 55.8325 101.08 55.8634C101.08 55.9445 101.093 57.8491 102.101 58.3727C102.203 58.4252 102.373 58.531 102.368 58.6445C102.36 58.8153 102.013 59.026 101.769 59.1271C101.744 59.1369 101.723 59.1553 101.71 59.1791C101.697 59.203 101.693 59.2308 101.698 59.2577C101.703 59.2845 101.717 59.3087 101.737 59.326C101.758 59.3433 101.784 59.3526 101.81 59.3522H101.815Z" fill="#FF7867"/>
<path d="M98.8229 59.0136C99.1438 59.0128 99.46 58.9345 99.7461 58.7852C100.032 58.6358 100.28 58.4195 100.47 58.1537C100.66 57.888 100.786 57.5801 100.839 57.255C100.891 56.9299 100.869 56.5966 100.773 56.2821C100.66 55.9102 100.449 55.5778 100.163 55.3219C99.8771 55.0659 99.5277 54.8965 99.1535 54.8324C98.7794 54.7684 98.3953 54.8122 98.044 54.959C97.6927 55.1058 97.3879 55.3499 97.1636 55.664C96.9394 55.9782 96.8044 56.3501 96.7737 56.7383C96.743 57.1266 96.8178 57.516 96.9898 57.8632C97.1617 58.2103 97.4242 58.5017 97.7478 58.7048C98.0714 58.9079 98.4436 59.0148 98.8229 59.0136ZM98.8229 54.9859C99.2212 54.9876 99.6086 55.1194 99.9291 55.3622C100.25 55.6049 100.487 55.9462 100.606 56.3364C100.754 56.8229 100.707 57.3496 100.477 57.8009C100.246 58.2522 99.8509 58.591 99.3773 58.7427C98.9037 58.8945 98.3908 58.8468 97.9514 58.6102C97.512 58.3736 97.1821 57.9674 97.0343 57.4809C96.9612 57.2399 96.935 56.9864 96.9573 56.735C96.9796 56.4835 97.0499 56.2391 97.1643 56.0156C97.2787 55.7921 97.4348 55.594 97.6238 55.4325C97.8128 55.271 98.0309 55.1494 98.2657 55.0746C98.4481 55.0157 98.6382 54.9858 98.8294 54.9859H98.8229Z" fill="white"/>
<path d="M103.593 58.3307C103.801 58.3306 104.008 58.2985 104.206 58.2354C104.659 58.0906 105.049 57.7889 105.31 57.3818C105.571 56.9747 105.686 56.4874 105.636 56.0029C105.586 55.5183 105.374 55.0666 105.036 54.7246C104.698 54.3826 104.255 54.1716 103.783 54.1274C103.31 54.0833 102.837 54.2088 102.445 54.4825C102.052 54.7563 101.765 55.1613 101.63 55.6286C101.496 56.096 101.524 56.5967 101.709 57.0454C101.894 57.4941 102.224 57.8631 102.644 58.0894C102.937 58.248 103.263 58.3309 103.593 58.3307ZM103.593 54.3031C104.04 54.3035 104.473 54.4684 104.812 54.7678C105.151 55.0672 105.374 55.4814 105.441 55.9354C105.509 56.3894 105.416 56.8531 105.179 57.2427C104.942 57.6322 104.577 57.9218 104.151 58.0589C103.893 58.1406 103.622 58.1644 103.356 58.1286C103.089 58.0928 102.833 57.9983 102.605 57.8516C102.377 57.7049 102.182 57.5094 102.034 57.2784C101.887 57.0474 101.789 56.7864 101.749 56.5132C101.708 56.2401 101.726 55.9611 101.8 55.6955C101.874 55.4298 102.003 55.1836 102.178 54.9738C102.353 54.764 102.57 54.5955 102.814 54.4797C103.059 54.364 103.324 54.3037 103.593 54.3031Z" fill="white"/>
<path d="M100.786 56.9573H100.801L101.708 56.7971C101.731 56.792 101.751 56.7783 101.765 56.7587C101.778 56.7391 101.784 56.715 101.781 56.6912C101.776 56.6678 101.762 56.6471 101.743 56.6333C101.724 56.6195 101.701 56.6136 101.678 56.6168L100.771 56.777C100.753 56.7845 100.737 56.798 100.726 56.8154C100.716 56.8329 100.711 56.8533 100.713 56.8738C100.714 56.8943 100.722 56.9136 100.736 56.929C100.749 56.9444 100.767 56.955 100.786 56.9592V56.9573Z" fill="white"/>
<path d="M100.2 60.1724C100.247 60.558 100.437 60.91 100.731 61.1544C101.025 61.3987 101.4 61.5163 101.777 61.4825C102.154 61.4486 102.503 61.2659 102.752 60.9728C103 60.6797 103.128 60.2991 103.109 59.9111L100.2 60.1724Z" fill="white"/>
<path d="M100.846 50.1342C100.846 50.1342 100.554 51.9397 104.977 52.5472C104.977 52.5472 106.221 49.6373 104.841 47.2883L100.846 50.1342Z" fill="#FF9D5A"/>
<path d="M63.5882 64.7628C63.7891 64.7258 63.9962 64.7629 64.1729 64.8677C64.3497 64.9724 64.4846 65.1379 64.554 65.335L65.4548 67.0298L68.1775 62.2249C68.2057 62.1743 68.2438 62.1302 68.2894 62.0955C68.3349 62.0608 68.3871 62.0361 68.4424 62.0231C68.4977 62.0101 68.5551 62.0091 68.6108 62.02C68.6666 62.0309 68.7195 62.0536 68.7663 62.0866C68.8449 62.1447 68.9019 62.2287 68.9277 62.3246C68.9535 62.4205 68.9467 62.5226 68.9084 62.614L67.4876 66.1429L70.4118 62.6226C70.4464 62.5806 70.4888 62.546 70.5365 62.521C70.5843 62.496 70.6364 62.481 70.6898 62.4769C70.7433 62.4728 70.797 62.4797 70.8478 62.4972C70.8986 62.5147 70.9455 62.5424 70.9857 62.5787C71.065 62.6516 71.1142 62.7528 71.1231 62.8617C71.1321 62.9705 71.1002 63.0788 71.034 63.1643L71.0117 63.1977C71.0238 63.1891 68.2899 66.7361 68.2899 66.7361L71.1325 63.8577C71.1887 63.8008 71.2618 63.7648 71.3402 63.7554C71.4186 63.7461 71.4978 63.764 71.5652 63.8062C71.6073 63.833 71.6434 63.8687 71.6712 63.9108C71.699 63.9529 71.7179 64.0005 71.7267 64.0506C71.7354 64.1007 71.7338 64.1521 71.722 64.2015C71.7102 64.2509 71.6884 64.2972 71.6581 64.3374L69.199 67.6011L71.9107 65.7423C72.0741 65.6355 72.2013 65.6193 72.3332 65.7671C72.3607 65.7966 72.3824 65.8312 72.3973 65.8691C72.4219 65.9446 72.4249 66.0257 72.4058 66.1029C72.3867 66.18 72.3463 66.2499 72.2895 66.304L67.286 72.3946L63.8668 71.1548C63.8507 70.4863 63.8736 69.8175 63.9355 69.1519C64.0386 67.8977 63.5882 64.7628 63.5882 64.7628Z" fill="#FFD3CF"/>
<path d="M43.43 34.0398C43.43 34.0398 45.8138 45.8128 38.9724 46.7961L38.9622 50.4614L34.7081 53.4962L28.9161 49.6726L27.5826 50.1362L29.503 35.6287L43.43 34.0398Z" fill="#FFCEC8"/>
<path d="M43.43 34.0397C43.43 34.0397 41.6368 37.3092 37.6464 35.168C37.6464 35.168 36.2293 34.591 35.6489 36.2963C35.4446 36.8972 35.1613 37.5972 34.6032 37.9415C34.5057 38.0063 34.3956 38.0484 34.2806 38.0649C34.1656 38.0813 34.0484 38.0718 33.9374 38.0369C33.7823 37.9797 33.6588 37.8605 33.5204 37.767C32.8639 37.3178 31.9009 37.5324 31.391 38.1485C30.3389 39.4275 31.1672 41.4084 32.7914 41.4942C33.0783 41.5097 33.3659 41.5008 33.6513 41.4675C33.6513 41.4675 33.4099 44.5777 28.3906 44.0293L29.2319 34.4022C29.2319 34.4022 29.1056 31.973 31.1821 33.0173L31.0511 31.396C31.0511 31.396 33.1109 33.4999 36.9146 31.7021C40.7184 29.9043 42.74 28.5653 44.3781 30.6721C46.0163 32.7789 44.7691 34.9897 43.6659 35.3845L43.43 34.0397Z" fill="#464646"/>
<path d="M38.9752 46.798C38.9752 46.798 34.9272 46.8514 32.939 44.634C32.939 44.634 33.9308 47.6011 38.9752 48.407V46.798Z" fill="#FFB6AD"/>
<path d="M37.2656 39.8491C37.2247 40.1142 37.3473 40.3555 37.5387 40.386C37.73 40.4165 37.9194 40.2267 37.9593 39.9606C37.9993 39.6946 37.8776 39.4542 37.6863 39.4237C37.495 39.3932 37.3065 39.583 37.2656 39.8491Z" fill="#464646"/>
<path d="M37.6315 41.171C37.9652 41.1702 38.2877 41.0471 38.5409 40.8238C38.7941 40.6005 38.9613 40.2917 39.0124 39.953L39.1833 38.8362L35.6953 38.2725L35.5244 39.3894C35.4956 39.576 35.5029 39.7667 35.5459 39.9504C35.5888 40.1341 35.6667 40.3074 35.7749 40.4602C35.8832 40.613 36.0197 40.7424 36.1767 40.841C36.3337 40.9395 36.5081 41.0053 36.6899 41.0346L37.4114 41.1509C37.4842 41.1633 37.5578 41.17 37.6315 41.171ZM38.9474 39.0155L38.8081 39.9235C38.7587 40.2447 38.5872 40.5326 38.3313 40.724C38.0753 40.9153 37.7558 40.9945 37.443 40.944L36.7224 40.8276C36.5674 40.8026 36.4188 40.7465 36.285 40.6626C36.1511 40.5786 36.0347 40.4684 35.9423 40.3382C35.85 40.208 35.7835 40.0604 35.7467 39.9038C35.7099 39.7472 35.7035 39.5847 35.7278 39.4256L35.8671 38.5186L38.9474 39.0155Z" fill="white"/>
<path d="M40.7499 40.4117C40.7091 40.6769 40.8317 40.9181 41.0239 40.9487C41.2161 40.9792 41.4036 40.7894 41.4445 40.5233C41.4853 40.2572 41.3628 40.0169 41.1659 39.9863C40.9691 39.9558 40.7908 40.1437 40.7499 40.4117Z" fill="#464646"/>
<path d="M42.0389 41.8834C42.3722 41.8823 42.6943 41.7594 42.9473 41.5365C43.2004 41.3137 43.3679 41.0055 43.4198 40.6673L43.5906 39.5505L40.1026 38.9878L39.9308 40.1046C39.8736 40.4815 39.9643 40.8662 40.1829 41.1745C40.4016 41.4827 40.7304 41.6893 41.0972 41.7489L41.8178 41.8652C41.891 41.8769 41.9648 41.883 42.0389 41.8834ZM43.3538 39.7269L43.2155 40.6349C43.1661 40.9561 42.9946 41.2441 42.7386 41.4354C42.4826 41.6268 42.1631 41.7059 41.8503 41.6554L41.1297 41.5391C40.8169 41.4884 40.5364 41.3123 40.35 41.0494C40.1635 40.7865 40.0862 40.4584 40.1351 40.1371L40.2744 39.23L43.3538 39.7269Z" fill="white"/>
<path d="M39.4303 43.0937C39.338 43.539 39.081 43.9303 38.7135 44.185C38.3459 44.4397 37.8965 44.5379 37.4598 44.459C37.0231 44.3802 36.6333 44.1303 36.3724 43.7622C36.1115 43.394 35.9999 42.9362 36.0611 42.4852L39.4303 43.0937Z" fill="white"/>
<path d="M39.6708 38.5748L40.3552 41.8176L38.9046 41.9654L39.6708 38.5748Z" fill="#FFCEC8"/>
<path d="M38.9046 42.0713H38.9148L40.3654 41.9234C40.3799 41.9218 40.3938 41.9171 40.4064 41.9097C40.419 41.9024 40.43 41.8924 40.4388 41.8805C40.4471 41.8683 40.453 41.8545 40.456 41.8399C40.459 41.8253 40.4592 41.8103 40.4564 41.7956L39.772 38.5529C39.7643 38.5273 39.7475 38.5056 39.725 38.4922C39.7024 38.4787 39.6758 38.4744 39.6503 38.4802C39.6248 38.4859 39.6024 38.5013 39.5874 38.5233C39.5725 38.5452 39.5661 38.5721 39.5696 38.5987L40.2252 41.7241L38.8898 41.8595C38.8624 41.8609 38.8368 41.8734 38.8184 41.8942C38.8 41.9151 38.7904 41.9426 38.7918 41.9706C38.7932 41.9987 38.8053 42.0251 38.8256 42.044C38.8459 42.0628 38.8727 42.0727 38.9 42.0713H38.9046Z" fill="#FF7867"/>
<path d="M36.9749 37.4732C36.9752 37.5303 36.9964 37.5853 37.0342 37.6271C37.072 37.669 37.1238 37.6947 37.1792 37.6993L38.3865 37.7946C38.4717 37.7946 38.5534 37.7599 38.6137 37.698C38.6739 37.6361 38.7078 37.5522 38.7078 37.4646C38.7079 37.4186 38.6986 37.373 38.6805 37.3308C38.6624 37.2887 38.636 37.2508 38.6028 37.2198C38.5697 37.1887 38.5306 37.1651 38.4881 37.1504C38.4455 37.1358 38.4005 37.1304 38.3558 37.1346L37.1783 37.2481C37.1232 37.2529 37.0718 37.2786 37.0342 37.3202C36.9965 37.3619 36.9754 37.4164 36.9749 37.4732Z" fill="#464646"/>
<path d="M41.9357 38.6674C41.922 38.7227 41.8885 38.7708 41.8419 38.8019C41.7952 38.833 41.7389 38.8449 41.6841 38.8352L40.4945 38.6178C40.4535 38.6071 40.4149 38.5882 40.3809 38.5622C40.347 38.5362 40.3184 38.5035 40.2967 38.4661C40.2751 38.4288 40.2608 38.3874 40.2548 38.3443C40.2487 38.3013 40.251 38.2574 40.2614 38.2153C40.2726 38.1707 40.2928 38.1291 40.3205 38.0929C40.3482 38.0568 40.383 38.0269 40.4225 38.0053C40.4621 37.9837 40.5056 37.9708 40.5503 37.9673C40.595 37.9639 40.6398 37.9701 40.6821 37.9854L41.7964 38.3946C41.8481 38.4135 41.891 38.4516 41.9168 38.5013C41.9426 38.5511 41.9493 38.6089 41.9357 38.6635V38.6674Z" fill="#464646"/>
<path d="M35.83 38.5987L43.3724 39.8166C43.3967 39.8207 43.4214 39.8198 43.4453 39.814C43.4692 39.8081 43.4917 39.7975 43.5116 39.7827C43.5314 39.7679 43.5482 39.7492 43.561 39.7277C43.5738 39.7061 43.5823 39.6822 43.586 39.6573C43.59 39.6324 43.5891 39.6069 43.5833 39.5823C43.5776 39.5577 43.5672 39.5345 43.5527 39.5141C43.5382 39.4937 43.5199 39.4765 43.4988 39.4634C43.4777 39.4503 43.4544 39.4417 43.43 39.438L35.8875 38.22C35.8633 38.2159 35.8384 38.2169 35.8145 38.2228C35.7905 38.2286 35.768 38.2393 35.7481 38.2542C35.7282 38.2692 35.7114 38.288 35.6987 38.3096C35.686 38.3312 35.6776 38.3552 35.6739 38.3802C35.6701 38.4051 35.6711 38.4305 35.6769 38.455C35.6827 38.4795 35.6932 38.5025 35.7077 38.5228C35.7222 38.5431 35.7404 38.5603 35.7614 38.5733C35.7824 38.5863 35.8057 38.5949 35.83 38.5987Z" fill="#FFA680"/>
<path d="M36.1642 93.1282C36.0986 93.4117 36.0695 93.7029 36.0779 93.9942V94.0008L35.5123 99.6604H22.8939L25.0409 77.3809L25.0511 77.275L25.0743 77.0299L25.0855 76.9212L25.104 76.7304L25.1198 76.5673L25.1328 76.43L25.1421 76.3346V76.3251L25.156 76.1801L25.1635 76.1067L25.1792 75.9331L25.1848 75.8806L25.2173 75.542L25.2229 75.4829L27.7971 48.778L34.4908 52.9516L38.9743 49.9845L38.9622 48.778L40.4639 50.056L36.2144 92.6227L36.1642 93.1282Z" fill="#FF7867"/>
<path d="M55.0084 80.8964L61.9732 69.0785L69.7005 73.1796L61.8014 88.3041C61.8014 88.3041 61.17 89.4782 61.117 89.5964C59.0239 94.3022 53.4 94.6894 49.665 91.2178C49.5507 91.1119 49.4347 90.9965 49.3195 90.884L54.8914 80.7819L55.0084 80.8964Z" fill="#464646"/>
<path d="M49.2869 99.6575H35.5012C36.337 90.6789 40.1648 49.9874 40.4648 50.0503C50.8405 52.221 57.2212 58.3479 59.2996 67.1367C60.4631 72.057 60.3313 85.8949 60.3118 87.5525L49.3315 90.9488C49.299 89.0337 49.5553 86.3394 49.403 83.6861L49.2869 99.6575Z" fill="#464646"/>
<path d="M49.403 88.6894C49.43 88.6894 49.4559 88.6785 49.4752 88.6591C49.4945 88.6397 49.5055 88.6132 49.506 88.5855L50.0512 64.3107C50.0512 64.2826 50.0403 64.2557 50.021 64.2358C50.0017 64.216 49.9755 64.2048 49.9481 64.2048C49.9208 64.2048 49.8945 64.216 49.8752 64.2358C49.8559 64.2557 49.845 64.2826 49.845 64.3107L49.2999 88.5855C49.2995 88.5994 49.3018 88.6132 49.3066 88.6262C49.3115 88.6392 49.3188 88.6511 49.3281 88.6612C49.3374 88.6713 49.3486 88.6794 49.3609 88.6851C49.3733 88.6907 49.3866 88.6938 49.4002 88.6942L49.403 88.6894Z" fill="#333333"/>
<path d="M7.35105 99.6575C7.31391 98.2898 7.27708 96.9228 7.24055 95.5564C5.74054 95.5333 4.28629 95.0224 3.08671 94.0972C3.04863 94.0686 3.01147 94.039 2.97525 94.0094C2.17766 93.3559 1.55326 92.5065 1.15967 91.5397C0.766079 90.5729 0.615984 89.5198 0.723276 88.4777L2.28062 72.7619C2.46228 71.2698 2.74151 69.792 3.11641 68.3384C5.14736 60.5634 9.87141 54.4223 17.3628 52.057L26.4134 49.2043L27.798 48.7799L22.9291 99.6575H7.35105Z" fill="#464646"/>
<path d="M30.6778 99.1882C30.7086 99.1882 30.7384 99.1768 30.7617 99.1561C30.785 99.1355 30.8004 99.107 30.8051 99.0757C30.8589 98.7028 30.8803 98.348 30.8979 98.0047C30.9091 97.8025 30.9211 97.5926 30.9406 97.38C30.9917 96.7228 31.0567 96.0542 31.1199 95.4086C31.183 94.7629 31.248 94.0914 31.2991 93.4324C31.3121 93.2302 31.3223 93.0261 31.3316 92.8287C31.3479 92.2245 31.405 91.6222 31.5025 91.0261C31.5814 90.5397 31.82 90.1515 32.0726 89.7395C32.1321 89.6441 32.1934 89.543 32.2528 89.4419C32.3169 89.3527 32.3609 89.2499 32.3815 89.141C32.402 89.0321 32.3987 88.9199 32.3717 88.8125C32.3125 88.6245 32.2305 88.4451 32.1274 88.2784C32.0354 88.1322 31.9621 87.9745 31.9092 87.8091C31.8386 87.523 32.1033 87.3561 32.4571 87.1749C32.5786 87.1188 32.6873 87.0372 32.7762 86.9354C32.8652 86.8335 32.9323 86.7137 32.9734 86.5836C33.0019 86.4738 33.0072 86.3591 32.9889 86.247C32.9707 86.135 32.9293 86.0283 32.8676 85.9341C32.8627 85.9253 32.8568 85.9173 32.8499 85.9102C32.8096 85.8578 32.7828 85.7958 32.7719 85.7299C32.7595 85.6772 32.742 85.6257 32.7199 85.5764C32.7154 85.5666 32.7095 85.5576 32.7023 85.5497C32.3596 85.1386 32.1451 84.801 32.0188 84.4586C32.5258 77.9512 33.0812 71.3541 33.6179 64.9745C33.9485 61.0461 34.2912 56.9841 34.618 52.9812C34.6195 52.9638 34.6176 52.9464 34.6125 52.9298C34.6074 52.9132 34.5992 52.8978 34.5883 52.8844C34.5774 52.8711 34.564 52.8601 34.5489 52.8521C34.5339 52.8441 34.5175 52.8392 34.5006 52.8377C34.4837 52.8362 34.4667 52.8381 34.4505 52.8433C34.4343 52.8486 34.4193 52.8571 34.4064 52.8683C34.3934 52.8795 34.3827 52.8932 34.3749 52.9086C34.3671 52.9241 34.3623 52.941 34.3608 52.9583C34.0339 56.964 33.6913 61.0232 33.3607 64.9517C32.823 71.3417 32.2667 77.9502 31.7588 84.4681C31.757 84.4872 31.7596 84.5065 31.7662 84.5244C31.9045 84.9059 32.1293 85.2683 32.4952 85.708C32.5063 85.7392 32.5157 85.771 32.523 85.8034C32.5432 85.9087 32.5889 86.0071 32.6558 86.0895C32.6958 86.1516 32.7226 86.2217 32.7345 86.2951C32.7463 86.3686 32.7429 86.4438 32.7245 86.5158C32.6927 86.6099 32.6422 86.6963 32.5764 86.7695C32.5106 86.8427 32.4308 86.9011 32.342 86.9412C32.0197 87.1072 31.5322 87.357 31.6594 87.8816C31.7185 88.0695 31.8006 88.249 31.9036 88.4157C31.9954 88.562 32.0688 88.7197 32.1219 88.8849C32.14 88.9565 32.1418 89.0313 32.127 89.1037C32.1121 89.176 32.0811 89.2438 32.0364 89.3017C31.9789 89.3971 31.9175 89.5011 31.8581 89.5974C31.6027 90.0123 31.339 90.4424 31.2517 90.9794C31.1525 91.5862 31.0941 92.1993 31.0771 92.8144C31.0679 93.0108 31.0586 93.214 31.0456 93.4124C30.9945 94.0676 30.9295 94.7352 30.8663 95.3819C30.8032 96.0285 30.7382 96.698 30.6871 97.3561C30.6676 97.5717 30.6555 97.7834 30.6435 97.9875C30.623 98.3413 30.6045 98.6751 30.5506 99.0366C30.5481 99.0538 30.5489 99.0714 30.553 99.0883C30.5571 99.1052 30.5644 99.1211 30.5745 99.1351C30.5846 99.1491 30.5973 99.1609 30.6118 99.1698C30.6264 99.1788 30.6425 99.1847 30.6593 99.1873L30.6778 99.1882Z" fill="white"/>
<path d="M37.4393 54.8476C37.4596 54.8477 37.4796 54.8428 37.4976 54.8333C37.5157 54.8239 37.5314 54.8101 37.5433 54.7933L40.5279 50.5854C40.5481 50.5569 40.5565 50.5214 40.5512 50.4866C40.5459 50.4518 40.5273 50.4206 40.4996 50.3999C40.4719 50.3791 40.4373 50.3705 40.4034 50.376C40.3696 50.3814 40.3392 50.4005 40.319 50.429L37.4031 54.5405L34.5595 52.8543C34.5398 52.8431 34.5176 52.8371 34.495 52.8371C34.4724 52.8371 34.4502 52.8431 34.4305 52.8543L32.1014 54.2363L27.6625 50.9192C27.6488 50.9089 27.6332 50.9015 27.6167 50.8974C27.6002 50.8933 27.5831 50.8926 27.5663 50.8953C27.5496 50.898 27.5335 50.9041 27.519 50.9132C27.5045 50.9222 27.4919 50.9342 27.4819 50.9483C27.4719 50.9624 27.4647 50.9783 27.4607 50.9953C27.4567 51.0122 27.456 51.0298 27.4587 51.047C27.4613 51.0643 27.4672 51.0808 27.476 51.0957C27.4849 51.1106 27.4965 51.1235 27.5102 51.1338L32.0169 54.5014C32.0373 54.5163 32.0614 54.525 32.0864 54.5263C32.1114 54.5277 32.1363 54.5217 32.1581 54.5091L34.4955 53.1223L37.3743 54.8305C37.3942 54.8417 37.4165 54.8476 37.4393 54.8476Z" fill="white"/>
<path d="M35.3378 57.7041C35.0208 57.7041 34.7639 57.4402 34.7639 57.1147C34.7639 56.7892 35.0208 56.5253 35.3378 56.5253C35.6547 56.5253 35.9117 56.7892 35.9117 57.1147C35.9117 57.4402 35.6547 57.7041 35.3378 57.7041Z" fill="white"/>
<path d="M34.3822 70.7676C34.0653 70.7676 33.8083 70.5037 33.8083 70.1782C33.8083 69.8526 34.0653 69.5887 34.3822 69.5887C34.6992 69.5887 34.9561 69.8526 34.9561 70.1782C34.9561 70.5037 34.6992 70.7676 34.3822 70.7676Z" fill="white"/>
<path d="M32.8527 82.5854C32.8527 82.7022 32.8864 82.8164 32.9496 82.9135C33.0128 83.0106 33.1027 83.0863 33.2078 83.1309C33.3129 83.1756 33.4285 83.1872 33.54 83.1644C33.6515 83.1415 33.754 83.0852 33.8343 83.0025C33.9147 82.9199 33.9694 82.8146 33.9914 82.7C34.0135 82.5854 34.002 82.4667 33.9583 82.3588C33.9147 82.251 33.8409 82.1588 33.7462 82.0941C33.6516 82.0293 33.5403 81.9949 33.4266 81.9951C33.3512 81.9951 33.2764 82.0103 33.2067 82.04C33.137 82.0697 33.0737 82.1132 33.0204 82.168C32.9671 82.2229 32.9249 82.2879 32.8961 82.3596C32.8673 82.4312 32.8526 82.5079 32.8527 82.5854Z" fill="white"/>
<path d="M31.5107 97.1368C31.5107 97.2535 31.5445 97.3677 31.6076 97.4648C31.6708 97.5618 31.7606 97.6375 31.8656 97.6822C31.9707 97.7269 32.0862 97.7386 32.1978 97.7158C32.3093 97.693 32.4117 97.6368 32.4921 97.5542C32.5725 97.4717 32.6272 97.3665 32.6494 97.2519C32.6716 97.1374 32.6602 97.0187 32.6167 96.9108C32.5732 96.803 32.4995 96.7108 32.405 96.6459C32.3104 96.581 32.1993 96.5464 32.0856 96.5464C31.9332 96.5464 31.7869 96.6086 31.6791 96.7193C31.5713 96.83 31.5107 96.9802 31.5107 97.1368Z" fill="white"/>
<path d="M68.0679 74.6178C68.1622 74.5198 68.2259 74.3953 68.2512 74.2601C68.2766 74.1248 68.2622 73.9849 68.2101 73.858C68.158 73.7312 68.0704 73.623 67.9584 73.5473C67.8464 73.4715 67.715 73.4316 67.5809 73.4325C67.4468 73.4334 67.316 73.4752 67.205 73.5525C67.0941 73.6298 67.0079 73.7392 66.9574 73.8668C66.907 73.9944 66.8945 74.1345 66.9216 74.2694C66.9487 74.4042 67.0141 74.5278 67.1096 74.6245C67.2377 74.7539 67.4105 74.8258 67.5901 74.8245C67.7697 74.8233 67.9416 74.749 68.0679 74.6178ZM67.2498 73.79C67.3157 73.7224 67.3996 73.6763 67.4909 73.6577C67.5822 73.639 67.6769 73.6486 67.7629 73.6852C67.849 73.7218 67.9225 73.7838 67.9742 73.8633C68.0259 73.9428 68.0536 74.0363 68.0536 74.1319C68.0536 74.2276 68.0259 74.321 67.9742 74.4006C67.9225 74.4801 67.849 74.5421 67.7629 74.5787C67.6769 74.6153 67.5822 74.6248 67.4909 74.6062C67.3996 74.5875 67.3157 74.5415 67.2498 74.4738C67.2059 74.4291 67.1711 74.3758 67.1473 74.3172C67.1235 74.2585 67.1112 74.1957 67.1111 74.1321C67.111 74.0686 67.1231 74.0057 67.1468 73.9469C67.1704 73.8882 67.2051 73.8349 67.2489 73.79H67.2498Z" fill="#333333"/>
<path d="M67.767 77.109C67.7738 77.1019 67.7797 77.0939 67.7846 77.0852C67.7975 77.0604 67.8004 77.0313 67.7925 77.0044C67.7847 76.9774 67.7668 76.9547 67.7428 76.9412L61.0919 73.2387C61.0673 73.2253 61.0385 73.2225 61.0119 73.2309C60.9852 73.2393 60.9629 73.2582 60.9499 73.2835C60.9368 73.3088 60.9341 73.3384 60.9423 73.3658C60.9504 73.3931 60.9689 73.416 60.9935 73.4295L67.6444 77.1329C67.6645 77.1432 67.6874 77.1465 67.7096 77.1422C67.7317 77.1379 67.7519 77.1262 67.767 77.109Z" fill="#333333"/>
<path d="M16.7712 96.8907L29.4965 98.6637L30.9201 89.6336L15.942 86.5654L16.7712 96.8907Z" fill="#464646"/>
<path d="M27.238 88.9851C27.2618 88.9849 27.2848 88.9764 27.3033 88.961C27.3217 88.9455 27.3344 88.9241 27.3393 88.9002C27.342 88.8864 27.342 88.8723 27.3393 88.8586C27.3367 88.8449 27.3314 88.8318 27.3238 88.8202C27.3162 88.8086 27.3064 88.7986 27.2951 88.7909C27.2837 88.7832 27.2709 88.7779 27.2576 88.7752L12.8496 85.8186L16.6375 62.4871C16.6398 62.4734 16.6394 62.4594 16.6364 62.4458C16.6333 62.4323 16.6277 62.4195 16.6199 62.4081C16.612 62.3968 16.6021 62.3872 16.5906 62.3798C16.5791 62.3724 16.5664 62.3674 16.553 62.3651C16.5397 62.3627 16.526 62.3632 16.5128 62.3663C16.4996 62.3694 16.4871 62.3751 16.4761 62.3832C16.465 62.3912 16.4556 62.4015 16.4485 62.4132C16.4413 62.425 16.4364 62.4381 16.4341 62.4519L12.6267 85.8902C12.6221 85.9173 12.6281 85.9453 12.6434 85.9679C12.6586 85.9906 12.682 86.0062 12.7084 86.0113L27.2148 88.9831L27.238 88.9851Z" fill="#333333"/>
<path d="M29.4065 98.7657C29.4326 98.7658 29.4578 98.7556 29.477 98.7373C29.4961 98.7189 29.5077 98.6938 29.5095 98.667C29.5112 98.6402 29.503 98.6138 29.4865 98.593C29.4699 98.5721 29.4463 98.5586 29.4204 98.555L7.25817 95.4505C7.23228 95.4494 7.20693 95.4583 7.18707 95.4754C7.16721 95.4924 7.15426 95.5165 7.15077 95.5429C7.14729 95.5693 7.15352 95.596 7.16823 95.6179C7.18294 95.6398 7.20507 95.6553 7.2303 95.6613L29.3953 98.7648L29.4065 98.7657Z" fill="#333333"/>
<path d="M28.1063 97.153C28.1544 97.1527 28.2024 97.1473 28.2494 97.1367C28.3804 97.1078 28.5001 97.0396 28.5934 96.9407C28.6867 96.8418 28.7492 96.7167 28.7732 96.5813C28.7972 96.4458 28.7815 96.3061 28.728 96.1799C28.6746 96.0536 28.5859 95.9465 28.4731 95.872C28.3987 95.822 28.3152 95.7877 28.2277 95.7713C28.1401 95.7549 28.0502 95.7568 27.9633 95.7767C27.8003 95.8134 27.6562 95.9107 27.5587 96.0498C27.4611 96.1889 27.417 96.3601 27.4347 96.5306C27.4524 96.7011 27.5307 96.8588 27.6547 96.9737C27.7786 97.0885 27.9394 97.1523 28.1063 97.153ZM28.1063 95.9722C28.2197 95.9766 28.3278 96.0228 28.4107 96.1023C28.4936 96.1818 28.5458 96.2894 28.5577 96.4053C28.5697 96.5212 28.5406 96.6376 28.4758 96.7332C28.411 96.8288 28.3147 96.8973 28.2048 96.926C28.0831 96.952 27.9562 96.9277 27.8519 96.8582C27.7475 96.7887 27.6741 96.6797 27.6476 96.5549C27.6222 96.4299 27.6459 96.2996 27.7136 96.1925C27.7812 96.0853 27.8873 96.0099 28.0088 95.9827C28.0412 95.9756 28.0742 95.9721 28.1073 95.9722H28.1063Z" fill="#333333"/>
<path d="M25.5358 98.2269C25.5604 98.2267 25.5842 98.2177 25.6029 98.2012C25.6216 98.1848 25.634 98.1621 25.6379 98.1372L26.8749 90.1315C26.877 90.1177 26.8765 90.1036 26.8733 90.09C26.8702 90.0765 26.8645 90.0637 26.8565 90.0524C26.8485 90.0411 26.8384 90.0315 26.8269 90.0242C26.8153 90.0169 26.8024 90.0121 26.789 90.0099C26.7756 90.0077 26.7619 90.0082 26.7487 90.0115C26.7355 90.0147 26.723 90.0206 26.712 90.0288C26.701 90.037 26.6917 90.0473 26.6846 90.0592C26.6775 90.0711 26.6727 90.0843 26.6706 90.0981L25.4336 98.1038C25.4293 98.1316 25.4359 98.1601 25.4519 98.1829C25.4679 98.2058 25.492 98.2212 25.5191 98.2259L25.5358 98.2269Z" fill="#333333"/>
<path d="M39.3588 97.9827L38.5741 96.9412L38.6363 99.3256C38.6372 99.3896 38.6236 99.4529 38.5967 99.5106C38.5698 99.5684 38.5303 99.619 38.4812 99.6585H37.9733C37.8998 99.5999 37.8482 99.517 37.8275 99.4238L37.5052 97.8635L36.1438 96.017L37.3659 97.75L37.2963 99.6632H36.4884L36.1475 98.2135L35.1799 96.8878C35.1706 96.8748 35.1574 96.8652 35.1423 96.8606C35.1272 96.8559 35.1111 96.8564 35.0963 96.8621C35.0864 96.8659 35.0774 96.8719 35.0699 96.8796C35.0624 96.8874 35.0567 96.8967 35.053 96.9069C35.0494 96.9172 35.048 96.9281 35.0489 96.939C35.0498 96.9498 35.053 96.9604 35.0582 96.9698L35.7705 98.2603L36.0658 99.6632H35.0554L34.5577 98.7409L33.9234 97.6546L32.9325 97.0891C31.3807 97.6775 30.5635 96.7533 30.5635 96.7533L29.7825 96.8735L30.5914 91.6785C31.1041 91.8098 31.6092 91.9709 32.1042 92.1611L36.3091 93.7271L38.4079 95.0204C38.6253 95.1549 38.7996 95.3518 38.9094 95.5869L39.8752 97.6585C39.9065 97.7281 39.9119 97.8071 39.8904 97.8806C39.8688 97.9541 39.8218 98.0169 39.7582 98.0572C39.6947 98.0975 39.6189 98.1124 39.5453 98.0992C39.4717 98.086 39.4054 98.0456 39.3588 97.9856V97.9827Z" fill="#FFCEC8"/>
<path d="M38.4951 97.0118H38.5016C38.5084 97.0109 38.5149 97.0086 38.5208 97.0051C38.5267 97.0015 38.5319 96.9968 38.536 96.9913C38.5402 96.9857 38.5432 96.9793 38.5449 96.9725C38.5467 96.9658 38.5471 96.9587 38.5462 96.9517L38.5295 96.8211C38.5051 96.633 38.4185 96.4593 38.2843 96.3289L36.7251 94.822C36.7154 94.8121 36.7022 94.8065 36.6885 94.8065C36.6747 94.8065 36.6615 94.8121 36.6518 94.822C36.6469 94.8268 36.643 94.8326 36.6403 94.839C36.6377 94.8454 36.6363 94.8522 36.6363 94.8592C36.6363 94.8661 36.6377 94.873 36.6403 94.8794C36.643 94.8858 36.6469 94.8916 36.6518 94.8964L38.21 96.4043C38.3273 96.5175 38.403 96.6687 38.4246 96.8325L38.4413 96.9641C38.4417 96.9709 38.4435 96.9775 38.4465 96.9836C38.4494 96.9896 38.4535 96.995 38.4585 96.9995C38.4635 97.0039 38.4694 97.0073 38.4756 97.0094C38.4819 97.0115 38.4885 97.0123 38.4951 97.0118Z" fill="#FF7867"/>
<path d="M37.3399 97.8177C37.3457 97.819 37.3518 97.819 37.3576 97.8177C37.364 97.8154 37.3699 97.8119 37.375 97.8072C37.3801 97.8026 37.3842 97.7969 37.3871 97.7906C37.3899 97.7842 37.3915 97.7774 37.3917 97.7704C37.3919 97.7634 37.3907 97.7564 37.3882 97.7499L37.339 97.6126C37.3373 97.6072 37.3345 97.6023 37.3306 97.5983L36.1782 96.1067C36.1744 96.1001 36.1693 96.0945 36.1632 96.0902C36.1571 96.0859 36.1502 96.0829 36.1429 96.0816C36.1357 96.0802 36.1282 96.0804 36.121 96.0823C36.1138 96.0841 36.1071 96.0875 36.1013 96.0922C36.0955 96.097 36.0907 96.1029 36.0873 96.1097C36.084 96.1164 36.082 96.1239 36.0817 96.1315C36.0813 96.1391 36.0825 96.1466 36.0852 96.1537C36.088 96.1608 36.0921 96.1672 36.0974 96.1725L37.2452 97.6546L37.2916 97.7833C37.2953 97.7935 37.3019 97.8022 37.3105 97.8083C37.3191 97.8145 37.3294 97.8177 37.3399 97.8177Z" fill="#FF7867"/>
<path d="M52.45 85.8682C52.4713 85.8681 52.4922 85.8622 52.5106 85.8512C52.529 85.8401 52.5443 85.8243 52.5549 85.8053L59.8196 72.9383C59.8276 72.9241 59.8328 72.9084 59.8348 72.8921C59.8369 72.8759 59.8359 72.8593 59.8317 72.8435C59.8276 72.8276 59.8205 72.8128 59.8107 72.7997C59.801 72.7867 59.7889 72.7758 59.775 72.7676C59.7612 72.7594 59.7459 72.7541 59.7301 72.7519C59.7142 72.7498 59.6981 72.7509 59.6827 72.7551C59.6672 72.7594 59.6528 72.7667 59.6401 72.7767C59.6274 72.7867 59.6168 72.7992 59.6088 72.8134L52.3404 85.6804C52.3244 85.709 52.32 85.743 52.3282 85.7749C52.3364 85.8068 52.3564 85.8342 52.384 85.8511C52.404 85.863 52.4269 85.8689 52.45 85.8682Z" fill="#333333"/>
</svg>
