<svg width="166" height="177" viewBox="0 0 166 177" fill="none" xmlns="http://www.w3.org/2000/svg">
<g clip-path="url(#clip0)">
<path opacity="0.18" d="M16.0667 59.6826C3.51347 73.2523 -4.31361 93.249 2.55267 110.383C7.27287 122.166 17.9105 130.466 24.8846 141.083C30.4279 149.523 33.9837 159.818 42.3286 165.538C46.4472 168.348 51.3649 169.749 56.2587 170.734C64.5647 172.425 73.5112 173.006 81.2395 169.541C89.0547 166.045 94.562 158.912 101.626 154.083C110.689 147.895 121.836 145.777 132.186 142.094C142.536 138.411 153.096 132.127 156.601 121.751C158.603 115.822 158.008 109.372 158.834 103.171C160.63 89.6642 169.172 76.2168 164.733 63.33C159.962 49.4739 142.883 44.4725 128.187 43.9447C113.491 43.4168 97.6121 45.0899 85.2354 37.1866C81.2964 34.6725 77.9351 31.2905 73.8135 29.0806C62.688 23.1159 54.0588 30.9058 45.1182 36.784C34.8068 43.5868 24.4954 50.5715 16.0667 59.6826Z" fill="#68E1FD"/>
<path d="M137.062 27.3296C140.018 19.2152 137.298 10.7865 130.986 8.50365C124.674 6.22083 117.161 10.9483 114.205 19.0628C111.249 27.1773 113.969 35.606 120.281 37.8888C126.593 40.1716 134.106 35.4441 137.062 27.3296Z" fill="#68E1FD"/>
<path d="M137.062 27.3296C140.018 19.2152 137.298 10.7865 130.986 8.50365C124.674 6.22083 117.161 10.9483 114.205 19.0628C111.249 27.1773 113.969 35.606 120.281 37.8888C126.593 40.1716 134.106 35.4441 137.062 27.3296Z" fill="url(#paint0_linear)"/>
<path d="M50.4789 29.6629C56.7811 28.9485 61.1401 21.801 60.215 13.6984C59.2899 5.59583 53.4311 -0.393522 47.1289 0.320823C40.8267 1.03517 36.4677 8.1827 37.3928 16.2853C38.3178 24.3879 44.1767 30.3772 50.4789 29.6629Z" fill="#68E1FD"/>
<path d="M50.4789 29.6629C56.7811 28.9485 61.1401 21.801 60.215 13.6984C59.2899 5.59583 53.4311 -0.393522 47.1289 0.320823C40.8267 1.03517 36.4677 8.1827 37.3928 16.2853C38.3178 24.3879 44.1767 30.3772 50.4789 29.6629Z" fill="url(#paint1_linear)"/>
<path opacity="0.06" d="M45.5165 19.1287C45.5165 19.9161 45.5165 20.8645 46.2109 21.2611C46.5347 21.4146 46.8914 21.4863 47.2495 21.4699C49.1681 21.5564 51.1616 21.9799 52.6372 23.2086C54.1128 24.4373 54.8851 26.6413 54.0141 28.3472C53.143 30.0531 50.9461 30.7331 49.0275 30.5064C46.5521 30.2261 44.3701 28.8214 42.2899 27.4555C41.0657 26.6502 39.8205 25.8271 38.9106 24.6819C36.0492 21.0762 35.6182 13.7128 38.5125 9.97289C42.9095 4.29746 45.4956 16.1732 45.5165 19.1287Z" fill="url(#paint2_linear)"/>
<path d="M33.5524 35.6482C39.755 34.3266 43.3958 26.7907 41.6844 18.8161C39.973 10.8415 33.5574 5.44818 27.3548 6.76973C21.1522 8.09127 17.5114 15.6273 19.2228 23.6018C20.9342 31.5764 27.3498 36.9697 33.5524 35.6482Z" fill="#68E1FD"/>
<path d="M33.5524 35.6482C39.755 34.3266 43.3958 26.7907 41.6844 18.8161C39.973 10.8415 33.5574 5.44818 27.3548 6.76973C21.1522 8.09127 17.5114 15.6273 19.2228 23.6018C20.9342 31.5764 27.3498 36.9697 33.5524 35.6482Z" fill="url(#paint3_linear)"/>
<path d="M111.519 133.753V168.468C111.519 168.468 110.846 174.408 104.096 174.868C100.169 175.13 85.4817 175.81 73.8982 176.329C65.5862 176.699 58.8696 176.997 58.8696 176.997C58.8696 176.997 51.9854 175.78 51.9854 169.992V136.392H52.0123L52.7546 136.357L111.519 133.753Z" fill="#68E1FD"/>
<path d="M110.097 139.807C110.097 139.807 71.5751 146.386 59.9527 143.508C54.158 142.077 51.7934 139.005 52.1705 136.094C52.5477 133.183 55.7144 130.395 60.9584 129.607C60.9584 129.607 95.3347 123.482 105.748 128.116C110.136 130.067 111.597 132.453 111.821 134.555C112.126 137.445 110.097 139.807 110.097 139.807Z" fill="url(#paint4_linear)"/>
<path d="M111.828 134.555C111.603 132.453 110.142 130.067 105.754 128.116C95.3412 123.482 60.9649 129.608 60.9649 129.608C55.7209 130.395 52.5602 133.162 52.177 136.094C51.743 132.757 55.0115 129.306 60.9649 128.415C60.9649 128.415 95.3412 122.289 105.754 126.923C110.998 129.256 112.064 132.202 111.828 134.555Z" fill="url(#paint5_linear)"/>
<path d="M95.775 115.924C95.6954 116.23 95.5809 116.525 95.4338 116.804C93.7157 120.121 87.1966 124.442 87.1966 124.442C87.1966 124.442 81.1894 125.772 76.3854 126.383C71.5814 126.995 69.4712 125.307 69.4712 125.307C68.554 124.609 67.5659 124.009 66.523 123.517H66.508C64.9579 122.762 63.3159 122.211 61.6232 121.877C56.8341 120.941 58.2589 117.43 59.8902 117.609C61.5214 117.788 66.5379 113.16 68.7618 115.095C70.9858 117.031 74.6733 112.656 79.9173 107.66C85.1613 102.665 92.0785 107.281 92.0785 107.281L93.8744 107.141C94.3549 107.101 94.8385 107.161 95.2949 107.316C95.7513 107.471 96.1705 107.719 96.5263 108.043C96.8822 108.367 97.1668 108.761 97.3626 109.201C97.5583 109.64 97.6608 110.114 97.6637 110.595C97.6637 111.469 97.4961 112.286 97.1668 112.778C96.5218 113.738 96.0507 114.803 95.775 115.924Z" fill="#3F3D56"/>
<path d="M91.6982 110.583C91.6982 110.583 92.686 108.716 94.0927 109.297C95.4995 109.879 96.0383 113.112 96.0383 113.112L91.6982 110.583Z" fill="#EE7100"/>
<path d="M95.7745 115.924L95.4333 116.804C93.7152 120.12 87.1961 124.442 87.1961 124.442C87.1961 124.442 81.1889 125.772 76.3849 126.383C71.5809 126.995 69.4707 125.307 69.4707 125.307C68.5535 124.609 67.5654 124.009 66.5225 123.517C66.9804 123.622 73.8467 122.208 77.2409 120.929C80.6352 119.649 81.6049 111.024 85.1279 108.474C88.6508 105.924 91.0333 110.293 91.0333 110.293L95.7745 115.924Z" fill="#25233A"/>
<path d="M111.827 134.555C111.779 135.012 111.684 135.462 111.546 135.9C111.233 136.885 110.742 137.805 110.097 138.614C110.097 138.614 71.5753 145.193 59.953 142.315C57.5584 141.719 55.7625 140.854 54.4875 139.834C53.0957 138.716 52.3444 137.412 52.1768 136.094C52.5599 133.162 55.7206 130.395 60.9646 129.607C60.9646 129.607 95.341 123.482 105.754 128.116C110.142 130.067 111.603 132.453 111.827 134.555Z" fill="#68E1FD"/>
<path d="M111.827 134.555C111.779 135.012 111.684 135.462 111.546 135.9C111.233 136.885 110.742 137.805 110.097 138.614C110.097 138.614 71.5753 145.193 59.953 142.315C57.5584 141.719 55.7625 140.854 54.4875 139.834C53.0957 138.716 52.3444 137.412 52.1768 136.094C52.5599 133.162 55.7206 130.395 60.9646 129.607C60.9646 129.607 95.341 123.482 105.754 128.116C110.142 130.067 111.603 132.453 111.827 134.555Z" fill="url(#paint6_linear)"/>
<path d="M111.68 133.753L111.546 135.897C111.233 136.882 110.742 137.802 110.097 138.611C110.097 138.611 71.5752 145.19 59.9528 142.312C57.5583 141.716 55.7624 140.851 54.4873 139.831C54.7118 139.786 64.8226 137.901 68.2259 137.609C71.6291 137.317 66.9478 132.101 74.0715 129.33C81.1952 126.559 100.058 128.086 100.058 128.086L111.68 133.753Z" fill="url(#paint7_linear)"/>
<path d="M77.7289 128.778C77.7289 128.778 70.7399 133.964 71.6348 140.371C72.5298 146.777 85.538 146.037 92.3893 143.055C92.3893 143.055 101.707 145.628 104.859 143.055C108.011 140.481 106.58 130.231 100.055 128.086C93.5297 125.942 85.96 124.507 77.7289 128.778Z" fill="#68E1FD"/>
<path d="M77.7289 128.778C77.7289 128.778 70.7399 133.964 71.6348 140.371C72.5298 146.777 85.538 146.037 92.3893 143.055C92.3893 143.055 101.707 145.628 104.859 143.055C108.011 140.481 106.58 130.231 100.055 128.086C93.5297 125.942 85.96 124.507 77.7289 128.778Z" fill="url(#paint8_linear)"/>
<path opacity="0.19" d="M102.824 134.382C102.824 134.382 97.4601 136.562 96.4904 136.846C95.5206 137.129 90.1688 138.304 89.226 137.872C88.2831 137.439 83.3714 136.1 81.7431 137.275C80.1148 138.45 83.0811 143.031 83.0811 143.031L95.772 143.058L103.47 142.104L102.824 134.382Z" fill="url(#paint9_linear)"/>
<path d="M93.0274 130.851C92.9466 132.268 92.3839 133.848 90.6778 134.084C88.1276 134.439 86.8555 131.85 86.8555 131.85C86.8555 131.85 84.6616 128.14 85.6852 126.228C85.8977 125.826 85.356 122.214 85.8349 121.996C87.6308 121.167 91.7044 124.758 92.3001 124.838C92.4497 124.859 92.5515 124.985 92.6173 125.184C92.8807 125.987 92.5844 127.994 92.8688 129.061C93.0091 129.647 93.0625 130.25 93.0274 130.851Z" fill="url(#paint10_linear)"/>
<path opacity="0.19" d="M89.0103 128.549C87.6664 127.603 86.4512 124.442 86.4512 124.442L92.6171 125.184C92.8805 125.987 92.5841 127.994 92.8685 129.062C92.9852 129.491 91.4677 130.278 89.0103 128.549Z" fill="url(#paint11_linear)"/>
<path d="M96.5891 114.735C96.5891 114.735 97.2027 122.149 96.5383 123.571C95.7451 125.274 95.0866 126.628 91.0309 126.255C85.8737 125.784 83.0092 120.687 82.9075 120.291C82.8057 119.894 83.4762 109.814 89.4714 110.321C95.4667 110.828 95.8768 112.194 96.5891 114.735Z" fill="url(#paint12_linear)"/>
<path d="M102.384 129.336C102.384 129.336 109.205 134.788 106.987 143.055C104.769 151.322 91.4678 144.391 91.4678 144.391L96.9722 140.406C96.9722 140.406 102.324 139.771 102.782 138.462C103.24 137.153 102.384 129.336 102.384 129.336Z" fill="#68E1FD"/>
<path d="M102.384 129.336C102.384 129.336 109.205 134.788 106.987 143.055C104.769 151.322 91.4678 144.391 91.4678 144.391L96.9722 140.406C96.9722 140.406 102.324 139.771 102.782 138.462C103.24 137.153 102.384 129.336 102.384 129.336Z" fill="url(#paint13_linear)"/>
<path d="M71.6349 140.371C71.6349 140.371 75.6636 152.369 83.2213 149.726C90.779 147.084 98.7049 140.409 98.7049 140.409L97.5585 137.612C97.5585 137.612 86.427 141.617 83.811 139.831C81.195 138.044 78.8573 129.578 75.4871 130.842C72.1168 132.107 71.2487 137.63 71.6349 140.371Z" fill="#68E1FD"/>
<path d="M71.6349 140.371C71.6349 140.371 75.6636 152.369 83.2213 149.726C90.779 147.084 98.7049 140.409 98.7049 140.409L97.5585 137.612C97.5585 137.612 86.427 141.617 83.811 139.831C81.195 138.044 78.8573 129.578 75.4871 130.842C72.1168 132.107 71.2487 137.63 71.6349 140.371Z" fill="url(#paint14_linear)"/>
<path d="M84.1022 138.226C84.1022 138.226 85.0001 137.185 87.1851 137.821C88.5402 138.219 89.8343 138.8 91.0313 139.547C91.0313 139.547 87.679 140.174 87.5413 140.192C87.4036 140.21 86.4219 141.238 85.8352 141.065C85.2485 140.892 83.5664 140.866 83.5155 140.767C83.4646 140.669 82.9558 139.47 84.1022 138.226Z" fill="url(#paint15_linear)"/>
<path d="M97.8311 138.226C97.8311 138.226 101.141 135.294 102.919 136.848L102.785 138.468C102.785 138.468 102.282 139.661 98.5554 140.168L97.8311 138.226Z" fill="url(#paint16_linear)"/>
<path d="M71.5544 99.903L60.8838 82.3906" stroke="white" stroke-width="3.63" stroke-miterlimit="10" stroke-linecap="round"/>
<path d="M88.1631 97.8486L91.0305 81.6216" stroke="white" stroke-width="3.63" stroke-miterlimit="10" stroke-linecap="round"/>
<path d="M78.4833 97.848L69.8271 70.3447" stroke="white" stroke-width="3.63" stroke-miterlimit="10" stroke-linecap="round"/>
<path d="M58.629 84.1913C65.7301 81.4312 68.5896 71.7935 65.0157 62.6648C61.4418 53.5361 52.788 48.3732 45.6869 51.1333C38.5857 53.8934 35.7263 63.5311 39.3001 72.6599C42.874 81.7886 51.5278 86.9514 58.629 84.1913Z" fill="#68E1FD"/>
<path d="M58.629 84.1913C65.7301 81.4312 68.5896 71.7935 65.0157 62.6648C61.4418 53.5361 52.788 48.3732 45.6869 51.1333C38.5857 53.8934 35.7263 63.5311 39.3001 72.6599C42.874 81.7886 51.5278 86.9514 58.629 84.1913Z" fill="url(#paint17_linear)"/>
<path opacity="0.06" d="M40.4739 55.6296C40.4739 55.6296 39.0072 58.8834 38.8097 59.8049C38.6121 60.7265 48.0884 63.1482 48.0884 63.1482C48.0884 63.1482 55.4995 80.2132 65.326 77.0131C65.326 77.0131 66.4664 75.5697 66.9124 72.7096C67.3583 69.8495 50.2854 52.4087 50.2854 52.4087L40.4739 55.6296Z" fill="url(#paint18_linear)"/>
<path d="M68.9462 42.9607C76.5197 42.1022 81.7581 33.5138 80.6466 23.778C79.535 14.0421 72.4944 6.84551 64.921 7.70395C57.3475 8.5624 52.1091 17.1508 53.2206 26.8867C54.3322 36.6225 61.3728 43.8191 68.9462 42.9607Z" fill="#68E1FD"/>
<path d="M68.9462 42.9607C76.5197 42.1022 81.7581 33.5138 80.6466 23.778C79.535 14.0421 72.4944 6.84551 64.921 7.70395C57.3475 8.5624 52.1091 17.1508 53.2206 26.8867C54.3322 36.6225 61.3728 43.8191 68.9462 42.9607Z" fill="url(#paint19_linear)"/>
<path opacity="0.06" d="M60.8323 33.5039C60.9441 33.7211 61.1114 33.9052 61.3172 34.0378C61.4688 34.1046 61.6307 34.1449 61.7961 34.1571L66.0523 34.682C65.8189 31.8457 67.6686 29.2928 69.5274 27.1336C70.0153 26.5699 70.5271 25.9735 70.6767 25.2428C70.7471 24.8012 70.7471 24.3513 70.6767 23.9097C70.4972 22.156 70.3774 20.3487 70.8503 18.6518C71.3233 16.9548 72.5654 15.3712 74.2805 14.9238L75.7202 20.3458C76.0541 21.4425 76.2649 22.5728 76.3488 23.7158C76.3496 24.9591 76.1937 26.1975 75.8848 27.402C74.8871 31.9948 73.7118 36.5459 72.3589 41.0553C72.2636 41.5211 72.0324 41.9485 71.6944 42.284C71.2724 42.6299 70.6797 42.6508 70.135 42.6299C66.8425 42.5047 63.6518 41.4191 60.527 40.3455C59.629 40.0323 58.6802 39.6983 58.0157 39.0123C57.4942 38.3992 57.1095 37.6824 56.8873 36.9098C56.3575 35.4186 54.3102 30.7989 55.8636 29.5523C57.8601 27.9508 60.069 32.2662 60.8323 33.5039Z" fill="url(#paint20_linear)"/>
<path d="M50.0632 58.8129C57.517 57.2247 61.8925 48.1695 59.8361 38.5875C57.7797 29.0054 50.0702 22.5251 42.6164 24.1132C35.1626 25.7013 30.7871 34.7566 32.8435 44.3386C34.8999 53.9206 42.6094 60.401 50.0632 58.8129Z" fill="#68E1FD"/>
<path d="M50.0632 58.8129C57.517 57.2247 61.8925 48.1695 59.8361 38.5875C57.7797 29.0054 50.0702 22.5251 42.6164 24.1132C35.1626 25.7013 30.7871 34.7566 32.8435 44.3386C34.8999 53.9206 42.6094 60.401 50.0632 58.8129Z" fill="url(#paint21_linear)"/>
<path d="M66.9636 73.1512C74.4174 71.5631 78.7929 62.5079 76.7365 52.9258C74.6801 43.3438 66.9706 36.8635 59.5168 38.4516C52.063 40.0397 47.6875 49.0949 49.7439 58.677C51.8003 68.259 59.5098 74.7394 66.9636 73.1512Z" fill="#68E1FD"/>
<path d="M66.9636 73.1512C74.4174 71.5631 78.7929 62.5079 76.7365 52.9258C74.6801 43.3438 66.9706 36.8635 59.5168 38.4516C52.063 40.0397 47.6875 49.0949 49.7439 58.677C51.8003 68.259 59.5098 74.7394 66.9636 73.1512Z" fill="url(#paint22_linear)"/>
<path d="M113.812 16.6305C115.205 8.59463 111.267 1.20824 105.017 0.13252C98.7668 -0.943198 92.5707 4.69911 91.1776 12.735C89.7846 20.7708 93.7221 28.1572 99.9724 29.2329C106.223 30.3086 112.419 24.6663 113.812 16.6305Z" fill="#68E1FD"/>
<path d="M113.812 16.6305C115.205 8.59463 111.267 1.20824 105.017 0.13252C98.7668 -0.943198 92.5707 4.69911 91.1776 12.735C89.7846 20.7708 93.7221 28.1572 99.9724 29.2329C106.223 30.3086 112.419 24.6663 113.812 16.6305Z" fill="url(#paint23_linear)"/>
<path d="M94.5669 16.3716C95.1692 8.23887 90.5295 1.26897 84.2039 0.803908C77.8782 0.338845 72.2621 6.55473 71.6598 14.6875C71.0576 22.8202 75.6973 29.7901 82.0229 30.2552C88.3485 30.7202 93.9647 24.5043 94.5669 16.3716Z" fill="#68E1FD"/>
<path d="M94.5669 16.3716C95.1692 8.23887 90.5295 1.26897 84.2039 0.803908C77.8782 0.338845 72.2621 6.55473 71.6598 14.6875C71.0576 22.8202 75.6973 29.7901 82.0229 30.2552C88.3485 30.7202 93.9647 24.5043 94.5669 16.3716Z" fill="url(#paint24_linear)"/>
<path d="M92.9671 83.4435C100.56 82.7803 106.02 74.3296 105.161 64.5683C104.302 54.8071 97.4503 47.4317 89.8571 48.095C82.2639 48.7582 76.8046 57.2089 77.6634 66.9702C78.5222 76.7314 85.3739 84.1068 92.9671 83.4435Z" fill="#68E1FD"/>
<path d="M92.9671 83.4435C100.56 82.7803 106.02 74.3296 105.161 64.5683C104.302 54.8071 97.4503 47.4317 89.8571 48.095C82.2639 48.7582 76.8046 57.2089 77.6634 66.9702C78.5222 76.7314 85.3739 84.1068 92.9671 83.4435Z" fill="url(#paint25_linear)"/>
<path opacity="0.06" d="M84.4605 60.432C85.1778 63.1153 86.5943 65.562 88.5666 67.524C90.5388 69.486 92.9966 70.8935 95.6908 71.6039C96.8335 71.9385 98.039 72.0018 99.2107 71.7888C100.259 71.5319 101.201 70.9568 101.908 70.1432C102.614 69.3295 103.049 68.3174 103.153 67.2467C103.278 65.499 102.5 63.8319 101.737 62.2542C100.809 60.3396 99.8812 58.4249 98.7947 56.5878C97.8159 54.9385 96.6995 53.343 95.2508 52.0784C93.8021 50.8139 92.0002 49.8924 90.0816 49.7522C87.4177 49.5583 84.8855 50.8557 82.6556 52.32C82.0022 52.7235 81.3993 53.2031 80.8597 53.7486C79.9438 54.7327 78.1659 57.8105 78.8603 59.1556C79.4769 60.3485 84.5652 60.8525 84.4605 60.432Z" fill="url(#paint26_linear)"/>
<path d="M132.308 59.8358C137.225 51.3499 135.86 41.3923 129.259 37.5949C122.657 33.7975 113.32 37.5983 108.403 46.0842C103.486 54.57 104.851 64.5276 111.452 68.325C118.053 72.1225 127.391 68.3217 132.308 59.8358Z" fill="#68E1FD"/>
<path d="M132.308 59.8358C137.225 51.3499 135.86 41.3923 129.259 37.5949C122.657 33.7975 113.32 37.5983 108.403 46.0842C103.486 54.57 104.851 64.5276 111.452 68.325C118.053 72.1225 127.391 68.3217 132.308 59.8358Z" fill="url(#paint27_linear)"/>
<path d="M119.073 27.6615C118.805 29.2092 118.375 30.7246 117.789 32.1828C114.934 39.3405 108.708 43.8826 102.437 42.803C94.9276 41.5116 90.1954 32.6391 91.8686 22.9822C92.234 20.8397 92.9116 18.7619 93.88 16.8147C96.9899 10.6233 102.728 6.84467 108.51 7.84077C116.014 9.13512 120.746 18.0076 119.073 27.6615Z" fill="#68E1FD"/>
<path d="M119.073 27.6615C118.805 29.2092 118.375 30.7246 117.789 32.1828C114.934 39.3405 108.708 43.8826 102.437 42.803C94.9276 41.5116 90.1954 32.6391 91.8686 22.9822C92.234 20.8397 92.9116 18.7619 93.88 16.8147C96.9899 10.6233 102.728 6.84467 108.51 7.84077C116.014 9.13512 120.746 18.0076 119.073 27.6615Z" fill="url(#paint28_linear)"/>
<path opacity="0.06" d="M118.337 31.6431C115.482 38.8007 109.256 43.3429 102.985 42.2633C95.4754 40.9719 90.7433 32.0994 92.4164 22.4425C92.7866 20.2992 93.4692 18.2214 94.4428 16.275C95.9214 16.1825 96.7535 18.6609 97.2983 19.821C99.0133 23.4658 99.7624 27.4877 99.4743 31.5029C103.138 30.0477 107.218 30.0264 110.896 31.4433C111.387 31.6798 111.916 31.8263 112.459 31.8757C112.919 31.8456 113.373 31.7543 113.808 31.6043C115.295 31.2156 116.858 31.2289 118.337 31.6431Z" fill="url(#paint29_linear)"/>
<path d="M96.6964 39.7102C96.0678 48.1741 90.9196 54.9202 84.6131 56.1967C83.629 56.3977 82.6218 56.463 81.6199 56.3905C74.0173 55.8299 68.4501 47.4435 69.1654 37.6852C69.8808 27.9269 76.6483 20.4472 84.2389 21.0049C89.0699 21.3598 93.0807 24.8819 95.1789 29.8863C96.0504 31.9965 96.5661 34.2355 96.7054 36.5131C96.7788 37.5777 96.7758 38.6461 96.6964 39.7102Z" fill="#68E1FD"/>
<path d="M96.6964 39.7102C96.0678 48.1741 90.9196 54.9202 84.6131 56.1967C83.629 56.3977 82.6218 56.463 81.6199 56.3905C74.0173 55.8299 68.4501 47.4435 69.1654 37.6852C69.8808 27.9269 76.6483 20.4472 84.2389 21.0049C89.0699 21.3598 93.0807 24.8819 95.1789 29.8863C96.0504 31.9965 96.5661 34.2355 96.7054 36.5131C96.7788 37.5777 96.7758 38.6461 96.6964 39.7102Z" fill="url(#paint30_linear)"/>
<path opacity="0.06" d="M97.2377 39.1701C96.6062 47.634 91.461 54.3801 85.1544 55.6566C77.8691 39.7755 95.7232 29.3462 95.7232 29.3462L97.2497 35.973C97.3221 37.0376 97.3181 38.106 97.2377 39.1701Z" fill="url(#paint31_linear)"/>
<path d="M115.092 53.9671C115.816 44.195 110.24 35.8201 102.638 35.2612C95.0368 34.7024 88.2879 42.1712 87.5642 51.9432C86.8405 61.7153 92.4163 70.0903 100.018 70.6491C107.62 71.208 114.369 63.7392 115.092 53.9671Z" fill="#68E1FD"/>
<path d="M115.092 53.9671C115.816 44.195 110.24 35.8201 102.638 35.2612C95.0368 34.7024 88.2879 42.1712 87.5642 51.9432C86.8405 61.7153 92.4163 70.0903 100.018 70.6491C107.62 71.208 114.369 63.7392 115.092 53.9671Z" fill="url(#paint32_linear)"/>
<path d="M84.0981 114.236C84.0981 114.236 84.3046 118.239 84.9302 119.584C84.9302 119.584 83.4097 117.872 83.2361 118.987C82.808 121.737 85.1726 122.134 85.2475 122.11C85.8461 121.94 86.1454 124.66 85.6994 124.749C84.6159 124.97 82.5536 125.369 82.5536 125.369L81.4521 121.859L84.0981 114.236Z" fill="#25233A"/>
<path opacity="0.19" d="M84.8922 120.956C84.8922 120.956 84.4343 120.89 84.4073 120.243C84.3804 119.596 84.1649 119.488 83.9374 119.453C83.7099 119.417 83.231 119.9 83.8117 120.738C84.3924 121.576 85.1227 121.806 85.1736 121.633C85.2244 121.46 84.8922 120.956 84.8922 120.956Z" fill="url(#paint33_linear)"/>
<path d="M96.1484 101.045L114.131 68.2246" stroke="white" stroke-width="3.63" stroke-miterlimit="10" stroke-linecap="round"/>
<path d="M74.0594 176.329C65.7474 176.699 59.0308 176.997 59.0308 176.997C59.0308 176.997 52.1315 175.78 52.1465 169.991V136.392H52.1734C52.2213 137.821 53.2031 143.964 66.5226 144.239L66.2233 171.056C66.2233 171.056 67.2978 175.207 74.0594 176.329Z" fill="#68E1FD"/>
<path d="M74.0594 176.329C65.7474 176.699 59.0308 176.997 59.0308 176.997C59.0308 176.997 52.1315 175.78 52.1465 169.991V136.392H52.1734C52.2213 137.821 53.2031 143.964 66.5226 144.239L66.2233 171.056C66.2233 171.056 67.2978 175.207 74.0594 176.329Z" fill="url(#paint34_linear)"/>
<path d="M52.1471 136.974C52.1471 136.974 48.1004 106.974 71.5577 99.9031C104.258 90.0464 111.519 119.452 110.795 131.85" stroke="white" stroke-width="3.63" stroke-miterlimit="10" stroke-linecap="round"/>
<path opacity="0.18" d="M40.3928 26.0894C39.3178 26.915 38.3451 27.865 37.4954 28.9196C36.9293 29.5094 36.4669 30.19 36.1276 30.9327C35.9083 31.5736 35.7823 32.2425 35.7534 32.919C35.6809 33.3956 35.7084 33.882 35.8342 34.3475C35.899 34.5818 36.0319 34.7918 36.2162 34.951C36.4005 35.1102 36.6279 35.2115 36.8698 35.2422C37.3248 35.2601 37.7139 34.944 38.0671 34.6458L44.9214 28.7288C45.1721 28.5498 45.3638 28.3007 45.4722 28.013C45.519 27.7083 45.4731 27.3967 45.3405 27.1183C45.0561 26.3399 44.679 24.8696 43.6972 24.8129C42.5658 24.7354 41.2698 25.4571 40.3928 26.0894ZM24.565 9.98463C23.7973 10.7672 23.1261 11.6382 22.5656 12.5793C22.1791 13.1152 21.8857 13.712 21.6976 14.3448C21.5948 14.8833 21.5696 15.4336 21.6228 15.9792C21.6201 16.3694 21.6975 16.7561 21.8502 17.1154C21.9298 17.2947 22.0605 17.4467 22.2259 17.5527C22.3914 17.6588 22.5844 17.7141 22.7811 17.7119C23.139 17.6279 23.4533 17.4156 23.6641 17.1154L28.4831 11.6011C28.6645 11.4304 28.7898 11.2089 28.8422 10.9658C28.846 10.7177 28.774 10.4743 28.6357 10.268C28.3364 9.67148 27.8515 8.54117 27.0583 8.60678C26.1514 8.66941 25.1936 9.38816 24.565 9.98463ZM46.0738 0.634932C45.2573 1.00066 44.4876 1.46222 43.781 2.0098C43.3246 2.30216 42.92 2.668 42.5838 3.0924C42.3468 3.47346 42.1654 3.88617 42.045 4.31815C41.9256 4.61347 41.8695 4.93043 41.8804 5.24864C41.8872 5.40764 41.9412 5.56106 42.0355 5.68951C42.1298 5.81797 42.2602 5.9157 42.4102 5.97037C42.7096 6.0115 43.0136 5.94029 43.2632 5.77055L48.5701 3.01784C48.759 2.94169 48.9206 2.81078 49.034 2.64206C49.1118 2.45318 49.1306 2.24528 49.0879 2.04559C49.025 1.5028 49.0071 0.500726 48.3875 0.31582C47.6751 0.10109 46.7323 0.36652 46.0738 0.634932ZM62.0751 9.85042C61.0657 10.645 60.1553 11.5571 59.3634 12.5674C58.8346 13.1327 58.4055 13.7831 58.0943 14.491C57.8922 15.1009 57.7803 15.7368 57.762 16.3788C57.6994 16.8317 57.731 17.2926 57.8548 17.7328C57.9219 17.9513 58.0518 18.1454 58.2284 18.2912C58.405 18.437 58.6206 18.528 58.8485 18.5529C59.2796 18.5529 59.6447 18.2547 59.965 17.9774L66.3883 12.284C66.627 12.1146 66.8078 11.8762 66.9061 11.6011C66.9453 11.3133 66.8973 11.0205 66.7684 10.76C66.493 10.0264 66.1159 8.6366 65.185 8.59485C64.1165 8.54713 62.8953 9.24798 62.0751 9.85042ZM54.1194 45.4747C53.5278 46.3676 53.0454 47.3278 52.6827 48.3348C52.4119 48.9219 52.241 49.5498 52.1768 50.1928C52.1782 50.7291 52.2568 51.2624 52.4103 51.7764C52.4801 52.1521 52.6268 52.5095 52.8413 52.8262C52.9518 52.9819 53.1057 53.1018 53.2839 53.1713C53.4621 53.2407 53.6568 53.2566 53.844 53.2169C54.1743 53.0682 54.4362 52.8009 54.5773 52.4683L58.1691 46.2829C58.3122 46.0853 58.3925 45.8495 58.3996 45.6059C58.3534 45.3673 58.2378 45.1474 58.0673 44.9737C57.6573 44.4637 56.9928 43.4616 56.2445 43.6704C55.3974 43.9119 54.6132 44.7858 54.1194 45.4747ZM75.67 26.2236C74.9442 27.0093 74.3133 27.8771 73.7903 28.8093C73.4259 29.3437 73.1547 29.9355 72.9882 30.5599C72.9009 31.0895 72.8898 31.6288 72.9552 32.1614C72.9636 32.5424 73.0491 32.9177 73.2067 33.2649C73.2903 33.4365 73.4224 33.5801 73.5866 33.6781C73.7509 33.7761 73.9403 33.8242 74.1316 33.8167C74.4813 33.7217 74.7838 33.502 74.9816 33.1993L79.5522 27.6849C79.7245 27.5133 79.8413 27.2941 79.8874 27.0556C79.8853 26.8131 79.8091 26.5769 79.6689 26.3787C79.3456 25.809 78.8577 24.7085 78.0855 24.792C77.1906 24.8964 76.2717 25.6211 75.67 26.2236ZM107.041 8.45766C105.969 8.51965 104.908 8.70785 103.88 9.01834C103.247 9.15318 102.64 9.39204 102.085 9.72516C101.655 10.0475 101.273 10.4291 100.95 10.8585C100.685 11.1364 100.481 11.4666 100.352 11.8277C100.292 12.0087 100.287 12.2032 100.337 12.3871C100.387 12.5711 100.49 12.7364 100.633 12.8626C100.95 13.0379 101.322 13.0879 101.675 13.0028L108.81 12.1856C109.055 12.1818 109.292 12.1049 109.493 11.9649C109.654 11.7855 109.758 11.5623 109.792 11.3237C109.957 10.6885 110.367 9.56113 109.753 9.08694C109.065 8.54415 107.894 8.43976 107.041 8.45766ZM97.4003 37.7981C96.487 38.3665 95.645 39.0413 94.892 39.8082C94.3983 40.2267 93.9785 40.7247 93.6499 41.2815C93.4251 41.7691 93.2718 42.2863 93.1949 42.8174C93.0991 43.1865 93.0817 43.5715 93.144 43.9477C93.1772 44.1355 93.2653 44.3094 93.3974 44.4474C93.5295 44.5853 93.6996 44.6813 93.8863 44.7231C94.2494 44.7264 94.6005 44.5945 94.8711 44.3533L100.744 40.2436C100.957 40.1258 101.13 39.9458 101.238 39.7277C101.298 39.4922 101.287 39.2439 101.205 39.0149C101.046 38.3797 100.866 37.1927 100.1 37.0674C99.2321 36.9123 98.1396 37.3746 97.4003 37.7981ZM125.048 37.315C123.98 37.2041 122.903 37.2201 121.839 37.3627C121.191 37.3934 120.553 37.5325 119.951 37.7742C119.474 38.0218 119.036 38.3361 118.649 38.7077C118.346 38.9419 118.095 39.2365 117.912 39.5726C117.824 39.7421 117.788 39.9337 117.808 40.1235C117.829 40.3132 117.904 40.4929 118.026 40.6403C118.312 40.862 118.671 40.9684 119.032 40.9385L126.215 41.2726C126.335 41.3021 126.459 41.3074 126.58 41.2883C126.702 41.2691 126.818 41.2258 126.923 41.161C127.027 41.0962 127.117 41.0112 127.188 40.911C127.259 40.8108 127.309 40.6974 127.335 40.5777C127.598 39.9812 128.185 38.9314 127.655 38.3648C127.032 37.7206 125.892 37.4223 125.048 37.315ZM39.3153 65.4565C39.4444 66.519 39.7006 67.5623 40.0785 68.5641C40.2055 69.1444 40.4509 69.6925 40.7995 70.1742C41.1481 70.656 41.5924 71.0612 42.1049 71.3646C42.4009 71.606 42.7446 71.7829 43.1136 71.8835C43.299 71.9313 43.4945 71.9241 43.6758 71.8626C43.8572 71.8011 44.0165 71.6881 44.1342 71.5375C44.2886 71.2109 44.3143 70.8383 44.2061 70.4937C43.783 68.1456 43.36 65.7995 42.937 63.4553C42.9162 63.2132 42.8234 62.9827 42.6706 62.7933C42.483 62.6377 42.2522 62.543 42.0091 62.5219C41.3626 62.3996 40.2132 62.0626 39.7732 62.7038C39.2734 63.4494 39.2434 64.6214 39.3153 65.4565ZM128.565 8.38907C127.495 8.47773 126.439 8.69298 125.419 9.03027C124.789 9.18025 124.188 9.43428 123.641 9.78183C123.22 10.1155 122.848 10.5071 122.537 10.9449C122.283 11.2309 122.092 11.566 121.974 11.9291C121.916 12.1128 121.914 12.3096 121.968 12.4944C122.022 12.6793 122.131 12.8438 122.279 12.967C122.602 13.1329 122.975 13.1744 123.327 13.0833L130.436 12.0723C130.679 12.0613 130.913 11.9782 131.109 11.8337C131.272 11.652 131.377 11.4253 131.408 11.1835C131.555 10.5453 131.938 9.39412 131.313 8.94975C130.588 8.42187 129.415 8.34731 128.565 8.38907ZM80.1568 1.75033C79.4182 2.33121 78.7519 2.99803 78.1723 3.73659C77.7848 4.15034 77.4701 4.62624 77.2414 5.14426C77.096 5.59093 77.0144 6.05576 76.999 6.52509C76.953 6.85651 76.9775 7.19386 77.0708 7.51523C77.119 7.67479 77.2135 7.81658 77.3424 7.92273C77.4713 8.02887 77.6288 8.09463 77.7952 8.11171C78.1109 8.07883 78.4026 7.9287 78.6123 7.69119L83.3115 3.51589C83.4847 3.3902 83.6161 3.21568 83.6887 3.01485C83.7171 2.80453 83.6817 2.59054 83.5869 2.40049C83.3834 1.86366 83.108 0.84668 82.4286 0.816856C81.6503 0.79598 80.7554 1.30895 80.1568 1.75033Z" fill="white"/>
</g>
<defs>
<linearGradient id="paint0_linear" x1="106.982" y1="33.353" x2="130.395" y2="20.5143" gradientUnits="userSpaceOnUse">
<stop/>
<stop offset="1" stop-opacity="0"/>
</linearGradient>
<linearGradient id="paint1_linear" x1="8621.45" y1="4059" x2="6440.68" y2="1456.61" gradientUnits="userSpaceOnUse">
<stop/>
<stop offset="1" stop-opacity="0"/>
</linearGradient>
<linearGradient id="paint2_linear" x1="36.5371" y1="19.5015" x2="54.3762" y2="19.5015" gradientUnits="userSpaceOnUse">
<stop stop-color="#183866"/>
<stop offset="1" stop-color="#1A7FC1"/>
</linearGradient>
<linearGradient id="paint3_linear" x1="7676.74" y1="3457.77" x2="5451.9" y2="2475.7" gradientUnits="userSpaceOnUse">
<stop/>
<stop offset="1" stop-opacity="0"/>
</linearGradient>
<linearGradient id="paint4_linear" x1="81.6979" y1="133.043" x2="83.2136" y2="147.568" gradientUnits="userSpaceOnUse">
<stop stop-color="#68E1FD"/>
<stop offset="0.2" stop-color="#5DB4CF"/>
<stop offset="0.46" stop-color="#50819B"/>
<stop offset="0.69" stop-color="#475C76"/>
<stop offset="0.87" stop-color="#41455E"/>
<stop offset="0.99" stop-color="#3F3D56"/>
</linearGradient>
<linearGradient id="paint5_linear" x1="25737.3" y1="5164.57" x2="25730.8" y2="4748.06" gradientUnits="userSpaceOnUse">
<stop stop-color="#68E1FD"/>
<stop offset="0.2" stop-color="#5DB4CF"/>
<stop offset="0.46" stop-color="#50819B"/>
<stop offset="0.69" stop-color="#475C76"/>
<stop offset="0.87" stop-color="#41455E"/>
<stop offset="0.99" stop-color="#3F3D56"/>
</linearGradient>
<linearGradient id="paint6_linear" x1="26091.4" y1="7080.3" x2="25952.1" y2="9821.79" gradientUnits="userSpaceOnUse">
<stop/>
<stop offset="1" stop-opacity="0"/>
</linearGradient>
<linearGradient id="paint7_linear" x1="24117.9" y1="6721.44" x2="24256.2" y2="8071.88" gradientUnits="userSpaceOnUse">
<stop/>
<stop offset="1" stop-opacity="0"/>
</linearGradient>
<linearGradient id="paint8_linear" x1="15733.7" y1="9809.2" x2="15812.9" y2="8617.1" gradientUnits="userSpaceOnUse">
<stop/>
<stop offset="1" stop-opacity="0"/>
</linearGradient>
<linearGradient id="paint9_linear" x1="9566.39" y1="4191.55" x2="11214.8" y2="4191.55" gradientUnits="userSpaceOnUse">
<stop stop-color="#183866"/>
<stop offset="1" stop-color="#1A7FC1"/>
</linearGradient>
<linearGradient id="paint10_linear" x1="85.4128" y1="127.994" x2="93.0364" y2="127.994" gradientUnits="userSpaceOnUse">
<stop stop-color="#ECC4D7"/>
<stop offset="0.42" stop-color="#EFD4D1"/>
<stop offset="1" stop-color="#F2EAC9"/>
</linearGradient>
<linearGradient id="paint11_linear" x1="2940.46" y1="2342.18" x2="3078.31" y2="2342.18" gradientUnits="userSpaceOnUse">
<stop stop-color="#183866"/>
<stop offset="1" stop-color="#1A7FC1"/>
</linearGradient>
<linearGradient id="paint12_linear" x1="6114.84" y1="6503.83" x2="6764.86" y2="6503.83" gradientUnits="userSpaceOnUse">
<stop stop-color="#ECC4D7"/>
<stop offset="0.42" stop-color="#EFD4D1"/>
<stop offset="1" stop-color="#F2EAC9"/>
</linearGradient>
<linearGradient id="paint13_linear" x1="6866.17" y1="8502.81" x2="8526.34" y2="8396.76" gradientUnits="userSpaceOnUse">
<stop/>
<stop offset="1" stop-opacity="0"/>
</linearGradient>
<linearGradient id="paint14_linear" x1="11800.7" y1="10442.9" x2="11934.1" y2="8981.22" gradientUnits="userSpaceOnUse">
<stop/>
<stop offset="1" stop-opacity="0"/>
</linearGradient>
<linearGradient id="paint15_linear" x1="3464.77" y1="1814.5" x2="3478.11" y2="1751" gradientUnits="userSpaceOnUse">
<stop stop-color="#ECC4D7"/>
<stop offset="0.42" stop-color="#EFD4D1"/>
<stop offset="1" stop-color="#F2EAC9"/>
</linearGradient>
<linearGradient id="paint16_linear" x1="2564.2" y1="1944.1" x2="2589.12" y2="1871.83" gradientUnits="userSpaceOnUse">
<stop stop-color="#ECC4D7"/>
<stop offset="0.42" stop-color="#EFD4D1"/>
<stop offset="1" stop-color="#F2EAC9"/>
</linearGradient>
<linearGradient id="paint17_linear" x1="81.156" y1="58.2086" x2="40.5644" y2="71.5459" gradientUnits="userSpaceOnUse">
<stop/>
<stop offset="0.62" stop-opacity="0.26"/>
<stop offset="1" stop-opacity="0"/>
</linearGradient>
<linearGradient id="paint18_linear" x1="8054.76" y1="5558.33" x2="10696.1" y2="5558.33" gradientUnits="userSpaceOnUse">
<stop stop-color="#183866"/>
<stop offset="1" stop-color="#1A7FC1"/>
</linearGradient>
<linearGradient id="paint19_linear" x1="12080" y1="4296.19" x2="9472.7" y2="3098.33" gradientUnits="userSpaceOnUse">
<stop/>
<stop offset="1" stop-opacity="0"/>
</linearGradient>
<linearGradient id="paint20_linear" x1="7218.8" y1="2758.94" x2="8700.36" y2="2758.94" gradientUnits="userSpaceOnUse">
<stop stop-color="#183866"/>
<stop offset="1" stop-color="#1A7FC1"/>
</linearGradient>
<linearGradient id="paint21_linear" x1="10517.2" y1="8114.1" x2="7379.25" y2="5080.03" gradientUnits="userSpaceOnUse">
<stop/>
<stop offset="1" stop-opacity="0"/>
</linearGradient>
<linearGradient id="paint22_linear" x1="12175.6" y1="6192.42" x2="9426.23" y2="6669.67" gradientUnits="userSpaceOnUse">
<stop/>
<stop offset="1" stop-opacity="0"/>
</linearGradient>
<linearGradient id="paint23_linear" x1="13596.8" y1="2058.91" x2="15138" y2="253.027" gradientUnits="userSpaceOnUse">
<stop stop-color="#FFCEC8"/>
<stop offset="1" stop-opacity="0"/>
</linearGradient>
<linearGradient id="paint24_linear" x1="15194.7" y1="2638.34" x2="12815.4" y2="222.653" gradientUnits="userSpaceOnUse">
<stop/>
<stop offset="1" stop-opacity="0"/>
</linearGradient>
<linearGradient id="paint25_linear" x1="13165.8" y1="5292.22" x2="12190.1" y2="9592.94" gradientUnits="userSpaceOnUse">
<stop stop-color="#DC9600"/>
<stop offset="1" stop-opacity="0"/>
</linearGradient>
<linearGradient id="paint26_linear" x1="10314.3" y1="4628.88" x2="12313.9" y2="4628.88" gradientUnits="userSpaceOnUse">
<stop stop-color="#183866"/>
<stop offset="1" stop-color="#1A7FC1"/>
</linearGradient>
<linearGradient id="paint27_linear" x1="16684.8" y1="5025.28" x2="21114.1" y2="4950.59" gradientUnits="userSpaceOnUse">
<stop stop-color="#FF7867"/>
<stop offset="1" stop-opacity="0"/>
</linearGradient>
<linearGradient id="paint28_linear" x1="11937.2" y1="4375.24" x2="14670" y2="3428.11" gradientUnits="userSpaceOnUse">
<stop stop-color="#EE7100"/>
<stop offset="1" stop-opacity="0"/>
</linearGradient>
<linearGradient id="paint29_linear" x1="12251.7" y1="2655.24" x2="14555.2" y2="2655.24" gradientUnits="userSpaceOnUse">
<stop stop-color="#183866"/>
<stop offset="1" stop-color="#1A7FC1"/>
</linearGradient>
<linearGradient id="paint30_linear" x1="13699.6" y1="6728.67" x2="11234.4" y2="4912.12" gradientUnits="userSpaceOnUse">
<stop/>
<stop offset="1" stop-opacity="0"/>
</linearGradient>
<linearGradient id="paint31_linear" x1="6115.19" y1="3845.14" x2="6760.15" y2="3845.14" gradientUnits="userSpaceOnUse">
<stop stop-color="#183866"/>
<stop offset="1" stop-color="#1A7FC1"/>
</linearGradient>
<linearGradient id="paint32_linear" x1="14750.5" y1="5983.78" x2="17706.9" y2="4304.62" gradientUnits="userSpaceOnUse">
<stop stop-color="#EE7100"/>
<stop offset="1" stop-opacity="0"/>
</linearGradient>
<linearGradient id="paint33_linear" x1="797.808" y1="1028.98" x2="806.832" y2="1028.98" gradientUnits="userSpaceOnUse">
<stop stop-color="#183866"/>
<stop offset="1" stop-color="#1A7FC1"/>
</linearGradient>
<linearGradient id="paint34_linear" x1="11095.8" y1="20679.1" x2="6123.61" y2="21086.2" gradientUnits="userSpaceOnUse">
<stop/>
<stop offset="1" stop-opacity="0"/>
</linearGradient>
<clipPath id="clip0">
<rect width="166" height="177" fill="white"/>
</clipPath>
</defs>
</svg>
