<svg width="435" height="384" viewBox="0 0 435 384" fill="none" xmlns="http://www.w3.org/2000/svg">
<path d="M136.851 284.055C141.042 284.055 144.439 280.662 144.439 276.475C144.439 272.289 141.042 268.896 136.851 268.896C132.661 268.896 129.264 272.289 129.264 276.475C129.264 280.662 132.661 284.055 136.851 284.055Z" fill="#B5A8AE"/>
<path d="M333.099 278.601C337.936 278.601 341.858 274.684 341.858 269.851C341.858 265.018 337.936 261.1 333.099 261.1C328.261 261.1 324.339 265.018 324.339 269.851C324.339 274.684 328.261 278.601 333.099 278.601Z" fill="url(#paint0_linear)"/>
<path fill-rule="evenodd" clip-rule="evenodd" d="M200.832 253.337H199.764C196.032 253.337 193.007 250.349 193.007 246.663V225.233C193.007 221.781 195.66 218.941 199.062 218.593C198.985 218.591 198.91 218.583 198.833 218.583H197.697C193.724 218.583 190.504 221.764 190.504 225.688V248.501C190.504 252.426 193.724 255.607 197.697 255.607H198.833C201.634 255.607 204.056 254.02 205.244 251.711C204.06 252.722 202.519 253.337 200.832 253.337Z" fill="#E3DDE4"/>
<path d="M226.029 270.69C226.029 270.69 220.821 250.367 218.646 235.324C216.753 222.231 214.481 204.62 214.481 204.62H198.833V204.628L198.828 204.62H183.18C183.18 204.62 180.908 222.231 179.015 235.324C176.841 250.367 171.633 270.69 171.633 270.69H198.828L198.833 270.681V270.69H226.029ZM197.697 255.606C193.724 255.606 190.504 252.425 190.504 248.501V225.688C190.504 221.763 193.724 218.582 197.697 218.582H198.833C202.806 218.582 206.026 221.763 206.026 225.688V248.501C206.026 252.425 202.806 255.606 198.833 255.606H197.697Z" fill="url(#paint1_linear)"/>
<path fill-rule="evenodd" clip-rule="evenodd" d="M298.664 198.145V75.0563C298.664 71.5167 295.788 68.6469 292.24 68.6469H148.674C146.966 71.8692 144.398 74.5874 140.131 76.3031C126.881 81.6293 115.55 81.2452 101.678 81.6582V198.145H298.664Z" fill="white"/>
<path fill-rule="evenodd" clip-rule="evenodd" d="M298.664 75.0563C298.664 71.5167 295.788 68.6469 292.24 68.6469H274.791L273.929 70.5024C275.313 75.2901 274.298 79.3411 267.346 81.4588C257.298 84.5198 239.18 81.7581 235.42 93.5507C232.836 101.653 236.465 109.571 239.91 113.254C243.355 116.937 247.537 124.057 239.172 125.776C230.806 127.495 220.223 123.597 212.844 122.953C201.586 121.97 186.392 121.663 179.317 132.528C174.084 140.565 178.087 148.241 183.962 149.316C188.442 150.135 193.22 148.027 195.035 143.792C196.708 139.887 194.699 136.469 191.806 135.874C188.822 135.26 186 137.284 185.408 139.158C184.854 140.907 185.888 141.832 187.007 141.736C188.791 141.582 189.56 140.017 190.267 140.753C191.172 141.696 189.821 144.022 187.192 144.498C185.209 144.857 182.716 144.39 182.147 140.815C181.614 137.462 183.316 134.4 187.253 132.651C190.906 131.028 195.25 131.791 197.957 135.597C200.664 139.403 199.833 146.001 196.234 149.285C190.863 154.187 184.229 154.802 173.966 157.203C160.858 160.27 140.87 165.152 137.917 180.405C136.173 189.414 140.507 194.965 144.704 198.144H298.664V75.0563H298.664Z" fill="url(#paint2_linear)"/>
<path fill-rule="evenodd" clip-rule="evenodd" d="M222.44 186.053C230.686 184.212 245.816 180.713 250.122 167.178C254.091 154.703 243.754 152.917 244.586 142.718C245.323 133.664 262.486 130.154 279.034 126.636C295.78 123.076 293.06 115.096 292.076 111.168C292.076 111.168 289.81 100.583 298.664 96.8098V76.9701L296.997 76.2111C296.628 78.7894 287.696 88.0513 278.277 88.3758C268.823 88.7022 255.474 85.8786 248.738 94.7174C243.39 101.734 248.277 109.51 251.321 113.408C253.377 116.039 256.541 125.593 247.446 128.047C236.188 131.086 225.932 127.109 218.656 125.746C209.644 124.058 202.877 126.881 201.678 130.442C199.648 136.464 207.999 137.94 207.491 146.001C207.06 152.845 195.467 158.784 178.978 161.193C160.493 163.894 153.491 170.772 153.234 178.994C152.988 186.851 158.678 190.656 165.598 191.301C172.225 191.918 180.792 190.431 181.265 198.145H206.634C204.187 187.051 215.508 187.601 222.44 186.053Z" fill="url(#paint3_linear)"/>
<path fill-rule="evenodd" clip-rule="evenodd" d="M260.457 150.574C257.412 157.786 267.562 159.536 265.501 173.285C263.668 185.51 242.74 183.843 235.974 187.894C231.94 190.31 231.447 194.861 231.708 198.145H298.664V142.616C291.052 147.32 264.366 141.314 260.457 150.574Z" fill="url(#paint4_linear)"/>
<path fill-rule="evenodd" clip-rule="evenodd" d="M292.076 111.168C293.061 115.096 295.78 123.076 279.034 126.636C262.486 130.155 245.323 133.664 244.586 142.718C243.754 152.917 254.091 154.702 250.122 167.178C245.816 180.713 230.686 184.212 222.44 186.053C215.508 187.601 204.187 187.051 206.634 198.145H231.708C231.448 194.861 231.94 190.31 235.974 187.894C242.74 183.843 263.668 185.51 265.501 173.286C267.561 159.536 257.412 157.787 260.457 150.575C264.366 141.315 291.052 147.321 298.664 142.616V96.8104C289.81 100.583 292.076 111.168 292.076 111.168Z" fill="url(#paint5_linear)"/>
<path fill-rule="evenodd" clip-rule="evenodd" d="M282.418 96.7429C280.018 99.3212 275.897 100.303 271.837 100.855C267.777 101.408 260.518 102.144 257.042 108.344C253.586 114.51 256.822 123.773 264.055 124.364C273.806 125.162 276.328 116.324 278.912 113.592C281.264 111.105 286.478 109.817 286.57 105.858C286.663 101.899 282.418 96.7429 282.418 96.7429Z" fill="url(#paint6_linear)"/>
<path fill-rule="evenodd" clip-rule="evenodd" d="M203.862 173.04C209.544 174.157 218.626 172.955 221.578 169.112C224.408 165.428 222.809 161.009 225.269 158.677C227.729 156.344 237.643 149.572 239.54 145.786C241.263 142.349 239.91 137.93 235.973 136.579C232.161 135.272 228.837 136.948 227.114 140.385C225.392 143.823 223.793 148.978 217.149 152.784C211.603 155.96 199.113 159.367 197.341 165.06C195.926 169.603 199.802 172.242 203.862 173.04Z" fill="url(#paint7_linear)"/>
<path fill-rule="evenodd" clip-rule="evenodd" d="M292.393 72.33C293.401 72.33 294.222 72.9589 294.222 73.7321V198.206H300.947V73.7317C300.947 70.1101 297.117 67.1738 292.393 67.1738H103.691C102.619 69.0563 101.246 70.8041 99.3817 72.33H292.393Z" fill="#93778B"/>
<path fill-rule="evenodd" clip-rule="evenodd" d="M104.562 198.206V67.3582C102.877 67.405 101.157 67.4579 99.3949 67.5304V198.206H104.562Z" fill="#93778B"/>
<path fill-rule="evenodd" clip-rule="evenodd" d="M99.3949 197.223V204.17C99.3949 207.791 102.338 210.728 105.968 210.728H294.375C298.004 210.728 300.947 207.791 300.947 204.17V197.223H99.3949Z" fill="url(#paint8_linear)"/>
<path fill-rule="evenodd" clip-rule="evenodd" d="M175.564 130.606C175.564 131.419 174.904 132.079 174.088 132.079H117.063C116.248 132.079 115.586 131.419 115.586 130.606V108.14C115.586 107.326 116.247 106.667 117.063 106.667H174.088C174.903 106.667 175.564 107.326 175.564 108.14V130.606Z" fill="#E3DDE4"/>
<path d="M174.088 132.631H117.062C115.943 132.631 115.032 131.723 115.032 130.606V108.14C115.032 107.023 115.943 106.114 117.062 106.114H174.088C175.207 106.114 176.118 107.023 176.118 108.14V130.606C176.118 131.723 175.207 132.631 174.088 132.631ZM117.062 107.219C116.554 107.219 116.14 107.632 116.14 108.14V130.606C116.14 131.113 116.553 131.526 117.062 131.526H174.088C174.597 131.526 175.011 131.113 175.011 130.606V108.14C175.011 107.632 174.597 107.219 174.088 107.219H117.062Z" fill="#B5A8AE"/>
<path fill-rule="evenodd" clip-rule="evenodd" d="M121.722 114.171H169.335C169.768 114.171 170.12 113.821 170.12 113.388C170.12 112.956 169.768 112.606 169.335 112.606H121.722C121.289 112.606 120.938 112.956 120.938 113.388C120.938 113.821 121.289 114.171 121.722 114.171ZM121.722 120.156H130.319H133.087H144.729C145.162 120.156 145.513 119.806 145.513 119.373C145.513 118.941 145.162 118.59 144.729 118.59H133.087H130.319H121.722C121.289 118.59 120.938 118.941 120.938 119.373C120.938 119.806 121.289 120.156 121.722 120.156ZM169.335 118.591H163.599H162.922H160.169C159.736 118.591 159.385 118.941 159.385 119.373C159.385 119.806 159.736 120.156 160.169 120.156H162.922H163.599H169.335C169.768 120.156 170.12 119.806 170.12 119.373C170.12 118.941 169.768 118.591 169.335 118.591ZM155.97 119.373C155.97 118.941 155.62 118.591 155.186 118.591H154.125H152.218H149.773C149.34 118.591 148.989 118.941 148.989 119.373C148.989 119.806 149.34 120.156 149.773 120.156H152.218H154.125H155.186C155.62 120.156 155.97 119.806 155.97 119.373ZM160.662 124.575H159.6H157.694H155.248C154.816 124.575 154.464 124.926 154.464 125.358C154.464 125.791 154.816 126.141 155.248 126.141H157.694H159.6H160.662C161.095 126.141 161.446 125.791 161.446 125.358C161.446 124.926 161.095 124.575 160.662 124.575ZM149.542 124.575H136.301H125.782H121.722C121.289 124.575 120.938 124.926 120.938 125.358C120.938 125.791 121.289 126.141 121.722 126.141H125.782H136.301H149.542C149.976 126.141 150.327 125.791 150.327 125.358C150.327 124.926 149.976 124.575 149.542 124.575Z" fill="white"/>
<path fill-rule="evenodd" clip-rule="evenodd" d="M170.115 92.4641L170.642 93.2433L149.442 106.995L148.916 106.215L170.115 92.4641Z" fill="#B5A8AE"/>
<path fill-rule="evenodd" clip-rule="evenodd" d="M132.555 174.196L131.713 173.479L152.995 148.624L132.773 132.531L133.464 131.667L154.58 148.474L132.555 174.196Z" fill="#B5A8AE"/>
<path d="M221.701 178.442H143.453V179.546H221.701V178.442Z" fill="#93778B"/>
<path fill-rule="evenodd" clip-rule="evenodd" d="M149.728 179.363C149.728 182.007 147.579 184.15 144.929 184.15H120.384C117.734 184.15 115.586 182.007 115.586 179.363V178.626C115.586 175.982 117.735 173.838 120.384 173.838H144.929C147.58 173.838 149.728 175.982 149.728 178.626V179.363Z" fill="#BE4118"/>
<path d="M144.929 184.702H120.384C117.433 184.702 115.032 182.307 115.032 179.362V178.626C115.032 175.681 117.434 173.285 120.384 173.285H144.929C147.88 173.285 150.281 175.681 150.281 178.626V179.362C150.282 182.307 147.88 184.702 144.929 184.702ZM120.384 174.39C118.044 174.39 116.14 176.29 116.14 178.626V179.362C116.14 181.698 118.044 183.597 120.384 183.597H144.929C147.27 183.597 149.174 181.698 149.174 179.362V178.626C149.174 176.29 147.269 174.39 144.929 174.39H120.384Z" fill="#B5A8AE"/>
<path fill-rule="evenodd" clip-rule="evenodd" d="M198.079 179.363C198.079 182.007 195.931 184.15 193.281 184.15H168.736C166.086 184.15 163.938 182.007 163.938 179.363V178.626C163.938 175.982 166.086 173.838 168.736 173.838H193.281C195.931 173.838 198.079 175.982 198.079 178.626V179.363Z" fill="#5C60D5"/>
<path d="M193.281 184.702H168.736C165.785 184.702 163.384 182.307 163.384 179.362V178.626C163.384 175.681 165.786 173.285 168.736 173.285H193.281C196.232 173.285 198.633 175.681 198.633 178.626V179.362C198.633 182.307 196.232 184.702 193.281 184.702ZM168.736 174.39C166.395 174.39 164.492 176.29 164.492 178.626V179.362C164.492 181.698 166.396 183.597 168.736 183.597H193.281C195.621 183.597 197.525 181.698 197.525 179.362V178.626C197.525 176.29 195.621 174.39 193.281 174.39H168.736Z" fill="#93778B"/>
<path d="M153.787 153.828C156.709 153.828 159.078 151.465 159.078 148.549C159.078 145.633 156.709 143.27 153.787 143.27C150.865 143.27 148.497 145.633 148.497 148.549C148.497 151.465 150.865 153.828 153.787 153.828Z" fill="#B5A8AE"/>
<path d="M153.787 150.867C155.07 150.867 156.11 149.829 156.11 148.549C156.11 147.269 155.07 146.231 153.787 146.231C152.505 146.231 151.465 147.269 151.465 148.549C151.465 149.829 152.505 150.867 153.787 150.867Z" fill="white"/>
<path fill-rule="evenodd" clip-rule="evenodd" d="M189.159 88.0368C189.159 91.0813 186.685 93.5491 183.634 93.5491H155.374C152.323 93.5491 149.85 91.0808 149.85 88.0368V87.1888C149.85 84.1443 152.324 81.6764 155.374 81.6764H183.634C186.686 81.6764 189.159 84.1443 189.159 87.1888V88.0368Z" fill="#5C60D5"/>
<path d="M183.634 94.1014H155.374C152.023 94.1014 149.297 91.3805 149.297 88.0367V87.1887C149.297 83.8444 152.024 81.124 155.374 81.124H183.634C186.986 81.124 189.712 83.8449 189.712 87.1887V88.0367C189.712 91.381 186.986 94.1014 183.634 94.1014ZM155.374 82.2286C152.634 82.2286 150.404 84.4536 150.404 87.1887V88.0367C150.404 90.7718 152.634 92.9967 155.374 92.9967H183.634C186.376 92.9967 188.605 90.7718 188.605 88.0367V87.1887C188.605 84.4536 186.376 82.2286 183.634 82.2286H155.374Z" fill="#B5A8AE"/>
<path fill-rule="evenodd" clip-rule="evenodd" d="M256.467 274.461C203.777 256.12 145.588 270.224 121.651 279.558C136.297 287.793 170.982 286.922 184.087 295.846C189.986 299.863 193.453 306.237 195.943 313.374C208.741 317.257 221.148 321.46 231.082 325.198C256.857 334.896 337.024 316.857 354.93 312.626V290.452C336.7 294.562 314.353 294.611 256.467 274.461Z" fill="url(#paint9_linear)"/>
<path fill-rule="evenodd" clip-rule="evenodd" d="M310.136 344.058C312.859 348.446 310.21 353.147 301.084 357.064C293.392 360.366 289.486 366.118 294.606 370.399C294.737 370.509 294.876 370.618 295.019 370.725C295.049 370.748 295.08 370.77 295.111 370.793C295.234 370.883 295.36 370.973 295.491 371.061C295.526 371.085 295.56 371.108 295.595 371.132C295.742 371.229 295.895 371.326 296.053 371.422C296.07 371.432 296.086 371.442 296.102 371.452C296.461 371.667 296.848 371.876 297.262 372.08C297.307 372.102 297.354 372.124 297.399 372.146C297.562 372.224 297.729 372.301 297.899 372.378C297.954 372.403 298.008 372.427 298.064 372.452C298.245 372.531 298.432 372.609 298.623 372.686C298.664 372.704 298.705 372.721 298.747 372.737C298.987 372.833 299.233 372.927 299.487 373.019C299.492 373.021 299.496 373.022 299.5 373.024C299.74 373.111 299.988 373.195 300.242 373.279C300.311 373.302 300.383 373.325 300.454 373.348C300.649 373.411 300.848 373.473 301.052 373.534C301.135 373.559 301.219 373.584 301.303 373.609C301.513 373.67 301.727 373.73 301.944 373.789C302.019 373.81 302.092 373.83 302.167 373.85C302.462 373.928 302.762 374.005 303.072 374.08C303.084 374.083 303.097 374.086 303.109 374.088C303.402 374.158 303.703 374.226 304.009 374.293C304.107 374.315 304.206 374.335 304.306 374.356C304.534 374.404 304.766 374.451 305.002 374.498C305.116 374.52 305.232 374.543 305.349 374.565C305.589 374.61 305.833 374.654 306.08 374.698C306.187 374.717 306.293 374.736 306.401 374.754C306.756 374.814 307.117 374.873 307.487 374.929C308.068 375.017 308.658 375.096 309.251 375.171C309.418 375.192 309.585 375.212 309.753 375.232C310.229 375.29 310.709 375.344 311.192 375.393C311.327 375.407 311.461 375.423 311.597 375.436C312.199 375.496 312.807 375.55 313.419 375.6C313.561 375.611 313.704 375.621 313.845 375.632C314.34 375.67 314.838 375.705 315.339 375.737C315.516 375.748 315.693 375.759 315.871 375.77C316.489 375.807 317.111 375.84 317.737 375.868C317.749 375.869 317.76 375.869 317.772 375.87C318.409 375.898 319.051 375.921 319.695 375.942C319.882 375.948 320.069 375.953 320.255 375.958C320.764 375.973 321.274 375.985 321.785 375.995C321.94 375.998 322.094 376.002 322.249 376.005C322.891 376.016 323.534 376.024 324.18 376.029C324.346 376.03 324.512 376.03 324.678 376.032C325.183 376.034 325.688 376.036 326.195 376.035C326.4 376.035 326.604 376.035 326.809 376.035C327.411 376.033 328.014 376.03 328.618 376.025C328.71 376.024 328.803 376.023 328.896 376.022C329.503 376.016 330.11 376.008 330.717 375.999C330.953 375.995 331.188 375.991 331.424 375.988C331.766 375.982 332.109 375.976 332.451 375.969C358.587 374.831 406.343 361.405 415.78 327.317C415.782 327.316 415.784 327.316 415.787 327.316C415.797 327.27 415.807 327.224 415.817 327.178C415.912 326.722 416.013 326.265 416.121 325.808C416.2 325.475 416.279 325.141 416.364 324.807C416.416 324.603 416.469 324.401 416.524 324.197C416.667 323.659 416.816 323.12 416.979 322.58C417.138 322.052 417.318 321.526 417.508 321.002C417.562 320.854 417.617 320.706 417.673 320.558C417.834 320.133 418.004 319.71 418.183 319.287C418.228 319.18 418.27 319.072 418.316 318.966C418.51 318.519 418.712 318.075 418.924 317.63L418.93 317.633C422.606 309.956 429.033 302.462 435 293.853C417.283 293.129 391.908 285.345 371.382 284.222C371.37 284.22 371.357 284.22 371.344 284.219C371.326 284.218 371.309 284.216 371.291 284.215C367.567 283.968 363.59 283.843 359.37 283.883C326.547 284.196 297.699 299.031 287.113 299.268C271.779 299.611 248.687 291.509 222.709 290.465C202.5 289.652 189.28 291.847 180.491 294.745C203.944 305.978 195.233 339.149 218.285 344.897C239.601 350.213 278.029 339.662 287.176 338.416C298.104 336.927 306.786 338.659 310.136 344.058Z" fill="url(#paint10_linear)"/>
<path fill-rule="evenodd" clip-rule="evenodd" d="M227.123 309.662C241.956 308.224 255.51 314.637 265.163 314.183C273.893 313.772 285.405 305.135 293.835 304.457C301.5 303.84 308.11 305.964 308.029 312.813C307.959 318.84 299.655 319.525 294.261 319.388C288.867 319.251 274.592 317.685 270.273 318.703C263.886 320.21 264.21 325.32 258.208 327.881C251.466 330.758 236.775 330.621 224.852 327.607C212.929 324.593 205.271 321.592 205.55 320.21C205.83 318.827 210.871 311.237 227.123 309.662Z" fill="url(#paint11_linear)"/>
<path fill-rule="evenodd" clip-rule="evenodd" d="M334.775 157.135C336.398 158.687 337.978 160.278 339.531 161.892C341.093 163.499 342.599 165.155 344.164 166.76C345.728 168.365 347.315 169.949 348.715 171.698C349.067 172.133 349.41 172.577 349.747 173.026C350.076 173.48 350.424 173.92 350.708 174.415C350.996 174.906 351.238 175.439 351.43 176.014C351.615 176.596 351.756 177.217 351.767 177.951C351.037 177.847 350.436 177.63 349.879 177.374C349.33 177.112 348.829 176.807 348.375 176.46C347.918 176.117 347.524 175.719 347.111 175.337C346.707 174.948 346.307 174.554 345.917 174.152C344.35 172.55 342.971 170.783 341.567 169.038C340.164 167.291 338.703 165.597 337.297 163.853C335.883 162.116 334.496 160.356 333.153 158.558C332.795 158.079 332.894 157.403 333.375 157.047C333.806 156.727 334.399 156.775 334.775 157.135Z" fill="#EA971D"/>
<path fill-rule="evenodd" clip-rule="evenodd" d="M347.737 176.293C347.734 176.293 347.732 176.293 347.729 176.293C347.523 176.289 347.357 176.128 347.357 175.922C347.357 175.535 347.697 174.816 348.267 174.286C348.86 173.733 349.599 173.47 350.404 173.521C350.613 173.535 350.771 173.715 350.757 173.923C350.744 174.131 350.565 174.289 350.354 174.275C349.77 174.237 349.255 174.415 348.82 174.806C348.346 175.23 348.121 175.785 348.116 175.924C348.108 176.127 347.94 176.293 347.737 176.293ZM336.538 158.863C335.954 158.284 335.37 157.704 334.775 157.135C334.399 156.775 333.806 156.727 333.375 157.047C332.894 157.403 332.794 158.08 333.152 158.559C333.656 159.233 334.172 159.898 334.688 160.563C334.992 159.901 335.529 159.18 336.538 158.863ZM351.617 176.719L350.66 177.684C351 177.799 351.362 177.893 351.767 177.95C351.76 177.502 351.702 177.1 351.617 176.719Z" fill="#BE4118"/>
<path fill-rule="evenodd" clip-rule="evenodd" d="M309.205 290.165C310.453 292.818 317.069 309.391 316.695 310.654C316.321 311.917 299.802 317.723 296.379 316.439C295.933 316.272 296.014 315.195 296.717 314.803C298.511 313.802 307.329 308.289 308.11 306.605C308.827 305.061 301.877 294.065 301.996 293.998C302.375 293.787 309.205 290.165 309.205 290.165Z" fill="#EAAEA4"/>
<path fill-rule="evenodd" clip-rule="evenodd" d="M315.985 307.679C315.321 305.634 314.283 302.813 313.208 300.017C310.88 302.099 308.298 302.519 306.774 302.579C307.717 304.476 308.353 306.082 308.11 306.604C307.797 307.28 306.19 308.572 304.263 309.941C306.863 310.154 311.822 310.56 311.922 310.56C311.997 310.56 314.099 309.047 315.985 307.679Z" fill="white"/>
<path fill-rule="evenodd" clip-rule="evenodd" d="M296.38 316.439C299.803 317.722 316.321 311.916 316.695 310.653C316.801 310.294 316.343 308.699 315.604 306.54C314.425 307.218 313.198 308.751 312.334 309.159C311.147 309.719 310.083 309.657 308.121 309.284C307.149 309.1 306.428 308.918 305.776 308.829C302.811 311.103 297.992 314.091 296.718 314.802C296.014 315.195 295.933 316.271 296.38 316.439Z" fill="#5B252C"/>
<path fill-rule="evenodd" clip-rule="evenodd" d="M276 233.414C276.122 236.4 280.259 262.033 281.962 271.986C283.665 281.94 287.102 298.8 288.015 299.081C288.927 299.36 293.855 299.64 302.706 297.774C311.557 295.907 318.036 292.267 318.128 291.895C318.219 291.521 308.854 269.809 304.172 257.299C299.49 244.787 296.592 233.849 296.592 233.849L276 233.414Z" fill="url(#paint12_linear)"/>
<path fill-rule="evenodd" clip-rule="evenodd" d="M285.817 290.688C285.711 290.688 285.613 290.686 285.521 290.682L285.55 289.937C289.099 290.076 305.568 287.135 314.14 282.153L314.501 282.801C305.879 287.812 290.033 290.688 285.817 290.688Z" fill="#5B252C"/>
<path d="M286.501 293.637C286.391 293.637 286.287 293.636 286.192 293.631L286.22 292.885C286.965 292.914 288.217 292.818 289.803 292.608L289.896 293.35C288.465 293.538 287.291 293.637 286.501 293.637ZM293.524 292.778L293.399 292.043C294.554 291.836 295.758 291.598 296.975 291.337L297.125 292.068C295.899 292.33 294.688 292.569 293.524 292.778ZM300.7 291.241L300.528 290.516C301.723 290.219 302.909 289.904 304.052 289.577L304.248 290.297C303.096 290.625 301.903 290.942 300.7 291.241ZM307.761 289.219L307.537 288.509C308.75 288.109 309.903 287.693 310.964 287.276L311.226 287.973C310.152 288.395 308.986 288.815 307.761 289.219ZM314.611 286.487L314.293 285.815C314.711 285.609 315.113 285.399 315.491 285.19L315.838 285.847C315.451 286.061 315.038 286.276 314.611 286.487Z" fill="#EA971D"/>
<path fill-rule="evenodd" clip-rule="evenodd" d="M296.46 288.728C296.284 288.092 295.656 286.008 294.788 283.123C291.124 270.946 282.54 242.431 281.055 233.592L281.774 233.466C283.252 242.257 291.825 270.74 295.486 282.904C296.389 285.901 296.985 287.881 297.162 288.526L296.46 288.728Z" fill="#5B252C"/>
<path fill-rule="evenodd" clip-rule="evenodd" d="M261.276 299.947C260.996 302.976 257.731 321.241 256.705 322.158C255.679 323.076 233.76 321.975 233.76 320.506C233.76 319.038 235.253 319.038 237.398 318.578C239.543 318.119 249.673 315.408 250.86 314.081C252.047 312.755 252.28 299.444 252.139 299.407C251.999 299.368 261.276 299.947 261.276 299.947Z" fill="#EAAEA4"/>
<path fill-rule="evenodd" clip-rule="evenodd" d="M251.83 308.786V308.787C251.622 311.355 251.31 313.578 250.86 314.081C250.325 314.68 247.969 315.559 245.349 316.387L246.446 317.844L251.295 320.322L257.595 319.602C258.195 317.265 258.932 313.67 259.591 310.161C254.335 310.283 253.036 309.37 251.83 308.786Z" fill="white"/>
<path fill-rule="evenodd" clip-rule="evenodd" d="M233.761 320.506C233.761 321.975 255.68 323.076 256.705 322.158C257 321.895 257.478 320.205 258.017 317.858C256.282 317.984 254.655 319.19 252.415 319.19C250.165 319.19 248.208 317.204 246.78 315.921C243.316 317.094 238.757 318.288 237.399 318.578C235.253 319.038 233.761 319.038 233.761 320.506Z" fill="#5B252C"/>
<path fill-rule="evenodd" clip-rule="evenodd" d="M253.534 237.076C252.045 239.897 241.316 268.099 238.611 277.46C235.906 286.822 233.761 295.542 234.32 296.275C234.88 297.01 240.103 299.672 248.591 300.956C257.078 302.241 267.83 303.32 269.123 302.78C270.416 302.241 272.127 279.174 274.614 265.101C277.101 251.028 281.205 237.199 281.205 237.199L253.534 237.076Z" fill="url(#paint13_linear)"/>
<path fill-rule="evenodd" clip-rule="evenodd" d="M270.561 292.884C253.496 292.884 239.273 287.422 236.264 285.518L236.667 284.901C239.655 286.791 253.903 292.238 270.998 292.149L271.002 292.882C270.855 292.884 270.708 292.884 270.561 292.884Z" fill="#5B252C"/>
<path fill-rule="evenodd" clip-rule="evenodd" d="M237.012 290.224C236.257 289.914 235.675 289.63 235.284 289.383L235.688 288.766C236.037 288.986 236.594 289.257 237.3 289.547L237.012 290.224Z" fill="#EA971D"/>
<path d="M265.098 296.016C263.925 295.93 262.72 295.823 261.517 295.694L261.598 294.964C262.792 295.091 263.989 295.199 265.153 295.284L265.098 296.016ZM257.948 295.256C256.772 295.094 255.577 294.91 254.397 294.711L254.523 293.987C255.695 294.185 256.883 294.367 258.053 294.529L257.948 295.256ZM250.863 294.06C249.675 293.823 248.493 293.569 247.351 293.304L247.522 292.59C248.657 292.853 249.831 293.106 251.012 293.341L250.863 294.06ZM243.863 292.435C242.641 292.108 241.479 291.771 240.409 291.433L240.637 290.733C241.697 291.069 242.848 291.403 244.058 291.728L243.863 292.435Z" fill="#EA971D"/>
<path fill-rule="evenodd" clip-rule="evenodd" d="M270.562 296.265C269.937 296.255 269.313 296.238 268.689 296.215L268.717 295.481C269.335 295.505 269.955 295.522 270.575 295.531L270.562 296.265Z" fill="#EA971D"/>
<path fill-rule="evenodd" clip-rule="evenodd" d="M250.347 290.037L249.605 289.956C250.138 285.211 257.363 245.133 264.062 236.895L264.645 237.354C258.168 245.321 250.857 285.503 250.347 290.037Z" fill="#5B252C"/>
<path fill-rule="evenodd" clip-rule="evenodd" d="M294.371 155.944C294.061 157.725 292.822 163.5 290.84 166.019C288.858 168.538 302.858 166.941 302.858 166.941C302.858 166.941 302.56 159.764 302.92 154.899C302.922 153.415 301.371 152.564 299.11 152.857C296.621 153.179 294.371 155.944 294.371 155.944Z" fill="#E08C7C"/>
<path fill-rule="evenodd" clip-rule="evenodd" d="M294.015 137.359C292.877 138.257 291.761 140.101 290.716 142.013C289.936 143.439 289.578 143.971 287.789 145.192C286.388 146.149 285.482 146.474 285.419 147.174C285.357 147.865 287.092 148.648 287.139 149.247C287.185 149.847 285.836 155.394 288.208 157.587C289.818 159.077 295.363 159.231 300.269 155.483C304.668 152.123 307.954 143.856 306.374 139.663C304.794 135.47 294.015 137.359 294.015 137.359Z" fill="#EAAEA4"/>
<path fill-rule="evenodd" clip-rule="evenodd" d="M297.407 125.517C298.77 125.963 299.234 128.113 298.94 129.111C298.637 130.137 297.97 131.676 301.263 132.383C304.193 133.012 313.9 135.101 314.69 144.04C315.614 154.5 303.168 158.923 301.077 156.205C297.984 152.185 297.969 147.097 299.125 145.239C299.916 143.966 302.738 143.748 302.47 142.013C302.083 139.51 296.709 139.882 293.177 138.183C289.646 136.484 288.485 133.12 288.996 130.08C289.59 126.545 293.685 124.301 297.407 125.517Z" fill="url(#paint14_linear)"/>
<path fill-rule="evenodd" clip-rule="evenodd" d="M321.084 144.799C321.82 147.6 320.519 150.563 318.143 151.028C315.624 151.521 313.365 149.692 312.524 146.654C311.751 143.862 312.585 140.826 315.337 140.193C317.984 139.585 320.349 141.998 321.084 144.799Z" fill="url(#paint15_linear)"/>
<path fill-rule="evenodd" clip-rule="evenodd" d="M329.877 138.542C331.349 141.663 330.207 144.792 327.242 145.968C323.468 147.465 320.253 145.574 318.781 142.453C317.309 139.332 318.581 135.268 321.555 134.109C324.529 132.952 328.405 135.421 329.877 138.542Z" fill="url(#paint16_linear)"/>
<path fill-rule="evenodd" clip-rule="evenodd" d="M334.5 131.821C336.296 133.85 335.793 136.881 333.735 138.385C331.676 139.889 328.552 139.463 326.756 137.434C324.96 135.405 324.864 132.788 326.923 131.284C328.981 129.78 332.704 129.792 334.5 131.821Z" fill="url(#paint17_linear)"/>
<path fill-rule="evenodd" clip-rule="evenodd" d="M331.708 123.074C332.282 121.336 334.125 120.303 335.824 120.766C337.524 121.229 338.437 123.013 337.864 124.75C337.29 126.487 335.449 127.521 333.748 127.058C332.049 126.595 331.135 124.811 331.708 123.074Z" fill="url(#paint18_linear)"/>
<path fill-rule="evenodd" clip-rule="evenodd" d="M308.257 138.579C308.198 140.188 307.797 141.759 307.119 143.211C306.443 144.665 305.501 146.003 304.396 147.202C303.843 147.802 303.249 148.368 302.624 148.895C302.312 149.158 301.992 149.412 301.666 149.653C301.504 149.773 301.34 149.89 301.176 150.002C301.017 150.11 300.837 150.229 300.71 150.302L302.687 153.124C302.927 152.95 303.103 152.807 303.296 152.648C303.484 152.492 303.666 152.335 303.845 152.175C304.202 151.856 304.546 151.528 304.879 151.19C305.543 150.515 306.164 149.803 306.736 149.052C307.878 147.553 308.83 145.895 309.462 144.111C310.098 142.331 310.393 140.423 310.281 138.553C310.227 137.597 310.068 136.656 309.825 135.744C309.148 135.314 308.449 134.946 307.756 134.629C308.125 135.931 308.308 137.264 308.257 138.579Z" fill="url(#paint19_linear)"/>
<path d="M301.699 156.348C304.327 156.348 306.457 154.273 306.457 151.713C306.457 149.153 304.327 147.078 301.699 147.078C299.071 147.078 296.941 149.153 296.941 151.713C296.941 154.273 299.071 156.348 301.699 156.348Z" fill="#BE4118"/>
<path d="M301.699 153.768C302.864 153.768 303.809 152.848 303.809 151.713C303.809 150.578 302.864 149.658 301.699 149.658C300.534 149.658 299.59 150.578 299.59 151.713C299.59 152.848 300.534 153.768 301.699 153.768Z" fill="#EA971D"/>
<path fill-rule="evenodd" clip-rule="evenodd" d="M323.338 193.079C324.661 191.932 326.121 185.987 327.049 179.367C327.648 175.097 328.052 172.205 328.875 170.623C329.68 169.074 331.826 167.718 332.692 167.069C333.855 166.197 335.612 164.192 336.205 164.569C336.798 164.947 336.113 166.881 335.429 167.777C334.744 168.674 333.786 169.994 333.786 169.994C333.786 169.994 337.026 169.57 338.896 169.57C340.767 169.57 345.747 168.964 346.014 170.278C346.212 171.253 344.006 171.599 343.185 171.929C342.364 172.259 341.634 172.385 341.497 173.989C341.36 175.593 340.842 177.476 339.702 177.618C338.561 177.759 333.056 177.401 333.056 177.401C333.056 177.401 333.071 189.054 331.915 196.036C330.759 203.018 329.299 205.156 329.299 205.156L323.338 193.079Z" fill="url(#paint20_linear)"/>
<path fill-rule="evenodd" clip-rule="evenodd" d="M320.874 193.252C321.164 192.852 323.201 192.026 323.658 192.356C324.114 192.686 329.422 198.332 330.501 204.811C331.667 211.809 330.547 215.126 329.634 215.33C328.531 215.578 319.334 214.953 315.815 209.811C312.296 204.669 320.874 193.252 320.874 193.252Z" fill="url(#paint21_linear)"/>
<path fill-rule="evenodd" clip-rule="evenodd" d="M308.373 177.731C310.38 178.958 318.017 186.04 320.783 191.978C323.748 198.347 323.637 207.431 319.87 209.812C315.764 212.406 311.84 206.132 309.832 201.886C307.825 197.64 304.966 192.954 303.871 190.972C302.776 188.991 306.182 179.524 306.182 179.524L308.373 177.731Z" fill="url(#paint22_linear)"/>
<path fill-rule="evenodd" clip-rule="evenodd" d="M286.836 168.239C290.186 166.165 307.909 165.116 308.615 167.507C309.174 169.399 305.574 170.131 304.83 173.548C304.085 176.966 286.836 168.239 286.836 168.239Z" fill="url(#paint23_linear)"/>
<path fill-rule="evenodd" clip-rule="evenodd" d="M278.584 170.253C280.816 168.542 285.563 166.989 289.38 168.178C293.196 169.368 297.321 171.931 299.623 172.206C301.926 172.481 305.12 172.628 305.12 172.628C305.12 172.628 310.972 175.501 311.345 176.782C311.717 178.064 310.408 185.131 306.319 192.8C301.926 201.038 302.403 204.657 302.782 210.1C303.142 215.266 307.901 230.786 307.249 233.166C306.598 235.546 297.756 238.841 278.304 239.116C258.852 239.391 244.426 237.285 244.426 235.455C244.426 233.624 250.675 214.687 251.807 213.595C252.71 212.724 253.268 213.487 253.64 212.984C254.013 212.48 258.759 202.228 262.575 195.821C266.391 189.414 275.916 172.298 278.584 170.253Z" fill="url(#paint24_linear)"/>
<path fill-rule="evenodd" clip-rule="evenodd" d="M270.905 222.32C273.806 221.298 274.55 216.326 273.811 216.378C269.866 216.66 256.712 214.952 253.475 213.125C253.108 213.307 252.585 212.844 251.806 213.595C251.266 214.117 249.555 218.717 247.917 223.577C252.996 223.685 267.734 223.437 270.905 222.32Z" fill="url(#paint25_linear)"/>
<path fill-rule="evenodd" clip-rule="evenodd" d="M289.132 190.39C289.85 191.279 292.312 189.551 293.242 189.186C294.173 188.819 297.357 187.813 297.338 186.714C297.314 185.387 294.371 185.091 292.219 186.028C289.798 187.08 288.379 189.46 289.132 190.39Z" fill="#BE4118"/>
<path fill-rule="evenodd" clip-rule="evenodd" d="M311.345 176.783C311.032 175.709 306.874 173.518 305.534 172.836C306.008 173.549 306.753 174.769 304.892 175.562C303.03 176.356 295.336 177.454 295.771 180.444C296.205 183.434 301.107 180.505 302.286 182.092C303.465 183.678 297.818 187.767 300.052 189.354C302.286 190.94 303.899 185.692 305.823 185.936C307.284 186.122 307.67 188.069 307.799 189.797C310.724 183.36 311.668 177.894 311.345 176.783Z" fill="url(#paint26_linear)"/>
<path fill-rule="evenodd" clip-rule="evenodd" d="M302.473 230.725C299.743 230.176 297.757 232.251 296.702 231.641C295.647 231.032 300.673 226.82 298.315 225.234C295.957 223.647 292.979 229.444 292.359 229.383C291.738 229.321 294.902 221.756 295.337 219.192C295.772 216.629 296.268 210.893 293.724 210.466C291.18 210.039 288.76 214.677 287.644 216.813C286.526 218.949 285.348 225.967 284.727 226.21C284.106 226.454 283.858 216.751 283.734 215.349C283.61 213.945 283.361 212.332 281.625 212.297C280.104 212.267 279.391 214.067 279.205 215.775C279.019 217.484 280.569 230.42 278.956 230.665C277.343 230.909 275.668 225.295 274.303 226.089C272.938 226.882 273.806 229.994 274.551 232.312C275.122 234.093 276.825 237.15 277.727 239.122C277.92 239.12 278.11 239.119 278.304 239.116C294.596 238.886 303.441 236.537 306.269 234.381C305.5 232.978 304.165 231.066 302.473 230.725Z" fill="url(#paint27_linear)"/>
<path fill-rule="evenodd" clip-rule="evenodd" d="M299.153 222.457C300.083 222.96 301.433 221.313 302.317 219.94C303.201 218.567 304.132 216.234 303.061 215.638C301.991 215.044 300.316 215.914 299.478 217.835C298.64 219.757 298.222 221.953 299.153 222.457Z" fill="#EA971D"/>
<path fill-rule="evenodd" clip-rule="evenodd" d="M242.631 157.322C240.655 155.743 225.422 139.448 225.837 137.394C226.263 135.281 226.43 133.464 226.645 132.285C227.036 130.137 228.778 127.036 228.486 126.618C228.058 126.005 226.982 126.595 225.939 127.581C225.119 128.357 222.558 131.681 222.558 131.681C222.558 131.681 220.897 131.356 218.472 129.497C216.047 127.64 213.802 124.713 212.595 125.027C211.553 125.298 212.544 126.896 213.038 127.64C213.532 128.383 213.916 129.577 214.027 129.956C214.314 130.944 214.363 133.887 213.847 134.979C213.554 135.599 212.949 135.675 212.904 136.511C212.856 137.396 215.778 140.321 217.619 140.878C219.052 141.312 219.325 140.925 219.64 141.296C220.184 141.939 230.678 161.312 234.998 164.568C239.316 167.825 242.631 157.322 242.631 157.322Z" fill="url(#paint28_linear)"/>
<path fill-rule="evenodd" clip-rule="evenodd" d="M213.452 128.383C213.994 129.14 214.592 129.859 215.194 130.569C215.497 130.923 215.804 131.272 216.118 131.613C216.429 131.946 216.757 132.303 217.084 132.554L217.098 132.565C217.201 132.645 217.222 132.796 217.146 132.903C217.068 133.01 216.922 133.033 216.818 132.953C216.815 132.95 216.811 132.947 216.808 132.943C216.417 132.603 216.136 132.245 215.828 131.882C215.529 131.518 215.239 131.149 214.954 130.775C214.388 130.026 213.829 129.272 213.322 128.475C213.298 128.437 213.308 128.387 213.345 128.362C213.38 128.339 213.427 128.348 213.452 128.383Z" fill="#E08C7C"/>
<path fill-rule="evenodd" clip-rule="evenodd" d="M284.064 168.501C285.411 172.187 281.31 179.247 271.999 180.919C261.71 182.768 244.249 179.061 239.279 175.035C234.309 171.01 240.057 167.417 242.272 164.816C244.488 162.215 247.193 157.436 250.72 158.927C254.247 160.419 257.001 164.321 258.678 164.692C260.354 165.064 277.959 165.224 280.471 165.621C282.627 165.962 283.707 167.524 284.064 168.501Z" fill="url(#paint29_linear)"/>
<path fill-rule="evenodd" clip-rule="evenodd" d="M251.506 159.306C249.412 160.388 244.473 168.192 243.17 172.791C241.868 177.39 241.974 179.659 241.045 179.433C239.129 178.969 228.762 172.389 228.935 168.749C229.07 165.916 234.099 163.826 237.602 160.852C239.861 158.935 242.182 156.115 244.293 156.161C247.347 156.228 251.506 159.306 251.506 159.306Z" fill="url(#paint30_linear)"/>
<path fill-rule="evenodd" clip-rule="evenodd" d="M254.083 171.443C255.452 172.893 257.379 168.753 258.711 168.831C260.731 168.948 260.623 173.271 262.749 175.206C263.424 175.821 264.875 176.46 266.144 175.813C267.123 175.314 267.838 174.199 267.569 172.836C267.316 171.556 266.222 170.421 266.746 169.631C267.394 168.655 268.632 170.467 271.147 169.724C273.032 169.167 273.883 166.704 272.922 165.251C267.121 165.078 260.021 164.93 258.751 164.706C256.701 166.034 252.474 169.74 254.083 171.443Z" fill="url(#paint31_linear)"/>
<path fill-rule="evenodd" clip-rule="evenodd" d="M273.227 171.939C274.081 171.181 275.862 171.753 276.76 173.301C277.658 174.85 277.897 176.832 276.999 177.451C276.14 178.044 274.484 177.346 273.496 175.779C272.767 174.621 271.97 173.054 273.227 171.939Z" fill="#EA971D"/>
<path fill-rule="evenodd" clip-rule="evenodd" d="M330.924 0.53421L346.906 14.2598L333.894 32.5058L318.913 17.9752L330.924 0.53421Z" fill="#5C60D5"/>
<path fill-rule="evenodd" clip-rule="evenodd" d="M352.144 32.5058H333.894L346.906 14.2598H365.074L352.144 32.5058Z" fill="#BE4118"/>
<path fill-rule="evenodd" clip-rule="evenodd" d="M346.906 14.2598H365.074L349.73 1.36422L330.924 0.53421L346.906 14.2598Z" fill="#EA971D"/>
<path fill-rule="evenodd" clip-rule="evenodd" d="M352.144 32.6903C352.098 32.6903 352.052 32.6728 352.015 32.6385L336.969 18.1597H318.914C318.811 18.1597 318.729 18.0772 318.729 17.9755C318.729 17.8738 318.812 17.7917 318.914 17.7917H337.044C337.092 17.7917 337.139 17.8105 337.173 17.8435L352.274 32.3741C352.347 32.4446 352.349 32.5615 352.278 32.6344C352.241 32.6715 352.193 32.6903 352.144 32.6903Z" fill="#F2D265"/>
<path fill-rule="evenodd" clip-rule="evenodd" d="M337.044 18.1597C337.005 18.1597 336.965 18.1473 336.932 18.1221C336.85 18.0607 336.834 17.9452 336.897 17.8641L349.582 1.25259C349.645 1.17148 349.762 1.1559 349.842 1.21685C349.924 1.27826 349.94 1.39374 349.878 1.47485L337.192 18.0864C337.155 18.1345 337.1 18.1597 337.044 18.1597Z" fill="#F2D265"/>
<path fill-rule="evenodd" clip-rule="evenodd" d="M351.11 6.07756L343.305 16.9755C344.046 17.8054 344.145 19.0596 343.47 20.0023C342.683 21.1003 341.15 21.3578 340.042 20.5779C338.935 19.7984 338.675 18.276 339.462 17.1785C340.135 16.239 341.354 15.9173 342.386 16.3316L350.192 5.43095L333.194 11.1249C333.194 11.1249 334.52 15.1443 334.431 17.8485C334.338 20.681 331.627 24.3599 331.627 24.3599L334.363 26.2869L334.957 26.7062L335.874 27.3528L336.949 28.1098L339.204 29.6991C339.204 29.6991 341.814 25.9491 344.479 24.9286C347.024 23.9548 351.287 23.8732 351.287 23.8732L351.11 6.07756Z" fill="#2421A2"/>
<path fill-rule="evenodd" clip-rule="evenodd" d="M331.628 24.3603C331.628 24.3603 332.14 26.0765 334.776 27.9338C337.413 29.7912 339.205 29.699 339.205 29.699C339.205 29.699 340.592 27.7065 342.376 26.2314C342.376 26.2314 340.023 25.9289 337.49 24.144C334.956 22.3591 333.884 20.2483 333.884 20.2483C333.067 22.4049 331.628 24.3603 331.628 24.3603Z" fill="url(#paint32_linear)"/>
<path d="M333.894 32.6902C333.846 32.6902 333.799 32.6714 333.765 32.6375L318.784 18.1069C318.719 18.0446 318.709 17.9452 318.76 17.8714L330.771 0.429976C330.801 0.386442 330.848 0.358029 330.9 0.351614C330.953 0.344281 331.006 0.360779 331.045 0.395148L347.027 14.121C347.099 14.1829 347.112 14.2892 347.057 14.3666L334.045 32.6127C334.014 32.6567 333.965 32.6852 333.91 32.6897C333.905 32.6897 333.899 32.6902 333.894 32.6902ZM319.154 17.9516L333.868 32.2232L346.657 14.2896L330.96 0.8085L319.154 17.9516Z" fill="#F2D265"/>
<path d="M352.144 32.6901H333.894C333.825 32.6901 333.761 32.6521 333.73 32.5907C333.698 32.5297 333.702 32.4559 333.743 32.3996L346.754 14.1535C346.789 14.1049 346.846 14.0755 346.906 14.0755H365.074C365.143 14.0755 365.207 14.1136 365.239 14.175C365.27 14.2359 365.266 14.3093 365.226 14.3656L352.296 32.6118C352.262 32.6608 352.205 32.6901 352.144 32.6901ZM334.253 32.3221H352.048L364.717 14.444H347.002L334.253 32.3221Z" fill="#F2D265"/>
<path d="M365.074 14.444H346.906C346.861 14.444 346.818 14.428 346.784 14.3991L330.803 0.673277C330.743 0.621951 330.722 0.539006 330.752 0.466143C330.782 0.393279 330.842 0.344245 330.933 0.350661L349.739 1.18103C349.78 1.18286 349.819 1.19799 349.85 1.22457L365.194 14.1205C365.254 14.17 365.276 14.2516 365.249 14.3244C365.221 14.3959 365.152 14.444 365.074 14.444ZM346.975 14.0756H364.568L349.658 1.54535L331.45 0.741558L346.975 14.0756Z" fill="#F2D265"/>
<path fill-rule="evenodd" clip-rule="evenodd" d="M55.0092 17.5895L81.1205 10.24L88.6021 35.8878L62.4918 43.2356L55.0092 17.5895Z" fill="url(#paint33_linear)"/>
<path fill-rule="evenodd" clip-rule="evenodd" d="M55.4424 17.6356L81.2002 10.2832L65.2845 4.55112L40.7748 11.5479L55.4424 17.6356Z" fill="#5C60D5"/>
<path fill-rule="evenodd" clip-rule="evenodd" d="M54.9772 17.5957L40.2054 11.3778L47.3374 36.521L62.4109 43.8044L54.9772 17.5957Z" fill="url(#paint34_linear)"/>
<path fill-rule="evenodd" clip-rule="evenodd" d="M47.2202 36.4089C47.1415 36.4089 47.0691 36.3577 47.0456 36.279C47.017 36.1825 47.0727 36.0807 47.1682 36.0526L72.2498 28.6301L64.6486 4.21781C64.6192 4.12229 64.6726 4.01953 64.7686 3.99055C64.864 3.96067 64.9668 4.01364 64.9962 4.11007L72.6516 28.698C72.6661 28.7451 72.6611 28.7945 72.6385 28.8379C72.6159 28.8814 72.5765 28.9131 72.5299 28.9262L47.2714 36.4021C47.2546 36.4062 47.237 36.4089 47.2202 36.4089ZM88.4239 35.84C88.399 35.84 88.3737 35.8347 88.3497 35.8237L72.7639 28.7811C72.6746 28.7406 72.6351 28.636 72.6759 28.5476C72.7173 28.4583 72.8235 28.4205 72.9123 28.4601L88.4981 35.5027C88.5874 35.5432 88.627 35.6478 88.5861 35.7371C88.5563 35.8013 88.4919 35.84 88.4239 35.84Z" fill="#EA971D"/>
<path d="M83.1795 31.4822L77.6457 32.9264L73.9416 27.8183L63.8707 30.4477L63.296 36.6735L57.8998 38.0826L61.0889 10.5024L66.4678 9.09869L83.1795 31.4822ZM71.1348 23.9467L65.2639 15.6524L64.3191 25.824L71.1348 23.9467Z" fill="#5B252C"/>
<path fill-rule="evenodd" clip-rule="evenodd" d="M66.4682 9.09822L63.6475 8.10493L58.2687 9.50838L61.0893 10.5022L66.4682 9.09822Z" fill="#93778B"/>
<path fill-rule="evenodd" clip-rule="evenodd" d="M57.9004 38.0821L55.0797 37.0888L58.2688 9.50847L61.0894 10.5023L57.9004 38.0821Z" fill="#724A5F"/>
<path fill-rule="evenodd" clip-rule="evenodd" d="M74.8256 31.9329L77.6462 32.9268L73.9419 27.8187L72.1763 28.2795L74.8256 31.9329Z" fill="#724A5F"/>
<path fill-rule="evenodd" clip-rule="evenodd" d="M68.3728 23.036L65.0181 18.292L65.264 15.6523L71.1348 23.9467L68.3728 23.036Z" fill="#724A5F"/>
<path fill-rule="evenodd" clip-rule="evenodd" d="M64.4834 24.0508L68.3728 23.0359L71.1348 23.9467L64.3188 25.8241L64.4834 24.0508Z" fill="#93778B"/>
<path d="M62.592 43.8044C62.5134 43.8044 62.441 43.7519 62.4186 43.6716L55.0165 17.4259C55.0031 17.3793 55.0085 17.3287 55.0318 17.2867C55.0552 17.2437 55.0938 17.2127 55.1401 17.1994L80.9706 9.67831C81.0169 9.66507 81.0667 9.67009 81.1081 9.69338C81.1499 9.71758 81.1809 9.75684 81.1939 9.80387L88.595 36.0495C88.6229 36.1477 88.5672 36.2486 88.4715 36.2769L62.6414 43.7971C62.6253 43.8017 62.6082 43.8044 62.592 43.8044ZM55.4138 17.5003L62.716 43.394L88.1992 35.9747L80.8973 10.081L55.4138 17.5003Z" fill="#EA971D"/>
<path d="M55.1291 17.6356C55.1052 17.6356 55.0818 17.631 55.0597 17.6215L40.3174 11.4393C40.2462 11.4103 40.2016 11.3382 40.2061 11.2602C40.2106 11.1832 40.2633 11.1179 40.3372 11.0966L64.9719 3.98925C65.0084 3.97882 65.0476 3.97973 65.0831 3.99378L81.0807 9.81565C81.1546 9.84239 81.2028 9.91401 81.2005 9.99288C81.1973 10.0718 81.1447 10.1397 81.0694 10.162L55.1795 17.6288C55.1629 17.6333 55.1462 17.6356 55.1291 17.6356ZM40.933 11.3033L55.1404 17.2616L80.4317 9.9675L65.0156 4.3564L40.933 11.3033Z" fill="#EA971D"/>
<path d="M62.2332 43.8044C62.2065 43.8044 62.1803 43.799 62.1559 43.7869L47.3242 36.5849C47.2781 36.5628 47.2439 36.5213 47.2297 36.4713L40.2126 11.6089C40.1935 11.5422 40.2143 11.4696 40.265 11.4241C40.316 11.3772 40.3884 11.365 40.4523 11.3916L54.987 17.5405C55.0371 17.5617 55.0749 17.605 55.09 17.6586L62.4041 43.5741C62.4237 43.6426 62.401 43.7156 62.3477 43.7625C62.3153 43.7905 62.2745 43.8044 62.2332 43.8044ZM47.5507 36.2927L61.9525 43.2869L54.7716 17.8416L40.6579 11.8718L47.5507 36.2927Z" fill="#EA971D"/>
<path fill-rule="evenodd" clip-rule="evenodd" d="M334.656 120.051L351.779 132.162V110.673L334.656 102.107V120.051Z" fill="url(#paint35_linear)"/>
<path fill-rule="evenodd" clip-rule="evenodd" d="M367.864 121.058L351.26 132.162V110.62L367.864 102.625V121.058Z" fill="url(#paint36_linear)"/>
<path fill-rule="evenodd" clip-rule="evenodd" d="M351.374 110.916L367.864 102.838L351.175 96.4066L334.137 102.241L351.374 110.916Z" fill="url(#paint37_linear)"/>
<path fill-rule="evenodd" clip-rule="evenodd" d="M367.716 121.28C367.694 121.28 367.671 121.275 367.65 121.264L351.168 112.788L334.344 120.213C334.268 120.246 334.182 120.211 334.149 120.135C334.117 120.059 334.151 119.97 334.226 119.937L351.114 112.483C351.155 112.465 351.201 112.467 351.24 112.487L367.783 120.995C367.856 121.033 367.885 121.123 367.849 121.197C367.822 121.25 367.771 121.28 367.716 121.28Z" fill="#F2D265"/>
<path fill-rule="evenodd" clip-rule="evenodd" d="M351.52 112.989C351.404 112.989 351.311 112.923 351.311 112.842V96.5534C351.311 96.4724 351.405 96.4066 351.52 96.4066C351.635 96.4066 351.728 96.4724 351.728 96.5534V112.842C351.728 112.923 351.635 112.989 351.52 112.989Z" fill="#F2D265"/>
<path opacity="0.5" fill-rule="evenodd" clip-rule="evenodd" d="M341.92 108.923C341.92 114.365 346.191 116.921 346.191 117.939C346.191 117.943 346.488 121.798 346.488 121.798H350.996H351.006H355.514C355.514 121.798 355.811 117.943 355.811 117.939C355.81 116.921 360.081 114.588 360.081 108.923C360.081 104.643 355.988 101.589 351.007 101.589C346.025 101.588 341.92 104.747 341.92 108.923Z" fill="white"/>
<path d="M355.967 121.28H346.554L346.543 121.144C346.242 117.34 346.242 117.338 346.242 117.33C346.242 117.082 345.842 116.634 345.335 116.067C344.058 114.637 341.92 112.244 341.92 108.445C341.92 104.31 346.025 101.07 351.266 101.07C356.587 101.07 360.6 104.241 360.6 108.445C360.6 112.422 358.447 114.746 357.161 116.135C356.668 116.667 356.278 117.087 356.279 117.33C356.279 117.338 356.279 117.34 355.977 121.144L355.967 121.28ZM346.832 120.986H355.69C355.743 120.314 355.977 117.364 355.98 117.32C355.979 116.974 356.362 116.562 356.94 115.938C358.197 114.581 360.301 112.309 360.301 108.445C360.301 104.408 356.417 101.364 351.267 101.364C346.194 101.364 342.22 104.474 342.22 108.445C342.22 112.133 344.311 114.475 345.561 115.873C346.152 116.535 346.542 116.972 346.542 117.33C346.545 117.366 346.778 120.314 346.832 120.986Z" fill="white"/>
<path d="M347.43 112.123C346.732 112.123 346.164 111.574 346.164 110.899C346.164 110.224 346.732 109.674 347.43 109.674C348.128 109.674 348.697 110.223 348.697 110.899C348.697 111.574 348.129 112.123 347.43 112.123ZM347.43 110.113C346.982 110.113 346.617 110.465 346.617 110.899C346.617 111.332 346.982 111.685 347.43 111.685C347.878 111.685 348.243 111.332 348.243 110.899C348.243 110.465 347.878 110.113 347.43 110.113ZM355.985 112.123C355.287 112.123 354.719 111.574 354.719 110.899C354.719 110.224 355.287 109.674 355.985 109.674C356.683 109.674 357.251 110.223 357.251 110.899C357.251 111.574 356.683 112.123 355.985 112.123ZM355.985 110.113C355.537 110.113 355.172 110.465 355.172 110.899C355.172 111.332 355.537 111.685 355.985 111.685C356.433 111.685 356.798 111.332 356.798 110.899C356.798 110.465 356.433 110.113 355.985 110.113Z" fill="white"/>
<path fill-rule="evenodd" clip-rule="evenodd" d="M353.581 121.26H349.701L347.445 111.926L347.888 111.827L350.06 120.822H353.226L355.517 111.821L355.957 111.926L353.581 121.26Z" fill="white"/>
<path fill-rule="evenodd" clip-rule="evenodd" d="M355.348 110.105C354.758 109.175 353.611 108.066 351.494 108.066C349.414 108.066 348.43 109.143 347.971 110.045L347.565 109.852C347.986 109.021 349.059 107.628 351.494 107.628C353.944 107.628 355.202 109.036 355.735 109.876L355.348 110.105Z" fill="white"/>
<path fill-rule="evenodd" clip-rule="evenodd" d="M347.415 122.985L346.59 124.114C346.59 125.697 349.748 126.98 351.341 126.98H351.473C353.066 126.98 355.93 125.697 355.93 124.114L355.095 122.985C355.095 121.402 347.415 121.402 347.415 122.985Z" fill="#93778B"/>
<path fill-rule="evenodd" clip-rule="evenodd" d="M356.449 119.725C356.449 119.725 355.346 120.484 351.732 120.484C348.117 120.484 346.59 119.725 346.59 119.725L346.898 124.633C346.898 124.633 348.946 125.426 351.732 125.426C354.518 125.426 356.151 124.633 356.151 124.633L356.449 119.725Z" fill="url(#paint38_linear)"/>
<path d="M351.629 132.68C351.598 132.68 351.567 132.671 351.542 132.653L334.2 120.453C334.16 120.425 334.137 120.38 334.137 120.332V102.256C334.137 102.204 334.164 102.156 334.208 102.129C334.252 102.102 334.308 102.099 334.354 102.123L351.696 110.752C351.747 110.777 351.779 110.828 351.779 110.885V132.531C351.779 132.587 351.748 132.638 351.697 132.664C351.676 132.675 351.652 132.68 351.629 132.68ZM334.437 120.255L351.478 132.243V110.977L334.437 102.497V120.255ZM351.927 132.68C351.903 132.68 351.879 132.675 351.858 132.663C351.809 132.638 351.779 132.588 351.779 132.534V111.206C351.779 111.15 351.811 111.099 351.862 111.074L368.171 103.158C368.216 103.136 368.27 103.138 368.314 103.165C368.357 103.192 368.383 103.239 368.383 103.29V121.54C368.383 121.588 368.359 121.634 368.319 121.661L352.01 132.655C351.985 132.672 351.956 132.68 351.927 132.68ZM352.074 111.297V132.257L368.088 121.462V103.524L352.074 111.297Z" fill="#F2D265"/>
<path d="M351.371 110.916C351.347 110.916 351.325 110.911 351.304 110.9L334.219 102.4C334.165 102.374 334.133 102.318 334.137 102.259C334.141 102.2 334.181 102.15 334.237 102.13L351.125 96.4143C351.159 96.4034 351.194 96.4041 351.226 96.4162L367.769 102.718C367.824 102.739 367.862 102.79 367.864 102.848C367.867 102.907 367.834 102.961 367.781 102.986L351.435 110.9C351.415 110.911 351.393 110.916 351.371 110.916ZM334.666 102.295L351.371 110.606L367.346 102.871L351.171 96.7091L334.666 102.295Z" fill="#F2D265"/>
<path fill-rule="evenodd" clip-rule="evenodd" d="M338.682 354.916L321.978 351.878L332.098 346.906L346.207 347.895L338.682 354.916Z" fill="url(#paint39_linear)"/>
<path fill-rule="evenodd" clip-rule="evenodd" d="M109.955 363.316H21.0234L0.186646 383.853H128.92L109.955 363.316Z" fill="url(#paint40_linear)"/>
<path fill-rule="evenodd" clip-rule="evenodd" d="M128.92 383.853L109.955 363.316V383.853H128.92Z" fill="#B5A8AE"/>
<path fill-rule="evenodd" clip-rule="evenodd" d="M21.0234 363.316L0.186646 383.853H21.0541V363.316H21.0234Z" fill="url(#paint41_linear)"/>
<path fill-rule="evenodd" clip-rule="evenodd" d="M139.966 200.331L137.891 197.211H135.501L90.8369 383.296H99.9964L139.966 200.331Z" fill="url(#paint42_linear)"/>
<path fill-rule="evenodd" clip-rule="evenodd" d="M99.1601 200.326L97.4059 197.211H94.8323L40.426 383.296H51.0864L99.1601 200.326Z" fill="url(#paint43_linear)"/>
<path fill-rule="evenodd" clip-rule="evenodd" d="M93.7812 220.903C93.277 220.903 88.9537 221.792 89.8217 223.32C90.6279 224.739 92.1098 225.934 92.4049 225.934L127.514 226.377L128.828 220.903H93.7812Z" fill="url(#paint44_linear)"/>
<path fill-rule="evenodd" clip-rule="evenodd" d="M86.2751 249.225C85.7709 249.225 81.1727 250.343 82.1349 251.813C83.0536 253.218 84.6957 254.255 84.9903 254.255L120.643 255.008L122.031 249.225H86.2751Z" fill="url(#paint45_linear)"/>
<path fill-rule="evenodd" clip-rule="evenodd" d="M77.9091 281.398C77.4049 281.398 72.2114 283.253 73.2775 284.65C74.2575 285.933 76.2377 286.429 76.5324 286.429L112.916 287.197L114.307 281.399H77.9091V281.398Z" fill="url(#paint46_linear)"/>
<path fill-rule="evenodd" clip-rule="evenodd" d="M68.3874 317.642C67.8832 317.642 62.596 320.076 63.6506 321.481C64.4737 322.579 66.716 322.673 67.0112 322.673L104.213 323.458L105.609 317.642H68.3874Z" fill="url(#paint47_linear)"/>
<path fill-rule="evenodd" clip-rule="evenodd" d="M97.4058 197.211H92.2587L37.8524 383.296H47.0432L97.4058 197.211Z" fill="url(#paint48_linear)"/>
<path fill-rule="evenodd" clip-rule="evenodd" d="M91.6669 218.638C91.1627 218.638 89.5366 219.196 89.2067 220.923C88.9048 222.505 89.9955 223.669 90.2906 223.669L128.126 223.828L129.372 218.638H91.6669Z" fill="url(#paint49_linear)"/>
<path fill-rule="evenodd" clip-rule="evenodd" d="M83.9653 246.944C83.4606 246.944 81.835 247.503 81.5047 249.229C81.2027 250.812 82.2939 252.343 82.5886 252.343L121.13 252.669L122.504 246.944H83.9653Z" fill="url(#paint50_linear)"/>
<path fill-rule="evenodd" clip-rule="evenodd" d="M75.0324 279.418C74.5282 279.418 72.9022 279.976 72.5718 281.703C72.2699 283.285 73.3611 285.001 73.6557 285.001L113.323 285.502L114.783 279.418H75.0324Z" fill="url(#paint51_linear)"/>
<path fill-rule="evenodd" clip-rule="evenodd" d="M65.3219 315.978C64.8177 315.978 63.1917 316.537 62.8618 318.263C62.5594 319.846 63.6506 321.746 63.9452 321.746L104.46 322.429L106.008 315.978H65.3219Z" fill="url(#paint52_linear)"/>
<path fill-rule="evenodd" clip-rule="evenodd" d="M137.891 197.211H132.745L88.0802 383.296H95.6773L137.891 197.211Z" fill="url(#paint53_linear)"/>
<path fill-rule="evenodd" clip-rule="evenodd" d="M61.2712 289.372C63.3761 287.942 66.1205 283.804 68.362 281.704C70.1548 280.025 73.9008 277.036 75.3611 276.524C77.0538 275.931 79.0211 276.501 79.0211 276.501C79.0211 276.501 80.7137 276.159 81.7203 276.456C82.6491 276.729 82.9096 277.186 82.9096 277.186C82.9096 277.186 84.6014 276.914 85.5625 277.095C86.6493 277.299 87.0264 278.373 86.9353 279.422C86.8438 280.472 82.0401 287.775 78.2891 289.555C74.5381 291.334 69.9175 292.476 68.1333 294.485C66.3491 296.493 61.2712 289.372 61.2712 289.372Z" fill="url(#paint54_linear)"/>
<path fill-rule="evenodd" clip-rule="evenodd" d="M14.6396 354.642C15.9815 350.26 30.4377 323.605 39.5872 311.373C48.7368 299.14 58.8015 289.281 59.4415 289.007C60.0819 288.733 63.6503 288.733 65.7547 290.194C67.859 291.654 69.1399 293.663 69.0484 294.667C68.9568 295.672 61.7353 307.897 58.4348 316.757C55.1343 325.618 44.4365 350.534 44.4365 350.534L14.6396 354.642Z" fill="url(#paint55_linear)"/>
<path fill-rule="evenodd" clip-rule="evenodd" d="M86.892 279.217C86.8756 279.042 86.7504 278.925 86.5878 278.877C86.4265 278.829 86.2461 278.832 86.0717 278.857C85.7205 278.909 85.3825 279.049 85.0746 279.229C84.763 279.407 84.4998 279.648 84.2283 279.898L83.4293 280.662C82.8964 281.174 82.3594 281.688 81.78 282.167C81.4889 282.405 81.1878 282.635 80.8581 282.839C80.5246 283.035 80.1739 283.239 79.6993 283.272C79.5389 283.284 79.4005 283.164 79.3882 283.004C79.3768 282.845 79.497 282.706 79.6569 282.695C79.6651 282.694 79.6724 282.693 79.6801 282.693L79.6865 282.694C79.958 282.696 80.2923 282.554 80.5952 282.39C80.9041 282.221 81.2029 282.017 81.4953 281.802C82.0802 281.371 82.639 280.891 83.1961 280.409L84.0397 279.684C84.323 279.449 84.6223 279.203 84.9653 279.031C85.3037 278.857 85.6686 278.727 86.053 278.69C86.2443 278.673 86.4434 278.678 86.6338 278.747C86.7285 278.78 86.8201 278.837 86.8898 278.917C86.9581 278.993 86.9968 279.113 87.0014 279.202L87.0018 279.209C87.0036 279.239 86.9799 279.265 86.9499 279.267C86.9194 279.269 86.8943 279.247 86.892 279.217ZM83.4412 277.181C82.8021 277.382 82.2072 277.685 81.6606 278.055C81.3869 278.239 81.1254 278.441 80.8694 278.653C80.6098 278.863 80.3679 279.087 80.0696 279.303C79.9393 279.398 79.7562 279.37 79.6615 279.239C79.5667 279.109 79.595 278.926 79.7257 278.832C79.7352 278.825 79.7444 278.819 79.7539 278.813L79.758 278.812C80.0249 278.662 80.3064 278.459 80.5916 278.274C80.8776 278.087 81.1728 277.908 81.478 277.748C82.0879 277.429 82.7402 277.187 83.4075 277.054H83.4093C83.4448 277.047 83.4794 277.07 83.4863 277.106C83.4922 277.138 83.4726 277.171 83.4412 277.181ZM79.5836 276.476C79.0133 276.656 78.5081 276.987 78.0403 277.356C77.8067 277.541 77.5835 277.74 77.3717 277.947C77.1672 278.151 76.9444 278.384 76.8082 278.588L76.7987 278.602C76.7199 278.721 76.5595 278.753 76.4406 278.674C76.3213 278.596 76.289 278.436 76.3678 278.317C76.3732 278.309 76.3787 278.301 76.3846 278.294C76.6178 278.015 76.846 277.834 77.0911 277.632C77.3343 277.436 77.5867 277.256 77.8481 277.088C78.3701 276.756 78.9345 276.464 79.5458 276.336C79.5849 276.327 79.6237 276.352 79.6323 276.391C79.641 276.428 79.6182 276.464 79.5836 276.476Z" fill="#C97165"/>
<path d="M64.2563 318.192C61.7727 318.192 59.7528 315.699 59.7528 312.635C59.7528 309.57 61.7732 307.077 64.2563 307.077C66.7394 307.077 68.7593 309.57 68.7593 312.635C68.7593 315.699 66.739 318.192 64.2563 318.192ZM64.2094 308.28C62.5496 308.28 61.2458 310.42 61.2458 312.635C61.2458 314.851 62.5728 316.917 64.2326 316.917C65.8924 316.917 67.2659 314.851 67.2659 312.635C67.2659 310.42 65.8687 308.28 64.2094 308.28Z" fill="#5C60D5"/>
<path fill-rule="evenodd" clip-rule="evenodd" d="M62.4123 302.748C63.7659 306.645 65.586 321.513 61.6661 329.5C58.0366 336.894 54.1056 336.043 54.1056 336.043L54.0122 345.665L32.5454 344.8C32.5454 344.8 37.0266 336.813 37.8658 331.328C38.7049 325.843 42.2521 310.638 44.6786 307.463C47.1051 304.287 62.4123 302.748 62.4123 302.748Z" fill="url(#paint56_linear)"/>
<path fill-rule="evenodd" clip-rule="evenodd" d="M66.8615 293.541C68.1797 295.418 68.0492 300.216 65.0572 302.909C61.635 305.988 56.5015 305.186 55.9411 309.42C55.5294 312.535 58.763 315.655 59.7062 317.663C60.6397 319.651 60.826 322.025 59.7685 322.667C58.6319 323.356 57.6013 321.854 57.3109 320.839C57 319.754 56.6176 317.852 54.6038 318.048C52.3019 318.273 49.533 322.86 51.9905 325.298C52.9937 326.292 54.7906 325.233 55.2264 326.131C55.8119 327.338 53.2038 331.328 50.0617 331.391C47.4308 331.445 47.3556 329.627 44.1197 329.531C41.6816 329.458 38.2399 332.033 37.8663 331.328C37.4927 330.621 37.3835 328.895 36.4974 327.157C35.5328 325.265 27.1015 318.497 29.0308 307.591C30.4127 299.778 36.0615 295.546 42.813 294.28C49.5488 293.015 54.0448 293.029 55.7868 292.515C57.5279 292.002 64.2483 289.822 66.8615 293.541Z" fill="url(#paint57_linear)"/>
<path fill-rule="evenodd" clip-rule="evenodd" d="M54.1108 336.049L54.2083 332.695C54.2116 332.588 54.2976 332.505 54.4002 332.508C54.5039 332.512 54.5847 332.6 54.5819 332.707C54.5819 332.711 54.5815 332.716 54.581 332.719L54.2687 336.06C54.2646 336.106 54.2255 336.138 54.1823 336.133C54.14 336.13 54.1094 336.093 54.1108 336.049Z" fill="#C97165"/>
<path fill-rule="evenodd" clip-rule="evenodd" d="M68.5613 311.005C68.3374 310.647 67.9048 310.769 67.5577 310.999L59.08 316.585C59.3327 316.971 59.5511 317.332 59.7063 317.663C59.737 317.728 59.7649 317.795 59.7937 317.86L68.3165 312.081C68.6622 311.851 68.7848 311.362 68.5613 311.005Z" fill="url(#paint58_linear)"/>
<path fill-rule="evenodd" clip-rule="evenodd" d="M29.651 348.094C29.4644 347.06 29.7757 342.927 32.58 341.897C36.0855 340.611 53.8302 341.043 57.5065 348.398C48.7819 350.587 29.651 348.094 29.651 348.094Z" fill="url(#paint59_linear)"/>
<path fill-rule="evenodd" clip-rule="evenodd" d="M23.115 384H71.1657C71.7443 379.279 73.6937 370.886 72.4994 363.793C71.1389 355.71 63.4703 347.808 61.4914 347.446C60.081 347.189 47.7005 347.023 43.3719 347.023C37.0537 347.023 27.4682 346.958 24.6954 347.868C19.9178 349.436 14.8794 355.132 14.4296 356.313C14.1645 357.01 13.7442 362.955 16.4496 371.218C18.2844 376.824 20.9375 381.12 23.115 384Z" fill="url(#paint60_linear)"/>
<path fill-rule="evenodd" clip-rule="evenodd" d="M19.928 377.173L22.9958 372.622L26.1911 377.173H19.928Z" fill="#BE4118"/>
<path fill-rule="evenodd" clip-rule="evenodd" d="M23.921 353.849L25.0524 358.969L19.3586 358.019L23.921 353.849Z" fill="#BE4118"/>
<path fill-rule="evenodd" clip-rule="evenodd" d="M54.0977 376.036L55.229 381.156L49.5353 380.206L54.0977 376.036Z" fill="#BE4118"/>
<path fill-rule="evenodd" clip-rule="evenodd" d="M37.5785 371.364L43.2722 370.347L42.2166 375.467L37.5785 371.364Z" fill="#BE4118"/>
<path fill-rule="evenodd" clip-rule="evenodd" d="M43.2722 356.693L47.8272 359.759L43.2722 362.951V356.693Z" fill="#BE4118"/>
<path fill-rule="evenodd" clip-rule="evenodd" d="M33.5929 356.693V354.831C34.4489 354.831 35.1456 354.136 35.1456 353.28C35.1456 352.425 34.4489 351.729 33.5929 351.729V349.867C35.4769 349.867 37.0092 351.398 37.0092 353.28C37.0092 355.163 35.4769 356.693 33.5929 356.693ZM48.4327 349.867L50.2865 350.14C50.162 351.003 50.7541 351.808 51.6064 351.933C52.4578 352.059 53.2518 351.459 53.3758 350.596L55.2291 350.87C54.9563 352.769 53.2098 354.089 51.336 353.812C49.4617 353.536 48.16 351.766 48.4327 349.867ZM25.1066 350.521C26.1571 349.885 26.7444 348.755 26.7605 347.591C25.9814 347.698 25.3389 347.825 24.8836 347.982C24.8721 347.986 24.8597 347.991 24.8486 347.994C24.7419 348.36 24.5101 348.689 24.1643 348.899C23.7159 349.171 23.1874 349.181 22.745 348.977C22.1761 349.305 21.6136 349.675 21.0668 350.073C22.1384 351.095 23.7839 351.324 25.1066 350.521ZM16.9065 370.916L16.4883 369.234C17.2714 369.045 17.7529 368.262 17.5606 367.489C17.3684 366.716 16.5748 366.241 15.7917 366.431L15.373 364.749C17.0966 364.333 18.8428 365.377 19.2654 367.076C19.6888 368.777 18.6304 370.5 16.9065 370.916ZM27.8992 364.658H29.7627C29.7627 365.513 30.4593 366.209 31.3155 366.209C32.1721 366.209 32.8687 365.513 32.8687 364.658H34.7317C34.7317 366.54 33.1993 368.071 31.3159 368.071C29.432 368.071 27.8992 366.539 27.8992 364.658ZM30.0134 376.604L31.3003 377.891C30.7092 378.481 30.7092 379.442 31.3003 380.032C31.8919 380.624 32.8541 380.624 33.4447 380.033L34.7317 381.319C33.4312 382.618 31.3143 382.618 30.0134 381.319C28.7128 380.019 28.7128 377.904 30.0134 376.604ZM63.0372 375.467L64.3241 376.753C63.733 377.344 63.733 378.305 64.3241 378.895C64.9156 379.486 65.8777 379.486 66.4684 378.896L67.7552 380.181C66.4548 381.48 64.3381 381.48 63.0372 380.181C61.7363 378.882 61.7363 376.766 63.0372 375.467ZM52.9516 363.52V365.382C52.0957 365.382 51.3989 366.078 51.3989 366.933C51.3989 367.789 52.0957 368.485 52.9516 368.485V370.347C51.0676 370.347 49.5354 368.815 49.5354 366.933C49.5354 365.051 51.0681 363.52 52.9516 363.52ZM45.5497 384H43.6861C43.6861 383.144 42.9895 382.448 42.1328 382.448C41.2766 382.448 40.58 383.144 40.58 384H38.7173C38.7173 382.118 40.2502 380.587 42.1333 380.587C44.0173 380.587 45.5497 382.118 45.5497 384Z" fill="#EA971D"/>
<path fill-rule="evenodd" clip-rule="evenodd" d="M89.3734 341.163C89.0934 338.797 89.0001 336.06 87.8346 332.394C86.6686 328.728 85.8607 327.278 86.0009 325.422C87.23 325.442 89.2341 325.434 89.2341 325.434C89.1784 326.024 89.666 321.7 91.4258 319.542C93.1666 317.407 96.0586 314.871 97.6749 315.226C98.1992 315.342 97.9234 316.911 97.9234 316.911C97.9234 316.911 100.486 316.082 101.546 316.339C102.245 316.51 102.245 317.407 102.245 317.407C102.245 317.407 103.225 317.314 103.552 317.871C103.879 318.428 102.809 319.58 102.386 320.516C101.802 321.808 101.379 322.604 101.266 324.784C101.051 328.956 100.66 332.209 99.8671 333.879C99.0745 335.549 99.0276 338.426 99.0276 339.957C99.0276 341.488 89.3734 341.163 89.3734 341.163Z" fill="url(#paint61_linear)"/>
<path fill-rule="evenodd" clip-rule="evenodd" d="M98.5257 316.816C97.8686 317.127 97.2933 317.596 96.7537 318.085C96.2188 318.581 95.722 319.121 95.3013 319.706C95.2302 319.806 95.0923 319.828 94.9925 319.758C94.8927 319.687 94.8694 319.55 94.9405 319.451C94.9428 319.447 94.947 319.442 94.9498 319.439C95.4318 318.853 95.976 318.332 96.5569 317.858C97.1415 317.394 97.7586 316.951 98.4625 316.67C98.5034 316.654 98.5498 316.674 98.567 316.714C98.5818 316.753 98.5637 316.797 98.5257 316.816ZM102.38 317.48C101.814 317.699 101.348 318.111 100.935 318.553C100.525 319 100.164 319.498 99.8597 320.017C99.791 320.136 99.6373 320.177 99.5175 320.109C99.3977 320.04 99.3564 319.887 99.4256 319.768C99.4293 319.761 99.4348 319.754 99.4386 319.748C99.8119 319.226 100.231 318.748 100.702 318.318C101.173 317.897 101.705 317.504 102.327 317.325C102.37 317.313 102.415 317.336 102.429 317.379C102.441 317.419 102.419 317.463 102.38 317.48ZM89.3823 325.136C89.2588 325.664 89.2783 326.215 89.3322 326.758C89.361 327.029 89.4009 327.3 89.4492 327.57C89.497 327.843 89.5546 328.104 89.6108 328.387C89.6363 328.516 89.5513 328.641 89.4222 328.666C89.2927 328.692 89.1669 328.608 89.1418 328.479C89.1399 328.472 89.1395 328.465 89.1385 328.458L89.1376 328.453C89.1097 328.187 89.0731 327.901 89.0503 327.622C89.0257 327.341 89.0094 327.059 89.0053 326.776C89.0002 326.213 89.0313 325.634 89.2105 325.09C89.2249 325.043 89.275 325.017 89.3219 325.031C89.3661 325.045 89.3916 325.091 89.3823 325.136Z" fill="#C97165"/>
<path fill-rule="evenodd" clip-rule="evenodd" d="M88.4406 340.452C89.1868 339.389 91.9231 337.977 94.5968 337.916C97.2705 337.854 100.255 339.153 100.442 340.081C100.628 341.009 106.163 377.88 99.0118 383.202C94.1608 386.811 58.744 374.914 56.8532 370.643C55.496 367.577 55.9612 361.874 56.7283 358.795C57.6617 355.052 59.5604 350.352 63.133 349.608C65.5894 349.097 74.059 354.572 79.4282 357.847C83.2831 360.197 87.7571 363.528 87.7571 363.528L88.4406 340.452Z" fill="url(#paint62_linear)"/>
<path fill-rule="evenodd" clip-rule="evenodd" d="M101.197 345.579C101.079 344.622 100.969 343.762 100.869 343.022C94.8698 340.736 90.6053 342.696 88.324 344.39L88.2325 347.477C89.1334 346.405 93.4736 341.992 101.197 345.579Z" fill="#EA971D"/>
<path fill-rule="evenodd" clip-rule="evenodd" d="M97.5811 375.716C98.5371 375.499 98.8724 372.933 98.8724 372.933C98.8724 372.933 90.8184 365.662 87.7565 363.528C87.7565 363.528 83.2826 360.198 79.4276 357.847C74.0584 354.573 65.5888 349.098 63.1325 349.608C60.8516 350.083 59.2533 352.171 58.1533 354.593C64.968 356.242 74.6909 362.544 78.0564 364.395C88.2074 369.977 96.3078 376.004 97.5811 375.716Z" fill="url(#paint63_linear)"/>
<path fill-rule="evenodd" clip-rule="evenodd" d="M98.8823 373.66C98.853 373.66 98.8228 373.657 98.7931 373.65C98.593 373.601 98.4709 373.4 98.5201 373.201C99.6963 368.435 99.517 349.635 97.4632 343.887C97.3945 343.694 97.4953 343.482 97.6894 343.412C97.8825 343.345 98.0971 343.445 98.1658 343.638C100.304 349.621 100.468 368.417 99.244 373.378C99.2027 373.547 99.0499 373.66 98.8823 373.66Z" fill="#EA971D"/>
<path fill-rule="evenodd" clip-rule="evenodd" d="M97.4925 376.096C96.5921 376.096 94.5838 374.857 90.1294 372.055C86.7527 369.932 82.5504 367.29 77.8768 364.719C77.2337 364.366 76.357 363.85 75.3415 363.252C70.9739 360.682 63.6638 356.381 58.1948 355.058C57.9942 355.009 57.872 354.809 57.9203 354.609C57.9691 354.409 58.1715 354.286 58.3712 354.335C63.9475 355.686 71.318 360.022 75.7209 362.613C76.7313 363.208 77.6038 363.721 78.2371 364.069C82.9303 366.65 87.1428 369.299 90.5278 371.428C93.82 373.498 96.9325 375.457 97.4999 375.353C97.9633 375.248 98.4356 373.844 98.5976 372.873C98.6311 372.67 98.8233 372.531 99.0271 372.567C99.2305 372.601 99.3675 372.791 99.3336 372.994C99.2556 373.464 98.8066 375.819 97.6648 376.078C97.6123 376.089 97.5552 376.096 97.4925 376.096Z" fill="#EA971D"/>
<defs>
<linearGradient id="paint0_linear" x1="326.905" y1="263.663" x2="339.28" y2="276.05" gradientUnits="userSpaceOnUse">
<stop stop-color="#EA971D"/>
<stop offset="1" stop-color="#DC6734"/>
</linearGradient>
<linearGradient id="paint1_linear" x1="198.831" y1="270.69" x2="198.831" y2="204.62" gradientUnits="userSpaceOnUse">
<stop stop-color="#B5A8AE"/>
<stop offset="1" stop-color="#93778B"/>
</linearGradient>
<linearGradient id="paint2_linear" x1="198.76" y1="112.541" x2="268.43" y2="220.187" gradientUnits="userSpaceOnUse">
<stop stop-color="#F2D265"/>
<stop offset="1" stop-color="#DCBB60"/>
</linearGradient>
<linearGradient id="paint3_linear" x1="211.195" y1="115.957" x2="248.745" y2="169.262" gradientUnits="userSpaceOnUse">
<stop stop-color="#EA971D"/>
<stop offset="1" stop-color="#E9AA4A"/>
</linearGradient>
<linearGradient id="paint4_linear" x1="252.6" y1="157.821" x2="286.642" y2="207.293" gradientUnits="userSpaceOnUse">
<stop stop-color="#AE2E41"/>
<stop offset="1" stop-color="#DC6734"/>
</linearGradient>
<linearGradient id="paint5_linear" x1="244.956" y1="139.801" x2="275.727" y2="165.312" gradientUnits="userSpaceOnUse">
<stop stop-color="#DC6734"/>
<stop offset="1" stop-color="#EA971D"/>
</linearGradient>
<linearGradient id="paint6_linear" x1="263.006" y1="101.742" x2="276.107" y2="118.061" gradientUnits="userSpaceOnUse">
<stop stop-color="#DC6734"/>
<stop offset="1" stop-color="#EA971D"/>
</linearGradient>
<linearGradient id="paint7_linear" x1="212.831" y1="148.632" x2="225.095" y2="165.068" gradientUnits="userSpaceOnUse">
<stop stop-color="#DC6734"/>
<stop offset="1" stop-color="#EA971D"/>
</linearGradient>
<linearGradient id="paint8_linear" x1="99.3949" y1="203.976" x2="300.947" y2="203.976" gradientUnits="userSpaceOnUse">
<stop stop-color="#B5A8AE"/>
<stop offset="0.3173" stop-color="#B3A5AC"/>
<stop offset="0.5783" stop-color="#AC9BA4"/>
<stop offset="0.8186" stop-color="#A08998"/>
<stop offset="1" stop-color="#93778B"/>
</linearGradient>
<linearGradient id="paint9_linear" x1="177.272" y1="223.431" x2="187.44" y2="366.404" gradientUnits="userSpaceOnUse">
<stop stop-color="#E9AA4A"/>
<stop offset="1" stop-color="#EA971D"/>
</linearGradient>
<linearGradient id="paint10_linear" x1="235.572" y1="255.649" x2="261.22" y2="394.484" gradientUnits="userSpaceOnUse">
<stop stop-color="#F2D265"/>
<stop offset="1" stop-color="#DCBB60"/>
</linearGradient>
<linearGradient id="paint11_linear" x1="256.787" y1="329.955" x2="256.787" y2="304.355" gradientUnits="userSpaceOnUse">
<stop stop-color="#B39057"/>
<stop offset="1" stop-color="#DCBB60"/>
</linearGradient>
<linearGradient id="paint12_linear" x1="267.987" y1="241.609" x2="328.338" y2="266.856" gradientUnits="userSpaceOnUse">
<stop stop-color="#EA971D"/>
<stop offset="1" stop-color="#BE4118"/>
</linearGradient>
<linearGradient id="paint13_linear" x1="240.575" y1="249.829" x2="289.733" y2="274.447" gradientUnits="userSpaceOnUse">
<stop stop-color="#DC6734"/>
<stop offset="1" stop-color="#AE2E41"/>
</linearGradient>
<linearGradient id="paint14_linear" x1="288.882" y1="141.086" x2="314.739" y2="141.086" gradientUnits="userSpaceOnUse">
<stop stop-color="#5B252C"/>
<stop offset="0.1705" stop-color="#572433"/>
<stop offset="0.4142" stop-color="#4C2346"/>
<stop offset="0.7018" stop-color="#3B2064"/>
<stop offset="1" stop-color="#241C8C"/>
</linearGradient>
<linearGradient id="paint15_linear" x1="312.249" y1="145.603" x2="321.289" y2="145.603" gradientUnits="userSpaceOnUse">
<stop stop-color="#241C8C"/>
<stop offset="0.2982" stop-color="#3B2064"/>
<stop offset="0.5858" stop-color="#4C2346"/>
<stop offset="0.8295" stop-color="#572433"/>
<stop offset="1" stop-color="#5B252C"/>
</linearGradient>
<linearGradient id="paint16_linear" x1="318.121" y1="139.235" x2="330.635" y2="141.14" gradientUnits="userSpaceOnUse">
<stop stop-color="#5B252C"/>
<stop offset="0.1705" stop-color="#572433"/>
<stop offset="0.4142" stop-color="#4C2346"/>
<stop offset="0.7018" stop-color="#3B2064"/>
<stop offset="1" stop-color="#241C8C"/>
</linearGradient>
<linearGradient id="paint17_linear" x1="325.393" y1="134.752" x2="335.601" y2="134.752" gradientUnits="userSpaceOnUse">
<stop stop-color="#241C8C"/>
<stop offset="0.2982" stop-color="#3B2064"/>
<stop offset="0.5858" stop-color="#4C2346"/>
<stop offset="0.8295" stop-color="#572433"/>
<stop offset="1" stop-color="#5B252C"/>
</linearGradient>
<linearGradient id="paint18_linear" x1="334.787" y1="127.169" x2="334.787" y2="120.656" gradientUnits="userSpaceOnUse">
<stop stop-color="#5B252C"/>
<stop offset="0.1171" stop-color="#5B2733"/>
<stop offset="0.2845" stop-color="#5B2E46"/>
<stop offset="0.4821" stop-color="#5B3964"/>
<stop offset="0.7028" stop-color="#5C4890"/>
<stop offset="0.94" stop-color="#5C5BC6"/>
<stop offset="1" stop-color="#5C60D5"/>
</linearGradient>
<linearGradient id="paint19_linear" x1="305.507" y1="153.124" x2="305.507" y2="134.628" gradientUnits="userSpaceOnUse">
<stop stop-color="#DC6734"/>
<stop offset="1" stop-color="#EA971D"/>
</linearGradient>
<linearGradient id="paint20_linear" x1="323.338" y1="184.839" x2="346.026" y2="184.839" gradientUnits="userSpaceOnUse">
<stop stop-color="#EAAEA4"/>
<stop offset="0.3126" stop-color="#E8A89D"/>
<stop offset="0.7825" stop-color="#E39688"/>
<stop offset="1" stop-color="#E08C7C"/>
</linearGradient>
<linearGradient id="paint21_linear" x1="316.482" y1="197.789" x2="334.841" y2="206.937" gradientUnits="userSpaceOnUse">
<stop stop-color="#2421A2"/>
<stop offset="1" stop-color="#250F50"/>
</linearGradient>
<linearGradient id="paint22_linear" x1="303.654" y1="194.076" x2="322.866" y2="194.076" gradientUnits="userSpaceOnUse">
<stop stop-color="#5C60D5"/>
<stop offset="1" stop-color="#2421A2"/>
</linearGradient>
<linearGradient id="paint23_linear" x1="286.836" y1="170.238" x2="308.673" y2="170.238" gradientUnits="userSpaceOnUse">
<stop stop-color="#5C60D5"/>
<stop offset="1" stop-color="#2421A2"/>
</linearGradient>
<linearGradient id="paint24_linear" x1="259.984" y1="188.515" x2="309.178" y2="231.113" gradientUnits="userSpaceOnUse">
<stop stop-color="#2421A2"/>
<stop offset="1" stop-color="#250F50"/>
</linearGradient>
<linearGradient id="paint25_linear" x1="247.917" y1="218.363" x2="274.078" y2="218.363" gradientUnits="userSpaceOnUse">
<stop stop-color="#5C60D5"/>
<stop offset="1" stop-color="#2421A2"/>
</linearGradient>
<linearGradient id="paint26_linear" x1="295.753" y1="181.316" x2="311.405" y2="181.316" gradientUnits="userSpaceOnUse">
<stop stop-color="#AE2E41"/>
<stop offset="1" stop-color="#DC6734"/>
</linearGradient>
<linearGradient id="paint27_linear" x1="277.054" y1="216.059" x2="297.569" y2="242.255" gradientUnits="userSpaceOnUse">
<stop stop-color="#F2D265"/>
<stop offset="1" stop-color="#EA971D"/>
</linearGradient>
<linearGradient id="paint28_linear" x1="212.137" y1="145.099" x2="242.631" y2="145.099" gradientUnits="userSpaceOnUse">
<stop stop-color="#FCC3BB"/>
<stop offset="0.4588" stop-color="#F6BCB4"/>
<stop offset="1" stop-color="#EAAEA4"/>
</linearGradient>
<linearGradient id="paint29_linear" x1="237.312" y1="170.027" x2="284.314" y2="170.027" gradientUnits="userSpaceOnUse">
<stop stop-color="#5C60D5"/>
<stop offset="1" stop-color="#2421A2"/>
</linearGradient>
<linearGradient id="paint30_linear" x1="235.958" y1="160.405" x2="248.221" y2="172.323" gradientUnits="userSpaceOnUse">
<stop stop-color="#2421A2"/>
<stop offset="1" stop-color="#250F50"/>
</linearGradient>
<linearGradient id="paint31_linear" x1="259.056" y1="163.749" x2="262.855" y2="175.405" gradientUnits="userSpaceOnUse">
<stop stop-color="#F2D265"/>
<stop offset="1" stop-color="#EA971D"/>
</linearGradient>
<linearGradient id="paint32_linear" x1="331.627" y1="24.9739" x2="342.376" y2="24.9739" gradientUnits="userSpaceOnUse">
<stop stop-color="#895E68"/>
<stop offset="0.329" stop-color="#76474F"/>
<stop offset="0.7485" stop-color="#622E36"/>
<stop offset="1" stop-color="#5B252C"/>
</linearGradient>
<linearGradient id="paint33_linear" x1="58.7507" y1="13.9147" x2="84.3937" y2="40.022" gradientUnits="userSpaceOnUse">
<stop stop-color="#AE2E41"/>
<stop offset="1" stop-color="#DC6734"/>
</linearGradient>
<linearGradient id="paint34_linear" x1="44.9612" y1="29.9252" x2="58.1455" y2="27.6518" gradientUnits="userSpaceOnUse">
<stop stop-color="#5C60D5"/>
<stop offset="1" stop-color="#2421A2"/>
</linearGradient>
<linearGradient id="paint35_linear" x1="334.716" y1="120.217" x2="353.378" y2="118.021" gradientUnits="userSpaceOnUse">
<stop stop-color="#5C60D5"/>
<stop offset="1" stop-color="#2421A2"/>
</linearGradient>
<linearGradient id="paint36_linear" x1="351.26" y1="117.393" x2="367.864" y2="117.393" gradientUnits="userSpaceOnUse">
<stop stop-color="#AE2E41"/>
<stop offset="1" stop-color="#DC6734"/>
</linearGradient>
<linearGradient id="paint37_linear" x1="351.001" y1="110.916" x2="351.001" y2="96.4067" gradientUnits="userSpaceOnUse">
<stop stop-color="#DC6734"/>
<stop offset="1" stop-color="#EA971D"/>
</linearGradient>
<linearGradient id="paint38_linear" x1="346.59" y1="122.575" x2="356.449" y2="122.575" gradientUnits="userSpaceOnUse">
<stop stop-color="#895E68"/>
<stop offset="1" stop-color="#5B252C"/>
</linearGradient>
<linearGradient id="paint39_linear" x1="321.978" y1="350.911" x2="346.207" y2="350.911" gradientUnits="userSpaceOnUse">
<stop stop-color="#DCBB60"/>
<stop offset="1" stop-color="#B39057"/>
</linearGradient>
<linearGradient id="paint40_linear" x1="64.5533" y1="383.853" x2="64.5533" y2="363.316" gradientUnits="userSpaceOnUse">
<stop stop-color="#B5A8AE"/>
<stop offset="0.0376" stop-color="#B3A5AC"/>
<stop offset="0.4026" stop-color="#A18C9A"/>
<stop offset="0.7341" stop-color="#977C8F"/>
<stop offset="1" stop-color="#93778B"/>
</linearGradient>
<linearGradient id="paint41_linear" x1="0.186646" y1="373.585" x2="21.0539" y2="373.585" gradientUnits="userSpaceOnUse">
<stop stop-color="#93778B"/>
<stop offset="0.3197" stop-color="#967C90"/>
<stop offset="0.7176" stop-color="#A08C9D"/>
<stop offset="1" stop-color="#A99BAB"/>
</linearGradient>
<linearGradient id="paint42_linear" x1="115.402" y1="383.296" x2="115.402" y2="197.211" gradientUnits="userSpaceOnUse">
<stop stop-color="#895E68"/>
<stop offset="0.055" stop-color="#8D616A"/>
<stop offset="0.3619" stop-color="#A17174"/>
<stop offset="0.6747" stop-color="#AC7A7A"/>
<stop offset="1" stop-color="#B07D7C"/>
</linearGradient>
<linearGradient id="paint43_linear" x1="69.7931" y1="383.296" x2="69.7931" y2="197.211" gradientUnits="userSpaceOnUse">
<stop stop-color="#895E68"/>
<stop offset="0.055" stop-color="#8D616A"/>
<stop offset="0.3619" stop-color="#A17174"/>
<stop offset="0.6747" stop-color="#AC7A7A"/>
<stop offset="1" stop-color="#B07D7C"/>
</linearGradient>
<linearGradient id="paint44_linear" x1="89.7069" y1="223.64" x2="128.828" y2="223.64" gradientUnits="userSpaceOnUse">
<stop stop-color="#B07D7C"/>
<stop offset="0.3253" stop-color="#AC7A7A"/>
<stop offset="0.6381" stop-color="#A17174"/>
<stop offset="0.945" stop-color="#8D616A"/>
<stop offset="1" stop-color="#895E68"/>
</linearGradient>
<linearGradient id="paint45_linear" x1="82.0029" y1="252.116" x2="122.031" y2="252.116" gradientUnits="userSpaceOnUse">
<stop stop-color="#B07D7C"/>
<stop offset="0.3253" stop-color="#AC7A7A"/>
<stop offset="0.6381" stop-color="#A17174"/>
<stop offset="0.945" stop-color="#8D616A"/>
<stop offset="1" stop-color="#895E68"/>
</linearGradient>
<linearGradient id="paint46_linear" x1="73.1337" y1="284.298" x2="114.308" y2="284.298" gradientUnits="userSpaceOnUse">
<stop stop-color="#B07D7C"/>
<stop offset="0.3253" stop-color="#AC7A7A"/>
<stop offset="0.6381" stop-color="#A17174"/>
<stop offset="0.945" stop-color="#8D616A"/>
<stop offset="1" stop-color="#895E68"/>
</linearGradient>
<linearGradient id="paint47_linear" x1="63.5118" y1="320.55" x2="105.608" y2="320.55" gradientUnits="userSpaceOnUse">
<stop stop-color="#B07D7C"/>
<stop offset="0.3253" stop-color="#AC7A7A"/>
<stop offset="0.6381" stop-color="#A17174"/>
<stop offset="0.945" stop-color="#8D616A"/>
<stop offset="1" stop-color="#895E68"/>
</linearGradient>
<linearGradient id="paint48_linear" x1="67.6291" y1="383.296" x2="67.6291" y2="197.211" gradientUnits="userSpaceOnUse">
<stop stop-color="#5B252C"/>
<stop offset="0.2642" stop-color="#5E2930"/>
<stop offset="0.5181" stop-color="#67343B"/>
<stop offset="0.7672" stop-color="#76464F"/>
<stop offset="1" stop-color="#895E68"/>
</linearGradient>
<linearGradient id="paint49_linear" x1="89.1544" y1="221.233" x2="129.372" y2="221.233" gradientUnits="userSpaceOnUse">
<stop stop-color="#895E68"/>
<stop offset="1" stop-color="#5B252C"/>
</linearGradient>
<linearGradient id="paint50_linear" x1="81.4524" y1="249.806" x2="122.504" y2="249.806" gradientUnits="userSpaceOnUse">
<stop stop-color="#895E68"/>
<stop offset="1" stop-color="#5B252C"/>
</linearGradient>
<linearGradient id="paint51_linear" x1="72.5195" y1="282.46" x2="114.783" y2="282.46" gradientUnits="userSpaceOnUse">
<stop stop-color="#895E68"/>
<stop offset="1" stop-color="#5B252C"/>
</linearGradient>
<linearGradient id="paint52_linear" x1="62.8093" y1="319.203" x2="106.008" y2="319.203" gradientUnits="userSpaceOnUse">
<stop stop-color="#895E68"/>
<stop offset="1" stop-color="#5B252C"/>
</linearGradient>
<linearGradient id="paint53_linear" x1="112.986" y1="383.296" x2="112.986" y2="197.211" gradientUnits="userSpaceOnUse">
<stop stop-color="#5B252C"/>
<stop offset="0.2642" stop-color="#5E2930"/>
<stop offset="0.5181" stop-color="#67343B"/>
<stop offset="0.7672" stop-color="#76464F"/>
<stop offset="1" stop-color="#895E68"/>
</linearGradient>
<linearGradient id="paint54_linear" x1="61.271" y1="285.548" x2="86.9487" y2="285.548" gradientUnits="userSpaceOnUse">
<stop stop-color="#EAAEA4"/>
<stop offset="0.3126" stop-color="#E8A89D"/>
<stop offset="0.7825" stop-color="#E39688"/>
<stop offset="1" stop-color="#E08C7C"/>
</linearGradient>
<linearGradient id="paint55_linear" x1="33.0373" y1="315.156" x2="59.9027" y2="333.499" gradientUnits="userSpaceOnUse">
<stop stop-color="#DC6734"/>
<stop offset="1" stop-color="#AE2E41"/>
</linearGradient>
<linearGradient id="paint56_linear" x1="32.5451" y1="324.207" x2="64.0362" y2="324.207" gradientUnits="userSpaceOnUse">
<stop stop-color="#EAAEA4"/>
<stop offset="0.3126" stop-color="#E8A89D"/>
<stop offset="0.7825" stop-color="#E39688"/>
<stop offset="1" stop-color="#E08C7C"/>
</linearGradient>
<linearGradient id="paint57_linear" x1="28.7441" y1="311.432" x2="67.6592" y2="311.432" gradientUnits="userSpaceOnUse">
<stop stop-color="#5B252C"/>
<stop offset="1" stop-color="#250F50"/>
</linearGradient>
<linearGradient id="paint58_linear" x1="59.08" y1="314.321" x2="68.674" y2="314.321" gradientUnits="userSpaceOnUse">
<stop stop-color="#2421A2"/>
<stop offset="1" stop-color="#5C60D5"/>
</linearGradient>
<linearGradient id="paint59_linear" x1="29.607" y1="345.316" x2="57.5065" y2="345.316" gradientUnits="userSpaceOnUse">
<stop stop-color="#5C60D5"/>
<stop offset="1" stop-color="#2421A2"/>
</linearGradient>
<linearGradient id="paint60_linear" x1="23.3935" y1="346.9" x2="44.1335" y2="397.783" gradientUnits="userSpaceOnUse">
<stop stop-color="#2421A2"/>
<stop offset="1" stop-color="#250F50"/>
</linearGradient>
<linearGradient id="paint61_linear" x1="85.9846" y1="328.193" x2="103.612" y2="328.193" gradientUnits="userSpaceOnUse">
<stop stop-color="#EAAEA4"/>
<stop offset="0.3126" stop-color="#E8A89D"/>
<stop offset="0.7825" stop-color="#E39688"/>
<stop offset="1" stop-color="#E08C7C"/>
</linearGradient>
<linearGradient id="paint62_linear" x1="67.415" y1="344.184" x2="102.301" y2="379.974" gradientUnits="userSpaceOnUse">
<stop stop-color="#DC6734"/>
<stop offset="1" stop-color="#AE2E41"/>
</linearGradient>
<linearGradient id="paint63_linear" x1="58.1537" y1="362.65" x2="98.8728" y2="362.65" gradientUnits="userSpaceOnUse">
<stop stop-color="#EA971D"/>
<stop offset="1" stop-color="#E1772C"/>
</linearGradient>
</defs>
</svg>
