<svg width="40" height="36" viewBox="0 0 40 36" fill="none" xmlns="http://www.w3.org/2000/svg">
<path d="M30.3747 1.91248C30.0373 1.32494 29.4247 0.974976 28.7497 0.974976H11.2497C10.5747 0.974976 9.96218 1.32494 9.62473 1.91248L0.874726 17.0625C0.537201 17.6374 0.537201 18.3625 0.874726 18.9375L9.62473 34.0875C9.96218 34.675 10.5747 35.025 11.2497 35.025H28.7497C29.4247 35.025 30.0373 34.675 30.3747 34.0875L39.1247 18.9375C39.4622 18.3625 39.4622 17.6374 39.1247 17.0625L30.3747 1.91248ZM19.9997 26.35C15.3997 26.35 11.6497 22.6 11.6497 18C11.6497 13.4 15.3997 9.65 19.9997 9.65C24.5997 9.65 28.3497 13.4 28.3497 18C28.3497 22.6 24.5997 26.35 19.9997 26.35Z" fill="white"/>
</svg>
