<svg width="20" height="20" viewBox="0 0 20 20" fill="none" xmlns="http://www.w3.org/2000/svg">
<path fill-rule="evenodd" clip-rule="evenodd" d="M16.6667 4.16667H15.6911C15.3479 3.19568 14.4218 2.5 13.3333 2.5C12.2448 2.5 11.3187 3.19568 10.9756 4.16667H3.33333C2.8731 4.16667 2.5 4.53977 2.5 5C2.5 5.46023 2.8731 5.83333 3.33333 5.83333H10.9756C11.3187 6.80433 12.2448 7.5 13.3333 7.5C14.4218 7.5 15.3479 6.80433 15.6911 5.83333H16.6667C17.1269 5.83333 17.5 5.46023 17.5 5C17.5 4.53977 17.1269 4.16667 16.6667 4.16667ZM13.3333 5.83333C13.7936 5.83333 14.1667 5.46023 14.1667 5C14.1667 4.53977 13.7936 4.16667 13.3333 4.16667C12.8731 4.16667 12.5 4.53977 12.5 5C12.5 5.46023 12.8731 5.83333 13.3333 5.83333ZM2.5 10C2.5 9.53975 2.8731 9.16667 3.33333 9.16667H4.30893C4.65212 8.19567 5.57815 7.5 6.66667 7.5C7.75518 7.5 8.68125 8.19567 9.02442 9.16667H16.6667C17.1269 9.16667 17.5 9.53975 17.5 10C17.5 10.4602 17.1269 10.8333 16.6667 10.8333H9.02442C8.68125 11.8043 7.75518 12.5 6.66667 12.5C5.57815 12.5 4.65212 11.8043 4.30893 10.8333H3.33333C2.8731 10.8333 2.5 10.4602 2.5 10ZM6.66667 10.8333C7.12691 10.8333 7.5 10.4602 7.5 10C7.5 9.53975 7.12691 9.16667 6.66667 9.16667C6.20643 9.16667 5.83333 9.53975 5.83333 10C5.83333 10.4602 6.20643 10.8333 6.66667 10.8333ZM3.33333 14.1667C2.8731 14.1667 2.5 14.5398 2.5 15C2.5 15.4602 2.8731 15.8333 3.33333 15.8333H10.9756C11.3187 16.8043 12.2448 17.5 13.3333 17.5C14.4218 17.5 15.3479 16.8043 15.6911 15.8333H16.6667C17.1269 15.8333 17.5 15.4602 17.5 15C17.5 14.5398 17.1269 14.1667 16.6667 14.1667H15.6911C15.3479 13.1957 14.4218 12.5 13.3333 12.5C12.2448 12.5 11.3187 13.1957 10.9756 14.1667H3.33333ZM14.1667 15C14.1667 15.4602 13.7936 15.8333 13.3333 15.8333C12.8731 15.8333 12.5 15.4602 12.5 15C12.5 14.5398 12.8731 14.1667 13.3333 14.1667C13.7936 14.1667 14.1667 14.5398 14.1667 15Z" fill="#1E398F"/>
</svg>
