<svg width="200" height="200" viewBox="0 0 200 200" fill="none" xmlns="http://www.w3.org/2000/svg">
<path d="M60.25 141.126H31.25V30.8135H141.562V43.4197" fill="#929292"/>
<path d="M145.369 154.813L65.2882 169.188L45.7944 60.6129L154.376 41.1191L168.751 121.194" fill="#929292"/>
<path d="M145.365 154.813L140.252 126.313L168.752 121.194L145.365 154.813Z" fill="#929292"/>
<path d="M171.806 121.457C171.819 121.313 171.825 121.188 171.812 121.045C171.806 120.907 171.844 120.782 171.819 120.645L157.444 40.5635C157.137 38.8635 155.488 37.7385 153.819 38.0385L144.688 39.6822V30.8135C144.688 29.0885 143.287 27.6885 141.562 27.6885H31.25C29.525 27.6885 28.125 29.0885 28.125 30.8135V141.126C28.125 142.851 29.525 144.251 31.25 144.251H57.6375L62.2125 169.745C62.4875 171.257 63.8 172.32 65.2812 172.32C65.4625 172.32 65.6563 172.307 65.8375 172.27L145.919 157.895C146.125 157.857 146.294 157.745 146.481 157.67C146.625 157.613 146.769 157.582 146.906 157.501C147.312 157.27 147.675 156.97 147.938 156.595L171.306 122.995C171.619 122.551 171.762 122.013 171.806 121.457ZM34.375 138.001V33.9385H138.438V40.8072L45.2437 57.5385C43.5437 57.8385 42.4125 59.4635 42.7188 61.1635L56.5125 138.001H34.375ZM49.4188 63.1385L151.85 44.751L165.119 118.676L139.694 123.238C138.875 123.382 138.15 123.851 137.681 124.532C137.206 125.213 137.025 126.057 137.169 126.87L141.737 152.295L67.8125 165.563L49.4188 63.1385ZM147.106 146.838L143.869 128.838L161.875 125.607L147.106 146.838Z" fill="#1A4875"/>
<path d="M127.08 125.182H119.219V139H100.176V125.182H71.709V111.021L101.396 67.6133H119.219V110.777H127.08V125.182ZM100.176 110.777V102.477C100.176 100.914 100.225 98.8145 100.322 96.1777C100.452 93.5085 100.55 92.1087 100.615 91.9785H100.078C98.9714 94.485 97.7181 96.8288 96.3184 99.0098L88.4082 110.777H100.176Z" fill="white"/>
<path d="M127.08 125.182V128.182H130.08V125.182H127.08ZM119.219 125.182V122.182H116.219V125.182H119.219ZM119.219 139V142H122.219V139H119.219ZM100.176 139H97.1758V142H100.176V139ZM100.176 125.182H103.176V122.182H100.176V125.182ZM71.709 125.182H68.709V128.182H71.709V125.182ZM71.709 111.021L69.2327 109.328L68.709 110.094V111.021H71.709ZM101.396 67.6133V64.6133H99.8137L98.9202 65.9197L101.396 67.6133ZM119.219 67.6133H122.219V64.6133H119.219V67.6133ZM119.219 110.777H116.219V113.777H119.219V110.777ZM127.08 110.777H130.08V107.777H127.08V110.777ZM100.176 110.777V113.777H103.176V110.777H100.176ZM100.322 96.1777L97.3258 96.0316L97.325 96.0491L97.3243 96.0667L100.322 96.1777ZM100.615 91.9785L103.299 93.3202L105.469 88.9785H100.615V91.9785ZM100.078 91.9785V88.9785H98.1234L97.3338 90.7667L100.078 91.9785ZM96.3184 99.0098L98.8081 100.683L98.8259 100.657L98.8431 100.63L96.3184 99.0098ZM88.4082 110.777L85.9184 109.104L82.7768 113.777H88.4082V110.777ZM127.08 122.182H119.219V128.182H127.08V122.182ZM116.219 125.182V139H122.219V125.182H116.219ZM119.219 136H100.176V142H119.219V136ZM103.176 139V125.182H97.1758V139H103.176ZM100.176 122.182H71.709V128.182H100.176V122.182ZM74.709 125.182V111.021H68.709V125.182H74.709ZM74.1852 112.715L103.873 69.3068L98.9202 65.9197L69.2327 109.328L74.1852 112.715ZM101.396 70.6133H119.219V64.6133H101.396V70.6133ZM116.219 67.6133V110.777H122.219V67.6133H116.219ZM119.219 113.777H127.08V107.777H119.219V113.777ZM124.08 110.777V125.182H130.08V110.777H124.08ZM103.176 110.777V102.477H97.1758V110.777H103.176ZM103.176 102.477C103.176 100.968 103.223 98.9099 103.32 96.2888L97.3243 96.0667C97.2261 98.719 97.1758 100.861 97.1758 102.477H103.176ZM103.319 96.3239C103.384 94.9951 103.439 94.0028 103.486 93.3348C103.509 92.9968 103.529 92.7687 103.543 92.6316C103.551 92.5592 103.554 92.5468 103.55 92.5713C103.548 92.5821 103.539 92.6371 103.52 92.7164C103.514 92.7409 103.455 93.0064 103.299 93.3202L97.932 90.6369C97.7669 90.9669 97.6996 91.2586 97.6851 91.3192C97.6575 91.4346 97.6396 91.5357 97.6287 91.6024C97.6064 91.7388 97.5898 91.8779 97.5771 91.9968C97.551 92.2422 97.5257 92.5552 97.5004 92.9172C97.4494 93.6489 97.3912 94.6911 97.3258 96.0316L103.319 96.3239ZM100.615 88.9785H100.078V94.9785H100.615V88.9785ZM97.3338 90.7667C96.286 93.1396 95.1051 95.3459 93.7936 97.3894L98.8431 100.63C100.331 98.3116 101.657 95.8304 102.822 93.1903L97.3338 90.7667ZM93.8286 97.3361L85.9184 109.104L90.898 112.451L98.8081 100.683L93.8286 97.3361ZM88.4082 113.777H100.176V107.777H88.4082V113.777Z" fill="#1E398F"/>
</svg>
