<svg width="200" height="200" viewBox="0 0 200 200" fill="none" xmlns="http://www.w3.org/2000/svg">
<path d="M60.25 141.126H31.25V30.8135H141.562V43.4197" fill="#6A86E2"/>
<path d="M145.369 154.813L65.2882 169.188L45.7944 60.6129L154.376 41.1191L168.751 121.194" fill="#6A86E2"/>
<path d="M145.365 154.813L140.252 126.313L168.752 121.194L145.365 154.813Z" fill="#6A86E2"/>
<path d="M171.806 121.457C171.819 121.313 171.825 121.188 171.812 121.045C171.806 120.907 171.844 120.782 171.819 120.645L157.444 40.5635C157.137 38.8635 155.488 37.7385 153.819 38.0385L144.688 39.6822V30.8135C144.688 29.0885 143.287 27.6885 141.562 27.6885H31.25C29.525 27.6885 28.125 29.0885 28.125 30.8135V141.126C28.125 142.851 29.525 144.251 31.25 144.251H57.6375L62.2125 169.745C62.4875 171.257 63.8 172.32 65.2812 172.32C65.4625 172.32 65.6563 172.307 65.8375 172.27L145.919 157.895C146.125 157.857 146.294 157.745 146.481 157.67C146.625 157.613 146.769 157.582 146.906 157.501C147.312 157.27 147.675 156.97 147.938 156.595L171.306 122.995C171.619 122.551 171.762 122.013 171.806 121.457ZM34.375 138.001V33.9385H138.438V40.8072L45.2437 57.5385C43.5437 57.8385 42.4125 59.4635 42.7188 61.1635L56.5125 138.001H34.375ZM49.4188 63.1385L151.85 44.751L165.119 118.676L139.694 123.238C138.875 123.382 138.15 123.851 137.681 124.532C137.206 125.213 137.025 126.057 137.169 126.87L141.737 152.295L67.8125 165.563L49.4188 63.1385ZM147.106 146.838L143.869 128.838L161.875 125.607L147.106 146.838Z" fill="#1A4875"/>
<path d="M124.785 139H72.9785V126.305L90.4102 108.678C95.3906 103.469 98.6458 99.9212 100.176 98.0332C101.706 96.1126 102.764 94.4688 103.35 93.1016C103.968 91.7344 104.277 90.3021 104.277 88.8047C104.277 86.9492 103.675 85.4844 102.471 84.4102C101.266 83.3359 99.5736 82.7988 97.3926 82.7988C95.1465 82.7988 92.8678 83.4499 90.5566 84.752C88.278 86.0215 85.6901 87.9095 82.793 90.416L72.1973 78.0137C75.8757 74.7259 78.9681 72.3822 81.4746 70.9824C83.9811 69.5501 86.6992 68.4596 89.6289 67.7109C92.5911 66.9622 95.9115 66.5879 99.5898 66.5879C104.212 66.5879 108.33 67.4017 111.943 69.0293C115.589 70.6569 118.405 72.9844 120.391 76.0117C122.409 79.0065 123.418 82.3757 123.418 86.1191C123.418 88.9186 123.06 91.5065 122.344 93.8828C121.66 96.2591 120.586 98.6029 119.121 100.914C117.656 103.193 115.703 105.602 113.262 108.141C110.853 110.68 105.693 115.497 97.7832 122.594V123.082H124.785V139Z" fill="white"/>
<path d="M124.785 139V142H127.785V139H124.785ZM72.9785 139H69.9785V142H72.9785V139ZM72.9785 126.305L70.8454 124.195L69.9785 125.072V126.305H72.9785ZM90.4102 108.678L92.5433 110.787L92.561 110.769L92.5784 110.751L90.4102 108.678ZM100.176 98.0332L102.507 99.922L102.514 99.9122L102.522 99.9024L100.176 98.0332ZM103.35 93.1016L100.616 91.8651L100.604 91.8923L100.592 91.9198L103.35 93.1016ZM102.471 84.4102L104.468 82.1713L102.471 84.4102ZM90.5566 84.752L92.0167 87.3727L92.023 87.3692L92.0292 87.3657L90.5566 84.752ZM82.793 90.416L80.512 92.3647L82.4729 94.6599L84.7558 92.6848L82.793 90.416ZM72.1973 78.0137L70.198 75.7769L68.0108 77.7319L69.9163 79.9623L72.1973 78.0137ZM81.4746 70.9824L82.9373 73.6017L82.9502 73.5945L82.963 73.5872L81.4746 70.9824ZM89.6289 67.7109L88.8938 64.8024L88.8861 64.8043L89.6289 67.7109ZM111.943 69.0293L110.711 71.7646L110.72 71.7687L111.943 69.0293ZM120.391 76.0117L117.882 77.6571L117.892 77.6728L117.903 77.6883L120.391 76.0117ZM122.344 93.8828L119.471 93.0172L119.466 93.0353L119.461 93.0534L122.344 93.8828ZM119.121 100.914L121.645 102.536L121.65 102.528L121.655 102.52L119.121 100.914ZM113.262 108.141L111.099 106.061L111.092 106.069L111.085 106.076L113.262 108.141ZM97.7832 122.594L95.7799 120.361L94.7832 121.255V122.594H97.7832ZM97.7832 123.082H94.7832V126.082H97.7832V123.082ZM124.785 123.082H127.785V120.082H124.785V123.082ZM124.785 136H72.9785V142H124.785V136ZM75.9785 139V126.305H69.9785V139H75.9785ZM75.1116 128.414L92.5433 110.787L88.2771 106.568L70.8454 124.195L75.1116 128.414ZM92.5784 110.751C97.5453 105.557 100.886 101.921 102.507 99.922L97.845 96.1445C96.4052 97.9212 93.2359 101.382 88.2419 106.604L92.5784 110.751ZM102.522 99.9024C104.126 97.8892 105.369 96.0046 106.107 94.2833L100.592 91.9198C100.158 92.9329 99.2855 94.336 97.8293 96.164L102.522 99.9024ZM106.083 94.3381C106.877 92.5832 107.277 90.7295 107.277 88.8047H101.277C101.277 89.8747 101.059 90.8855 100.616 91.8651L106.083 94.3381ZM107.277 88.8047C107.277 86.2355 106.409 83.9025 104.468 82.1713L100.474 86.649C100.942 87.0662 101.277 87.6629 101.277 88.8047H107.277ZM104.468 82.1713C102.545 80.4569 100.048 79.7988 97.3926 79.7988V85.7988C99.0987 85.7988 99.9872 86.215 100.474 86.649L104.468 82.1713ZM97.3926 79.7988C94.5443 79.7988 91.7631 80.6289 89.0841 82.1382L92.0292 87.3657C93.9726 86.2708 95.7487 85.7988 97.3926 85.7988V79.7988ZM89.0965 82.1312C86.5767 83.5352 83.8174 85.5628 80.8301 88.1473L84.7558 92.6848C87.5628 90.2562 89.9793 88.5078 92.0167 87.3727L89.0965 82.1312ZM85.0739 88.4673L74.4782 76.065L69.9163 79.9623L80.512 92.3647L85.0739 88.4673ZM74.1965 80.2504C77.8098 77.0209 80.7122 74.8443 82.9373 73.6017L80.0119 68.3632C77.224 69.92 73.9415 72.431 70.198 75.7769L74.1965 80.2504ZM82.963 73.5872C85.2248 72.2947 87.6906 71.3027 90.3717 70.6175L88.8861 64.8043C85.7079 65.6166 82.7374 66.8056 79.9862 68.3777L82.963 73.5872ZM90.364 70.6195C93.043 69.9424 96.1108 69.5879 99.5898 69.5879V63.5879C95.7121 63.5879 92.1392 63.9821 88.8938 64.8024L90.364 70.6195ZM99.5898 69.5879C103.858 69.5879 107.544 70.3381 110.711 71.7646L113.175 66.294C109.116 64.4653 104.567 63.5879 99.5898 63.5879V69.5879ZM110.72 71.7687C113.898 73.1872 116.243 75.1587 117.882 77.6571L122.899 74.3663C120.567 70.8101 117.281 68.1267 113.166 66.2899L110.72 71.7687ZM117.903 77.6883C119.574 80.1688 120.418 82.9499 120.418 86.1191H126.418C126.418 81.8014 125.243 77.8442 122.878 74.3352L117.903 77.6883ZM120.418 86.1191C120.418 88.6623 120.093 90.9549 119.471 93.0172L125.216 94.7485C126.027 92.0581 126.418 89.1749 126.418 86.1191H120.418ZM119.461 93.0534C118.864 95.1281 117.915 97.2124 116.587 99.3081L121.655 102.52C123.256 99.9933 124.456 97.3901 125.227 94.7122L119.461 93.0534ZM116.598 99.2918C115.264 101.367 113.444 103.623 111.099 106.061L115.424 110.22C117.963 107.58 120.049 105.019 121.645 102.536L116.598 99.2918ZM111.085 106.076C108.774 108.512 103.706 113.25 95.7799 120.361L99.7865 124.827C107.681 117.745 112.932 112.847 115.438 110.205L111.085 106.076ZM94.7832 122.594V123.082H100.783V122.594H94.7832ZM97.7832 126.082H124.785V120.082H97.7832V126.082ZM121.785 123.082V139H127.785V123.082H121.785Z" fill="#1E398F"/>
</svg>
