<svg width="200" height="200" viewBox="0 0 200 200" fill="none" xmlns="http://www.w3.org/2000/svg">
<path d="M60.25 141.126H31.25V30.8135H141.562V43.4197" fill="#F44336"/>
<path d="M145.369 154.813L65.2882 169.188L45.7944 60.6129L154.376 41.1191L168.751 121.194" fill="#F44336"/>
<path d="M145.365 154.813L140.252 126.313L168.752 121.194L145.365 154.813Z" fill="#F44336"/>
<path d="M171.806 121.457C171.819 121.313 171.825 121.188 171.812 121.045C171.806 120.907 171.844 120.782 171.819 120.645L157.444 40.5635C157.137 38.8635 155.488 37.7385 153.819 38.0385L144.688 39.6822V30.8135C144.688 29.0885 143.287 27.6885 141.562 27.6885H31.25C29.525 27.6885 28.125 29.0885 28.125 30.8135V141.126C28.125 142.851 29.525 144.251 31.25 144.251H57.6375L62.2125 169.745C62.4875 171.257 63.8 172.32 65.2812 172.32C65.4625 172.32 65.6563 172.307 65.8375 172.27L145.919 157.895C146.125 157.857 146.294 157.745 146.481 157.67C146.625 157.613 146.769 157.582 146.906 157.501C147.312 157.27 147.675 156.97 147.938 156.595L171.306 122.995C171.619 122.551 171.762 122.013 171.806 121.457ZM34.375 138.001V33.9385H138.438V40.8072L45.2437 57.5385C43.5437 57.8385 42.4125 59.4635 42.7188 61.1635L56.5125 138.001H34.375ZM49.4188 63.1385L151.85 44.751L165.119 118.676L139.694 123.238C138.875 123.382 138.15 123.851 137.681 124.532C137.206 125.213 137.025 126.057 137.169 126.87L141.737 152.295L67.8125 165.563L49.4188 63.1385ZM147.106 146.838L143.869 128.838L161.875 125.607L147.106 146.838Z" fill="#1A4875"/>
<path d="M102.422 92.2227C106.523 92.2227 110.218 93.1829 113.506 95.1035C116.826 96.9915 119.398 99.6771 121.221 103.16C123.076 106.643 124.004 110.663 124.004 115.221C124.004 123.196 121.595 129.316 116.777 133.58C111.992 137.844 104.733 139.977 95 139.977C86.6667 139.977 79.8633 138.691 74.5898 136.119V120.299C77.4219 121.601 80.612 122.675 84.1602 123.521C87.7409 124.368 90.8171 124.791 93.3887 124.791C96.9694 124.791 99.7201 124.042 101.641 122.545C103.561 121.015 104.521 118.769 104.521 115.807C104.521 113.072 103.545 110.94 101.592 109.41C99.6387 107.88 96.6764 107.115 92.7051 107.115C89.6777 107.115 86.4062 107.685 82.8906 108.824L75.8105 105.309L78.4961 67.6133H119.219V83.6777H94.9023L94.0234 93.1016C96.5625 92.6133 98.3691 92.3529 99.4434 92.3203C100.518 92.2552 101.51 92.2227 102.422 92.2227Z" fill="white"/>
<path d="M113.506 95.1035L111.993 97.6939L112.008 97.7027L112.023 97.7114L113.506 95.1035ZM121.221 103.16L118.563 104.551L118.568 104.561L118.573 104.571L121.221 103.16ZM116.777 133.58L114.789 131.334L114.781 131.34L116.777 133.58ZM74.5898 136.119H71.5898V137.994L73.2749 138.816L74.5898 136.119ZM74.5898 120.299L75.843 117.573L71.5898 115.618V120.299H74.5898ZM84.1602 123.521L83.4641 126.44L83.4701 126.441L84.1602 123.521ZM101.641 122.545L103.485 124.911L103.498 124.901L103.51 124.891L101.641 122.545ZM82.8906 108.824L81.5564 111.511L82.6519 112.055L83.8155 111.678L82.8906 108.824ZM75.8105 105.309L72.8181 105.095L72.6752 107.101L74.4763 107.996L75.8105 105.309ZM78.4961 67.6133V64.6133H75.7022L75.5037 67.4001L78.4961 67.6133ZM119.219 67.6133H122.219V64.6133H119.219V67.6133ZM119.219 83.6777V86.6777H122.219V83.6777H119.219ZM94.9023 83.6777V80.6777H92.1691L91.9153 83.3992L94.9023 83.6777ZM94.0234 93.1016L91.0364 92.823L90.6653 96.8023L94.59 96.0476L94.0234 93.1016ZM99.4434 92.3203L99.5342 95.3189L99.5796 95.3176L99.6248 95.3148L99.4434 92.3203ZM102.422 95.2227C106.034 95.2227 109.199 96.0622 111.993 97.6939L115.019 92.5131C111.237 90.3037 107.013 89.2227 102.422 89.2227V95.2227ZM112.023 97.7114C114.828 99.3063 116.998 101.562 118.563 104.551L123.879 101.769C121.797 97.7918 118.825 94.6768 114.989 92.4956L112.023 97.7114ZM118.573 104.571C120.164 107.557 121.004 111.079 121.004 115.221H127.004C127.004 110.248 125.989 105.73 123.868 101.75L118.573 104.571ZM121.004 115.221C121.004 122.559 118.814 127.771 114.789 131.334L118.766 135.826C124.376 130.86 127.004 123.833 127.004 115.221H121.004ZM114.781 131.34C110.77 134.915 104.366 136.977 95 136.977V142.977C105.1 142.977 113.214 140.774 118.773 135.82L114.781 131.34ZM95 136.977C86.9436 136.977 80.6337 135.729 75.9048 133.423L73.2749 138.816C79.0929 141.653 86.3897 142.977 95 142.977V136.977ZM77.5898 136.119V120.299H71.5898V136.119H77.5898ZM73.3366 123.025C76.3748 124.421 79.7558 125.555 83.4641 126.44L84.8562 120.603C81.4682 119.795 78.469 118.78 75.843 117.573L73.3366 123.025ZM83.4701 126.441C87.1888 127.32 90.5089 127.791 93.3887 127.791V121.791C91.1252 121.791 88.2929 121.416 84.8502 120.602L83.4701 126.441ZM93.3887 127.791C97.3352 127.791 100.84 126.973 103.485 124.911L99.796 120.179C98.5997 121.112 96.6036 121.791 93.3887 121.791V127.791ZM103.51 124.891C106.294 122.674 107.521 119.473 107.521 115.807H101.521C101.521 118.065 100.828 119.356 99.7714 120.198L103.51 124.891ZM107.521 115.807C107.521 112.258 106.202 109.21 103.442 107.048L99.7418 111.772C100.888 112.67 101.521 113.887 101.521 115.807H107.521ZM103.442 107.048C100.727 104.922 96.9722 104.115 92.7051 104.115V110.115C96.3807 110.115 98.5508 110.839 99.7418 111.772L103.442 107.048ZM92.7051 104.115C89.3033 104.115 85.7166 104.755 81.9658 105.97L83.8155 111.678C87.0959 110.615 90.0522 110.115 92.7051 110.115V104.115ZM84.2248 106.137L77.1448 102.622L74.4763 107.996L81.5564 111.511L84.2248 106.137ZM78.803 105.522L81.4885 67.8265L75.5037 67.4001L72.8181 105.095L78.803 105.522ZM78.4961 70.6133H119.219V64.6133H78.4961V70.6133ZM116.219 67.6133V83.6777H122.219V67.6133H116.219ZM119.219 80.6777H94.9023V86.6777H119.219V80.6777ZM91.9153 83.3992L91.0364 92.823L97.0105 93.3801L97.8894 83.9563L91.9153 83.3992ZM94.59 96.0476C97.1291 95.5593 98.7248 95.3435 99.5342 95.3189L99.3525 89.3217C98.0135 89.3623 95.9959 89.6673 93.4569 90.1555L94.59 96.0476ZM99.6248 95.3148C100.649 95.2527 101.581 95.2227 102.422 95.2227V89.2227C101.44 89.2227 100.386 89.2577 99.2619 89.3258L99.6248 95.3148Z" fill="#1E398F"/>
</svg>
