<svg width="27" height="27" viewBox="0 0 27 27" fill="none" xmlns="http://www.w3.org/2000/svg">
<g clip-path="url(#clip0)">
<path d="M13.5 0C6.0441 0 0 6.04408 0 13.4999C0 20.9558 6.0441 26.9999 13.5 26.9999C20.9559 26.9999 27 20.9558 27 13.4999C27 6.04408 20.9558 0 13.5 0ZM9.89817 20.0265H6.93411V10.4505H9.89817V20.0265ZM8.40201 9.19649C7.43398 9.19649 6.64922 8.40534 6.64922 7.42956C6.64922 6.45367 7.43409 5.66257 8.40201 5.66257C9.36994 5.66257 10.1547 6.45367 10.1547 7.42956C10.1547 8.40539 9.36999 9.19649 8.40201 9.19649ZM21.006 20.0265H18.0563V14.9999C18.0563 13.6213 17.5326 12.8517 16.4425 12.8517C15.256 12.8517 14.6362 13.6532 14.6362 14.9999V20.0265H11.7933V10.4505H14.6362V11.7403C14.6362 11.7403 15.4914 10.1584 17.5219 10.1584C19.5524 10.1584 21.006 11.3983 21.006 13.9632L21.006 20.0265Z" fill="url(#paint0_linear)"/>
</g>
<defs>
<linearGradient id="paint0_linear" x1="3.95405" y1="3.95403" x2="23.0458" y2="23.0459" gradientUnits="userSpaceOnUse">
<stop stop-color="#2489BE"/>
<stop offset="1" stop-color="#0575B3"/>
</linearGradient>
<clipPath id="clip0">
<rect width="27" height="27" fill="white"/>
</clipPath>
</defs>
</svg>
