<svg width="284" height="251" viewBox="0 0 284 251" fill="none" xmlns="http://www.w3.org/2000/svg">
<path d="M125.414 1.9834C109.128 1.98339 93.0023 5.19069 77.9566 11.4217C62.9109 17.6528 49.2407 26.7854 37.7252 38.2989C26.2097 49.8124 17.0744 63.4813 10.8423 78.5244C4.61012 93.5675 1.40283 109.69 1.40283 125.973C1.40283 142.255 4.61012 158.378 10.8423 173.421C17.0744 188.464 26.2097 202.133 37.7252 213.647C49.2407 225.16 62.9109 234.293 77.9566 240.524C93.0023 246.755 109.128 249.962 125.414 249.962C141.699 249.962 157.825 246.755 172.871 240.524C187.917 234.293 201.587 225.16 213.102 213.647C224.618 202.133 233.753 188.464 239.985 173.421C246.218 158.378 249.425 142.255 249.425 125.973C249.39 121.994 249.163 118.019 248.745 114.062L282.655 104.985L270.867 87.0109L272.087 65.5567L238.142 74.6514C228.299 53.0072 212.439 34.6489 192.452 21.7648C172.465 8.88078 149.195 2.0143 125.414 1.9834Z" fill="#EE7100" stroke="#373748" stroke-width="1.99968" stroke-linecap="round" stroke-linejoin="round"/>
<path d="M125.414 249.962C193.903 249.962 249.425 194.45 249.425 125.973C249.425 57.4954 193.903 1.9834 125.414 1.9834C56.9244 1.9834 1.40283 57.4954 1.40283 125.973C1.40283 194.45 56.9244 249.962 125.414 249.962Z" fill="#EE7100"/>
<path d="M125.414 225.962C180.647 225.962 225.422 181.195 225.422 125.972C225.422 70.7485 180.647 25.9803 125.414 25.9803C70.1811 25.9803 25.4058 70.7485 25.4058 125.972C25.4058 181.195 70.1811 225.962 125.414 225.962Z" fill="#F2F2F2"/>
<path d="M125.414 201.967C167.39 201.967 201.419 167.945 201.419 125.976C201.419 84.0065 167.39 49.9834 125.414 49.9834C83.4372 49.9834 49.4088 84.0065 49.4088 125.976C49.4088 167.945 83.4372 201.967 125.414 201.967Z" fill="#EE7100"/>
<path d="M125.414 177.965C154.134 177.965 177.416 154.688 177.416 125.973C177.416 97.2586 154.134 73.9805 125.414 73.9805C96.6938 73.9805 73.4116 97.2586 73.4116 125.973C73.4116 154.688 96.6938 177.965 125.414 177.965Z" fill="#F2F2F2"/>
<path d="M125.413 153.966C140.877 153.966 153.412 141.433 153.412 125.972C153.412 110.512 140.877 97.9774 125.413 97.9774C109.95 97.9774 97.4145 110.512 97.4145 125.972C97.4145 141.433 109.95 153.966 125.413 153.966Z" fill="#EE7100"/>
<path d="M125.413 129.965C127.62 129.965 129.409 128.177 129.409 125.97C129.409 123.764 127.62 121.974 125.413 121.974C123.206 121.974 121.417 123.764 121.417 125.97C121.417 128.177 123.206 129.965 125.413 129.965Z" fill="#F2F2F2" stroke="#F2F2F2" stroke-width="1.00033" stroke-linecap="round" stroke-linejoin="round"/>
<path fill-rule="evenodd" clip-rule="evenodd" d="M128.233 125.058L252.455 91.7782L128.233 125.058Z" fill="#5FD38D"/>
<path d="M128.233 125.058L252.455 91.7782" stroke="#373748" stroke-width="1.00033" stroke-linecap="round" stroke-linejoin="round"/>
<path d="M233.103 75.9975L272.081 65.5552L270.868 87.0094L282.648 104.982L243.669 115.425L231.889 97.4517L233.103 75.9975Z" fill="#1E398F"/>
</svg>
