<svg width="52" height="52" viewBox="0 0 52 52" fill="none" xmlns="http://www.w3.org/2000/svg">
<path d="M44.8093 12.9189C44.7687 12.8377 44.7281 12.7564 44.6468 12.6752L44.6062 12.6346C44.3218 12.3096 43.8343 12.2283 43.4687 12.3908L7.8812 21.4908C7.43433 21.6127 7.14995 21.9783 7.10933 22.4252C7.0687 22.8721 7.35308 23.2783 7.75933 23.4408L20.8 28.3158L22.3031 41.8846C22.3437 42.2908 22.6687 42.6564 23.075 42.7377C23.1562 42.7783 23.2375 42.7783 23.3187 42.7783C23.6437 42.7783 23.9687 42.6158 24.1312 42.3721L44.5249 14.0158C44.8906 13.7314 44.9718 13.2846 44.8093 12.9189ZM38.025 15.8439L21.6531 26.4064L11.5375 22.6283L38.025 15.8439ZM24.0906 39.0408L22.8718 28.0721L39.8937 17.1033L24.0906 39.0408Z" fill="white"/>
</svg>
