<svg width="214" height="188" viewBox="0 0 214 188" fill="none" xmlns="http://www.w3.org/2000/svg">
<path d="M56.836 39.3716C32.8705 39.3716 13.3682 58.8726 13.3682 82.8395C13.3682 106.806 32.8705 126.307 56.836 126.307C80.801 126.307 100.304 106.806 100.304 82.8395C100.304 58.8726 80.801 39.3716 56.836 39.3716ZM53.4924 46.7381V59.4337H29.0547C35.0869 52.2688 43.616 47.6709 53.4924 46.7381ZM60.1797 46.7381C70.0558 47.6709 78.5852 52.2688 84.6173 59.4337H60.1797V46.7381ZM24.5486 66.1211H53.4924V79.4958H20.7347C21.1895 74.6772 22.423 70.2123 24.5486 66.1211ZM60.1797 66.1211H89.1235C91.2492 70.2123 92.4823 74.6772 92.9374 79.4958H60.1797V66.1211ZM20.7347 86.1832H53.4924V99.5579H24.5486C22.423 95.4666 21.1897 91.0017 20.7347 86.1832ZM60.1797 86.1832H92.9374C92.4826 91.0017 91.2492 95.4666 89.1235 99.5579H60.1797V86.1832ZM29.0547 106.245H53.4924V118.941C43.616 118.008 35.0869 113.41 29.0547 106.245ZM60.1797 106.245H84.6173C78.5852 113.41 70.0558 118.008 60.1797 118.941V106.245Z" fill="#EE7100"/>
<path fill-rule="evenodd" clip-rule="evenodd" d="M39.9349 44.2305C29.5206 69.8761 27.7937 94.5142 39.1643 121.174L45.3162 118.549C34.6104 93.4477 36.1751 71.2876 46.139 46.7513L39.9349 44.2305ZM73.4371 44.2305L67.233 46.7513C77.1968 71.2877 78.7616 93.4477 68.0558 118.549L74.2077 121.174C85.5783 94.5142 83.8514 69.876 73.4371 44.2305Z" fill="#EE7100"/>
<path d="M12.8267 141.751V152.915H16.1393V149.905H17.8913C20.7739 149.905 22.4302 148.376 22.4302 145.716C22.4302 143.184 20.7739 141.751 17.8913 141.751H12.8267ZM16.1393 144.299H17.732C18.7194 144.299 19.2928 144.841 19.2928 145.812C19.2928 146.815 18.7196 147.357 17.732 147.357H16.1393V144.299ZM30.329 151.131L30.9822 152.915H34.5178L29.9152 141.751H26.5069L21.7451 152.915H25.1532L25.8221 151.131H30.3293H30.329ZM29.453 148.711H26.7455L28.1152 145.063L29.453 148.711ZM39.8719 141.607C37.0848 141.607 35.2534 142.977 35.2534 145.127C35.2534 149.061 41.0824 147.994 41.0824 149.682C41.0824 150.192 40.6364 150.431 39.9357 150.431C38.789 150.431 36.9257 149.698 35.779 148.727L34.5367 151.243C35.9383 152.342 38.0086 153.011 39.9039 153.011C42.4043 153.011 44.5067 151.88 44.5067 149.507C44.5067 145.478 38.6776 146.449 38.6776 144.809C38.6776 144.395 39.0441 144.203 39.6013 144.203C40.541 144.203 42.1654 144.793 43.3121 145.446L44.5384 142.897C43.328 142.117 41.5761 141.607 39.8719 141.607ZM50.2926 141.607C47.5054 141.607 45.6739 142.977 45.6739 145.127C45.6739 149.061 51.5029 147.994 51.5029 149.682C51.5029 150.192 51.0569 150.431 50.3563 150.431C49.2096 150.431 47.3462 149.698 46.1995 148.727L44.9573 151.243C46.3587 152.342 48.4292 153.011 50.3244 153.011C52.8248 153.011 54.9271 151.88 54.9271 149.507C54.9271 145.478 49.0981 146.449 49.0981 144.809C49.0981 144.395 49.4645 144.203 50.0218 144.203C50.9614 144.203 52.5859 144.793 53.7326 145.446L54.9589 142.897C53.7485 142.117 51.9967 141.607 50.2926 141.607ZM56.1263 141.751V152.915H59.4389V149.905H61.1909C64.0736 149.905 65.7299 148.376 65.7299 145.716C65.7299 143.184 64.0736 141.751 61.1909 141.751H56.1263ZM59.4389 144.299H61.0316C62.0191 144.299 62.5924 144.841 62.5924 145.812C62.5924 146.815 62.0193 147.357 61.0316 147.357H59.4389V144.299ZM72.4603 141.655C68.9565 141.655 66.3764 144.044 66.3764 147.325C66.3764 150.622 68.9565 153.058 72.4603 153.058C75.9641 153.058 78.5441 150.606 78.5441 147.325C78.5441 144.06 75.9641 141.655 72.4603 141.655ZM72.507 144.426C73.9722 144.426 75.1508 145.653 75.1508 147.341C75.1508 149.029 73.9722 150.287 72.507 150.287C71.0418 150.287 69.7677 149.029 69.7677 147.341C69.7677 145.653 71.0259 144.426 72.507 144.426ZM86.3438 152.915H90.1023L87.8408 149.268C89.0512 148.583 89.72 147.373 89.72 145.716C89.72 143.184 88.0001 141.751 85.006 141.751H79.7981V152.915H83.1107V149.905H84.8626L86.3438 152.915ZM83.1107 147.357V144.299H85.006C85.9933 144.299 86.5668 144.841 86.5668 145.812C86.5668 146.815 85.9936 147.357 85.006 147.357H83.1107ZM100.305 144.395V141.751H90.4942V144.395H93.7274V152.915H97.0559V144.395H100.305Z" fill="#EE7100"/>
<path d="M123.398 38.1575L124.234 44.7926C130.831 43.9668 137.598 45.3102 143.982 48.2408L137.569 59.3559L124.116 51.5845L120.773 57.3706L134.226 65.142L127.538 76.7274L124.769 75.1209L121.426 80.907L124.208 82.5135L120.577 88.796L126.363 92.1397L129.994 85.8572L158.062 102.066C155.234 106.008 151.763 109.15 147.849 111.614L125.344 98.6181L122 104.404L140.495 115.088C135.273 116.882 129.898 118.489 124.338 117.818L123.542 124.453C140.312 126.475 157.447 118.541 166.409 103.02C178.392 82.2635 171.254 55.6258 150.5 43.6432C141.989 38.731 132.465 37.0225 123.398 38.1575ZM149.716 51.702C157.803 57.449 162.901 65.6899 164.541 74.9119L143.369 62.6996L149.716 51.702ZM140.025 68.4857L165.089 82.9576C164.883 87.563 163.723 92.0502 161.707 96.4499L133.338 80.0711L140.025 68.4857Z" fill="#EE7100"/>
<path fill-rule="evenodd" clip-rule="evenodd" d="M133.442 39.3977C129.055 42.8125 124.98 46.3595 121.255 50.0818L125.984 54.81C129.488 51.3073 133.346 47.9418 137.543 44.6745L133.442 39.3977ZM155.816 55.228C152.176 81.4588 142.464 101.432 120.642 117.818L124.651 123.173C147.829 105.77 158.634 83.572 162.438 56.1553L155.816 55.228Z" fill="#EE7100"/>
<path d="M135.633 156.329L136.955 154.04L128.459 149.134L127.137 151.424L129.937 153.04L125.677 160.419L128.559 162.084L132.82 154.705L135.633 156.329Z" fill="#EE7100"/>
<path d="M114.84 0.814802L115.336 0.854926C115.172 0.829241 115.006 0.815829 114.84 0.814802ZM115.336 0.854926C112.3 0.404866 109.068 1.75819 107.434 4.57738L98.4606 20.0941C98.1384 20.6434 97.9797 21.2733 98.0033 21.9097L98.0434 22.7979C98.0805 23.6595 98.4491 24.4735 99.0721 25.0698C99.6952 25.6661 100.525 25.9986 101.387 25.9979H106.99C114.458 25.9979 120.365 31.9052 120.365 39.3726V153.058C120.365 160.246 114.868 165.909 107.787 166.328C107.066 166.367 106.377 166.639 105.823 167.102C105.27 167.565 104.881 168.195 104.715 168.898C104.548 169.601 104.614 170.338 104.902 171C105.19 171.662 105.684 172.214 106.311 172.571L115.48 177.874C125.056 183.403 137.355 180.094 142.883 170.521L199.725 72.065C205.252 62.4919 201.959 50.191 192.385 44.6624L151.843 21.2566L140.714 14.8305L118.275 1.87368C117.334 1.33 116.332 1.00245 115.336 0.854926H115.336ZM114.356 7.46392C114.561 7.49735 114.742 7.56356 114.931 7.67256L137.37 20.6293L148.498 27.0555L189.04 50.4613C195.508 54.196 197.673 62.2523 193.938 68.7209L137.096 167.177C133.361 173.645 125.289 175.808 118.823 172.075L114.97 169.854C121.697 166.632 127.052 161.008 127.052 153.058V39.3723C127.052 28.3157 118.046 19.3102 106.989 19.3102H106.624L113.22 7.92073C113.423 7.56831 113.795 7.38039 114.356 7.46332L114.356 7.46392Z" fill="#1E398F"/>
<path d="M60.1818 19.3094C59.7387 19.3032 59.2987 19.385 58.8876 19.5502C58.4764 19.7155 58.1022 19.9608 57.7867 20.2719C57.4711 20.583 57.2206 20.9537 57.0496 21.3625C56.8786 21.7713 56.7905 22.21 56.7905 22.6531C56.7905 23.0962 56.8786 23.5349 57.0496 23.9437C57.2206 24.3525 57.4711 24.7232 57.7867 25.0343C58.1022 25.3454 58.4764 25.5907 58.8876 25.756C59.2987 25.9212 59.7387 26.003 60.1818 25.9968H106.993C114.461 25.9968 120.368 31.9041 120.368 39.3715V153.057C120.368 160.524 114.461 166.431 106.993 166.431H60.1818C59.7387 166.425 59.2987 166.507 58.8876 166.672C58.4764 166.838 58.1022 167.083 57.7867 167.394C57.4711 167.705 57.2206 168.076 57.0496 168.485C56.8786 168.893 56.7905 169.332 56.7905 169.775C56.7905 170.218 56.8786 170.657 57.0496 171.066C57.2206 171.475 57.4711 171.845 57.7867 172.156C58.1022 172.467 58.4764 172.713 58.8876 172.878C59.2987 173.043 59.7387 173.125 60.1818 173.119H106.993C118.05 173.119 127.055 164.113 127.055 153.057V39.3715C127.055 28.3149 118.05 19.3094 106.993 19.3094H60.1818Z" fill="#1E398F"/>
<path d="M8.05196 19.3093C3.75874 19.3093 -0.00683594 22.7063 -0.00683594 27.0677V165.36C-0.00683594 169.722 3.75927 173.119 8.05196 173.119H33.9524H46.8047H93.6163C104.673 173.119 113.678 164.113 113.678 153.057V39.3714C113.678 28.3148 104.673 19.3093 93.6163 19.3093H46.8047H33.9524H8.05196ZM8.05196 25.9967H33.9524H46.8047H93.6163C101.084 25.9967 106.991 31.904 106.991 39.3714V153.057C106.991 160.524 101.084 166.431 93.6163 166.431H46.8047H33.9524H8.05196C7.12429 166.431 6.68053 165.895 6.68053 165.36V27.0677C6.68053 26.534 7.12523 25.9967 8.05196 25.9967Z" fill="#1E398F"/>
<path d="M161.508 27.4722C160.787 27.5172 160.1 27.7943 159.55 28.2622C159 28.7301 158.616 29.3635 158.455 30.0678C158.295 30.7721 158.367 31.5093 158.661 32.1692C158.954 32.8291 159.454 33.3762 160.084 33.7286L200.626 57.1344C207.094 60.8688 209.245 68.9404 205.511 75.4071L148.669 173.863C144.935 180.33 136.876 182.495 130.409 178.761L109.093 166.457C108.712 166.217 108.287 166.055 107.843 165.983C107.398 165.911 106.944 165.93 106.507 166.037C106.07 166.145 105.659 166.34 105.299 166.61C104.939 166.881 104.637 167.221 104.412 167.611C104.186 168.001 104.042 168.432 103.987 168.879C103.933 169.326 103.969 169.779 104.094 170.212C104.219 170.645 104.43 171.047 104.715 171.397C104.999 171.746 105.351 172.034 105.749 172.243L127.065 184.547C136.641 190.075 148.94 186.782 154.468 177.207L211.311 78.7508C216.839 69.1757 213.545 56.8772 203.97 51.3482L163.428 27.9424C162.85 27.5958 162.181 27.432 161.508 27.4723V27.4722Z" fill="#1E398F"/>
</svg>
