<svg width="26" height="19" viewBox="0 0 26 19" fill="none" xmlns="http://www.w3.org/2000/svg">
<path fill-rule="evenodd" clip-rule="evenodd" d="M0 0H26V19H0V0Z" fill="#229E45"/>
<path fill-rule="evenodd" clip-rule="evenodd" d="M13.0573 17.2557L25.305 9.51039L12.9831 1.74414L0.695251 9.52896L13.0573 17.2556V17.2557Z" fill="#F8E509"/>
<path fill-rule="evenodd" clip-rule="evenodd" d="M18.3938 9.50026C18.3938 12.2841 16.074 14.5408 13.2123 14.5408C10.3506 14.5408 8.03082 12.2841 8.03082 9.50026C8.03082 6.71644 10.3507 4.45972 13.2123 4.45972C16.074 4.45972 18.3938 6.71644 18.3938 9.50026H18.3938Z" fill="#2B49A3"/>
<path fill-rule="evenodd" clip-rule="evenodd" d="M11.509 12.519L11.3488 12.429L11.1825 12.5092L11.2197 12.3291L11.0913 12.1972L11.2749 12.1762L11.3612 12.0147L11.4381 12.1818L11.6193 12.2138L11.4834 12.3377L11.509 12.519ZM14.9812 13.3758L14.8211 13.2857L14.6549 13.3659L14.6921 13.1858L14.5637 13.0539L14.7473 13.0329L14.8335 12.8714L14.9105 13.0385L15.0917 13.0705L14.9558 13.1944L14.9812 13.3758ZM13.4845 12.0072L13.3463 11.9295L13.2026 11.9986L13.2348 11.8431L13.1239 11.7291L13.2825 11.711L13.357 11.5715L13.4234 11.7158L13.58 11.7435L13.4626 11.8506L13.4845 12.0072ZM16.9915 11.5151L16.8557 11.4387L16.7146 11.5067L16.7462 11.354L16.6373 11.2421L16.793 11.2243L16.8662 11.0874L16.9315 11.2291L17.0851 11.2562L16.9699 11.3614L16.9915 11.5151ZM13.4212 10.4906L13.2611 10.4007L13.0948 10.4808L13.132 10.3007L13.0036 10.1688L13.1873 10.1478L13.2735 9.98635L13.3505 10.1534L13.5317 10.1855L13.3957 10.3093L13.4212 10.4906ZM9.1458 8.9267L8.98574 8.83669L8.81942 8.91684L8.85663 8.73682L8.72825 8.60489L8.91188 8.58391L8.99809 8.42241L9.07503 8.58945L9.25622 8.62151L9.12033 8.74541L9.1458 8.9267ZM9.65995 11.0072L9.49988 10.9172L9.33357 10.9973L9.37078 10.8173L9.2424 10.6853L9.42603 10.6643L9.51228 10.5028L9.58922 10.6699L9.77041 10.7019L9.63452 10.8259L9.65995 11.0072ZM14.9951 8.16076L14.8538 8.08132L14.7069 8.15209L14.7398 7.99309L14.6263 7.87655L14.7885 7.85795L14.8647 7.71533L14.9327 7.8629L15.0927 7.8912L14.9727 8.00069L14.9951 8.16076ZM14.7019 9.51436L14.5906 9.45173L14.4748 9.50747L14.5008 9.38223L14.4114 9.29039L14.5392 9.27583L14.5992 9.16349L14.6528 9.27971L14.7788 9.30199L14.6843 9.38828L14.7019 9.51436ZM8.90745 11.3842L8.80061 11.3241L8.68954 11.3776L8.71432 11.2574L8.6286 11.1693L8.75129 11.1553L8.80881 11.0475L8.86016 11.159L8.98114 11.1804L8.89043 11.2631L8.90745 11.3842ZM17.0211 11.8634L16.934 11.8185L16.8435 11.8584L16.8639 11.7686L16.794 11.7026L16.8939 11.6922L16.9408 11.6115L16.9826 11.6949L17.0812 11.7109L17.0073 11.7728" fill="#FFFFEF"/>
<path fill-rule="evenodd" clip-rule="evenodd" d="M8.90745 11.3843L8.8006 11.3242L8.68954 11.3777L8.71432 11.2575L8.6286 11.1694L8.75129 11.1554L8.80881 11.0476L8.86016 11.1592L8.98114 11.1805L8.89043 11.2633" fill="#FFFFEF"/>
<path fill-rule="evenodd" clip-rule="evenodd" d="M8.90745 11.3844L8.80061 11.3243L8.68954 11.3778L8.71432 11.2576L8.6286 11.1695L8.75129 11.1555L8.80881 11.0477L8.86016 11.1593L8.98114 11.1806L8.89043 11.2634L8.90745 11.3844ZM10.6088 11.384L10.502 11.3238L10.391 11.3774L10.4157 11.2572L10.33 11.1691L10.4527 11.1551L10.5102 11.0474L10.5616 11.1589L10.6826 11.1802L10.5919 11.263L10.6088 11.384ZM10.3975 11.9354L10.2906 11.8754L10.1795 11.9289L10.2044 11.8086L10.1187 11.7205L10.2413 11.7065L10.2988 11.5987L10.3502 11.7102L10.4711 11.7316L10.3804 11.8143L10.3975 11.9354ZM13.9303 10.9316L13.8234 10.8714L13.7124 10.925L13.7372 10.8048L13.6515 10.7167L13.7741 10.7027L13.8316 10.5949L13.883 10.7064L14.004 10.7278L13.9133 10.8105L13.9303 10.9316ZM12.8936 10.9312L12.7868 10.8711L12.6757 10.9246L12.7006 10.8044L12.6148 10.7163L12.7375 10.7023L12.795 10.5945L12.8464 10.706L12.9674 10.7274L12.8767 10.8101L12.8936 10.9312ZM10.0817 10.579L10.0147 10.5414L9.94509 10.5749L9.96069 10.4996L9.90695 10.4444L9.98373 10.4356L10.0199 10.3681L10.0521 10.438L10.1278 10.4514L10.0709 10.5033L10.0817 10.579ZM16.8893 12.2997L16.7825 12.2396L16.6715 12.2931L16.6963 12.1729L16.6106 12.0848L16.7332 12.0708L16.7907 11.963L16.8421 12.0745L16.9631 12.0959L16.8723 12.1786L16.8893 12.2997ZM16.026 12.4099L15.9376 12.3601L15.8456 12.4045L15.8662 12.3046L15.7952 12.2315L15.8967 12.2199L15.9444 12.1303L15.987 12.2229L16.0872 12.2408L16.012 12.3094L16.026 12.4099ZM16.4334 12.4004L16.3509 12.3539L16.2652 12.3952L16.2844 12.3025L16.2182 12.2345L16.3129 12.2236L16.3573 12.1404L16.3969 12.2265L16.4902 12.243L16.4202 12.307L16.4334 12.4004ZM17.6028 11.406L17.5234 11.3613L17.4409 11.4011L17.4593 11.3118L17.3957 11.2463L17.4868 11.2359L17.5296 11.1558L17.5678 11.2386L17.6575 11.2545L17.5902 11.316L17.6028 11.406ZM16.0159 12.9711L15.9121 12.9159L15.8044 12.965L15.8285 12.8547L15.7452 12.7739L15.8643 12.761L15.9202 12.662L15.97 12.7644L16.0874 12.784L15.9994 12.86L16.0159 12.9711ZM16.0217 13.424L15.927 13.3688L15.8288 13.4178L15.8508 13.3076L15.7749 13.2267L15.8835 13.2138L15.9344 13.1149L15.9799 13.2172L16.087 13.2369L16.0067 13.3128L16.0217 13.424ZM15.2377 12.4002L15.1583 12.3555L15.0757 12.3953L15.0942 12.3059L15.0305 12.2405L15.1216 12.2301L15.1644 12.1499L15.2026 12.2328L15.2925 12.2487L15.225 12.3102L15.2377 12.4002ZM14.5027 12.4002L14.4233 12.3555L14.3408 12.3953L14.3593 12.3059L14.2955 12.2405L14.3867 12.2301L14.4294 12.1499L14.4676 12.2328L14.5574 12.2487L14.4901 12.3102L14.5027 12.4002ZM13.2547 11.3369L13.1753 11.2922L13.0928 11.332L13.1113 11.2426L13.0476 11.1771L13.1387 11.1667L13.1815 11.0866L13.2197 11.1695L13.3095 11.1854L13.2421 11.2469L13.2547 11.3369ZM13.3938 13.5041L13.3265 13.4662L13.2566 13.4999L13.2723 13.4243L13.2183 13.3688L13.2955 13.36L13.3318 13.2921L13.3641 13.3623L13.4402 13.3757L13.383 13.4278L13.3938 13.5041ZM11.509 9.99872L11.3488 9.9087L11.1825 9.98886L11.2198 9.80883L11.0913 9.67686L11.275 9.65588L11.3612 9.49438L11.4382 9.66143L11.6194 9.69349L11.4835 9.81746" fill="#FFFFEF"/>
<path fill-rule="evenodd" clip-rule="evenodd" d="M18.0524 11.3137C18.1314 11.1125 18.2332 10.809 18.2873 10.5305C15.5353 8.17494 12.4674 6.96824 8.59098 7.21654C8.45196 7.47613 8.34073 7.74787 8.24689 8.04198C12.8401 7.61503 16.2068 9.59641 18.0525 11.3137L18.0524 11.3137Z" fill="white"/>
<path d="M16.8153 9.98927L16.9136 10.0416C16.8981 10.0756 16.8941 10.1054 16.901 10.1307C16.9083 10.1562 16.9264 10.1785 16.9552 10.1975C16.9857 10.2179 17.0131 10.2268 17.0371 10.2244C17.0615 10.2221 17.0796 10.2123 17.0914 10.1954C17.0985 10.1854 17.1018 10.1733 17.1005 10.1612C17.0994 10.1493 17.0927 10.1351 17.0804 10.1187C17.0719 10.1076 17.0511 10.0841 17.0182 10.0483C16.976 10.0024 16.9508 9.9637 16.9427 9.93211C16.9313 9.8877 16.9382 9.8474 16.9634 9.81099C16.9796 9.78763 17.0014 9.77022 17.0289 9.75882C17.0567 9.74734 17.0871 9.74476 17.1199 9.75098C17.1528 9.75719 17.1875 9.77235 17.2235 9.79622C17.2825 9.83529 17.3181 9.87729 17.3303 9.92226C17.3427 9.9673 17.3351 10.0114 17.3074 10.0547L17.2097 9.99592C17.2219 9.9696 17.2249 9.94684 17.2186 9.92772C17.2126 9.90852 17.1962 9.89011 17.1694 9.87242C17.1419 9.85421 17.1165 9.84542 17.0933 9.84618C17.0863 9.84615 17.0795 9.84784 17.0734 9.85108C17.0673 9.85432 17.0622 9.859 17.0585 9.8647C17.0509 9.87566 17.0492 9.88805 17.0532 9.90203C17.0585 9.91984 17.0803 9.94925 17.1192 9.99046C17.1579 10.0316 17.1844 10.0653 17.1984 10.0913C17.2129 10.1173 17.2194 10.1443 17.218 10.1724C17.2171 10.2004 17.2065 10.2289 17.1864 10.2579C17.1683 10.2842 17.1427 10.3047 17.1128 10.317C17.0819 10.3301 17.049 10.3333 17.0138 10.3265C16.9789 10.3195 16.9409 10.3025 16.9001 10.2755C16.8407 10.2362 16.8043 10.1926 16.791 10.1448C16.7779 10.0968 16.7859 10.045 16.8153 9.98947L16.8153 9.98927ZM16.349 9.69109L16.4494 9.73938C16.4354 9.7739 16.4325 9.80382 16.4405 9.82884C16.4489 9.85405 16.4678 9.87567 16.4973 9.89356C16.5288 9.91264 16.5564 9.92047 16.5803 9.91715C16.6047 9.91374 16.6225 9.90345 16.6334 9.88604C16.6402 9.87587 16.643 9.86361 16.6411 9.8516C16.6396 9.83964 16.6323 9.82567 16.6192 9.80972C16.6102 9.79895 16.5887 9.77647 16.5543 9.74191C16.5101 9.6977 16.4834 9.65998 16.4739 9.62871C16.4608 9.58477 16.4661 9.54427 16.4896 9.50691C16.5048 9.48304 16.5268 9.46405 16.553 9.45228C16.5803 9.43977 16.6106 9.43593 16.6435 9.4408C16.6768 9.44583 16.712 9.45953 16.749 9.48197C16.8096 9.51862 16.8468 9.55924 16.8608 9.60365C16.875 9.64822 16.8693 9.69259 16.8435 9.73685L16.7434 9.68202C16.7545 9.65527 16.7566 9.63247 16.7495 9.61362C16.7426 9.59454 16.7255 9.57681 16.6981 9.56019C16.6698 9.54305 16.6441 9.53533 16.6209 9.53699C16.6059 9.53798 16.5946 9.54471 16.5869 9.55694C16.5799 9.5681 16.5786 9.58045 16.5832 9.59431C16.5891 9.61184 16.6122 9.64042 16.6527 9.68012C16.6931 9.71971 16.7209 9.75224 16.736 9.7777C16.7515 9.80303 16.7591 9.82987 16.7589 9.85793C16.7592 9.88596 16.7497 9.91481 16.7309 9.94474C16.7138 9.97161 16.6891 9.99312 16.6598 10.0067C16.6295 10.0209 16.5966 10.0254 16.5612 10.02C16.5261 10.0144 16.4875 9.99877 16.4455 9.97348C16.3846 9.93654 16.3465 9.89447 16.3311 9.8472C16.3159 9.7997 16.3218 9.74769 16.3489 9.69113L16.349 9.69109ZM15.7719 9.5404L16.0674 9.06674L16.4264 9.28112L16.3765 9.36132L16.1153 9.20528L16.0496 9.31026L16.2927 9.45545L16.2429 9.53521L15.9998 9.39006L15.9195 9.51894L16.19 9.68044L16.1401 9.76028L15.7719 9.54032L15.7719 9.5404ZM14.9312 8.86776L14.9751 8.78463L15.1945 8.89531L15.0911 9.09172C15.059 9.10114 15.0187 9.10343 14.9699 9.09845C14.9229 9.09372 14.8772 9.08048 14.8352 9.05942C14.7824 9.03278 14.7421 8.99893 14.7143 8.95761C14.6867 8.91696 14.6729 8.86894 14.6747 8.82026C14.6765 8.76911 14.69 8.71902 14.7144 8.67368C14.7414 8.6223 14.7765 8.58224 14.8196 8.55335C14.8625 8.52457 14.911 8.5102 14.9646 8.5102C15.0056 8.51012 15.0501 8.52231 15.0983 8.54646C15.1609 8.57813 15.203 8.61561 15.2244 8.65911C15.2463 8.7025 15.2503 8.74936 15.2365 8.79983L15.1257 8.76737C15.1314 8.73959 15.128 8.7137 15.1155 8.68991C15.1035 8.66592 15.0828 8.64656 15.0535 8.63172C15.0089 8.60928 14.9663 8.6052 14.9253 8.61965C14.8847 8.63402 14.8502 8.66834 14.8216 8.72256C14.7907 8.78115 14.7807 8.83181 14.7919 8.87464C14.8032 8.91712 14.8302 8.9493 14.8735 8.97111C14.8948 8.9818 14.9182 8.98852 14.9438 8.99118C14.9698 8.99379 14.9933 8.99316 15.015 8.9892L15.0479 8.92658L14.9312 8.8678L14.9312 8.86776ZM11.2652 7.98192L11.3478 7.43302L11.5173 7.45756L11.5629 7.84651L11.7197 7.48658L11.8899 7.51104L11.8073 8.06006L11.702 8.04494L11.767 7.61277L11.5906 8.02887L11.4815 8.01311L11.4355 7.56503L11.3705 7.99708L11.2652 7.98196V7.98192ZM10.692 7.91708L10.745 7.3645L11.1638 7.40306L11.1549 7.49647L10.8501 7.46853L10.8384 7.59104L11.1218 7.61704L11.1129 7.71014L10.8293 7.6841L10.815 7.83451L11.1304 7.86341L11.1215 7.95659L10.692 7.91708H10.692Z" fill="#309E3A"/>
<path d="M8.79528 7.57145C8.7969 7.51485 8.80681 7.46774 8.82518 7.42974C8.83879 7.40196 8.85729 7.37672 8.87986 7.35517C8.90285 7.33332 8.92779 7.31733 8.95477 7.30727C8.99052 7.29354 9.03147 7.28728 9.07758 7.28847C9.16111 7.29085 9.22716 7.31792 9.27571 7.3699C9.32466 7.42195 9.34782 7.49316 9.34534 7.58345C9.3429 7.6729 9.31609 7.74245 9.26482 7.79181C9.21363 7.8409 9.14644 7.86441 9.0632 7.86215C8.97882 7.85994 8.91256 7.83302 8.86414 7.78152C8.81579 7.72975 8.79284 7.65968 8.79532 7.57145H8.79528Z" fill="#309E3A"/>
<path d="M8.91369 7.57037C8.91195 7.63315 8.92547 7.68121 8.9542 7.71458C8.98296 7.74771 9.02021 7.76485 9.06583 7.76603C9.11142 7.76722 9.14932 7.75218 9.17934 7.72099C9.20961 7.68944 9.22565 7.64154 9.22744 7.57718C9.22919 7.51365 9.21619 7.46583 9.18844 7.43381C9.16098 7.40175 9.12364 7.38512 9.07644 7.38386C9.02923 7.38267 8.99072 7.39751 8.96094 7.42851C8.93116 7.45926 8.91544 7.50656 8.91369 7.57037Z" fill="#F7FFFF"/>
<path d="M9.46771 7.85782L9.47433 7.30298L9.71536 7.30575C9.77606 7.30646 9.81993 7.31196 9.84715 7.32237C9.87465 7.33255 9.89647 7.35048 9.91268 7.37621C9.92889 7.40194 9.93677 7.43103 9.9364 7.46388C9.93587 7.50553 9.92292 7.53981 9.89757 7.56672C9.87226 7.59344 9.8346 7.61007 9.78475 7.6166C9.80933 7.63097 9.8296 7.64668 9.84528 7.66382C9.86141 7.68084 9.88278 7.71112 9.90967 7.75458L9.97764 7.8636L9.84065 7.86201L9.75932 7.74033C9.73047 7.69687 9.71065 7.66956 9.70001 7.65832C9.68924 7.64684 9.67787 7.63904 9.6658 7.63484C9.65373 7.63049 9.63452 7.62812 9.60819 7.62784L9.58504 7.62752L9.58227 7.85916L9.46771 7.85786V7.85782Z" fill="#309E3A"/>
<path d="M9.58667 7.53924L9.67141 7.54019C9.72638 7.54082 9.76071 7.539 9.77444 7.53457C9.78813 7.53013 9.79893 7.52249 9.80677 7.51145C9.81462 7.50041 9.81868 7.48663 9.81896 7.46997C9.81912 7.45128 9.81417 7.4362 9.80393 7.42476C9.79406 7.41304 9.7798 7.40552 9.76128 7.40232C9.75193 7.40097 9.7241 7.39994 9.67771 7.39947L9.58834 7.39844L9.58671 7.53916L9.58667 7.53924Z" fill="white"/>
<path d="M10.1158 7.33061L10.3249 7.3409C10.372 7.34327 10.4078 7.34862 10.4322 7.35693C10.4643 7.3678 10.4929 7.38689 10.5149 7.41219C10.5373 7.43776 10.5538 7.46863 10.5644 7.50481C10.5749 7.54071 10.5788 7.58457 10.5761 7.63647C10.5738 7.68211 10.5659 7.7211 10.5526 7.75363C10.5363 7.79322 10.5145 7.82476 10.4868 7.84847C10.4661 7.86641 10.4385 7.87975 10.4042 7.88869C10.3785 7.89526 10.3446 7.89748 10.3022 7.89542L10.0871 7.88473L10.1158 7.33057V7.33061Z" fill="#309E3A"/>
<path d="M10.2258 7.42948L10.2068 7.79658L10.2922 7.80073C10.3241 7.8024 10.3473 7.80172 10.3617 7.79891C10.3803 7.79523 10.3962 7.78831 10.4088 7.77809C10.4218 7.7678 10.4328 7.75058 10.4417 7.72624C10.4508 7.7017 10.4563 7.66805 10.4586 7.62518C10.4609 7.58231 10.4586 7.54926 10.4521 7.52595C10.4456 7.50259 10.4357 7.48427 10.4224 7.47065C10.4092 7.45711 10.392 7.44757 10.3708 7.44199C10.355 7.43764 10.3238 7.43435 10.2772 7.4321L10.2258 7.42944L10.2258 7.42948Z" fill="white"/>
<path d="M12.9036 8.32126L13.036 7.78174L13.2148 7.8237C13.2825 7.83961 13.326 7.85267 13.3452 7.86288C13.3749 7.8784 13.397 7.90231 13.4116 7.93453C13.4262 7.96659 13.4282 8.004 13.4178 8.04695C13.4096 8.08004 13.3967 8.10648 13.3788 8.12611C13.361 8.1459 13.341 8.15992 13.3187 8.16847C13.2968 8.17686 13.2755 8.18074 13.2549 8.18034C13.2271 8.17923 13.1879 8.17282 13.1375 8.16095L13.065 8.14385L13.015 8.34738L12.9036 8.32126H12.9036Z" fill="#309E3A"/>
<path d="M13.125 7.89893L13.0874 8.05203L13.1483 8.06636C13.1923 8.07665 13.2223 8.08077 13.2384 8.07855C13.2539 8.07668 13.2684 8.07016 13.28 8.05988C13.2915 8.04961 13.2994 8.03611 13.3027 8.02124C13.3076 8.0016 13.3056 7.98403 13.297 7.96859C13.2885 7.95312 13.2747 7.94096 13.2581 7.93415C13.2454 7.92849 13.2191 7.92101 13.1789 7.91159L13.1251 7.89893H13.125Z" fill="white"/>
<path d="M13.431 8.47495L13.6195 7.95166L13.8469 8.03004C13.9041 8.04975 13.9439 8.06883 13.9663 8.08723C13.989 8.10556 14.0038 8.12935 14.0107 8.15876C14.0176 8.18817 14.0155 8.21833 14.0043 8.24925C13.9902 8.28852 13.9666 8.31694 13.9338 8.33447C13.9011 8.35181 13.86 8.35573 13.8106 8.34627C13.8292 8.36764 13.8432 8.38886 13.8525 8.41C13.8621 8.43121 13.8724 8.4666 13.8835 8.5162L13.9121 8.64089L13.783 8.59632L13.7459 8.45556C13.7328 8.40529 13.723 8.37322 13.7166 8.35917C13.7102 8.34492 13.702 8.33392 13.692 8.32616C13.682 8.31816 13.6646 8.30993 13.6397 8.30134L13.6179 8.29374L13.5392 8.51224L13.4312 8.47495H13.431Z" fill="#309E3A"/>
<path d="M13.6478 8.21068L13.7277 8.23819C13.7795 8.25608 13.8126 8.26511 13.827 8.26523C13.8414 8.26543 13.8542 8.26155 13.8653 8.25355C13.8764 8.24564 13.8847 8.23376 13.8903 8.21809C13.8966 8.20047 13.8969 8.18464 13.891 8.17058C13.8856 8.15633 13.8745 8.14486 13.858 8.13591C13.8496 8.13171 13.8236 8.12206 13.7798 8.10701L13.6956 8.07788L13.6477 8.21072L13.6478 8.21068Z" fill="white"/>
<path d="M14.0972 8.4551C14.1145 8.40115 14.1371 8.35836 14.1652 8.32685C14.186 8.30364 14.2109 8.2842 14.2387 8.26945C14.2669 8.25453 14.2954 8.24578 14.3241 8.24313C14.3622 8.23945 14.4034 8.24432 14.4475 8.25778C14.5273 8.28208 14.5833 8.32574 14.6157 8.38872C14.6483 8.45178 14.6509 8.52647 14.6234 8.61268C14.5962 8.69826 14.5511 8.75795 14.4881 8.79192C14.4252 8.82564 14.354 8.83031 14.2744 8.80605C14.1939 8.78151 14.1375 8.73804 14.1052 8.67566C14.073 8.613 14.0704 8.53949 14.0973 8.45518L14.0972 8.4551Z" fill="#309E3A"/>
<path d="M14.2118 8.48629C14.1927 8.54622 14.1923 8.59606 14.2108 8.63584C14.2292 8.67526 14.2603 8.70166 14.3039 8.715C14.3475 8.72822 14.388 8.72383 14.4256 8.7017C14.4635 8.67946 14.4922 8.63758 14.5118 8.57615C14.5312 8.51539 14.5319 8.46599 14.5141 8.42771C14.4966 8.38963 14.4652 8.36366 14.4201 8.34997C14.375 8.33623 14.3339 8.34035 14.2966 8.36232C14.2595 8.38401 14.2312 8.42533 14.2117 8.48633L14.2118 8.48629Z" fill="white"/>
<path d="M15.206 9.22768L15.4666 8.73486L15.6807 8.84316C15.7345 8.87048 15.7713 8.89462 15.7908 8.916C15.8107 8.93706 15.822 8.96271 15.8247 8.99279C15.8274 9.02287 15.8209 9.05236 15.8056 9.08153C15.7861 9.1185 15.7587 9.14344 15.7236 9.15643C15.6887 9.16917 15.6476 9.16751 15.6 9.15136C15.6154 9.17503 15.6262 9.19807 15.6325 9.22023C15.6389 9.24256 15.6442 9.27898 15.6482 9.3296L15.6589 9.45686L15.5373 9.39531L15.5204 9.25091C15.5145 9.19929 15.5095 9.1662 15.5051 9.15148C15.5008 9.13656 15.4941 9.12448 15.4853 9.11546C15.4766 9.10623 15.4605 9.09567 15.4371 9.08387L15.4165 9.07342L15.3078 9.27913L15.206 9.22768H15.206Z" fill="#309E3A"/>
<path d="M15.4579 8.99443L15.5332 9.03251C15.5819 9.05725 15.6135 9.07059 15.6278 9.07273C15.6421 9.07486 15.6553 9.07273 15.6674 9.06631C15.6794 9.05998 15.6893 9.04937 15.6971 9.03453C15.7059 9.0179 15.7084 9.00231 15.7046 8.98758C15.7011 8.97278 15.6918 8.95979 15.6768 8.94879C15.6691 8.94349 15.6447 8.93038 15.6033 8.90948L15.524 8.86938L15.4578 8.99447L15.4579 8.99443Z" fill="white"/>
<path d="M17.3107 10.2403C17.3431 10.1934 17.3774 10.1589 17.4138 10.1365C17.4405 10.1203 17.47 10.1087 17.5009 10.1024C17.5303 10.0961 17.5608 10.0958 17.5903 10.1013C17.6281 10.1086 17.666 10.1249 17.7043 10.1502C17.7735 10.196 17.8143 10.2536 17.8267 10.323C17.8393 10.3926 17.8197 10.4647 17.7679 10.5396C17.7166 10.6138 17.6558 10.6583 17.5856 10.673C17.5154 10.6875 17.4458 10.6719 17.3767 10.6262C17.307 10.58 17.2658 10.5224 17.2532 10.4536C17.2409 10.3845 17.2601 10.3133 17.3107 10.2402L17.3107 10.2403Z" fill="#309E3A"/>
<path d="M17.4113 10.3017C17.3753 10.3538 17.3602 10.4014 17.3661 10.4446C17.3722 10.4877 17.3941 10.5216 17.4319 10.5467C17.4698 10.5717 17.5099 10.5789 17.5524 10.5684C17.5953 10.5578 17.6352 10.5258 17.672 10.4725C17.7084 10.4198 17.7238 10.3727 17.718 10.3311C17.7123 10.2896 17.69 10.2559 17.6509 10.23C17.6118 10.2042 17.5712 10.1964 17.529 10.207C17.4871 10.2173 17.4479 10.2489 17.4112 10.3017H17.4113Z" fill="white"/>
<path d="M12.2616 8.09555L12.3529 7.70605L12.6482 7.77236L12.6328 7.83814L12.418 7.78997L12.3976 7.87626L12.5977 7.92123L12.5822 7.98674L12.3824 7.94193L12.3574 8.0479L12.5799 8.09777L12.5645 8.16348L12.2616 8.09551V8.09555Z" fill="#309E3A"/>
</svg>
