<svg width="174" height="136" viewBox="0 0 174 136" fill="none" xmlns="http://www.w3.org/2000/svg">
<path d="M44.5163 78.0342C46.4003 77.2741 47.5458 77.099 49.2656 77.2582C47.8056 78.1974 46.3114 77.8273 44.5163 78.0342ZM151.521 134.513C150.923 127.246 148.905 120.569 145.626 114.408C140.344 104.479 133.163 96.7504 124.824 90.4347C117.052 84.5489 108.627 80.3105 99.7882 77.1348C88.0465 72.9124 76.0143 70.8549 63.7529 70.5604C57.8616 70.4212 51.9976 70.9067 46.1576 71.818C35.8383 73.4258 25.9567 76.701 16.6975 82.3362C9.79062 86.5347 3.69071 91.9311 -1.19879 99.0626C-6.34131 106.564 -9.17927 115.085 -8.99121 124.731C-8.90231 129.372 -8.30395 134 -7.85945 138.624C-7.6919 140.387 -6.87471 141.692 -5.43863 142.512C-3.68457 143.511 -1.92366 144.379 0.0184584 144.757C6.38848 146.01 12.8166 146.444 19.2585 146.659C24.7019 146.846 30.1521 146.898 35.599 147.061C43.4871 147.3 51.3685 147.813 59.26 147.749C66.0301 147.698 72.8002 147.742 79.5668 147.742C79.5668 147.825 79.5668 147.905 79.5668 147.988C83.3895 147.988 87.2088 148.02 91.0315 147.98C94.0986 147.948 97.1725 147.69 100.24 147.765C108.829 147.972 117.37 147.117 125.918 146.321C128.968 146.038 132.028 145.672 135.095 145.994C138.658 146.365 142.187 146.357 145.65 145.123C146.532 144.809 147.64 144.832 148.037 143.678C148.31 142.874 148.779 142.345 149.261 141.808C151.049 139.802 151.764 137.45 151.521 134.513Z" fill="#1E398F"/>
<path d="M64.7003 74.4843C65.0046 74.5161 65.3158 74.4923 65.6269 74.4923C65.6269 74.4883 65.6269 74.4883 65.6269 74.4843C65.9962 74.4843 66.3689 74.4923 66.7382 74.4843C67.0561 74.4724 67.4083 74.4127 67.4152 73.955C67.422 73.577 67.1724 73.3143 66.8442 73.2307C66.1159 73.0397 65.391 72.9163 64.649 73.175C64.2763 73.3063 63.8865 73.4695 63.8763 73.963C63.8694 74.6077 64.3652 74.4485 64.7003 74.4843ZM16.0173 87.4062C17.0123 86.8252 18.0723 86.2959 18.6877 85.1418C18.8792 84.7876 18.5407 84.3458 18.2124 84.4971C16.6806 85.1856 14.9813 85.5676 13.87 87.3027C14.653 88.1822 15.3574 87.7882 16.0173 87.4062ZM-3.84843 119.669C-4.163 119.474 -4.47073 119.593 -4.7135 119.828C-5.54437 120.64 -5.75636 121.758 -5.78713 122.825C-5.78713 123.096 -5.80081 123.243 -5.78713 123.386C-5.74952 123.8 -5.82817 124.293 -5.3358 124.433C-4.82291 124.58 -4.48441 124.317 -4.33738 123.752C-4.06726 122.714 -3.80398 121.671 -3.57489 120.62C-3.49967 120.274 -3.50651 119.88 -3.84843 119.669ZM71.4122 74.9181C72.014 75.0693 72.6192 75.2285 73.2142 75.4275C73.7066 75.5906 74.175 75.6384 74.6639 75.4036C74.9751 75.2524 75.211 75.0295 75.2555 74.6475C75.3033 74.2097 74.9922 74.0505 74.7186 73.8794C73.9322 73.3899 73.0398 73.4377 72.3354 73.2108C71.9559 73.2108 71.7097 73.1869 71.4635 73.2148C71.0669 73.2546 70.7181 73.4496 70.6498 73.9391C70.5609 74.5878 70.9472 74.8027 71.4122 74.9181ZM5.62284 97.8687C6.74434 96.631 7.76328 95.2779 8.69672 93.8373C8.76853 93.7298 8.79246 93.5746 8.82666 93.4791C8.84375 93.2165 8.78904 93.0055 8.61124 92.9021C8.30693 92.723 8.00946 92.8066 7.7325 93.0016C6.4332 93.9209 5.54419 95.3137 4.64494 96.6867C4.41927 97.0289 3.92006 97.4667 4.4432 97.9602C4.81248 98.3144 5.26382 98.2626 5.62284 97.8687ZM-1.27717 111.372C-0.203532 109.402 0.521346 107.253 1.065 105.096C1.10945 104.375 0.7265 104.049 0.261484 104.363C0.00162268 104.543 -0.247982 104.797 -0.415524 105.084C-1.41394 106.763 -1.99521 108.681 -2.62777 110.564C-2.79189 111.045 -2.66538 111.415 -2.26875 111.63C-1.88921 111.837 -1.50626 111.785 -1.27717 111.372ZM65.073 112.203C63.8079 111.141 62.5325 110.074 61.1819 109.163C60.0023 108.363 58.7679 107.627 57.3866 107.364C56.6925 107.229 55.9607 107.022 55.9197 108.303C55.9026 108.92 55.4821 109 55.1128 108.912C53.7553 108.578 52.2748 108.562 51.3756 107.018C49.2146 109.437 49.3445 111.933 51.6525 113.899C52.798 114.874 54.0665 115.534 55.4547 115.586C57.431 115.662 59.2535 116.342 61.0896 117.05C61.7392 117.297 62.4197 117.464 63.0933 117.592C64.5601 117.87 65.9175 117.146 66.4407 115.857C66.8954 114.726 66.4065 113.322 65.073 112.203ZM50.5071 113.763C48.8727 111.853 47.1562 110.034 45.6312 108.013C44.5884 106.628 43.3575 106.453 42.1094 106.962C41.3675 107.269 40.7999 107.181 40.1639 106.946C39.5108 106.703 38.8201 106.497 38.2525 106.079C37.4524 105.486 37.1071 105.951 36.8575 106.703C36.3686 108.212 36.0848 109.776 35.9753 111.781C35.8967 114.03 37.0969 115.944 39.3467 116.334C41.3059 116.668 43.0668 117.476 44.7901 118.535C46.0587 119.311 47.3648 120.003 48.8111 120.254C50.2951 120.505 51.2422 119.916 52.0868 118.364C52.8253 117.003 52.203 116.028 51.5294 115.041C51.2217 114.587 50.8593 114.177 50.5071 113.763ZM125.973 131.719C125.949 130.251 125.822 130.128 124.602 130.004C121.542 129.694 118.478 129.746 115.414 129.761C112.098 129.781 108.808 129.73 105.522 128.946C102.493 128.225 102.302 128.524 101.672 132.117C101.635 132.332 101.573 132.539 101.556 132.754C101.525 133.164 101.669 133.443 102.031 133.558C103.413 134.008 104.777 134.625 106.182 134.879C110.258 135.616 114.354 136.197 117.849 136.157C119.986 136.121 121.487 136.236 122.978 135.902C125.183 135.405 126.011 134.274 125.973 131.719ZM129.05 127.724C130.093 131.059 130.435 135.974 127.125 139.141C125.59 140.614 123.911 141.326 121.979 141.402C121.292 141.43 120.605 141.406 119.914 141.406C114.652 141.39 109.455 140.554 104.257 139.734C101.437 139.293 99.956 137.064 99.8842 133.773C99.8363 131.624 100.171 129.566 100.783 127.569C101.419 125.499 102.281 124.683 104.138 124.771C110.135 125.062 116.136 124.405 122.133 124.926C123.822 125.077 125.481 125.416 127.129 125.838C128.048 126.068 128.725 126.693 129.05 127.724ZM145.999 131.126C143.849 133.578 143.124 133.514 142.163 130.311C139.746 122.276 135.078 116.087 130.042 110.277C122.181 101.204 112.819 94.7964 102.483 90.3392C92.7551 86.1446 82.7162 83.4663 72.373 82.4277C70.0719 82.2008 67.7605 82.1053 65.2371 81.9302C65.3944 83.0962 65.1003 84.0872 64.543 84.9547C63.8763 85.9974 62.9052 86.9247 61.876 86.5426C59.9134 85.8223 58.0054 86.264 56.1112 86.475C54.2169 86.6899 52.6988 86.3436 51.42 84.6045C50.6131 83.5061 49.577 82.6824 48.0897 81.9382C49.4916 84.6483 48.3085 86.9804 48.035 89.3602C47.9426 90.1641 47.2896 90.4705 46.6399 90.6138C43.9353 91.2107 41.1931 91.5609 38.5295 92.4046C37.9824 92.5757 37.4901 92.5439 37.1721 91.6962C36.8096 90.7252 35.8488 90.4228 35.0966 89.9731C33.0348 88.7354 30.9012 87.6688 28.9454 86.2123C28.2718 85.7148 27.6632 85.9297 26.9725 86.065C22.4831 86.9843 19.2416 90.2397 16.1028 93.7656C10.5294 100.03 6.8435 107.663 3.98845 115.936C2.04974 121.544 1.15048 127.398 0.733338 133.379C0.644437 134.64 0.493992 135.854 -0.425781 136.718C-1.17801 137.418 -1.75586 137.227 -1.83792 136.097C-1.94734 134.577 -1.99179 133.021 -1.8687 131.501C-0.856604 118.642 3.20544 107.181 10.0713 97.1165C13.3298 92.3409 17.4465 88.6001 21.8334 85.289C22.5925 84.716 23.3208 84.0394 24.3739 84.9746C25.003 85.5358 25.704 84.6881 26.3502 84.3856C26.169 83.6494 25.7074 83.3708 25.3244 83.0047C22.76 80.5612 22.7019 77.2342 22.9754 73.8078C23.0062 73.4178 23.1327 72.9084 23.5977 72.8527C24.0593 72.7969 24.2405 73.2347 24.3978 73.6287C24.5551 74.0227 24.6816 74.4366 24.7808 74.8544C25.427 77.5446 27.5059 79.3315 29.896 79.3156C30.6926 79.3076 31.3902 79.2121 31.8791 78.3843C32.0193 78.1456 32.1868 77.7755 32.3681 77.7556C34.317 77.5128 34.0572 75.7896 34.064 74.3012C34.0708 73.5093 33.9033 72.7174 33.8417 71.9214C33.7768 71.0658 34.0332 70.6519 34.8709 70.5206C38.7757 69.9276 42.6634 69.2431 46.5579 68.5626C49.8403 67.9935 50.131 68.2761 49.9976 72.1045C49.9805 72.5422 49.9326 72.98 49.895 73.4138C49.8369 74.1779 49.8814 74.8743 50.5755 75.2763C50.784 75.4036 51.0576 75.5986 51.1191 75.8294C51.485 77.2541 52.5039 77.3337 53.5057 77.5287C54.6443 77.7516 55.6325 77.3894 56.4668 76.5298C57.1643 75.8095 57.8824 75.1131 58.4226 74.1938C58.9799 73.2466 59.7903 73.2466 60.0638 74.2734C60.5391 76.0443 62.0504 76.5935 62.8847 77.9108C63.1616 78.3446 63.6848 78.257 64.1224 78.249C68.5709 78.1575 73.0022 78.5276 77.4335 78.8937C77.9943 78.9415 78.3977 78.8818 78.9209 78.3883C82.1999 75.3081 84.9695 71.6349 87.8348 68.089C92.3414 62.5136 96.7111 56.7829 101.259 51.2393C103.943 47.964 106.634 44.7007 109.42 41.5449C111.366 39.3322 112.491 39.368 114.228 41.7319C114.269 41.7876 114.306 41.8473 114.348 41.903C116.296 44.5176 116.317 45.0509 114.412 47.8367C112.111 51.2074 109.557 54.3195 107.037 57.4674C101.772 64.0258 96.3726 70.433 90.8882 76.7487C89.9 77.8869 89.2264 79.2599 88.5426 80.8398C91.3805 81.6875 94.0886 82.4595 96.7829 83.2992C108.86 87.052 119.835 93.3836 129.618 102.481C134.552 107.07 138.631 112.581 142.283 118.551C143.305 120.218 144.139 122.013 144.758 123.939C145.199 125.316 145.869 126.546 146.475 127.823C147.152 129.248 147.001 129.984 145.999 131.126Z" fill="#F1686F"/>
<path d="M8.79903 91.8754C6.9971 93.0056 5.58837 94.6413 4.48738 96.6351C4.26855 97.0291 3.90269 97.5424 4.36087 97.9842C4.71989 98.3344 5.202 98.2389 5.59863 97.9762C5.86533 97.8011 6.1081 97.5504 6.32351 97.2877C7.3527 96.0182 8.37846 94.7408 9.38714 93.4474C9.63674 93.129 9.88976 92.7868 9.93422 92.3211C9.94447 91.768 9.38372 91.5093 8.79903 91.8754ZM18.1335 83.5341C16.8171 83.8644 15.3571 84.5807 14.3142 86.2044C14.0065 86.69 13.6372 87.2153 13.9757 87.7684C14.3006 88.3017 14.9058 88.1306 15.3776 88.0112C15.7982 87.9037 16.2119 87.6769 16.5812 87.4182C17.436 86.8133 18.2669 86.1567 19.108 85.5279C19.4978 85.2374 19.8671 84.8951 19.6893 84.3062C19.4978 83.6654 18.9952 83.5261 18.1335 83.5341ZM-3.94786 117.321C-4.62145 117.198 -4.8266 117.986 -5.01124 118.607C-5.60277 120.596 -6.01991 122.63 -6.1601 124.381C-6.1601 124.883 -6.1601 125.03 -6.15668 125.173C-6.14301 125.822 -6.24558 126.725 -5.64722 126.888C-4.9155 127.091 -4.43681 126.343 -4.15301 125.579C-4.03334 125.253 -3.92393 124.89 -3.92393 124.54C-3.92735 122.654 -3.69142 120.791 -3.4931 118.925C-3.42814 118.312 -3.14434 117.472 -3.94786 117.321ZM66.1977 72.1563C65.4933 72.2996 64.7582 72.4269 64.0299 72.5981C63.4178 72.7453 63.0451 73.1473 63.0451 73.9432C63.0417 74.7113 63.1067 75.4554 63.8008 75.7539C64.6761 76.136 65.6027 76.3827 66.5396 76.1957C67.5517 75.9927 68.7757 74.5441 68.6766 73.78C68.574 73.0159 67.3021 72.1722 66.1977 72.1563ZM0.767258 103.802C-0.449988 105.362 -1.60227 106.978 -2.38527 108.896C-2.51862 109.219 -2.58359 109.577 -2.65539 109.836C-2.55623 110.361 -2.4605 110.779 -2.40579 111.205C-2.34766 111.642 -2.3374 112.124 -1.91342 112.279C-1.43131 112.458 -1.07913 112.084 -0.778234 111.726C-0.562822 111.471 -0.272189 111.145 -0.265349 110.846C-0.248254 109.446 0.599715 108.49 1.01686 107.308C1.32459 106.437 1.64942 105.577 1.97425 104.714C2.14863 104.244 2.01186 103.842 1.72122 103.544C1.34169 103.154 1.01686 103.484 0.767258 103.802ZM41.9382 102.939C40.8201 102.835 39.6884 102.784 38.5669 102.851C36.9906 102.951 36.6521 103.858 37.565 105.394C37.924 106.007 38.3856 106.477 39.0079 106.727C40.3209 107.257 41.6954 107.36 43.0563 107.567C43.4529 107.631 43.9248 107.484 44 107.05C44.2701 105.47 45.166 104.041 44.9437 101.98C43.9829 103.166 42.9742 103.034 41.9382 102.939ZM119.155 131.533C118.741 131.373 118.307 131.099 117.9 131.139C116.296 131.302 114.679 130.792 113.082 131.302C112.162 131.596 111.328 131.628 110.446 130.88C109.4 130 108.305 130.502 107.341 131.337C106.928 131.696 106.548 132.098 106.856 132.786C107.136 133.415 107.581 133.236 107.981 133.013C108.767 132.571 109.376 132.758 109.971 133.51C110.613 134.322 111.434 134.493 112.371 134.195C113.147 133.944 113.954 133.841 114.747 133.674C115.127 133.745 115.5 133.793 115.862 133.88C116.932 134.151 117.965 133.709 119.015 133.646C119.548 133.614 119.945 133.124 120.003 132.511C120.057 131.903 119.575 131.692 119.155 131.533ZM77.2554 70.6839C76.1237 70.1188 75.0193 69.4741 74.0482 68.3438C72.9199 69.7964 72.0377 71.3604 71.3231 73.0597C71.159 73.4497 70.9743 73.8437 71.1316 74.3053C71.518 75.4196 72.3352 75.9688 73.2481 76.2633C74.1713 76.5578 75.1834 76.5857 75.8228 75.5908C76.5306 74.4964 77.1084 73.2826 77.6863 72.0807C77.953 71.5196 77.8812 70.9943 77.2554 70.6839ZM57.4205 103.186C55.9502 102.831 54.4594 103.082 52.9789 102.931C51.9771 102.831 51.5599 103.607 51.4881 104.69C51.4574 105.124 51.4061 105.549 51.3719 105.904C51.4334 106.755 51.2864 107.523 51.8745 108.204C53.6833 110.301 56.7914 109.481 57.5504 106.644C57.7556 105.888 57.8718 105.096 58.0941 104.348C58.3266 103.556 57.9881 103.321 57.4205 103.186ZM82.1005 56.4606C81.6355 56.2219 81.2354 56.4766 80.9687 56.9223C79.6728 59.0713 78.6607 61.3795 78.1786 64.0299C78.2299 64.3801 78.0453 64.8975 78.4864 65.1163C78.9206 65.3312 79.177 64.9134 79.3925 64.5751C80.6849 62.5176 81.7073 60.289 82.5211 57.9291C82.7262 57.3481 82.6681 56.7512 82.1005 56.4606ZM87.985 58.6534C85.5847 62.1953 83.1673 65.7252 80.3875 68.8771C79.413 69.9834 78.9787 70.0033 77.7888 69.0283C76.9409 68.3359 75.604 68.2682 75.2894 66.947C75.0193 65.8128 75.6416 64.6945 75.9185 63.5882C76.7767 60.1617 77.6931 56.7591 79.6523 53.9137C79.984 53.4282 80.2336 52.7476 80.8627 52.7596C81.1055 52.8113 81.297 52.8272 81.4748 52.8869C83.7622 53.6789 85.9198 54.7772 87.7798 56.576C88.4329 57.2048 88.5081 57.8893 87.985 58.6534ZM100.451 42.5518C99.7779 42.4006 99.0872 42.3449 98.4 42.3051C97.4973 42.2533 97.087 42.7229 96.9981 43.8492C96.4681 50.5986 95.1756 57.2247 94.5191 63.9543C93.9857 69.4422 93.3669 74.9142 92.83 80.4021C92.6454 82.2845 92.7856 82.5113 94.3448 83.0605C96.198 83.7172 98.0786 84.2584 99.9352 84.8951C100.749 85.1737 101.098 84.8991 101.149 83.9082C101.204 82.7422 100.893 81.5801 101.111 80.4141C101.566 77.9865 101.529 75.4952 101.758 73.0358C102.028 70.1386 102.117 67.2216 102.349 64.3204C102.742 59.3936 103.183 54.4708 103.279 49.5162C103.279 48.4934 103.3 47.4706 103.276 46.4479C103.224 44.0879 102.445 43.0015 100.451 42.5518ZM50.8111 55.9234C52.3942 55.2787 53.9226 54.4828 55.6083 54.1166C57.4752 53.7107 58.3403 51.8602 57.8581 49.6833C57.4068 47.6378 57.0615 45.5564 56.3674 43.5945C55.6904 41.6882 54.8355 39.9372 53.5226 38.5045C51.3924 36.1844 47.9184 35.6471 45.4292 37.3345C44.8343 37.7364 44.2633 38.1861 43.682 38.612C43.3572 38.8468 43.0118 39.0736 42.6255 38.8388C40.5329 37.5653 38.0813 36.9445 36.4503 34.8074C34.9801 32.8853 33.4141 32.7659 31.5779 33.7886C31.3523 33.916 31.1198 34.0274 30.8838 34.115C24.5207 36.4112 20.9647 41.6166 19.5149 49.0108C19.1183 51.0245 19.5423 51.8602 21.2724 52.3338C23.0128 52.8153 24.7737 53.2252 26.5414 53.6669C26.3226 54.8051 26.1072 55.8637 25.926 56.9263C25.6934 58.2753 25.4541 59.6284 25.2866 60.9934C25.1532 62.0759 24.6608 61.7973 23.9052 61.3715C24.1685 62.5097 24.654 63.1106 25.1053 63.6638C26.6713 65.578 27.8407 67.8344 29.2118 69.9118C29.5538 70.4292 29.7965 71.042 30.1658 71.5355C30.5282 72.021 31.1471 72.2638 31.4241 71.5992C32.0498 70.1068 33.1679 70.6759 33.8175 71.0341C34.8843 71.6231 35.9853 71.627 37.0624 71.9096C38.7925 72.3633 40.3209 71.7862 41.5553 70.4132C42.4477 69.4183 43.429 69.0363 44.5984 69.0443C45.4122 69.0482 46.2259 69.0482 47.0397 69.0403C48.8963 69.0124 49.1665 68.7259 49.6349 66.7122C50.0315 64.993 50.0589 63.2499 49.9666 61.5028C49.9119 60.4204 49.7272 59.3419 49.6007 58.2634C49.399 56.5522 49.4263 56.4925 50.8111 55.9234ZM173.076 18.1726C172.057 22.2795 170.159 25.901 168.422 29.6021C161.215 44.9754 153.186 59.7797 145.237 74.6356C140.993 82.5591 136.685 90.4348 132.685 98.5294C132.12 99.6675 131.505 100.77 130.65 101.653C130.366 101.948 130.1 102.258 129.977 102.258C129.259 102.342 129.026 101.968 128.729 101.705C124.684 98.1155 120.269 95.2303 115.715 92.6276C113.304 91.2506 110.795 90.0965 108.463 88.5166C106.804 87.3944 106.808 87.3187 107.676 85.3369C120.092 57.0695 133.536 29.4588 146.915 1.80829C147.069 1.48992 147.23 1.17553 147.363 0.845219C147.685 0.0453118 148.129 -0.245201 148.858 0.228376C149.292 0.51093 149.791 0.666136 150.229 0.940731C157.642 5.6566 165.201 10.07 172.266 15.5102C173.524 16.4812 173.497 16.4733 173.076 18.1726Z" fill="#F8E9E8"/>
<path d="M102.918 40.6652C102.658 37.5691 102.6 34.445 102.155 31.3688C102.097 30.9549 102.179 30.4972 101.735 30.2704C100.815 29.8048 99.683 30.2943 99.3342 31.4444C98.1956 35.2171 97.5186 39.1291 96.8279 43.0371C96.6501 44.0598 97.0262 44.5692 97.8605 44.6528C98.9171 44.7642 99.9428 45.1503 100.781 45.0826C101.201 45.0826 101.389 45.0866 101.577 45.0826C103.109 45.0547 103.348 44.7006 103.123 42.8262C103.037 42.1098 102.979 41.3895 102.918 40.6652ZM120.468 31.1499C120.25 31.3091 119.921 31.516 119.617 31.7588C116.687 34.1107 113.695 36.3553 111.161 39.3082C110.262 40.3548 110.218 40.4384 111.018 41.5845C111.855 42.7824 112.922 43.6738 113.982 44.5772C115.541 45.9024 115.835 45.8467 116.954 44.0121C117.097 43.7733 117.21 43.5146 117.357 43.2759C119.279 40.116 120.557 36.5582 122.017 33.1119C122.346 32.3358 121.416 31.0822 120.468 31.1499ZM46.7533 88.6477C44.2983 88.8666 41.9835 89.6545 39.7165 90.733C38.8275 91.1549 38.2702 91.7956 38.0411 92.882C37.6103 94.9276 37.3333 97.0049 37.2034 99.1062C37.1658 100.348 37.1589 101.709 37.6376 102.712C38.0411 103.547 39.2925 102.823 40.0824 103.325C40.185 103.392 40.3251 103.384 40.4482 103.404C43.2554 103.846 44.883 102.799 46.0592 99.8066C46.1618 99.54 46.2883 99.2892 46.3874 99.0186C47.4235 96.1891 48.0287 93.2282 48.2783 90.1719C48.3877 88.8666 47.974 88.5402 46.7533 88.6477ZM61.9244 85.9614C59.572 86.3952 57.1956 86.4828 54.8261 86.5464C53.92 86.5703 53.5336 86.9285 53.4345 87.8319C53.0276 91.5051 52.525 95.1743 52.2924 98.8674C52.0087 103.38 52.1352 103.424 56.3511 103.424C57.8931 104.013 58.8266 102.947 59.3566 101.024C59.5446 100.336 59.9037 99.7151 60.1669 99.0584C61.603 95.4966 63.1177 91.9747 63.5759 88.003C63.7811 86.1883 63.4289 85.6868 61.9244 85.9614ZM54.6141 77.9425C54.8398 77.9584 55.0791 77.7634 55.3082 77.6519C56.6178 77.0311 57.6914 76.0482 58.512 74.715C60.1738 72.0128 59.5446 70.023 56.7887 69.243C56.5596 69.1753 56.3271 69.1355 55.9989 69.0559C56.4502 68.065 56.8195 67.1457 57.264 66.2781C59.4113 62.0597 58.5599 57.8732 57.1648 53.7105C56.8298 52.7155 55.5749 52.1783 54.9492 52.823C53.5063 54.3154 51.6291 54.785 50.0323 55.9112C49.1365 56.544 48.7946 57.0494 49.2083 58.2552C50.0836 60.8221 50.2648 63.4645 49.6665 66.1826C49.4853 67.0144 49.369 67.9854 49.5639 68.7813C49.9332 70.2936 50.0255 71.8218 49.8443 73.3062C49.5331 75.8333 51.759 75.8014 52.5352 77.2182C52.9592 77.9942 53.8721 77.8907 54.6141 77.9425ZM33.5311 71.4596C33.326 70.5801 32.7994 70.2737 32.119 70.3772C30.1598 70.6796 29.1374 69.3186 28.2621 67.5954C27.5919 66.2781 27.0072 64.8455 26.1285 63.7431C25.325 62.7323 25.2121 61.8448 25.5712 60.6549C26.1285 58.8004 26.6345 56.926 27.1611 55.0556C27.7116 53.1056 27.5748 52.7514 25.9165 52.2857C24.7027 51.9475 23.4649 51.7087 22.234 51.45C20.6304 51.1038 20.4868 51.1834 19.967 53.0737C19.2798 55.5729 18.6883 58.108 17.9805 60.5992C16.9684 64.1451 17.8471 67.0104 20.0765 69.5176C22.0972 71.786 24.1932 73.9588 25.5609 76.9316C26.3747 78.7066 27.9339 79.4189 29.411 79.4627C33.6508 78.7662 34.7313 76.864 34.0714 73.0873C33.9722 72.5262 33.6611 72.0168 33.5311 71.4596ZM42.1305 39.0415C39.7781 38.4605 37.7197 37.0636 35.7365 35.5394C35.0664 35.0221 34.7176 34.2381 34.8441 33.279C34.9911 32.1209 34.6458 31.3369 33.75 30.7957C33.4354 30.6007 33.1379 30.2306 32.9806 29.8565C32.4917 28.7104 31.7155 28.2129 30.6692 27.8946C29.534 27.5523 29.0007 26.3942 28.857 25.0889C28.734 24.0025 29.493 22.6215 30.4914 22.2037C31.1411 21.9331 31.6506 21.2685 32.5703 21.5988C33.3294 21.8734 33.3807 20.8506 33.4354 20.0984C33.5004 19.1871 33.9346 18.8727 34.4509 19.3025C34.9364 19.7045 35.1826 20.7471 35.8904 20.4646C36.6871 20.1422 37.4872 19.593 38.0992 18.9165C40.3628 16.4093 41.4159 16.2103 43.9735 18.1842C44.859 18.8648 45.7241 19.1593 46.7977 18.8926C48.08 18.5703 49.3964 18.435 50.7093 18.7454C52.101 19.0757 52.2993 19.3503 52.2446 21.0774C52.2309 21.1968 52.2309 21.4953 52.1591 21.7699C51.865 22.9757 51.7864 23.8552 53.1302 24.4641C54.3303 25.0053 54.4876 26.8559 53.7319 28.2607C53.1302 29.3869 52.2343 30.0754 51.1231 30.147C50.3879 30.1948 49.9913 30.5729 49.6596 31.2295C49.5331 31.4802 49.3895 31.7389 49.2015 31.918C47.9432 33.1636 46.7738 34.2779 46.3772 36.4667C46.0079 38.5082 43.9564 39.4912 42.1305 39.0415Z" fill="#CC6E53"/>
<path d="M48.5888 115.451C49.382 114.77 49.7752 114.062 49.6316 113.003C49.0538 113.604 48.3289 114.13 48.5888 115.451ZM30.1967 25.1569C30.6993 25.0495 31.3422 25.6345 31.6978 24.7868C31.7354 24.6993 31.6636 24.4884 31.5849 24.4127C31.0037 23.8397 30.4326 24.0068 29.889 24.5043C29.8138 24.5759 29.8069 24.747 29.7659 24.8704C29.8172 25.153 30.0292 25.1967 30.1967 25.1569ZM52.7021 27.0114C52.9688 27.0512 53.1398 26.8244 53.1705 26.4822C53.0406 25.9847 52.7842 25.5788 52.3397 25.4554C51.755 25.2922 50.8591 24.8704 50.6403 25.535C50.3257 26.4981 51.3583 26.3787 51.8439 26.6652C52.1106 26.8284 52.408 26.9677 52.7021 27.0114ZM26.4048 49.174C25.1944 48.5413 23.6421 48.4736 22.0897 48.8796C23.6147 49.8426 25.02 49.4884 26.4048 49.174ZM63.1342 110.508C62.4264 110.472 61.0279 112.442 61.2468 113.151C61.3151 113.378 61.5237 113.513 61.6844 113.401C62.4298 112.86 63.0248 112.116 63.5103 111.28C63.7325 110.902 63.4351 110.636 63.1342 110.508ZM32.7817 78.0065C32.0705 76.1082 31.0242 75.0258 30.2138 73.7443C30.4497 75.4954 30.9592 77.0235 32.7817 78.0065ZM26.4971 75.575C26.9724 77.0952 27.2117 78.8223 28.9521 79.1964C27.9776 78.114 27.581 76.5261 26.4971 75.575ZM30.4395 78.6552C30.5455 78.5199 30.6446 78.2413 30.6002 78.0901C30.1625 76.6057 29.5231 75.2566 28.4529 74.194C28.5931 75.8416 29.2359 77.2424 29.9711 78.5915C30.0839 78.8024 30.313 78.8064 30.4395 78.6552ZM61.7631 109.672C61.5716 109.458 61.3015 109.398 61.0724 109.509C60.4877 109.792 60.0261 110.261 59.6705 110.882C59.308 111.515 59.1097 112.148 59.5303 112.948C60.5629 112.446 61.1202 111.396 61.746 110.437C61.893 110.21 61.9853 109.915 61.7631 109.672ZM52.4457 77.7439C52.4457 75.5988 52.4457 73.7921 52.4457 71.7465C51.119 74.2219 51.0745 76.1719 52.4457 77.7439ZM37.3224 20.9863C36.9258 22.1125 37.1138 22.9841 37.9173 23.6327C38.3345 23.967 38.7414 23.7243 39.097 23.378C39.8526 22.6339 40.0373 21.7504 39.6406 20.6997C38.4029 22.5264 38.4029 22.5264 37.3224 20.9863ZM50.5822 51.4743C51.413 51.0047 52.2576 50.5709 53.0645 50.0496C53.7962 49.576 54.9793 49.8347 55.2357 48.1314C53.191 48.5214 51.5977 49.4367 50.336 51.0723C50.4181 51.2076 50.5001 51.339 50.5822 51.4743ZM55.4477 71.8978C54.5793 73.3344 54.1929 74.6397 53.8099 75.9291C53.4714 77.0633 53.6937 77.7439 54.4254 77.8433C55.2357 77.9548 55.8375 77.5528 55.9743 76.5181C55.4375 76.1679 55.1366 76.932 54.5793 76.6296C54.8528 75.0974 55.5572 73.7881 55.4477 71.8978ZM47.1971 110.059C46.4415 110.325 46.0278 111.093 45.5422 111.734C45.0772 112.347 44.7763 113.047 45.2208 114.173C46.4141 113.401 47.0809 112.168 47.9323 111.173C48.1066 110.966 48.1408 110.632 48.0075 110.361C47.8263 109.995 47.4878 109.955 47.1971 110.059ZM42.0102 24.9102C41.7024 24.8664 41.3981 24.759 41.0938 24.7749C40.4613 24.8147 39.7706 24.95 39.7808 25.9011C39.7911 26.7767 40.3792 27.0751 41.1212 27.1149C41.4323 27.0473 41.7982 26.9876 42.1572 26.8841C42.6769 26.7329 43.0906 26.3747 43.0872 25.722C43.0838 24.9062 42.4889 24.9739 42.0102 24.9102ZM99.084 47.9921C98.7899 47.8886 98.4822 47.8249 98.2052 47.7454C97.6547 47.9045 96.9743 47.821 96.9298 48.7243C96.8922 49.5083 97.3709 49.8784 97.9488 50.0535C98.2428 50.1411 98.5642 50.1809 98.8651 50.153C99.5592 50.1013 100.11 49.6715 100.168 48.8756C100.229 48.0995 99.5319 48.1513 99.084 47.9921ZM46.4415 24.0984C46.7971 23.6845 47.0296 23.1631 47.1698 22.598C47.2211 22.3871 47.2347 22.1284 47.0296 22.0289C46.8757 21.9533 46.6569 21.9096 46.5099 21.9772C46.0141 22.212 45.8636 23.0756 45.2106 23.0119C44.7455 22.5821 44.9165 21.7146 44.1267 21.2967C43.7266 22.208 43.8258 22.9522 44.1574 23.6765C44.7079 24.8823 45.6243 25.0495 46.4415 24.0984ZM108.538 43.6344C108.193 43.6662 107.96 43.8334 107.953 44.2871C107.936 45.2024 109.136 47.0449 109.882 47.2559C110.521 47.431 111.267 46.5873 111.126 45.8431C110.973 45.0273 109.318 43.6105 108.538 43.6344ZM112.593 44.0801C112.891 44.2831 113.199 44.1279 113.404 43.8055C113.585 43.523 113.749 43.2484 113.616 42.8345C113.359 42.0545 111.058 40.1721 110.343 40.2C109.861 40.3154 109.728 40.6536 109.943 41.1431C110.528 42.4843 111.52 43.3439 112.593 44.0801ZM38.6593 27.7437C39.0662 29.9046 39.9552 31.0229 41.3161 31.0428C42.8889 31.0627 44.0685 30.1832 45.0738 28.2412C43.6514 28.5038 42.8034 29.5664 41.7024 29.638C40.3963 29.7216 39.6201 28.5715 38.6593 27.7437ZM101.194 44.295C100.055 43.8891 98.8514 44.1876 97.6992 43.905C97.2957 43.8095 96.9196 43.8612 96.7794 44.3507C96.6221 44.9119 96.9093 45.3058 97.3094 45.5765C98.0821 46.0938 98.9335 46.2291 99.8088 46.1973C100.243 46.1973 100.677 46.249 101.105 46.1814C101.618 46.1057 102.11 45.8272 102.124 45.1467C102.137 44.5059 101.587 44.4343 101.194 44.295ZM119.599 73.9513C118.423 72.5823 116.861 71.9774 115.435 71.1058C115.332 71.0421 115.192 71.0581 115.069 71.0421C114.631 71.078 114.399 71.7744 114.771 72.2161C115.958 73.6249 117.391 74.6517 118.936 75.4396C119.257 75.6028 119.692 75.4396 119.928 75.0337C120.218 74.5243 119.846 74.2378 119.599 73.9513ZM36.5667 88.0153C36.6317 88.5247 36.9634 88.7038 37.4626 88.7555C39.4628 88.0591 41.5178 87.2552 43.4975 86.2046C43.7916 86.0494 43.9899 85.7071 43.8771 85.3131C43.7129 84.7401 43.2924 84.8714 42.9505 85.0027C41.0117 85.7549 39.0765 86.5229 37.1446 87.3069C36.8745 87.4184 36.5086 87.5417 36.5667 88.0153ZM59.9201 82.985C60.3236 82.8497 60.5492 82.5115 60.4808 82.006C60.3919 81.3653 59.9338 81.5802 59.5166 81.5006C57.5745 81.9662 55.5879 82.5314 53.7142 83.5422C53.3757 83.7213 53.0098 83.96 53.1124 84.4973C53.2218 85.0505 53.639 85.0823 54.0082 84.9629C55.9846 84.3222 57.9506 83.6576 59.9201 82.985ZM42.1469 106.111C41.3708 105.856 40.5912 105.637 39.8082 105.43C38.8611 105.179 37.849 105.092 37.4284 103.707C36.7138 105.195 36.7035 105.824 37.2916 106.56C37.9994 107.448 41.0733 108.276 42.0546 107.826C42.4205 107.659 42.6974 107.348 42.7077 106.875C42.7145 106.469 42.4512 106.21 42.1469 106.111ZM142.744 23.5531C143.011 23.7123 143.342 23.8238 143.633 23.7999C144.061 23.7601 144.515 23.6049 144.666 23.0398C144.799 22.5383 144.481 22.208 144.184 21.9772C142.785 20.9027 141.246 20.1386 139.745 19.287C139.636 19.2233 139.506 19.2153 139.674 19.2591C139.109 19.1357 138.877 19.2711 138.768 19.5377C138.59 19.9834 138.709 20.3734 139.044 20.6759C140.214 21.7464 141.421 22.7532 142.744 23.5531ZM123.637 51.8086C123.784 53.1935 126.882 55.832 128.048 55.5813C128.342 55.5176 128.633 55.3425 128.886 55.1475C129.012 55.048 129.047 54.7893 129.115 54.6341C129.043 54.455 129.016 54.2919 128.93 54.2003C127.611 52.7557 126.164 51.5101 124.458 50.7858C123.815 50.5152 123.569 51.1519 123.637 51.8086ZM140.563 28.4163C141.117 28.7346 141.653 28.6073 142.146 28.2332C142.347 28.078 142.512 27.8392 142.443 27.5009C142.409 27.3656 142.402 27.1905 142.327 27.099C140.836 25.3878 138.966 24.4486 137.034 23.6725C136.593 23.4935 136.422 23.9949 136.391 24.4764C136.357 25.0495 136.648 25.4236 136.966 25.7698C138.019 26.9239 139.287 27.676 140.563 28.4163ZM133.94 42.6275C132.753 41.5729 131.467 40.6855 130.134 39.9095C129.696 39.6587 129.153 39.4796 128.797 40.1204C128.421 40.7969 128.643 41.4098 129.139 41.8276C130.199 42.7151 131.279 43.5667 132.38 44.3865C132.948 44.8124 133.563 44.7487 134.148 44.3467C134.374 44.1915 134.541 44.0045 134.558 43.6782C134.497 43.2165 134.23 42.8862 133.94 42.6275ZM130.575 49.6795C130.938 49.6556 131.307 49.4884 131.638 49.3054C131.857 49.186 131.984 48.8994 131.96 48.5134C131.871 47.9523 131.498 47.5464 131.085 47.228C129.932 46.3525 128.742 45.5605 127.457 44.9755C127.111 44.8203 126.766 44.5218 126.482 45.0511C126.274 45.4372 126.202 45.851 126.345 46.3007C126.605 47.1007 129.826 49.7272 130.575 49.6795ZM147.976 17.5718C146.423 15.964 144.549 14.9213 142.795 13.6717C142.289 13.3056 141.776 13.7593 141.811 14.4836C141.893 15.1322 142.293 15.5899 142.761 15.968C143.944 16.9191 145.131 17.8583 146.324 18.7855C146.58 18.9805 146.864 19.1477 147.155 19.2512C147.603 19.4064 148.051 19.3109 148.338 18.8572C148.694 18.2841 148.29 17.8981 147.976 17.5718ZM62.4059 84.9948C60.1629 85.3131 57.848 85.345 55.5845 85.914C55.1024 86.0374 54.6237 86.2245 54.1655 86.4433C54.0288 86.511 53.8749 86.7935 53.8886 86.9567C53.9091 87.2353 54.0835 87.5059 54.3467 87.5537C54.5861 87.5974 54.8391 87.5576 55.0819 87.5218C57.5574 87.1835 60.0329 86.8771 62.5255 86.7458C63.1957 86.71 64.136 86.6702 64.0368 85.6116C63.9411 84.6366 63.0077 85.1659 62.4059 84.9948ZM122.803 68.5589C121.388 67.5202 119.928 66.5611 118.481 65.5741C118.15 65.3433 117.794 65.1722 117.466 65.5383C117.168 65.8686 117.196 66.3263 117.23 66.7601C117.267 67.2217 117.514 67.5639 117.78 67.8664C118.772 68.9727 119.873 69.9079 121.08 70.6681C121.418 70.883 121.767 70.9984 122.253 70.9626C122.707 70.883 123.337 70.7994 123.559 70.1228C123.815 69.3627 123.251 68.8852 122.803 68.5589ZM113.558 76.2953C113.4 76.1918 113.202 76.1759 113.062 76.1361C112.426 76.1998 111.992 77.2544 112.245 78.0145C112.628 79.1725 116.283 81.8548 117.302 81.7235C117.425 81.7115 117.541 81.6519 117.661 81.6121C118.809 81.2499 118.974 80.6251 118.102 79.674C116.772 78.2214 115.134 77.3101 113.558 76.2953ZM119.777 34.7081C120.659 35.4045 120.994 35.3766 121.654 34.4096C122.55 33.0963 123.19 31.604 123.778 30.0797C123.856 29.8887 123.894 29.6738 123.935 29.5226C123.918 28.7466 123.128 28.1337 122.56 28.5754C121.217 29.6102 119.917 30.7682 119.015 32.3561C118.55 33.1759 118.892 34.0077 119.777 34.7081ZM48.8691 86.1449C48.8828 86.0732 48.8726 86.0016 48.8726 85.926C48.8691 80.9753 47.2006 77.1787 43.2787 74.9342C43.224 74.9024 43.1693 74.8666 43.1146 74.8347C42.4068 74.4487 41.4015 73.3464 40.9878 74.1582C40.4236 75.2645 41.805 75.6983 42.4478 76.152C45.2721 78.1458 46.8415 81.031 47.3613 84.7759C47.4296 85.2773 47.5356 85.7748 47.6211 86.2722C47.7408 86.9488 47.6177 88.0591 48.3802 87.9874C49.1974 87.9078 48.7597 86.8015 48.8691 86.1449ZM102.223 28.9615C102.148 28.2133 101.983 27.4611 101.218 27.3298C100.417 27.1985 100.161 27.9148 99.9319 28.6272C99.3848 30.3344 98.8891 32.0696 98.5711 33.8564C98.2155 35.8423 98.7591 36.5626 100.486 36.5865C101.471 36.6024 102.144 36.276 102.401 35.0065C102.561 34.2066 102.695 33.4505 102.51 32.4476C102.708 31.3851 102.346 30.1872 102.223 28.9615ZM159.321 16.8753C159.115 16.7082 158.927 16.5092 158.726 16.3341C154.797 12.9275 150.42 10.3487 146.365 7.165C146.163 7.00582 145.921 6.91827 145.746 6.82275C145.203 6.88245 144.997 7.19286 145.148 7.71817C145.295 8.22359 145.695 8.50216 146.037 8.81257C149.774 12.1475 153.751 15.0606 157.802 17.8344C158.069 18.0175 158.349 18.2005 158.647 18.2921C159.016 18.4075 159.423 18.3916 159.652 17.9578C159.905 17.4762 159.656 17.1499 159.321 16.8753ZM143.855 39.3961C140.409 37.1635 137.02 34.8115 133.468 32.8138C132.931 32.5113 132.38 32.0218 131.731 32.571C131.762 33.546 132.452 33.9161 132.979 34.3698C135.793 36.8093 138.665 39.1533 141.684 41.2426C142.006 41.4655 142.324 41.7122 142.669 41.8754C143.599 42.3092 144.905 42.0545 145.056 41.3501C145.295 40.2437 144.498 39.81 143.855 39.3961ZM47.1082 37.8639C47.3544 37.6371 47.6245 37.2431 47.4467 36.9367C47.2142 36.5307 46.8005 36.5865 46.462 36.9168C46.2739 37.1078 46.0893 37.3028 45.8978 37.4938C44.7182 38.6399 43.3881 38.9026 41.8666 38.7076C39.2714 38.3773 37.4113 36.5825 35.541 34.7479C35.1956 34.4096 34.8058 34.1032 35.1922 33.5062C35.517 32.9968 35.8555 33.3431 36.1735 33.5261C37.8968 34.5409 39.7945 34.5608 41.6477 34.8076C42.0307 34.8593 42.5401 35.0344 42.8957 34.1469C41.3708 33.8047 39.9484 33.5938 38.5841 33.148C37.1309 32.6745 35.8658 31.7631 34.7477 30.5135C33.7151 29.3674 33.4689 27.6442 32.3987 26.2673C32.132 28.4401 32.8432 29.9604 33.8245 31.3214C34.293 31.9741 34.7101 32.4954 34.293 33.4147C33.8792 34.322 34.2348 35.106 34.7443 35.8144C36.0983 37.7047 37.7806 39.0578 39.7808 39.8259C42.547 40.8884 44.9336 39.8577 47.1082 37.8639ZM131.936 65.8209C128.359 62.8918 124.455 60.5837 120.823 57.7541C120.673 57.6348 120.502 57.5552 120.314 57.4397C119.763 57.6984 119.582 58.2476 119.688 58.8207C119.832 59.6166 120.239 60.2971 120.772 60.8185C123.89 63.8589 127.296 66.4099 130.784 68.8215C131.344 69.2115 131.933 69.3309 132.575 69.0921C133.734 68.6583 133.936 67.9142 133.102 66.9073C132.757 66.4934 132.343 66.1512 131.936 65.8209ZM27.1946 54.5386C26.3774 57.0099 25.5773 59.4893 25.2901 62.1516C24.5379 62.1397 23.9703 61.308 23.1326 62.0203C26.056 64.2967 28.3161 67.0983 30.3369 70.2582C27.858 71.7505 27.858 71.7505 27.0032 73.2031C27.6802 72.825 28.1589 72.5305 28.6546 72.2878C29.1744 72.0371 29.6975 71.7824 30.2378 71.6152C32.4808 70.9148 32.9629 71.2769 33.3014 73.8478C33.4211 74.787 33.2877 75.8297 34.2383 76.5022C34.1972 74.592 34.4092 72.6857 33.8279 70.8432C33.6672 70.3258 33.2262 70.1268 32.7611 70.091C31.9234 70.0313 31.455 69.4025 30.9763 68.6822C29.6702 66.7163 28.1965 64.9175 26.5245 63.3734C25.7517 62.661 25.8406 62.1676 26.162 61.1965C27.4237 57.4 28.5521 53.5357 29.7283 49.6954C29.8411 49.3372 30.1659 48.9472 29.5949 48.5691C29.1778 49.0547 29.0581 49.7073 28.8222 50.2764C28.1452 51.9041 28.1452 51.912 26.5826 51.3907C24.6439 50.742 22.6813 50.36 20.6605 50.6425C20.3049 50.6903 19.9048 50.7142 19.8604 51.2952C20.0758 51.8165 20.4895 51.6534 20.8315 51.6812C22.7736 51.8324 24.6644 52.2423 26.521 52.9467C27.3246 53.2492 27.4853 53.6511 27.1946 54.5386ZM51.8917 70.7835C53.8304 70.6044 55.7589 70.5288 57.6737 70.9904C58.1626 71.1058 58.6379 71.2968 59.1302 71.4003C59.479 71.4719 59.9303 71.5953 60.0398 70.9944C60.1321 70.4611 59.7662 70.2383 59.4072 70.0711C58.525 69.6652 57.6019 69.514 56.6581 69.4742C54.5861 69.3906 52.5346 69.5538 50.2676 70.1149C50.2197 67.0148 50.0864 64.1733 52.3944 62.1914C52.5961 62.0243 52.7842 61.8014 52.9072 61.5587C53.0577 61.2602 53.3381 60.9299 53.1056 60.5677C52.8491 60.1738 52.473 60.1937 52.0866 60.329C51.3515 60.5797 51.1258 61.5786 50.2402 62.0919C50.3633 60.3489 50.3086 58.8406 49.9804 57.3681C49.8163 56.616 50.018 56.1663 50.6711 55.8519C52.6303 54.9007 54.5656 53.874 56.5077 52.8831C56.9112 52.6761 57.3283 52.513 57.7113 52.2702C58.0771 52.0354 58.6037 51.7966 58.3438 51.1639C58.1387 50.6624 57.7078 50.9092 57.3454 51.0365C56.0837 51.4663 54.8665 52.0314 53.6903 52.7199C52.3807 53.488 51.0472 54.2123 49.6966 54.9764C48.9922 53.4044 49.1974 51.6892 48.4554 50.3918C47.9801 50.551 48.0007 50.8932 48.028 51.144C48.2263 53.0104 48.4554 54.8769 48.6742 56.7393C49.0675 60.1061 49.9975 63.4132 49.2897 66.8914C49.1085 67.7788 49.0162 68.8613 49.4025 69.6931C50.0043 70.9944 49.9975 72.2957 49.912 73.6926C49.8641 74.4766 49.8299 75.4436 50.8899 75.8973C50.8899 74.5482 50.6095 73.3503 50.7395 72.1405C50.8318 71.2809 51.0951 70.8591 51.8917 70.7835ZM38.1772 92.365C40.41 90.7254 42.9778 89.9932 45.3713 88.7873C45.9286 88.5048 47.0672 88.5088 46.6979 87.4303C46.4073 86.5747 45.4636 87.1318 44.8447 87.3666C42.8205 88.1267 40.8408 89.0381 38.9534 90.1802C37.7293 90.9204 36.7104 90.9125 35.4931 89.9812C32.6722 87.8163 29.8719 85.6235 27.2323 83.1641C25.4474 81.4967 23.9703 79.5506 23.3925 76.8683C23.3309 76.5858 23.2078 76.3271 22.7736 76.1679C22.4522 76.6097 22.4214 77.0275 22.4317 77.4613C22.4658 79.2004 23.0642 80.6888 23.9088 82.0936C27.2049 87.5974 32.2175 90.0648 37.2916 92.4247C37.5788 92.5561 37.8695 92.5879 38.1772 92.365ZM30.036 18.2523C29.8172 13.6041 30.8498 11.7814 34.6759 10.285C39.6612 8.339 44.6669 8.66533 49.6145 10.4442C51.7892 11.2282 53.533 12.7047 53.9946 15.5979C54.0766 16.1033 54.1279 16.6007 54.1245 17.1061C54.1006 19.5974 52.8354 21.5952 52.1345 23.8158C52.0114 24.2098 51.5943 24.5043 51.2045 24.4207C50.7839 24.3252 50.6095 23.8158 50.6711 23.39C50.8694 22.0051 50.2779 21.635 49.2282 21.5275C48.4007 21.4439 47.7716 20.7634 47.1356 20.1585C45.8602 18.9447 45.2653 18.8293 43.9591 19.9794C42.8923 20.9107 42.0717 20.7316 41.0972 19.9118C39.1072 18.2364 39.0423 18.2005 37.36 20.0272C36.2077 21.2768 35.1204 21.3723 33.9374 20.2461C33.3116 21.4758 33.698 22.988 32.6381 24.0984C31.3832 22.5383 30.0258 21.1017 30.0634 18.69C30.0634 18.5468 30.0463 18.3995 30.036 18.2523Z" fill="#26416D"/>
</svg>
