<svg width="192" height="216" viewBox="0 0 192 216" fill="none" xmlns="http://www.w3.org/2000/svg">
<path d="M182.458 220.889H-25.7621C-27.1615 220.889 -28.3065 219.769 -28.3065 218.4V208.652C-28.3065 207.283 -27.1615 206.163 -25.7621 206.163H182.458C183.858 206.163 185.003 207.283 185.003 208.652V218.4C185.003 219.769 183.858 220.889 182.458 220.889Z" fill="#F7F7F7"/>
<path d="M80.0444 209.689C119.157 209.689 150.865 178.674 150.865 140.415C150.865 102.156 119.157 71.1409 80.0444 71.1409C40.9314 71.1409 9.22406 102.156 9.22406 140.415C9.22406 178.674 40.9314 209.689 80.0444 209.689Z" fill="#5856D6" fill-opacity="0.15"/>
<path d="M167.828 189.342C169.333 185.588 170.86 181.419 169.439 177.645C169.1 176.732 168.57 175.757 168.888 174.824C169.312 173.559 171.008 173.123 171.56 171.92C172.196 170.593 171.199 169.058 171.454 167.627C171.708 166.175 173.171 165.221 174.592 164.702C176.012 164.184 177.56 163.852 178.705 162.898C180.889 161.031 180.635 157.692 180.147 154.871C179.659 152.071 179.299 148.753 181.398 146.782C177.539 147.508 173.595 148.255 170.245 150.246C166.895 152.237 164.223 155.763 164.414 159.6C164.52 161.529 165.283 163.582 164.393 165.283C163.417 167.129 160.809 167.855 160.152 169.825C159.389 172.086 161.657 174.16 162.548 176.379C163.396 178.474 162.993 180.818 163.184 183.037C163.375 185.277 164.562 187.808 166.831 188.139L167.828 189.342Z" fill="#FFBE55"/>
<g opacity="0.31">
<path opacity="0.31" d="M167.828 189.342C169.333 185.588 170.86 181.419 169.439 177.645C169.1 176.732 168.57 175.757 168.888 174.824C169.312 173.559 171.008 173.123 171.56 171.92C172.196 170.593 171.199 169.058 171.454 167.627C171.708 166.175 173.171 165.221 174.592 164.702C176.012 164.184 177.56 163.852 178.705 162.898C180.889 161.031 180.635 157.692 180.147 154.871C179.659 152.071 179.299 148.753 181.398 146.782C177.539 147.508 173.595 148.255 170.245 150.246C166.895 152.237 164.223 155.763 164.414 159.6C164.52 161.529 165.283 163.582 164.393 165.283C163.417 167.129 160.809 167.855 160.152 169.825C159.389 172.086 161.657 174.16 162.548 176.379C163.396 178.474 162.993 180.818 163.184 183.037C163.375 185.277 164.562 187.808 166.831 188.139L167.828 189.342Z" fill="white"/>
</g>
<path d="M166.28 184.427C166.237 173.517 168.4 150.682 181.271 146.865" stroke="white" stroke-width="0.75" stroke-miterlimit="10" stroke-linecap="round"/>
<path d="M158.859 188.43C156.569 184.24 154.194 179.574 155.318 174.948C155.593 173.828 156.06 172.625 155.572 171.568C154.915 170.157 152.858 169.846 152.031 168.519C151.119 167.067 152.052 165.117 151.543 163.479C151.034 161.799 149.19 160.907 147.472 160.471C145.755 160.057 143.889 159.891 142.404 158.895C139.584 157.008 139.415 153.046 139.584 149.707C139.754 146.368 139.712 142.427 136.976 140.415C141.599 140.747 146.327 141.099 150.526 142.987C154.724 144.874 158.371 148.649 158.668 153.171C158.816 155.431 158.201 157.941 159.495 159.828C160.894 161.861 164.053 162.359 165.114 164.578C166.322 167.129 163.969 169.846 163.227 172.563C162.548 175.114 163.333 177.811 163.417 180.445C163.502 183.079 162.463 186.211 159.855 186.916L158.859 188.43Z" fill="#FFBE55"/>
<path d="M159.982 182.457C158.498 169.66 152.773 143.215 137.146 140.498" stroke="white" stroke-width="0.75" stroke-miterlimit="10" stroke-linecap="round"/>
<path d="M173.341 213.008H153.197C151.798 213.008 150.653 211.888 150.653 210.519L148.957 182.104C148.957 180.735 150.102 179.615 151.501 179.615H175.037C176.437 179.615 177.582 180.735 177.582 182.104L175.885 210.519C175.885 211.888 174.74 213.008 173.341 213.008Z" fill="#5856D6" fill-opacity="0.5"/>
<path d="M3.67867 120.838L-9.31906 122.765L-0.483015 179.773L12.5147 177.845L3.67867 120.838Z" fill="#FFBE55"/>
<path d="M3.69009 120.898L-9.30777 122.827L-6.25444 115.173L-4.51574 110.859L-1.54722 114.489L3.69009 120.898Z" fill="#FFEBC2"/>
<path d="M3.67414 120.843L-2.82474 121.806L6.01132 178.814L12.5102 177.85L3.67414 120.843Z" fill="#FFBE55"/>
<path d="M27.2321 108.937L20.6852 108.364L15.428 165.792L21.9749 166.366L27.2321 108.937Z" fill="#FFBE55"/>
<path d="M27.2261 108.992L14.1222 107.852L18.9566 101.132L21.6919 97.3362L23.6851 101.547L27.2261 108.992Z" fill="#FFEBC2"/>
<path d="M23.685 101.547L18.9566 101.132L21.6919 97.3362L23.685 101.547Z" fill="#0E538C"/>
<path d="M27.2195 108.932L14.1258 107.785L8.86851 165.214L21.9623 166.361L27.2195 108.932Z" fill="#FFBE55"/>
<path d="M35.8347 213.215H-15.8175L-22.5815 135.022H39.9694L35.8347 213.215Z" fill="#5856D6" fill-opacity="0.5"/>
<path opacity="0.5" d="M8.69403 213.215H35.8348L39.9695 135.022H8.69403V213.215Z" fill="#5856D6" fill-opacity="0.5"/>
<path d="M151.289 191.146H20.0379V208.797H151.289V191.146Z" fill="#FFEBC2"/>
<path d="M20.5892 191.147V208.797H158.286V210.125C158.286 211.763 156.823 213.091 155.021 213.091H21.1829C16.921 213.091 13.4648 209.98 13.4648 206.122V194.32C13.4648 190.463 16.921 187.352 21.1829 187.352H155.021C156.823 187.352 158.286 188.679 158.286 190.317V191.168H20.5892V191.147Z" fill="#FFBE55"/>
<path d="M151.289 199.007H20.0379V208.776H151.289V199.007Z" fill="#FFEBC2"/>
<path d="M143.656 169.659H37.0009V185.007H143.656V169.659Z" fill="#5856D6" fill-opacity="0.5"/>
<path d="M37.0009 169.659V185.007H147.684V186.169C147.684 187.6 146.497 188.74 145.055 188.74H37.4674C34.0536 188.74 31.2759 186.023 31.2759 182.684V172.417C31.2759 169.078 34.0536 166.361 37.4674 166.361H145.055C146.497 166.361 147.684 167.523 147.684 168.933V169.68H37.0009V169.659Z" fill="#2A94F4"/>
<path d="M83.0978 117.413C81.6348 115.526 81.5076 112.933 82.8858 110.963C83.9884 109.387 84.7305 107.437 84.6457 106.006C84.4761 103.434 82.8434 101.07 80.617 99.6592C77.6909 97.7925 73.7894 97.5229 70.63 98.9748C67.4707 100.427 65.1807 103.538 64.7778 106.918C64.4809 109.345 65.0534 112 63.7812 114.115C62.8483 115.63 61.1308 116.521 59.4345 117.123C57.717 117.704 55.9146 118.098 54.3456 118.99C52.7765 119.881 51.4406 121.416 51.4619 123.2C51.4831 124.548 52.2676 125.793 52.3524 127.12C52.4796 129.07 51.0802 130.791 49.5959 132.077C48.0905 133.363 46.373 134.483 45.3552 136.163C43.6801 138.942 44.4646 142.696 46.585 145.185C48.7054 147.674 51.8859 149.064 55.0665 149.872C63.76 152.112 72.92 150.661 81.8892 150.515C84.6669 150.474 87.5082 150.557 90.2011 149.872C92.894 149.188 95.5232 147.612 96.647 145.123C97.792 142.634 97.2195 139.606 95.6929 137.345C94.1662 135.084 91.7702 133.446 89.2469 132.284C87.4234 131.434 85.4726 130.77 83.9884 129.443C82.5041 128.115 81.6348 125.855 82.6314 124.133C83.013 123.47 83.6491 122.951 84.0096 122.287C84.7305 121.001 84.4337 119.363 83.6279 118.118C83.4795 117.911 83.3099 117.683 83.0978 117.413Z" fill="#0E538C"/>
<path d="M143.656 176.504H37.0009V185.008H143.656V176.504Z" fill="#5856D6" fill-opacity="0.5"/>
<path d="M85.1334 154.726L98.2797 163.852L114.395 196.415H111.426L93.4028 167.585C93.4028 167.585 87.2538 167.793 85.1334 165.926C83.013 164.059 70.8209 155.97 70.8209 155.97L85.1334 154.726Z" fill="#0B4870"/>
<path d="M61.8729 152.113C59.4769 158.459 61.1732 167.378 69.2306 167.793C77.288 168.208 79.8325 167.793 79.8325 167.793L95.5232 198.904H99.1279L86.8297 164.059L71.8811 155.971L61.8729 152.113Z" fill="#0E538C"/>
<path d="M74.1075 115.941C76.2278 118.637 81.3167 126.104 83.2251 134.4C85.1334 142.696 90.4343 154.726 90.4343 154.726H84.2852L78.3482 135.022L72.8352 116.563L74.1075 115.941Z" fill="#4EA3FB"/>
<path d="M80.6381 104.927C80.9561 110.009 78.6873 113.493 75.4431 113.659C72.199 113.825 70.0786 109.221 71.054 104.927C73.3228 101.111 76.4185 100.8 76.4185 100.8H78.3693L80.6381 104.927Z" fill="#FFE3CA"/>
<path d="M78.4753 101.899C77.8816 103.683 76.567 105.218 74.8707 106.089C73.1744 106.96 71.1388 107.167 69.2941 106.628L73.9165 100.178H77.8816L81.6771 103.123L81.1046 106.504C79.6203 105.404 78.4753 101.899 78.4753 101.899Z" fill="#0E538C"/>
<path d="M74.4679 113.058C73.7894 115.629 74.0014 118.326 74.0014 118.741C73.3653 119.57 70.3968 119.363 69.9727 116.459C70.6089 112.726 71.8811 108.578 71.8811 108.578L72.9413 110.859L74.4679 113.058Z" fill="#FFE3CA"/>
<path d="M70.3967 114.261C67.7462 115.111 58.8407 119.052 58.4166 119.882C59.0527 122.163 62.2333 155.971 62.2333 155.971H76.6518C76.6518 155.971 74.7435 137.304 75.8037 136.059C76.8638 134.815 80.2564 130.459 79.8324 129.837C79.4083 129.215 74.0225 115.837 74.0225 115.837L70.3967 114.261Z" fill="#2A94F4"/>
<path d="M58.4167 119.882C56.3387 121.437 47.6028 135.437 50.3593 142.904C53.1158 150.37 62.1273 154.768 62.1273 154.768V150.661C62.1273 150.661 54.8121 144.978 55.2361 140.83C55.6602 136.682 60.7491 128.178 60.7491 128.178L58.4167 119.882Z" fill="#4EA3FB"/>
<path d="M92.5758 158.356H61.364C60.3886 158.356 59.5829 157.568 59.5829 156.613L58.7347 137.076C58.7347 136.122 59.5405 135.333 60.5158 135.333H92.9999C93.9753 135.333 94.781 136.122 94.781 137.076L94.3569 156.613C94.3569 157.568 93.5512 158.356 92.5758 158.356Z" fill="#FFBE55"/>
<path d="M98.6187 198.904C100.718 199.36 103.559 201.621 104.916 202.782C105.192 203.01 105.022 203.467 104.641 203.467C102.457 203.425 97.5161 203.197 96.3711 202.243C94.8869 200.999 95.3109 198.925 95.3109 198.925H98.6187V198.904Z" fill="#1A87D8"/>
<path d="M114.352 196.332C116.218 196.83 118.677 198.945 119.907 200.086C120.183 200.335 119.971 200.771 119.61 200.75C117.554 200.605 113.143 200.211 112.147 199.277C110.832 198.074 111.32 196.187 111.32 196.187L114.352 196.332Z" fill="#1A87D8"/>
<path d="M76.8639 149.956C78.6204 149.956 80.0443 148.563 80.0443 146.845C80.0443 145.126 78.6204 143.733 76.8639 143.733C75.1073 143.733 73.6834 145.126 73.6834 146.845C73.6834 148.563 75.1073 149.956 76.8639 149.956Z" fill="white"/>
<path d="M48.8749 191.022L44.8462 188.741L40.8175 191.022V176.504H48.8749V191.022Z" fill="#FFBE55"/>
<path d="M111.341 105.052C111.341 105.446 111.193 105.798 110.938 106.089C111.193 106.358 111.341 106.732 111.341 107.126V108.412C111.341 108.681 111.256 108.951 111.129 109.179C111.256 109.407 111.341 109.677 111.341 109.947V111.232C111.341 112.083 110.641 112.767 109.772 112.767H96.1169C95.2475 112.767 94.5478 112.083 94.5478 111.232V109.926C94.5478 109.656 94.6326 109.387 94.7598 109.158C94.6326 108.93 94.5478 108.661 94.5478 108.391V107.105C94.5478 106.711 94.6962 106.358 94.9507 106.068C94.6962 105.798 94.5478 105.425 94.5478 105.031V103.745C94.5478 102.895 95.2475 102.21 96.1169 102.21H109.772C110.641 102.21 111.341 102.895 111.341 103.745V105.052Z" fill="#FFBE55"/>
<path d="M122.24 75.9732C122.24 83.4606 117.787 89.911 111.341 92.9806V99.9495C111.341 100.468 110.896 100.904 110.366 100.904H95.5232C94.9931 100.904 94.5478 100.468 94.5478 99.9495V92.9806C88.1019 89.9317 83.6491 83.4606 83.6491 75.9732C83.6491 65.5406 92.279 57.0991 102.944 57.0991C113.61 57.0991 122.24 65.5613 122.24 75.9732Z" fill="#FFBE55"/>
<path opacity="0.23" d="M109.518 106.193H96.5834" stroke="#7F7F7F" stroke-width="2" stroke-miterlimit="10" stroke-linecap="round"/>
<path opacity="0.23" d="M109.518 109.096H96.5834" stroke="#7F7F7F" stroke-width="2" stroke-miterlimit="10" stroke-linecap="round"/>
<path d="M106.252 78.2965C106.019 78.0891 105.68 77.9854 105.319 78.0268C104.874 78.0683 104.45 78.3172 104.174 78.6698C103.941 78.9809 103.814 79.3542 103.75 79.7068C103.559 79.6031 103.347 79.4994 103.157 79.375L103.093 79.3335H102.817L102.754 79.375C102.542 79.4994 102.351 79.6031 102.16 79.7068C102.096 79.3542 101.969 78.9809 101.736 78.6698C101.481 78.3172 101.036 78.0683 100.591 78.0268C100.23 77.9854 99.9123 78.0891 99.6579 78.2965C99.3398 78.5868 99.2338 79.0016 99.3398 79.4372C99.5094 80.0179 99.9971 80.495 100.57 80.5987C100.93 80.6609 101.269 80.6402 101.63 80.5572C102.16 87.2979 102.372 94.1216 102.224 100.862H102.86C103.008 94.1009 102.796 87.2565 102.266 80.5157C102.266 80.4535 102.266 80.3913 102.245 80.3291C102.499 80.2253 102.732 80.1009 102.966 79.9557C103.199 80.0802 103.432 80.2253 103.687 80.3291C103.687 80.3913 103.687 80.4535 103.665 80.5157C103.135 87.2565 102.923 94.1009 103.072 100.862H103.708C103.559 94.1216 103.771 87.2772 104.302 80.5572C104.641 80.6402 105.001 80.6816 105.362 80.5987C105.913 80.495 106.422 80.0179 106.592 79.4372C106.676 79.0016 106.57 78.5868 106.252 78.2965ZM100.676 80.0179C100.358 79.9557 100.04 79.6446 99.9335 79.292C99.8911 79.1468 99.8699 78.9187 100.061 78.7735C100.167 78.6698 100.315 78.6491 100.421 78.6491C100.442 78.6491 100.464 78.6491 100.506 78.6491C100.76 78.6698 101.036 78.815 101.206 79.0431C101.397 79.292 101.503 79.6031 101.545 79.9557C101.248 80.0387 100.973 80.0594 100.676 80.0179ZM105.955 79.292C105.849 79.6446 105.553 79.9557 105.213 80.0179C104.938 80.0802 104.641 80.0387 104.365 79.9557C104.429 79.6031 104.514 79.292 104.704 79.0431C104.853 78.8357 105.128 78.6905 105.404 78.6491C105.531 78.6283 105.701 78.6491 105.849 78.7735C105.998 78.9187 105.977 79.1468 105.955 79.292Z" fill="white"/>
<path d="M97.8557 60.563C93.1909 62.2222 85.5575 68.2371 86.1936 77.9852" stroke="white" stroke-width="4" stroke-miterlimit="10" stroke-linecap="round"/>
<path d="M72.3051 94.3705C75.2912 94.3705 77.712 92.0026 77.712 89.0816C77.712 86.1606 75.2912 83.7927 72.3051 83.7927C69.3189 83.7927 66.8981 86.1606 66.8981 89.0816C66.8981 92.0026 69.3189 94.3705 72.3051 94.3705Z" fill="#FFBE55"/>
<path d="M130.191 74.0445C131.538 74.0445 132.63 72.9767 132.63 71.6594C132.63 70.3421 131.538 69.2742 130.191 69.2742C128.845 69.2742 127.753 70.3421 127.753 71.6594C127.753 72.9767 128.845 74.0445 130.191 74.0445Z" fill="#FFBE55"/>
<path d="M122.24 113.037C124.465 113.037 126.269 111.273 126.269 109.096C126.269 106.92 124.465 105.156 122.24 105.156C120.015 105.156 118.211 106.92 118.211 109.096C118.211 111.273 120.015 113.037 122.24 113.037Z" fill="#FFBE55"/>
<path d="M83.649 58.0741C85.874 58.0741 87.6777 56.3098 87.6777 54.1334C87.6777 51.957 85.874 50.1926 83.649 50.1926C81.4241 50.1926 79.6203 51.957 79.6203 54.1334C79.6203 56.3098 81.4241 58.0741 83.649 58.0741Z" fill="#FFBE55"/>
<path opacity="0.14" d="M48.8749 191.022L44.8462 188.741L40.8175 191.022V176.504H48.8749V191.022Z" fill="#0C0C0C"/>
</svg>
