<svg width="198" height="115" viewBox="0 0 198 115" fill="none" xmlns="http://www.w3.org/2000/svg">
<path d="M42.5313 93.0399C40.7813 91.9345 38.9063 91.0165 37.0313 90.1298C33.1016 88.2665 32.6446 88.3876 29.7774 91.6689C29.6602 91.8056 29.5938 91.9892 29.4688 92.1103C28.6602 92.911 28.086 93.9501 26.6602 93.9774C26.0508 93.9892 25.4219 94.6493 24.8633 95.0946C23.1211 96.4814 23.2618 97.1884 25.4024 98.0009C25.6524 98.0985 25.9102 98.1923 26.1758 98.2509C29.3516 98.9228 32.5625 99.4267 35.6602 100.458C36.3282 100.681 37.086 100.645 37.5196 100.696C39.7344 100.673 41.6563 100.036 42.8594 99.0204C45.1719 97.0634 45.0977 94.661 42.5313 93.0399ZM16.7696 80.6884C15.2657 80.4149 13.7383 80.2235 12.2149 80.0595C5.57817 79.3446 -1.08979 79.1024 -7.76167 78.954C-8.30073 79.0087 -8.86323 79.1923 -9.37495 79.1024C-14.1718 78.2587 -16.3828 81.2353 -18.121 84.9345C-18.1953 85.0985 -18.3007 85.247 -18.3749 85.411C-21.5937 92.2743 -18.914 100.403 -12.2656 103.997C-10.4101 105.001 -8.42964 105.657 -6.35932 105.829C0.921925 106.442 8.05474 105.657 14.9415 103.134C17.5743 102.165 17.9219 101.567 17.8868 98.6884C17.875 97.9696 17.8165 97.247 17.8243 96.5282C17.8633 92.3759 18.1954 88.2431 19.0274 84.1767C19.4883 81.9306 19.0977 81.1064 16.7696 80.6884ZM197.266 7.44229C195.074 18.6064 192.895 29.7704 190.676 40.9267C186.031 64.3056 181.363 87.6806 176.707 111.059C176.617 111.501 176.527 111.942 176.406 112.38C175.848 114.341 175.504 114.602 173.34 114.657C168.91 114.77 164.481 114.899 160.051 114.974C144.684 115.231 129.313 115.47 110.238 115.774C94.504 116.005 75.0665 116.286 55.629 116.571C55.5391 116.571 55.4454 116.575 55.3555 116.575C52.6016 116.602 52.6563 116.606 52.7657 113.931C53.2188 103.157 55.3633 92.6103 56.9883 81.9931C57.3321 79.747 57.4102 79.7079 60.0235 79.4814C69.1172 78.6962 78.2188 77.9384 87.3165 77.1962C102.453 75.954 117.594 74.7353 132.731 73.5087C135.434 73.2899 138.137 73.079 140.84 72.8603C143.098 72.6806 143.117 72.6884 143.629 70.4345C146.012 59.9579 148.367 49.4735 150.762 39.0009C153.457 27.2079 156.152 15.411 158.918 3.6376C159.906 -0.55771 159.738 -0.229585 163.816 0.31729C174.563 1.7587 185.281 3.40713 196.008 4.98526C197.672 5.22745 197.691 5.28213 197.266 7.44229Z" fill="#F57B8B"/>
<path d="M121.887 39.7393C123.351 39.6846 124.418 40.4229 124.473 41.5283C124.543 42.9033 122.785 44.4775 121.152 44.4971C119.949 44.5127 118.976 43.7002 118.91 42.6221C118.824 41.1807 120.25 39.8018 121.887 39.7393ZM126.301 31.5439C122.25 31.2354 118.203 30.8174 114.203 30.1025C112.074 29.7236 109.984 29.1182 107.887 28.5752C107.367 28.4424 106.875 28.1885 106.398 27.9385C105.992 27.7236 105.644 27.3916 105.695 26.8838C105.762 26.208 106.324 26.0596 106.859 25.9697C107.301 25.8955 107.758 25.9072 108.34 25.8721C114.047 26.5596 119.836 27.4893 125.555 28.8408C125.992 28.9463 126.414 29.1182 126.828 29.3018C127.476 29.5869 128.387 29.8447 128.141 30.7314C127.93 31.4932 127.027 31.6025 126.301 31.5439ZM133.617 35.7119C133.203 35.5869 132.992 35.2744 133.035 34.9189C133.137 34.0635 133.891 33.8838 134.543 33.7041C134.93 33.5947 135.223 33.9424 135.215 34.3096C135.195 35.3447 134.301 35.4307 133.617 35.7119ZM129.617 33.4502C128.711 33.8057 128.16 34.6416 128.988 35.6143C129.699 36.4424 129.723 37.4072 129.812 38.3994C130.023 40.7432 131.242 41.5205 133.164 40.2158C134.969 38.9932 136.812 37.9541 138.828 37.1455C139.711 36.7939 140.203 36.0049 140.203 34.833C139.539 33.2236 138.644 31.5518 138.101 29.7275C137.914 29.1025 137.152 29.2002 136.699 29.5283C134.504 31.1377 132.164 32.458 129.617 33.4502ZM105.516 5.25879C105.117 4.87988 104.805 4.37207 105.098 3.80957C105.43 3.16895 106.023 3.03223 106.715 3.19629C107.875 3.46582 108.906 4.0166 109.898 4.64942C117.719 9.64942 125.547 14.6494 133.359 19.6689C134.191 20.2002 134.976 20.8174 135.738 21.4463C136.527 22.1025 137.226 22.8721 136.691 23.9971C136.203 25.0322 135.234 25.2471 134.191 25.2354C133.152 25.2275 132.269 24.79 131.422 24.251C124.125 19.5908 116.965 14.7275 110.094 9.46192C108.457 8.2041 107.019 6.68067 105.516 5.25879ZM84.8749 61.2666C84.4999 60.2979 85.2499 59.7314 85.9882 59.3799C86.9608 58.915 87.9843 58.5283 89.0194 58.2314C102.84 54.251 116.918 51.3174 130.902 48.0205C130.992 48.001 131.078 47.9736 131.168 47.9658C132.211 47.8682 133.551 47.3447 133.84 48.8838C134.098 50.2471 132.848 50.708 131.801 50.9854C125.773 52.5869 119.726 54.1182 113.695 55.7158C105.57 57.8682 97.4179 59.9189 89.1757 61.5791C88.3788 61.7393 87.578 61.8721 87.121 61.9541C86.0429 61.9658 85.1913 62.083 84.8749 61.2666ZM87.3866 90.2197C84.9686 90.5322 82.5468 90.8408 80.1249 91.126C75.2772 91.6924 70.4257 92.2471 65.578 92.8057C65.039 92.8682 64.496 92.9229 63.9569 92.9541C63.5194 92.9775 62.9999 93.0557 62.8671 92.4775C62.7147 91.8252 63.078 91.4424 63.6991 91.3486C64.5936 91.2119 65.4921 91.0986 66.3905 91.0244C71.703 90.5908 76.9257 89.3174 82.285 89.3135C83.91 89.2158 85.535 89.0908 87.16 89.0322C87.7069 89.0166 88.5897 88.5947 88.6483 89.5635C88.6874 90.2549 87.8866 90.1533 87.3866 90.2197ZM86.6405 96.5518C86.203 96.6494 85.746 96.6494 85.2968 96.6846C78.6522 97.2432 71.9686 97.0205 65.5077 97.7861C64.6132 97.7861 63.8905 97.8135 63.1718 97.7783C62.6015 97.751 61.7655 98.0322 61.703 97.0947C61.6444 96.208 61.6679 95.2314 62.8866 95.0088C63.2421 94.9424 63.5975 94.8877 63.9569 94.8486C71.3827 94.0127 78.8085 93.1611 86.2421 92.376C86.91 92.3057 87.9569 91.7588 88.2577 92.9658C88.5624 94.1846 87.539 96.3525 86.6405 96.5518ZM87.746 86.7354C79.6249 87.0439 71.6093 88.3799 63.535 89.1963C62.121 89.3369 61.1796 90.1064 60.6991 91.3721C59.8983 93.4814 59.453 95.6924 58.9999 97.8994C58.7382 99.1885 59.3944 99.7783 60.5858 99.833C61.8436 99.8877 63.1054 99.8447 64.3671 99.8447C70.0311 99.3564 75.7147 99.333 81.3905 99.1182C83.5507 99.0361 85.7147 98.8682 87.8593 98.5908C89.9296 98.3213 90.371 97.8408 90.578 95.8916C90.7772 94.0127 90.9569 92.1338 91.1679 90.2588C91.5116 87.1807 90.8866 86.6143 87.746 86.7354ZM150.324 103.524C145.008 103.989 145.004 103.989 143.07 98.9775C142.75 98.1455 142.457 97.3096 142.164 96.5088C142.363 96.3213 142.469 96.1299 142.613 96.0986C147.008 95.1064 147.035 95.0947 148.953 99.2197C149.578 100.563 150.484 101.821 150.652 103.302C150.457 103.435 150.394 103.517 150.324 103.524ZM141.687 103.415C141.523 103.489 141.367 103.603 141.203 103.622C136.652 104.13 136.648 104.13 135.195 99.8135C134.941 99.0518 134.719 98.2744 134.512 97.4932C134.469 97.3447 134.57 97.1533 134.605 96.9775C134.762 96.8955 134.914 96.7705 135.082 96.7432C139.308 96.1025 139.312 96.1025 140.816 100.103C141.164 101.028 141.473 101.962 141.773 102.903C141.82 103.052 141.719 103.243 141.687 103.415ZM132.855 92.8213C132.715 92.2119 132.473 91.6221 132.328 91.0127C132.269 90.7744 132.269 90.4619 132.375 90.251C132.824 89.3721 136.445 89.3643 137.012 90.2354C137.203 90.5322 137.301 90.8916 137.437 91.2236C138.723 94.29 138.586 94.5049 135.113 94.5869C133.781 94.9658 133.156 94.1377 132.855 92.8213ZM127.848 99.9541C127.73 99.4268 127.609 98.9033 127.492 98.376C127.32 97.5986 127.633 97.2588 128.422 97.0986C131.101 96.5557 131.633 96.8291 132.476 99.4971C132.879 100.767 133.476 101.993 133.586 103.524C128.781 104.181 128.781 104.181 127.848 99.9541ZM126.32 93.6416C126.211 93.0322 126.027 92.4307 125.898 91.8213C125.824 91.4775 125.769 91.1221 126.047 90.8213C126.953 89.833 129.582 90.2822 130.039 91.5127C130.16 91.8447 130.238 92.1963 130.332 92.54C130.992 94.8799 130.82 95.1104 128.273 95.1572C127.125 95.3916 126.523 94.8018 126.32 93.6416ZM125.512 103.907C124.672 104.024 123.57 104.442 123.211 103.259C122.746 101.728 122.457 100.134 122.211 98.5518C122.039 97.4307 123.039 97.6455 123.566 97.5049C124.519 97.3486 125.051 97.6494 125.234 98.5283C125.508 99.8369 125.828 101.142 126.113 102.45C126.242 103.06 126.437 103.778 125.512 103.907ZM121.301 94.6885C121.094 93.9033 120.91 93.1182 120.719 92.333C120.629 91.7275 120.683 91.1924 121.41 91.1104C122.156 91.0283 123.094 90.4854 123.539 91.5479C123.848 92.2861 123.949 93.1143 124.121 93.9033C124.285 94.6533 124.351 95.4072 123.289 95.4932C122.516 95.5557 121.601 95.8252 121.301 94.6885ZM119.68 104.185C117.176 104.509 116.785 104.263 116.348 101.685C116.242 101.071 116.172 100.446 116.117 100.052C116.043 98.9307 115.855 98.0518 117.211 97.8525C119.121 97.5752 119.769 97.7705 120.125 99.1611C120.414 100.282 120.59 101.431 120.824 102.567C121.023 103.521 120.777 104.048 119.68 104.185ZM114.969 92.7041C114.957 91.1064 116.277 91.4932 117.133 91.415C118.344 91.3018 119.168 92.8213 119.148 94.8994C119.137 95.7627 118.68 96.0205 117.125 96.0283C115.703 96.0361 114.988 94.9619 114.969 92.7041ZM113.816 104.231C112.98 104.22 111.883 104.653 111.57 103.384C111.308 102.345 111.215 101.259 111.047 100.192C110.91 99.3135 110.551 98.3838 112.047 98.2705C113.695 98.1494 114.121 98.333 114.312 99.7393C114.457 100.806 114.508 101.884 114.578 102.649C114.855 103.696 114.676 104.247 113.816 104.231ZM109.523 93.2197C109.535 91.6611 110.875 92.0713 111.699 91.9619C112.82 91.8135 113.449 93.1104 113.523 95.2393C113.574 96.7119 112.426 96.3096 111.746 96.5166C110.328 96.5596 109.508 95.3369 109.523 93.2197ZM106.758 104.466C104.68 104.45 104.582 104.427 104.121 102.29C103.324 98.5908 102.805 99.0908 106.848 98.6416C108.223 98.4893 108.894 98.8604 108.953 100.259C108.973 100.7 109.09 101.142 109.16 101.579C109.609 104.356 109.504 104.485 106.758 104.466ZM102.238 94.2197C102.168 93.8721 102.129 93.5166 102.07 93.1494C103.195 92.5674 104.418 92.8096 105.535 92.501C106.941 92.1104 107.441 92.833 107.723 94.0908C108.273 96.5674 108.273 96.6221 105.75 96.8135C102.824 97.0361 102.82 97.0361 102.238 94.2197ZM101.195 89.9619C100.359 87.6338 100.598 87.1689 103.098 86.9854C103.277 86.9736 103.457 86.9619 103.633 86.9541C106.023 86.8408 106.258 87.0635 106.621 89.29C106.777 90.251 106.426 90.626 105.523 90.6611C104.898 90.6885 104.269 90.7354 103.453 90.7861C102.742 90.7744 101.719 91.4229 101.195 89.9619ZM99.7421 82.7158C101.012 82.2939 102.367 82.3838 103.68 82.1924C105.004 81.9971 105.371 82.7002 105.531 83.8525C105.723 85.2314 104.871 85.2822 103.922 85.3291C103.476 85.3486 103.031 85.3916 102.586 85.4346C99.9257 85.6807 99.9257 85.6807 99.7421 82.7158ZM109.883 81.8955C110.957 81.7666 111.289 82.3174 111.383 83.2939C111.484 84.376 110.988 84.665 110.004 84.7979C107.496 85.1299 107.488 85.165 107.058 82.2471C108.074 81.8486 108.992 82.0049 109.883 81.8955ZM112.258 88.5947C112.308 89.8135 111.848 90.1455 110.094 90.1572C108.855 90.165 108.133 89.2939 108.156 87.5635C108.176 85.9893 109.512 86.4893 110.344 86.4307C111.801 86.3252 112.183 86.833 112.258 88.5947ZM112.816 82.6455C112.875 81.0713 114.25 81.8135 114.93 81.5439C116.41 81.4971 116.473 82.5947 116.359 83.3916C116.164 84.7549 114.848 84.3291 114.004 84.3799C112.902 84.4463 112.785 83.3955 112.816 82.6455ZM117.609 88.3447C117.699 89.8525 116.488 89.3877 115.789 89.6064C114.457 89.6455 113.973 89.0049 113.844 87.3018C113.734 85.7822 114.91 86.1025 115.691 86.0244C116.891 85.9072 117.519 86.7549 117.609 88.3447ZM120.465 81.3838C121.234 81.4893 121.351 82.1846 121.41 82.8252C121.48 83.5908 120.914 83.6377 120.371 83.7393C118.59 84.0791 118.41 83.9229 118.082 81.6143C118.848 81.2627 119.672 81.2783 120.465 81.3838ZM122.641 87.4697C122.75 88.083 123.035 88.8096 122.09 88.9541C121.328 89.0752 120.391 89.415 119.918 88.4697C119.562 87.7627 119.258 86.9893 119.391 85.9893C122.176 85.5244 122.301 85.5869 122.641 87.4697ZM124.269 81.0479C124.535 81.0127 124.805 81.0283 125.07 80.9971C126.129 80.876 126.855 81.2158 126.844 82.3916C126.828 83.7236 125.598 82.9932 125.223 83.3721C124.363 83.4619 123.836 83.3682 123.488 82.6611C122.98 81.6416 123.152 81.2002 124.269 81.0479ZM128.672 87.4229C128.754 88.9658 127.465 88.2705 126.84 88.5205C125.258 88.5518 124.531 87.79 124.59 86.2471C124.637 84.9697 125.66 85.2783 126.367 85.2236C127.871 85.1064 128.586 85.79 128.672 87.4229ZM132.187 80.5713C133.191 80.4268 133.781 80.9229 133.824 81.8682C133.867 82.8604 132.973 82.5361 132.437 82.6338C131.82 82.7432 131.187 82.751 130.566 82.8174C129.277 82.9619 128.801 82.2666 128.742 81.083C129.859 80.6143 131.047 80.7354 132.187 80.5713ZM134.941 85.0166C135.422 85.665 135.855 86.4658 135.695 87.2393C135.504 88.1572 134.531 87.8682 133.867 87.9268C131.476 88.1377 131.25 87.9893 130.738 86.4072C130.387 85.3213 130.562 84.665 131.867 84.6963C132.223 84.7041 132.582 84.6533 133.004 84.6299C133.629 84.6729 134.418 84.3057 134.941 85.0166ZM137.262 80.2236C139.734 79.6846 139.922 79.7783 140.5 81.8682C139.469 82.2783 138.371 82.1846 137.305 82.251C136.516 82.3018 136.172 81.708 136.121 81.0361C136.058 80.2432 136.769 80.333 137.262 80.2236ZM142.883 86.8838C139.316 88.1572 138.558 87.8369 137.629 84.4932C141.719 83.3018 141.719 83.3018 142.883 86.8838ZM146.031 93.7744C145.887 93.8604 145.738 94.0283 145.594 94.0244C140.687 93.9424 141.492 95.5439 139.504 89.501C139.609 89.376 139.695 89.1689 139.82 89.1377C144.215 88.0947 144.68 88.4463 146.031 93.7744ZM153.23 102.442C149.797 95.3799 146.301 88.3408 142.957 81.2393C141.894 78.9775 140.48 78.083 137.93 78.2432C125.125 79.04 112.308 79.6768 99.496 80.3994C97.453 80.5166 96.8046 81.3369 97.2655 83.4736C98.7811 90.5283 100.406 97.5635 101.976 104.61C102.258 105.876 103.016 106.435 104.285 106.403C105.461 106.372 106.719 106.634 107.789 106.29C109.242 105.821 110.137 107.927 111.527 106.88C112.738 105.962 114.148 106.317 115.449 106.302C122.398 106.228 129.348 106.267 136.297 106.267C136.297 106.142 136.297 106.021 136.297 105.896C137.473 105.896 138.648 105.927 139.82 105.888C144.062 105.763 148.301 105.63 152.539 105.47C153.75 105.423 154.113 104.872 153.769 103.681C153.648 103.251 153.426 102.849 153.23 102.442ZM23.2069 49.8525C23.0311 52.3877 22.496 54.8721 21.5819 57.2236C20.2421 60.6807 20.1913 64.458 18.7186 67.8838C17.539 70.6221 15.6757 72.7627 13.4765 74.6729C12.6835 75.3643 11.4218 75.1143 10.7538 76.2393C9.66396 78.0713 8.34365 79.7744 6.98427 81.7314C8.80849 81.9854 10.1483 82.1689 11.4843 82.3682C11.828 82.4229 12.2265 82.4697 12.2968 82.9111C12.3632 83.3213 12.1093 83.6768 11.7538 83.7236C9.84364 83.9814 9.25771 85.4268 8.54677 86.9268C7.51552 89.1221 6.15224 89.6885 3.91396 88.7002C1.34755 87.5674 -0.726667 88.1416 -2.39073 90.1338C-5.01182 93.2783 -8.13292 93.583 -11.6329 92.0596C-13.0118 91.4619 -14.2267 91.501 -15.4806 92.2861C-16.4142 92.8721 -17.4337 93.2197 -18.5587 93.1338C-21.8243 92.8838 -23.7267 90.1104 -22.7384 86.9854C-22.4689 86.1338 -22.0431 85.3213 -21.6368 84.5205C-21.2189 83.6924 -20.9884 82.8408 -21.0665 81.915C-21.4767 76.9932 -20.5314 72.2119 -19.4728 67.458C-18.9259 64.9932 -18.1954 62.5713 -17.5821 60.126C-15.7774 52.9111 -12.3751 46.5088 -7.78917 40.7041C-6.80089 39.4502 -5.89464 38.2861 -3.91026 38.4854C-2.73448 38.6025 -1.48448 37.8877 -0.257917 37.5947C0.82021 37.333 1.57411 37.3564 2.44521 38.5361C3.8163 40.3877 5.70302 41.8682 7.42958 43.4424C8.88271 44.7705 9.60536 44.8291 11.2499 43.7627C11.996 43.2783 12.6249 42.6025 13.289 41.9932C14.6327 40.7744 16.0819 40.5557 17.789 41.2393C22.535 43.1533 23.5702 44.7197 23.2069 49.8525ZM175.683 41.9072C174.687 42.3955 173.754 42.1689 172.883 41.5557C171.867 40.8369 171.574 39.665 170.66 38.6338C169.953 41.501 169.242 44.3721 168.547 47.2432C167.887 49.9619 167.234 52.6768 166.176 55.2783C165.73 56.3682 165.23 57.4424 164.418 58.3057C163.129 59.6689 161.734 59.3096 161.191 57.4932C161.039 56.9775 160.996 56.4268 160.949 55.8916C160.637 52.3877 160.336 48.8799 160.027 45.376C159.555 40.0244 160.262 34.7588 161.183 29.5049C161.351 28.54 161.449 28.458 162.617 27.29C163.539 29.0166 163.25 30.833 163.183 32.5674C162.988 37.4385 162.945 42.3057 163.383 47.165C163.543 48.9385 163.68 50.7119 163.832 52.5518C164.676 52.165 164.648 51.4619 164.777 50.8838C166.074 45.0752 167.336 39.2627 168.637 33.4541C168.891 32.3174 169.215 31.1846 169.621 30.0908C170.023 29.0049 170.828 28.333 172.062 28.2627C173.414 28.1846 174.293 28.8564 174.898 29.9619C175.375 30.8447 175.683 31.7861 175.785 32.79C176.016 35.1182 176.242 37.4541 176.453 39.79C176.527 40.6025 176.601 41.458 175.683 41.9072ZM188.41 8.28223C185.191 7.8252 181.976 7.34473 178.758 6.89551C174.285 6.2666 169.812 5.65723 164.629 4.94238C163.652 4.59863 163.023 5.57129 162.656 6.96973C162.308 8.27832 161.855 9.55957 161.543 10.876C157.016 30.1064 152.539 49.3486 147.933 68.5596C147.359 70.958 147.633 72.8838 148.941 74.9346C154.242 83.2236 159.441 91.5752 164.687 99.8994C165.023 100.431 165.387 100.962 165.816 101.411C166.203 101.821 166.933 102.149 167.234 101.634C168.144 100.079 170.351 99.4893 170.367 97.2822C170.371 96.5752 170.668 95.8721 170.82 95.1689C176.922 66.7705 183.621 38.5088 189.5 10.0596C189.766 8.7666 189.519 8.43848 188.41 8.28223Z" fill="#F8E9E8"/>
<path d="M0.960682 28.317C3.02318 29.0982 3.39818 29.5591 2.99584 31.6373C2.63646 33.5045 2.46459 35.3795 2.27318 37.2623C2.19896 37.9966 2.16771 38.6841 2.58568 39.3443C4.10131 41.7388 5.87474 43.8677 8.4724 45.1685C10.3904 46.1373 12.1443 45.7584 13.7732 44.4927C14.8943 43.6177 14.9568 42.317 15.031 41.0552C15.1052 39.856 15.6326 39.3521 16.8826 39.274C21.6755 38.981 24.5779 36.0826 26.4372 31.9654C28.199 28.0709 28.4216 23.9224 27.9021 19.7584C27.2888 14.8716 23.9919 12.2076 19.6521 10.6685C18.3044 10.192 16.8279 10.2935 15.4294 10.9341C13.0544 12.0162 11.1247 13.5709 9.90599 15.9029C9.03881 17.5591 8.05443 19.1685 7.36693 21.4693C6.92943 20.606 6.72631 20.1138 6.44506 19.6724C5.26146 17.8052 3.99193 17.6998 2.15209 18.9068C0.648181 19.8912 -0.261975 21.3013 -1.11744 22.7388C-2.56276 25.1529 -1.69166 27.313 0.960682 28.317ZM41.5271 82.0552C38.3201 85.7466 34.8201 89.1373 30.8591 92.0201C28.5232 93.7193 26.1482 95.3716 23.7576 96.9966C22.3357 97.9654 20.7732 98.7076 19.1013 99.1373C17.613 99.5162 16.7107 99.0826 16.3826 97.692C15.4451 93.7427 14.8513 89.731 14.613 85.6724C14.5544 84.6412 15.1443 83.7779 15.3904 82.4927C13.9021 82.5982 12.6521 82.7505 11.3982 82.7623C7.48021 82.8052 4.21459 81.8599 1.33568 78.6646C-4.23072 72.481 -6.72291 65.3052 -7.16432 57.2349C-7.31275 54.5357 -7.35572 51.813 -7.17213 49.1177C-7.00807 46.7271 -6.23463 44.5084 -3.81276 43.317C-1.81666 42.3365 -0.797131 42.4537 0.796619 44.0552C3.26928 46.5396 4.87865 49.5591 5.99974 52.8326C7.75365 57.9576 9.39037 63.1177 10.6677 68.3834C10.7732 68.8209 10.863 69.2662 10.9919 69.6998C11.5076 71.3834 11.5037 71.3521 13.2302 70.899C15.0622 70.4224 16.9099 69.9927 18.7576 69.5748C19.3865 69.4341 20.2263 69.3443 19.9412 68.5045C18.7146 64.9263 20.156 61.5318 20.6638 58.1177C21.2537 54.1216 22.3787 50.2037 23.2966 46.1373C24.5232 46.4888 24.6716 47.5318 25.0662 48.3716C26.9997 52.5045 27.8747 56.9146 28.5427 61.3912C28.7576 62.813 29.2341 64.1998 29.4021 65.6295C29.6052 67.356 30.656 68.1021 32.1677 68.4771C32.6052 68.5826 33.0544 68.6412 33.4958 68.7505C35.9568 69.3443 37.9802 70.5279 39.2654 72.817C39.8826 73.9185 40.5583 75.0201 41.3982 75.9459C42.5505 77.2232 42.1365 78.8482 42.5974 80.2701C42.824 80.9693 41.9919 81.5162 41.5271 82.0552Z" fill="#F7A292"/>
<path d="M20.16 19.3132C22.1717 19.9342 23.6639 20.3991 25.3748 20.9264C23.867 18.6764 22.9608 18.3561 20.16 19.3132ZM11.7069 20.7272C12.9959 18.6608 14.9725 19.2702 16.4608 18.3327C13.3475 17.2272 11.8865 17.7741 11.7069 20.7272ZM20.7733 23.6452C20.7615 24.4069 20.8162 25.2428 21.7381 25.2702C22.8436 25.3014 23.1678 24.3991 23.2498 23.4577C23.3319 22.5671 23.0311 21.735 22.0623 21.6999C20.7694 21.6608 21.0584 22.903 20.7733 23.6452ZM15.3436 20.6061C14.5975 20.4147 13.7108 21.4499 13.5506 22.6139C13.4412 23.4108 13.6483 24.1452 14.5272 24.2311C15.6131 24.3444 16.1248 23.6374 16.2108 22.5553C16.1561 21.8288 16.4295 20.8835 15.3436 20.6061ZM2.15217 25.2194C2.69904 23.5046 3.78107 23.1139 5.25764 23.9421C5.36701 22.778 4.77717 22.3288 4.16779 21.9655C3.3006 21.4538 2.38264 21.0319 1.37873 21.6686C0.187323 22.4225 1.82795 22.9616 1.54279 23.6764C1.37482 24.0905 1.3631 24.5632 2.15217 25.2194ZM17.4022 26.5983C17.16 28.2624 18.3865 29.3132 19.9686 28.7858C20.4295 28.6296 20.8123 28.278 20.5623 27.7858C19.7928 26.2585 19.8319 24.485 18.9608 22.6257C17.867 24.3678 17.6404 24.9811 17.4022 26.5983ZM14.8787 27.8835C13.9803 28.4264 13.1717 28.9186 12.3592 29.4108C12.2772 29.653 12.1951 29.8991 12.1131 30.1452C13.9412 29.8132 14.3006 31.2389 15.16 32.0632C17.1404 33.946 18.6639 34.11 20.9256 32.3874C17.7967 32.2546 14.9412 31.9147 14.8787 27.8835ZM21.5623 98.3131C27.7654 94.1413 34.2811 90.3249 38.7381 84.0553C31.5858 88.9577 25.0154 94.6413 17.0819 99.2311C19.5272 99.5241 19.6014 99.6335 21.5623 98.3131ZM42.6287 75.7116C41.9686 74.4342 41.1483 73.235 40.3279 72.0514C37.2694 67.6256 33.8319 66.2741 28.6561 67.5475C26.6365 68.0475 24.6053 68.4342 22.5428 68.6725C22.0233 68.735 21.5076 68.946 21.074 68.3835C20.2694 67.3288 20.1834 65.6374 20.949 64.4264C21.7967 63.0944 22.7303 61.8014 23.1092 59.6413C21.2147 61.4772 19.9803 63.1139 19.1053 64.9733C18.4217 66.4264 19.9529 67.653 19.8123 69.2077C18.535 69.7663 17.0506 69.8991 15.5076 71.071C16.1131 71.1491 16.4022 71.2702 16.6365 71.1999C20.7381 70.0319 25.0506 70.1647 29.1756 69.1452C32.8904 68.2272 35.9334 69.3483 38.4217 72.153C39.0819 72.8991 39.6326 73.7389 40.3084 74.4577C41.4412 75.6647 41.8279 77.0163 41.6404 78.6647C41.5233 79.6999 41.2108 80.8522 42.0115 82.1764C43.242 79.8444 43.7147 77.8131 42.6287 75.7116ZM32.1795 73.6452C30.3279 74.7663 28.4412 75.8444 26.4998 76.7936C21.8631 79.0631 17.0897 81.0124 11.91 81.5475C7.1756 82.0358 3.46467 80.2936 1.04279 76.028C-0.925959 72.5592 -2.54315 68.9772 -3.64471 65.1296C-4.77752 61.1569 -5.75408 57.1569 -6.74236 53.1022C-7.50799 54.0046 -7.35955 54.9967 -7.29315 55.9382C-6.75408 63.4186 -4.6994 70.4342 -0.984552 76.9928C2.00373 82.2585 6.57404 84.4108 12.3709 83.7116C19.2733 82.8796 25.617 80.2936 31.4803 76.5671C34.0858 74.9108 34.0428 74.9069 36.1483 76.985C37.0545 77.8796 37.8787 78.9499 39.3319 79.1803C38.3123 77.2702 36.9569 75.6569 35.5233 74.0905C34.5037 72.9811 33.4803 72.86 32.1795 73.6452ZM-8.27752 36.4811C-8.37908 35.9811 -8.42986 35.6139 -9.0744 35.7819C-9.33221 35.8483 -9.61736 35.8678 -9.87908 35.8366C-11.8322 35.6022 -13.1994 34.4733 -13.6017 32.8053C-14.0236 31.0592 -12.6838 30.4577 -11.5471 29.7116C-13.7541 28.4655 -14.1799 27.7897 -13.7853 26.2272C-13.3713 24.5905 -12.1369 23.7233 -10.2111 23.4421C-8.80096 23.235 -7.60565 23.8327 -6.16815 24.36C-6.34393 20.8053 -5.85174 17.5085 -5.04705 14.2624C-3.35955 7.45378 5.22639 -1.05404 15.3319 2.56706C19.1131 3.92253 22.8944 5.36003 26.6444 6.82096C30.2928 8.23893 32.7186 10.9694 33.699 15.0944C35.6404 23.2546 32.7108 29.571 26.9373 35.0085C26.0897 35.8092 25.1209 36.485 24.1834 37.2428C24.2811 38.1257 25.2147 38.1139 25.66 38.6257C26.6131 39.7155 26.8826 41.4108 26.2029 42.6452C25.535 43.8639 24.2928 44.4616 22.7147 43.9889C21.3514 43.5788 20.324 43.1296 19.492 44.9186C18.9959 45.9889 17.6678 45.9303 16.5779 45.4616C15.5076 45.0046 14.6131 44.1257 14.6131 43.0475C14.6209 40.6452 13.1444 39.5319 11.4608 38.2194C9.37482 36.5944 7.51935 34.6061 7.28107 31.5944C8.72248 33.2585 10.1444 34.9382 11.6092 36.5827C13.324 38.5085 15.3514 39.6999 18.0623 39.1217C19.1365 38.8913 20.0975 38.5241 20.9256 37.7194C26.2342 32.5514 27.8826 26.321 26.4842 19.153C26.3358 18.3952 25.8787 18.1569 25.2147 17.9772C22.1444 17.1452 20.4334 15.2546 20.6326 11.9382C20.6912 10.9967 19.9647 10.985 19.3631 10.903C16.535 10.5241 14.4725 11.8405 12.8709 14.0007C11.5154 15.8249 10.8865 18.028 9.91779 20.0553C9.33967 21.2702 8.92951 22.5827 7.68342 23.4811C6.9256 22.821 7.02717 22.0007 6.64435 21.3874C5.8592 20.1296 4.78498 19.4421 3.26935 19.5749C0.433416 19.821 -1.96502 24.1725 -0.679865 26.6882C-0.136897 27.7507 0.827948 27.8561 1.84357 27.9264C4.83576 28.1335 5.62482 28.9811 5.13264 31.9342C4.45295 35.9928 2.03889 38.821 -1.73455 40.3327C-4.80877 41.5632 -7.61346 39.821 -8.27752 36.4811Z" fill="#364376"/>
</svg>
