<svg width="114" height="159" viewBox="0 0 114 159" fill="none" xmlns="http://www.w3.org/2000/svg">
<path d="M53.4755 45.6018C57.9559 46.512 62.1903 48.262 66.5887 49.469C66.9794 49.5745 67.0614 49.3948 67.2098 49.1721C69.2997 45.9846 71.9559 43.3049 74.7567 40.7542C74.827 40.6956 74.9012 40.6448 74.9755 40.5901C75.37 40.3127 75.8231 40.1057 76.2177 40.4729C76.5809 40.8167 76.3895 41.2659 76.163 41.6409C75.8466 42.1565 75.5067 42.6565 75.1708 43.1604C73.2255 46.0471 71.2255 48.8909 68.9833 51.5588C68.5458 52.0784 68.1239 52.1252 67.4091 52.1682C64.8036 52.3206 62.5653 51.1604 60.1903 50.5198C57.7958 49.8713 55.4247 49.1487 53.0536 48.426C52.0692 48.1252 51.12 47.7073 50.0927 47.5862C49.1356 47.469 48.5497 46.6448 47.663 46.3713C47.3778 46.2854 47.5341 45.7698 47.7684 45.5002C48.2802 44.9143 48.9208 44.6331 49.3192 44.6682C51.0262 44.7112 52.2059 45.344 53.4755 45.6018ZM33.6669 64.7502C30.3856 66.1292 27.3895 68.0042 24.2684 69.6643C23.6317 70.0042 22.9481 70.2893 22.2528 70.4729C21.2333 70.7463 20.1825 71.0042 19.2958 70.051C19.0067 69.7463 18.4911 69.9143 18.1083 69.6838C17.0614 69.0549 16.3739 68.1331 15.9872 67.0354C14.1083 61.6877 13.6591 56.3479 16.3036 51.0784C16.538 50.6135 16.8114 50.176 17.1942 49.8245C17.62 49.4299 18.0731 49.1057 18.5692 49.7385C18.6747 49.8713 18.7919 49.9065 18.9598 49.8909C21.3036 49.6721 23.4051 50.6057 25.5536 51.2971C26.2762 51.5276 26.4794 52.0784 26.7059 52.8323C27.1278 54.2542 27.1864 55.6604 27.1942 57.1018C27.1981 57.5549 27.5419 57.426 27.7958 57.3752C29.5731 57.0002 31.3426 56.5784 33.1278 56.2542C34.4051 56.0198 35.7333 55.6799 36.9911 55.8167C38.2684 55.9573 39.3622 55.9182 40.4442 55.2151C40.7684 55.0042 41.2098 55.1096 41.6005 55.2073C43.3114 55.6213 44.9403 56.2659 46.5614 56.9417C47.2177 57.219 47.6278 57.7932 48.1864 58.1877C48.6317 58.5042 48.4677 59.1018 47.9716 59.3987C47.663 59.5823 47.6161 59.7073 47.6669 60.0784C47.7919 61.0081 46.9911 60.9768 46.3036 61.1057C47.038 62.1135 46.8192 62.6643 45.7216 62.9143C45.1161 63.0471 44.5184 63.0002 43.913 62.969C43.663 62.9534 43.3895 63.0159 43.3426 63.2971C43.2919 63.6018 43.6005 63.5667 43.7841 63.6292C44.4716 63.8674 45.0262 64.262 44.8778 65.0667C44.7255 65.8635 44.0575 66.0393 43.3387 66.0471C42.1005 66.0588 40.9442 65.7854 39.8739 65.137C36.8426 63.2893 36.8856 63.3987 33.6669 64.7502ZM27.3231 24.0276C26.8387 21.8323 27.12 19.8049 28.8426 18.1643C29.5301 17.5081 30.3114 17.1331 31.3036 17.2932C32.2606 17.4456 32.702 17.926 32.827 18.887C32.9598 19.8987 33.1591 20.9065 33.3583 21.9065C33.4208 22.2307 33.5419 22.6213 33.9091 22.6682C34.288 22.7229 34.4911 22.3635 34.6161 22.0667C34.9169 21.3401 35.1512 20.5901 35.4481 19.8635C36.1512 18.1331 37.5301 17.4026 39.2411 18.1174C40.5458 18.6643 41.413 18.301 42.3036 17.4104C43.2919 16.4221 44.3739 15.5706 45.7684 15.1682C46.7137 14.8948 47.5614 15.0159 48.3817 15.4924C49.038 15.8752 49.6786 16.0432 50.4559 15.8167C51.2841 15.5706 51.9911 15.9065 52.2958 16.7307C52.6395 17.6643 53.1981 18.4221 53.8661 19.137C54.7606 20.1057 54.9872 21.3088 54.9755 22.5979C54.9442 25.4221 54.1239 28.0159 52.7645 30.469C52.5028 30.9456 52.2177 31.4182 52.038 31.9299C50.9716 34.8987 48.6591 36.4026 45.7919 37.2268C45.2372 37.387 44.9598 37.551 45.0497 38.1877C45.1239 38.6917 45.0692 39.2151 45.0419 39.7307C44.9637 41.2893 44.4755 41.7346 42.8856 41.7346C41.6434 41.7346 40.4012 41.7346 39.1591 41.7346C39.1591 41.719 39.1591 41.6995 39.1591 41.6838C37.8583 41.6838 36.5536 41.6877 35.2528 41.6838C34.8192 41.6838 34.4091 41.6799 34.1669 42.1448C34.0184 42.4221 33.745 42.4885 33.4559 42.3987C33.1981 42.3167 33.1512 42.0784 33.0497 41.8518C32.2528 40.0901 32.7997 38.5081 33.6512 36.9534C33.7372 36.7932 33.7841 36.6135 33.8739 36.4573C34.4247 35.4885 34.4481 34.7112 33.6239 33.7268C32.2723 32.1135 31.5419 30.1331 31.1473 28.0432C31.0653 27.6213 31.2098 27.0354 30.5419 26.8596C29.0067 26.4495 27.6942 25.7346 27.3231 24.0276ZM91.327 152.094C90.9481 154.621 91.4403 156.989 92.3114 159.293C92.6395 160.16 92.6083 161.055 92.8348 161.922C92.995 162.555 92.1942 162.77 91.8348 162.512C90.6122 161.637 89.4833 162.313 88.3466 162.567C84.6981 163.375 80.9794 163.66 77.2841 164.094C66.9052 165.309 56.5223 166.477 46.1395 167.633C41.4755 168.153 36.8036 168.614 32.1356 169.078C29.8817 169.301 28.0692 168.625 27.0653 166.426C26.9794 166.231 26.8817 166.035 26.7411 165.879C24.0653 162.883 25.2098 156.36 27.4794 153.637C27.6708 153.406 27.8856 153.184 28.1278 153.004C28.5262 152.711 28.9755 152.621 29.3583 153.02C29.745 153.418 29.4911 153.766 29.2372 154.141C27.6083 156.563 27.0848 159.239 27.4911 162.11C27.5067 162.227 27.5497 162.344 27.5966 162.453C27.62 162.5 27.6864 162.524 27.8036 162.61C27.9364 159.949 28.9676 157.602 30.0341 155.266C30.1356 155.043 30.2294 154.817 30.3661 154.617C30.6669 154.172 30.9325 153.602 31.6122 153.789C32.2645 153.969 31.9989 154.555 31.9637 155.106C34.0926 154.039 36.2137 153.262 38.413 152.696C40.5926 152.137 42.8192 151.906 45.0536 151.699C50.8114 151.164 56.5575 150.485 62.3427 150.219C68.1278 149.953 73.8583 149.129 79.5809 148.281C82.9052 147.785 86.2177 147.219 89.5302 146.656C90.2489 146.535 90.8739 146.137 91.4247 145.664C91.7841 145.356 92.1473 144.981 92.6122 145.266C93.1356 145.59 92.9091 146.125 92.7333 146.578C92.038 148.36 91.6122 150.196 91.327 152.094ZM108.206 121.746C106.776 125.188 106.093 128.746 106.565 132.477C106.682 133.414 106.925 134.317 107.323 135.176C107.429 135.395 107.53 135.614 107.628 135.836C108.311 137.422 107.909 138.125 106.206 138.192C105.593 138.215 105.034 138.176 104.597 138.727C104.413 138.953 104.065 139 103.749 138.985C100.296 138.828 96.952 139.696 93.5653 140.125C90.9442 140.461 88.2997 140.418 85.6903 140.77C78.5341 141.739 71.327 141.946 64.1317 142.348C60.6903 142.539 57.288 143.246 53.8231 143.293C52.4559 143.313 51.1122 143.309 49.7528 143.098C48.9833 142.981 48.1239 143.387 47.4872 142.598C47.3895 142.481 47.2137 142.637 47.0731 142.684C46.2528 142.965 45.8231 142.672 45.7762 141.793C45.7255 140.821 45.8583 139.86 45.9716 138.899C46.3661 135.442 46.7645 131.992 48.1044 128.739C48.1825 128.543 48.2606 128.344 48.3348 128.145C48.8544 126.735 49.5653 125.727 51.3739 125.918C53.2841 126.121 55.1356 125.418 57.0223 125.172C57.9208 125.055 58.8231 124.824 59.7216 124.84C63.4833 124.906 67.1278 124.184 70.7684 123.379C73.2919 122.821 75.8544 122.625 78.4286 122.457C85.6239 121.981 92.8075 121.418 100.015 121.102C101.827 121.024 103.604 120.528 105.429 120.571C105.714 120.578 105.886 120.446 106.042 120.254C106.214 120.039 106.366 119.809 106.557 119.621C106.921 119.274 107.124 118.446 107.784 118.86C108.409 119.25 107.616 119.735 107.6 120.203C108.526 120.547 108.612 120.77 108.206 121.746ZM64.4169 98.9299C61.952 99.1565 62.3505 99.4338 62.7528 97.0784C63.0927 95.1135 64.038 93.3401 64.6512 91.4104C64.7177 92.6331 64.7723 93.8518 64.8466 95.0745C64.9091 96.0979 64.9598 97.1252 65.077 98.1448C65.1434 98.7073 64.9559 98.8792 64.4169 98.9299ZM109.112 93.2854C108.823 92.9026 108.39 93.0354 108.034 93.219C107.366 93.5667 106.952 94.1799 106.557 94.7893C106.257 95.2581 105.999 95.6252 105.296 95.5393C104.472 95.4417 103.62 95.5354 102.784 95.594C101.182 95.7151 99.5848 95.8674 97.9833 96.0081C92.37 96.5042 86.7567 96.9963 81.1434 97.4924C79.0341 97.676 76.9208 97.8635 74.8075 98.0354C74.5419 98.0549 74.0184 98.2581 74.2177 97.6096C75.0575 94.9221 75.12 92.1213 75.413 89.3518C75.8387 85.3401 76.2958 81.3245 75.5419 77.3088C75.288 75.9495 75.1278 74.5081 74.538 73.2932C73.5067 71.1604 69.452 69.5745 67.0966 70.1292C66.6395 70.2385 66.3309 70.5198 66.2489 70.9729C66.163 71.4495 66.5341 71.6565 66.8661 71.8831C67.0731 72.0237 67.4325 71.9456 67.5184 72.3831C66.6903 72.9456 65.827 73.4924 65.0575 74.1956C64.2606 74.9221 63.2567 75.3792 63.288 76.8206C62.3583 76.2385 61.7098 76.6331 60.9052 76.9338C58.6434 77.7815 56.6161 78.887 55.038 80.7463C54.9286 80.8752 54.7762 81.1956 54.5731 80.8401C54.3895 80.5237 54.1473 80.387 53.8231 80.5315C53.4481 80.6956 53.4637 81.0745 53.4794 81.3987C53.5223 82.5354 53.0341 83.4924 52.3036 84.262C51.8192 84.7776 51.7177 85.262 51.7841 85.8948C52.0067 87.9729 52.1708 90.051 52.1278 92.1448C52.0848 94.4456 52.0575 96.7542 52.12 99.0549C52.1395 99.8792 51.8622 100.074 51.1083 100.129C45.37 100.571 39.6434 101.129 33.9208 101.762C33.2411 101.84 32.5223 101.86 31.8895 102.188C31.3309 102.477 31.0926 102.918 31.663 103.383C31.9716 103.633 31.9755 103.781 31.8192 104.102C31.3778 105 31.077 105.953 30.8153 106.918C29.827 110.578 30.0223 114.098 31.9676 117.446C32.5926 118.512 33.4364 119.27 34.6044 119.676C36.2372 120.242 37.9208 120.696 39.6161 120.891C44.4403 121.449 49.288 121.567 54.12 120.942C58.2723 120.41 62.4208 119.946 66.6161 120.078C68.8583 120.149 71.1083 120.235 73.3427 120.11C79.6903 119.746 86.0497 119.446 92.3505 118.492C96.6864 117.836 101.081 117.469 105.253 115.965C105.792 115.77 106.319 115.602 106.905 115.91C107.214 116.071 107.749 115.906 107.749 115.61C107.749 114.817 108.386 113.989 107.87 113.258C106.46 111.278 106.108 108.969 105.675 106.684C105.167 104.047 105.206 101.446 106.335 98.9417C107.069 97.3127 107.854 95.7112 108.952 94.2854C109.194 93.9729 109.354 93.6135 109.112 93.2854Z" fill="#FAF0EF"/>
<path d="M64.8975 91.6645C64.8741 91.3754 65.1515 90.9575 64.6358 90.8481C64.1749 90.7504 64.0694 91.1606 63.96 91.4379C63.7452 91.9926 63.4913 92.5278 63.3272 93.1176C62.8194 94.9458 62.7882 96.8754 62.1085 98.6645C61.9093 99.1879 62.1905 99.477 62.6749 99.5864C64.1319 99.9067 65.7765 98.4184 65.3897 97.0161C64.9054 95.2465 65.4561 93.4145 64.8975 91.6645ZM44.0421 41.4379C43.0499 41.7465 41.7843 43.4809 41.796 44.52C41.8077 45.6528 43.0655 46.7739 44.253 46.6997C45.5694 46.6215 46.6671 45.3872 46.5186 44.1333C46.464 43.684 46.3897 43.2387 46.3038 42.7934C46.1007 41.7309 45.0733 41.1215 44.0421 41.4379ZM37.046 43.6528C36.7179 42.4848 35.6241 42.145 34.6319 42.8637C33.796 43.4731 33.4444 44.352 33.3311 45.395C33.378 45.6528 33.421 45.9497 33.4952 46.2426C33.7765 47.4106 34.3975 48.0395 35.3077 48.0903C36.1866 48.1372 36.8311 47.6489 37.2647 46.5239C37.3936 46.1958 37.5538 46.0356 37.8936 45.9926C38.2374 45.9458 38.7218 45.9731 38.7686 45.5473C38.8116 45.1489 38.3468 44.9965 38.0304 44.8442C37.5108 44.5942 37.21 44.2348 37.046 43.6528ZM111.577 114.411C110.628 113.68 109.632 113.106 108.343 113.258C106.183 113.52 103.999 113.622 101.855 113.977C97.9757 114.618 94.0655 115.024 90.1554 115.411C86.8116 115.743 83.4757 116.157 80.214 116.95C77.214 117.68 74.2569 118.563 71.1358 118.59C70.9288 118.594 70.7022 118.641 70.5265 118.743C70.0616 119.012 69.4327 119.278 69.4171 119.832C69.3975 120.473 70.0225 120.735 70.5811 120.934C71.6358 121.309 72.714 121.325 73.335 121.247C78.0811 121 82.2179 119.848 86.464 119.403C91.5733 118.864 96.6515 118.04 101.761 117.446C104.823 117.086 107.929 117.165 110.964 116.52C111.483 116.407 111.886 116.219 112.038 115.692C112.191 115.168 111.995 114.735 111.577 114.411ZM24.6241 39.4418C26.0186 41.7075 26.9913 44.0825 26.4093 46.8403C26.2296 47.6958 26.0421 48.6293 26.9171 49.2622C27.8116 49.9145 28.7569 49.6762 29.6788 49.2817C30.1007 49.0981 30.464 48.8286 30.8116 48.5317C32.0382 47.4809 32.7257 46.1176 33.089 44.5825C33.3233 43.5864 33.5069 42.5903 34.1632 41.7426C34.5577 41.2387 34.8077 40.5942 34.6593 39.9536C34.3741 38.6997 34.8429 37.7114 35.5655 36.7583C36.1241 36.02 36.46 35.184 36.4366 34.1137C36.4444 33.809 36.3819 33.3989 36.253 32.9848C35.7882 31.5278 34.7374 30.4458 33.8624 29.2622C32.8038 27.8403 31.6046 26.6684 29.6788 26.3559C28.4835 26.1645 27.3819 26.2778 26.6515 27.0708C24.4288 29.4731 22.6866 32.1254 23.1515 35.6762C23.335 37.0747 23.9054 38.27 24.6241 39.4418ZM113.198 92.0825C112.433 91.3051 111.468 90.8715 110.452 90.5356C107.839 89.6762 105.14 89.1723 102.452 88.6098C99.2608 87.9418 96.0577 87.3051 92.8272 86.934C88.2335 86.3989 83.6124 86.0786 78.6827 85.6411C78.3624 85.6411 77.7218 85.5942 77.0929 85.6528C75.835 85.7739 75.2765 86.1528 75.3194 86.9106C75.4405 89.0708 75.1866 91.2075 74.9327 93.3364C74.8507 94.0434 75.0108 94.8833 74.5421 95.4262C74.0811 95.9614 73.9405 96.5434 73.8624 97.1528C73.6632 98.6528 74.0343 99.1254 75.2218 98.9848C77.4444 98.7153 79.6827 98.5239 81.8897 98.1958C89.6866 97.02 97.5811 96.8793 105.378 95.7661C107.808 95.4223 110.237 95.1254 112.601 94.4497C113.843 94.0942 114.105 93.0043 113.198 92.0825ZM27.585 20.5708C27.671 19.1567 28.3311 18.3637 29.4132 17.8911C29.6397 17.7934 29.8741 17.727 29.9483 17.4536C30.1007 16.8911 30.3975 17.2153 30.6046 17.3794C31.9366 18.4301 32.8194 19.77 33.2452 21.434C33.4288 22.1411 33.6163 23.0864 34.4093 23.2231C35.2452 23.3676 35.6358 22.4731 36.0655 21.8637C36.7725 20.8676 37.6319 20.2075 38.9366 20.2661C39.4444 20.2895 39.9444 20.1254 40.4444 19.9809C41.6983 19.6294 42.7022 18.8325 43.7882 18.1762C46.1202 16.7622 48.378 16.8833 50.5577 18.5122C50.9718 18.8208 51.3702 19.1489 51.7921 19.4419C53.1632 20.3794 55.2804 20.0825 56.3038 18.7817C56.6163 18.3833 56.9054 17.9379 57.1046 17.4692C58.5304 14.102 58.5069 10.7856 56.464 7.66841C54.3038 4.36763 51.5265 1.60591 47.6436 0.62935C42.2608 -0.726118 37.0694 0.105912 32.3233 3.14497C29.6436 4.85982 27.3546 6.89888 26.4483 10.1176C25.8429 12.2622 24.9991 14.3598 25.546 16.6684C25.8858 18.0864 26.2179 19.4809 27.585 20.5708ZM78.1827 43.7426C78.335 43.4848 78.4796 43.2075 78.5655 42.9223C78.753 42.3129 78.796 41.7973 78.0265 41.4536C77.1202 41.0473 76.4991 41.0551 75.7569 41.8481C73.7647 43.9731 72.0968 46.3598 70.335 48.6645C69.4874 49.7778 68.628 50.8676 67.5265 51.7387C67.2022 51.9926 66.8468 52.3403 66.3897 52.1684C64.4913 51.4653 62.4835 51.1567 60.6085 50.3364C58.2022 49.2817 55.7843 48.227 53.2061 47.6293C51.7296 47.2895 50.253 46.8715 48.9796 46.0512C48.3858 45.6684 47.8819 45.5903 47.3038 45.7973C46.9444 45.9301 46.6163 46.1801 46.3116 46.4223C43.7804 48.4536 42.5108 51.3911 40.9093 54.0825C40.6397 54.5317 40.7061 55.2465 41.3702 55.3129C42.1983 55.3911 42.9444 55.7036 43.7218 55.9106C44.9288 56.2348 46.089 56.6528 47.0538 57.5903C47.7843 58.3012 47.2257 58.9536 47.3116 59.6215C47.378 60.145 47.128 60.3168 46.7374 60.4731C46.0929 60.727 45.7882 61.1528 46.1983 61.8129C46.46 62.2309 46.2374 62.4028 45.921 62.5942C45.4835 62.8598 45.0069 62.8793 44.4835 62.8364C43.9835 62.895 43.253 62.5981 43.0811 63.4067C42.9132 64.227 43.585 64.3872 44.1905 64.5434C44.2179 64.5512 44.2452 64.5708 44.2725 64.5786C44.5929 64.6801 44.8585 64.852 44.7022 65.227C44.5733 65.5356 44.4874 66.0473 44.0108 65.9184C42.6046 65.5356 41.0616 65.4926 39.9132 64.4145C39.4288 63.9614 38.9952 64.0043 38.5968 64.4848C38.1827 64.9848 38.2686 65.5395 38.796 65.8051C39.7374 66.2739 40.5694 66.9614 41.589 67.27C46.4171 68.7426 51.2686 70.1567 56.0733 71.7075C58.171 72.3833 59.8116 71.6997 61.0186 70.1723C62.6319 68.1372 64.1905 66.0473 65.6358 63.8754C67.6827 60.8051 69.878 57.8325 71.9522 54.7739C74.3272 51.27 76.0265 47.3754 78.1827 43.7426ZM59.628 120.508C59.6319 121.262 59.0382 121.571 58.3468 121.665C56.5811 121.915 54.8194 122.278 53.0421 122.387C47.5421 122.731 42.0616 123.329 36.5499 123.493C34.0265 123.571 31.5733 123.079 29.128 122.457C25.2608 121.473 21.2647 120.985 17.4874 119.672C12.339 117.883 7.03817 116.637 1.82723 115.067C-1.52824 114.051 -5.03214 113.571 -8.37589 112.547C-11.2548 111.665 -14.2196 111.012 -16.9775 109.754C-17.6923 109.43 -18.3798 109.051 -19.0946 108.731C-19.8642 108.383 -20.1532 107.68 -20.4618 106.989C-23.0673 101.133 -22.6181 95.3325 -20.1064 89.5864C-19.6728 88.5942 -19.2314 87.6059 -18.4657 86.7817C-18.0517 86.3403 -17.6376 86.1293 -17.0673 86.0786C-12.2978 85.6762 -7.53214 85.2661 -2.76261 84.8598C2.75692 84.3872 8.28036 83.9067 13.8038 83.4497C16.5186 83.227 19.2374 83.0395 21.96 82.8598C23.1163 82.7817 24.046 83.4028 24.9757 83.9731C27.5343 85.5434 30.1593 86.9223 33.089 87.7504C37.8507 89.102 42.585 88.9653 47.3507 87.8676C48.253 87.6606 49.128 87.2114 50.1007 87.4653C50.3429 87.5278 50.4874 87.3364 50.6671 87.2387C51.5811 86.7309 52.1944 87.059 52.2179 88.1293C52.2569 89.7661 52.2296 91.4028 52.2296 93.0395C52.2999 94.4653 52.3311 95.8872 52.46 97.3051C52.5304 98.0551 52.2452 98.7309 52.2022 99.4497C52.1749 99.8559 51.7608 100.059 51.3585 100.18C49.8741 100.625 48.335 100.762 46.8077 100.969C43.7765 101.387 40.7061 101.426 37.6905 101.961C36.2296 102.219 34.7765 102.512 33.3194 102.782C33.0538 102.829 32.9132 102.954 32.796 103.204C30.8624 107.309 30.2725 111.481 31.9757 115.832C32.4757 117.118 33.3233 118.137 34.2335 119.094C34.7765 119.661 35.6554 119.696 36.4366 119.817C39.8468 120.332 43.2374 120.204 46.6593 119.809C49.8155 119.446 52.9991 119.336 56.1827 119.309C56.9093 119.301 57.6319 119.332 58.3546 119.461C58.9991 119.575 59.6202 119.77 59.628 120.508Z" fill="#26416D"/>
<path d="M28.9794 23.2385C29.3114 23.3166 29.5107 23.0861 29.6044 22.8322C29.8857 22.051 30.4247 21.6994 31.245 21.676C31.5107 21.6682 31.7607 21.4728 31.7919 21.1564C31.8232 20.8166 31.581 20.7228 31.3036 20.6174C30.0966 20.1682 28.6513 21.1799 28.6396 22.5275C28.7021 22.7697 28.5653 23.1447 28.9794 23.2385ZM29.0927 28.0822C29.4989 28.1955 29.9247 28.2268 30.3388 28.2971C31.1357 28.4064 31.5653 28.0002 31.7216 27.2893C31.8817 26.5393 31.4169 26.176 30.7685 25.9924C30.3661 25.8752 29.956 25.758 29.5419 25.7033C28.6591 25.5861 27.8192 25.9846 27.7333 26.5158C27.6317 27.1525 28.2021 27.84 29.0927 28.0822ZM48.6317 30.0627C49.2021 29.8674 49.3817 29.4064 49.3935 28.8557C49.4052 28.3713 49.3974 27.8869 49.3974 27.4064C49.4013 27.4064 49.4052 27.4064 49.413 27.4064C49.413 26.8322 49.4286 26.258 49.4052 25.6838C49.3857 25.1525 49.0771 24.6994 48.6239 24.5861C48.1239 24.465 48.0224 25.0627 47.9364 25.3908C47.6317 26.5353 47.1317 27.5939 46.6786 28.676C46.4872 29.1369 46.5497 29.5432 46.913 29.8205C47.4169 30.2033 48.0224 30.2697 48.6317 30.0627ZM42.1942 31.9025C43.0614 33.3322 44.4013 33.8947 46.1239 33.9455C46.9403 34.0783 47.4833 33.551 47.9208 32.84C48.0497 32.6252 48.1825 32.3908 47.9794 32.176C47.7802 31.9689 47.6044 32.2111 47.4169 32.2697C47.1005 32.3752 46.7802 32.4103 46.4364 32.3439C45.1513 32.0939 43.9989 31.6408 43.2607 30.4611C43.0185 30.0705 42.6942 29.6838 42.1591 29.9377C41.6591 30.176 41.8075 30.6682 41.8661 31.0666C41.9091 31.3557 42.0419 31.6486 42.1942 31.9025ZM48.0302 59.0158C48.2997 58.6486 48.288 58.2736 47.956 57.9533C47.7489 57.758 47.4755 57.633 47.2294 57.8869C46.6708 58.4728 45.9599 58.3791 45.2763 58.3166C44.3466 58.2307 43.4286 58.0197 42.4989 57.9807C42.0067 57.9611 41.1825 57.6174 41.0575 58.2463C40.9091 58.9885 41.8075 59.0471 42.3466 59.2228C43.5302 59.6096 44.7646 59.7814 46.2177 59.801C45.3232 60.426 44.5536 60.3283 43.7841 60.1877C43.1317 60.0666 42.4872 59.883 41.831 59.801C41.5107 59.7619 41.0341 59.5471 40.8739 60.0119C40.7138 60.4885 41.1278 60.6994 41.495 60.8674C41.6825 60.9572 41.8817 61.0236 42.0771 61.0861C42.8153 61.3244 43.5536 61.5549 44.288 61.7892C43.0966 62.2619 41.956 61.9963 40.8349 61.6955C40.1083 61.5002 39.8622 61.6721 39.8036 62.4299C39.7567 63.0744 40.0458 63.3908 40.5302 63.6408C41.6591 64.215 42.7919 64.7814 43.9325 65.34C44.3661 65.551 44.8427 65.6447 45.1357 65.1486C45.4169 64.6642 45.0614 64.3791 44.6903 64.1213C44.5497 64.0275 44.3505 63.8752 44.3466 63.7463C44.3427 63.4885 44.6396 63.508 44.8192 63.4182C45.8114 62.926 47.5536 63.1642 47.0185 61.1721C47.8896 60.7072 47.5497 59.6682 48.0302 59.0158ZM34.1825 45.1682C34.1864 45.8478 34.456 46.4182 35.2372 46.4963C35.9052 46.5666 36.4677 45.9728 36.4638 45.2424C36.4638 44.5627 35.8935 43.9767 35.1005 43.9611C34.4442 43.9963 34.1786 44.508 34.1825 45.1682ZM42.9442 44.3049C42.913 45.1017 43.5419 45.7853 44.3271 45.8088C45.1044 45.8283 45.7489 45.2463 45.7763 44.4924C45.8036 43.6564 45.0732 42.7853 44.3427 42.7853C43.6122 42.7853 42.9755 43.4767 42.9442 44.3049ZM30.6513 49.0666C30.7724 47.9885 31.1083 47.1721 31.8114 46.4416C32.5263 45.6994 32.8349 44.8127 32.8232 43.8049C32.7997 42.1486 34.1044 41.0978 35.4325 40.8205C38.1317 40.2619 40.8427 40.2072 43.5692 40.3205C44.1982 40.3478 44.4208 40.2228 44.4247 39.5588C44.4286 38.9689 44.1278 38.1525 45.1825 38.008C46.6708 37.8049 47.5888 38.1525 47.8622 39.215C48.2567 40.7307 48.163 42.2853 47.956 43.8166C47.7997 44.9611 47.9677 45.3947 49.0497 45.5627C53.3349 46.2346 57.4325 47.6017 61.538 48.9299C62.9013 49.3713 64.1122 50.0978 65.1122 51.1721C65.913 52.0275 66.6982 51.8908 67.3427 50.8596C68.4794 49.0353 69.7411 47.2971 71.0536 45.5939C72.1435 44.1838 73.4247 43.0158 75.12 42.3517C75.5888 42.1721 76.2528 41.9416 76.456 42.2971C76.7528 42.8049 76.0497 43.0783 75.6903 43.3166C74.0497 44.4064 72.7685 45.8322 71.6239 47.4182C70.5927 48.84 69.6317 50.34 68.4169 51.5861C67.6357 52.3869 67.3036 53.2228 67.0419 54.2346C66.4442 56.5119 65.1083 58.4611 64.0107 60.5041C62.581 63.1642 61.1552 65.8244 59.9794 68.6096C59.831 68.9611 59.7567 69.4338 59.1864 69.5744C59.1122 68.0783 59.6513 66.7736 60.1239 65.465C61.1669 62.5549 62.6083 59.8322 64.081 57.1213C64.6864 56.0041 65.2763 54.8791 65.6942 53.676C65.8544 53.2189 65.8153 52.9924 65.2919 52.7111C63.6669 51.8557 62.1864 50.7463 60.3739 50.2346C56.4794 49.1408 52.6083 47.9689 48.7255 46.8283C48.5536 46.7775 48.3817 46.7189 48.2138 46.6486C47.1122 46.2072 46.7567 46.2932 45.9286 47.2541C44.7333 48.6408 44.0263 50.3361 43.0146 51.8439C42.3271 52.8674 41.7255 53.9494 41.0536 54.9885C40.7255 55.5002 40.1122 55.6135 39.6044 55.8596C37.206 57.0158 34.5458 57.0978 31.995 57.6447C30.3739 57.9885 29.956 57.5471 29.995 55.8361C30.0419 53.5627 30.4013 51.3205 30.6513 49.0666ZM21.9442 83.59C23.2763 86.1682 25.2802 87.9728 28.0771 88.7658C31.2372 89.6643 34.4911 90.008 37.0732 90.1564C42.3739 90.1838 46.7411 89.0041 51.038 87.4807C51.663 87.258 51.9403 86.7736 51.7763 86.1096C51.7099 85.8322 51.6591 85.59 51.8817 85.3518C53.6122 83.4963 55.0497 81.3049 57.2919 80.0119C61.0224 77.8557 64.6278 75.426 68.8114 74.1486C69.4403 73.9533 69.9325 73.6486 69.8505 72.8791C69.7372 71.7932 69.0771 71.1213 67.9755 70.8439C66.1435 70.3791 64.2646 70.3049 62.3935 70.1838C61.4638 70.1252 60.581 70.3049 59.7685 70.9533C58.7919 71.7385 57.663 72.2814 56.3349 71.6486C55.956 71.4689 55.5302 71.3869 55.1278 71.2619C52.788 70.5275 50.5614 69.4885 48.1786 68.8635C45.1903 68.0783 42.2802 67.0471 39.538 65.5822C39.2138 65.4064 38.913 65.2658 38.7919 64.8557C38.2255 62.9494 36.9677 62.2814 35.0028 62.7619C33.9872 63.0119 33.0497 63.4299 32.1903 63.9963C28.7294 66.301 25.1083 68.3049 21.3271 70.0275C20.538 70.3869 19.7021 70.9299 19.4286 71.8205C19.2099 72.5275 19.1825 73.3205 19.2099 74.0705C19.3271 77.465 20.3974 80.5978 21.9442 83.59ZM48.4286 132.856C48.1942 135.813 48.0224 138.77 48.8036 141.703C48.9989 142.43 49.2021 142.793 49.9833 142.629C50.1552 142.59 50.3466 142.621 50.5263 142.621C54.081 142.317 57.6396 142.137 61.1825 141.656C63.6669 141.317 66.1864 141.258 68.6903 141.047C71.1903 140.84 73.6864 140.606 76.1825 140.363C77.4755 140.238 78.7763 140.199 80.0732 140.074C82.9286 139.797 85.8114 139.75 88.6708 139.485C90.3739 139.324 92.0614 138.953 93.7489 138.633C95.4403 138.313 97.1591 138.199 98.8622 137.942C101.909 137.481 104.999 137.547 108.054 137.172C109.163 137.039 110.225 137.332 111.3 137.465C111.913 137.543 112.222 138.539 111.886 139.102C111.854 139.153 111.811 139.207 111.811 139.262C111.811 140.992 110.55 141.321 109.233 141.621C106.698 142.192 104.136 142.578 101.558 142.879C98.9755 143.176 96.4013 143.531 93.8192 143.824C91.7489 144.055 89.6669 144.227 87.5927 144.426C86.6005 144.52 85.6083 144.692 84.6161 144.692C82.163 144.692 79.7685 145.203 77.3427 145.371C75.3349 145.516 73.4325 146.164 71.4403 146.352C70.1474 146.473 68.8661 146.738 67.5614 146.742C65.1942 146.746 62.8505 147.055 60.4989 147.262C57.1864 147.551 53.8505 147.672 50.5536 148.074C47.0771 148.496 43.6357 148.219 40.3075 147.418C35.7958 146.328 31.3778 144.821 26.9364 143.442C22.1474 141.957 17.2841 140.696 12.3817 139.59C6.71768 138.309 1.10049 136.836 -4.49716 135.281C-6.88388 134.621 -9.36044 134.305 -11.7433 133.586C-12.5714 133.34 -13.0675 132.91 -13.3565 132.074C-13.9425 130.403 -14.2198 128.731 -14.2745 126.938C-14.4386 121.887 -12.7745 117.426 -10.3097 113.164C-9.32919 111.469 -9.86044 111.61 -7.87216 112.035C-3.19638 113.039 1.34268 114.559 5.95987 115.77C9.30362 116.645 12.5028 117.938 15.8114 118.91C20.0575 120.16 24.4091 120.84 28.7372 121.664C31.1708 122.133 33.5888 122.656 36.0146 123.149C37.9794 123.547 39.9442 123.207 41.9052 123.125C44.995 123 48.0458 122.547 51.0849 122.004C52.0341 121.832 53.0185 121.887 53.9833 121.789C55.6083 121.625 57.2255 121.403 58.8505 121.231C60.2333 121.086 61.6005 121.082 63.0028 121.293C65.1708 121.617 67.3739 121.379 69.5146 120.985C70.581 120.789 71.5966 121.078 72.6474 120.879C75.9833 120.258 79.4013 120.305 82.7567 119.813C84.8505 119.508 86.9325 119.125 89.0302 118.836C91.1864 118.535 93.37 118.395 95.5107 118.012C97.9833 117.574 100.479 117.285 102.956 116.891C104.905 116.574 106.882 116.086 108.901 116.418C109.018 116.438 109.179 116.473 109.253 116.414C110.323 115.571 110.745 116.492 111.229 117.153C111.569 117.617 111.847 118.125 112.14 118.621C112.765 119.684 112.296 120.66 111.061 120.891C109.327 121.215 107.565 121.258 105.815 121.336C100.366 121.578 94.9208 121.93 89.495 122.461C84.495 122.953 79.5107 123.606 74.5107 124.11C69.3896 124.625 64.3153 125.531 59.1669 125.824C56.4833 125.981 53.8232 126.508 51.1474 126.84C50.413 126.93 50.1435 127.465 49.8896 128.008C49.163 129.547 48.5653 131.153 48.4286 132.856Z" fill="#041461"/>
<path d="M47.6081 41.805C47.6237 42.7113 47.7136 43.6097 47.5065 44.516C47.4362 44.8285 47.5065 45.1957 47.8542 45.3871C48.2409 45.598 48.4792 45.3402 48.6901 45.0707C48.8854 44.8246 49.0573 44.6761 49.4401 44.7347C50.4128 44.8754 50.8464 44.4652 50.8854 43.3363C50.8347 42.9886 50.7956 42.473 50.6745 41.9769C50.3073 40.5121 49.4675 39.4183 48.0768 38.7894C47.7643 38.6488 47.4089 38.6136 47.1315 38.8754C46.8972 39.098 46.9167 39.4418 47.1042 39.6215C47.7761 40.2543 47.5964 41.0355 47.6081 41.805ZM16.1081 132.993C16.9206 133.039 17.6511 132.727 18.3659 132.387C19.4557 131.871 20.4909 131.235 21.6589 130.875C22.7292 130.543 23.6432 130.68 24.5104 131.457C25.5886 132.426 26.6042 133.481 27.8503 134.25C29.7995 135.457 31.2292 135.379 33.0143 133.973C33.4909 133.602 33.9675 133.227 34.4245 132.832C34.9987 132.332 35.5768 132.332 36.1393 132.809C36.7409 133.313 37.3073 133.856 37.9011 134.375C38.569 134.957 39.3229 135.293 40.2331 135.149C41.3464 134.969 41.7839 134.024 41.069 133.172C40.0339 131.942 38.8932 130.805 37.4792 130.004C35.8268 129.071 34.2292 129.231 32.7331 130.383C32.2995 130.715 31.8854 131.067 31.4597 131.403C30.4714 132.18 30.1706 132.211 29.1393 131.465C28.0573 130.688 27.03 129.84 25.9597 129.047C24.6862 128.11 23.2604 127.918 21.7292 128.223C20.3737 128.496 19.1667 129.118 17.9597 129.75C15.9011 130.828 15.6784 130.696 15.5495 128.352C15.4987 127.414 15.5182 126.473 15.2292 125.563C15.0534 125.02 14.7409 124.649 14.1198 124.7C13.5104 124.75 13.3425 125.188 13.319 125.723C13.2878 126.446 13.2526 127.172 13.2175 127.899C13.2057 127.899 13.1979 127.899 13.1862 127.899C13.1862 128.621 13.1315 129.352 13.1979 130.075C13.3581 131.825 14.4362 132.887 16.1081 132.993ZM-5.18878 127.336C-5.0755 127.317 -4.9505 127.379 -4.83331 127.399C-2.27081 127.864 0.287783 128.328 2.85028 128.793C3.13935 128.844 3.46356 128.996 3.52216 128.493C3.69013 127.043 4.1745 125.664 4.49481 124.25C4.61591 123.707 4.51825 123.481 3.91278 123.453C0.666689 123.309 -2.05987 122.032 -4.21612 119.594C-4.59503 119.164 -4.79815 119.133 -5.00519 119.711C-5.75519 121.77 -6.22394 123.883 -6.34503 126.43C-6.43878 126.942 -6.23565 127.512 -5.18878 127.336ZM-8.79815 126.09C-8.60284 123.532 -7.96612 121.075 -6.72784 118.813C-5.8294 117.172 -4.54034 116.875 -2.94659 117.856C-2.50909 118.125 -2.09503 118.434 -1.67315 118.727C0.221376 120.051 2.33075 120.68 4.63544 120.7C5.11591 120.703 5.60419 120.754 6.08075 120.828C7.10028 120.996 7.60419 121.731 7.58856 123.036C7.47137 125.036 6.987 127.036 6.47919 129.032C6.44012 129.176 6.40887 129.352 6.30731 129.446C5.65497 130.059 5.22528 130.746 4.97138 131.653C4.76435 132.403 3.87372 132.473 3.1706 132.293C0.420595 131.586 -2.41144 131.211 -5.10284 130.243C-6.11456 129.879 -7.04034 129.379 -7.87237 128.735C-8.69659 128.094 -8.87237 127.071 -8.79815 126.09ZM17.4479 49.4105C20.0886 50.5433 22.7448 51.6293 25.4675 52.559C26.6315 52.9613 26.6823 53.1097 26.487 54.3597C26.3581 55.1957 26.1901 56.0316 26.1432 56.8754C26.0886 57.809 26.5964 58.2777 27.5222 58.2738C28.069 58.2738 28.5768 58.098 29.1003 57.9535C29.8972 57.7425 30.2214 57.3246 30.3307 56.516C30.6667 54.0941 30.6628 51.6293 31.2136 49.2308C31.4128 48.3558 30.8112 47.934 29.944 48.1996C29.4831 48.3402 29.03 48.5316 28.5573 48.6175C27.9792 48.723 27.6276 48.5785 27.7995 47.8324C27.9948 46.9808 28.0729 46.1019 28.1862 45.3129C28.1315 44.8949 28.1081 44.5629 28.0456 44.2347C27.7136 42.5082 26.7682 41.0472 25.987 39.5121C25.4479 38.4574 24.8151 37.4574 24.0065 36.5902C23.2643 35.7894 22.5339 35.8558 21.8815 36.7269C21.5768 37.141 21.3151 37.5863 20.9909 37.9847C18.7878 40.6683 17.3073 43.7191 16.3542 47.0433C15.9753 48.3558 16.1823 48.8675 17.4479 49.4105ZM50.1003 112.34C50.194 113.668 50.78 114.719 52.0925 115.094C53.4557 115.485 54.53 116.266 55.5651 117.164C56.5495 118.016 57.5612 118.836 58.5261 119.711C60.2878 121.309 62.319 122.418 64.5886 123.063C65.9401 123.446 67.3386 123.578 68.7175 123.215C69.9636 122.891 71.1081 122.34 71.3112 120.883C71.4518 119.899 71.4597 118.891 71.2526 117.903C70.9011 116.203 70.069 114.746 69.03 113.348C70.4245 113.657 71.7956 113.891 73.0729 114.446C76.0261 115.727 79.0573 116.578 82.3229 116.254C82.6276 116.223 82.8386 116.375 83.0807 116.496C84.6784 117.274 87.2253 116.274 87.8151 114.61C88.2682 113.328 87.6667 112.289 86.8854 111.371C85.8425 110.145 84.569 109.149 83.2995 108.168C80.694 106.164 77.9245 104.387 76.1354 101.457C75.1159 99.7894 73.2956 99.2621 71.3698 99.3363C69.9518 99.391 68.53 99.5121 67.1159 99.6449C65.319 99.809 64.7292 100.496 64.5651 102.313C64.4128 103.981 64.3073 105.653 64.3268 107.368C63.8737 107.246 63.7839 106.934 63.655 106.676C63.2565 105.895 62.8776 105.106 62.5104 104.309C62.1237 103.469 61.53 103.004 60.5651 102.911C58.6354 102.723 56.7057 102.582 54.7682 102.801C54.3542 102.848 53.9206 102.817 53.5026 102.77C52.0417 102.61 51.7448 102.762 51.2722 104.125C50.3503 106.786 49.905 109.52 50.1003 112.34ZM42.9167 154.305C40.8932 157.848 39.944 161.555 41.0847 165.614C41.2604 166.246 41.6081 166.668 42.1979 166.95C43.7761 167.707 45.4128 167.598 47.0807 167.391C51.7956 166.805 56.5143 166.25 61.194 165.395C68.0729 164.141 75.0222 163.325 81.9479 162.383C86.6862 161.739 91.362 160.692 96.1276 160.239C97.6081 160.098 98.4636 160.731 98.6198 162.086C98.7292 163.028 97.8776 164.157 96.9401 164.223C91.8307 164.59 86.7643 165.332 81.6823 165.93C77.8034 166.387 73.9479 167.032 70.0729 167.52C64.8737 168.172 59.6511 168.664 54.4909 169.571C51.3737 170.118 48.2331 170.602 45.1784 171.473C44.1823 171.758 43.1354 171.692 42.112 171.774C41.237 171.844 40.3581 171.864 39.5378 172.243C38.9479 172.512 38.4089 172.196 37.8737 172.012C32.5065 170.137 27.1472 168.231 21.7722 166.375C9.33466 162.075 -3.23566 158.18 -15.7357 154.067C-18.263 153.231 -20.7786 152.356 -23.3138 151.559C-25.3294 150.922 -26.3216 149.418 -26.6732 147.52C-27.7317 141.766 -26.1888 136.676 -22.4817 132.211C-21.8958 131.508 -21.4622 130.559 -20.2786 130.703C-19.0482 130.832 -17.8607 131.18 -16.6614 131.473C-13.0521 132.356 -9.38409 132.942 -5.74737 133.688C-1.56378 134.547 2.47528 135.969 6.62372 136.95C16.4323 139.27 25.9909 142.489 35.7643 144.942C38.8425 145.715 41.8854 146.645 44.8972 147.649C46.6706 148.239 48.4245 148.11 50.194 147.957C52.1823 147.786 54.155 147.457 56.1393 147.289C58.4909 147.086 60.819 146.719 63.1511 146.383C69.1745 145.516 75.1862 144.61 81.2682 144.192C85.3112 143.914 89.3425 143.426 93.3698 142.989C94.8464 142.828 96.3386 142.961 97.7995 142.621C98.3542 142.493 98.9831 142.387 99.4831 142.727C100.198 143.207 99.53 143.735 99.4323 144.246C99.1589 145.668 97.862 147.016 96.4557 147.243C95.5612 147.383 94.6511 147.442 93.7487 147.536C85.7761 148.379 77.7409 148.621 69.8229 150.051C65.3268 150.864 60.7565 151.215 56.2097 151.684C52.1432 152.102 48.1159 152.793 44.1003 153.567C43.6237 153.661 43.1901 153.825 42.9167 154.305Z" fill="#F1686F"/>
<path d="M52.9834 24.9886C52.9756 24.7347 52.8428 24.3284 52.2529 24.2933C51.7607 24.2659 51.0146 25.3792 51.0029 26.1761C50.999 26.6604 51.249 26.9886 51.7568 27.0081C52.3506 27.0315 52.9795 26.094 52.9834 24.9886ZM54.4873 22.6409C54.667 22.4261 54.5576 22.1722 54.3857 21.9886C53.6904 21.2464 52.8545 20.762 52.0576 20.6448C51.4326 20.6487 51.042 20.6643 50.749 20.9886C50.5029 21.262 50.4365 21.6409 50.8428 21.6761C51.9521 21.7776 52.8623 22.4026 53.8896 22.7073C54.0967 22.7659 54.3428 22.805 54.4873 22.6409ZM44.6553 22.8206C44.1709 22.5901 43.835 22.9222 43.5811 23.2581C43.2451 23.6995 43.1084 24.2268 43.1357 24.7893C43.1279 25.2972 43.0342 25.887 43.6943 26.0589C44.3857 26.2347 44.667 25.68 44.874 25.18C45.042 24.7698 45.124 24.3128 45.1982 23.8675C45.2725 23.4065 45.0732 23.0198 44.6553 22.8206ZM45.8076 20.1526C44.8115 19.7581 43.8115 19.7698 42.7998 20.094C42.21 20.2815 41.6865 20.5628 41.3389 21.094C41.2256 21.2698 41.0693 21.4378 41.249 21.6643C41.4053 21.8518 41.5654 21.8987 41.7998 21.7815C43.0654 21.1409 44.4482 21.0472 45.8271 20.9261C46.0459 20.9065 46.2568 20.8636 46.2412 20.5667C46.1865 20.3323 46.0146 20.2347 45.8076 20.1526ZM83.4561 108.723C83.1357 108.575 82.7725 108.563 82.5186 108.813C81.6982 109.617 80.9209 110.469 80.4326 111.52C80.2373 111.942 80.1748 112.453 80.6475 112.742C81.1084 113.02 81.6084 112.934 81.9561 112.508C82.4326 111.926 82.8701 111.313 83.3037 110.696C83.5576 110.328 83.8428 109.961 83.8467 109.481C83.8545 109.157 83.7686 108.864 83.4561 108.723ZM64.4639 110.231C64.3389 109.617 63.7646 109.668 63.335 109.555C62.8193 109.61 62.3623 109.762 61.96 110.035C61.3037 110.473 60.7334 111.016 60.2217 111.61C59.7646 112.137 59.2334 112.696 59.7998 113.43C60.1709 113.907 60.8818 113.66 61.6357 112.875C62.2568 112.227 62.7881 111.469 63.71 111.184C64.167 111.043 64.5811 110.797 64.4639 110.231ZM65.7686 112.637C64.6904 113.399 63.8623 114.387 63.2646 115.567C63.1709 115.75 63.1357 115.961 63.1045 116.067C63.0967 116.543 63.2686 116.828 63.6084 116.953C64.0107 117.102 64.4014 117 64.6787 116.672C65.4443 115.778 66.1865 114.867 66.9404 113.961C67.2803 113.555 67.4561 113.106 67.0732 112.657C66.6748 112.188 66.1904 112.34 65.7686 112.637ZM78.2373 106.039C77.3311 106.887 76.5381 107.832 75.8779 108.887C75.7217 109.137 75.6357 109.43 75.5732 109.571C75.5186 110.188 75.7607 110.469 76.1709 110.614C76.7021 110.805 77.0498 110.492 77.3115 110.11C77.999 109.121 78.6592 108.11 79.46 107.203C79.8389 106.774 80.2178 106.317 79.667 105.801C79.1396 105.305 78.6396 105.66 78.2373 106.039ZM9.51074 103.457C9.45215 102.977 9.24902 102.551 8.70996 102.504C8.20215 102.461 7.99512 102.875 7.81152 103.27C7.76465 103.379 7.72949 103.496 7.69824 103.614C6.97168 106.766 6.90527 109.953 7.17871 113.16C7.20605 113.481 7.35059 113.805 7.50293 114.094C7.77637 114.602 8.17871 114.992 8.80762 114.875C9.43262 114.754 9.49512 114.219 9.58105 113.692C9.87402 111.793 9.80371 109.891 9.58496 107.989C9.58496 106.871 9.59277 105.75 9.58105 104.633C9.58105 104.242 9.55762 103.848 9.51074 103.457ZM-1.09082 98.9847C-1.73926 98.7854 -2.11035 99.1956 -2.37988 99.7073C-2.49316 99.9222 -2.5752 100.153 -2.65723 100.379C-3.22363 101.903 -3.27051 103.512 -3.43457 105.379C-3.39551 106.68 -3.22363 108.242 -2.84082 109.77C-2.7666 110.082 -2.5752 110.379 -2.3877 110.645C-2.08691 111.067 -1.6377 111.117 -1.16504 111.032C-0.692383 110.946 -0.547852 110.586 -0.493164 110.176C-0.438477 109.789 -0.34082 109.387 -0.399414 109.012C-0.825195 106.094 -0.895508 103.176 -0.481445 100.25C-0.411133 99.7229 -0.469727 99.1761 -1.09082 98.9847ZM4.63965 102C4.63574 101.426 4.38184 100.996 3.79199 100.864C3.17871 100.727 2.72559 100.989 2.45996 101.543C2.34277 101.785 2.24902 102.051 2.20996 102.313C1.87012 104.438 1.66309 106.571 1.81152 108.723C1.88574 109.805 1.9873 110.895 2.34277 111.934C2.55371 112.543 2.9209 113.067 3.64746 112.957C4.32324 112.86 4.35449 112.262 4.4248 111.7C4.63965 109.946 4.40918 108.192 4.63965 106.442C4.63965 104.961 4.64746 103.481 4.63965 102ZM15.2881 105.422C15.3076 104.715 15.249 104.012 14.3975 103.864C13.6006 103.723 13.2959 104.34 13.0654 104.965C12.9873 105.16 12.9287 105.364 12.8701 105.567C11.9756 108.731 12.1748 111.856 13.2178 114.946C13.335 115.285 13.4951 115.621 13.6904 115.918C13.8936 116.239 14.2139 116.446 14.6162 116.375C15.0107 116.301 15.2256 116.02 15.335 115.641C15.5186 115.016 15.4951 114.371 15.4209 113.746C15.0732 110.977 14.7764 108.207 15.2881 105.422ZM-5.4541 105.375C-5.86426 103.184 -5.68848 100.973 -5.58301 98.5667C-5.58301 98.6761 -5.55957 98.5745 -5.58691 98.4925C-5.80957 97.8753 -5.3252 96.7933 -6.36426 96.7308C-7.30957 96.6761 -7.38379 97.6722 -7.5791 98.3909C-8.21582 100.731 -8.25879 103.125 -8.09473 105.512C-8.00488 106.867 -7.7666 108.231 -7.00488 109.41C-6.61035 110.024 -6.05176 110.532 -5.2666 110.211C-4.4541 109.883 -4.63379 109.121 -4.75879 108.473C-4.96191 107.434 -5.2627 106.414 -5.4541 105.375ZM25.999 107.422C25.6631 108.668 25.8037 109.953 25.6357 111.11C25.6084 113.094 25.7295 114.965 26.0732 116.817C26.2178 117.617 26.5498 118.317 27.2217 118.813C27.9834 119.379 28.7021 119.141 28.9678 118.25C29.1357 117.688 29.1514 117.121 29.0615 116.543C28.7373 114.571 28.4404 112.598 28.3467 110.598C28.2959 109.539 28.2061 108.485 28.0615 107.438C27.9834 106.875 27.6748 106.379 26.9912 106.41C26.3818 106.438 26.1475 106.879 25.999 107.422ZM22.7568 106.325C22.8037 105.75 22.5654 105.301 21.9912 105.129C21.4014 104.95 20.999 105.274 20.71 105.742C20.5693 105.973 20.4795 106.235 20.3818 106.489C19.8271 107.996 19.8076 109.575 19.7568 111.149C19.7568 111.453 19.7412 111.754 19.7568 112.055C19.8584 113.758 19.9756 115.461 20.9951 116.922C21.4248 117.539 21.9521 118.27 22.8271 117.903C23.624 117.563 23.4365 116.739 23.3193 116.055C22.9561 113.938 22.417 111.856 22.499 109.672C22.5381 108.547 22.667 107.442 22.7568 106.325ZM-14.1064 105.7C-15.3877 103.278 -15.5869 100.688 -15.2705 97.6878C-15.2705 96.8167 -15.2627 95.6058 -15.2705 94.3987C-15.2744 93.9651 -15.4541 93.6253 -15.9072 93.5237C-16.3486 93.4222 -16.6807 93.6331 -16.8838 94.0081C-17.0127 94.2425 -17.1143 94.5003 -17.1729 94.762C-17.751 97.3362 -18.1299 99.9378 -17.9346 102.582C-17.8057 104.34 -17.1924 105.938 -15.9033 107.211C-15.3916 107.715 -14.7744 108.242 -14.0869 107.774C-13.4111 107.313 -13.79 106.575 -14.0049 105.95C-14.0322 105.864 -14.0674 105.778 -14.1064 105.7ZM-12.7119 107.711C-12.4502 108.328 -12.1064 108.903 -11.5322 109.289C-11.1104 109.575 -10.6221 109.668 -10.1533 109.457C-9.69629 109.254 -9.84863 108.774 -9.8291 108.41C-9.80957 108.02 -9.8291 107.614 -9.93457 107.239C-10.5908 104.856 -10.7861 102.422 -10.8643 99.9612C-10.8643 98.6604 -10.8525 97.3636 -10.8682 96.0628C-10.876 95.4925 -11.1299 95.0628 -11.7432 94.9729C-12.3916 94.8792 -12.7822 95.2308 -12.9697 95.8089C-13.1025 96.2112 -13.208 96.6253 -13.2666 97.0394C-13.5908 99.4144 -13.6494 101.805 -13.5322 104.196C-13.4697 105.41 -13.1885 106.586 -12.7119 107.711ZM37.0576 154.649C36.2061 156.879 35.1787 158.828 35.4131 161.196C36.7803 160.188 37.6826 156.692 37.0576 154.649ZM38.3154 151.875C39.1357 153.34 40.3506 154.696 39.9092 156.289C39.8818 158.223 39.46 159.758 38.7959 161.231C38.4443 162.008 37.9834 162.715 37.335 163.285C35.6201 164.793 33.3311 164.039 32.7881 161.809C32.5771 160.93 32.6045 160.047 32.7998 159.2C33.3467 156.785 34.3037 154.547 35.8193 152.571C36.1318 152.16 36.4912 151.797 36.9951 151.606C37.5029 151.41 38.0771 151.453 38.3154 151.875ZM0.0185547 142.563C-0.458008 145.371 -0.891602 148.098 -1.19238 150.891C1.06934 149.625 1.72559 145.157 0.0185547 142.563ZM2.56152 141.934C3.59668 143.219 3.95996 144.711 3.70996 146.356C3.36621 148.629 2.75293 150.782 1.12402 152.516C0.600586 153.071 0.0146503 153.543 -0.688477 153.848C-2.22363 154.52 -3.62207 153.731 -3.78613 152.071C-3.90332 150.918 -3.69629 149.782 -3.47754 148.653C-3.05176 146.492 -2.67285 144.321 -1.91504 142.239C-1.74707 141.77 -1.55566 141.336 -0.985352 141.242C-0.422852 141.149 -0.18457 141.555 0.0693359 141.934C0.905273 140.992 1.77246 140.957 2.56152 141.934ZM-17.6924 140.742C-17.6885 139.321 -18.0127 138.582 -18.6338 138.192C-18.9697 137.981 -19.1924 137.973 -19.2588 138.426C-19.5283 140.301 -20.0049 142.157 -19.6963 144.075C-19.6611 144.278 -19.6689 144.532 -19.4385 144.614C-19.1299 144.723 -19.0166 144.434 -18.8916 144.246C-18.126 143.09 -17.7666 141.797 -17.6924 140.742ZM-14.8994 139.559C-14.751 142.125 -15.4111 144.473 -17.1025 146.465C-17.9189 147.426 -18.9502 147.848 -20.1807 147.528C-21.4189 147.203 -22.0596 146.289 -22.3525 145.086C-22.5166 144.403 -22.5908 143.715 -22.5986 143.012C-22.4932 140.977 -22.1416 138.965 -21.3564 137.102C-20.6025 135.309 -18.3564 134.953 -16.5752 136.262C-15.4814 137.063 -14.9697 138.25 -14.8994 139.559ZM-9.02832 140.117C-9.29785 139.742 -9.59082 139.715 -9.96582 139.828C-10.3291 139.938 -10.5869 140.098 -10.6182 140.563C-10.7002 141.887 -10.9814 143.196 -10.9072 144.278C-10.9072 145.192 -10.9189 145.856 -10.8994 146.524C-10.8877 146.903 -10.9502 147.375 -10.4502 147.5C-10.0361 147.606 -9.69629 147.356 -9.41895 147.059C-8.04004 145.555 -7.84473 141.742 -9.02832 140.117ZM-6.48145 139.192C-5.72754 140.317 -5.4502 141.59 -5.50879 142.91C-5.58691 144.645 -6.00098 146.321 -6.79785 147.879C-7.71973 149.684 -9.73145 150.532 -11.5283 149.957C-12.458 149.66 -12.9932 149.043 -13.2627 148.141C-13.5049 147.317 -13.5439 146.473 -13.5361 145.621C-13.4307 143.442 -13.1963 141.278 -12.4971 139.196C-12.1494 138.157 -11.8096 137.992 -10.7549 138.313C-10.3057 138.45 -9.87207 138.293 -9.54395 138.125C-8.42676 137.555 -7.12207 138.227 -6.48145 139.192ZM74.6045 97.0979C74.8623 96.4886 74.8311 95.8519 74.8115 95.2151C74.7764 94.2776 74.4131 93.9026 73.4678 93.8792C72.4951 93.8558 71.5264 93.8753 70.5576 93.8753C68.8584 93.8011 67.1865 93.9808 65.5068 94.2776C64.3154 94.4886 64.0654 94.637 64.0537 95.8479C64.0381 96.9144 64.3662 97.9456 64.3857 99.0003C64.3975 99.6175 64.667 99.93 65.1631 100.192C65.7334 100.489 66.3271 100.512 66.9326 100.473C68.6592 100.36 70.3818 100.262 72.1006 100.102C72.7881 100.039 73.4756 99.8675 74.1357 99.6604C74.9365 99.4026 75.1748 98.8011 74.7334 98.1097C74.5107 97.7542 74.4561 97.4534 74.6045 97.0979ZM20.6084 148.039C20.1475 149.629 19.7529 150.977 19.3623 152.328C19.0029 153.578 18.7607 154.852 18.7764 156.153C18.7803 156.555 18.7529 157.164 19.1826 157.266C19.6475 157.375 19.7998 156.774 19.9717 156.414C20.6123 155.102 20.9639 153.688 21.0928 152.246C21.2139 150.91 21.2607 149.543 20.6084 148.039ZM23.4951 148.469C23.6631 149.301 23.7959 150.137 23.7959 150.996C23.6553 153.242 23.2764 155.438 22.374 157.516C22.0576 158.242 21.6318 158.907 21.0225 159.434C19.542 160.707 17.6943 160.379 16.7139 158.692C15.9951 157.457 16.0107 156.121 16.2334 154.801C16.6045 152.582 17.2842 150.45 18.3389 148.45C18.6943 147.77 19.1045 147.11 20.0537 147.242C20.2764 147.274 20.3389 147.129 20.4482 146.965C21.0771 146.028 21.8779 145.965 22.667 146.778C23.124 147.25 23.3701 147.836 23.4951 148.469ZM29.8857 151.434C28.7568 153.805 28.1006 156.301 27.9248 158.91C27.9092 159.168 27.749 159.551 28.0381 159.657C28.4053 159.789 28.5068 159.36 28.6318 159.117C29.9092 156.707 30.0537 154.102 29.8857 151.434ZM32.3701 150.223C32.5889 151.117 32.6162 152.02 32.6162 152.93C32.5693 155.305 32.2646 157.629 31.2764 159.821C30.9756 160.489 30.5732 161.09 30.0811 161.633C29.2998 162.5 28.3467 162.903 27.2295 162.5C26.0928 162.09 25.4014 161.231 25.2725 159.996C25.0889 158.239 25.5811 156.575 26.0264 154.91C26.5459 152.965 27.3936 151.168 28.4951 149.481C29.0811 148.578 29.835 148.098 30.9287 148.336C31.9287 148.555 32.1631 149.367 32.3701 150.223ZM9.82715 145.453C9.74121 145.508 9.66309 145.532 9.65137 145.571C8.77637 148.125 8.30762 150.758 8.06152 153.438C8.03809 153.696 7.9834 154.024 8.27246 154.18C8.55762 154.336 8.79199 154.09 9.01074 153.957C10.0967 153.293 10.3389 152.145 10.6396 151.035C11.1826 149.059 11.0537 147.18 9.82715 145.453ZM12.6631 145.102C13.3662 146.008 13.6982 147.203 13.7021 149.25C13.6396 150.461 13.3193 152.082 12.6748 153.633C11.9404 155.41 10.585 156.485 8.75293 156.973C7.28809 157.36 6.10449 156.723 5.59277 155.285C5.14746 154.032 5.37012 152.778 5.58105 151.52C6.01074 148.977 6.64355 146.496 7.77246 144.16C8.01074 143.672 8.25293 143.176 8.7334 142.864C9.38574 142.438 10.0459 142.715 10.1006 143.481C10.1357 143.922 10.1279 144.106 10.6982 144.024C11.5576 143.891 12.1631 144.453 12.6631 145.102ZM62.0928 101.399C62.4912 99.8011 62.4131 98.1526 62.4678 96.5276C62.5029 95.4729 62.085 95.0745 61.0381 94.8948C58.3428 94.4339 55.6709 94.93 53.0029 95.1604C51.4834 95.2933 51.1904 95.7229 51.21 97.2737C51.2256 98.2737 51.2842 99.2698 51.2334 100.266C51.1318 102.313 51.6865 102.895 53.7451 103.004C55.2959 103.086 56.8154 102.754 58.3623 102.817C58.9053 102.817 59.4873 102.942 59.9834 102.785C60.7959 102.535 61.8271 102.465 62.0928 101.399ZM-16.3799 88.7854C-16.1885 88.0784 -15.5518 88.2112 -14.9424 88.1604C-12.9932 88.3948 -11.083 89.1058 -9.12988 89.6448C-2.35254 91.5237 4.18652 94.0628 10.749 96.5784C15.1201 98.2503 19.5381 99.8401 23.9482 101.422C25.0576 101.821 25.9404 102.555 26.6514 103.489C26.7959 103.68 26.9873 103.914 26.8076 104.141C26.5654 104.446 26.3857 104.106 26.21 104C24.9639 103.235 23.6553 102.586 22.1904 102.457C19.1709 102.192 16.3779 101.067 13.4795 100.332C8.6748 99.1058 4.24512 96.8636 -0.454102 95.3519C-4.77441 93.9651 -9.14551 92.7308 -13.3799 91.0706C-14.1104 90.7854 -14.8174 90.4378 -15.5283 90.0979C-16.0674 89.8362 -16.5752 89.5003 -16.3799 88.7854Z" fill="#041461"/>
</svg>
