<svg width="68" height="68" viewBox="0 0 68 68" fill="none" xmlns="http://www.w3.org/2000/svg">
<path d="M53.8334 5.6665H14.1667C9.47795 5.68019 5.68037 9.47776 5.66669 14.1665V39.2698L16.66 28.2765C20.0245 25.0748 25.3089 25.0748 28.6734 28.2765L36.809 36.4563L39.3236 33.9417C42.6483 30.6363 48.0184 30.6363 51.3431 33.9417L62.3334 44.932V14.1665C62.3197 9.47776 58.5221 5.68019 53.8334 5.6665Z" fill="#EE7100" fill-opacity="0.39"/>
<path d="M28.6734 28.2767C25.3089 25.0751 20.0245 25.0751 16.66 28.2767L5.66669 39.2701V53.8334C5.6804 58.5221 9.47797 62.3197 14.1667 62.3334H53.8334C56.1429 62.3324 58.3524 61.3913 59.9534 59.7267L28.6734 28.2767Z" fill="#EE7100"/>
<path d="M62.333 44.9322L51.3427 33.9419C48.018 30.6365 42.648 30.6365 39.3232 33.9419L36.8086 36.4565L59.9406 59.7141C61.4766 58.1423 62.3355 56.0311 62.333 53.8334V44.9322Z" fill="#EE7100" fill-opacity="0.65"/>
</svg>
