<svg width="14" height="18" viewBox="0 0 14 18" fill="none" xmlns="http://www.w3.org/2000/svg">
<path d="M0.333344 8.99996C0.333344 9.22097 0.421141 9.43293 0.577421 9.58922C0.733702 9.7455 0.945663 9.83329 1.16668 9.83329H7.49168L5.57501 11.7416C5.4969 11.8191 5.43491 11.9113 5.3926 12.0128C5.35029 12.1144 5.32851 12.2233 5.32851 12.3333C5.32851 12.4433 5.35029 12.5522 5.3926 12.6538C5.43491 12.7553 5.4969 12.8475 5.57501 12.925C5.65248 13.0031 5.74465 13.0651 5.8462 13.1074C5.94774 13.1497 6.05667 13.1715 6.16668 13.1715C6.27669 13.1715 6.38561 13.1497 6.48716 13.1074C6.58871 13.0651 6.68087 13.0031 6.75834 12.925L10.0917 9.59163C10.1675 9.51237 10.227 9.41892 10.2667 9.31663C10.35 9.11374 10.35 8.88618 10.2667 8.68329C10.227 8.581 10.1675 8.48755 10.0917 8.40829L6.75834 5.07496C6.68064 4.99726 6.5884 4.93563 6.48688 4.89358C6.38537 4.85153 6.27656 4.82988 6.16668 4.82988C6.05679 4.82988 5.94799 4.85153 5.84647 4.89358C5.74495 4.93563 5.65271 4.99726 5.57501 5.07496C5.49731 5.15266 5.43568 5.2449 5.39363 5.34642C5.35158 5.44794 5.32993 5.55674 5.32993 5.66663C5.32993 5.77651 5.35158 5.88532 5.39363 5.98683C5.43568 6.08835 5.49731 6.18059 5.57501 6.25829L7.49168 8.16663H1.16668C0.945663 8.16663 0.733702 8.25442 0.577421 8.4107C0.421141 8.56698 0.333344 8.77895 0.333344 8.99996ZM11.1667 0.666626H2.83334C2.1703 0.666626 1.53442 0.930018 1.06558 1.39886C0.596736 1.8677 0.333344 2.50358 0.333344 3.16663V5.66663C0.333344 5.88764 0.421141 6.0996 0.577421 6.25588C0.733702 6.41216 0.945663 6.49996 1.16668 6.49996C1.38769 6.49996 1.59965 6.41216 1.75593 6.25588C1.91221 6.0996 2.00001 5.88764 2.00001 5.66663V3.16663C2.00001 2.94561 2.08781 2.73365 2.24409 2.57737C2.40037 2.42109 2.61233 2.33329 2.83334 2.33329H11.1667C11.3877 2.33329 11.5997 2.42109 11.7559 2.57737C11.9122 2.73365 12 2.94561 12 3.16663V14.8333C12 15.0543 11.9122 15.2663 11.7559 15.4225C11.5997 15.5788 11.3877 15.6666 11.1667 15.6666H2.83334C2.61233 15.6666 2.40037 15.5788 2.24409 15.4225C2.08781 15.2663 2.00001 15.0543 2.00001 14.8333V12.3333C2.00001 12.1123 1.91221 11.9003 1.75593 11.744C1.59965 11.5878 1.38769 11.5 1.16668 11.5C0.945663 11.5 0.733702 11.5878 0.577421 11.744C0.421141 11.9003 0.333344 12.1123 0.333344 12.3333V14.8333C0.333344 15.4963 0.596736 16.1322 1.06558 16.6011C1.53442 17.0699 2.1703 17.3333 2.83334 17.3333H11.1667C11.8297 17.3333 12.4656 17.0699 12.9344 16.6011C13.4033 16.1322 13.6667 15.4963 13.6667 14.8333V3.16663C13.6667 2.50358 13.4033 1.8677 12.9344 1.39886C12.4656 0.930018 11.8297 0.666626 11.1667 0.666626Z" fill="#FF3B30"/>
</svg>
