<svg width="68" height="68" viewBox="0 0 68 68" fill="none" xmlns="http://www.w3.org/2000/svg">
<path d="M53.8334 5.66666H14.1667C9.47801 5.68034 5.68043 9.47791 5.66675 14.1667V39.27L16.6601 28.2767C20.0246 25.075 25.3089 25.075 28.6734 28.2767L36.809 36.4565L39.3237 33.9419C42.6484 30.6365 48.0184 30.6365 51.3432 33.9419L62.3334 44.9321V14.1667C62.3197 9.47791 58.5222 5.68034 53.8334 5.66666Z" fill="#B2B1FF"/>
<path d="M28.6734 28.2766C25.3089 25.075 20.0246 25.075 16.6601 28.2766L5.66675 39.27V53.8333C5.68046 58.522 9.47803 62.3196 14.1667 62.3333H53.8334C56.1429 62.3324 58.3525 61.3912 59.9534 59.7266L28.6734 28.2766Z" fill="#1976D2"/>
<path d="M62.333 44.9321L51.3427 33.9419C48.018 30.6365 42.648 30.6365 39.3232 33.9419L36.8086 36.4565L59.9406 59.7141C61.4766 58.1423 62.3355 56.0311 62.333 53.8333V44.9321Z" fill="#D8D8FF"/>
</svg>
