<svg width="18" height="18" viewBox="0 0 18 18" fill="none" xmlns="http://www.w3.org/2000/svg">
<path d="M8.99999 0.379517C6.71443 0.382087 4.52322 1.29116 2.90708 2.9073C1.29095 4.52343 0.381873 6.71465 0.379303 9.00021C0.383189 11.2854 1.29269 13.4758 2.90854 15.0917C4.52439 16.7075 6.71484 17.617 8.99999 17.6209C11.2863 17.6209 13.479 16.7126 15.0957 15.096C16.7124 13.4793 17.6207 11.2866 17.6207 9.00021C17.6207 6.71386 16.7124 4.52115 15.0957 2.90446C13.479 1.28777 11.2863 0.379517 8.99999 0.379517ZM14.2435 13.9746C13.7593 12.9981 13.0119 12.1764 12.0855 11.6021C11.1591 11.0278 10.0907 10.7238 9.0008 10.7243C7.91086 10.7249 6.84278 11.0301 5.91704 11.6054C4.99131 12.1807 4.24476 13.0033 3.76162 13.9803C2.47247 12.6434 1.75411 10.8574 1.75861 9.00021C1.75861 7.07967 2.52154 5.2378 3.87956 3.87978C5.23759 2.52176 7.07946 1.75883 8.99999 1.75883C10.9205 1.75883 12.7624 2.52176 14.1204 3.87978C15.4784 5.2378 16.2414 7.07967 16.2414 9.00021C16.2457 10.8547 15.5293 12.6383 14.2435 13.9746ZM8.99999 3.82779C8.38619 3.82779 7.78617 4.00981 7.27581 4.35082C6.76545 4.69183 6.36767 5.17652 6.13278 5.7436C5.89789 6.31068 5.83643 6.93468 5.95618 7.53669C6.07592 8.1387 6.3715 8.69169 6.80552 9.12571C7.23955 9.55974 7.79253 9.85531 8.39454 9.97506C8.99655 10.0948 9.62055 10.0333 10.1876 9.79845C10.7547 9.56356 11.2394 9.16578 11.5804 8.65543C11.9214 8.14507 12.1034 7.54505 12.1034 6.93124C12.1034 6.52369 12.0232 6.12013 11.8672 5.7436C11.7112 5.36708 11.4826 5.02495 11.1945 4.73677C10.9063 4.44859 10.5642 4.21999 10.1876 4.06403C9.8111 3.90807 9.40754 3.82779 8.99999 3.82779Z" fill="#202020"/>
</svg>
