<svg width="24" height="24" viewBox="0 0 24 24" fill="none" xmlns="http://www.w3.org/2000/svg">
<path d="M18.4792 11.3569L18.6667 14.6486C18.6944 15.1278 18.4097 15.5722 17.8125 15.9819C17.2153 16.3917 16.3993 16.7163 15.3646 16.9559C14.3299 17.1955 13.2083 17.3153 12 17.3153C10.7917 17.3153 9.67014 17.1955 8.63542 16.9559C7.60069 16.7163 6.78472 16.3917 6.1875 15.9819C5.59028 15.5722 5.30556 15.1278 5.33333 14.6486L5.52083 11.3569L11.5 13.2423C11.6528 13.291 11.8194 13.3153 12 13.3153C12.1806 13.3153 12.3472 13.291 12.5 13.2423L18.4792 11.3569ZM24 7.98193C24 8.14166 23.9236 8.24929 23.7708 8.30485L12.1042 11.9715C12.0764 11.9785 12.0417 11.9819 12 11.9819C11.9583 11.9819 11.9236 11.9785 11.8958 11.9715L5.10417 9.82568C4.80556 10.0618 4.55903 10.4489 4.36458 10.9871C4.17014 11.5253 4.05208 12.1451 4.01042 12.8465C4.44792 13.0965 4.66667 13.475 4.66667 13.9819C4.66667 14.4611 4.46528 14.8326 4.0625 15.0965L4.66667 19.6069C4.68056 19.7042 4.65278 19.791 4.58333 19.8673C4.52083 19.9437 4.4375 19.9819 4.33333 19.9819H2.33333C2.22917 19.9819 2.14583 19.9437 2.08333 19.8673C2.01389 19.791 1.98611 19.7042 2 19.6069L2.60417 15.0965C2.20139 14.8326 2 14.4611 2 13.9819C2 13.475 2.22569 13.0896 2.67708 12.8257C2.75347 11.3882 3.09375 10.2424 3.69792 9.38818L0.229167 8.30485C0.0763889 8.24929 0 8.14166 0 7.98193C0 7.82221 0.0763889 7.71457 0.229167 7.65902L11.8958 3.99235C11.9236 3.98541 11.9583 3.98193 12 3.98193C12.0417 3.98193 12.0764 3.98541 12.1042 3.99235L23.7708 7.65902C23.9236 7.71457 24 7.82221 24 7.98193Z" fill="white"/>
</svg>
