<svg width="49" height="49" viewBox="0 0 49 49" fill="none" xmlns="http://www.w3.org/2000/svg">
<rect x="4" y="4" width="41" height="41" rx="20.5" fill="#1E398F"/>
<path d="M35.0008 21.4999C35.0001 20.7009 34.8172 19.9127 34.4658 19.1951C34.1145 18.4776 33.604 17.8497 32.9733 17.3593C32.3426 16.8689 31.6082 16.5289 30.8262 16.3652C30.0442 16.2016 29.2352 16.2185 28.4608 16.4149C27.4753 15.7005 26.2579 15.3812 25.0487 15.5201C23.8395 15.6589 22.7262 16.2457 21.9283 17.1649C21.5476 17.0448 21.1497 16.9891 20.7508 16.9999C19.8752 16.9989 19.0269 17.3044 18.353 17.8633C17.679 18.4222 17.2219 19.1993 17.0608 20.0599C16.1373 20.227 15.3101 20.7342 14.7424 21.4815C14.1747 22.2288 13.9079 23.1618 13.9945 24.0962C14.0812 25.0307 14.5151 25.8986 15.2105 26.5288C15.9059 27.1589 16.8123 27.5054 17.7508 27.4999H21.6283C21.7834 27.9387 22.0709 28.3187 22.451 28.5873C22.8312 28.856 23.2853 29.0001 23.7508 28.9999H24.7858L26.7508 32.8774C26.8433 33.0647 26.9866 33.2223 27.1642 33.3324C27.3418 33.4424 27.5468 33.5004 27.7558 33.4999H30.7558C30.9361 33.5006 31.114 33.4579 31.2744 33.3754C31.4348 33.293 31.573 33.1732 31.6774 33.0261C31.7818 32.8791 31.8493 32.7091 31.8743 32.5305C31.8992 32.3519 31.8809 32.1699 31.8208 31.9999L30.8158 28.9999H32.0008C32.7964 28.9999 33.5595 28.6838 34.1221 28.1212C34.6847 27.5586 35.0008 26.7955 35.0008 25.9999C35.0024 25.3034 34.7581 24.6287 34.3108 24.0949C34.7644 23.3054 35.0024 22.4104 35.0008 21.4999ZM32.0008 27.4999H29.8483C29.7183 27.4995 29.5901 27.53 29.4741 27.5886C29.3581 27.6473 29.2576 27.7325 29.1808 27.8374C29.1076 27.9462 29.0596 28.07 29.0401 28.1997C29.0206 28.3294 29.0303 28.4618 29.0683 28.5874L30.2083 31.9999H27.9583L26.0008 28.0699C25.9161 27.8977 25.7847 27.7529 25.6215 27.6521C25.4584 27.5513 25.2701 27.4985 25.0783 27.4999H23.7508C23.5518 27.4999 23.3611 27.4208 23.2204 27.2802C23.0798 27.1395 23.0008 26.9488 23.0008 26.7499C23.0008 26.352 23.1588 25.9705 23.4401 25.6892C23.7214 25.4079 24.1029 25.2499 24.5008 25.2499C24.6997 25.2499 24.8904 25.1708 25.0311 25.0302C25.1717 24.8895 25.2508 24.6988 25.2508 24.4999C25.2508 24.3009 25.1717 24.1102 25.0311 23.9695C24.8904 23.8289 24.6997 23.7499 24.5008 23.7499C23.8373 23.752 23.1933 23.974 22.6695 24.3811C22.1457 24.7882 21.7716 25.3575 21.6058 25.9999H17.7508C17.2231 25.9958 16.7137 25.8063 16.3115 25.4647C15.9094 25.1231 15.6401 24.651 15.5507 24.1309C15.4614 23.6109 15.5576 23.076 15.8227 22.6197C16.0877 22.1634 16.5047 21.8148 17.0008 21.6349C17.0355 22.4069 17.3669 23.1357 17.9258 23.6694C18.4847 24.2032 19.228 24.5006 20.0008 24.4999C20.1997 24.4999 20.3904 24.4208 20.5311 24.2802C20.6717 24.1395 20.7508 23.9488 20.7508 23.7499C20.7508 23.5509 20.6717 23.3602 20.5311 23.2195C20.3904 23.0789 20.1997 22.9999 20.0008 22.9999C19.6029 22.9999 19.2214 22.8418 18.9401 22.5605C18.6588 22.2792 18.5008 21.8977 18.5008 21.4999V20.7499C18.5008 20.1531 18.7378 19.5808 19.1598 19.1589C19.5817 18.7369 20.154 18.4999 20.7508 18.4999C21.1239 18.5051 21.4899 18.603 21.8158 18.7849C21.9852 18.8705 22.1808 18.8888 22.3631 18.8359C22.5455 18.783 22.701 18.6629 22.7983 18.4999C23.2573 17.7879 23.9693 17.2766 24.7906 17.0692C25.6119 16.8618 26.4813 16.9737 27.2233 17.3824C26.8261 17.9004 26.621 18.5402 26.6429 19.1926C26.6648 19.845 26.9123 20.4696 27.3433 20.9599C27.4867 21.0827 27.6713 21.1469 27.86 21.1396C28.0488 21.1323 28.2279 21.0541 28.3614 20.9205C28.495 20.787 28.5732 20.6079 28.5805 20.4191C28.5878 20.2304 28.5236 20.0458 28.4008 19.9024C27.9208 19.4224 28.1683 18.5074 28.7083 17.8774C29.4052 17.6777 30.1451 17.6844 30.8383 17.8966C31.5315 18.1088 32.1484 18.5173 32.6142 19.0728C33.08 19.6283 33.3749 20.307 33.463 21.0266C33.5511 21.7461 33.4288 22.4759 33.1108 23.1274C32.6779 22.8962 32.1985 22.7655 31.7083 22.7449C31.303 22.7286 30.8987 22.7946 30.5197 22.939C30.1407 23.0833 29.7949 23.3031 29.5033 23.5849C29.3804 23.7283 29.3162 23.9129 29.3235 24.1016C29.3308 24.2904 29.409 24.4695 29.5426 24.603C29.6762 24.7366 29.8552 24.8148 30.044 24.8221C30.2327 24.8294 30.4173 24.7652 30.5608 24.6424C30.7067 24.5029 30.8801 24.3955 31.07 24.327C31.2598 24.2586 31.4619 24.2306 31.6633 24.2449C32.0924 24.2551 32.5021 24.4265 32.8108 24.7249H32.8558V24.7624C33.1205 24.9437 33.3202 25.2053 33.4253 25.5085C33.5305 25.8117 33.5356 26.1407 33.4399 26.4471C33.3442 26.7534 33.1528 27.021 32.8937 27.2105C32.6347 27.4 32.3217 27.5014 32.0008 27.4999Z" fill="white"/>
<rect x="2" y="2" width="45" height="45" rx="22.5" stroke="#1E398F" stroke-opacity="0.25" stroke-width="4"/>
</svg>
